<?xml version="1.0" standalone="no"?>
<!DOCTYPE svg PUBLIC "-//W3C//DTD SVG 1.1//EN" "http://www.w3.org/Graphics/SVG/1.1/DTD/svg11.dtd" >
<svg xmlns="http://www.w3.org/2000/svg">
<metadata></metadata>
<defs>
<font id="liberation_monoregular" horiz-adv-x="1229" >
<font-face units-per-em="2048" ascent="1638" descent="-410" />
<missing-glyph horiz-adv-x="500" />
<glyph />
<glyph />
<glyph unicode="&#xd;" />
<glyph unicode=" " />
<glyph unicode="!" d="M515 0v201h194v-201h-194zM517 1348h196l-24 -951h-148z" />
<glyph unicode="&#x22;" d="M277 1484h224l-42 -639h-141zM726 1484h224l-42 -639h-142z" />
<glyph unicode="#" d="M54 408v108h225l67 317h-241v108h263l89 408h110l-88 -408h363l88 408h110l-88 -408h211v-108h-233l-67 -317h260v-108h-283l-88 -408h-110l86 408h-363l-84 -408h-110l84 408h-201zM390 516h362l67 317h-360z" />
<glyph unicode="$" d="M66 379l170 37q26 -126 106 -188.5t216 -69.5v489l-30 8q-168 41 -246.5 89.5t-115 116.5t-36.5 162q0 149 109.5 232.5t318.5 90.5v130h128v-130q186 -7 287 -79.5t146 -241.5l-174 -33q-22 106 -86 160t-173 61v-426q172 -42 249 -78t123 -82t69 -106.5t23 -140.5 q0 -162 -120 -256.5t-344 -103.5v-161h-128v161q-422 14 -492 359zM302 1018q0 -57 23.5 -95.5t68.5 -64t164 -56.5v413q-126 -5 -191 -55.5t-65 -141.5zM686 156q144 9 218 67.5t74 159.5q0 66 -27.5 109t-77.5 71.5t-187 63.5v-471z" />
<glyph unicode="%" d="M0 1025q0 167 70 251.5t221 84.5q283 0 283 -336q0 -167 -73 -254t-214 -87t-214 86t-73 255zM76 0l932 1353h147l-934 -1353h-145zM147 1025q0 -116 33 -172t109 -56q71 0 104.5 55.5t33.5 172.5q0 119 -31.5 173.5t-105.5 54.5q-77 0 -110 -53t-33 -175zM656 329 q0 167 70 251.5t221 84.5q283 0 283 -336q0 -167 -73 -254t-214 -87t-214 86t-73 255zM803 329q0 -116 33 -172t109 -56q71 0 104.5 55.5t33.5 172.5q0 119 -31.5 173.5t-105.5 54.5q-77 0 -110 -53t-33 -175z" />
<glyph unicode="&#x26;" d="M43 358q0 268 292 419q-32 60 -53.5 136.5t-21.5 145.5q0 136 92.5 217t258.5 81q146 0 233.5 -72t87.5 -195q0 -75 -39.5 -133.5t-114 -109t-253.5 -125.5q132 -231 277 -389q88 182 125 406l145 -43q-44 -236 -162 -462q43 -54 91.5 -79.5t88.5 -25.5q58 0 95 16v-135 q-48 -22 -113 -22q-73 0 -143.5 35t-120.5 94q-153 -137 -347 -137q-199 0 -308.5 100t-109.5 278zM211 362q0 -115 69 -183t189 -68q64 0 126.5 27.5t110.5 78.5q-180 203 -316 441q-179 -97 -179 -296zM408 1056q0 -110 61 -224q161 68 210 99.5t75 69t26 84.5 q0 70 -48 110.5t-124 40.5q-89 0 -144.5 -49t-55.5 -131z" />
<glyph unicode="'" d="M502 1484h224l-42 -639h-141z" />
<glyph unicode="(" d="M342 532q0 273 82 492.5t277 459.5h190q-192 -236 -277 -458.5t-85 -495.5q0 -275 85 -497t277 -458h-190q-192 236 -275.5 457.5t-83.5 499.5z" />
<glyph unicode=")" d="M336 -425q196 241 280 463.5t84 491.5q0 268 -84 490.5t-280 463.5h192q195 -240 276 -458t81 -494q0 -280 -82.5 -500.5t-274.5 -456.5h-192z" />
<glyph unicode="*" d="M248 1159l45 134l267 -107l-12 297h136l-13 -295l264 103l45 -132l-282 -73l185 -250l-119 -72l-150 258l-156 -256l-119 72l189 248z" />
<glyph unicode="+" d="M116 608v146h424v428h147v-428h424v-146h-424v-428h-147v428h-424z" />
<glyph unicode="," d="M259 -363l169 662h265l-311 -662h-123z" />
<glyph unicode="-" d="M334 464v160h560v-160h-560z" />
<glyph unicode="." d="M496 0v299h235v-299h-235z" />
<glyph unicode="/" d="M114 -20l821 1504h178l-817 -1504h-182z" />
<glyph unicode="0" d="M124 675q0 349 119 522t374 173q249 0 367.5 -174.5t118.5 -520.5q0 -338 -124.5 -516.5t-367.5 -178.5t-365 177.5t-122 517.5zM306 675q0 -285 73.5 -416.5t233.5 -131.5q159 0 233 135t74 413q0 290 -70.5 419.5t-232.5 129.5q-166 0 -238.5 -128t-72.5 -421zM496 555 v249h235v-249h-235z" />
<glyph unicode="1" d="M148 972v148q148 0 279.5 65t183.5 164h166v-1204h353v-145h-973v145h439v1021q-37 -78 -175.5 -136t-272.5 -58z" />
<glyph unicode="2" d="M144 0v117q49 109 152.5 219.5t281.5 252.5q159 127 229 221t70 181q0 111 -69 171t-197 60q-114 0 -184.5 -62.5t-83.5 -175.5l-184 17q20 170 139 269.5t313 99.5q213 0 332 -96t119 -272q0 -115 -76 -229.5t-227 -234.5q-206 -164 -285.5 -241.5t-112.5 -150.5h723 v-146h-940z" />
<glyph unicode="3" d="M128 362l186 17q36 -250 307 -250q136 0 213.5 63t77.5 184q0 75 -45.5 126.5t-123.5 79t-175 27.5h-102v156h98q86 0 157.5 28.5t112.5 80.5t41 123q0 106 -66.5 165.5t-197.5 59.5q-119 0 -192.5 -61t-85.5 -172l-181 14q20 173 143.5 270t317.5 97q212 0 329.5 -93.5 t117.5 -260.5q0 -119 -79 -207t-216 -116v-4q151 -17 242.5 -106t91.5 -213q0 -186 -126 -288t-352 -102q-214 0 -342 97t-151 285z" />
<glyph unicode="4" d="M103 319v140l635 890h199v-888h188v-142h-188v-319h-180v319h-654zM257 461h500v693z" />
<glyph unicode="5" d="M128 315l182 21q57 -209 293 -209q141 0 225 84t84 229q0 124 -83 203t-222 79q-73 0 -136 -23t-126 -78h-176l47 728h801v-145h-635l-29 -425q117 90 291 90q204 0 329.5 -117.5t125.5 -307.5q0 -139 -59 -244t-172.5 -162.5t-268.5 -57.5q-197 0 -318 86t-153 249z" />
<glyph unicode="6" d="M151 642q0 348 132 538t372 190q319 0 402 -287l-172 -31q-53 172 -232 172q-153 0 -238 -139t-85 -390q49 91 138 138.5t204 47.5q192 0 308 -118.5t116 -316.5q0 -212 -121.5 -339t-333.5 -127q-236 0 -363 172.5t-127 489.5zM348 481q0 -152 80.5 -254t206.5 -102 q127 0 202.5 84t75.5 229q0 144 -76.5 224t-207.5 80q-74 0 -140 -33.5t-103.5 -93t-37.5 -134.5z" />
<glyph unicode="7" d="M158 1204v145h911v-139q-473 -680 -473 -1210h-188q0 263 122.5 567.5t364.5 636.5h-737z" />
<glyph unicode="8" d="M133 376q0 129 79 219.5t202 111.5v4q-112 27 -180 114t-68 199q0 98 55.5 178t156.5 124t232 44q137 0 239 -44.5t156 -123.5t54 -180q0 -113 -69 -200t-181 -109v-4q130 -21 207.5 -109.5t77.5 -221.5q0 -184 -124.5 -291t-355.5 -107q-226 0 -353.5 105t-127.5 291z M319 391q0 -135 75.5 -205.5t221.5 -70.5q147 0 219 69t72 211q0 120 -78 184.5t-219 64.5q-136 0 -213.5 -69.5t-77.5 -183.5zM350 1012q0 -111 69 -172t193 -61q260 0 260 233q0 111 -67.5 167.5t-194.5 56.5q-123 0 -191.5 -57t-68.5 -167z" />
<glyph unicode="9" d="M141 911q0 212 125.5 335.5t343.5 123.5q477 0 477 -667q0 -346 -133 -534.5t-377 -188.5q-165 0 -264.5 69.5t-142.5 224.5l172 27q54 -176 238 -176q154 0 240.5 139.5t88.5 385.5q-40 -90 -137 -144.5t-213 -54.5q-189 0 -303.5 127.5t-114.5 332.5zM324 911 q0 -143 75 -230.5t203 -87.5q76 0 143.5 34.5t106.5 96t39 138.5q0 161 -80 261.5t-207 100.5q-130 0 -205 -87t-75 -226z" />
<glyph unicode=":" d="M496 0v299h235v-299h-235zM496 783v299h235v-299h-235z" />
<glyph unicode=";" d="M352 -363l169 662h265l-311 -662h-123zM496 783v299h235v-299h-235z" />
<glyph unicode="&#x3c;" d="M116 571v205l995 418v-154l-858 -366l858 -367v-153z" />
<glyph unicode="=" d="M116 344v148h995v-148h-995zM116 856v148h995v-148h-995z" />
<glyph unicode="&#x3e;" d="M116 154v153l858 367l-858 366v154l995 -418v-205z" />
<glyph unicode="?" d="M94 960q26 197 159.5 303.5t340.5 106.5q223 0 351 -96.5t128 -271.5q0 -73 -22 -130t-63.5 -105.5t-133.5 -114.5q-110 -80 -145.5 -117t-56 -80t-21.5 -98h-175q2 70 24.5 125.5t62 102t134.5 117.5q107 78 140.5 115t53.5 79.5t20 97.5q0 109 -79.5 167.5t-215.5 58.5 q-135 0 -219.5 -73t-98.5 -199zM448 0v201h195v-201h-195z" />
<glyph unicode="@" d="M44 514q0 286 77 507.5t220 342t331 120.5q158 0 274.5 -90.5t179.5 -256t63 -382.5q0 -298 -82.5 -474.5t-222.5 -176.5q-143 0 -143 157v8l2 30h-6q-34 -88 -95.5 -141.5t-139.5 -53.5q-106 0 -165.5 100t-59.5 285q0 161 48.5 304t132 225.5t186.5 82.5 q71 0 116.5 -41.5t67.5 -131.5h5l32 151h116l-99 -507q-40 -210 -40 -278q0 -88 49 -88q78 0 127.5 149t49.5 398q0 274 -109 444.5t-289 170.5q-148 0 -262 -107.5t-176 -302.5t-62 -444q0 -309 116 -494t318 -185q94 0 181 35t188 123l71 -87q-115 -99 -223 -144t-227 -45 q-165 0 -290.5 97t-192.5 279.5t-67 420.5zM412 491q0 -281 114 -281q74 0 133 95t87.5 252t28.5 227q0 106 -35 160.5t-94 54.5q-63 0 -116 -66.5t-85.5 -188t-32.5 -253.5z" />
<glyph unicode="A" d="M0 0l510 1349h217l501 -1349h-194l-138 382h-563l-137 -382h-196zM384 531h463l-173 500l-58 174l-12 -39l-69 -212z" />
<glyph unicode="B" d="M162 0v1349h412q496 0 496 -327q0 -122 -72 -204t-196 -107q167 -18 258.5 -107t91.5 -224q0 -180 -137 -280t-381 -100h-472zM353 153h266q175 0 257.5 60.5t82.5 183.5q0 114 -89 174t-265 60h-252v-478zM353 780h225q300 0 300 218q0 107 -75.5 152.5t-226.5 45.5 h-223v-416z" />
<glyph unicode="C" d="M113 681q0 689 536 689q339 0 466 -335l-168 -65q-37 113 -115.5 178.5t-181.5 65.5q-171 0 -253.5 -129t-82.5 -404q0 -273 85.5 -409.5t261.5 -136.5q101 0 183 68.5t139 213.5l159 -65q-149 -372 -483 -372q-263 0 -404.5 181t-141.5 520z" />
<glyph unicode="D" d="M162 0v1349h311q329 0 490.5 -164.5t161.5 -496.5q0 -331 -153.5 -509.5t-439.5 -178.5h-370zM353 156h162q212 0 315 133t103 399q0 264 -110 384.5t-349 120.5h-121v-1037z" />
<glyph unicode="E" d="M162 0v1349h919v-156h-728v-422h668v-154h-668v-461h769v-156h-960z" />
<glyph unicode="F" d="M194 0v1349h891v-156h-700v-494h676v-158h-676v-541h-191z" />
<glyph unicode="G" d="M113 681q0 347 132 518t397 171q346 0 461 -331l-171 -56q-80 231 -288 231q-169 0 -249.5 -126t-80.5 -407q0 -546 341 -546q68 0 141 21t119 53v336h-293v160h479v-572q-229 -153 -462 -153q-250 0 -388 185.5t-138 515.5z" />
<glyph unicode="H" d="M162 0v1349h191v-566h522v566h191v-1349h-191v623h-522v-623h-191z" />
<glyph unicode="I" d="M202 0v156h316v1037h-316v156h823v-156h-316v-1037h316v-156h-823z" />
<glyph unicode="J" d="M176 350l187 31q18 -118 76.5 -182t147.5 -64q209 0 209 281v777h-311v156h501v-929q0 -209 -105 -324.5t-295 -115.5q-171 0 -273 89t-137 281z" />
<glyph unicode="K" d="M162 0v1349h191v-673l572 673h225l-504 -572l581 -777h-224l-487 638l-163 -169v-469h-191z" />
<glyph unicode="L" d="M237 0v1349h191v-1193h672v-156h-863z" />
<glyph unicode="M" d="M129 0v1349h237l185 -489q21 -53 68 -231l26 90l44 140l185 490h225v-1349h-162v868q0 135 3 201l3 100q-64 -206 -95 -291l-164 -438h-137l-166 438q-18 46 -96 291l4 -301v-868h-160z" />
<glyph unicode="N" d="M162 0v1349h222l528 -1138q-18 144 -18 274v864h172v-1349h-230l-520 1130q16 -172 16 -254v-876h-170z" />
<glyph unicode="O" d="M102 681q0 337 130 513t383 176q247 0 379 -173.5t132 -515.5q0 -337 -132.5 -519t-380.5 -182q-249 0 -380 179t-131 522zM303 681q0 -270 79 -408t232 -138q163 0 237 140t74 406q0 533 -310 533q-312 0 -312 -533z" />
<glyph unicode="P" d="M162 0v1349h460q238 0 367.5 -106.5t129.5 -297.5q0 -125 -59.5 -223t-170 -153t-255.5 -55h-281v-514h-191zM353 665h254q149 0 234.5 73t85.5 204q0 254 -328 254h-246v-531z" />
<glyph unicode="Q" d="M102 681q0 337 130 513t383 176q247 0 379 -173.5t132 -515.5q0 -290 -98.5 -465.5t-281.5 -219.5q41 -126 108 -183t168 -57q55 0 115 13v-134q-93 -22 -178 -22q-150 0 -247.5 84.5t-160.5 286.5q-219 22 -334 199.5t-115 497.5zM303 681q0 -270 79 -408t232 -138 q163 0 237 140t74 406q0 533 -310 533q-312 0 -312 -533z" />
<glyph unicode="R" d="M162 0v1349h482q233 0 355 -96.5t122 -276.5q0 -149 -93.5 -251t-250.5 -128l400 -597h-220l-366 575h-238v-575h-191zM353 726h280q143 0 219.5 64t76.5 183q0 223 -304 223h-272v-470z" />
<glyph unicode="S" d="M79 338l185 37q28 -129 116 -187.5t235 -58.5q159 0 241.5 62t82.5 176q0 70 -32.5 114t-85.5 72t-119.5 45.5t-134.5 34.5q-161 42 -229.5 75t-109.5 75.5t-62 97.5t-21 129q0 173 121.5 266.5t348.5 93.5q212 0 324 -74t156 -250l-188 -33q-24 112 -96 162.5t-197 50.5 q-283 0 -283 -213q0 -60 26.5 -97.5t72 -62t106 -40.5t129.5 -34q139 -35 200 -58.5t108.5 -53.5t81.5 -71t53.5 -96t19.5 -130q0 -184 -134.5 -287t-383.5 -103q-457 0 -531 358z" />
<glyph unicode="T" d="M76 1193v156h1076v-156h-443v-1193h-190v1193h-443z" />
<glyph unicode="U" d="M142 472v877h191v-851q0 -204 58.5 -283.5t212.5 -79.5q161 0 226 82t65 294v838h190v-859q0 -267 -114 -388.5t-366 -121.5q-244 0 -353.5 117.5t-109.5 374.5z" />
<glyph unicode="V" d="M10 1349h201l320 -902q31 -86 84 -279q40 149 84 279l318 902h201l-505 -1349h-198z" />
<glyph unicode="W" d="M0 1349h189l109 -835q16 -131 33 -346q32 138 53.5 228t143.5 535h175q69 -253 108.5 -398t88.5 -365l35 346l104 835h189l-210 -1349h-208q-74 276 -112.5 420t-81.5 336q-29 -125 -53.5 -226t-143.5 -530h-208z" />
<glyph unicode="X" d="M36 0l476 705l-435 644h205l332 -513l333 513h205l-435 -644l476 -705h-205l-374 573l-373 -573h-205z" />
<glyph unicode="Y" d="M36 1349h205l374 -611l372 611h205l-484 -765v-584h-188v584z" />
<glyph unicode="Z" d="M73 0v143l818 1050h-745v156h962v-139l-818 -1054h865v-156h-1082z" />
<glyph unicode="[" d="M410 -425v1909h547v-139h-367v-1631h367v-139h-547z" />
<glyph unicode="\" d="M115 1484h178l821 -1504h-182z" />
<glyph unicode="]" d="M270 -286h367v1631h-367v139h547v-1909h-547v139z" />
<glyph unicode="^" d="M133 442l378 907h203l380 -907h-154l-329 803l-326 -803h-152z" />
<glyph unicode="_" d="M-5 -124h1238v-96h-1238v96z" />
<glyph unicode="`" d="M402 1431v29h197l227 -239v-20h-124z" />
<glyph unicode="a" d="M128 302q0 349 454 354l236 4v59q0 131 -53 188.5t-169 57.5q-118 0 -170 -42t-62 -130l-188 17q46 292 423 292q200 0 300.5 -93.5t100.5 -270.5v-466q0 -80 21 -120.5t80 -40.5q26 0 59 7v-112q-68 -16 -139 -16q-100 0 -145.5 52.5t-51.5 164.5h-6 q-65 -121 -153.5 -174t-218.5 -53q-158 0 -238 86t-80 236zM317 299q0 -82 44.5 -132t130.5 -50q96 0 170 46t115 123t41 159v89l-190 -4q-118 -2 -180 -26t-96.5 -73.5t-34.5 -131.5z" />
<glyph unicode="b" d="M179 0q6 54 6 223v1261h180v-423q0 -65 -4 -157h4q91 200 334 200q391 0 391 -558q0 -284 -101.5 -425t-290.5 -141q-244 0 -334 184h-2q0 -48 -3.5 -100t-5.5 -64h-174zM365 524q0 -209 66 -310t217 -101q135 0 195.5 104.5t60.5 322.5q0 224 -61.5 324.5t-192.5 100.5 q-149 0 -217 -109.5t-68 -331.5z" />
<glyph unicode="c" d="M130 542q0 270 129 415t373 145q182 0 300 -87.5t146 -235.5l-192 -14q-16 91 -80 143.5t-182 52.5q-158 0 -231.5 -98t-73.5 -317q0 -222 73.5 -324.5t230.5 -102.5q108 0 179 53t88 162l190 -12q-13 -96 -72.5 -174.5t-157.5 -123t-219 -44.5q-245 0 -373 144t-128 418 z" />
<glyph unicode="d" d="M138 532q0 566 392 566q121 0 202.5 -43t130.5 -141h2l-2 151v419h180v-1261q0 -169 6 -223h-172q-4 15 -7 73t-3 101h-5q-49 -105 -130 -152.5t-202 -47.5q-202 0 -297 139t-95 419zM324 538q0 -222 59.5 -323.5t193.5 -101.5q146 0 216 105.5t70 335.5q0 215 -67.5 313 t-216.5 98q-135 0 -195 -103t-60 -324z" />
<glyph unicode="e" d="M133 548q0 267 124.5 410.5t359.5 143.5t356 -143t121 -432v-24h-772q0 -182 80.5 -285t220.5 -103q103 0 180.5 44.5t103.5 121.5l158 -45q-44 -124 -161.5 -190t-280.5 -66q-236 0 -363 147t-127 421zM324 641h584q-28 328 -289 328q-134 0 -212 -87.5t-83 -240.5z" />
<glyph unicode="f" d="M138 940v142h262v25q0 205 96.5 291t321.5 86q72 0 155.5 -6.5t125.5 -14.5v-145q-30 5 -121.5 11t-138.5 6q-104 0 -157 -23t-77.5 -75t-24.5 -145v-10h491v-142h-491v-940h-180v940h-262z" />
<glyph unicode="g" d="M143 549q0 283 98 416.5t302 133.5q113 0 196.5 -52.5t128.5 -149.5h3q0 30 4 101.5t8 83.5h171q-6 -54 -6 -224v-826q0 -227 -106 -341.5t-327 -114.5q-168 0 -270 69t-130 198l184 25q17 -75 73.5 -115.5t148.5 -40.5q248 0 248 315v194h-2q-49 -103 -136 -156 t-207 -53q-198 0 -289.5 129.5t-91.5 407.5zM329 551q0 -151 25.5 -238.5t79.5 -127.5t151 -40q85 0 149.5 47.5t99.5 139t35 219.5q0 193 -75 303.5t-206 110.5q-137 0 -198 -95.5t-61 -318.5z" />
<glyph unicode="h" d="M185 0v1484h181v-390q0 -59 -9 -197h3q105 205 339 205q350 0 350 -381v-721h-181v695q0 136 -52.5 202t-167.5 66q-124 0 -203.5 -90.5t-79.5 -245.5v-627h-180z" />
<glyph unicode="i" d="M143 0v142h422v798h-319v142h499v-940h380v-142h-982zM545 1292v192h200v-192h-200z" />
<glyph unicode="j" d="M117 -242q150 -34 273 -34q128 0 197 66t69 185v965h-407v142h587v-1110q0 -187 -112 -292t-319 -105q-79 0 -161 13t-127 30v140zM636 1292v192h200v-192h-200z" />
<glyph unicode="k" d="M236 0v1484h180v-927l475 525h211l-439 -465l462 -617h-211l-366 499l-132 -98v-401h-180z" />
<glyph unicode="l" d="M134 0v142h422v1200h-289v142h469v-1342h380v-142h-982z" />
<glyph unicode="m" d="M99 1082h149l6 -127v-48h2q34 102 86 148.5t130 46.5q88 0 131.5 -48t62.5 -148h2q40 106 95.5 151t140.5 45q118 0 169 -86t51 -295v-721h-168v686q0 154 -24.5 215.5t-89.5 61.5q-66 0 -104.5 -84t-38.5 -252v-627h-168v686q0 154 -24.5 215.5t-89.5 61.5 q-64 0 -103.5 -96t-39.5 -260v-607h-169v851q0 189 -6 231z" />
<glyph unicode="n" d="M179 1082h170q1 -5 2 -27t2 -50.5t4 -107.5h3q105 205 346 205q173 0 258 -93.5t85 -287.5v-721h-181v695q0 136 -52.5 202t-167.5 66q-124 0 -203.5 -90.5t-79.5 -245.5v-627h-180v851q0 189 -6 231z" />
<glyph unicode="o" d="M130 542q0 279 126.5 419.5t358.5 140.5q244 0 363 -139t119 -421q0 -273 -125.5 -417.5t-362.5 -144.5q-232 0 -355.5 146t-123.5 416zM319 542q0 -210 72 -319.5t216 -109.5q159 0 230 107t71 322t-68.5 321t-221.5 106q-155 0 -227 -108t-72 -319z" />
<glyph unicode="p" d="M179 1082h175q1 -4 3 -29.5t4.5 -75t2.5 -73.5h4q50 105 127.5 152.5t202.5 47.5q198 0 295 -136.5t97 -421.5q0 -566 -392 -566q-246 0 -331 184h-5q4 -8 4 -166v-423h-181v1283q0 170 -6 224zM366 524q0 -213 67 -312t216 -99q133 0 194 101t61 332q0 226 -61 322.5 t-192 96.5q-151 0 -218 -109.5t-67 -331.5z" />
<glyph unicode="q" d="M138 532q0 566 391 566q129 0 206 -44.5t126 -139.5h2q0 30 3.5 93.5t8.5 75.5h175q-6 -54 -6 -282v-1226h-181v439l4 168h-2q-53 -107 -132 -157.5t-203 -50.5q-202 0 -297 140.5t-95 417.5zM324 538q0 -221 61 -323t192 -102q147 0 216.5 109t69.5 332q0 212 -68 311.5 t-216 99.5q-134 0 -194.5 -102t-60.5 -325z" />
<glyph unicode="r" d="M242 1082h171q40 -138 48 -250h5q50 112 98 164.5t114 79t161 26.5q104 0 206 -17v-167q-112 19 -212 19q-161 0 -260 -121t-99 -308v-508h-180v701q0 76 -13.5 179t-38.5 202z" />
<glyph unicode="s" d="M167 248l159 31q19 -86 81.5 -125.5t213.5 -39.5q270 0 270 171q0 64 -49 103.5t-150 64.5q-264 65 -335 102t-109 92.5t-38 138.5q0 147 106 230t307 83q176 0 281 -66.5t131 -193.5l-162 -20q-11 72 -71 109t-179 37q-245 0 -245 -151q0 -60 41.5 -96t133.5 -58 l119 -31q163 -40 234.5 -79t112.5 -97.5t41 -143.5q0 -154 -116.5 -241.5t-322.5 -87.5t-313.5 64.5t-140.5 203.5z" />
<glyph unicode="t" d="M190 940v142h170l58 282h120v-282h432v-142h-432v-652q0 -79 42.5 -117t139.5 -38q134 0 297 34v-137q-169 -46 -335 -46q-162 0 -243 68.5t-81 216.5v671h-168z" />
<glyph unicode="u" d="M185 361v721h180v-686q0 -156 49 -216.5t175 -60.5q129 0 204 88t75 248v627h181v-851q0 -189 6 -231h-170q-1 5 -2 27t-2.5 50.5t-3.5 107.5h-3q-62 -112 -143.5 -158.5t-202.5 -46.5q-178 0 -260.5 88.5t-82.5 292.5z" />
<glyph unicode="v" d="M69 1082h202l268 -704l17 -53l52 -184l35 117l39 118l276 706h201l-444 -1082h-213z" />
<glyph unicode="w" d="M21 1082h178l93 -607q33 -264 33 -326q39 160 58 214l135 424h193l130 -425q32 -105 55 -213q0 30 4 75t10 92.5t12 90.5t9 68l101 607h176l-190 -1082h-204l-143 471l-57 202l-39 -139l-168 -534h-203z" />
<glyph unicode="x" d="M94 0l415 556l-397 526h199l300 -421l298 421h201l-397 -524l420 -558h-201l-321 444l-323 -444h-194z" />
<glyph unicode="y" d="M66 1082h192l264 -642q91 -224 98 -254l41 110l310 786h190l-456 -1082q-89 -235 -184.5 -330t-228.5 -95q-74 0 -124 11v135q38 -6 84 -6q79 0 148.5 59t117.5 188l18 49z" />
<glyph unicode="z" d="M147 0v137l681 806h-641v139h844v-137l-682 -806h719v-139h-921z" />
<glyph unicode="{" d="M227 461v137q130 5 202.5 66t72.5 165v352q0 137 81 220t213 83h265v-139h-213q-91 0 -131 -44t-40 -151v-346q0 -98 -64 -172.5t-167 -99.5v-2q102 -24 166.5 -97.5t64.5 -176.5v-347q0 -106 40 -150.5t131 -44.5h213v-139h-265q-130 0 -212 84.5t-82 218.5v351 q0 107 -73 167t-202 65z" />
<glyph unicode="|" d="M531 -425v1909h166v-1909h-166z" />
<glyph unicode="}" d="M167 -286h213q91 0 131.5 44.5t40.5 150.5v347q0 102 64 176t166 98v2q-102 25 -166 100t-64 172v346q0 105 -40 150t-132 45h-213v139h265q133 0 213.5 -83t80.5 -220v-352q0 -105 73 -165.5t202 -65.5v-137q-130 -5 -202.5 -65.5t-72.5 -166.5v-351q0 -135 -82 -219 t-212 -84h-265v139z" />
<glyph unicode="~" d="M108 580v143q111 84 263 84q102 0 235 -46q147 -51 190.5 -61t79.5 -10q130 0 244 92v-149q-60 -42 -117.5 -61t-142.5 -19q-69 0 -141.5 22t-145.5 48q-129 45 -217 45q-67 0 -125 -20.5t-123 -67.5z" />
<glyph unicode="&#xa0;" />
<glyph unicode="&#xa1;" d="M515 -266l24 951h148l24 -951h-196zM519 881v201h194v-201h-194z" />
<glyph unicode="&#xa2;" d="M133 656q0 240 116 380.5t321 158.5v184h128v-184q157 -13 259 -97.5t131 -224.5l-185 -14q-17 91 -82.5 145t-187.5 54q-156 0 -236.5 -100.5t-80.5 -289.5q0 -198 84 -298.5t235 -100.5q113 0 186.5 56t90.5 161l182 -12q-21 -142 -128 -234t-268 -106v-195h-128v195 q-208 15 -322.5 152.5t-114.5 369.5z" />
<glyph unicode="&#xa3;" d="M56 0v154q87 44 122.5 83t54 95.5t18.5 138.5v141h-186v142h186v220q0 194 108.5 295t313.5 101q153 0 255 -60.5t136 -169.5l-174 -57q-22 63 -80.5 95t-136.5 32q-122 0 -182 -57.5t-60 -182.5v-216h408v-142h-408v-139q0 -128 -36 -199.5t-119 -115.5h600 q59 0 87.5 26.5t39.5 79.5l168 -24q-50 -240 -234 -240h-881z" />
<glyph unicode="&#xa4;" d="M158 330l102 102q-78 114 -78 252t78 252l-100 100l104 103l99 -101q114 82 254 82q137 0 251 -80l97 97l104 -105l-96 -96q80 -117 80 -252q0 -138 -82 -252l100 -100l-102 -105l-101 101q-114 -78 -251 -78q-143 0 -252 80l-105 -105zM336 686q0 -114 82 -197t199 -83 q114 0 197 81t83 199q0 116 -82.5 198.5t-197.5 82.5q-117 0 -199 -83.5t-82 -197.5z" />
<glyph unicode="&#xa5;" d="M52 1349h199l361 -617l365 617h199l-412 -670h321v-142h-383v-137h383v-144h-383v-256h-178v256h-381v144h381l2 137h-383v142h320z" />
<glyph unicode="&#xa6;" d="M531 324h166v-779h-166v779zM531 676v778h166v-778h-166z" />
<glyph unicode="&#xa7;" d="M159 100l161 31q20 -93 91.5 -138t209.5 -45q131 0 206 48t75 133q0 56 -32 95t-90.5 67t-217.5 67q-195 45 -280 123t-85 190q0 89 61.5 163t166.5 104q-96 32 -151.5 99t-55.5 153q0 139 105.5 216.5t308.5 77.5q173 0 279.5 -66.5t133.5 -193.5l-161 -20 q-14 79 -78.5 119.5t-173.5 40.5q-125 0 -189.5 -44.5t-64.5 -115.5q0 -48 30 -83t85.5 -61t185.5 -57q147 -35 225 -76.5t121 -100.5t43 -140q0 -99 -59.5 -174t-159.5 -99q112 -48 162.5 -112.5t50.5 -155.5q0 -148 -115.5 -232.5t-325.5 -84.5q-209 0 -318.5 66.5 t-143.5 205.5zM357 684q0 -49 29.5 -85.5t85 -63.5t184.5 -60q119 2 186.5 52.5t67.5 135.5q0 72 -69.5 124t-245.5 93q-109 -6 -173.5 -59t-64.5 -137z" />
<glyph unicode="&#xa8;" d="M335 1219v184h165v-184h-165zM729 1219v184h163v-184h-163z" />
<glyph unicode="&#xa9;" d="M31 761q0 226 71 389t203.5 248.5t308.5 85.5t308.5 -85t203.5 -247.5t71 -390.5q0 -227 -71 -390.5t-203 -248t-309 -84.5t-308.5 85.5t-203 248.5t-71.5 389zM126 761q0 -299 127.5 -464t360.5 -165t362 164t129 465t-130 464.5t-361 163.5q-151 0 -260.5 -72.5 t-168.5 -214t-59 -341.5zM269 763q0 202 89 313t257 111q217 0 303 -209l-114 -33q-26 67 -74.5 102t-112.5 35q-107 0 -163 -80.5t-56 -238.5q0 -153 59 -239.5t165 -86.5q65 0 113 37t83 119l115 -35q-52 -118 -128.5 -171.5t-182.5 -53.5q-168 0 -260.5 113.5 t-92.5 316.5z" />
<glyph unicode="&#xaa;" d="M206 870q0 117 90 178.5t268 63.5l191 4v43q0 182 -180 182q-84 0 -130 -34t-57 -111l-149 10q18 106 106 166t234 60q153 0 236 -67t83 -200v-291q0 -58 15.5 -88t58.5 -30q25 0 49 8v-94q-50 -13 -102 -13q-154 0 -160 160h-4q-43 -77 -116 -121.5t-175 -44.5 q-121 0 -189.5 57t-68.5 162zM353 890q0 -64 41 -101t111 -37q69 0 126.5 34t90.5 88.5t33 108.5v51l-154 -4q-130 -3 -189 -36.5t-59 -103.5z" />
<glyph unicode="&#xab;" d="M127 506v63l336 371h177v-31l-335 -372l337 -367v-29h-179zM602 506v63l338 371h178v-31l-338 -372l340 -367v-29h-180z" />
<glyph unicode="&#xac;" d="M116 608v146h995v-574h-145v428h-850z" />
<glyph unicode="&#xad;" d="M334 464v160h560v-160h-560z" />
<glyph unicode="&#xae;" d="M31 761q0 226 71 389t203.5 248.5t308.5 85.5t308.5 -85t203.5 -247.5t71 -390.5q0 -227 -71 -390.5t-203 -248t-309 -84.5t-308.5 85.5t-203 248.5t-71.5 389zM126 761q0 -299 127.5 -464t360.5 -165t362 164t129 465t-130 464.5t-361 163.5q-151 0 -260.5 -72.5 t-168.5 -214t-59 -341.5zM328 343v831h307q142 0 217.5 -63t75.5 -174q0 -102 -52 -163.5t-137 -80.5l221 -350h-145l-199 336h-161v-336h-127zM455 775h182q80 0 122 42.5t42 117.5q0 69 -47.5 105t-128.5 36h-170v-301z" />
<glyph unicode="&#xaf;" d="M-5 1522v96h1238v-96h-1238z" />
<glyph unicode="&#xb0;" d="M327 1085q0 117 83.5 201t203.5 84t203.5 -83t83.5 -202t-84.5 -202t-202.5 -83t-202.5 84t-84.5 201zM436 1085q0 -74 52.5 -127t125.5 -53q74 0 126 52.5t52 127.5q0 76 -51.5 128t-126.5 52t-126.5 -53t-51.5 -127z" />
<glyph unicode="&#xb1;" d="M116 0v145h995v-145h-995zM116 680v145h424v394h147v-394h424v-145h-424v-395h-147v395h-424z" />
<glyph unicode="&#xb2;" d="M312 666q31 69 95 133t172 139q97 66 141 123t44 117q0 62 -35.5 99.5t-109.5 37.5q-68 0 -112 -36.5t-52 -104.5l-133 8q13 108 95 173.5t208 65.5q131 0 203.5 -63.5t72.5 -175.5q0 -75 -47 -142t-143 -135q-132 -93 -182 -139t-74 -96h459l2 -107h-602z" />
<glyph unicode="&#xb3;" d="M306 778l136 13q18 -136 182 -136q160 0 160 148q0 137 -189 137h-61v109h57q80 0 126 36t46 101q0 60 -37 94.5t-108 34.5q-68 0 -110 -35t-48 -100l-135 12q13 109 91.5 169t205.5 60q130 0 204 -59.5t74 -157.5q0 -75 -43 -130t-133 -75v-2q91 -9 144 -61.5t53 -140.5 q0 -116 -77.5 -180t-219.5 -64q-286 0 -318 227z" />
<glyph unicode="&#xb4;" d="M402 1201v20l227 239h197v-29l-300 -230h-124z" />
<glyph unicode="&#xb5;" d="M144 -393v1475h182v-644q0 -317 264 -317q131 0 219 96.5t88 247.5v617h181v-849q0 -191 6 -233h-168q-2 11 -6 92t-4 107h-4q-106 -219 -334 -219q-82 0 -146 32t-96 90h-4q4 -43 4 -122v-373h-182z" />
<glyph unicode="&#xb6;" d="M127 989q0 169 98.5 264.5t271.5 95.5h583v-122h-129v-1551h-132v1551h-197v-1551h-133v958q-168 0 -265 92.5t-97 262.5z" />
<glyph unicode="&#xb7;" d="M496 420v299h235v-299h-235z" />
<glyph unicode="&#xb8;" d="M119 -342q50 -6 86 -6q147 0 147 86q0 40 -30.5 61t-102.5 21q-43 0 -57 -2l65 182h107l-39 -100q94 -3 141 -44.5t47 -113.5q0 -186 -274 -186q-57 0 -90 4v98z" />
<glyph unicode="&#xb9;" d="M285 1165v109q99 0 173.5 36.5t107.5 99.5h121v-740h236v-107h-632v107h265v610q-25 -50 -104 -82.5t-167 -32.5z" />
<glyph unicode="&#xba;" d="M226 1042q0 182 103 286t286 104q189 0 288 -100.5t99 -289.5q0 -183 -102.5 -287t-288.5 -104q-182 0 -283.5 107t-101.5 284zM378 1042q0 -140 59 -213t172 -73q117 0 180.5 66.5t63.5 219.5q0 151 -60 218t-174 67q-241 0 -241 -285z" />
<glyph unicode="&#xbb;" d="M107 141v29l338 367l-336 372v31h178l335 -371v-63l-335 -365h-180zM584 141v29l338 367l-336 372v31h176l338 -371v-63l-338 -365h-178z" />
<glyph unicode="&#xbc;" d="M27 1114v119q50 0 102 31.5t79 84.5h121v-653h116v-107h-382v107h135v513q-20 -39 -73 -67t-98 -28zM204 0l703 1349h115l-700 -1349h-118zM605 162v99l361 502h141v-500h122v-101h-122v-161h-127v161h-375zM715 263h265v321l1 51q-34 -51 -266 -372z" />
<glyph unicode="&#xbd;" d="M17 1114v119q50 0 102 31.5t79 84.5h121v-653h116v-107h-382v107h135v513q-20 -39 -73 -67t-98 -28zM188 0l703 1349h115l-700 -1349h-118zM678 1v97q27 62 80.5 119t143.5 125q82 61 117 109t35 101q0 121 -111 121q-61 0 -90.5 -31t-37.5 -92l-130 5q13 102 82.5 160 t180.5 58q120 0 180.5 -56t60.5 -159q0 -131 -160 -251q-117 -89 -154.5 -124.5t-54.5 -74.5h380v-107h-522z" />
<glyph unicode="&#xbe;" d="M11 783l136 13q9 -60 41.5 -90.5t80.5 -30.5q54 0 87 30t33 95q0 120 -149 120h-41v109h37q68 0 100 28.5t32 94.5q0 53 -27 78t-68 25q-45 0 -78 -31.5t-39 -88.5l-135 12q13 100 80 157t172 57q109 0 170.5 -55t61.5 -147q0 -66 -33.5 -108.5t-102.5 -68.5v-2 q82 -18 119.5 -68t37.5 -118q0 -101 -69 -162t-188 -61q-107 0 -175 56t-83 156zM229 0l703 1349h115l-700 -1349h-118zM605 162v99l361 502h141v-500h122v-101h-122v-161h-127v161h-375zM715 263h265v321l1 51q-34 -51 -266 -372z" />
<glyph unicode="&#xbf;" d="M153 79q0 73 22 130t63.5 105.5t133.5 115.5q110 79 145.5 116t56 80t21.5 98h175q-2 -70 -24.5 -125.5t-62 -102t-134.5 -116.5q-107 -79 -140.5 -116t-53.5 -79.5t-20 -97.5q0 -109 79.5 -167.5t215.5 -58.5q135 0 219.5 73t98.5 199l184 -12q-26 -197 -159.5 -303.5 t-340.5 -106.5q-223 0 -351 96.5t-128 271.5zM583 880v201h195v-201h-195z" />
<glyph unicode="&#xc0;" d="M0 0l510 1349h217l501 -1349h-194l-138 382h-563l-137 -382h-196zM309 1674v29h197l227 -239v-20h-124zM384 531h463l-173 500l-58 174l-12 -39l-69 -212z" />
<glyph unicode="&#xc1;" d="M0 0l510 1349h217l501 -1349h-194l-138 382h-563l-137 -382h-196zM384 531h463l-173 500l-58 174l-12 -39l-69 -212zM495 1445v20l227 239h197v-29l-300 -230h-124z" />
<glyph unicode="&#xc2;" d="M0 0l510 1349h217l501 -1349h-194l-138 382h-563l-137 -382h-196zM283 1445v20l254 239h164l244 -239v-20h-105l-219 138h-2l-232 -138h-104zM384 531h463l-173 500l-58 174l-12 -39l-69 -212z" />
<glyph unicode="&#xc3;" d="M0 0l510 1349h217l501 -1349h-194l-138 382h-563l-137 -382h-196zM255 1445q11 96 34.5 145t64.5 76t104 27q44 0 86 -18.5t82 -41t77 -41t70 -18.5q37 0 57 23.5t30 95.5h112q-16 -138 -65.5 -193t-136.5 -55q-42 0 -84 18.5t-82 41t-78.5 41t-73.5 18.5q-25 0 -40 -9.5 t-25 -27.5t-21 -82h-111zM384 531h463l-173 500l-58 174l-12 -39l-69 -212z" />
<glyph unicode="&#xc4;" d="M0 0l510 1349h217l501 -1349h-194l-138 382h-563l-137 -382h-196zM335 1445v184h165v-184h-165zM384 531h463l-173 500l-58 174l-12 -39l-69 -212zM729 1445v184h163v-184h-163z" />
<glyph unicode="&#xc5;" d="M0 0l510 1349h217l501 -1349h-194l-138 382h-563l-137 -382h-196zM375 1433q0 89 66.5 144t175.5 55q111 0 176.5 -55.5t65.5 -143.5q0 -87 -65.5 -143.5t-176.5 -56.5q-112 0 -177 56.5t-65 143.5zM384 531h463l-173 500l-58 174l-12 -39l-69 -212zM495 1433 q0 -38 33.5 -61t88.5 -23q56 0 88.5 23t32.5 61q0 37 -32.5 60t-88.5 23q-55 0 -88.5 -23t-33.5 -60z" />
<glyph unicode="&#xc6;" d="M1 0l486 1349h667v-152h-337v-430h327v-150h-327v-465h378v-152h-549v412h-335l-142 -412h-168zM362 561h284v641h-73q-4 -16 -42.5 -146t-168.5 -495z" />
<glyph unicode="&#xc7;" d="M113 681q0 689 536 689q339 0 466 -335l-168 -65q-37 113 -115.5 178.5t-181.5 65.5q-171 0 -253.5 -129t-82.5 -404q0 -273 85.5 -409.5t261.5 -136.5q101 0 183 68.5t139 213.5l159 -65q-149 -372 -483 -372q-263 0 -404.5 181t-141.5 520zM473 -342q50 -6 86 -6 q147 0 147 86q0 40 -30.5 61t-102.5 21q-43 0 -57 -2l65 182h107l-39 -100q94 -3 141 -44.5t47 -113.5q0 -186 -274 -186q-57 0 -90 4v98z" />
<glyph unicode="&#xc8;" d="M162 0v1349h919v-156h-728v-422h668v-154h-668v-461h769v-156h-960zM331 1675v29h197l227 -239v-20h-124z" />
<glyph unicode="&#xc9;" d="M162 0v1349h919v-156h-728v-422h668v-154h-668v-461h769v-156h-960zM493 1445v20l227 239h197v-29l-300 -230h-124z" />
<glyph unicode="&#xca;" d="M162 0v1349h919v-156h-728v-422h668v-154h-668v-461h769v-156h-960zM283 1445v20l254 239h164l244 -239v-20h-105l-219 138h-2l-232 -138h-104z" />
<glyph unicode="&#xcb;" d="M162 0v1349h919v-156h-728v-422h668v-154h-668v-461h769v-156h-960zM355 1445v184h165v-184h-165zM749 1445v184h163v-184h-163z" />
<glyph unicode="&#xcc;" d="M202 0v156h316v1037h-316v156h823v-156h-316v-1037h316v-156h-823zM321 1675v29h197l227 -239v-20h-124z" />
<glyph unicode="&#xcd;" d="M202 0v156h316v1037h-316v156h823v-156h-316v-1037h316v-156h-823zM505 1445v20l227 239h197v-29l-300 -230h-124z" />
<glyph unicode="&#xce;" d="M202 0v156h316v1037h-316v156h823v-156h-316v-1037h316v-156h-823zM283 1445v20l254 239h164l244 -239v-20h-105l-219 138h-2l-232 -138h-104z" />
<glyph unicode="&#xcf;" d="M202 0v156h316v1037h-316v156h823v-156h-316v-1037h316v-156h-823zM335 1445v184h165v-184h-165zM729 1445v184h163v-184h-163z" />
<glyph unicode="&#xd0;" d="M27 597v149h135v603h311q329 0 490.5 -164.5t161.5 -496.5q0 -331 -153.5 -509.5t-439.5 -178.5h-370v597h-135zM353 156h162q212 0 315 133t103 399q0 264 -110 384.5t-349 120.5h-121v-447h289v-149h-289v-441z" />
<glyph unicode="&#xd1;" d="M162 0v1349h222l528 -1138q-18 144 -18 274v864h172v-1349h-230l-520 1130q16 -172 16 -254v-876h-170zM255 1446q11 96 34.5 145t64.5 76t104 27q44 0 86 -18.5t82 -41t77 -41t70 -18.5q37 0 57 23.5t30 95.5h112q-16 -138 -65.5 -193t-136.5 -55q-42 0 -84 18.5t-82 41 t-78.5 41t-73.5 18.5q-25 0 -40 -9.5t-25 -27.5t-21 -82h-111z" />
<glyph unicode="&#xd2;" d="M102 681q0 337 130 513t383 176q247 0 379 -173.5t132 -515.5q0 -337 -132.5 -519t-380.5 -182q-249 0 -380 179t-131 522zM303 681q0 -270 79 -408t232 -138q163 0 237 140t74 406q0 533 -310 533q-312 0 -312 -533zM316 1675v29h197l227 -239v-20h-124z" />
<glyph unicode="&#xd3;" d="M102 681q0 337 130 513t383 176q247 0 379 -173.5t132 -515.5q0 -337 -132.5 -519t-380.5 -182q-249 0 -380 179t-131 522zM303 681q0 -270 79 -408t232 -138q163 0 237 140t74 406q0 533 -310 533q-312 0 -312 -533zM500 1445v20l227 239h197v-29l-300 -230h-124z" />
<glyph unicode="&#xd4;" d="M102 681q0 337 130 513t383 176q247 0 379 -173.5t132 -515.5q0 -337 -132.5 -519t-380.5 -182q-249 0 -380 179t-131 522zM283 1445v20l254 239h164l244 -239v-20h-105l-219 138h-2l-232 -138h-104zM303 681q0 -270 79 -408t232 -138q163 0 237 140t74 406 q0 533 -310 533q-312 0 -312 -533z" />
<glyph unicode="&#xd5;" d="M102 681q0 337 130 513t383 176q247 0 379 -173.5t132 -515.5q0 -337 -132.5 -519t-380.5 -182q-249 0 -380 179t-131 522zM255 1445q11 96 34.5 145t64.5 76t104 27q44 0 86 -18.5t82 -41t77 -41t70 -18.5q37 0 57 23.5t30 95.5h112q-16 -138 -65.5 -193t-136.5 -55 q-42 0 -84 18.5t-82 41t-78.5 41t-73.5 18.5q-25 0 -40 -9.5t-25 -27.5t-21 -82h-111zM303 681q0 -270 79 -408t232 -138q163 0 237 140t74 406q0 533 -310 533q-312 0 -312 -533z" />
<glyph unicode="&#xd6;" d="M102 681q0 337 130 513t383 176q247 0 379 -173.5t132 -515.5q0 -337 -132.5 -519t-380.5 -182q-249 0 -380 179t-131 522zM303 681q0 -270 79 -408t232 -138q163 0 237 140t74 406q0 533 -310 533q-312 0 -312 -533zM338 1445v184h165v-184h-165zM732 1445v184h163v-184 h-163z" />
<glyph unicode="&#xd7;" d="M157 330l354 354l-352 352l104 103l350 -353l350 351l105 -105l-350 -348l352 -352l-102 -105l-353 353l-356 -355z" />
<glyph unicode="&#xd8;" d="M56 27l141 189q-95 174 -95 465q0 337 130 513t383 176q217 0 345 -134l116 156l94 -65l-140 -187q96 -170 96 -459q0 -337 -132.5 -519t-380.5 -182q-218 0 -346 138l-117 -156zM303 681q0 -166 30 -282l512 684q-77 131 -230 131q-312 0 -312 -533zM383 273 q79 -138 231 -138q163 0 237 140t74 406q0 164 -30 278z" />
<glyph unicode="&#xd9;" d="M142 472v877h191v-851q0 -204 58.5 -283.5t212.5 -79.5q161 0 226 82t65 294v838h190v-859q0 -267 -114 -388.5t-366 -121.5q-244 0 -353.5 117.5t-109.5 374.5zM305 1675v29h197l227 -239v-20h-124z" />
<glyph unicode="&#xda;" d="M142 472v877h191v-851q0 -204 58.5 -283.5t212.5 -79.5q161 0 226 82t65 294v838h190v-859q0 -267 -114 -388.5t-366 -121.5q-244 0 -353.5 117.5t-109.5 374.5zM488 1445v20l227 239h197v-29l-300 -230h-124z" />
<glyph unicode="&#xdb;" d="M142 472v877h191v-851q0 -204 58.5 -283.5t212.5 -79.5q161 0 226 82t65 294v838h190v-859q0 -267 -114 -388.5t-366 -121.5q-244 0 -353.5 117.5t-109.5 374.5zM283 1445v20l254 239h164l244 -239v-20h-105l-219 138h-2l-232 -138h-104z" />
<glyph unicode="&#xdc;" d="M142 472v877h191v-851q0 -204 58.5 -283.5t212.5 -79.5q161 0 226 82t65 294v838h190v-859q0 -267 -114 -388.5t-366 -121.5q-244 0 -353.5 117.5t-109.5 374.5zM335 1445v184h165v-184h-165zM729 1445v184h163v-184h-163z" />
<glyph unicode="&#xdd;" d="M36 1349h205l374 -611l372 611h205l-484 -765v-584h-188v584zM503 1445v20l227 239h197v-29l-300 -230h-124z" />
<glyph unicode="&#xde;" d="M162 0v1349h191v-235h269q239 0 368 -111t129 -311q0 -128 -58 -227.5t-167.5 -155t-259.5 -55.5h-281v-254h-191zM353 395h254q153 0 236.5 77.5t83.5 215.5q0 134 -82 208.5t-246 74.5h-246v-576z" />
<glyph unicode="&#xdf;" d="M142 0v1027q0 227 117.5 342t349.5 115q190 0 302.5 -80.5t112.5 -216.5q0 -138 -113 -239q-71 -63 -92 -93t-21 -64q0 -42 33 -76.5t152 -114.5q89 -60 136.5 -135t47.5 -170q0 -152 -95 -238t-263 -86q-171 0 -283 49l-2 164q58 -33 135 -51t146 -18q92 0 141 47.5 t49 126.5q0 67 -41 119.5t-141 113.5q-92 55 -137.5 118t-45.5 145q0 61 28.5 111t82.5 95q58 48 84.5 90t26.5 92q0 77 -67 123.5t-176 46.5q-148 0 -217.5 -80t-69.5 -242v-1021h-180z" />
<glyph unicode="&#xe0;" d="M128 302q0 349 454 354l236 4v59q0 131 -53 188.5t-169 57.5q-118 0 -170 -42t-62 -130l-188 17q46 292 423 292q200 0 300.5 -93.5t100.5 -270.5v-466q0 -80 21 -120.5t80 -40.5q26 0 59 7v-112q-68 -16 -139 -16q-100 0 -145.5 52.5t-51.5 164.5h-6 q-65 -121 -153.5 -174t-218.5 -53q-158 0 -238 86t-80 236zM288 1431v29h197l227 -239v-20h-124zM317 299q0 -82 44.5 -132t130.5 -50q96 0 170 46t115 123t41 159v89l-190 -4q-118 -2 -180 -26t-96.5 -73.5t-34.5 -131.5z" />
<glyph unicode="&#xe1;" d="M128 302q0 349 454 354l236 4v59q0 131 -53 188.5t-169 57.5q-118 0 -170 -42t-62 -130l-188 17q46 292 423 292q200 0 300.5 -93.5t100.5 -270.5v-466q0 -80 21 -120.5t80 -40.5q26 0 59 7v-112q-68 -16 -139 -16q-100 0 -145.5 52.5t-51.5 164.5h-6 q-65 -121 -153.5 -174t-218.5 -53q-158 0 -238 86t-80 236zM317 299q0 -82 44.5 -132t130.5 -50q96 0 170 46t115 123t41 159v89l-190 -4q-118 -2 -180 -26t-96.5 -73.5t-34.5 -131.5zM479 1201v20l227 239h197v-29l-300 -230h-124z" />
<glyph unicode="&#xe2;" d="M128 302q0 349 454 354l236 4v59q0 131 -53 188.5t-169 57.5q-118 0 -170 -42t-62 -130l-188 17q46 292 423 292q200 0 300.5 -93.5t100.5 -270.5v-466q0 -80 21 -120.5t80 -40.5q26 0 59 7v-112q-68 -16 -139 -16q-100 0 -145.5 52.5t-51.5 164.5h-6 q-65 -121 -153.5 -174t-218.5 -53q-158 0 -238 86t-80 236zM265 1201v20l254 239h164l244 -239v-20h-105l-219 138h-2l-232 -138h-104zM317 299q0 -82 44.5 -132t130.5 -50q96 0 170 46t115 123t41 159v89l-190 -4q-118 -2 -180 -26t-96.5 -73.5t-34.5 -131.5z" />
<glyph unicode="&#xe3;" d="M128 302q0 349 454 354l236 4v59q0 131 -53 188.5t-169 57.5q-118 0 -170 -42t-62 -130l-188 17q46 292 423 292q200 0 300.5 -93.5t100.5 -270.5v-466q0 -80 21 -120.5t80 -40.5q26 0 59 7v-112q-68 -16 -139 -16q-100 0 -145.5 52.5t-51.5 164.5h-6 q-65 -121 -153.5 -174t-218.5 -53q-158 0 -238 86t-80 236zM247 1201q11 96 34.5 145t64.5 76t104 27q44 0 86 -18.5t82 -41t77 -41t70 -18.5q37 0 57 23.5t30 95.5h112q-16 -138 -65.5 -193t-136.5 -55q-42 0 -84 18.5t-82 41t-78.5 41t-73.5 18.5q-25 0 -40 -9.5 t-25 -27.5t-21 -82h-111zM317 299q0 -82 44.5 -132t130.5 -50q96 0 170 46t115 123t41 159v89l-190 -4q-118 -2 -180 -26t-96.5 -73.5t-34.5 -131.5z" />
<glyph unicode="&#xe4;" d="M128 302q0 349 454 354l236 4v59q0 131 -53 188.5t-169 57.5q-118 0 -170 -42t-62 -130l-188 17q46 292 423 292q200 0 300.5 -93.5t100.5 -270.5v-466q0 -80 21 -120.5t80 -40.5q26 0 59 7v-112q-68 -16 -139 -16q-100 0 -145.5 52.5t-51.5 164.5h-6 q-65 -121 -153.5 -174t-218.5 -53q-158 0 -238 86t-80 236zM317 299q0 -82 44.5 -132t130.5 -50q96 0 170 46t115 123t41 159v89l-190 -4q-118 -2 -180 -26t-96.5 -73.5t-34.5 -131.5zM319 1219v184h165v-184h-165zM713 1219v184h163v-184h-163z" />
<glyph unicode="&#xe5;" d="M128 302q0 349 454 354l236 4v59q0 131 -53 188.5t-169 57.5q-118 0 -170 -42t-62 -130l-188 17q46 292 423 292q200 0 300.5 -93.5t100.5 -270.5v-466q0 -80 21 -120.5t80 -40.5q26 0 59 7v-112q-68 -16 -139 -16q-100 0 -145.5 52.5t-51.5 164.5h-6 q-65 -121 -153.5 -174t-218.5 -53q-158 0 -238 86t-80 236zM317 299q0 -82 44.5 -132t130.5 -50q96 0 170 46t115 123t41 159v89l-190 -4q-118 -2 -180 -26t-96.5 -73.5t-34.5 -131.5zM364 1348q0 89 66.5 144t175.5 55q111 0 176.5 -55.5t65.5 -143.5q0 -87 -65.5 -143.5 t-176.5 -56.5q-112 0 -177 56.5t-65 143.5zM484 1348q0 -38 33.5 -61t88.5 -23q56 0 88.5 23t32.5 61q0 37 -32.5 60t-88.5 23q-55 0 -88.5 -23t-33.5 -60z" />
<glyph unicode="&#xe6;" d="M20 302q0 349 330 354l167 4v59q0 135 -32 190.5t-104 55.5q-74 0 -107.5 -40.5t-40.5 -131.5l-168 17q19 151 96.5 221.5t218.5 70.5q176 0 247 -139q85 139 246 139q166 0 250.5 -141.5t84.5 -433.5v-24h-529v-17q5 -371 185 -371q75 0 119.5 47t60.5 119l138 -45 q-68 -256 -314 -256q-121 0 -189.5 55t-102.5 177q-52 -122 -126.5 -177t-171.5 -55q-129 0 -193.5 82t-64.5 240zM189 299q0 -82 28.5 -132t85.5 -50q64 0 112 44.5t75 120t27 163.5v89l-122 -4q-79 -2 -119.5 -26t-63.5 -74t-23 -131zM681 641h361q-9 171 -53 249.5 t-130 78.5q-82 0 -128.5 -87t-49.5 -241z" />
<glyph unicode="&#xe7;" d="M130 542q0 270 129 415t373 145q182 0 300 -87.5t146 -235.5l-192 -14q-16 91 -80 143.5t-182 52.5q-158 0 -231.5 -98t-73.5 -317q0 -222 73.5 -324.5t230.5 -102.5q108 0 179 53t88 162l190 -12q-13 -96 -72.5 -174.5t-157.5 -123t-219 -44.5q-245 0 -373 144t-128 418 zM456 -342q50 -6 86 -6q147 0 147 86q0 40 -30.5 61t-102.5 21q-43 0 -57 -2l65 182h107l-39 -100q94 -3 141 -44.5t47 -113.5q0 -186 -274 -186q-57 0 -90 4v98z" />
<glyph unicode="&#xe8;" d="M133 548q0 267 124.5 410.5t359.5 143.5t356 -143t121 -432v-24h-772q0 -182 80.5 -285t220.5 -103q103 0 180.5 44.5t103.5 121.5l158 -45q-44 -124 -161.5 -190t-280.5 -66q-236 0 -363 147t-127 421zM323 1431v29h197l227 -239v-20h-124zM324 641h584 q-28 328 -289 328q-134 0 -212 -87.5t-83 -240.5z" />
<glyph unicode="&#xe9;" d="M133 548q0 267 124.5 410.5t359.5 143.5t356 -143t121 -432v-24h-772q0 -182 80.5 -285t220.5 -103q103 0 180.5 44.5t103.5 121.5l158 -45q-44 -124 -161.5 -190t-280.5 -66q-236 0 -363 147t-127 421zM324 641h584q-28 328 -289 328q-134 0 -212 -87.5t-83 -240.5z M513 1201v20l227 239h197v-29l-300 -230h-124z" />
<glyph unicode="&#xea;" d="M133 548q0 267 124.5 410.5t359.5 143.5t356 -143t121 -432v-24h-772q0 -182 80.5 -285t220.5 -103q103 0 180.5 44.5t103.5 121.5l158 -45q-44 -124 -161.5 -190t-280.5 -66q-236 0 -363 147t-127 421zM290 1201v20l254 239h164l244 -239v-20h-105l-219 138h-2 l-232 -138h-104zM324 641h584q-28 328 -289 328q-134 0 -212 -87.5t-83 -240.5z" />
<glyph unicode="&#xeb;" d="M133 548q0 267 124.5 410.5t359.5 143.5t356 -143t121 -432v-24h-772q0 -182 80.5 -285t220.5 -103q103 0 180.5 44.5t103.5 121.5l158 -45q-44 -124 -161.5 -190t-280.5 -66q-236 0 -363 147t-127 421zM324 641h584q-28 328 -289 328q-134 0 -212 -87.5t-83 -240.5z M343 1219v184h165v-184h-165zM737 1219v184h163v-184h-163z" />
<glyph unicode="&#xec;" d="M143 0v142h422v798h-319v142h499v-940h380v-142h-982zM335 1431v29h197l227 -239v-20h-124z" />
<glyph unicode="&#xed;" d="M143 0v142h422v798h-319v142h499v-940h380v-142h-982zM506 1201v20l227 239h197v-29l-300 -230h-124z" />
<glyph unicode="&#xee;" d="M143 0v142h422v798h-319v142h499v-940h380v-142h-982zM293 1201v20l254 239h164l244 -239v-20h-105l-219 138h-2l-232 -138h-104z" />
<glyph unicode="&#xef;" d="M143 0v142h422v798h-319v142h499v-940h380v-142h-982zM376 1219v184h165v-184h-165zM770 1219v184h163v-184h-163z" />
<glyph unicode="&#xf0;" d="M125 481q0 244 124 371t363 127q137 0 231 -59q-85 195 -220 317l-260 -115l-55 110l218 94q-109 87 -242 158h209q80 -36 170 -102l264 114l55 -108l-211 -92q331 -301 331 -780v-6q0 -261 -125.5 -395.5t-371.5 -134.5q-232 0 -356 129t-124 372zM314 481 q0 -190 72 -279t217 -89q161 0 235.5 87.5t74.5 280.5q0 192 -70.5 278.5t-226.5 86.5q-157 0 -229.5 -87t-72.5 -278z" />
<glyph unicode="&#xf1;" d="M179 1082h170q1 -5 2 -27t2.5 -50.5t3.5 -107.5h3q105 205 346 205q173 0 258 -93.5t85 -287.5v-721h-181v695q0 136 -52.5 202t-167.5 66q-124 0 -203.5 -90.5t-79.5 -245.5v-627h-180v851q0 189 -6 231zM265 1201q11 96 34.5 145t64.5 76t104 27q44 0 86 -18.5t82 -41 t77 -41t70 -18.5q37 0 57 23.5t30 95.5h112q-16 -138 -65.5 -193t-136.5 -55q-42 0 -84 18.5t-82 41t-78.5 41t-73.5 18.5q-25 0 -40 -9.5t-25 -27.5t-21 -82h-111z" />
<glyph unicode="&#xf2;" d="M130 542q0 279 126.5 419.5t358.5 140.5q244 0 363 -139t119 -421q0 -273 -125.5 -417.5t-362.5 -144.5q-232 0 -355.5 146t-123.5 416zM319 542q0 -210 72 -319.5t216 -109.5q159 0 230 107t71 322t-68.5 321t-221.5 106q-155 0 -227 -108t-72 -319zM332 1431v29h197 l227 -239v-20h-124z" />
<glyph unicode="&#xf3;" d="M130 542q0 279 126.5 419.5t358.5 140.5q244 0 363 -139t119 -421q0 -273 -125.5 -417.5t-362.5 -144.5q-232 0 -355.5 146t-123.5 416zM319 542q0 -210 72 -319.5t216 -109.5q159 0 230 107t71 322t-68.5 321t-221.5 106q-155 0 -227 -108t-72 -319zM503 1201v20 l227 239h197v-29l-300 -230h-124z" />
<glyph unicode="&#xf4;" d="M130 542q0 279 126.5 419.5t358.5 140.5q244 0 363 -139t119 -421q0 -273 -125.5 -417.5t-362.5 -144.5q-232 0 -355.5 146t-123.5 416zM283 1201v20l254 239h164l244 -239v-20h-105l-219 138h-2l-232 -138h-104zM319 542q0 -210 72 -319.5t216 -109.5q159 0 230 107 t71 322t-68.5 321t-221.5 106q-155 0 -227 -108t-72 -319z" />
<glyph unicode="&#xf5;" d="M130 542q0 279 126.5 419.5t358.5 140.5q244 0 363 -139t119 -421q0 -273 -125.5 -417.5t-362.5 -144.5q-232 0 -355.5 146t-123.5 416zM255 1201q11 96 34.5 145t64.5 76t104 27q44 0 86 -18.5t82 -41t77 -41t70 -18.5q37 0 57 23.5t30 95.5h112q-16 -138 -65.5 -193 t-136.5 -55q-42 0 -84 18.5t-82 41t-78.5 41t-73.5 18.5q-25 0 -40 -9.5t-25 -27.5t-21 -82h-111zM319 542q0 -210 72 -319.5t216 -109.5q159 0 230 107t71 322t-68.5 321t-221.5 106q-155 0 -227 -108t-72 -319z" />
<glyph unicode="&#xf6;" d="M130 542q0 279 126.5 419.5t358.5 140.5q244 0 363 -139t119 -421q0 -273 -125.5 -417.5t-362.5 -144.5q-232 0 -355.5 146t-123.5 416zM319 542q0 -210 72 -319.5t216 -109.5q159 0 230 107t71 322t-68.5 321t-221.5 106q-155 0 -227 -108t-72 -319zM335 1219v184h165 v-184h-165zM729 1219v184h163v-184h-163z" />
<glyph unicode="&#xf7;" d="M116 608v146h995v-146h-995zM529 223v183h168v-183h-168zM529 958v183h168v-183h-168z" />
<glyph unicode="&#xf8;" d="M110 542q0 272 128.5 416t376.5 144q213 0 335 -100l72 82l78 -68l-80 -90q97 -137 97 -384q0 -272 -130 -417t-378 -145q-204 0 -331 107l-77 -87l-76 68l84 95q-99 142 -99 379zM299 542q0 -146 34 -238l509 576q-75 89 -224 89q-164 0 -241.5 -107.5t-77.5 -319.5z M386 208q77 -95 221 -95q168 0 244.5 106.5t76.5 322.5q0 147 -33 242z" />
<glyph unicode="&#xf9;" d="M185 361v721h180v-686q0 -156 49 -216.5t175 -60.5q129 0 204 88t75 248v627h181v-851q0 -189 6 -231h-170q-1 5 -2 27t-2.5 50.5t-3.5 107.5h-3q-62 -112 -143.5 -158.5t-202.5 -46.5q-178 0 -260.5 88.5t-82.5 292.5zM308 1431v29h197l227 -239v-20h-124z" />
<glyph unicode="&#xfa;" d="M185 361v721h180v-686q0 -156 49 -216.5t175 -60.5q129 0 204 88t75 248v627h181v-851q0 -189 6 -231h-170q-1 5 -2 27t-2.5 50.5t-3.5 107.5h-3q-62 -112 -143.5 -158.5t-202.5 -46.5q-178 0 -260.5 88.5t-82.5 292.5zM492 1201v20l227 239h197v-29l-300 -230h-124z" />
<glyph unicode="&#xfb;" d="M185 361v721h180v-686q0 -156 49 -216.5t175 -60.5q129 0 204 88t75 248v627h181v-851q0 -189 6 -231h-170q-1 5 -2 27t-2.5 50.5t-3.5 107.5h-3q-62 -112 -143.5 -158.5t-202.5 -46.5q-178 0 -260.5 88.5t-82.5 292.5zM283 1201v20l254 239h164l244 -239v-20h-105 l-219 138h-2l-232 -138h-104z" />
<glyph unicode="&#xfc;" d="M185 361v721h180v-686q0 -156 49 -216.5t175 -60.5q129 0 204 88t75 248v627h181v-851q0 -189 6 -231h-170q-1 5 -2 27t-2.5 50.5t-3.5 107.5h-3q-62 -112 -143.5 -158.5t-202.5 -46.5q-178 0 -260.5 88.5t-82.5 292.5zM335 1219v184h165v-184h-165zM729 1219v184h163 v-184h-163z" />
<glyph unicode="&#xfd;" d="M66 1082h192l264 -642q91 -224 98 -254l41 110l310 786h190l-456 -1082q-89 -235 -184.5 -330t-228.5 -95q-74 0 -124 11v135q38 -6 84 -6q79 0 148.5 59t117.5 188l18 49zM509 1201v20l227 239h197v-29l-300 -230h-124z" />
<glyph unicode="&#xfe;" d="M185 -425v1909h180v-423q0 -65 -4 -157h7q50 105 127.5 152.5t202.5 47.5q198 0 295 -136.5t97 -421.5q0 -566 -392 -566q-246 0 -331 184h-5q4 -8 4 -166v-423h-181zM366 524q0 -213 67 -312t216 -99q133 0 194 101t61 332q0 226 -61 322.5t-192 96.5 q-151 0 -218 -109.5t-67 -331.5z" />
<glyph unicode="&#xff;" d="M66 1082h192l264 -642q91 -224 98 -254l41 110l310 786h190l-456 -1082q-89 -235 -184.5 -330t-228.5 -95q-74 0 -124 11v135q38 -6 84 -6q79 0 148.5 59t117.5 188l18 49zM340 1219v184h165v-184h-165zM734 1219v184h163v-184h-163z" />
<glyph unicode="&#x152;" d="M20 681q0 350 118.5 512t374.5 162q58 0 109 -6h558v-152h-398v-440h367v-150h-367v-455h439v-152h-612q-57 -5 -98 -5q-255 0 -373 169t-118 517zM201 681q0 -275 77 -408t234 -133q72 0 100 6v1057q-38 6 -99 6q-163 0 -237.5 -128t-74.5 -400z" />
<glyph unicode="&#x153;" d="M28 542q0 279 85 419.5t247 140.5q187 0 266 -177q85 177 259 177q319 0 319 -575v-24h-492q0 -189 43.5 -288.5t124.5 -99.5q65 0 104 47t53 119l138 -45q-63 -256 -293 -256q-182 0 -263 183q-83 -183 -266 -183q-157 0 -241 144.5t-84 417.5zM197 542q0 -429 170 -429 q94 0 135 104.5t41 324.5q0 219 -39.5 323t-130.5 104t-133.5 -104t-42.5 -323zM714 641h324q-8 171 -48 249.5t-115 78.5q-72 0 -115 -86.5t-46 -241.5z" />
<glyph unicode="&#x178;" d="M36 1349h205l374 -611l372 611h205l-484 -765v-584h-188v584zM336 1445v184h165v-184h-165zM730 1445v184h163v-184h-163z" />
<glyph unicode="&#x2c6;" d="M283 1201v20l254 239h164l244 -239v-20h-105l-219 138h-2l-232 -138h-104z" />
<glyph unicode="&#x2da;" d="M372 1348q0 89 66.5 144t175.5 55q111 0 176.5 -55.5t65.5 -143.5q0 -87 -65.5 -143.5t-176.5 -56.5q-112 0 -177 56.5t-65 143.5zM492 1348q0 -38 33.5 -61t88.5 -23q56 0 88.5 23t32.5 61q0 37 -32.5 60t-88.5 23q-55 0 -88.5 -23t-33.5 -60z" />
<glyph unicode="&#x2dc;" d="M255 1201q11 96 34.5 145t64.5 76t104 27q44 0 86 -18.5t82 -41t77 -41t70 -18.5q37 0 57 23.5t30 95.5h112q-16 -138 -65.5 -193t-136.5 -55q-42 0 -84 18.5t-82 41t-78.5 41t-73.5 18.5q-25 0 -40 -9.5t-25 -27.5t-21 -82h-111z" />
<glyph unicode="&#x400;" d="M162 0v1349h919v-156h-728v-422h668v-154h-668v-461h769v-156h-960zM331 1675v29h197l227 -239v-20h-124z" />
<glyph unicode="&#x401;" d="M162 0v1349h919v-156h-728v-422h668v-154h-668v-461h769v-156h-960zM355 1445v184h165v-184h-165zM749 1445v184h163v-184h-163z" />
<glyph unicode="&#x402;" d="M0 1193v156h823v-156h-339v-322q129 36 196.5 47.5t123.5 11.5q182 0 270 -88.5t88 -276.5v-224q0 -171 -77 -266t-216 -95q-78 0 -143 40t-98 102l101 114q29 -51 61.5 -76.5t77.5 -25.5q44 0 74 51t30 161v199q0 122 -40 176.5t-136 54.5q-115 0 -312 -50v-726h-190 v1193h-294z" />
<glyph unicode="&#x403;" d="M224 0v1349h891v-156h-700v-1193h-191zM522 1446v20l227 239h197v-29l-300 -230h-124z" />
<glyph unicode="&#x404;" d="M113 681q0 689 536 689q339 0 466 -335l-168 -65q-37 113 -115.5 178.5t-181.5 65.5q-160 0 -242.5 -113.5t-92.5 -346.5h427v-145h-427q21 -474 346 -474q101 0 183 68.5t139 213.5l159 -65q-149 -372 -483 -372q-263 0 -404.5 181t-141.5 520z" />
<glyph unicode="&#x405;" d="M79 338l185 37q28 -129 116 -187.5t235 -58.5q159 0 241.5 62t82.5 176q0 70 -32.5 114t-85.5 72t-119.5 45.5t-134.5 34.5q-161 42 -229.5 75t-109.5 75.5t-62 97.5t-21 129q0 173 121.5 266.5t348.5 93.5q212 0 324 -74t156 -250l-188 -33q-24 112 -96 162.5t-197 50.5 q-283 0 -283 -213q0 -60 26.5 -97.5t72 -62t106 -40.5t129.5 -34q139 -35 200 -58.5t108.5 -53.5t81.5 -71t53.5 -96t19.5 -130q0 -184 -134.5 -287t-383.5 -103q-457 0 -531 358z" />
<glyph unicode="&#x406;" d="M202 0v156h316v1037h-316v156h823v-156h-316v-1037h316v-156h-823z" />
<glyph unicode="&#x407;" d="M202 0v156h316v1037h-316v156h823v-156h-316v-1037h316v-156h-823zM336 1445v184h165v-184h-165zM730 1445v184h163v-184h-163z" />
<glyph unicode="&#x408;" d="M176 350l187 31q18 -118 76.5 -182t147.5 -64q209 0 209 281v777h-311v156h501v-929q0 -209 -105 -324.5t-295 -115.5q-171 0 -273 89t-137 281z" />
<glyph unicode="&#x409;" d="M0 -6v132q19 -7 51 -7q58 0 86.5 32.5t48 112t35.5 218t70 867.5h491v-576h42q171 0 274 -102.5t103 -277.5q0 -173 -102 -283t-263 -110h-225v1209h-181l-29 -428q-22 -338 -53.5 -502.5t-89 -229.5t-177.5 -65q-53 0 -81 10zM782 141h57q90 0 145 68t55 182 q0 108 -59 175t-149 67h-49v-492z" />
<glyph unicode="&#x40a;" d="M71 0v1349h161v-576h329v576h171v-576h92q171 0 274 -102.5t103 -277.5q0 -173 -102 -283t-263 -110h-275v633h-329v-633h-161zM732 141h107q90 0 145 68t55 182q0 108 -59 175t-149 67h-99v-492z" />
<glyph unicode="&#x40b;" d="M0 1193v156h823v-156h-339v-322q129 36 196.5 47.5t123.5 11.5q182 0 270 -88.5t88 -276.5v-565h-190v545q0 122 -40 176.5t-136 54.5q-115 0 -312 -50v-726h-190v1193h-294z" />
<glyph unicode="&#x40c;" d="M168 0v1349h191v-589q93 0 172 50.5t152 159.5l251 379h202l-296 -430q-41 -60 -77 -101.5t-91 -82.5l509 -735h-222l-427 647q-36 -15 -87 -26.5t-86 -11.5v-609h-191zM489 1446v20l227 239h197v-29l-300 -230h-124z" />
<glyph unicode="&#x40d;" d="M162 0v1349h172v-864q0 -130 -18 -274l528 1138h222v-1349h-170v876q0 82 16 254l-520 -1130h-230zM311 1663v29h207l217 -226v-20h-114z" />
<glyph unicode="&#x40e;" d="M20 1349h215l417 -739l349 739h205l-532 -1031q-78 -152 -132 -216t-116.5 -93t-153.5 -29q-62 0 -129.5 19t-113.5 51l81 144q94 -59 166 -59q38 0 67 10t56 36.5t55.5 70.5t103.5 188zM261 1705h164q5 -77 51 -113t152 -36q105 0 151.5 36t51.5 113h164 q-9 -260 -367 -260t-367 260z" />
<glyph unicode="&#x40f;" d="M156 0v1349h191v-1189h534v1189h191v-1349h-368v-425h-180v425h-368z" />
<glyph unicode="&#x410;" d="M0 0l510 1349h217l501 -1349h-194l-138 382h-563l-137 -382h-196zM384 531h463l-173 500l-58 174l-12 -39l-69 -212z" />
<glyph unicode="&#x411;" d="M162 0v1349h918v-156h-727v-410h322q242 0 369.5 -102t127.5 -288q0 -183 -127.5 -288t-357.5 -105h-525zM353 151h307q164 0 242 56t78 180q0 121 -82 178.5t-246 57.5h-299v-472z" />
<glyph unicode="&#x412;" d="M162 0v1349h412q496 0 496 -327q0 -122 -72 -204t-196 -107q167 -18 258.5 -107t91.5 -224q0 -180 -137 -280t-381 -100h-472zM353 153h266q175 0 257.5 60.5t82.5 183.5q0 114 -89 174t-265 60h-252v-478zM353 780h225q300 0 300 218q0 107 -75.5 152.5t-226.5 45.5 h-223v-416z" />
<glyph unicode="&#x413;" d="M224 0v1349h891v-156h-700v-1193h-191z" />
<glyph unicode="&#x414;" d="M5 150h119q93 116 145.5 280.5t83.5 408.5l67 510h604v-1199h175v-558h-160v408h-874v-408h-160v558zM319 150h539v1049h-295l-49 -378q-33 -243 -77.5 -398.5t-117.5 -272.5z" />
<glyph unicode="&#x415;" d="M162 0v1349h919v-156h-728v-422h668v-154h-668v-461h769v-156h-960z" />
<glyph unicode="&#x416;" d="M0 0l314 719q-61 61 -104 158l-201 472h173l148 -386q41 -103 88.5 -152t115.5 -65v603h160v-603q68 16 115.5 65t88.5 152l148 386h173l-201 -472q-40 -92 -105 -157l315 -720h-185l-247 633l-16 -5l-86 -21v-607h-160v607l-25 6l-77 20l-247 -633h-185z" />
<glyph unicode="&#x417;" d="M67 328l165 77q119 -272 382 -272q153 0 241 69t88 186q0 122 -96 179t-298 57h-71v148h71q180 0 267 61t87 166q0 101 -76 158t-204 57q-126 0 -214 -59t-138 -188l-175 61q70 173 202 257t332 84q211 0 337.5 -97t126.5 -256q0 -118 -72 -197.5t-208 -112.5 q148 -22 235 -106.5t87 -208.5q0 -121 -62.5 -214.5t-180.5 -145t-272 -51.5q-203 0 -336 81t-218 267z" />
<glyph unicode="&#x418;" d="M162 0v1349h172v-864q0 -130 -18 -274l528 1138h222v-1349h-170v876q0 82 16 254l-520 -1130h-230z" />
<glyph unicode="&#x419;" d="M162 0v1349h172v-864q0 -130 -18 -274l528 1138h222v-1349h-170v876q0 82 16 254l-520 -1130h-230zM243 1705h164q5 -77 51 -113t152 -36q105 0 151.5 36t51.5 113h164q-9 -260 -367 -260t-367 260z" />
<glyph unicode="&#x41a;" d="M168 0v1349h191v-589q93 0 172 50.5t152 159.5l251 379h202l-296 -430q-41 -60 -77 -101.5t-91 -82.5l509 -735h-222l-427 647q-36 -15 -87 -26.5t-86 -11.5v-609h-191z" />
<glyph unicode="&#x41b;" d="M-2 -6v152q19 -7 56 -7q61 0 99 38t67 119.5t56 223.5t53 349l61 480h727v-1349h-186v1189h-378l-43 -338q-50 -395 -99 -563.5t-122 -236t-205 -67.5q-58 0 -86 10z" />
<glyph unicode="&#x41c;" d="M129 0v1349h237l185 -489q21 -53 68 -231l26 90l44 140l185 490h225v-1349h-162v868q0 135 3 201l3 100q-64 -206 -95 -291l-164 -438h-137l-166 438q-18 46 -96 291l4 -301v-868h-160z" />
<glyph unicode="&#x41d;" d="M162 0v1349h191v-566h522v566h191v-1349h-191v623h-522v-623h-191z" />
<glyph unicode="&#x41e;" d="M102 681q0 337 130 513t383 176q247 0 379 -173.5t132 -515.5q0 -337 -132.5 -519t-380.5 -182q-249 0 -380 179t-131 522zM303 681q0 -270 79 -408t232 -138q163 0 237 140t74 406q0 533 -310 533q-312 0 -312 -533z" />
<glyph unicode="&#x41f;" d="M162 0v1349h904v-1349h-191v1189h-522v-1189h-191z" />
<glyph unicode="&#x420;" d="M162 0v1349h460q238 0 367.5 -106.5t129.5 -297.5q0 -125 -59.5 -223t-170 -153t-255.5 -55h-281v-514h-191zM353 665h254q149 0 234.5 73t85.5 204q0 254 -328 254h-246v-531z" />
<glyph unicode="&#x421;" d="M113 681q0 689 536 689q339 0 466 -335l-168 -65q-37 113 -115.5 178.5t-181.5 65.5q-171 0 -253.5 -129t-82.5 -404q0 -273 85.5 -409.5t261.5 -136.5q101 0 183 68.5t139 213.5l159 -65q-149 -372 -483 -372q-263 0 -404.5 181t-141.5 520z" />
<glyph unicode="&#x422;" d="M76 1193v156h1076v-156h-443v-1193h-190v1193h-443z" />
<glyph unicode="&#x423;" d="M20 1349h215l417 -739l349 739h205l-532 -1031q-78 -152 -132 -216t-116.5 -93t-153.5 -29q-62 0 -129.5 19t-113.5 51l81 144q94 -59 166 -59q38 0 67 10t56 36.5t55.5 70.5t103.5 188z" />
<glyph unicode="&#x424;" d="M8 706q0 220 131 350.5t355 130.5h30v172h181v-172h29q224 0 355.5 -130t131.5 -351q0 -138 -60 -253.5t-167.5 -181t-247.5 -65.5h-41v-217h-181v217h-41q-139 0 -247 65t-168 181.5t-60 253.5zM202 702q0 -162 81.5 -258t228.5 -96h12v696h-8q-149 0 -231.5 -88 t-82.5 -254zM705 348h12q147 0 228.5 96.5t81.5 257.5q0 164 -82.5 253t-234.5 89h-5v-696z" />
<glyph unicode="&#x425;" d="M36 0l476 705l-435 644h205l332 -513l333 513h205l-435 -644l476 -705h-205l-374 573l-373 -573h-205z" />
<glyph unicode="&#x426;" d="M128 0v1349h191v-1189h522v1189h191v-1189h175v-585h-180v425h-899z" />
<glyph unicode="&#x427;" d="M95 785v564h190v-544q0 -231 234 -231q119 0 364 49v726h190v-1349h-190v478q-167 -37 -241.5 -47.5t-136.5 -10.5q-206 0 -308 93.5t-102 271.5z" />
<glyph unicode="&#x428;" d="M89 0v1349h162v-1209h282v1209h162v-1209h282v1209h162v-1349h-1050z" />
<glyph unicode="&#x429;" d="M86 0v1349h162v-1209h257v1209h162v-1209h257v1209h162v-1209h142v-565h-142v425h-1000z" />
<glyph unicode="&#x42a;" d="M0 1193v156h526v-566h132q242 0 369.5 -102t127.5 -288q0 -183 -127.5 -288t-357.5 -105h-335v1193h-335zM526 151h117q164 0 242 58t78 182q0 121 -82 176.5t-246 55.5h-109v-472z" />
<glyph unicode="&#x42b;" d="M105 0v1349h171v-576h62q246 0 371.5 -100t125.5 -280q0 -183 -128.5 -288t-356.5 -105h-245zM276 141h77q165 0 242.5 62.5t77.5 187.5q0 242 -328 242h-69v-492zM952 0v1349h171v-1349h-171z" />
<glyph unicode="&#x42c;" d="M162 0v1349h191v-566h322q242 0 369.5 -102t127.5 -288q0 -183 -127.5 -288t-357.5 -105h-525zM353 151h307q164 0 242 56t78 180q0 121 -82 178.5t-246 57.5h-299v-472z" />
<glyph unicode="&#x42d;" d="M87 352l159 65q56 -144 138.5 -213t183.5 -69q162 0 248 116t97 358h-426v145h426q-10 226 -89.5 343t-244.5 117q-103 0 -181.5 -65.5t-115.5 -178.5l-168 65q68 173 184 254t282 81q536 0 536 -689q0 -339 -141.5 -520t-404.5 -181q-162 0 -283 90t-200 282z" />
<glyph unicode="&#x42e;" d="M86 0v1349h161v-595h153q11 308 110 462t277 154q188 0 288 -172t100 -517q0 -342 -100 -521.5t-290 -179.5q-178 0 -276 161t-109 468h-153v-609h-161zM571 681q0 -556 215 -556q217 0 217 556q0 278 -53 410.5t-164 132.5q-109 0 -162 -132.5t-53 -410.5z" />
<glyph unicode="&#x42f;" d="M52 0l400 597q-157 26 -250.5 128t-93.5 251q0 180 122.5 276.5t354.5 96.5h482v-1349h-191v575h-238l-366 -575h-220zM300 973q0 -120 76 -183.5t220 -63.5h280v470h-272q-304 0 -304 -223z" />
<glyph unicode="&#x430;" d="M128 302q0 349 454 354l236 4v59q0 131 -53 188.5t-169 57.5q-118 0 -170 -42t-62 -130l-188 17q46 292 423 292q200 0 300.5 -93.5t100.5 -270.5v-466q0 -80 21 -120.5t80 -40.5q26 0 59 7v-112q-68 -16 -139 -16q-100 0 -145.5 52.5t-51.5 164.5h-6 q-65 -121 -153.5 -174t-218.5 -53q-158 0 -238 86t-80 236zM317 299q0 -82 44.5 -132t130.5 -50q96 0 170 46t115 123t41 159v89l-190 -4q-118 -2 -180 -26t-96.5 -73.5t-34.5 -131.5z" />
<glyph unicode="&#x431;" d="M140 636q0 262 54 423.5t169 252.5t316 130q138 27 377 60v-161q-206 -26 -338 -51q-155 -28 -229 -62t-116 -89.5t-62.5 -144t-24.5 -232.5q46 128 147 196.5t242 68.5q222 0 327 -130.5t105 -392.5q0 -265 -125 -394.5t-363 -129.5q-246 0 -362.5 161t-116.5 495z M329 502q0 -194 69.5 -291.5t218.5 -97.5q161 0 231 93.5t70 295.5t-66 297.5t-215 95.5q-159 0 -233.5 -96.5t-74.5 -296.5z" />
<glyph unicode="&#x432;" d="M185 0v1082h462q200 0 300 -70t100 -201q0 -94 -58 -156t-165 -82v-7q129 -17 193.5 -82.5t64.5 -171.5q0 -147 -109.5 -229.5t-302.5 -82.5h-485zM365 133h276q138 0 194 42.5t56 135.5q0 101 -59.5 142.5t-202.5 41.5h-264v-362zM365 625h256q128 0 182.5 36t54.5 126 q0 82 -51 120t-172 38h-270v-320z" />
<glyph unicode="&#x433;" d="M265 0v1082h785v-142h-605v-940h-180z" />
<glyph unicode="&#x434;" d="M22 142h119q78 128 133 358t98 582h624v-940h146v-550h-163v408h-794v-408h-163v550zM324 142h507v798h-316q-36 -267 -81.5 -462.5t-109.5 -335.5z" />
<glyph unicode="&#x435;" d="M133 548q0 267 124.5 410.5t359.5 143.5t356 -143t121 -432v-24h-772q0 -182 80.5 -285t220.5 -103q103 0 180.5 44.5t103.5 121.5l158 -45q-44 -124 -161.5 -190t-280.5 -66q-236 0 -363 147t-127 421zM324 641h584q-28 328 -289 328q-134 0 -212 -87.5t-83 -240.5z" />
<glyph unicode="&#x436;" d="M1 0l335 608q-21 23 -51 63.5t-275 410.5h178l148 -239q65 -104 110 -152t91 -65v456h154v-456q48 18 92.5 66.5t108.5 150.5l148 239h178l-216 -325q-71 -106 -111 -149l336 -608h-185l-253 517q-12 -9 -39.5 -21t-58.5 -16v-480h-154v480q-30 4 -57.5 15.5t-40.5 21.5 l-253 -517h-185z" />
<glyph unicode="&#x437;" d="M138 234l159 44q26 -84 102 -124t207 -40q264 0 264 185q0 95 -105.5 147.5t-290.5 52.5v137q183 0 280.5 45t97.5 127q0 160 -247 160q-129 0 -193 -35.5t-76 -108.5l-162 20q24 137 131.5 197.5t300.5 60.5q198 0 313.5 -76.5t115.5 -208.5q0 -65 -36.5 -118 t-100.5 -86.5t-136 -41.5v-2q128 -14 213.5 -87t85.5 -178q0 -154 -118.5 -239t-340.5 -85q-197 0 -306 59.5t-158 194.5z" />
<glyph unicode="&#x438;" d="M185 0v1082h174v-592l-10 -277l499 869h197v-1082h-172v660q0 65 7 165l3 48l-506 -873h-192z" />
<glyph unicode="&#x439;" d="M185 0v1082h174v-592l-10 -277l499 869h197v-1082h-172v660q0 65 7 165l3 48l-506 -873h-192zM248 1460h164q5 -77 51 -113t152 -36q105 0 151.5 36t51.5 113h164q-9 -260 -367 -260t-367 260z" />
<glyph unicode="&#x43a;" d="M218 0v1082h180v-474q113 0 187 47t148 158l180 269h194l-226 -325q-78 -111 -150 -163l385 -594h-204l-317 509q-34 -15 -89 -25t-108 -10v-474h-180z" />
<glyph unicode="&#x43b;" d="M6 -7v129q25 -9 68 -9q58 0 94.5 74t69.5 240.5t100 654.5h710v-1082h-181v940h-381l-46 -326q-36 -257 -75.5 -390.5t-99 -188.5t-165.5 -55q-50 0 -94 13z" />
<glyph unicode="&#x43c;" d="M102 0v1082h250l200 -641q53 -169 68 -306q22 159 68 306l200 641h239v-1082h-153v724q0 53 8 229l-285 -953h-153l-294 951q6 -75 6 -227v-724h-154z" />
<glyph unicode="&#x43d;" d="M181 0v1082h180v-458h507v458h180v-1082h-180v493h-507v-493h-180z" />
<glyph unicode="&#x43e;" d="M130 542q0 279 126.5 419.5t358.5 140.5q244 0 363 -139t119 -421q0 -273 -125.5 -417.5t-362.5 -144.5q-232 0 -355.5 146t-123.5 416zM319 542q0 -210 72 -319.5t216 -109.5q159 0 230 107t71 322t-68.5 321t-221.5 106q-155 0 -227 -108t-72 -319z" />
<glyph unicode="&#x43f;" d="M181 0v1082h867v-1082h-180v940h-507v-940h-180z" />
<glyph unicode="&#x440;" d="M179 1082h175q1 -4 3 -29.5t4.5 -75t2.5 -73.5h4q50 105 127.5 152.5t202.5 47.5q198 0 295 -136.5t97 -421.5q0 -566 -392 -566q-246 0 -331 184h-5q4 -8 4 -166v-423h-181v1283q0 170 -6 224zM366 524q0 -213 67 -312t216 -99q133 0 194 101t61 332q0 226 -61 322.5 t-192 96.5q-151 0 -218 -109.5t-67 -331.5z" />
<glyph unicode="&#x441;" d="M130 542q0 270 129 415t373 145q182 0 300 -87.5t146 -235.5l-192 -14q-16 91 -80 143.5t-182 52.5q-158 0 -231.5 -98t-73.5 -317q0 -222 73.5 -324.5t230.5 -102.5q108 0 179 53t88 162l190 -12q-13 -96 -72.5 -174.5t-157.5 -123t-219 -44.5q-245 0 -373 144t-128 418 z" />
<glyph unicode="&#x442;" d="M130 940v142h968v-142h-394v-940h-180v940h-394z" />
<glyph unicode="&#x443;" d="M66 1082h192l264 -642q91 -224 98 -254l41 110l310 786h190l-456 -1082q-89 -235 -184.5 -330t-228.5 -95q-74 0 -124 11v135q38 -6 84 -6q79 0 148.5 59t117.5 188l18 49z" />
<glyph unicode="&#x444;" d="M70 542q0 253 120 395t348 162v385h155v-385q235 -19 349.5 -157.5t114.5 -399.5q0 -252 -119 -394.5t-345 -163.5v-409h-155v408q-226 19 -347 163.5t-121 395.5zM259 542q0 -382 279 -425v846q-141 -20 -210 -124.5t-69 -296.5zM693 119q275 41 275 423 q0 195 -67 299.5t-208 122.5v-845z" />
<glyph unicode="&#x445;" d="M94 0l415 556l-397 526h199l300 -421l298 421h201l-397 -524l420 -558h-201l-321 444l-323 -444h-194z" />
<glyph unicode="&#x446;" d="M176 0v1082h180v-951h507v951h180v-951h147v-539h-163v408h-851z" />
<glyph unicode="&#x447;" d="M154 671v411h180v-402q0 -78 50.5 -120t147.5 -42q117 0 309 52v512h180v-1082h-180v466q-231 -91 -393 -91q-146 0 -220 79t-74 217z" />
<glyph unicode="&#x448;" d="M102 0v1082h160v-951h272v951h160v-951h273v951h160v-1082h-1025z" />
<glyph unicode="&#x449;" d="M92 0v1082h160v-951h249v951h160v-951h249v951h160v-951h143v-539h-143v408h-978z" />
<glyph unicode="&#x44a;" d="M-1 940v142h508v-458h228q205 0 310 -73.5t105 -232.5q0 -154 -108 -236t-306 -82h-409v940h-328zM507 127h202q130 0 190 46t60 145q0 94 -58 137.5t-191 43.5h-203v-372z" />
<glyph unicode="&#x44b;" d="M106 0v1082h164v-458h155q205 0 310 -73.5t105 -232.5q0 -154 -108 -236t-306 -82h-320zM270 127h155q125 0 182.5 47t57.5 144q0 94 -56.5 137.5t-182.5 43.5h-156v-372zM958 0v1082h164v-1082h-164z" />
<glyph unicode="&#x44c;" d="M204 0v1082h180v-458h266q205 0 310 -73.5t105 -232.5q0 -154 -108 -236t-306 -82h-447zM384 127h240q130 0 190 46t60 145q0 94 -58 137.5t-191 43.5h-241v-372z" />
<glyph unicode="&#x44d;" d="M124 322l190 12q15 -102 89 -158.5t188 -56.5q145 0 219 88t83 275h-382v131h382q-8 178 -82 263t-221 85q-118 0 -187 -52.5t-85 -143.5l-192 14q31 150 153.5 236.5t302.5 86.5q244 0 373 -145t129 -415q0 -274 -128.5 -418t-372.5 -144q-121 0 -221.5 44.5 t-162.5 123.5t-75 174z" />
<glyph unicode="&#x44e;" d="M70 0v1082h164v-458h169q17 226 120 352t270 126q177 0 280 -152t103 -410q0 -263 -101 -411.5t-283 -148.5q-178 0 -281.5 137.5t-109.5 375.5h-167v-493h-164zM574 540q0 -203 55.5 -315t159.5 -112t159 110t55 317q0 139 -26.5 233.5t-73.5 145t-108 50.5 q-108 0 -164.5 -110.5t-56.5 -318.5z" />
<glyph unicode="&#x44f;" d="M69 0l344 471q-249 52 -249 312q0 149 108 224t315 75h432v-1082h-180v458h-252l-315 -458h-203zM355 770q0 -94 53.5 -140.5t177.5 -46.5h253v372h-234q-130 0 -190 -46t-60 -139z" />
<glyph unicode="&#x450;" d="M133 548q0 267 124.5 410.5t359.5 143.5t356 -143t121 -432v-24h-772q0 -182 80.5 -285t220.5 -103q103 0 180.5 44.5t103.5 121.5l158 -45q-44 -124 -161.5 -190t-280.5 -66q-236 0 -363 147t-127 421zM323 1431v29h197l227 -239v-20h-124zM324 641h584 q-28 328 -289 328q-134 0 -212 -87.5t-83 -240.5z" />
<glyph unicode="&#x451;" d="M133 548q0 267 124.5 410.5t359.5 143.5t356 -143t121 -432v-24h-772q0 -182 80.5 -285t220.5 -103q103 0 180.5 44.5t103.5 121.5l158 -45q-44 -124 -161.5 -190t-280.5 -66q-236 0 -363 147t-127 421zM324 641h584q-28 328 -289 328q-134 0 -212 -87.5t-83 -240.5z M343 1219v184h165v-184h-165zM737 1219v184h163v-184h-163z" />
<glyph unicode="&#x452;" d="M53 1196v131h132v157h181v-157h299v-131h-299v-132q0 -59 -9 -197h3q105 205 339 205q350 0 350 -381v-825q0 -153 -60 -222t-180 -69q-77 0 -127 9v139l62 -6q70 0 97 36t27 140v772q0 136 -52.5 202t-167.5 66q-124 0 -203.5 -90.5t-79.5 -245.5v-597h-180v1196h-132z " />
<glyph unicode="&#x453;" d="M265 0v1082h785v-142h-605v-940h-180zM549 1201v20l227 239h197v-29l-300 -230h-124z" />
<glyph unicode="&#x454;" d="M145 542q0 270 129 415t373 145q183 0 305.5 -88.5t150.5 -234.5l-192 -14q-16 91 -85 143.5t-187 52.5q-144 0 -218 -82t-85 -266h382v-131h-382q11 -192 85 -277.5t217 -85.5q113 0 187 56t90 159l190 -12q-13 -95 -75 -174t-162 -123.5t-222 -44.5q-245 0 -373 144 t-128 418z" />
<glyph unicode="&#x455;" d="M167 248l159 31q19 -86 81.5 -125.5t213.5 -39.5q270 0 270 171q0 64 -49 103.5t-150 64.5q-264 65 -335 102t-109 92.5t-38 138.5q0 147 106 230t307 83q176 0 281 -66.5t131 -193.5l-162 -20q-11 72 -71 109t-179 37q-245 0 -245 -151q0 -60 41.5 -96t133.5 -58 l119 -31q163 -40 234.5 -79t112.5 -97.5t41 -143.5q0 -154 -116.5 -241.5t-322.5 -87.5t-313.5 64.5t-140.5 203.5z" />
<glyph unicode="&#x456;" d="M143 0v142h422v798h-319v142h499v-940h380v-142h-982zM545 1292v192h200v-192h-200z" />
<glyph unicode="&#x457;" d="M143 0v142h422v798h-319v142h499v-940h380v-142h-982zM376 1219v184h165v-184h-165zM770 1219v184h163v-184h-163z" />
<glyph unicode="&#x458;" d="M117 -242q150 -34 273 -34q128 0 197 66t69 185v965h-407v142h587v-1110q0 -187 -112 -292t-319 -105q-79 0 -161 13t-127 30v140zM636 1292v192h200v-192h-200z" />
<glyph unicode="&#x459;" d="M25 -9v129q21 -7 58 -7q48 0 74 34.5t43.5 120.5t35.5 273l53 541h456v-458h51q395 0 395 -306q0 -150 -103 -234t-291 -84h-207v961h-165l-40 -443q-20 -215 -51 -329t-81 -161.5t-144 -47.5q-47 0 -84 11zM745 117h51q230 0 230 201q0 191 -229 191h-52v-392z" />
<glyph unicode="&#x45a;" d="M92 0v1082h154v-458h331v458h154v-458h54q205 0 310 -73.5t105 -232.5q0 -154 -108 -236t-306 -82h-209v503h-331v-503h-154zM731 117h54q128 0 189 50t61 151q0 94 -58 142.5t-191 48.5h-55v-392z" />
<glyph unicode="&#x45b;" d="M53 1196v131h132v157h181v-157h299v-131h-299v-132q0 -59 -9 -197h3q105 205 339 205q350 0 350 -381v-691h-181v665q0 136 -52.5 202t-167.5 66q-124 0 -203.5 -90.5t-79.5 -245.5v-597h-180v1196h-132z" />
<glyph unicode="&#x45c;" d="M218 0v1082h180v-474q113 0 187 47t148 158l180 269h194l-226 -325q-78 -111 -150 -163l385 -594h-204l-317 509q-34 -15 -89 -25t-108 -10v-474h-180zM508 1201v20l227 239h197v-29l-300 -230h-124z" />
<glyph unicode="&#x45d;" d="M185 0v1082h174v-592l-10 -277l499 869h197v-1082h-172v660q0 65 7 165l3 48l-506 -873h-192zM364 1431v29h197l227 -239v-20h-124z" />
<glyph unicode="&#x45e;" d="M66 1082h192l264 -642q91 -224 98 -254l41 110l310 786h190l-456 -1082q-89 -235 -184.5 -330t-228.5 -95q-74 0 -124 11v135q38 -6 84 -6q79 0 148.5 59t117.5 188l18 49zM246 1460h164q5 -77 51 -113t152 -36q105 0 151.5 36t51.5 113h164q-9 -260 -367 -260t-367 260z " />
<glyph unicode="&#x45f;" d="M181 0v1082h180v-951h507v951h180v-1082h-352v-425h-163v425h-352z" />
<glyph unicode="&#x460;" d="M72 671q0 328 81.5 513.5t224.5 185.5q63 0 107 -27t84 -86l-89 -87q-33 50 -78 50q-74 0 -115 -139t-41 -400q0 -262 41 -406t115 -144q84 0 140 127v411h150v-402q22 -58 53.5 -97t79.5 -39q75 0 116.5 146.5t41.5 403.5q0 260 -41 399.5t-115 139.5q-43 0 -78 -50 l-91 86q70 114 195 114q141 0 222.5 -186.5t81.5 -512.5q0 -327 -81 -509t-228 -182t-234 171q-84 -171 -234 -171q-153 0 -230.5 178t-77.5 513z" />
<glyph unicode="&#x461;" d="M-20 1082h183l267 -914l146 430l-137 484h183l224 -914q83 154 129 319.5t46 316.5q0 156 -48 278h167q50 -121 50 -263q0 -167 -72 -376.5t-212 -442.5h-160l-111 392l-135 -392h-170z" />
<glyph unicode="&#x462;" d="M21 998v147h141v204h191v-204h459v-147h-459v-215h322q242 0 369.5 -102t127.5 -288q0 -183 -127.5 -288t-357.5 -105h-525v998h-141zM353 151h307q164 0 242 56t78 180q0 121 -82 178.5t-246 57.5h-299v-472z" />
<glyph unicode="&#x463;" d="M21 943v139h301v401h180v-401h298v-139h-298v-283h273q205 0 310 -84t105 -243q0 -157 -108.5 -245t-305.5 -88h-454v943h-301zM502 127h247q250 0 250 206q0 94 -58 145t-191 51h-248v-402z" />
<glyph unicode="&#x464;" d="M63 0v1349h163v-589h170q25 610 428 610q139 0 235.5 -81.5t152.5 -256.5l-161 -62q-35 106 -64.5 152t-69 69t-92.5 23q-123 0 -180.5 -107t-66.5 -353h326v-145h-326q9 -252 70 -363t186 -111q51 0 89.5 25t70.5 73.5t81 174.5l153 -56q-70 -198 -164.5 -285 t-231.5 -87q-200 0 -311.5 159t-124.5 466h-170v-605h-163z" />
<glyph unicode="&#x465;" d="M99 0v1082h164v-469h170q12 234 113 361.5t283 127.5q141 0 233.5 -83.5t116.5 -232.5l-173 -14q-11 90 -56.5 143t-129.5 53q-108 0 -159 -85t-57 -270h334v-131h-334q13 -367 218 -367q77 0 127.5 51.5t62.5 160.5l171 -12q-19 -155 -113.5 -245t-241.5 -90 q-182 0 -284.5 129t-113.5 373h-167v-482h-164z" />
<glyph unicode="&#x466;" d="M10 0l505 1349h198l505 -1349h-201l-188 532h-130v-532h-175v532h-125l-188 -532h-201zM452 681h325l-78 221q-43 124 -76 249l-8 29l-8 -30q-39 -143 -76 -248z" />
<glyph unicode="&#x467;" d="M69 0l433 1082h213l444 -1082h-201l-144 368h-123v-368h-164v368h-116l-140 -368h-202zM463 504h298l-79 202q-32 88 -74 235l-14 -52l-55 -185z" />
<glyph unicode="&#x468;" d="M63 0v1349h163v-662h233l201 662h160l409 -1349h-162l-153 532h-95v-532h-162v532h-91l-153 -532h-162l161 532h-186v-532h-163zM609 681h263l-63 221q-25 88 -46 182l-22 96l-7 -30q-29 -133 -61 -248z" />
<glyph unicode="&#x469;" d="M99 0v1082h164v-582h261l196 582h136l362 -1082h-158l-113 368h-84v-368h-153v368h-81l-110 -368h-163l125 369h-218v-369h-164zM667 504h243l-123 402z" />
<glyph unicode="&#x46a;" d="M22 0v205q0 218 39.5 325.5t126.5 167.5t236 75l-311 576h1006l-303 -576q147 -14 232 -73.5t122.5 -165.5t37.5 -329v-205h-180v210q0 194 -28 268t-95 109t-190 39v-626h-190v626q-127 -5 -196 -41.5t-98 -113t-29 -261.5v-210h-180zM417 1193l205 -427l193 427h-398z " />
<glyph unicode="&#x46b;" d="M35 0v70q0 254 91 364t308 130l-310 518h984l-312 -518q148 -14 234.5 -67.5t125 -152.5t38.5 -274v-70h-170v70q0 144 -29.5 216.5t-97.5 106.5t-199 38v-431h-169v431q-124 0 -193 -34.5t-100 -109t-31 -217.5v-70h-170zM401 943l214 -386l219 386h-433z" />
<glyph unicode="&#x46c;" d="M63 0v1349h162v-575h377l-211 575h714l-205 -576q107 -13 165.5 -59.5t85.5 -120.5t31.5 -172.5t4.5 -215.5v-205h-166v210q0 215 -16.5 281.5t-56.5 98.5t-115 36v-626h-164v626q-78 -5 -119.5 -38.5t-59 -103.5t-17.5 -274v-210h-166v205q0 190 13 274t39 140h-134 v-619h-162zM626 1193l127 -427l116 427h-243z" />
<glyph unicode="&#x46d;" d="M46 0v1082h180v-518h388l-210 518h714l-202 -518q113 -13 174 -59t87.5 -133.5t26.5 -301.5v-70h-170v70q0 187 -16 246.5t-54.5 85.5t-115.5 29v-431h-169v431q-75 0 -113 -27t-54.5 -90t-16.5 -244v-70h-170v70q0 154 28 236t88 125h-215v-431h-180zM641 943l124 -386 l119 386h-243z" />
<glyph unicode="&#x46e;" d="M76 1088q55 137 151.5 220.5t247.5 109.5l-184 339h156l163 -325l91 216q29 67 65 95t90 28q83 0 128 -77l-66 -62q-17 30 -45 30q-14 0 -24.5 -7.5t-23.5 -36.5l-88 -200q157 -28 247 -122.5t90 -234.5q0 -127 -72 -210t-208 -115q152 -23 237 -110.5t85 -219.5 q0 -91 -24 -156.5t-65 -111.5t-99.5 -75.5t-129.5 -47.5t-226 -36q-151 -17 -205.5 -33t-84 -41.5t-29.5 -66.5q0 -108 164 -108q58 0 111.5 13.5t103 30t96 30.5t91.5 14q94 0 148.5 -65t54.5 -165h-152q0 77 -74 77q-29 0 -72 -14t-97 -31t-117 -31t-130 -14 q-136 0 -217 72t-81 194q0 87 42 142t120 86t239 46q147 14 201 25t97.5 29.5t75 49.5t49 75.5t17.5 108.5q0 133 -96 192t-298 59h-71v148h71q181 0 267.5 59.5t86.5 182.5q0 107 -72.5 168.5t-207.5 61.5q-126 0 -212 -58.5t-137 -188.5z" />
<glyph unicode="&#x46f;" d="M150 -159q0 78 36 127.5t102.5 79.5t204.5 50q132 19 185.5 41.5t82 60.5t28.5 99q0 200 -331 200v137q161 0 237 42t76 130q0 74 -49.5 117t-142.5 43q-89 0 -145.5 -37t-68.5 -107l-162 20q36 202 248 246l-188 345h156l163 -325l91 216q29 67 65 95t90 28 q83 0 128 -77l-66 -62q-17 30 -45 30q-14 0 -24.5 -7.5t-23.5 -36.5l-91 -208q112 -26 180 -97.5t68 -173.5q0 -101 -72.5 -169t-175.5 -77v-2q121 -13 197.5 -84.5t76.5 -180.5q0 -95 -41 -161.5t-127 -106.5t-265 -66q-112 -19 -151.5 -34.5t-60.5 -38.5t-21 -59 q0 -116 152 -116q58 0 104 15.5t87 33.5t80 33.5t84 15.5q91 0 144 -62.5t53 -166.5h-152q0 77 -74 77q-29 0 -63.5 -14.5t-78 -32t-97.5 -32t-122 -14.5q-123 0 -202 75t-79 191z" />
<glyph unicode="&#x470;" d="M-1 1349h161l100 -437q32 -142 54.5 -209t47 -103.5t59.5 -51.5t116 -15v816h155v-816h51q133 0 204.5 100t71.5 279v437h161v-433q0 -242 -114.5 -380.5t-315.5 -138.5h-58v-397h-155v397q-132 0 -190 20t-97 69.5t-74 147.5t-77 282z" />
<glyph unicode="&#x471;" d="M21 1082h167l128 -686q22 -120 43 -174.5t52 -78t86 -24.5v963h159v-963q162 2 232 81t70 256v626h160v-624q0 -247 -112.5 -361.5t-349.5 -116.5v-405h-159v405q-108 2 -173 42.5t-106 127.5t-78 288z" />
<glyph unicode="&#x472;" d="M102 681q0 345 132.5 517t380.5 172q247 0 379 -173.5t132 -515.5q0 -337 -132.5 -519t-380.5 -182q-249 0 -380 179t-131 522zM303 655q4 -257 83 -388.5t228 -131.5q142 0 216 106.5t90 311.5q-43 -13 -81 -13q-60 0 -111.5 21.5t-99.5 48t-94.5 48t-96.5 21.5 q-73 0 -134 -24zM308 810q61 23 128 23q63 0 113.5 -22t96.5 -48t93.5 -48t104.5 -22q42 0 81 11q-8 510 -310 510q-273 0 -307 -404z" />
<glyph unicode="&#x473;" d="M129 542q0 560 485 560q248 0 365 -136.5t117 -423.5q0 -284 -125 -423t-363 -139q-237 0 -358 144.5t-121 417.5zM318 514q5 -206 75.5 -303.5t212.5 -97.5q151 0 220.5 88t78.5 273q-73 -32 -127 -32q-52 0 -95.5 16.5t-82.5 37t-76 37t-76 16.5q-69 0 -130 -35z M323 656q62 30 125 30q50 0 89.5 -16.5t77 -36.5t77 -36.5t89.5 -16.5q63 0 124 33q-11 182 -78 269t-210 87q-137 0 -207 -76.5t-87 -236.5z" />
<glyph unicode="&#x474;" d="M10 1349h201l320 -902q40 -120 84 -279l81 300l201 689q59 202 218 202q72 0 121.5 -26.5t92.5 -69.5l-97 -113q-43 46 -87 46q-30 0 -52.5 -30t-42.5 -96l-333 -1070h-202z" />
<glyph unicode="&#x475;" d="M83 1082h192l238 -704q13 -40 69 -237l64 235l151 522q32 109 90 156.5t129 47.5q72 0 121.5 -26.5t92.5 -69.5l-97 -113q-43 46 -87 46q-30 0 -52.5 -30t-42.5 -96l-252 -813h-223z" />
<glyph unicode="&#x476;" d="M10 1349h201l320 -902q40 -120 84 -279l81 300l201 689q59 202 218 202q72 0 121.5 -26.5t92.5 -69.5l-97 -113q-43 46 -87 46q-30 0 -52.5 -30t-42.5 -96l-333 -1070h-202zM151 1664v29h207l217 -227v-20h-94zM498 1664v29h207l217 -227v-20h-94z" />
<glyph unicode="&#x477;" d="M83 1082h192l238 -704q13 -40 69 -237l64 235l151 522q32 109 90 156.5t129 47.5q72 0 121.5 -26.5t92.5 -69.5l-97 -113q-43 46 -87 46q-30 0 -52.5 -30t-42.5 -96l-252 -813h-223zM177 1419v29h207l217 -227v-20h-94zM524 1419v29h207l217 -227v-20h-94z" />
<glyph unicode="&#x478;" d="M31 675q0 385 66.5 538.5t220.5 153.5q107 0 168.5 -65.5t89 -206t27.5 -420.5q0 -379 -66.5 -537t-221.5 -158q-152 0 -218 161t-66 534zM192 675q0 -219 11 -337t37 -173.5t74 -55.5q53 0 79.5 51.5t38.5 171t12 343.5q0 238 -11 351t-37 163t-76 50q-52 0 -78.5 -53 t-38 -170t-11.5 -341zM589 1082h160l176 -786l141 786h159l-241 -1082q-52 -234 -117 -329.5t-165 -95.5q-52 0 -90 11v135q28 -6 62 -6q57 0 96.5 59.5t76.5 187.5l13 43z" />
<glyph unicode="&#x479;" d="M31 542q0 281 69.5 420.5t217.5 139.5q147 0 216 -133.5t69 -426.5q0 -562 -288 -562q-284 0 -284 562zM192 542q0 -167 11 -257.5t36.5 -133t74.5 -42.5q53 0 80 39.5t38.5 131.5t11.5 262q0 182 -11 268t-37 124.5t-76 38.5q-52 0 -79 -41.5t-38 -132.5t-11 -257z M589 1082h160l176 -786l141 786h159l-241 -1082q-52 -234 -117 -329.5t-165 -95.5q-52 0 -90 11v135q28 -6 62 -6q57 0 96.5 59.5t76.5 187.5l13 43z" />
<glyph unicode="&#x47a;" d="M102 681q0 285 91 451.5t263 216.5q23 42 65 68t93 26t92.5 -26t64.5 -68q174 -50 264.5 -217t90.5 -451q0 -275 -89 -448t-262 -229q-22 -45 -65 -73t-96 -28q-54 0 -96.5 27.5t-65.5 71.5q-175 54 -262.5 228t-87.5 451zM303 681q0 -385 160 -500q24 38 63.5 60 t87.5 22t88 -23.5t64 -61.5q159 111 159 503q0 379 -158 488q-23 -39 -64 -62.5t-89 -23.5q-49 0 -90 23.5t-65 62.5q-156 -108 -156 -488z" />
<glyph unicode="&#x47b;" d="M60 542q0 248 103.5 389.5t307.5 165.5q44 100 144 100q98 0 143 -99q410 -45 410 -556q0 -251 -105 -391t-305 -165q-45 -99 -143 -99q-97 0 -142 96q-198 19 -305.5 160.5t-107.5 398.5zM249 542q0 -194 53 -299t166 -128q18 48 55.5 78t91.5 30q53 0 89.5 -29 t55.5 -75q116 27 167.5 129.5t51.5 293.5q0 194 -52 296.5t-166 126.5q-19 -46 -56 -75t-90 -29t-89.5 28.5t-55.5 73.5q-117 -26 -169 -130.5t-52 -290.5z" />
<glyph unicode="&#x47c;" d="M0 711q0 340 89.5 529.5t246.5 189.5q49 0 82.5 -17t65.5 -46l-55 -148q-13 21 -40 38t-47 17q-71 0 -109.5 -148t-38.5 -415q0 -260 61.5 -419.5t165.5 -159.5q58 0 110 42.5t82 112.5q31 -70 83 -112.5t110 -42.5q105 0 166 160.5t61 418.5t-37.5 410.5t-108.5 152.5 q-19 0 -46 -16t-40 -39l-55 148q32 29 65 46t82 17q157 0 245.5 -190.5t88.5 -528.5q0 -340 -99.5 -535.5t-276.5 -195.5q-150 0 -238 109q-87 -109 -237 -109q-177 0 -276.5 195t-99.5 536zM200 1664q26 165 117 255t223 90q60 0 121.5 -23t157.5 -83q92 -58 156.5 -82 t129.5 -24v-130q-75 0 -146.5 26.5t-153.5 82.5q-87 60 -145 84.5t-113 24.5q-182 0 -218 -221h-129zM521 1485q83 98 83 169h-78v141h171v-98q0 -42 -5.5 -72t-16.5 -56t-48 -84h-106z" />
<glyph unicode="&#x47d;" d="M39 542q0 271 117.5 415.5t342.5 144.5v-150q-146 0 -208 -92t-62 -314q0 -233 42.5 -328.5t135.5 -95.5q61 0 119.5 30t88.5 73q31 -43 89 -73t119 -30q93 0 135.5 96t42.5 328q0 221 -62 313.5t-208 92.5v150q225 0 342.5 -144.5t117.5 -415.5q0 -286 -83.5 -424 t-250.5 -138q-142 0 -242 83q-103 -83 -242 -83q-166 0 -250 137.5t-84 424.5zM200 1339q26 165 117 255t223 90q60 0 121.5 -23t157.5 -83q92 -58 156.5 -82t129.5 -24v-130q-75 0 -146.5 26.5t-153.5 82.5q-87 60 -145 84.5t-113 24.5q-182 0 -218 -221h-129zM521 1160 q83 98 83 169h-78v141h171v-98q0 -42 -5.5 -72t-16.5 -56t-48 -84h-106z" />
<glyph unicode="&#x47e;" d="M72 671q0 328 81.5 513.5t224.5 185.5q63 0 107 -27t84 -86l-89 -87q-33 50 -78 50q-74 0 -115 -139t-41 -400q0 -262 41 -406t115 -144q84 0 140 127v411h150v-402q22 -58 53.5 -97t79.5 -39q75 0 116.5 146.5t41.5 403.5q0 260 -41 399.5t-115 139.5q-43 0 -78 -50 l-91 86q70 114 195 114q141 0 222.5 -186.5t81.5 -512.5q0 -327 -81 -509t-228 -182t-234 171q-84 -171 -234 -171q-153 0 -230.5 178t-77.5 513zM157 1769h914l-90 -195h-40l-47 101h-213l-47 -101h-40l-47 101h-213l-47 -101h-40z" />
<glyph unicode="&#x47f;" d="M-20 1082h183l267 -914l146 430l-137 484h183l224 -914q83 154 129 319.5t46 316.5q0 156 -48 278h167q50 -121 50 -263q0 -167 -72 -376.5t-212 -442.5h-160l-111 392l-135 -392h-170zM128 1409h914l-90 -195h-40l-47 101h-213l-47 -101h-40l-47 101h-213l-47 -101h-40z " />
<glyph unicode="&#x480;" d="M113 681q0 689 536 689q166 0 281.5 -81t184.5 -254l-168 -65q-37 113 -115.5 178.5t-181.5 65.5q-171 0 -253.5 -129t-82.5 -404q0 -273 85.5 -409.5t261.5 -136.5q65 0 110 15v-577h-191v412q-228 27 -347.5 207t-119.5 489z" />
<glyph unicode="&#x481;" d="M164 550q0 269 128 409.5t360 140.5q166 0 275.5 -86t137.5 -237l-185 -14q-14 90 -71 143t-162 53q-153 0 -224 -97.5t-71 -307.5q0 -209 76.5 -317.5t224.5 -108.5q61 0 107 18v-571h-180v415q-206 18 -311 163t-105 397z" />
<glyph unicode="&#x482;" d="M110 560l41 152l348 -94l77 277l-351 94l41 153l353 -95l126 451h159l-137 -491l352 -94l-41 -152l-353 94l-78 -277l356 -95l-41 -152l-357 96l-128 -459h-161l140 499z" />
<glyph unicode="&#x483;" horiz-adv-x="0" d="M-350 1263q0 50 36.5 80t89.5 30h347v20q0 56 33.5 86t79.5 30q50 0 83 -32t33 -84q0 -50 -36.5 -80t-89.5 -30h-347v-20q0 -56 -33.5 -86t-79.5 -30q-50 0 -83 32t-33 84z" />
<glyph unicode="&#x484;" horiz-adv-x="0" d="M-324 1232v143h105q52 0 96 16t86 36q97 46 167 46q99 0 150.5 -62.5t51.5 -183.5h-89q-2 74 -28.5 106t-79.5 32q-33 0 -66 -19t-71 -42q-116 -72 -220 -72h-102z" />
<glyph unicode="&#x485;" horiz-adv-x="0" d="M-97 1338v146h195v-186h-89q0 -94 78 -201h-119q-35 51 -50 108t-15 133z" />
<glyph unicode="&#x486;" horiz-adv-x="0" d="M-97 1298v186h195v-146q0 -74 -14 -128.5t-51 -112.5h-119q78 107 78 201h-89z" />
<glyph unicode="&#x487;" horiz-adv-x="0" d="M-557 1339q32 164 143.5 254.5t275.5 90.5q65 0 130.5 -21t192.5 -85q111 -57 196 -81.5t177 -24.5v-130q-102 0 -194.5 26.5t-193.5 82.5q-114 63 -182.5 86t-138.5 23q-118 0 -185.5 -54.5t-91.5 -166.5h-129z" />
<glyph unicode="&#x488;" horiz-adv-x="0" d="M-987 458q0 255 217 255t217 -255h-103q0 149 -114 149t-114 -149h-103zM-867 -98q0 255 217 255t217 -255h-103q0 149 -114 149t-114 -149h-103zM-867 964q0 255 217 255t217 -255h-103q0 149 -114 149t-114 -149h-103zM-227 -342q0 255 217 255t217 -255h-103 q0 149 -114 149t-114 -149h-103zM-227 1208q0 255 217 255t217 -255h-103q0 149 -114 149t-114 -149h-103zM433 -98q0 255 217 255t217 -255h-103q0 149 -114 149t-114 -149h-103zM433 964q0 255 217 255t217 -255h-103q0 149 -114 149t-114 -149h-103zM553 458 q0 255 217 255t217 -255h-103q0 149 -114 149t-114 -149h-103z" />
<glyph unicode="&#x489;" horiz-adv-x="0" d="M-917 501v100q88 -66 169 -66v75h155v-163h-122q-68 0 -114.5 13t-87.5 41zM-762 -74q108 15 166 73l-53 53l110 110l115 -116l-86 -86q-49 -48 -90.5 -71.5t-90.5 -33.5zM-718 1160l70 71q15 -109 72 -166l53 53l111 -110l-116 -115l-86 86q-48 48 -71.5 90t-32.5 91z M-94 -59h163v-122q0 -68 -13 -114.5t-41 -87.5h-100q66 88 66 168h-75v156zM-94 1187v122q0 68 13 114.5t41 87.5h100q-66 -88 -66 -168h75v-156h-163zM427 118l115 116l86 -87q48 -48 71.5 -90t33.5 -91l-71 -70q-15 109 -72 165l-53 -53zM440 1066l86 86q48 49 90 72 t91 33l71 -71q-110 -15 -167 -72l53 -54l-109 -109zM603 499v163h122q68 0 114.5 -13t87.5 -41v-100q-88 66 -169 66v-75h-155z" />
<glyph unicode="&#x48a;" d="M162 0v1349h172v-864q0 -130 -18 -274l528 1138h222v-1176h160l-188 -583h-172l138 410h-108v876q0 78 16 254l-520 -1130h-230zM242 1705h164q5 -77 51 -113t152 -36q105 0 151.5 36t51.5 113h164q-9 -260 -367 -260t-367 260z" />
<glyph unicode="&#x48b;" d="M185 0v1082h174v-592l-10 -277l499 869h197v-921h174l-194 -472h-172l141 311h-121v660q0 36 3.5 109t6.5 104l-506 -873h-192zM250 1520h164q12 -199 203 -199t203 199h164q-11 -320 -367 -320t-367 320z" />
<glyph unicode="&#x48c;" d="M4 997v147h158v205h191v-205h199v-147h-199v-214h322q242 0 369.5 -102t127.5 -288q0 -183 -127.5 -288t-357.5 -105h-525v997h-158zM353 151h307q164 0 242 56t78 180q0 121 -82 178.5t-246 57.5h-299v-472z" />
<glyph unicode="&#x48d;" d="M80 1168v131h122v185h180v-185h119v-131h-119v-544h268q205 0 310 -73.5t105 -232.5q0 -154 -108 -236t-306 -82h-449v1168h-122zM382 127h242q130 0 190 46t60 145q0 94 -58 137.5t-191 43.5h-243v-372z" />
<glyph unicode="&#x48e;" d="M162 0v1349h460q238 0 367.5 -106.5t129.5 -297.5q0 -153 -90 -267l119 -128l-107 -96l-121 130q-119 -70 -286 -70h-281v-514h-191zM353 665h254q118 0 196 45l-109 118l108 97l99 -108q26 57 26 125q0 254 -328 254h-246v-531z" />
<glyph unicode="&#x48f;" d="M172 1082h174q1 -4 3 -28.5t4.5 -75.5t2.5 -70h4q48 100 127 146.5t208 46.5q200 0 299 -134t99 -421q0 -277 -94 -417l98 -106l-100 -90l-94 101q-87 -54 -208 -54q-250 0 -336 188h-5q4 -8 4 -170v-423h-180v1286q0 167 -6 221zM358 528q0 -213 68 -314t221 -101 q88 0 144 42l-118 127l101 91l95 -104q35 98 35 273q0 226 -61 323t-194 97q-107 0 -167.5 -45t-92 -140.5t-31.5 -248.5z" />
<glyph unicode="&#x490;" d="M226 1v1348h736v356h180v-512h-725v-1192h-191z" />
<glyph unicode="&#x491;" d="M244 0v1082h623v402h163v-544h-606v-940h-180z" />
<glyph unicode="&#x492;" d="M55 598v147h169v604h891v-156h-700v-448h408v-147h-408v-598h-191v598h-169z" />
<glyph unicode="&#x493;" d="M143 514v132h122v436h785v-142h-605v-294h203v-132h-203v-514h-180v514h-122z" />
<glyph unicode="&#x494;" d="M174 0v1349h891v-156h-700v-311q58 37 132.5 57.5t148.5 20.5q240 0 355 -158.5t115 -492.5q0 -357 -124.5 -545.5t-361.5 -188.5q-166 0 -274 67t-166 219l181 30q43 -95 100.5 -131t159.5 -36q150 0 223 142.5t73 442.5q0 261 -72.5 379t-224.5 118q-63 0 -127.5 -17 t-137.5 -62v-727h-191z" />
<glyph unicode="&#x495;" d="M179 0v1082h609v-139h-429v-396q116 35 231 35q146 0 259.5 -58.5t175.5 -169.5t62 -262q0 -159 -58 -276.5t-163.5 -179t-244.5 -61.5q-177 0 -281 70t-150 213l178 13q30 -84 90.5 -121.5t162.5 -37.5q146 0 220.5 94.5t74.5 276.5q0 112 -42.5 194t-120.5 125t-176 43 q-116 0 -218 -32v-413h-180z" />
<glyph unicode="&#x496;" d="M0 0l314 719q-61 61 -104 158l-201 472h173l148 -386q41 -103 88.5 -152t115.5 -65v603h160v-603q68 16 115.5 65t88.5 152l148 386h173l-201 -472q-40 -92 -105 -157l245 -560h71v-568h-180v408h-6l-247 633q-7 -3 -45 -12.5t-57 -13.5v-607h-160v607q-10 1 -25.5 5 t-31.5 8t-28.5 7.5t-16.5 5.5l-247 -633h-185z" />
<glyph unicode="&#x497;" d="M1 0l335 608q-21 23 -51 63.5t-275 410.5h178l148 -239q65 -104 110 -152t91 -65v456h154v-456q48 18 92.5 66.5t108.5 150.5l148 239h178l-216 -325q-71 -106 -111 -149l263 -477h75v-539h-163v408h-24l-253 517q-14 -10 -44 -22.5t-54 -14.5v-480h-154v480 q-23 2 -53.5 14t-44.5 23l-253 -517h-185z" />
<glyph unicode="&#x498;" d="M67 328l165 77q119 -272 382 -272q153 0 241 69t88 186q0 121 -96 178.5t-298 57.5h-71v148h71q180 0 267 61t87 166q0 101 -76 158t-204 57q-127 0 -215 -60t-137 -187l-175 61q70 173 202 257t332 84q211 0 337.5 -97t126.5 -256q0 -118 -72 -197.5t-208 -112.5 q148 -22 235 -106.5t87 -208.5q0 -165 -111.5 -273.5t-302.5 -131.5q31 -124 31 -206q0 -95 -64 -150t-180 -55q-115 0 -198 34v135q89 -35 175 -35q129 0 129 127q0 80 -21 145q-196 5 -321 86.5t-206 260.5z" />
<glyph unicode="&#x499;" d="M138 234l159 44q26 -84 102 -124t207 -40q264 0 264 185q0 96 -108 148t-288 52v137q183 0 280.5 45t97.5 127q0 73 -58.5 116.5t-188.5 43.5q-124 0 -190 -35t-79 -109l-162 20q24 136 131 197t301 61q198 0 313.5 -77t115.5 -208q0 -65 -37 -118t-101.5 -87.5 t-134.5 -40.5v-2q128 -14 213.5 -87t85.5 -178q0 -125 -79 -205t-227 -106q33 -115 33 -198q0 -107 -59.5 -163.5t-179.5 -56.5q-103 0 -187 33v132q87 -34 165 -34q64 0 93.5 30.5t29.5 93.5q0 75 -22 151l-26 -1q-199 0 -309 61t-155 193z" />
<glyph unicode="&#x49a;" d="M168 0v1349h191v-589q185 0 324 210l251 379h202l-296 -430q-41 -60 -77 -101.5t-91 -82.5l398 -575h111v-568h-180v408h-42l-427 647q-25 -12 -79.5 -25t-93.5 -13v-609h-191z" />
<glyph unicode="&#x49b;" d="M218 0v1082h180v-474q113 0 187 47t148 158l180 269h194l-226 -325q-78 -111 -150 -163l300 -463h78v-539h-163v408h-34l-317 509q-34 -15 -89 -25t-108 -10v-474h-180z" />
<glyph unicode="&#x49c;" d="M168 0v1349h191v-589q54 0 107 18v429h115v-359q47 42 102 122l251 379h202l-296 -430q-41 -60 -77 -101.5t-91 -82.5l509 -735h-222l-378 573v-326h-115v378q-58 -16 -107 -16v-609h-191z" />
<glyph unicode="&#x49d;" d="M218 0v1082h180v-474q57 0 92 8v330h105v-285q66 44 138 152l180 269h194l-226 -325q-78 -111 -150 -163l385 -594h-204l-317 509v-349h-105v322q-44 -8 -92 -8v-474h-180z" />
<glyph unicode="&#x49e;" d="M4 1017v147h164v185h191v-185h183v-147h-183v-257q185 0 324 210l251 379h202l-296 -430q-41 -60 -77 -101.5t-91 -82.5l509 -735h-222l-427 647q-25 -12 -79.5 -25t-93.5 -13v-609h-191v1017h-164z" />
<glyph unicode="&#x49f;" d="M10 1206v131h208v146h180v-146h224v-131h-224v-598q113 0 187 47t148 158l180 269h194l-226 -325q-78 -111 -150 -163l385 -594h-204l-317 509q-34 -15 -89 -25t-108 -10v-474h-180v1206h-208z" />
<glyph unicode="&#x4a0;" d="M0 1193v156h435v-589q165 15 294 210l251 379h202l-296 -430q-41 -60 -77 -101.5t-91 -82.5l509 -735h-212l-437 647q-25 -12 -70 -23.5t-73 -14.5v-609h-191v1193h-244z" />
<glyph unicode="&#x4a1;" d="M60 943v139h475v-474q30 0 54 8t50 33.5t59 71.5t228 361h188l-216 -325q-93 -136 -128 -165l353 -592h-200l-278 497q-19 -8 -51.5 -14t-58.5 -6v-477h-180v943h-295z" />
<glyph unicode="&#x4a2;" d="M162 0v1349h191v-566h522v566h191v-1189h135v-568h-180v408h-146v623h-522v-623h-191z" />
<glyph unicode="&#x4a3;" d="M181 0v1082h180v-458h507v458h180v-951h121v-539h-163v408h-138v493h-507v-493h-180z" />
<glyph unicode="&#x4a4;" d="M132 0v1349h191v-566h472v566h434v-156h-243v-1193h-191v623h-472v-623h-191z" />
<glyph unicode="&#x4a5;" d="M142 0v1082h180v-458h433v458h474v-139h-294v-943h-180v493h-433v-493h-180z" />
<glyph unicode="&#x4a6;" d="M84 0v1349h611v-467q85 78 176 78q154 0 231 -157.5t77 -493.5q0 -370 -83 -552t-255 -182q-114 0 -192.5 71.5t-116.5 214.5l160 30q22 -80 56.5 -123.5t93.5 -43.5q93 0 133.5 136t40.5 449q0 262 -38 379.5t-117 117.5q-31 0 -57.5 -8.5t-48 -21.5t-60.5 -49v-727 h-164v1193h-283v-1193h-164z" />
<glyph unicode="&#x4a7;" d="M84 0v1083h611v-559q77 58 176 58q155 0 231.5 -115t76.5 -358q0 -268 -82.5 -401t-255.5 -133q-114 0 -192.5 71.5t-116.5 214.5l160 30q22 -80 56.5 -123.5t93.5 -43.5q92 0 133 90t41 301q0 175 -37.5 253.5t-117.5 78.5q-88 0 -166 -62v-385h-164v927h-283v-927h-164 z" />
<glyph unicode="&#x4a8;" d="M83 684q0 330 126 508t361 178q123 0 206 -54l-79 -132q-54 34 -127 34q-136 0 -211.5 -143t-75.5 -389q0 -288 86.5 -421.5t278.5 -133.5q37 0 116 17q-87 83 -137.5 226t-50.5 320q0 215 80.5 348t222.5 133q130 0 208 -137.5t78 -355.5q0 -171 -47 -313t-134 -227 q38 -16 86 -16q63 0 130 44l63 -130q-80 -60 -180 -60q-61 0 -107 13t-94 42q-106 -55 -269 -55q-530 0 -530 704zM747 700q0 -142 35 -266t97 -193q114 169 114 449q0 150 -32.5 243t-83.5 93q-61 0 -95.5 -90t-34.5 -236z" />
<glyph unicode="&#x4a9;" d="M130 527q0 270 114 421.5t317 151.5q82 0 146 -27l-64 -127q-42 20 -85 20q-109 0 -175.5 -121t-66.5 -318q0 -204 82 -313t236 -109l70 3q-68 78 -103.5 188.5t-35.5 227.5q0 178 73 291t191 113q121 0 192.5 -111t71.5 -289q0 -265 -138 -413l48 -3q68 0 116 39 l59 -116q-70 -55 -177 -55q-90 0 -172 37q-86 -37 -205 -37q-233 0 -363.5 144.5t-130.5 402.5zM729 527q0 -105 27 -201.5t74 -148.5q46 52 72.5 145t26.5 205q0 118 -27.5 186t-73.5 68q-47 0 -73 -69t-26 -185z" />
<glyph unicode="&#x4aa;" d="M113 681q0 689 536 689q166 0 281.5 -81t184.5 -254l-168 -65q-37 113 -115.5 178.5t-181.5 65.5q-171 0 -253.5 -129t-82.5 -404q0 -273 85.5 -409.5t261.5 -136.5q101 0 183 68.5t139 213.5l159 -65q-129 -321 -394 -364q31 -132 31 -208q0 -95 -64 -150t-180 -55 q-115 0 -198 34v135q89 -35 175 -35q129 0 129 127q0 80 -21 145h1q-247 13 -377.5 194.5t-130.5 505.5z" />
<glyph unicode="&#x4ab;" d="M130 542q0 270 129 415t373 145q179 0 297 -85.5t149 -237.5l-192 -14q-16 91 -80 143.5t-182 52.5q-158 0 -231.5 -98t-73.5 -317q0 -222 73.5 -324.5t230.5 -102.5q108 0 179 53t88 162l190 -12q-18 -129 -114 -220.5t-239 -113.5q33 -124 33 -193q0 -107 -59.5 -163.5 t-179.5 -56.5q-103 0 -187 33v132q87 -34 165 -34q64 0 93.5 30.5t29.5 93.5q0 80 -23 151q-227 9 -348 152t-121 409z" />
<glyph unicode="&#x4ac;" d="M76 1193v156h1076v-156h-443v-1033h140v-568h-177v408h-153v1193h-443z" />
<glyph unicode="&#x4ad;" d="M130 940v142h968v-142h-394v-809h116v-539h-163v408h-133v940h-394z" />
<glyph unicode="&#x4ae;" d="M36 1349h205l374 -611l372 611h205l-484 -765v-584h-188v584z" />
<glyph unicode="&#x4af;" d="M69 1082h202l268 -692q17 -43 69 -227l35 112q12 38 21.5 65.5t293.5 741.5h201l-459 -1082v-425h-180v425z" />
<glyph unicode="&#x4b0;" d="M36 1349h205l374 -611l372 611h205l-388 -613h316v-152h-412v-584h-188v584h-410v152h314z" />
<glyph unicode="&#x4b1;" d="M69 1082h202l268 -692q17 -43 69 -227l35 112q12 38 21.5 65.5t293.5 741.5h201l-459 -1082h318v-138h-318v-287h-180v287h-318v138h318z" />
<glyph unicode="&#x4b2;" d="M36 0l476 705l-435 644h205l332 -513l333 513h205l-435 -644l368 -545h136v-568h-180v408h-53l-374 573l-373 -573h-205z" />
<glyph unicode="&#x4b3;" d="M94 0l415 556l-397 526h199l300 -421l298 421h201l-397 -524l321 -427h100v-539h-163v408h-39l-321 444l-323 -444h-194z" />
<glyph unicode="&#x4b4;" d="M0 1193v156h707v-156h-258v-1033h392v1189h191v-1189h175v-585h-180v425h-769v1193h-258z" />
<glyph unicode="&#x4b5;" d="M8 942v140h694v-140h-257v-811h452v951h180v-951h147v-539h-163v408h-796v942h-257z" />
<glyph unicode="&#x4b6;" d="M95 785v564h190v-544q0 -231 234 -231q119 0 364 49v726h190v-1189h140v-568h-177v408h-153v478q-167 -37 -241.5 -47.5t-136.5 -10.5q-410 0 -410 365z" />
<glyph unicode="&#x4b7;" d="M154 671v411h180v-402q0 -78 50.5 -120t147.5 -42q71 0 157 16.5t152 35.5v512h180v-951h146v-539h-163v408h-163v466q-231 -91 -393 -91q-146 0 -220 79t-74 217z" />
<glyph unicode="&#x4b8;" d="M95 785v564h190v-544q0 -231 234 -231h3v498h123v-490q99 12 238 41v726h190v-1349h-190v478q-135 -32 -238 -47v-244h-123v233h-17q-410 0 -410 365z" />
<glyph unicode="&#x4b9;" d="M154 671v411h180v-402q0 -78 50 -120t147 -42v304h112v-296q109 17 198 44v512h180v-1082h-180v466q-100 -41 -198 -65v-219h-112v198q-35 -5 -83 -5q-146 0 -220 79t-74 217z" />
<glyph unicode="&#x4ba;" d="M162 0v1349h190v-478q167 37 241.5 47.5t136.5 10.5q206 0 308 -93.5t102 -271.5v-564h-190v544q0 231 -234 231q-119 0 -364 -49v-726h-190z" />
<glyph unicode="&#x4bb;" d="M185 0v1484h181v-390q0 -59 -9 -197h3q105 205 339 205q350 0 350 -381v-721h-181v695q0 136 -52.5 202t-167.5 66q-124 0 -203.5 -90.5t-79.5 -245.5v-627h-180z" />
<glyph unicode="&#x4bc;" d="M-23 851q0 58 17 117h157q-22 -59 -22 -109q0 -98 94 -110q14 306 139 463.5t352 157.5q489 0 489 -697v-80h-781q10 -231 82 -344t224 -113q96 0 162 42t116 128l145 -90q-81 -126 -183 -181t-245 -55q-245 0 -366.5 154t-134.5 459q-118 0 -181.5 65.5t-63.5 192.5z M422 747h583q-11 230 -81 349t-211 119q-142 0 -211 -112t-80 -356z" />
<glyph unicode="&#x4bd;" d="M1 739q0 61 17 123h167q-22 -59 -22 -109q0 -112 122 -112h6q20 225 136 343t314 118q447 0 447 -575v-24h-712q0 -188 69.5 -288t201.5 -100q97 0 163.5 43.5t90.5 122.5l158 -45q-93 -256 -421 -256q-211 0 -327 134t-123 390h-32q-255 0 -255 235zM478 641h523 q-14 171 -78 249.5t-185 78.5q-117 0 -186.5 -87.5t-73.5 -240.5z" />
<glyph unicode="&#x4be;" d="M-23 851q0 58 17 117h157q-22 -59 -22 -109q0 -98 94 -110q14 306 139 463.5t352 157.5q489 0 489 -697v-80h-781q10 -231 82 -344t224 -113q96 0 162 42t116 128l145 -90q-70 -108 -153 -162.5t-196 -68.5v-294h-134v291q-217 16 -325.5 170t-120.5 441 q-118 0 -181.5 65.5t-63.5 192.5zM422 747h583q-11 230 -81 349t-211 119q-142 0 -211 -112t-80 -356z" />
<glyph unicode="&#x4bf;" d="M1 739q0 61 17 123h167q-22 -59 -22 -109q0 -112 122 -112h6q20 225 136 343t314 118q447 0 447 -575v-24h-712q0 -188 69.5 -288t201.5 -100q97 0 163.5 43.5t90.5 122.5l158 -45q-83 -232 -351 -254v-292h-133v294q-371 41 -387 520h-32q-255 0 -255 235zM478 641h523 q-14 171 -78 249.5t-185 78.5q-117 0 -186.5 -87.5t-73.5 -240.5z" />
<glyph unicode="&#x4c0;" d="M202 0v156h316v1037h-316v156h823v-156h-316v-1037h316v-156h-823z" />
<glyph unicode="&#x4c1;" d="M0 0l314 719q-61 61 -104 158l-201 472h173l148 -386q41 -103 88.5 -152t115.5 -65v603h160v-603q68 16 115.5 65t88.5 152l148 386h173l-201 -472q-40 -92 -105 -157l315 -720h-185l-247 633l-16 -5l-86 -21v-607h-160v607l-25 6l-77 20l-247 -633h-185zM247 1765h164 q12 -199 203 -199t203 199h164q-11 -320 -367 -320t-367 320z" />
<glyph unicode="&#x4c2;" d="M1 0l335 608q-21 23 -51 63.5t-275 410.5h178l148 -239q65 -104 110 -152t91 -65v456h154v-456q48 18 92.5 66.5t108.5 150.5l148 239h178l-216 -325q-71 -106 -111 -149l336 -608h-185l-253 517q-12 -9 -39.5 -21t-58.5 -16v-480h-154v480q-30 4 -57.5 15.5t-40.5 21.5 l-253 -517h-185zM247 1520h164q12 -199 203 -199t203 199h164q-11 -320 -367 -320t-367 320z" />
<glyph unicode="&#x4c3;" d="M168 0v1349h191v-589q185 0 324 210l251 379h202l-296 -430q-78 -113 -155 -162l-33 -21q248 -19 394.5 -160t146.5 -387q0 -188 -66 -327t-187 -213t-277 -74q-176 0 -296 73.5t-176 217.5l179 30q42 -93 111.5 -132.5t180.5 -39.5q166 0 254.5 118t88.5 344 q0 214 -137.5 318.5t-430.5 104.5h-78v-609h-191z" />
<glyph unicode="&#x4c4;" d="M200 0v1082h180v-474q30 0 54 8t50 33.5t59 71.5t228 361h188l-216 -325q-84 -124 -122 -160q229 -22 358 -156.5t129 -348.5q0 -161 -57 -278t-162 -178t-247 -61q-177 0 -281 70t-150 213l178 13q30 -84 90.5 -121.5t162.5 -37.5q145 0 220 93t75 276q0 127 -55 216.5 t-152.5 136t-221.5 46.5h-128v-480h-180z" />
<glyph unicode="&#x4c5;" d="M-2 -6v152q19 -7 56 -7q77 0 121.5 66t80 217.5t73.5 446.5l61 480h667v-1176h169l-188 -583h-172l138 410h-133v1189h-318l-43 -338q-50 -395 -99 -563.5t-122 -236t-205 -67.5q-58 0 -86 10z" />
<glyph unicode="&#x4c6;" d="M11 -7v129q25 -9 68 -9q55 0 88.5 55t61 190t62.5 399l44 325h718v-921h170l-194 -472h-172l141 311h-126v951h-375q-59 -436 -91 -588.5t-69 -230.5t-91.5 -115t-140.5 -37q-50 0 -94 13z" />
<glyph unicode="&#x4c7;" d="M140 -139l181 30q43 -95 100.5 -131t159.5 -36q153 0 223.5 139.5t70.5 434.5v325h-522v-623h-191v1349h191v-566h522v566h191v-1040q0 -360 -122.5 -547t-363.5 -187q-166 0 -274 67t-166 219z" />
<glyph unicode="&#x4c8;" d="M191 0v1082h180v-458h487v458h180v-1019q0 -223 -111.5 -355.5t-308.5 -132.5q-179 0 -281.5 66.5t-136.5 217.5l178 13q19 -86 73 -123t161 -37q126 0 186 89t60 270v422h-487v-493h-180z" />
<glyph unicode="&#x4c9;" d="M162 0v1349h191v-566h522v566h191v-1176h160l-188 -583h-172l138 410h-129v623h-522v-623h-191z" />
<glyph unicode="&#x4ca;" d="M191 0v1082h180v-458h487v458h180v-921h187l-194 -472h-172l141 311h-142v493h-487v-493h-180z" />
<glyph unicode="&#x4cb;" d="M95 785v564h190v-544q0 -231 234 -231q119 0 364 49v726h190v-1349h-148v-408h-180v568h138v318q-167 -37 -241.5 -47.5t-136.5 -10.5q-410 0 -410 365z" />
<glyph unicode="&#x4cc;" d="M154 671v411h180v-402q0 -78 50.5 -120t147.5 -42q71 0 157 16.5t152 35.5v512h180v-1082h-125v-408h-163v539h108v335q-231 -91 -393 -91q-146 0 -220 79t-74 217z" />
<glyph unicode="&#x4cd;" d="M129 0v1349h237l185 -489q28 -81 68 -231l26 90q35 117 44 140l185 490h225v-1176h127l-188 -583h-172l138 410h-67v868l5 271l1 29l-11 -35q-46 -148 -84 -255l-164 -438h-137l-166 438l-58 171l-38 119l4 -300v-868h-160z" />
<glyph unicode="&#x4ce;" d="M102 0v1082h250l200 -641q53 -169 68 -306q22 159 68 306l200 641h239v-921h102l-194 -472h-172l141 311h-30v724l3 114l5 115l-285 -953h-153l-294 951q6 -156 6 -227v-724h-154z" />
<glyph unicode="&#x4cf;" d="M134 0v142h422v1200h-289v142h469v-1342h380v-142h-982z" />
<glyph unicode="&#x4d0;" d="M0 0l510 1349h217l501 -1349h-194l-138 382h-563l-137 -382h-196zM281 1694h117q17 -53 71.5 -83t145.5 -30t144.5 30.5t70.5 82.5h117q-21 -114 -111 -181.5t-223 -67.5t-223.5 69t-108.5 180zM384 531h463l-173 500l-58 174l-12 -39l-69 -212z" />
<glyph unicode="&#x4d1;" d="M128 302q0 349 454 354l236 4v59q0 131 -53 188.5t-169 57.5q-118 0 -170 -42t-62 -130l-188 17q46 292 423 292q200 0 300.5 -93.5t100.5 -270.5v-466q0 -80 21 -120.5t80 -40.5q26 0 59 7v-112q-68 -16 -139 -16q-100 0 -145.5 52.5t-51.5 164.5h-6 q-65 -121 -153.5 -174t-218.5 -53q-158 0 -238 86t-80 236zM282 1460h127q17 -63 60 -98t125 -35q85 0 127.5 35t59.5 98h127q-24 -119 -106.5 -189t-207.5 -70q-124 0 -207.5 71t-104.5 188zM317 299q0 -82 44.5 -132t130.5 -50q96 0 170 46t115 123t41 159v89l-190 -4 q-118 -2 -180 -26t-96.5 -73.5t-34.5 -131.5z" />
<glyph unicode="&#x4d2;" d="M0 0l510 1349h217l501 -1349h-194l-138 382h-563l-137 -382h-196zM335 1445v184h165v-184h-165zM384 531h463l-173 500l-58 174l-12 -39l-69 -212zM729 1445v184h163v-184h-163z" />
<glyph unicode="&#x4d3;" d="M128 302q0 349 454 354l236 4v59q0 131 -53 188.5t-169 57.5q-118 0 -170 -42t-62 -130l-188 17q46 292 423 292q200 0 300.5 -93.5t100.5 -270.5v-466q0 -80 21 -120.5t80 -40.5q26 0 59 7v-112q-68 -16 -139 -16q-100 0 -145.5 52.5t-51.5 164.5h-6 q-65 -121 -153.5 -174t-218.5 -53q-158 0 -238 86t-80 236zM317 299q0 -82 44.5 -132t130.5 -50q96 0 170 46t115 123t41 159v89l-190 -4q-118 -2 -180 -26t-96.5 -73.5t-34.5 -131.5zM319 1219v184h165v-184h-165zM713 1219v184h163v-184h-163z" />
<glyph unicode="&#x4d4;" d="M1 0l486 1349h667v-152h-337v-430h327v-150h-327v-465h378v-152h-549v412h-335l-142 -412h-168zM362 561h284v641h-73q-4 -16 -42.5 -146t-168.5 -495z" />
<glyph unicode="&#x4d5;" d="M20 302q0 349 330 354l167 4v59q0 135 -32 190.5t-104 55.5q-74 0 -107.5 -40.5t-40.5 -131.5l-168 17q19 151 96.5 221.5t218.5 70.5q176 0 247 -139q85 139 246 139q166 0 250.5 -141.5t84.5 -433.5v-24h-529v-17q5 -371 185 -371q75 0 119.5 47t60.5 119l138 -45 q-68 -256 -314 -256q-121 0 -189.5 55t-102.5 177q-52 -122 -126.5 -177t-171.5 -55q-129 0 -193.5 82t-64.5 240zM189 299q0 -82 28.5 -132t85.5 -50q64 0 112 44.5t75 120t27 163.5v89l-122 -4q-79 -2 -119.5 -26t-63.5 -74t-23 -131zM681 641h361q-9 171 -53 249.5 t-130 78.5q-82 0 -128.5 -87t-49.5 -241z" />
<glyph unicode="&#x4d6;" d="M162 0v1349h919v-156h-728v-422h668v-154h-668v-461h769v-156h-960zM301 1694h117q17 -53 71.5 -83t145.5 -30t144.5 30.5t70.5 82.5h117q-21 -114 -111 -181.5t-223 -67.5t-223.5 69t-108.5 180z" />
<glyph unicode="&#x4d7;" d="M133 548q0 267 124.5 410.5t359.5 143.5t356 -143t121 -432v-24h-772q0 -182 80.5 -285t220.5 -103q103 0 180.5 44.5t103.5 121.5l158 -45q-44 -124 -161.5 -190t-280.5 -66q-236 0 -363 147t-127 421zM311 1460h127q17 -63 60 -98t125 -35q85 0 127.5 35t59.5 98h127 q-24 -119 -106.5 -189t-207.5 -70q-124 0 -207.5 71t-104.5 188zM324 641h584q-28 328 -289 328q-134 0 -212 -87.5t-83 -240.5z" />
<glyph unicode="&#x4d8;" d="M103 677v80h821q-20 457 -326 457q-198 0 -298 -170l-145 90q76 117 184.5 176.5t263.5 59.5q522 0 522 -689q0 -337 -132.5 -519t-380.5 -182t-378.5 177t-130.5 520zM301 603q11 -232 90.5 -350t221.5 -118q291 0 311 468h-623z" />
<glyph unicode="&#x4d9;" d="M133 555v24h772q0 182 -80.5 285t-220.5 103q-103 0 -180.5 -44.5t-103.5 -121.5l-158 45q44 124 161.5 190t280.5 66q236 0 363 -147t127 -421q0 -267 -124.5 -410.5t-359.5 -143.5t-356 143t-121 432zM319 441q28 -328 289 -328q134 0 212 87.5t83 240.5h-584z" />
<glyph unicode="&#x4da;" d="M104 677v80h821q-20 457 -326 457q-198 0 -298 -170l-145 90q76 117 184.5 176.5t263.5 59.5q522 0 522 -689q0 -337 -132.5 -519t-380.5 -182t-378.5 177t-130.5 520zM302 603q11 -232 90.5 -350t221.5 -118q291 0 311 468h-623zM336 1486v184h165v-184h-165zM730 1486 v184h163v-184h-163z" />
<glyph unicode="&#x4db;" d="M133 555v24h772q0 182 -80.5 285t-220.5 103q-103 0 -180.5 -44.5t-103.5 -121.5l-158 45q44 124 161.5 190t280.5 66q236 0 363 -147t127 -421q0 -267 -124.5 -410.5t-359.5 -143.5t-356 143t-121 432zM319 441q28 -328 289 -328q134 0 212 87.5t83 240.5h-584z M336 1219v184h165v-184h-165zM730 1219v184h163v-184h-163z" />
<glyph unicode="&#x4dc;" d="M0 0l314 719q-61 61 -104 158l-201 472h173l148 -386q41 -103 88.5 -152t115.5 -65v603h160v-603q68 16 115.5 65t88.5 152l148 386h173l-201 -472q-40 -92 -105 -157l315 -720h-185l-247 633l-16 -5l-86 -21v-607h-160v607l-25 6l-77 20l-247 -633h-185zM336 1486v184 h165v-184h-165zM730 1486v184h163v-184h-163z" />
<glyph unicode="&#x4dd;" d="M1 0l335 608q-21 23 -51 63.5t-275 410.5h178l148 -239q65 -104 110 -152t91 -65v456h154v-456q48 18 92.5 66.5t108.5 150.5l148 239h178l-216 -325q-71 -106 -111 -149l336 -608h-185l-253 517q-12 -9 -39.5 -21t-58.5 -16v-480h-154v480q-30 4 -57.5 15.5t-40.5 21.5 l-253 -517h-185zM336 1219v184h165v-184h-165zM730 1219v184h163v-184h-163z" />
<glyph unicode="&#x4de;" d="M67 328l165 77q119 -272 382 -272q153 0 241 69t88 186q0 122 -96 179t-298 57h-71v148h71q180 0 267 61t87 166q0 101 -76 158t-204 57q-126 0 -214 -59t-138 -188l-175 61q70 173 202 257t332 84q211 0 337.5 -97t126.5 -256q0 -118 -72 -197.5t-208 -112.5 q148 -22 235 -106.5t87 -208.5q0 -121 -62.5 -214.5t-180.5 -145t-272 -51.5q-203 0 -336 81t-218 267zM342 1486v184h165v-184h-165zM736 1486v184h163v-184h-163z" />
<glyph unicode="&#x4df;" d="M138 234l159 44q26 -84 102 -124t207 -40q264 0 264 185q0 95 -105.5 147.5t-290.5 52.5v137q183 0 280.5 45t97.5 127q0 160 -247 160q-129 0 -193 -35.5t-76 -108.5l-162 20q24 137 131.5 197.5t300.5 60.5q198 0 313.5 -76.5t115.5 -208.5q0 -65 -36.5 -118 t-100.5 -86.5t-136 -41.5v-2q128 -14 213.5 -87t85.5 -178q0 -154 -118.5 -239t-340.5 -85q-197 0 -306 59.5t-158 194.5zM327 1219v184h165v-184h-165zM721 1219v184h163v-184h-163z" />
<glyph unicode="&#x4e0;" d="M77 328l165 77q119 -272 382 -272q153 0 241 80.5t88 215.5q0 133 -96 206.5t-298 73.5h-63v146l440 398h-810v156h1032v-165l-457 -399q206 -11 325.5 -121t119.5 -288q0 -131 -63.5 -235t-181.5 -162.5t-270 -58.5q-204 0 -336 80.5t-218 267.5z" />
<glyph unicode="&#x4e1;" d="M122 -48l178 12q19 -133 96 -192.5t213 -59.5q137 0 218 99.5t81 263.5q0 156 -91.5 246t-254.5 90h-82v144l393 386h-693v141h873v-176l-383 -362q196 -25 307.5 -150.5t111.5 -324.5q0 -139 -59 -253t-167 -177.5t-248 -63.5q-216 0 -343 95t-150 282z" />
<glyph unicode="&#x4e2;" d="M162 0v1349h172v-864q0 -130 -18 -274l528 1138h222v-1349h-170v876q0 82 16 254l-520 -1130h-230zM339 1503v127h551v-127h-551z" />
<glyph unicode="&#x4e3;" d="M185 0v1082h174v-592l-10 -277l499 869h197v-1082h-172v660q0 65 7 165l3 48l-506 -873h-192zM340 1235v127h549v-127h-549z" />
<glyph unicode="&#x4e4;" d="M162 0v1349h172v-864q0 -130 -18 -274l528 1138h222v-1349h-170v876q0 82 16 254l-520 -1130h-230zM336 1486v184h165v-184h-165zM730 1486v184h163v-184h-163z" />
<glyph unicode="&#x4e5;" d="M185 0v1082h174v-592l-10 -277l499 869h197v-1082h-172v660q0 65 7 165l3 48l-506 -873h-192zM336 1219v184h165v-184h-165zM730 1219v184h163v-184h-163z" />
<glyph unicode="&#x4e6;" d="M102 681q0 337 130 513t383 176q247 0 379 -173.5t132 -515.5q0 -337 -132.5 -519t-380.5 -182q-249 0 -380 179t-131 522zM303 681q0 -270 79 -408t232 -138q163 0 237 140t74 406q0 533 -310 533q-312 0 -312 -533zM336 1486v184h165v-184h-165zM730 1486v184h163v-184 h-163z" />
<glyph unicode="&#x4e7;" d="M130 542q0 279 126.5 419.5t358.5 140.5q244 0 363 -139t119 -421q0 -273 -125.5 -417.5t-362.5 -144.5q-232 0 -355.5 146t-123.5 416zM319 542q0 -210 72 -319.5t216 -109.5q159 0 230 107t71 322t-68.5 321t-221.5 106q-155 0 -227 -108t-72 -319zM336 1219v184h165 v-184h-165zM730 1219v184h163v-184h-163z" />
<glyph unicode="&#x4e8;" d="M102 681q0 345 132.5 517t380.5 172q247 0 379 -173.5t132 -515.5q0 -337 -132.5 -519t-380.5 -182q-249 0 -380 179t-131 522zM303 603q11 -232 90 -350t221 -118q291 0 311 468h-622zM303 757h622q-22 457 -310 457q-146 0 -223.5 -112.5t-88.5 -344.5z" />
<glyph unicode="&#x4e9;" d="M130 542q0 279 126.5 419.5t358.5 140.5q244 0 363 -139t119 -421q0 -273 -125.5 -417.5t-362.5 -144.5q-232 0 -355.5 146t-123.5 416zM320 494q7 -186 78.5 -283.5t208.5 -97.5q148 0 219.5 93t80.5 288h-587zM322 625h583q-12 173 -80.5 258.5t-206.5 85.5 t-210.5 -85.5t-85.5 -258.5z" />
<glyph unicode="&#x4ea;" d="M102 681q0 345 132.5 517t380.5 172q247 0 379 -173.5t132 -515.5q0 -337 -132.5 -519t-380.5 -182q-249 0 -380 179t-131 522zM303 603q11 -232 90 -350t221 -118q291 0 311 468h-622zM303 757h622q-22 457 -310 457q-146 0 -223.5 -112.5t-88.5 -344.5zM336 1486v184 h165v-184h-165zM730 1486v184h163v-184h-163z" />
<glyph unicode="&#x4eb;" d="M130 542q0 279 126.5 419.5t358.5 140.5q244 0 363 -139t119 -421q0 -273 -125.5 -417.5t-362.5 -144.5q-232 0 -355.5 146t-123.5 416zM320 494q7 -186 78.5 -283.5t208.5 -97.5q148 0 219.5 93t80.5 288h-587zM322 625h583q-12 173 -80.5 258.5t-206.5 85.5 t-210.5 -85.5t-85.5 -258.5zM336 1219v184h165v-184h-165zM730 1219v184h163v-184h-163z" />
<glyph unicode="&#x4ec;" d="M87 352l159 65q56 -144 138.5 -213t183.5 -69q162 0 248 116t97 358h-426v145h426q-10 226 -89.5 343t-244.5 117q-103 0 -181.5 -65.5t-115.5 -178.5l-168 65q68 173 184 254t282 81q536 0 536 -689q0 -339 -141.5 -520t-404.5 -181q-162 0 -283 90t-200 282zM322 1486 v184h165v-184h-165zM716 1486v184h163v-184h-163z" />
<glyph unicode="&#x4ed;" d="M124 322l190 12q15 -102 89 -158.5t188 -56.5q145 0 219 88t83 275h-382v131h382q-8 178 -82 263t-221 85q-118 0 -187 -52.5t-85 -143.5l-192 14q31 150 153.5 236.5t302.5 86.5q244 0 373 -145t129 -415q0 -274 -128.5 -418t-372.5 -144q-121 0 -221.5 44.5 t-162.5 123.5t-75 174zM329 1219v184h165v-184h-165zM723 1219v184h163v-184h-163z" />
<glyph unicode="&#x4ee;" d="M20 1349h215l417 -739l349 739h205l-532 -1031q-78 -152 -132 -216t-116.5 -93t-153.5 -29q-62 0 -129.5 19t-113.5 51l81 144q94 -59 166 -59q38 0 67 10t56 36.5t55.5 70.5t103.5 188zM339 1503v127h551v-127h-551z" />
<glyph unicode="&#x4ef;" d="M66 1082h192l264 -642q91 -224 98 -254l41 110l310 786h190l-456 -1082q-89 -235 -184.5 -330t-228.5 -95q-74 0 -124 11v135q38 -6 84 -6q79 0 148.5 59t117.5 188l18 49zM340 1235v127h549v-127h-549z" />
<glyph unicode="&#x4f0;" d="M20 1349h215l417 -739l349 739h205l-532 -1031q-78 -152 -132 -216t-116.5 -93t-153.5 -29q-62 0 -129.5 19t-113.5 51l81 144q94 -59 166 -59q38 0 67 10t56 36.5t55.5 70.5t103.5 188zM352 1486v184h165v-184h-165zM746 1486v184h163v-184h-163z" />
<glyph unicode="&#x4f1;" d="M66 1082h192l264 -642q91 -224 98 -254l41 110l310 786h190l-456 -1082q-89 -235 -184.5 -330t-228.5 -95q-74 0 -124 11v135q38 -6 84 -6q79 0 148.5 59t117.5 188l18 49zM336 1219v184h165v-184h-165zM730 1219v184h163v-184h-163z" />
<glyph unicode="&#x4f2;" d="M20 1349h215l417 -739l349 739h205l-532 -1031q-78 -152 -132 -216t-116.5 -93t-153.5 -29q-62 0 -129.5 19t-113.5 51l81 144q94 -59 166 -59q38 0 67 10t56 36.5t55.5 70.5t103.5 188zM343 1445v20l197 227h207v-29l-310 -218h-94zM690 1445v20l197 227h207v-29 l-310 -218h-94z" />
<glyph unicode="&#x4f3;" d="M66 1082h192l264 -642q91 -224 98 -254l41 110l310 786h190l-456 -1082q-89 -235 -184.5 -330t-228.5 -95q-74 0 -124 11v135q38 -6 84 -6q79 0 148.5 59t117.5 188l18 49zM322 1201v20l207 239h187v-29l-300 -230h-94zM686 1201v20l207 239h187v-29l-300 -230h-94z" />
<glyph unicode="&#x4f4;" d="M95 785v564h190v-544q0 -231 234 -231q119 0 364 49v726h190v-1349h-190v478q-167 -37 -241.5 -47.5t-136.5 -10.5q-206 0 -308 93.5t-102 271.5zM316 1486v184h165v-184h-165zM710 1486v184h163v-184h-163z" />
<glyph unicode="&#x4f5;" d="M154 671v411h180v-402q0 -78 50.5 -120t147.5 -42q117 0 309 52v512h180v-1082h-180v466q-231 -91 -393 -91q-146 0 -220 79t-74 217zM317 1219v184h165v-184h-165zM711 1219v184h163v-184h-163z" />
<glyph unicode="&#x4f6;" d="M224 0v1349h891v-156h-700v-1033h139v-568h-177v408h-153z" />
<glyph unicode="&#x4f7;" d="M265 0v1082h785v-142h-605v-809h116v-539h-163v408h-133z" />
<glyph unicode="&#x4f8;" d="M105 0v1349h171v-576h62q246 0 371.5 -100t125.5 -280q0 -183 -128.5 -288t-356.5 -105h-245zM276 141h77q165 0 242.5 62.5t77.5 187.5q0 242 -328 242h-69v-492zM336 1486v184h165v-184h-165zM730 1486v184h163v-184h-163zM952 0v1349h171v-1349h-171z" />
<glyph unicode="&#x4f9;" d="M106 0v1082h164v-458h155q205 0 310 -73.5t105 -232.5q0 -154 -108 -236t-306 -82h-320zM270 127h155q125 0 182.5 47t57.5 144q0 94 -56.5 137.5t-182.5 43.5h-156v-372zM336 1219v184h165v-184h-165zM730 1219v184h163v-184h-163zM958 0v1082h164v-1082h-164z" />
<glyph unicode="&#x4fa;" d="M55 609v147h169v593h891v-156h-700v-437h420v-147h-420v-454h89v-284q0 -296 -281 -296q-59 0 -132 16v160q50 -18 119 -18q123 0 123 148v119h-109v609h-169z" />
<glyph unicode="&#x4fb;" d="M123 -249q49 -18 111 -18q126 0 126 145v122h-95v514h-122v132h122v436h785v-142h-605v-294h203v-132h-203v-359h83v-284q0 -296 -281 -296q-51 0 -124 16v160z" />
<glyph unicode="&#x4fc;" d="M36 0l476 705l-435 644h205l332 -513l333 513h205l-435 -644l436 -643q76 -112 76 -225q0 -116 -80 -189t-208 -73q-59 0 -132 16v160q58 -21 119 -21q53 0 86.5 30t33.5 93q0 32 -19 75t-71 118l-344 527l-373 -573h-205z" />
<glyph unicode="&#x4fd;" d="M125 0l385 556l-367 526h199l270 -421l268 421h201l-367 -524l324 -463q86 -123 86 -247q0 -125 -72.5 -199t-192.5 -74q-59 0 -132 16v160q58 -21 114 -21q57 0 86 32.5t29 82.5q0 37 -18 82.5t-73 130t-253 386.5l-293 -444h-194z" />
<glyph unicode="&#x4fe;" d="M36 0l424 628h-350v152h351l-384 569h205l332 -513l333 513h205l-385 -569h350v-152h-348l424 -628h-205l-374 573l-373 -573h-205z" />
<glyph unicode="&#x4ff;" d="M125 0l336 486h-308v146h304l-314 450h199l270 -421l268 421h201l-315 -450h310v-146h-312l340 -486h-201l-291 444l-293 -444h-194z" />
<glyph unicode="&#x2000;" horiz-adv-x="1004" />
<glyph unicode="&#x2001;" horiz-adv-x="2009" />
<glyph unicode="&#x2002;" horiz-adv-x="1004" />
<glyph unicode="&#x2003;" horiz-adv-x="2009" />
<glyph unicode="&#x2004;" horiz-adv-x="669" />
<glyph unicode="&#x2005;" horiz-adv-x="502" />
<glyph unicode="&#x2006;" horiz-adv-x="334" />
<glyph unicode="&#x2007;" horiz-adv-x="334" />
<glyph unicode="&#x2008;" horiz-adv-x="251" />
<glyph unicode="&#x2009;" horiz-adv-x="401" />
<glyph unicode="&#x200a;" horiz-adv-x="111" />
<glyph unicode="&#x200c;" horiz-adv-x="0" d="M-42 -273v1560h84v-1560h-84z" />
<glyph unicode="&#x200d;" horiz-adv-x="0" d="M-224 1023l169 168l-169 167l55 56l169 -170l169 170l55 -56l-169 -167l169 -168l-55 -55l-127 128v-1369h-84v1369l-127 -128z" />
<glyph unicode="&#x200e;" horiz-adv-x="0" d="M-41 -273v1506h330l-132 125l55 56l223 -221l-223 -219l-55 55l132 125h-248v-1427h-82z" />
<glyph unicode="&#x200f;" horiz-adv-x="0" d="M-436 1193l223 221l55 -56l-132 -125h330v-1506h-82v1427h-248l132 -125l-55 -55z" />
<glyph unicode="&#x2010;" d="M334 464v160h560v-160h-560z" />
<glyph unicode="&#x2011;" d="M334 464v160h560v-160h-560z" />
<glyph unicode="&#x2012;" d="M170 451v137h888v-137h-888z" />
<glyph unicode="&#x2013;" d="M170 451v137h888v-137h-888z" />
<glyph unicode="&#x2014;" d="M-10 451v137h1248v-137h-1248z" />
<glyph unicode="&#x2015;" d="M-10 451v137h1248v-137h-1248z" />
<glyph unicode="&#x2017;" d="M-5 -124h1238v-96h-1238v96zM-5 -329h1238v-96h-1238v96z" />
<glyph unicode="&#x2018;" d="M397 862l311 622h123l-169 -622h-265z" />
<glyph unicode="&#x2019;" d="M399 862l169 622h265l-311 -622h-123z" />
<glyph unicode="&#x201a;" d="M349 -363l169 622h265l-311 -622h-123z" />
<glyph unicode="&#x201b;" d="M398 1484h265l169 -622h-123z" />
<glyph unicode="&#x201c;" d="M177 862l311 622h123l-169 -622h-265zM616 862l311 622h123l-169 -622h-265z" />
<glyph unicode="&#x201d;" d="M178 862l169 622h265l-311 -622h-123zM617 862l169 622h265l-311 -622h-123z" />
<glyph unicode="&#x201e;" d="M178 -364l169 622h265l-311 -622h-123zM617 -364l169 622h265l-311 -622h-123z" />
<glyph unicode="&#x201f;" d="M174 1484h265l169 -622h-123zM593 1484h265l169 -622h-123z" />
<glyph unicode="&#x2020;" d="M182 972v164l360 -19l-26 366h195l-26 -366l361 19v-164l-361 17l-14 -1202h-115l-14 1202z" />
<glyph unicode="&#x2021;" d="M182 134v164l360 -17l34 354l-34 354l-360 -17v164l360 -19l-26 366h195l-26 -366l361 19v-164l-361 17l-34 -354l34 -354l361 17v-164l-361 19l26 -366h-195l26 366z" />
<glyph unicode="&#x2022;" d="M336 682q0 115 81 194.5t193 79.5q115 0 198 -79.5t83 -194.5q0 -117 -83.5 -199t-197.5 -82q-111 0 -192.5 82t-81.5 199z" />
<glyph unicode="&#x2026;" d="M117 0v219h175v-219h-175zM529 0v219h172v-219h-172zM938 0v219h174v-219h-174z" />
<glyph unicode="&#x202a;" horiz-adv-x="0" d="M-41 -273v1506h476v-79h-393v-1427h-83z" />
<glyph unicode="&#x202b;" horiz-adv-x="0" d="M-435 1154v79h476v-1506h-83v1427h-393z" />
<glyph unicode="&#x202c;" horiz-adv-x="0" d="M-238 977v434h476v-434h-196v-1250h-84v1250h-196z" />
<glyph unicode="&#x202d;" horiz-adv-x="0" d="M-238 977v434h476v-79h-395v-277h395v-78h-196v-1250h-84v1250h-196z" />
<glyph unicode="&#x202e;" horiz-adv-x="0" d="M-238 977v78h395v277h-395v79h476v-434h-196v-1250h-84v1250h-196z" />
<glyph unicode="&#x202f;" horiz-adv-x="401" />
<glyph unicode="&#x2030;" d="M0 1115q0 148 57 222t179 74q117 0 172.5 -74.5t55.5 -221.5q0 -149 -59.5 -225t-172.5 -76q-116 0 -174 77t-58 224zM2 395l583 639h147l-585 -639h-145zM130 1115q0 -101 25 -144.5t79 -43.5q100 0 100 188q0 98 -22.5 143t-76.5 45q-57 0 -81 -43.5t-24 -144.5z M259 301q0 148 57 222t179 74q229 0 229 -296q0 -149 -59.5 -225t-172.5 -76q-115 0 -174 76t-59 225zM389 301q0 -95 24 -141.5t80 -46.5q51 0 76 44.5t25 143.5q0 101 -24 144.5t-76 43.5q-56 0 -80.5 -43t-24.5 -145zM764 301q0 148 57 222t179 74q117 0 172.5 -74.5 t55.5 -221.5q0 -149 -59.5 -225t-172.5 -76q-114 0 -173 76.5t-59 224.5zM894 301q0 -101 25 -144.5t79 -43.5q101 0 101 188q0 101 -24 144.5t-76 43.5q-57 0 -81 -43.5t-24 -144.5z" />
<glyph unicode="&#x2032;" d="M502 1484h224l-42 -639h-141z" />
<glyph unicode="&#x2033;" d="M277 1484h224l-42 -639h-141zM726 1484h224l-42 -639h-142z" />
<glyph unicode="&#x2034;" d="M166 1484h224l-42 -639h-141zM503 1484h224l-42 -639h-141zM841 1484h224l-42 -639h-141z" />
<glyph unicode="&#x2039;" d="M346 506v63l336 371h177v-31l-335 -372l337 -367v-29h-179z" />
<glyph unicode="&#x203a;" d="M366 141v29l338 367l-336 372v31h176l337 -371v-63l-337 -365h-178z" />
<glyph unicode="&#x203c;" d="M237 0v201h194v-201h-194zM239 1348h196l-24 -951h-148zM794 0v201h194v-201h-194zM796 1348h196l-24 -951h-148z" />
<glyph unicode="&#x203e;" d="M-5 1452v96h1238v-96h-1238z" />
<glyph unicode="&#x2044;" d="M204 0l703 1349h115l-700 -1349h-118z" />
<glyph unicode="&#x205e;" d="M517 0v219h195v-219h-195zM517 421v219h195v-219h-195zM517 844v219h195v-219h-195zM517 1265v219h195v-219h-195z" />
<glyph unicode="&#x205f;" horiz-adv-x="502" />
<glyph unicode="&#x206a;" horiz-adv-x="0" d="M-238 977v78h196v277h-196v79h476v-79h-196v-277h196v-78h-196v-1250h-84v1250h-196z" />
<glyph unicode="&#x206b;" horiz-adv-x="0" d="M-238 977v434h476v-434h-196v-1250h-84v1250h-196zM-157 1055h314v277h-314v-277z" />
<glyph unicode="&#x206c;" horiz-adv-x="0" d="M-240 1411h480l-198 -366v-1318h-84v1318z" />
<glyph unicode="&#x206d;" horiz-adv-x="0" d="M-240 977l240 441l240 -441h-198v-1250h-84v1250h-198z" />
<glyph unicode="&#x206e;" horiz-adv-x="0" d="M-239 1193l239 221l239 -221l-197 -181v-1285h-84v1285zM-126 1193l126 -112l126 112l-126 113z" />
<glyph unicode="&#x206f;" horiz-adv-x="0" d="M-238 977v78h196v277h-196v79h280v-356h196v-78h-196v-1250h-84v1250h-196z" />
<glyph unicode="&#x20a0;" d="M54 982q0 249 127 379.5t360 130.5q156 0 260 -72.5t140 -203.5l-181 -20q-45 155 -224 155q-157 0 -225.5 -88.5t-68.5 -276.5q0 -196 70 -288t223 -93v437h607v-139h-427v-299h388v-138h-388v-327h452v-139h-632v463q-242 2 -361.5 130t-119.5 389z" />
<glyph unicode="&#x20a1;" d="M113 681q0 320 117.5 492t347.5 193l35 118h142l-35 -118q83 -9 152 -43l48 161h142l-72 -246q77 -81 125 -203l-168 -65l-21 52l-260 -887q209 3 317 282l159 -65q-80 -193 -201 -282.5t-282 -89.5l-39 1l-27 -94h-142l34 116q-74 22 -144 72l-55 -188h-142l89 303 q-120 181 -120 491zM314 681q0 -103 11 -178l202 690q-112 -43 -162.5 -171.5t-50.5 -340.5zM399 271q49 -78 132 -113l292 997q-66 51 -148 58z" />
<glyph unicode="&#x20a2;" d="M113 681q0 689 536 689q166 0 281.5 -81t184.5 -254l-168 -65q-37 113 -115.5 178.5t-181.5 65.5q-171 0 -253.5 -129t-82.5 -404q0 -414 196 -513v421q0 114 -6 252h170q8 -184 8 -221h4q43 139 99 190t158 51q36 0 73 -10v-165q-36 10 -96 10q-112 0 -171 -96.5 t-59 -276.5v-187q191 20 293 281l159 -65q-80 -193 -201 -282.5t-282 -89.5q-263 0 -404.5 181t-141.5 520z" />
<glyph unicode="&#x20a3;" d="M34 259v129h175v961h891v-156h-700v-444h676v-158h-676v-203h391v-129h-391v-259h-191v259h-175z" />
<glyph unicode="&#x20a4;" d="M80 463v142h186v152h-186v141h186v76q0 195 103 295.5t299 100.5q147 0 247 -60.5t134 -169.5l-174 -57q-20 63 -75.5 101t-127.5 38q-114 0 -170 -57.5t-56 -182.5v-84h408v-141h-408v-152h408v-142h-408v-7q0 -215 -169 -303h483q174 0 203 176l163 -18 q-17 -150 -105 -230.5t-232 -80.5h-698v154q103 54 139 115.5t36 168.5v25h-186z" />
<glyph unicode="&#x20a5;" d="M99 1082h149l6 -127v-48h2q34 102 86.5 148.5t129.5 46.5q87 0 130.5 -47.5t62.5 -145.5l182 435h153l-101 -242h5q118 0 169 -86t51 -295v-721h-168v686q0 154 -24.5 215.5t-89.5 61.5h-1l-142 -343v-620h-168v216l-173 -416h-157l330 788v98q0 154 -24.5 215.5 t-89.5 61.5q-64 0 -103.5 -96t-39.5 -260v-607h-169v851q0 189 -6 231z" />
<glyph unicode="&#x20a6;" d="M25 409v155h137v231h-137v155h137v399h222l185 -399h325v399h172v-399h133v-155h-133v-231h133v-155h-133v-409h-230l-188 409h-316v-409h-170v409h-137zM316 1130l14 -180h69zM332 564h244l-106 231h-138v-231zM641 795l107 -231h146v231h-253zM820 409l92 -198 q-9 64 -16 198h-76z" />
<glyph unicode="&#x20a7;" d="M45 0v1349h210q327 0 327 -334q0 -165 -85 -263t-230 -98h-61v-654h-161zM206 795h64q75 0 112.5 57t37.5 160q0 100 -38.5 147t-119.5 47h-56v-411zM445 553v97h90l59 142h71v-142h149v-97h-149v-384q0 -78 68 -78q45 0 72 7v-97q-51 -11 -103 -11q-168 0 -168 161v402 h-89zM835 153l108 17q16 -88 77 -88q26 0 43 18.5t17 58.5q0 36 -22.5 67t-70.5 64q-77 52 -109.5 102.5t-32.5 106.5q0 79 47 122t134 43q70 0 114 -43t52 -115l-109 -12q-5 44 -22.5 61.5t-36.5 17.5q-55 0 -55 -73q0 -37 26.5 -65.5t77.5 -63.5q131 -89 131 -198 q0 -83 -48 -133t-138 -50q-74 0 -123 41.5t-60 121.5z" />
<glyph unicode="&#x20a8;" d="M24 0v1349h210q187 0 284.5 -97.5t97.5 -275.5q0 -133 -50 -223.5t-144 -125.5l238 -627h-196l-211 575h-56v-575h-173zM197 726h28q109 0 163 58.5t54 188.5q0 112 -51 167.5t-172 55.5h-22v-470zM617 248l147 31q19 -88 59 -126.5t103 -38.5q146 0 146 171 q0 50 -16.5 84t-50.5 60t-128 66q-90 36 -134 75.5t-67.5 96t-23.5 139.5q0 293 278 293q119 0 190.5 -67.5t87.5 -192.5l-150 -20q-20 146 -127 146q-125 0 -125 -151q0 -74 31.5 -112t140.5 -82q104 -42 150 -83t73 -101t27 -147q0 -153 -78.5 -231t-221.5 -78 q-130 0 -204.5 62.5t-106.5 205.5z" />
<glyph unicode="&#x20a9;" d="M0 409v155h122l-36 231h-86v155h62l-62 399h189l52 -399h748l50 399h189l-63 -399h64v-155h-88l-36 -231h124v-155h-148l-63 -409h-208l-110 409h-169l-112 -409h-208l-64 409h-147zM261 795l30 -231h136l64 231h-230zM310 409q21 -206 21 -241l56 241h-77zM570 564h91 l-31 128l-14 63zM740 795l63 -231h138l29 231h-230zM843 409l57 -241l23 241h-80z" />
<glyph unicode="&#x20aa;" d="M49 0v1227h361q173 0 269 -53t140.5 -169.5t44.5 -318.5v-264h-184v252q0 153 -24.5 232.5t-81.5 115t-168 35.5h-173v-1057h-184zM365 0v729h184v-559h176q111 0 167.5 35.5t80.5 117t24 230.5v674h185v-686q0 -203 -45.5 -320t-142 -169t-267.5 -52h-362z" />
<glyph unicode="&#x20ab;" d="M138 517q0 555 392 555q121 0 202.5 -43t130.5 -141h2l-2 151v157h-300v131h300v157h180v-157h131v-131h-131v-973q0 -169 6 -223h-172q-4 15 -7 73t-3 101h-5q-49 -105 -130 -152.5t-202 -47.5q-202 0 -297 135.5t-95 407.5zM170 -161h888v-137h-888v137zM324 523 q0 -215 59 -312.5t194 -97.5q147 0 216.5 103t69.5 322q0 207 -66.5 304t-217.5 97q-134 0 -194.5 -101.5t-60.5 -314.5z" />
<glyph unicode="&#x20ac;" d="M91 460v144h119l-4 75q0 43 4 79h-119v142h129q58 470 509 470q106 0 197 -26.5t182 -89.5l-82 -140q-138 100 -282 100q-164 0 -238 -72.5t-94 -243.5h461v-141h-475l-2 -78l3 -74h474v-142h-459q17 -172 94.5 -250t228.5 -78q75 0 144 21.5t166 82.5l76 -135 q-100 -67 -195 -95.5t-201 -28.5q-221 0 -348.5 120t-156.5 360h-131z" />
<glyph unicode="&#x20ad;" d="M1 623v160h161v566h191v-566h91l481 566h225l-499 -566h573v-160h-463l466 -623h-224l-476 623h-26l-148 -154v-469h-191v623h-161z" />
<glyph unicode="&#x20ae;" d="M76 1193v156h1076v-156h-443v-295l327 172v-159l-327 -170v-165l327 172v-159l-327 -170v-419h-190v320l-327 -169v154l327 171v166l-327 -169v154l327 171v395h-443z" />
<glyph unicode="&#x20af;" d="M0 131q0 58 32.5 92.5t84.5 34.5q51 0 100 -34l21 140q38 296 81 465t103 265q-79 -5 -158.5 -26t-119.5 -49v52q123 75 320 75q48 65 84 103.5t74 71.5l32 -22q-51 -61 -101 -153q148 -5 233 -143.5t85 -372.5q0 -177 -51.5 -326.5t-135.5 -226.5t-190 -77 q-64 0 -114 29t-106 89q-22 -50 -62.5 -84t-94.5 -34q-57 0 -87 33.5t-30 97.5zM50 130q0 -39 18.5 -57.5t47.5 -18.5q73 0 90 114q-40 34 -89 34q-67 0 -67 -72zM303 166q86 -96 178 -96q77 0 138.5 74.5t98.5 215t37 297.5q0 201 -59 319t-167 118q-81 -167 -148 -565 q-48 -272 -78 -363zM713 -326q35 91 56 203l74 361q23 123 70 176.5t126 53.5q83 0 133 -59.5t50 -160.5q0 -116 -52 -183.5t-144 -67.5q-35 0 -61.5 15.5t-54.5 45.5l-36 -206q-24 -129 -44 -178h-117zM934 229q0 -83 25.5 -127t68.5 -44q46 0 72 46.5t26 124.5 q0 85 -24.5 126.5t-67.5 41.5q-49 0 -74.5 -45t-25.5 -123z" />
<glyph unicode="&#x20b0;" d="M60 0l294 542l163 -298l173 324q-164 492 -164 636q0 128 78.5 204t206.5 76q126 0 201 -75t75 -203q0 -188 -232 -608l179 -618q23 -78 23 -142q0 -126 -77 -194.5t-217 -68.5q-72 0 -152 19v155q83 -34 152 -34q62 0 94 30t32 85q0 51 -18 117l-122 449l-225 -421 l-169 275l-127 -250h-168zM696 1220q0 -78 26.5 -205t67.5 -253q55 129 93 245t38 213q0 53 -31 88t-82 35q-48 0 -80 -33.5t-32 -89.5z" />
<glyph unicode="&#x20b1;" d="M25 750v133h137v98h-137v133h137v235h460q186 0 301 -63t163 -172h129v-133h-97l1 -18v-18q0 -32 -4 -62h100v-133h-141q-56 -113 -169.5 -174.5t-270.5 -61.5h-281v-514h-191v750h-137zM353 665h254q164 0 247 85h-501v-85zM353 883h568q6 28 6 59l-3 39h-571v-98z M353 1114h510q-82 82 -264 82h-246v-82z" />
<glyph unicode="&#x20b2;" d="M113 681q0 651 470 686v117h124v-118q141 -13 240 -92t156 -235l-171 -56q-69 195 -225 225v-503h394v-572q-109 -72 -206 -107t-188 -43v-195h-124v195q-225 21 -347.5 205t-122.5 493zM314 681q0 -484 269 -539v1067q-137 -21 -203 -147.5t-66 -380.5zM707 137 q54 6 109.5 25t98.5 47v336h-208v-408z" />
<glyph unicode="&#x20b3;" d="M0 362v149h201l84 225h-285v149h341l174 464h198l173 -464h343v-149h-287l84 -225h203v-149h-147l136 -362h-201l-128 362h-550l-128 -362h-201l135 362h-145zM392 511h445l-80 225h-285zM525 885h180q-46 130 -82 257l-8 27l-8 -28q-44 -148 -82 -256z" />
<glyph unicode="&#x20b4;" d="M15 434v149h142q34 45 81 76.5t106.5 55t213.5 64.5l112 29h-655v149h869q8 26 8 56q0 213 -283 213q-125 0 -197 -50.5t-96 -162.5l-188 33q44 176 156 250t324 74q225 0 347.5 -93.5t122.5 -266.5l-3 -53h139v-149h-198q-31 -40 -76 -69t-101 -51t-183 -55 q-144 -36 -184 -50h741v-149h-919q-10 -29 -10 -67q0 -114 82.5 -176t241.5 -62q149 0 236 59t115 187l185 -37q-74 -358 -531 -358q-249 0 -383.5 102.5t-134.5 287.5q0 34 4 64h-84z" />
<glyph unicode="&#x20b5;" d="M113 681q0 329 123 500.5t363 186.5v116h124v-118q276 -34 392 -331l-168 -65q-30 90 -89.5 153t-134.5 82v-1064q169 38 260 276l159 -65q-136 -335 -419 -368v-220h-124v219q-234 19 -360 198.5t-126 499.5zM314 681q0 -248 70 -383t215 -158v1071q-151 -20 -218 -154 t-67 -376z" />
<glyph unicode="&#x2122;" d="M4 1391v92h457v-92h-175v-549h-111v549h-171zM519 842v641h156l184 -465l13 -35l61 158l139 342h152v-641h-105v512l-6 -18l-200 -494h-89q-153 388 -200 512v-512h-105z" />
<glyph unicode="&#xe000;" horiz-adv-x="1080" d="M0 0v1080h1080v-1080h-1080z" />
<glyph unicode="&#xfb01;" d="M84 951v131h152v122q0 148 65 213t199 65q75 0 127 -12v-137q-45 8 -80 8q-69 0 -100 -35t-31 -127v-97h211v-131h-211v-951h-180v951h-152zM881 0v1082h180v-1082h-180zM881 1312v172h180v-172h-180z" />
<glyph unicode="&#xfb02;" d="M84 951v131h152v122q0 148 65 213t199 65q75 0 127 -12v-137q-45 8 -80 8q-69 0 -100 -35t-31 -127v-97h211v-131h-211v-951h-180v951h-152zM881 0v1484h180v-1484h-180z" />
</font>
</defs>
</svg>
