<?xml version="1.0" standalone="no"?>
<!DOCTYPE svg PUBLIC "-//W3C//DTD SVG 1.1//EN" "http://www.w3.org/Graphics/SVG/1.1/DTD/svg11.dtd" >
<svg xmlns="http://www.w3.org/2000/svg">
<metadata></metadata>
<defs>
<font id="liberation_monoitalic" horiz-adv-x="1229" >
<font-face units-per-em="2048" ascent="1638" descent="-410" />
<missing-glyph horiz-adv-x="500" />
<glyph />
<glyph />
<glyph unicode="&#xd;" />
<glyph unicode=" " />
<glyph unicode="!" d="M410 0l39 201h194l-39 -201h-194zM513 397l161 951h196l-209 -951h-148z" />
<glyph unicode="&#x22;" d="M377 845l83 639h224l-166 -639h-141zM825 845l84 639h224l-166 -639h-142z" />
<glyph unicode="#" d="M28 408l21 108h225l129 317h-241l21 108h263l168 408h110l-167 -408h363l167 408h110l-167 -408h211l-21 -108h-233l-129 -317h260l-21 -108h-283l-167 -408h-110l165 408h-363l-163 -408h-110l163 408h-201zM385 516h362l129 317h-360z" />
<glyph unicode="$" d="M35 379l177 37q0 -244 272 -258l95 489q-48 11 -127 36.5t-128 59t-78.5 82.5t-29.5 121q0 81 31.5 155t97.5 129t160.5 84t209.5 32l25 130h128l-25 -130q185 -7 272 -80t98 -241l-180 -33q-2 105 -53.5 159t-162.5 62l-83 -426q179 -46 248.5 -84.5t107.5 -95.5 t38 -142q0 -120 -63 -222t-187 -159t-293 -64l-31 -161h-128l31 161q-420 14 -422 359zM390 974q0 -60 43.5 -98.5t175.5 -73.5l80 413q-256 -11 -294 -197zM611 156q166 10 253.5 84.5t87.5 191.5q0 49 -23.5 83t-67.5 58t-158 54z" />
<glyph unicode="%" d="M-29 0l1195 1353h147l-1197 -1353h-145zM82 912q0 76 24.5 168.5t72 156.5t114 94t158.5 30q229 0 229 -220q0 -79 -23.5 -168.5t-71.5 -155.5t-114.5 -99.5t-155.5 -33.5q-233 0 -233 228zM229 922q0 -69 28.5 -97t81.5 -28q66 0 107.5 47t64.5 135t23 155q0 61 -25 90 t-80 29q-69 0 -110 -41.5t-65.5 -133t-24.5 -156.5zM603 216q0 76 24.5 167.5t71 155.5t113 95t159.5 31q230 0 230 -221q0 -114 -43 -226t-124.5 -171t-197.5 -59q-233 0 -233 228zM750 226q0 -69 28.5 -97t81.5 -28q65 0 107 46.5t64.5 133.5t22.5 156q0 68 -27.5 94 t-77.5 26q-69 0 -109.5 -42t-65 -132.5t-24.5 -156.5z" />
<glyph unicode="&#x26;" d="M-1 267q0 157 94.5 288t287.5 222q-29 85 -29 185q0 184 114.5 289.5t303.5 105.5q128 0 201.5 -57t73.5 -155q0 -83 -44.5 -152.5t-138.5 -130t-302 -140.5q90 -236 202 -389q122 179 204 406l136 -43q-88 -235 -252 -462q33 -54 76.5 -79.5t83.5 -25.5q57 0 98 16 l-26 -135q-52 -22 -117 -22q-71 0 -135 34t-104 95q-181 -137 -374 -137q-173 0 -263 75.5t-90 211.5zM170 302q0 -90 55 -140.5t161 -50.5q66 0 136 29.5t121 76.5q-139 202 -230 441q-116 -57 -179.5 -152.5t-63.5 -203.5zM501 981q0 -74 25 -149q169 66 219.5 94 t82.5 58.5t46.5 63.5t14.5 69q0 55 -38.5 87t-107.5 32q-106 0 -174 -65.5t-68 -189.5z" />
<glyph unicode="'" d="M602 845l83 639h224l-166 -639h-141z" />
<glyph unicode="(" d="M309 234q0 199 59.5 423t179 417.5t336.5 409.5h190q-211 -209 -332 -401.5t-183 -416.5t-62 -426q0 -169 48 -327t158 -338h-190q-105 167 -154.5 328t-49.5 331z" />
<glyph unicode=")" d="M148 -425q214 212 336 405.5t183 416.5t61 419q0 174 -52.5 338t-156.5 330h192q107 -170 155.5 -328t48.5 -324q0 -196 -60.5 -425.5t-179.5 -423t-335 -408.5h-192z" />
<glyph unicode="*" d="M368 1159l71 134l247 -107l45 297h136l-70 -295l284 103l19 -132l-296 -73l137 -250l-133 -72l-100 258l-206 -256l-105 72l237 248z" />
<glyph unicode="+" d="M116 608v146h424v428h147v-428h424v-146h-424v-428h-147v428h-424z" />
<glyph unicode="," d="M83 -363l298 662h265l-440 -662h-123z" />
<glyph unicode="-" d="M319 464l31 160h560l-31 -160h-560z" />
<glyph unicode="." d="M391 0l58 299h235l-58 -299h-235z" />
<glyph unicode="/" d="M5 -20l1113 1504h178l-1109 -1504h-182z" />
<glyph unicode="0" d="M121 411q0 153 48.5 354t132 337.5t199 202t277.5 65.5q193 0 287 -105t94 -316q0 -157 -47 -354t-134 -336.5t-205.5 -209t-270.5 -69.5q-191 0 -286 109.5t-95 321.5zM302 415q0 -148 57 -218t174 -70q105 0 182.5 57t133 172.5t92.5 295t37 295.5q0 144 -55 210.5 t-173 66.5q-149 0 -241.5 -101.5t-149.5 -325.5t-57 -382zM498 555l49 249h235l-49 -249h-235z" />
<glyph unicode="1" d="M52 0l28 145h439l199 1021q-53 -79 -202.5 -136.5t-283.5 -57.5l29 148q150 0 293.5 65t213.5 164h166l-234 -1204h353l-28 -145h-973z" />
<glyph unicode="2" d="M39 0l23 117q58 90 156 183.5t226 185.5t143 103q167 119 241.5 189.5t108.5 135t34 133.5q0 83 -58 129t-169 46q-109 0 -193.5 -59.5t-121.5 -178.5l-180 17q54 172 192 270.5t331 98.5q184 0 286 -73t102 -213q0 -72 -24 -140t-79 -140t-141 -145.5t-297 -217.5 q-132 -91 -213.5 -161.5t-121.5 -133.5h723l-28 -146h-940z" />
<glyph unicode="3" d="M92 325q0 28 1 37l190 17l-1 -21q0 -229 259 -229q103 0 180 36.5t120 107t43 144.5q0 89 -82.5 140.5t-220.5 51.5h-102l31 156h98q96 0 179.5 34.5t132.5 97t49 154.5q0 81 -55.5 126t-169.5 45q-119 0 -204.5 -61t-119.5 -172l-178 14q54 172 196 269.5t336 97.5 q188 0 287 -73t99 -206q0 -147 -100.5 -256.5t-264.5 -141.5l-1 -4q129 -15 203 -86.5t74 -176.5q0 -79 -40.5 -168t-113.5 -150.5t-176 -94.5t-229 -33q-206 0 -313 88t-107 257z" />
<glyph unicode="4" d="M60 319l27 140l808 890h199l-172 -888h188l-28 -142h-188l-62 -319h-180l62 319h-654zM242 461h500l134 693z" />
<glyph unicode="5" d="M84 315l186 21q16 -209 253 -209q106 0 192 49.5t135 142t49 179.5q0 103 -68.5 163.5t-188.5 60.5q-73 0 -139.5 -22.5t-141.5 -78.5h-176l188 728h801l-28 -145h-635l-112 -425q136 90 309 90q176 0 278.5 -90.5t102.5 -243.5q0 -141 -76 -275.5t-213.5 -207 t-309.5 -72.5q-198 0 -302 87t-104 248z" />
<glyph unicode="6" d="M147 413q0 158 52.5 351t141 328.5t210 206.5t265.5 71q318 0 347 -287l-179 -31q-10 91 -63.5 131.5t-134.5 40.5q-153 0 -265.5 -140.5t-160.5 -388.5q67 91 165 138.5t213 47.5q165 0 258 -88.5t93 -241.5q0 -103 -41 -213t-115 -190t-175.5 -124t-225.5 -44 q-189 0 -287 111t-98 322zM327 391q0 -122 62 -194t165 -72q98 0 177 51.5t124.5 145.5t45.5 198q0 106 -61 164t-172 58q-88 0 -169.5 -45t-126.5 -120.5t-45 -185.5z" />
<glyph unicode="7" d="M287 1204l28 145h911l-27 -139q-315 -356 -486 -652t-222 -558h-188q52 263 232.5 567t488.5 637h-737z" />
<glyph unicode="8" d="M92 291q0 105 47 194t129 148t178 74l1 4q-90 22 -141.5 88.5t-51.5 161.5q0 109 67 204.5t185.5 150t264.5 54.5q183 0 285.5 -76.5t102.5 -207.5t-91.5 -239t-224.5 -134l-1 -4q106 -17 167 -85t61 -171q0 -87 -40 -179.5t-113 -158t-176.5 -100.5t-235.5 -35 q-196 0 -304.5 80.5t-108.5 230.5zM282 316q0 -201 251 -201q117 0 195 44t117.5 130t39.5 162q0 95 -66 144t-189 49q-105 0 -185.5 -43t-121.5 -119.5t-41 -165.5zM437 958q0 -87 56 -133t165 -46q108 0 181 42t102 115.5t29 131.5q0 168 -225 168q-96 0 -167 -35.5 t-106 -102t-35 -140.5z" />
<glyph unicode="9" d="M118 274l178 27q19 -176 203 -176q151 0 265.5 137t165.5 388q-57 -89 -164 -144t-224 -55q-158 0 -249.5 92t-91.5 253q0 108 40.5 217.5t116.5 189.5t182 123.5t231 43.5q375 0 375 -415q0 -160 -49.5 -353.5t-141 -335.5t-215 -214t-272.5 -72q-166 0 -251.5 70 t-98.5 224zM387 826q0 -111 60 -172t165 -61q90 0 175 47.5t131 124.5t46 195q0 122 -60.5 193t-166.5 71q-99 0 -178.5 -52t-125.5 -148.5t-46 -197.5z" />
<glyph unicode=":" d="M391 0l58 299h235l-58 -299h-235zM543 783l58 299h235l-58 -299h-235z" />
<glyph unicode=";" d="M176 -363l298 662h265l-440 -662h-123zM543 783l58 299h235l-58 -299h-235z" />
<glyph unicode="&#x3c;" d="M116 571v205l995 418v-154l-858 -366l858 -367v-153z" />
<glyph unicode="=" d="M116 344v148h995v-148h-995zM116 856v148h995v-148h-995z" />
<glyph unicode="&#x3e;" d="M116 154v153l858 367l-858 366v154l995 -418v-205z" />
<glyph unicode="?" d="M176 960q62 194 215 302t364 108q197 0 306.5 -76.5t109.5 -215.5q0 -71 -27 -146.5t-93 -146t-175 -134.5q-138 -82 -200.5 -147t-80.5 -147h-175q24 105 94 187.5t194 157.5q149 90 212.5 166t63.5 174q0 87 -67.5 132.5t-188.5 45.5q-134 0 -233 -72.5t-138 -199.5z M343 0l39 201h195l-39 -201h-195z" />
<glyph unicode="@" d="M11 249q0 195 69.5 438t185.5 422.5t267.5 277t321.5 97.5q192 0 296 -131.5t104 -365.5q0 -185 -67 -408.5t-170.5 -349t-218.5 -125.5q-117 0 -117 108q0 26 5 49l9 38h-6q-49 -87 -122.5 -141t-150.5 -54q-81 0 -123.5 59.5t-42.5 172.5q0 167 76.5 355.5t191.5 299 t234 110.5q145 0 150 -173h5l62 151h116l-198 -507q-61 -161 -79.5 -222t-18.5 -96q0 -48 36 -48q69 0 137.5 115t117.5 306t49 333q0 192 -78.5 300t-220.5 108q-132 0 -253 -84t-219 -243t-158.5 -375.5t-60.5 -392.5q0 -207 85 -322.5t242 -115.5q91 0 183 33.5 t217 124.5l54 -87q-140 -102 -255.5 -145.5t-231.5 -43.5q-203 0 -313 142t-110 390zM385 339q0 -129 77 -129q52 0 108 49.5t107.5 141t102.5 240t51 228.5q0 65 -25.5 97.5t-70.5 32.5q-76 0 -154.5 -95.5t-137 -263t-58.5 -301.5z" />
<glyph unicode="A" d="M-105 0l772 1349h217l239 -1349h-194l-64 382h-563l-211 -382h-196zM382 531h463l-76 500l-24 174q-46 -91 -82.5 -161t-280.5 -513z" />
<glyph unicode="B" d="M57 0l262 1349h412q440 0 440 -258q0 -87 -41 -169t-117.5 -136.5t-177.5 -74.5q146 -17 219.5 -87.5t73.5 -177.5q0 -82 -38.5 -167t-118.5 -149.5t-194 -97t-248 -32.5h-472zM278 153h266q175 0 269 60.5t118 183.5l5 49q0 185 -313 185h-252zM400 780h225 q298 0 342 218l5 46q0 81 -67.5 116.5t-201.5 35.5h-223z" />
<glyph unicode="C" d="M116 447q0 165 52 355t140.5 315t214.5 189t287 64q335 0 401 -335l-180 -65q-18 119 -84 181.5t-166 62.5q-108 0 -189.5 -51t-140 -154t-97 -266.5t-38.5 -290.5q0 -317 266 -317q103 0 200 71.5t177 210.5l146 -65q-223 -372 -555 -372q-212 0 -323 118.5t-111 348.5z " />
<glyph unicode="D" d="M57 0l262 1349h311q545 0 545 -459q0 -158 -54 -335t-152 -301.5t-235 -189t-307 -64.5h-370zM278 156h162q128 0 225.5 48.5t166.5 146.5t109 246t40 268q0 173 -94.5 250.5t-285.5 77.5h-121z" />
<glyph unicode="E" d="M57 0l262 1349h919l-30 -156h-728l-82 -422h668l-30 -154h-668l-90 -461h769l-30 -156h-960z" />
<glyph unicode="F" d="M89 0l262 1349h891l-30 -156h-700l-96 -494h676l-31 -158h-676l-105 -541h-191z" />
<glyph unicode="G" d="M116 451q0 161 53 353.5t140 316.5t210 186.5t284 62.5q344 0 397 -331l-182 -56q-36 231 -243 231q-107 0 -186.5 -49.5t-136.5 -149.5t-96.5 -266.5t-39.5 -293.5q0 -320 260 -320q68 0 144.5 21t130.5 53l65 336h-293l31 160h479l-111 -572q-255 -153 -492 -153 q-199 0 -306.5 120.5t-107.5 350.5z" />
<glyph unicode="H" d="M57 0l262 1349h191l-110 -566h522l110 566h191l-262 -1349h-191l121 623h-522l-121 -623h-191z" />
<glyph unicode="I" d="M97 0l30 156h316l202 1037h-316l30 156h823l-30 -156h-316l-202 -1037h316l-30 -156h-823z" />
<glyph unicode="J" d="M139 341v9l193 31v-19q0 -112 46 -169.5t130 -57.5q209 0 264 281l151 777h-311l30 156h501l-180 -929q-39 -205 -166.5 -322.5t-319.5 -117.5q-169 0 -253.5 87t-84.5 274z" />
<glyph unicode="K" d="M57 0l262 1349h191l-131 -673l703 673h225l-615 -572l430 -777h-224l-359 641l-200 -172l-91 -469h-191z" />
<glyph unicode="L" d="M132 0l262 1349h191l-232 -1193h672l-30 -156h-863z" />
<glyph unicode="M" d="M24 0l262 1349h237l90 -489q12 -57 23 -231l43 90l72 140l280 490h225l-262 -1349h-162l169 868q25 126 64 301l-55 -108l-96 -183l-249 -438h-137l-81 438q-15 73 -40 291l-54 -301l-169 -868h-160z" />
<glyph unicode="N" d="M57 0l262 1349h222l307 -1138q12 155 35 274l168 864h172l-262 -1349h-230l-300 1130q-15 -161 -34 -254l-170 -876h-170z" />
<glyph unicode="O" d="M102 430q0 160 49.5 351t137 323.5t209.5 199t278 66.5q198 0 301 -110.5t103 -331.5q0 -155 -49 -346t-139 -327.5t-214 -205.5t-274 -69q-202 0 -302 116.5t-100 333.5zM304 446q0 -311 231 -311q100 0 176 52t134.5 164t95.5 277.5t37 284.5q0 301 -232 301 q-136 0 -231.5 -99.5t-153 -301.5t-57.5 -367z" />
<glyph unicode="P" d="M57 0l262 1349h460q208 0 318 -81.5t110 -232.5q0 -136 -74.5 -259t-207 -192.5t-296.5 -69.5h-281l-100 -514h-191zM377 665h254q114 0 201.5 44t133 124t45.5 169q0 194 -285 194h-246z" />
<glyph unicode="Q" d="M102 430q0 160 49.5 351t137 323.5t209.5 199t278 66.5q198 0 301 -110.5t103 -331.5q0 -133 -39 -304.5t-110 -303.5t-170 -214t-221 -110q17 -126 73 -183t157 -57q55 0 117 13l-26 -134q-98 -22 -182 -22q-151 0 -232 86t-104 285q-171 17 -256 132t-85 314zM304 446 q0 -311 231 -311q100 0 176 52t134.5 164t95.5 277.5t37 284.5q0 301 -232 301q-136 0 -231.5 -99.5t-153 -301.5t-57.5 -367z" />
<glyph unicode="R" d="M57 0l262 1349h482q209 0 311.5 -76t102.5 -213q0 -104 -51.5 -205t-150.5 -169.5t-225 -88.5l284 -597h-220l-254 575h-238l-112 -575h-191zM389 726h280q111 0 191 39.5t119 112t39 148.5q0 170 -266 170h-272z" />
<glyph unicode="S" d="M40 338l192 37q2 -127 78 -186.5t225 -59.5q159 0 253.5 61.5t116.5 176.5l5 45q0 56 -30.5 93t-84.5 62.5t-210 65.5q-145 40 -200 67t-88.5 60t-51 75t-17.5 97q0 86 36 170.5t107.5 145.5t174.5 91.5t230 30.5q214 0 311 -75t106 -249l-194 -33q-2 111 -63 162 t-189 51q-281 0 -324 -213l-4 -41q0 -47 23.5 -77t63.5 -50.5t93 -35t112 -30.5q178 -48 246.5 -86t107.5 -94.5t39 -143.5q0 -96 -41 -187.5t-118.5 -155t-188.5 -98t-255 -34.5q-457 0 -461 358z" />
<glyph unicode="T" d="M203 1193l30 156h1076l-30 -156h-443l-232 -1193h-190l232 1193h-443z" />
<glyph unicode="U" d="M110 301q0 77 19 171l170 877h191l-165 -851q-20 -102 -20 -170q0 -102 50.5 -147.5t169.5 -45.5q161 0 241.5 82t122.5 294l163 838h190l-167 -859q-52 -266 -189 -388t-390 -122q-201 0 -293.5 77.5t-92.5 243.5z" />
<glyph unicode="V" d="M167 1349h201l145 -902q14 -89 30 -279l44 93l94 186l493 902h201l-767 -1349h-198z" />
<glyph unicode="W" d="M106 0l51 1349h189l-53 -835q-13 -165 -34 -346q82 195 132.5 307t212.5 456h175q22 -277 33.5 -425.5t15.5 -337.5l102 346l266 835h189l-472 -1349h-208l-32 432q-5 59 -15 324q-33 -80 -82.5 -191.5t-261.5 -564.5h-208z" />
<glyph unicode="X" d="M-69 0l613 705l-310 644h205l233 -513l432 513h205l-560 -644l339 -705h-205l-263 573l-484 -573h-205z" />
<glyph unicode="Y" d="M193 1349h205l255 -611l491 611h205l-632 -765l-114 -584h-188l114 584z" />
<glyph unicode="Z" d="M-32 0l28 143l1022 1050h-745l30 156h962l-27 -139l-1023 -1054h865l-30 -156h-1082z" />
<glyph unicode="[" d="M222 -425l371 1909h547l-27 -139h-367l-317 -1631h367l-27 -139h-547z" />
<glyph unicode="\" d="M298 1484h178l529 -1504h-182z" />
<glyph unicode="]" d="M82 -425l27 139h367l317 1631h-367l27 139h547l-371 -1909h-547z" />
<glyph unicode="^" d="M114 442l554 907h203l204 -907h-154l-173 803l-482 -803h-152z" />
<glyph unicode="_" d="M-153 -220l19 96h1238l-19 -96h-1238z" />
<glyph unicode="`" d="M575 1431l6 29h197l180 -239l-4 -20h-124z" />
<glyph unicode="a" d="M73 213q0 41 9 89q68 349 523 354l236 4q17 81 19.5 102.5t2.5 45.5q0 85 -46 121t-138 36q-116 0 -175.5 -39.5t-90.5 -132.5l-185 17q54 149 172.5 220.5t307.5 71.5q340 0 340 -267q0 -45 -10 -97l-90 -466q-9 -43 -9 -76q0 -42 18 -63.5t61 -21.5q27 0 60 7l-22 -112 q-70 -16 -142 -16q-87 0 -123.5 38t-36.5 114l5 65h-6q-89 -122 -188.5 -174.5t-227.5 -52.5q-133 0 -198.5 62t-65.5 171zM265 251q0 -62 36.5 -98t108.5 -36q95 0 178 45.5t139 122.5t72 160l18 89l-191 -4q-135 -2 -209.5 -35.5t-113 -100t-38.5 -143.5z" />
<glyph unicode="b" d="M74 0q5 15 19.5 82t29.5 141l245 1261h180l-82 -423l-34 -157h4q130 200 373 200q306 0 306 -343q0 -93 -24 -215q-55 -284 -184 -425t-318 -141q-244 0 -298 184h-2q-8 -44 -23 -100.5t-18 -63.5h-174zM343 351q0 -123 54 -180.5t168 -57.5q120 0 196.5 81.5t120.5 248 t44 293.5q0 120 -47.5 174.5t-145.5 54.5q-126 0 -210 -79t-132 -241.5t-48 -293.5z" />
<glyph unicode="c" d="M112 369q0 127 41.5 270.5t124 249.5t199 159.5t264.5 53.5q181 0 282 -86.5t101 -236.5l-194 -14v6q0 86 -53 138t-171 52q-134 0 -221 -70.5t-135.5 -225.5t-48.5 -293q0 -131 60 -192t180 -61q108 0 189.5 53t119.5 162l188 -12q-32 -96 -106.5 -174.5t-181 -123 t-228.5 -44.5q-203 0 -306.5 99t-103.5 290z" />
<glyph unicode="d" d="M112 311q0 97 24 221q111 566 502 566q121 0 194.5 -43t103.5 -141h2l21 120l87 450h180l-245 -1261q-32 -179 -37 -223h-172v4q0 43 24 170h-5q-69 -105 -159.5 -152.5t-211.5 -47.5q-158 0 -233 83.5t-75 253.5zM301 337q0 -117 46.5 -170.5t146.5 -53.5 q127 0 210.5 79t132.5 244.5t49 291.5q0 121 -54 179t-170 58q-87 0 -149 -40.5t-106.5 -126.5t-75 -225t-30.5 -236z" />
<glyph unicode="e" d="M116 370q0 124 40 268.5t120 250t193 159.5t257 54q386 0 386 -379q0 -91 -21 -196l-4 -24h-772q-13 -69 -13 -121q0 -129 62.5 -198t175.5 -69q102 0 188.5 44t128.5 122l149 -45q-69 -124 -198.5 -190t-293.5 -66q-194 0 -296 100.5t-102 289.5zM344 641h584l4 72 q0 256 -230 256q-133 0 -227.5 -87t-130.5 -241z" />
<glyph unicode="f" d="M216 940l27 142h262l5 25q40 204 152.5 290.5t338.5 86.5q70 0 152 -6.5t125 -14.5l-28 -145q-29 5 -121 11t-136 6q-105 0 -162 -23t-91.5 -75.5t-54.5 -154.5h491l-27 -142h-491l-183 -940h-180l183 940h-262z" />
<glyph unicode="g" d="M79 -157l189 25q2 -75 51 -115.5t141 -40.5q250 0 309 315l38 194h-2q-141 -209 -384 -209q-156 0 -228.5 78.5t-72.5 237.5q0 124 40 291.5t106 271t161.5 156t224.5 52.5q113 0 186 -52.5t99 -149.5h3q7 37 25 106.5t23 78.5h171l-19 -82l-30 -142l-161 -826 q-44 -227 -172 -341.5t-349 -114.5q-169 0 -257 69t-92 198zM308 355q0 -110 46.5 -160t153.5 -50q80 0 150.5 43t122.5 123.5t79 189t27 196.5q0 126 -56.5 197t-159.5 71q-90 0 -153 -39t-107 -122t-73.5 -220.5t-29.5 -228.5z" />
<glyph unicode="h" d="M80 0l288 1484h181l-75 -390q-11 -56 -48 -197h3q67 95 158.5 150t220.5 55q289 0 289 -259q0 -57 -13 -122l-140 -721h-181l135 695q11 58 11 98q0 88 -43.5 129t-135.5 41q-124 0 -220.5 -90.5t-127.5 -245.5l-122 -627h-180z" />
<glyph unicode="i" d="M38 0l28 142h422l155 798h-319l27 142h499l-182 -940h380l-28 -142h-982zM691 1292l37 192h200l-37 -192h-200z" />
<glyph unicode="j" d="M-62 -382l27 140q143 -34 266 -34q127 0 209 65.5t106 185.5l188 965h-407l27 142h587l-215 -1110q-36 -186 -169 -291.5t-340 -105.5q-79 0 -157.5 13t-121.5 30zM782 1292l37 192h200l-37 -192h-200z" />
<glyph unicode="k" d="M131 0l288 1484h180l-180 -927l577 525h211l-529 -465l342 -617h-211l-269 499l-151 -98l-78 -401h-180z" />
<glyph unicode="l" d="M29 0l28 142h422l233 1200h-289l27 142h469l-260 -1342h380l-28 -142h-982z" />
<glyph unicode="m" d="M0 0l165 851q7 34 13.5 71.5t12 71t9.5 57.5t4 31h149l-19 -127l-9 -48h2q57 107 118 151t136 44q88 0 122 -47.5t34 -142.5v-6h2q61 106 125.5 151t148.5 45q88 0 128 -46t40 -146q0 -75 -22 -189l-140 -721h-168l133 686q22 110 22 171q0 59 -20 82.5t-62 23.5 q-65 0 -120.5 -84.5t-87.5 -251.5l-122 -627h-168l133 686q22 110 22 171q0 59 -20 82.5t-62 23.5q-63 0 -121 -94t-91 -262l-118 -607h-169z" />
<glyph unicode="n" d="M80 0l165 851q7 34 13.5 71.5t12 71t9.5 57.5t4 31h170q0 -6 -8 -67.5t-20 -117.5h3q68 95 161 150t225 55q283 0 283 -254q0 -57 -14 -127l-140 -721h-181l135 695q11 58 11 98q0 88 -43.5 129t-135.5 41q-124 0 -220.5 -90.5t-127.5 -245.5l-122 -627h-180z" />
<glyph unicode="o" d="M112 367q0 79 18 175q55 279 208.5 419.5t385.5 140.5q199 0 296 -92t97 -278q0 -135 -42 -284.5t-123 -255.5t-196 -159t-256 -53q-188 0 -288 98.5t-100 288.5zM301 373q0 -260 223 -260q101 0 172 41.5t122.5 128.5t80.5 215.5t29 221.5q0 125 -54.5 187t-172.5 62 q-132 0 -218.5 -77t-134 -230t-47.5 -289z" />
<glyph unicode="p" d="M-3 -425l250 1283q27 136 37 224h175q0 -20 -9 -83.5t-15 -94.5h4q70 105 157.5 152.5t211.5 47.5q308 0 308 -336q0 -95 -25 -222q-110 -566 -502 -566q-247 0 -295 184h-5q0 -10 -8 -56t-103 -533h-181zM343 350q0 -121 54 -179t169 -58q117 0 193.5 78t122.5 253 t46 299q0 108 -44.5 165t-149.5 57q-97 0 -164.5 -42.5t-117 -131t-79.5 -220t-30 -221.5z" />
<glyph unicode="q" d="M112 311q0 97 24 221q110 566 501 566q130 0 198.5 -45t98.5 -139h2q13 65 27 114t18 55h175q-7 -22 -23 -95.5t-277 -1412.5h-181q108 550 122 607h-2q-76 -110 -164.5 -159t-210.5 -49q-158 0 -233 84t-75 253zM302 342q0 -115 45.5 -172t146.5 -57q127 0 210.5 80 t132 240t48.5 292q0 123 -53.5 181.5t-169.5 58.5q-117 0 -194 -79t-121.5 -248t-44.5 -296z" />
<glyph unicode="r" d="M189 0l136 701q25 136 25 289l-3 92h171q6 -50 6 -128q0 -66 -6 -122h5q73 113 130.5 165t128.5 78.5t166 26.5q106 0 203 -17l-33 -167q-107 19 -208 19q-160 0 -283 -121t-159 -308l-99 -508h-180z" />
<glyph unicode="s" d="M110 248l165 31q3 -88 58.5 -126.5t204.5 -38.5q152 0 229 55t77 146q0 49 -41.5 82t-136.5 59l-116 31q-132 36 -185.5 65.5t-83 72t-29.5 103.5q0 72 33 144t95.5 123t152.5 77.5t199 26.5q176 0 268.5 -67t92.5 -193l-166 -20v5q0 70 -52 105.5t-169 35.5 q-138 0 -208 -48t-70 -133q0 -46 35.5 -75.5t121.5 -51.5q221 -58 279 -84t93 -59.5t49.5 -68.5t14.5 -79q0 -103 -63 -195.5t-179 -141.5t-267 -49q-205 0 -300 63.5t-102 204.5z" />
<glyph unicode="t" d="M268 940l27 142h170l113 282h120l-55 -282h432l-27 -142h-432l-127 -652l-5 -44q0 -57 38 -84t119 -27q133 0 303 34l-26 -137q-176 -46 -344 -46q-139 0 -208 49.5t-69 155.5q0 45 8 80l131 671h-168z" />
<glyph unicode="u" d="M135 223q0 60 15 138l140 721h180l-133 -686q-14 -72 -14 -123q0 -84 42.5 -119t141.5 -35q131 0 223 90t121 246l122 627h181l-165 -851q-7 -34 -13.5 -71.5t-12 -71t-9.5 -57.5t-4 -31h-170q0 11 10.5 77.5t17.5 107.5h-3q-83 -112 -175.5 -158.5t-210.5 -46.5 q-146 0 -215 58t-69 185z" />
<glyph unicode="v" d="M174 1082h202l131 -704q9 -68 19 -184l4 -53l26 53q38 80 94 182l413 706h201l-654 -1082h-213z" />
<glyph unicode="w" d="M99 0l27 1082h178l-25 -607q-2 -57 -12.5 -174.5t-17.5 -151.5l39 86l61 128l217 424h193l47 -425l14 -213q5 26 16 64t82 262l219 607h176l-400 -1082h-204l-51 471l-18 202l-66 -139l-272 -534h-203z" />
<glyph unicode="x" d="M-11 0l523 556l-295 526h199l218 -421l380 421h201l-499 -524l312 -558h-201l-235 444l-409 -444h-194z" />
<glyph unicode="y" d="M-17 -414l26 135q36 -6 83 -6q79 0 160 59t154 188l27 49l-262 1071h192l140 -642q11 -49 29.5 -143.5t18.5 -110.5q10 22 63 110l462 786h190l-666 -1082q-140 -242 -252.5 -333.5t-243.5 -91.5q-72 0 -121 11z" />
<glyph unicode="z" d="M42 0l27 137l837 806h-641l27 139h844l-26 -137l-839 -806h719l-27 -139h-921z" />
<glyph unicode="{" d="M212 461l26 137q132 5 216.5 66.5t103.5 164.5l69 352q28 139 124 221t228 82h265l-27 -139h-213q-93 0 -141 -45.5t-67 -149.5l-68 -346q-19 -97 -97 -172t-187 -100v-2q82 -21 132.5 -79.5t50.5 -140.5q0 -31 -5 -54l-68 -347q-8 -42 -8 -74q0 -65 34 -93t107 -28h213 l-27 -139h-265q-110 0 -176 61.5t-66 170.5q0 38 7 71l69 351l5 50q0 83 -61.5 130t-173.5 52z" />
<glyph unicode="|" d="M531 -425v1909h166v-1909h-166z" />
<glyph unicode="}" d="M-21 -425l27 139h213q91 0 140.5 44.5t69.5 150.5l68 347q19 102 98 176.5t185 97.5v2q-84 22 -133 82t-49 138l5 52l68 346q8 42 8 74q0 66 -35 93.5t-108 27.5h-213l27 139h265q113 0 178 -61t65 -169q0 -38 -7 -73l-69 -352l-5 -49q0 -81 60 -129t175 -53l-26 -137 q-131 -5 -215 -65t-105 -167l-69 -351q-25 -133 -123 -218t-230 -85h-265z" />
<glyph unicode="~" d="M116 580l28 143q126 84 279 84q81 0 154 -23t141 -49q120 -45 187 -45q131 0 262 92l-29 -149q-74 -45 -133.5 -62.5t-142.5 -17.5q-69 0 -137 22t-136 48q-120 45 -208 45q-67 0 -128 -20t-137 -68z" />
<glyph unicode="&#xa0;" />
<glyph unicode="&#xa1;" d="M358 -266l209 951h148l-161 -951h-196zM585 881l39 201h194l-39 -201h-194z" />
<glyph unicode="&#xa2;" d="M141 510q0 118 40 246t113.5 223t176.5 150.5t226 65.5l36 184h128l-36 -184q153 -13 239.5 -97t88.5 -225l-188 -14q0 100 -59.5 149.5t-171.5 49.5q-94 0 -168 -36.5t-127.5 -109.5t-82.5 -178.5t-29 -197.5q0 -134 65.5 -200.5t189.5 -66.5q112 0 196.5 54.5 t122.5 162.5l180 -12q-48 -141 -173 -233.5t-289 -106.5l-38 -195h-128l38 195q-169 13 -259.5 109t-90.5 267z" />
<glyph unicode="&#xa3;" d="M-49 0l30 154q95 45 138.5 83.5t72.5 95t46 138.5l27 141h-186l28 142h186l42 220q38 195 165.5 295.5t333.5 100.5q154 0 244 -61t103 -169l-185 -57q-10 63 -62.5 95t-130.5 32q-122 0 -193 -57.5t-95 -182.5l-42 -216h408l-28 -142h-408l-27 -139q-27 -133 -77 -203 t-139 -112h600q59 0 92.5 26.5t54.5 79.5l164 -24q-95 -240 -281 -240h-881z" />
<glyph unicode="&#xa4;" d="M117 330l122 102q-37 77 -37 167q0 88 34.5 175t100.5 162l-81 100l124 103l80 -101q128 82 270 82q138 0 235 -80l116 97l84 -105l-115 -96q39 -78 39 -171q0 -87 -36 -174t-103 -159l81 -100l-123 -105l-81 101q-129 -78 -266 -78q-142 0 -237 80l-125 -105zM359 633 q0 -98 66 -162.5t166 -64.5q82 0 161 45.5t128.5 123.5t49.5 164q0 99 -65.5 163.5t-164.5 64.5q-83 0 -160.5 -44.5t-129 -123t-51.5 -166.5z" />
<glyph unicode="&#xa5;" d="M88 256l28 144h381l28 137h-383l28 142h320l-281 670h199l241 -617l485 617h199l-542 -670h321l-28 -142h-383l-26 -137h383l-28 -144h-383l-50 -256h-178l50 256h-381z" />
<glyph unicode="&#xa6;" d="M531 324h166v-779h-166v779zM531 676v778h166v-778h-166z" />
<glyph unicode="&#xa7;" d="M73 100l167 31q3 -96 66 -139.5t200 -43.5q146 0 232.5 59.5t86.5 153.5q0 46 -28 79t-81 57.5t-189 60.5q-310 71 -310 261q0 106 79.5 195.5t205.5 123.5q-74 26 -118 80.5t-44 126.5q0 91 57 172t161.5 124t256.5 43q173 0 267 -67t96 -193l-165 -20v5q0 75 -57 115 t-164 40q-136 0 -212 -53.5t-76 -134.5q0 -54 55 -94.5t210 -78.5q131 -33 195.5 -68t100.5 -83t36 -114q0 -69 -35 -139t-99.5 -119.5t-142.5 -66.5q84 -40 125.5 -90.5t41.5 -121.5q0 -72 -35 -144t-101.5 -123.5t-160.5 -78.5t-211 -27q-207 0 -304 65.5t-106 206.5z M382 655q0 -38 24.5 -69.5t74 -56t162.5 -54.5q86 2 152 29t103.5 77.5t38.5 110.5q0 61 -61 106t-215 82q-80 -4 -144.5 -35t-99.5 -84t-35 -106z" />
<glyph unicode="&#xa8;" d="M467 1219l36 184h165l-36 -184h-165zM861 1219l36 184h163l-36 -184h-163z" />
<glyph unicode="&#xa9;" d="M31 761q0 226 71 389t203.5 248.5t308.5 85.5t308.5 -85t203.5 -247.5t71 -390.5q0 -227 -71 -390.5t-203 -248t-309 -84.5t-308.5 85.5t-203 248.5t-71.5 389zM126 761q0 -299 127.5 -464t360.5 -165t362 164t129 465t-130 464.5t-361 163.5q-151 0 -260.5 -72.5 t-168.5 -214t-59 -341.5zM269 763q0 202 89 313t257 111q217 0 303 -209l-114 -33q-26 67 -74.5 102t-112.5 35q-107 0 -163 -80.5t-56 -238.5q0 -153 59 -239.5t165 -86.5q65 0 113 37t83 119l115 -35q-52 -118 -128.5 -171.5t-182.5 -53.5q-168 0 -260.5 113.5 t-92.5 316.5z" />
<glyph unicode="&#xaa;" d="M265 821q0 21 5 49q48 237 405 242l192 4q14 75 14 96q0 129 -150 129q-84 0 -137 -34t-79 -111l-147 10q38 104 138 165t246 61q133 0 203.5 -51t70.5 -151q0 -35 -7 -65l-56 -291q-6 -31 -6 -55q0 -63 57 -63q24 0 51 8l-19 -94q-52 -13 -104 -13q-133 0 -133 118l4 42 h-4q-125 -166 -323 -166q-106 0 -163.5 44.5t-57.5 125.5zM418 860q0 -45 30 -76.5t98 -31.5q69 0 133 34t108 88.5t54 108.5l10 51l-155 -4q-147 -3 -212.5 -46t-65.5 -124z" />
<glyph unicode="&#xab;" d="M120 506l13 63l408 371h177l-6 -31l-408 -372l266 -367l-6 -29h-179zM595 506l13 63l410 371h178l-6 -31l-411 -372l269 -367l-6 -29h-180z" />
<glyph unicode="&#xac;" d="M116 608v146h995v-574h-145v428h-850z" />
<glyph unicode="&#xad;" d="M319 464l31 160h560l-31 -160h-560z" />
<glyph unicode="&#xae;" d="M31 761q0 226 71 389t203.5 248.5t308.5 85.5t308.5 -85t203.5 -247.5t71 -390.5q0 -227 -71 -390.5t-203 -248t-309 -84.5t-308.5 85.5t-203 248.5t-71.5 389zM126 761q0 -299 127.5 -464t360.5 -165t362 164t129 465t-130 464.5t-361 163.5q-151 0 -260.5 -72.5 t-168.5 -214t-59 -341.5zM328 343v831h307q142 0 217.5 -63t75.5 -174q0 -102 -52 -163.5t-137 -80.5l221 -350h-145l-199 336h-161v-336h-127zM455 775h182q80 0 122 42.5t42 117.5q0 69 -47.5 105t-128.5 36h-170v-301z" />
<glyph unicode="&#xaf;" d="M186 1522l19 96h1238l-19 -96h-1238z" />
<glyph unicode="&#xb0;" d="M327 1085q0 117 83.5 201t203.5 84t203.5 -83t83.5 -202t-84.5 -202t-202.5 -83t-202.5 84t-84.5 201zM436 1085q0 -74 52.5 -127t125.5 -53q74 0 126 52.5t52 127.5q0 76 -51.5 128t-126.5 52t-126.5 -53t-51.5 -127z" />
<glyph unicode="&#xb1;" d="M116 0v145h995v-145h-995zM116 680v145h424v394h147v-394h424v-145h-424v-395h-147v395h-424z" />
<glyph unicode="&#xb2;" d="M318 563l18 103q44 69 120.5 133t199.5 139q125 76 180.5 139.5t55.5 135.5q0 102 -122 102q-68 0 -119.5 -36.5t-72.5 -104.5l-131 8q35 110 129.5 174.5t219.5 64.5q115 0 175.5 -48t60.5 -136q0 -96 -62.5 -175.5t-187.5 -156.5q-156 -98 -213 -142t-89 -93h459 l-19 -107h-602z" />
<glyph unicode="&#xb3;" d="M352 763v15l139 13v-5l-1 -9q0 -122 156 -122q93 0 142.5 51t49.5 128q0 106 -165 106h-61l21 109h57q93 0 147.5 47t54.5 121q0 98 -123 98q-68 0 -117 -35t-68 -100l-132 12q34 108 124 168.5t217 60.5q113 0 176.5 -45.5t63.5 -128.5q0 -88 -57.5 -156.5t-162.5 -91.5 v-2q86 -9 124 -53t38 -105q0 -75 -42 -144t-119.5 -106.5t-187.5 -37.5q-274 0 -274 212z" />
<glyph unicode="&#xb4;" d="M530 1201l4 20l274 239h197l-6 -29l-345 -230h-124z" />
<glyph unicode="&#xb5;" d="M-37 -393l286 1475h182l-125 -644q-12 -70 -12 -107q0 -210 215 -210q131 0 238 97t135 247l120 617h181l-165 -849q-6 -34 -13 -72t-12.5 -71.5t-9.5 -58t-4 -31.5h-168q0 4 1.5 14t10 72t17.5 113h-4q-149 -219 -377 -219q-82 0 -139.5 32t-78.5 90h-4l-20 -122 l-72 -373h-182z" />
<glyph unicode="&#xb6;" d="M205 898q0 121 57 228.5t159 165t233 57.5h583l-23 -122h-129l-302 -1551h-132l302 1551h-197l-302 -1551h-133l186 958q-146 0 -224 69.5t-78 194.5z" />
<glyph unicode="&#xb7;" d="M473 420l58 299h235l-58 -299h-235z" />
<glyph unicode="&#xb8;" d="M-72 -440l20 98q48 -6 84 -6q146 0 164 86l2 18q0 64 -119 64q-43 0 -57 -2l100 182h107l-58 -100q81 -2 121 -34t40 -88q0 -59 -33.5 -113t-103 -81.5t-177.5 -27.5q-57 0 -90 4z" />
<glyph unicode="&#xb9;" d="M295 563l21 107h265l119 610q-34 -49 -119 -82t-175 -33l22 109q96 0 178 35t129 101h121l-144 -740h236l-21 -107h-632z" />
<glyph unicode="&#xba;" d="M314 943q0 128 58.5 245.5t167 180.5t248.5 63q158 0 240.5 -72t82.5 -211q0 -96 -34 -192t-97 -164.5t-150 -105t-197 -36.5q-154 0 -236.5 77t-82.5 215zM466 945q0 -189 185 -189q76 0 135 28t96 80t58.5 133t21.5 147q0 183 -190 183q-97 0 -165.5 -47.5 t-104.5 -143.5t-36 -191z" />
<glyph unicode="&#xbb;" d="M29 141l6 29l409 367l-263 372l6 31h178l263 -371l-13 -63l-406 -365h-180zM506 141l6 29l409 367l-263 372l6 31h176l266 -371l-13 -63l-409 -365h-178z" />
<glyph unicode="&#xbc;" d="M72 589l21 107h135l100 513q-28 -40 -85 -67.5t-104 -27.5l23 119q51 0 109 32t94 84h121l-127 -653h116l-21 -107h-382zM99 0l965 1349h115l-962 -1349h-118zM531 162l20 99l458 502h141l-97 -500h122l-20 -101h-122l-31 -161h-127l31 161h-375zM661 263h265l73 372 q-10 -12 -32 -37t-306 -335z" />
<glyph unicode="&#xbd;" d="M62 589l21 107h135l100 513q-28 -40 -85 -67.5t-104 -27.5l23 119q51 0 109 32t94 84h121l-127 -653h116l-21 -107h-382zM83 0l965 1349h115l-962 -1349h-118zM573 1l19 97q39 62 103.5 118.5t168.5 125.5q102 67 149.5 122t47.5 126q0 83 -92 83q-61 0 -96.5 -31 t-55.5 -92l-129 5q33 103 113.5 160.5t192.5 57.5q205 0 205 -161q0 -89 -56.5 -164t-158.5 -141q-126 -82 -174.5 -120.5t-73.5 -78.5h380l-21 -107h-522z" />
<glyph unicode="&#xbe;" d="M58 773v10l139 13v-11q0 -54 26.5 -82t71.5 -28q68 0 108 43.5t40 112.5q0 89 -129 89h-41l21 109h37q53 0 88 17.5t53 56.5t18 78q0 74 -78 74q-45 0 -84 -31.5t-56 -88.5l-133 12q31 97 109.5 155.5t184.5 58.5q93 0 144.5 -42.5t51.5 -115.5q0 -160 -174 -221l-1 -2 q126 -29 126 -142q0 -19 -5 -44q-19 -101 -100 -162t-200 -61q-104 0 -160.5 53t-56.5 149zM124 0l965 1349h115l-962 -1349h-118zM531 162l20 99l458 502h141l-97 -500h122l-20 -101h-122l-31 -161h-127l31 161h-375zM661 263h265l73 372q-10 -12 -32 -37t-306 -335z" />
<glyph unicode="&#xbf;" d="M55 3q0 71 27 146t92.5 145t175.5 136q138 82 200.5 147t80.5 147h175q-24 -105 -94 -187.5t-194 -157.5q-149 -90 -212.5 -166t-63.5 -173q0 -88 67.5 -133.5t188.5 -45.5q134 0 232.5 71.5t138.5 200.5l182 -12q-63 -195 -217 -302.5t-363 -107.5q-197 0 -306.5 76.5 t-109.5 215.5zM649 880l39 201h195l-39 -201h-195z" />
<glyph unicode="&#xc0;" d="M-105 0l772 1349h217l239 -1349h-194l-64 382h-563l-211 -382h-196zM382 531h463l-76 500l-24 174q-46 -91 -82.5 -161t-280.5 -513zM529 1674l6 29h197l180 -239l-4 -20h-124z" />
<glyph unicode="&#xc1;" d="M-105 0l772 1349h217l239 -1349h-194l-64 382h-563l-211 -382h-196zM382 531h463l-76 500l-24 174q-46 -91 -82.5 -161t-280.5 -513zM670 1445l4 20l274 239h197l-6 -29l-345 -230h-124z" />
<glyph unicode="&#xc2;" d="M-105 0l772 1349h217l239 -1349h-194l-64 382h-563l-211 -382h-196zM382 531h463l-76 500l-24 174q-46 -91 -82.5 -161t-280.5 -513zM458 1445l4 20l301 239h164l197 -239l-4 -20h-105l-192 138h-2l-259 -138h-104z" />
<glyph unicode="&#xc3;" d="M-105 0l772 1349h217l239 -1349h-194l-64 382h-563l-211 -382h-196zM382 531h463l-76 500l-24 174q-46 -91 -82.5 -161t-280.5 -513zM430 1445q42 137 103.5 192.5t148.5 55.5q44 0 82.5 -18.5t74 -41t69 -41t66.5 -18.5q40 0 65 27.5t45 91.5h112q-31 -97 -63.5 -145.5 t-78.5 -75.5t-109 -27q-42 0 -80 18.5t-74 41t-70.5 41t-69.5 18.5q-37 0 -61 -23.5t-49 -95.5h-111z" />
<glyph unicode="&#xc4;" d="M-105 0l772 1349h217l239 -1349h-194l-64 382h-563l-211 -382h-196zM382 531h463l-76 500l-24 174q-46 -91 -82.5 -161t-280.5 -513zM511 1445l36 184h165l-36 -184h-165zM905 1445l36 184h163l-36 -184h-163z" />
<glyph unicode="&#xc5;" d="M-105 0l772 1349h217l239 -1349h-194l-64 382h-563l-211 -382h-196zM382 531h463l-76 500l-24 174q-46 -91 -82.5 -161t-280.5 -513zM545 1395q0 59 35 116t101.5 89t148.5 32q95 0 151 -42t56 -119q0 -63 -37 -119.5t-102 -87.5t-146 -31q-96 0 -151.5 43.5t-55.5 118.5 zM668 1420q0 -33 28 -52t79 -19q63 0 100.5 29t37.5 69q0 32 -29 50.5t-77 18.5q-62 0 -100.5 -28t-38.5 -68z" />
<glyph unicode="&#xc6;" d="M-104 0l748 1349h667l-29 -152h-337l-84 -430h327l-29 -150h-327l-90 -465h378l-30 -152h-549l80 412h-335l-222 -412h-168zM366 561h284l125 641h-73l-119 -240z" />
<glyph unicode="&#xc7;" d="M116 447q0 165 52 355t140.5 315t214.5 189t287 64q335 0 401 -335l-180 -65q-18 119 -84 181.5t-166 62.5q-108 0 -189.5 -51t-140 -154t-97 -266.5t-38.5 -290.5q0 -317 266 -317q103 0 200 71.5t177 210.5l146 -65q-223 -372 -555 -372q-212 0 -323 118.5t-111 348.5z M282 -440l20 98q48 -6 84 -6q146 0 164 86l2 18q0 64 -119 64q-43 0 -57 -2l100 182h107l-58 -100q81 -2 121 -34t40 -88q0 -59 -33.5 -113t-103 -81.5t-177.5 -27.5q-57 0 -90 4z" />
<glyph unicode="&#xc8;" d="M57 0l262 1349h919l-30 -156h-728l-82 -422h668l-30 -154h-668l-90 -461h769l-30 -156h-960zM551 1675l6 29h197l180 -239l-4 -20h-124z" />
<glyph unicode="&#xc9;" d="M57 0l262 1349h919l-30 -156h-728l-82 -422h668l-30 -154h-668l-90 -461h769l-30 -156h-960zM668 1445l4 20l274 239h197l-6 -29l-345 -230h-124z" />
<glyph unicode="&#xca;" d="M57 0l262 1349h919l-30 -156h-728l-82 -422h668l-30 -154h-668l-90 -461h769l-30 -156h-960zM458 1445l4 20l301 239h164l197 -239l-4 -20h-105l-192 138h-2l-259 -138h-104z" />
<glyph unicode="&#xcb;" d="M57 0l262 1349h919l-30 -156h-728l-82 -422h668l-30 -154h-668l-90 -461h769l-30 -156h-960zM531 1445l36 184h165l-36 -184h-165zM925 1445l36 184h163l-36 -184h-163z" />
<glyph unicode="&#xcc;" d="M97 0l30 156h316l202 1037h-316l30 156h823l-30 -156h-316l-202 -1037h316l-30 -156h-823zM541 1675l6 29h197l180 -239l-4 -20h-124z" />
<glyph unicode="&#xcd;" d="M97 0l30 156h316l202 1037h-316l30 156h823l-30 -156h-316l-202 -1037h316l-30 -156h-823zM680 1445l4 20l274 239h197l-6 -29l-345 -230h-124z" />
<glyph unicode="&#xce;" d="M97 0l30 156h316l202 1037h-316l30 156h823l-30 -156h-316l-202 -1037h316l-30 -156h-823zM458 1445l4 20l301 239h164l197 -239l-4 -20h-105l-192 138h-2l-259 -138h-104z" />
<glyph unicode="&#xcf;" d="M97 0l30 156h316l202 1037h-316l30 156h823l-30 -156h-316l-202 -1037h316l-30 -156h-823zM511 1445l36 184h165l-36 -184h-165zM905 1445l36 184h163l-36 -184h-163z" />
<glyph unicode="&#xd0;" d="M38 597l29 149h135l117 603h311q545 0 545 -459q0 -158 -54 -335t-152 -301.5t-235 -189t-307 -64.5h-370l116 597h-135zM278 156h162q128 0 225.5 48.5t166.5 146.5t109 246t40 268q0 173 -94.5 250.5t-285.5 77.5h-121l-87 -447h289l-29 -149h-289z" />
<glyph unicode="&#xd1;" d="M57 0l262 1349h222l307 -1138q12 155 35 274l168 864h172l-262 -1349h-230l-300 1130q-15 -161 -34 -254l-170 -876h-170zM431 1446q42 137 103.5 192.5t148.5 55.5q44 0 82.5 -18.5t74 -41t69 -41t66.5 -18.5q40 0 65 27.5t45 91.5h112q-31 -97 -63.5 -145.5 t-78.5 -75.5t-109 -27q-42 0 -80 18.5t-74 41t-70.5 41t-69.5 18.5q-37 0 -61 -23.5t-49 -95.5h-111z" />
<glyph unicode="&#xd2;" d="M102 430q0 160 49.5 351t137 323.5t209.5 199t278 66.5q198 0 301 -110.5t103 -331.5q0 -155 -49 -346t-139 -327.5t-214 -205.5t-274 -69q-202 0 -302 116.5t-100 333.5zM304 446q0 -311 231 -311q100 0 176 52t134.5 164t95.5 277.5t37 284.5q0 301 -232 301 q-136 0 -231.5 -99.5t-153 -301.5t-57.5 -367zM536 1675l6 29h197l180 -239l-4 -20h-124z" />
<glyph unicode="&#xd3;" d="M102 430q0 160 49.5 351t137 323.5t209.5 199t278 66.5q198 0 301 -110.5t103 -331.5q0 -155 -49 -346t-139 -327.5t-214 -205.5t-274 -69q-202 0 -302 116.5t-100 333.5zM304 446q0 -311 231 -311q100 0 176 52t134.5 164t95.5 277.5t37 284.5q0 301 -232 301 q-136 0 -231.5 -99.5t-153 -301.5t-57.5 -367zM675 1445l4 20l274 239h197l-6 -29l-345 -230h-124z" />
<glyph unicode="&#xd4;" d="M102 430q0 160 49.5 351t137 323.5t209.5 199t278 66.5q198 0 301 -110.5t103 -331.5q0 -155 -49 -346t-139 -327.5t-214 -205.5t-274 -69q-202 0 -302 116.5t-100 333.5zM304 446q0 -311 231 -311q100 0 176 52t134.5 164t95.5 277.5t37 284.5q0 301 -232 301 q-136 0 -231.5 -99.5t-153 -301.5t-57.5 -367zM458 1445l4 20l301 239h164l197 -239l-4 -20h-105l-192 138h-2l-259 -138h-104z" />
<glyph unicode="&#xd5;" d="M102 430q0 160 49.5 351t137 323.5t209.5 199t278 66.5q198 0 301 -110.5t103 -331.5q0 -155 -49 -346t-139 -327.5t-214 -205.5t-274 -69q-202 0 -302 116.5t-100 333.5zM304 446q0 -311 231 -311q100 0 176 52t134.5 164t95.5 277.5t37 284.5q0 301 -232 301 q-136 0 -231.5 -99.5t-153 -301.5t-57.5 -367zM430 1445q42 137 103.5 192.5t148.5 55.5q44 0 82.5 -18.5t74 -41t69 -41t66.5 -18.5q40 0 65 27.5t45 91.5h112q-31 -97 -63.5 -145.5t-78.5 -75.5t-109 -27q-42 0 -80 18.5t-74 41t-70.5 41t-69.5 18.5q-37 0 -61 -23.5 t-49 -95.5h-111z" />
<glyph unicode="&#xd6;" d="M102 430q0 160 49.5 351t137 323.5t209.5 199t278 66.5q198 0 301 -110.5t103 -331.5q0 -155 -49 -346t-139 -327.5t-214 -205.5t-274 -69q-202 0 -302 116.5t-100 333.5zM304 446q0 -311 231 -311q100 0 176 52t134.5 164t95.5 277.5t37 284.5q0 301 -232 301 q-136 0 -231.5 -99.5t-153 -301.5t-57.5 -367zM514 1445l36 184h165l-36 -184h-165zM908 1445l36 184h163l-36 -184h-163z" />
<glyph unicode="&#xd7;" d="M157 330l354 354l-352 352l104 103l350 -353l350 351l105 -105l-350 -348l352 -352l-102 -105l-353 353l-356 -355z" />
<glyph unicode="&#xd8;" d="M-44 27l178 189q-32 91 -32 213q0 161 49.5 352t137 323.5t209.5 199t278 66.5q218 0 319 -134l147 156l81 -65l-176 -187q33 -90 33 -213q0 -154 -49 -344.5t-139 -327t-214 -206t-274 -69.5q-220 0 -319 138l-147 -156zM305 445q0 -35 1 -46l645 684q-52 131 -205 131 q-135 0 -230.5 -98t-153 -298.5t-57.5 -372.5zM331 273q52 -138 204 -138q100 0 176 52t134.5 164t95.5 277.5t37 279.5l-2 51z" />
<glyph unicode="&#xd9;" d="M110 301q0 77 19 171l170 877h191l-165 -851q-20 -102 -20 -170q0 -102 50.5 -147.5t169.5 -45.5q161 0 241.5 82t122.5 294l163 838h190l-167 -859q-52 -266 -189 -388t-390 -122q-201 0 -293.5 77.5t-92.5 243.5zM525 1675l6 29h197l180 -239l-4 -20h-124z" />
<glyph unicode="&#xda;" d="M110 301q0 77 19 171l170 877h191l-165 -851q-20 -102 -20 -170q0 -102 50.5 -147.5t169.5 -45.5q161 0 241.5 82t122.5 294l163 838h190l-167 -859q-52 -266 -189 -388t-390 -122q-201 0 -293.5 77.5t-92.5 243.5zM663 1445l4 20l274 239h197l-6 -29l-345 -230h-124z " />
<glyph unicode="&#xdb;" d="M110 301q0 77 19 171l170 877h191l-165 -851q-20 -102 -20 -170q0 -102 50.5 -147.5t169.5 -45.5q161 0 241.5 82t122.5 294l163 838h190l-167 -859q-52 -266 -189 -388t-390 -122q-201 0 -293.5 77.5t-92.5 243.5zM458 1445l4 20l301 239h164l197 -239l-4 -20h-105 l-192 138h-2l-259 -138h-104z" />
<glyph unicode="&#xdc;" d="M110 301q0 77 19 171l170 877h191l-165 -851q-20 -102 -20 -170q0 -102 50.5 -147.5t169.5 -45.5q161 0 241.5 82t122.5 294l163 838h190l-167 -859q-52 -266 -189 -388t-390 -122q-201 0 -293.5 77.5t-92.5 243.5zM511 1445l36 184h165l-36 -184h-165zM905 1445l36 184 h163l-36 -184h-163z" />
<glyph unicode="&#xdd;" d="M193 1349h205l255 -611l491 611h205l-632 -765l-114 -584h-188l114 584zM678 1445l4 20l274 239h197l-6 -29l-345 -230h-124z" />
<glyph unicode="&#xde;" d="M57 0l262 1349h191l-45 -235h269q205 0 315 -84t110 -240q0 -140 -74 -267.5t-207.5 -198t-299.5 -70.5h-281l-49 -254h-191zM325 395h254q116 0 202 45.5t134 132.5t48 184q0 103 -69.5 158.5t-210.5 55.5h-246z" />
<glyph unicode="&#xdf;" d="M37 0l200 1027q44 228 184 342.5t371 114.5q169 0 266 -65t97 -180l-5 -52q-29 -140 -159 -239q-79 -59 -108 -90.5t-36 -66.5l-2 -20q0 -33 27.5 -67t103.5 -89q150 -109 150 -253q0 -95 -51.5 -190.5t-149 -148t-227.5 -52.5q-169 0 -273 49l30 164q51 -33 125 -51 t142 -18q104 0 166 61.5t62 151.5q0 52 -31.5 95.5t-107.5 95.5q-69 48 -104 98.5t-35 113.5q0 26 6 54q22 114 151 206q70 51 103.5 92t42.5 90l3 29q0 65 -57.5 103t-155.5 38q-146 0 -232 -79.5t-118 -242.5l-198 -1021h-180z" />
<glyph unicode="&#xe0;" d="M73 213q0 41 9 89q68 349 523 354l236 4q17 81 19.5 102.5t2.5 45.5q0 85 -46 121t-138 36q-116 0 -175.5 -39.5t-90.5 -132.5l-185 17q54 149 172.5 220.5t307.5 71.5q340 0 340 -267q0 -45 -10 -97l-90 -466q-9 -43 -9 -76q0 -42 18 -63.5t61 -21.5q27 0 60 7l-22 -112 q-70 -16 -142 -16q-87 0 -123.5 38t-36.5 114l5 65h-6q-89 -122 -188.5 -174.5t-227.5 -52.5q-133 0 -198.5 62t-65.5 171zM265 251q0 -62 36.5 -98t108.5 -36q95 0 178 45.5t139 122.5t72 160l18 89l-191 -4q-135 -2 -209.5 -35.5t-113 -100t-38.5 -143.5zM461 1431l6 29 h197l180 -239l-4 -20h-124z" />
<glyph unicode="&#xe1;" d="M73 213q0 41 9 89q68 349 523 354l236 4q17 81 19.5 102.5t2.5 45.5q0 85 -46 121t-138 36q-116 0 -175.5 -39.5t-90.5 -132.5l-185 17q54 149 172.5 220.5t307.5 71.5q340 0 340 -267q0 -45 -10 -97l-90 -466q-9 -43 -9 -76q0 -42 18 -63.5t61 -21.5q27 0 60 7l-22 -112 q-70 -16 -142 -16q-87 0 -123.5 38t-36.5 114l5 65h-6q-89 -122 -188.5 -174.5t-227.5 -52.5q-133 0 -198.5 62t-65.5 171zM265 251q0 -62 36.5 -98t108.5 -36q95 0 178 45.5t139 122.5t72 160l18 89l-191 -4q-135 -2 -209.5 -35.5t-113 -100t-38.5 -143.5zM607 1201l4 20 l274 239h197l-6 -29l-345 -230h-124z" />
<glyph unicode="&#xe2;" d="M73 213q0 41 9 89q68 349 523 354l236 4q17 81 19.5 102.5t2.5 45.5q0 85 -46 121t-138 36q-116 0 -175.5 -39.5t-90.5 -132.5l-185 17q54 149 172.5 220.5t307.5 71.5q340 0 340 -267q0 -45 -10 -97l-90 -466q-9 -43 -9 -76q0 -42 18 -63.5t61 -21.5q27 0 60 7l-22 -112 q-70 -16 -142 -16q-87 0 -123.5 38t-36.5 114l5 65h-6q-89 -122 -188.5 -174.5t-227.5 -52.5q-133 0 -198.5 62t-65.5 171zM265 251q0 -62 36.5 -98t108.5 -36q95 0 178 45.5t139 122.5t72 160l18 89l-191 -4q-135 -2 -209.5 -35.5t-113 -100t-38.5 -143.5zM393 1201l4 20 l301 239h164l197 -239l-4 -20h-105l-192 138h-2l-259 -138h-104z" />
<glyph unicode="&#xe3;" d="M73 213q0 41 9 89q68 349 523 354l236 4q17 81 19.5 102.5t2.5 45.5q0 85 -46 121t-138 36q-116 0 -175.5 -39.5t-90.5 -132.5l-185 17q54 149 172.5 220.5t307.5 71.5q340 0 340 -267q0 -45 -10 -97l-90 -466q-9 -43 -9 -76q0 -42 18 -63.5t61 -21.5q27 0 60 7l-22 -112 q-70 -16 -142 -16q-87 0 -123.5 38t-36.5 114l5 65h-6q-89 -122 -188.5 -174.5t-227.5 -52.5q-133 0 -198.5 62t-65.5 171zM265 251q0 -62 36.5 -98t108.5 -36q95 0 178 45.5t139 122.5t72 160l18 89l-191 -4q-135 -2 -209.5 -35.5t-113 -100t-38.5 -143.5zM375 1201 q42 137 103.5 192.5t148.5 55.5q44 0 82.5 -18.5t74 -41t69 -41t66.5 -18.5q40 0 65 27.5t45 91.5h112q-31 -97 -63.5 -145.5t-78.5 -75.5t-109 -27q-42 0 -80 18.5t-74 41t-70.5 41t-69.5 18.5q-37 0 -61 -23.5t-49 -95.5h-111z" />
<glyph unicode="&#xe4;" d="M73 213q0 41 9 89q68 349 523 354l236 4q17 81 19.5 102.5t2.5 45.5q0 85 -46 121t-138 36q-116 0 -175.5 -39.5t-90.5 -132.5l-185 17q54 149 172.5 220.5t307.5 71.5q340 0 340 -267q0 -45 -10 -97l-90 -466q-9 -43 -9 -76q0 -42 18 -63.5t61 -21.5q27 0 60 7l-22 -112 q-70 -16 -142 -16q-87 0 -123.5 38t-36.5 114l5 65h-6q-89 -122 -188.5 -174.5t-227.5 -52.5q-133 0 -198.5 62t-65.5 171zM265 251q0 -62 36.5 -98t108.5 -36q95 0 178 45.5t139 122.5t72 160l18 89l-191 -4q-135 -2 -209.5 -35.5t-113 -100t-38.5 -143.5zM451 1219l36 184 h165l-36 -184h-165zM845 1219l36 184h163l-36 -184h-163z" />
<glyph unicode="&#xe5;" d="M73 213q0 41 9 89q68 349 523 354l236 4q17 81 19.5 102.5t2.5 45.5q0 85 -46 121t-138 36q-116 0 -175.5 -39.5t-90.5 -132.5l-185 17q54 149 172.5 220.5t307.5 71.5q340 0 340 -267q0 -45 -10 -97l-90 -466q-9 -43 -9 -76q0 -42 18 -63.5t61 -21.5q27 0 60 7l-22 -112 q-70 -16 -142 -16q-87 0 -123.5 38t-36.5 114l5 65h-6q-89 -122 -188.5 -174.5t-227.5 -52.5q-133 0 -198.5 62t-65.5 171zM265 251q0 -62 36.5 -98t108.5 -36q95 0 178 45.5t139 122.5t72 160l18 89l-191 -4q-135 -2 -209.5 -35.5t-113 -100t-38.5 -143.5zM517 1310 q0 59 35 116t101.5 89t148.5 32q95 0 151 -42t56 -119q0 -63 -37 -119.5t-102 -87.5t-146 -31q-96 0 -151.5 43.5t-55.5 118.5zM640 1335q0 -33 28 -52t79 -19q63 0 100.5 29t37.5 69q0 32 -29 50.5t-77 18.5q-62 0 -100.5 -28t-38.5 -68z" />
<glyph unicode="&#xe6;" d="M-38 190q0 51 12 112q68 349 399 354l167 4q27 133 27 184q0 65 -25 93t-78 28q-74 0 -115.5 -40.5t-66.5 -131.5l-165 17q47 149 139.5 220.5t232.5 71.5q178 0 220 -139q111 139 273 139q252 0 252 -321q0 -111 -29 -254l-4 -24h-529q-22 -93 -22 -190q0 -198 131 -198 q75 0 129 47t84 119l129 -45q-119 -256 -364 -256q-121 0 -178.5 54.5t-68.5 177.5q-142 -232 -343 -232q-207 0 -207 210zM135 230q0 -113 86 -113q93 0 171.5 95t105.5 233l18 89l-123 -4q-95 -3 -148 -40t-81.5 -112t-28.5 -148zM701 641h361q11 86 11 135 q0 100 -32.5 146.5t-98.5 46.5q-81 0 -144.5 -87.5t-96.5 -240.5z" />
<glyph unicode="&#xe7;" d="M112 369q0 127 41.5 270.5t124 249.5t199 159.5t264.5 53.5q181 0 282 -86.5t101 -236.5l-194 -14v6q0 86 -53 138t-171 52q-134 0 -221 -70.5t-135.5 -225.5t-48.5 -293q0 -131 60 -192t180 -61q108 0 189.5 53t119.5 162l188 -12q-32 -96 -106.5 -174.5t-181 -123 t-228.5 -44.5q-203 0 -306.5 99t-103.5 290zM265 -440l20 98q48 -6 84 -6q146 0 164 86l2 18q0 64 -119 64q-43 0 -57 -2l100 182h107l-58 -100q81 -2 121 -34t40 -88q0 -59 -33.5 -113t-103 -81.5t-177.5 -27.5q-57 0 -90 4z" />
<glyph unicode="&#xe8;" d="M116 370q0 124 40 268.5t120 250t193 159.5t257 54q386 0 386 -379q0 -91 -21 -196l-4 -24h-772q-13 -69 -13 -121q0 -129 62.5 -198t175.5 -69q102 0 188.5 44t128.5 122l149 -45q-69 -124 -198.5 -190t-293.5 -66q-194 0 -296 100.5t-102 289.5zM344 641h584l4 72 q0 256 -230 256q-133 0 -227.5 -87t-130.5 -241zM496 1431l6 29h197l180 -239l-4 -20h-124z" />
<glyph unicode="&#xe9;" d="M116 370q0 124 40 268.5t120 250t193 159.5t257 54q386 0 386 -379q0 -91 -21 -196l-4 -24h-772q-13 -69 -13 -121q0 -129 62.5 -198t175.5 -69q102 0 188.5 44t128.5 122l149 -45q-69 -124 -198.5 -190t-293.5 -66q-194 0 -296 100.5t-102 289.5zM344 641h584l4 72 q0 256 -230 256q-133 0 -227.5 -87t-130.5 -241zM641 1201l4 20l274 239h197l-6 -29l-345 -230h-124z" />
<glyph unicode="&#xea;" d="M116 370q0 124 40 268.5t120 250t193 159.5t257 54q386 0 386 -379q0 -91 -21 -196l-4 -24h-772q-13 -69 -13 -121q0 -129 62.5 -198t175.5 -69q102 0 188.5 44t128.5 122l149 -45q-69 -124 -198.5 -190t-293.5 -66q-194 0 -296 100.5t-102 289.5zM344 641h584l4 72 q0 256 -230 256q-133 0 -227.5 -87t-130.5 -241zM418 1201l4 20l301 239h164l197 -239l-4 -20h-105l-192 138h-2l-259 -138h-104z" />
<glyph unicode="&#xeb;" d="M116 370q0 124 40 268.5t120 250t193 159.5t257 54q386 0 386 -379q0 -91 -21 -196l-4 -24h-772q-13 -69 -13 -121q0 -129 62.5 -198t175.5 -69q102 0 188.5 44t128.5 122l149 -45q-69 -124 -198.5 -190t-293.5 -66q-194 0 -296 100.5t-102 289.5zM344 641h584l4 72 q0 256 -230 256q-133 0 -227.5 -87t-130.5 -241zM475 1219l36 184h165l-36 -184h-165zM869 1219l36 184h163l-36 -184h-163z" />
<glyph unicode="&#xec;" d="M38 0l28 142h422l155 798h-319l27 142h499l-182 -940h380l-28 -142h-982zM508 1431l6 29h197l180 -239l-4 -20h-124z" />
<glyph unicode="&#xed;" d="M38 0l28 142h422l155 798h-319l27 142h499l-182 -940h380l-28 -142h-982zM634 1201l4 20l274 239h197l-6 -29l-345 -230h-124z" />
<glyph unicode="&#xee;" d="M38 0l28 142h422l155 798h-319l27 142h499l-182 -940h380l-28 -142h-982zM421 1201l4 20l301 239h164l197 -239l-4 -20h-105l-192 138h-2l-259 -138h-104z" />
<glyph unicode="&#xef;" d="M38 0l28 142h422l155 798h-319l27 142h499l-182 -940h380l-28 -142h-982zM508 1219l36 184h165l-36 -184h-165zM902 1219l36 184h163l-36 -184h-163z" />
<glyph unicode="&#xf0;" d="M98 339q0 120 43 249t118.5 214.5t183.5 131t254 45.5q137 0 220 -59q-48 196 -159 317l-282 -115l-34 110l237 94q-97 91 -212 158h209q75 -37 151 -102l286 114l34 -108l-229 -92q203 -223 203 -547q0 -158 -42 -311.5t-120 -253t-193.5 -152t-269.5 -52.5 q-194 0 -296 91.5t-102 267.5zM288 348q0 -121 58 -178t174 -57q101 0 173.5 34t121 104t75.5 180.5t27 190.5q0 115 -57.5 169.5t-184.5 54.5q-132 0 -214.5 -60t-127.5 -187.5t-45 -250.5z" />
<glyph unicode="&#xf1;" d="M80 0l165 851q7 34 13.5 71.5t12 71t9.5 57.5t4 31h170q0 -6 -8.5 -67.5t-19.5 -117.5h3q68 95 161 150t225 55q283 0 283 -254q0 -57 -14 -127l-140 -721h-181l135 695q11 58 11 98q0 88 -43.5 129t-135.5 41q-124 0 -220.5 -90.5t-127.5 -245.5l-122 -627h-180z M393 1201q42 137 103.5 192.5t148.5 55.5q44 0 82.5 -18.5t74 -41t69 -41t66.5 -18.5q40 0 65 27.5t45 91.5h112q-31 -97 -63.5 -145.5t-78.5 -75.5t-109 -27q-42 0 -80 18.5t-74 41t-70.5 41t-69.5 18.5q-37 0 -61 -23.5t-49 -95.5h-111z" />
<glyph unicode="&#xf2;" d="M112 367q0 79 18 175q55 279 208.5 419.5t385.5 140.5q199 0 296 -92t97 -278q0 -135 -42 -284.5t-123 -255.5t-196 -159t-256 -53q-188 0 -288 98.5t-100 288.5zM301 373q0 -260 223 -260q101 0 172 41.5t122.5 128.5t80.5 215.5t29 221.5q0 125 -54.5 187t-172.5 62 q-132 0 -218.5 -77t-134 -230t-47.5 -289zM505 1431l6 29h197l180 -239l-4 -20h-124z" />
<glyph unicode="&#xf3;" d="M112 367q0 79 18 175q55 279 208.5 419.5t385.5 140.5q199 0 296 -92t97 -278q0 -135 -42 -284.5t-123 -255.5t-196 -159t-256 -53q-188 0 -288 98.5t-100 288.5zM301 373q0 -260 223 -260q101 0 172 41.5t122.5 128.5t80.5 215.5t29 221.5q0 125 -54.5 187t-172.5 62 q-132 0 -218.5 -77t-134 -230t-47.5 -289zM631 1201l4 20l274 239h197l-6 -29l-345 -230h-124z" />
<glyph unicode="&#xf4;" d="M112 367q0 79 18 175q55 279 208.5 419.5t385.5 140.5q199 0 296 -92t97 -278q0 -135 -42 -284.5t-123 -255.5t-196 -159t-256 -53q-188 0 -288 98.5t-100 288.5zM301 373q0 -260 223 -260q101 0 172 41.5t122.5 128.5t80.5 215.5t29 221.5q0 125 -54.5 187t-172.5 62 q-132 0 -218.5 -77t-134 -230t-47.5 -289zM411 1201l4 20l301 239h164l197 -239l-4 -20h-105l-192 138h-2l-259 -138h-104z" />
<glyph unicode="&#xf5;" d="M112 367q0 79 18 175q55 279 208.5 419.5t385.5 140.5q199 0 296 -92t97 -278q0 -135 -42 -284.5t-123 -255.5t-196 -159t-256 -53q-188 0 -288 98.5t-100 288.5zM301 373q0 -260 223 -260q101 0 172 41.5t122.5 128.5t80.5 215.5t29 221.5q0 125 -54.5 187t-172.5 62 q-132 0 -218.5 -77t-134 -230t-47.5 -289zM383 1201q42 137 103.5 192.5t148.5 55.5q44 0 82.5 -18.5t74 -41t69 -41t66.5 -18.5q40 0 65 27.5t45 91.5h112q-31 -97 -63.5 -145.5t-78.5 -75.5t-109 -27q-42 0 -80 18.5t-74 41t-70.5 41t-69.5 18.5q-37 0 -61 -23.5 t-49 -95.5h-111z" />
<glyph unicode="&#xf6;" d="M112 367q0 79 18 175q55 279 208.5 419.5t385.5 140.5q199 0 296 -92t97 -278q0 -135 -42 -284.5t-123 -255.5t-196 -159t-256 -53q-188 0 -288 98.5t-100 288.5zM301 373q0 -260 223 -260q101 0 172 41.5t122.5 128.5t80.5 215.5t29 221.5q0 125 -54.5 187t-172.5 62 q-132 0 -218.5 -77t-134 -230t-47.5 -289zM467 1219l36 184h165l-36 -184h-165zM861 1219l36 184h163l-36 -184h-163z" />
<glyph unicode="&#xf7;" d="M116 608v146h995v-146h-995zM529 223v183h168v-183h-168zM529 958v183h168v-183h-168z" />
<glyph unicode="&#xf8;" d="M33 68l103 95q-44 85 -44 208q0 131 43.5 275.5t126 248t198 155.5t264.5 52q213 0 316 -100l88 82l64 -68l-97 -90q42 -81 42 -201q0 -130 -42.5 -278.5t-126 -254.5t-201.5 -159t-267 -53q-203 0 -310 107l-94 -87zM281 379q0 -40 6 -75l621 576q-57 89 -207 89 q-103 0 -178 -40.5t-128.5 -124.5t-83.5 -207t-30 -218zM321 208q59 -95 203 -95q107 0 182 40.5t128.5 127t83 212.5t29.5 220q0 31 -5 71z" />
<glyph unicode="&#xf9;" d="M135 223q0 60 15 138l140 721h180l-133 -686q-14 -72 -14 -123q0 -84 42.5 -119t141.5 -35q131 0 223 90t121 246l122 627h181l-165 -851q-7 -34 -13.5 -71.5t-12 -71t-9.5 -57.5t-4 -31h-170q0 11 10.5 77.5t17.5 107.5h-3q-83 -112 -175.5 -158.5t-210.5 -46.5 q-146 0 -215 58t-69 185zM481 1431l6 29h197l180 -239l-4 -20h-124z" />
<glyph unicode="&#xfa;" d="M135 223q0 60 15 138l140 721h180l-133 -686q-14 -72 -14 -123q0 -84 42.5 -119t141.5 -35q131 0 223 90t121 246l122 627h181l-165 -851q-7 -34 -13.5 -71.5t-12 -71t-9.5 -57.5t-4 -31h-170q0 11 10.5 77.5t17.5 107.5h-3q-83 -112 -175.5 -158.5t-210.5 -46.5 q-146 0 -215 58t-69 185zM620 1201l4 20l274 239h197l-6 -29l-345 -230h-124z" />
<glyph unicode="&#xfb;" d="M135 223q0 60 15 138l140 721h180l-133 -686q-14 -72 -14 -123q0 -84 42.5 -119t141.5 -35q131 0 223 90t121 246l122 627h181l-165 -851q-7 -34 -13.5 -71.5t-12 -71t-9.5 -57.5t-4 -31h-170q0 11 10.5 77.5t17.5 107.5h-3q-83 -112 -175.5 -158.5t-210.5 -46.5 q-146 0 -215 58t-69 185zM411 1201l4 20l301 239h164l197 -239l-4 -20h-105l-192 138h-2l-259 -138h-104z" />
<glyph unicode="&#xfc;" d="M135 223q0 60 15 138l140 721h180l-133 -686q-14 -72 -14 -123q0 -84 42.5 -119t141.5 -35q131 0 223 90t121 246l122 627h181l-165 -851q-7 -34 -13.5 -71.5t-12 -71t-9.5 -57.5t-4 -31h-170q0 11 10.5 77.5t17.5 107.5h-3q-83 -112 -175.5 -158.5t-210.5 -46.5 q-146 0 -215 58t-69 185zM467 1219l36 184h165l-36 -184h-165zM861 1219l36 184h163l-36 -184h-163z" />
<glyph unicode="&#xfd;" d="M-17 -414l26 135q36 -6 83 -6q79 0 160 59t154 188l27 49l-262 1071h192l140 -642q11 -49 29.5 -143.5t18.5 -110.5q10 22 63 110l462 786h190l-666 -1082q-140 -242 -252.5 -333.5t-243.5 -91.5q-72 0 -121 11zM637 1201l4 20l274 239h197l-6 -29l-345 -230h-124z" />
<glyph unicode="&#xfe;" d="M-3 -425l371 1909h180l-82 -423l-34 -157h7q70 105 157.5 152.5t211.5 47.5q308 0 308 -336q0 -95 -25 -222q-110 -566 -502 -566q-247 0 -295 184h-5q0 -10 -8 -56t-103 -533h-181zM343 350q0 -121 54 -179t169 -58q117 0 193.5 78t122.5 253t46 299q0 108 -44.5 165 t-149.5 57q-97 0 -164.5 -42.5t-117 -131t-79.5 -220t-30 -221.5z" />
<glyph unicode="&#xff;" d="M-17 -414l26 135q36 -6 83 -6q79 0 160 59t154 188l27 49l-262 1071h192l140 -642q11 -49 29.5 -143.5t18.5 -110.5q10 22 63 110l462 786h190l-666 -1082q-140 -242 -252.5 -333.5t-243.5 -91.5q-72 0 -121 11zM472 1219l36 184h165l-36 -184h-165zM866 1219l36 184h163 l-36 -184h-163z" />
<glyph unicode="&#x152;" d="M17 406q0 158 48.5 361t129 332t197.5 192.5t279 63.5q59 0 108 -6h558l-29 -152h-398l-86 -440h367l-29 -150h-367l-88 -455h439l-30 -152h-612q-60 -5 -99 -5q-199 0 -293.5 101t-94.5 310zM201 437q0 -155 59 -226t174 -71q71 0 101 6l206 1057q-36 6 -98 6 q-144 0 -237.5 -98.5t-149 -305.5t-55.5 -368z" />
<glyph unicode="&#x153;" d="M2 307q0 127 38 292.5t99 276.5t143.5 168.5t186.5 57.5q187 0 232 -177q119 177 293 177q236 0 236 -315q0 -115 -29 -260l-4 -24h-492q-22 -110 -22 -196q0 -192 114 -192q66 0 113.5 47t76.5 119l129 -45q-114 -256 -343 -256q-182 0 -227 183q-118 -183 -302 -183 q-115 0 -178.5 80.5t-63.5 246.5zM169 305q0 -192 115 -192q89 0 148.5 94.5t100 284t40.5 297.5q0 94 -29 137t-88 43q-84 0 -143.5 -88.5t-101.5 -273t-42 -302.5zM734 641h324q12 86 12 147q0 94 -27.5 137.5t-84.5 43.5q-73 0 -132 -86.5t-92 -241.5z" />
<glyph unicode="&#x178;" d="M193 1349h205l255 -611l491 611h205l-632 -765l-114 -584h-188l114 584zM512 1445l36 184h165l-36 -184h-165zM906 1445l36 184h163l-36 -184h-163z" />
<glyph unicode="&#x2c6;" d="M411 1201l4 20l301 239h164l197 -239l-4 -20h-105l-192 138h-2l-259 -138h-104z" />
<glyph unicode="&#x2da;" d="M525 1310q0 59 35 116t101.5 89t148.5 32q95 0 151 -42t56 -119q0 -63 -37 -119.5t-102 -87.5t-146 -31q-96 0 -151.5 43.5t-55.5 118.5zM648 1335q0 -33 28 -52t79 -19q63 0 100.5 29t37.5 69q0 32 -29 50.5t-77 18.5q-62 0 -100.5 -28t-38.5 -68z" />
<glyph unicode="&#x2dc;" d="M383 1201q42 137 103.5 192.5t148.5 55.5q44 0 82.5 -18.5t74 -41t69 -41t66.5 -18.5q40 0 65 27.5t45 91.5h112q-31 -97 -63.5 -145.5t-78.5 -75.5t-109 -27q-42 0 -80 18.5t-74 41t-70.5 41t-69.5 18.5q-37 0 -61 -23.5t-49 -95.5h-111z" />
<glyph unicode="&#x400;" d="M57 0l262 1349h919l-30 -156h-728l-82 -422h668l-30 -154h-668l-90 -461h769l-30 -156h-960zM504 1675l6 29h197l180 -239l-4 -20h-124z" />
<glyph unicode="&#x401;" d="M57 0l262 1349h919l-30 -156h-728l-82 -422h668l-30 -154h-668l-90 -461h769l-30 -156h-960zM531 1445l36 184h165l-36 -184h-165zM925 1445l36 184h163l-36 -184h-163z" />
<glyph unicode="&#x402;" d="M127 1193l30 156h823l-30 -156h-339l-63 -322q140 37 210 48t122 11q157 0 228 -63t71 -185q0 -52 -12 -117l-44 -224q-34 -172 -129 -266.5t-234 -94.5q-78 0 -136 40t-77 102l123 114q20 -51 47 -76.5t72 -25.5q44 0 84 51t61 161l39 199q11 62 11 97q0 70 -33.5 102 t-108.5 32q-114 0 -322 -50l-141 -726h-190l232 1193h-294z" />
<glyph unicode="&#x403;" d="M119 0l262 1349h891l-30 -156h-700l-232 -1193h-191zM698 1446l4 20l274 239h197l-6 -29l-345 -230h-124z" />
<glyph unicode="&#x404;" d="M116 447q0 165 52 355t140.5 315t214.5 189t287 64q335 0 401 -335l-180 -65q-18 119 -84 181.5t-166 62.5q-165 0 -267.5 -117t-156.5 -343h427l-29 -145h-427q-13 -93 -13 -157q0 -317 267 -317q103 0 200 71.5t177 210.5l146 -65q-223 -372 -555 -372 q-212 0 -323 118.5t-111 348.5z" />
<glyph unicode="&#x405;" d="M40 338l192 37q2 -127 78 -186.5t225 -59.5q159 0 253.5 61.5t116.5 176.5l5 45q0 56 -30.5 93t-84.5 62.5t-210 65.5q-145 40 -200 67t-88.5 60t-51 75t-17.5 97q0 86 36 170.5t107.5 145.5t174.5 91.5t230 30.5q214 0 311 -75t106 -249l-194 -33q-2 111 -63 162 t-189 51q-281 0 -324 -213l-4 -41q0 -47 23.5 -77t63.5 -50.5t93 -35t112 -30.5q178 -48 246.5 -86t107.5 -94.5t39 -143.5q0 -96 -41 -187.5t-118.5 -155t-188.5 -98t-255 -34.5q-457 0 -461 358z" />
<glyph unicode="&#x406;" d="M97 0l30 156h316l202 1037h-316l30 156h823l-30 -156h-316l-202 -1037h316l-30 -156h-823z" />
<glyph unicode="&#x407;" d="M97 0l30 156h316l202 1037h-316l30 156h823l-30 -156h-316l-202 -1037h316l-30 -156h-823zM512 1445l36 184h165l-36 -184h-165zM906 1445l36 184h163l-36 -184h-163z" />
<glyph unicode="&#x408;" d="M139 341v9l193 31v-19q0 -112 46 -169.5t130 -57.5q209 0 264 281l151 777h-311l30 156h501l-180 -929q-39 -205 -166.5 -322.5t-319.5 -117.5q-169 0 -253.5 87t-84.5 274z" />
<glyph unicode="&#x409;" d="M-106 -6l25 132q19 -7 50 -7q56 0 88 28t63.5 93t73 192t92.5 315.5t162 601.5h491l-112 -576h42q150 0 231.5 -77.5t81.5 -209.5q0 -87 -34 -178t-96 -161t-145.5 -108.5t-175.5 -38.5h-225l235 1209h-181l-112 -428q-93 -356 -155.5 -514t-131.5 -220.5t-188 -62.5 q-51 0 -79 10zM704 141h57q70 0 128.5 42t92.5 117.5t34 152.5q0 84 -46 132t-121 48h-49z" />
<glyph unicode="&#x40a;" d="M-34 0l262 1349h161l-112 -576h329l112 576h171l-112 -576h92q150 0 231.5 -77.5t81.5 -209.5q0 -87 -34 -178t-96 -161t-145.5 -108.5t-175.5 -38.5h-275l123 633h-329l-123 -633h-161zM654 141h107q70 0 128.5 42t92.5 117.5t34 152.5q0 84 -46 132t-121 48h-99z" />
<glyph unicode="&#x40b;" d="M127 1193l30 156h823l-30 -156h-339l-63 -322q140 37 210 48t122 11q157 0 228 -63t71 -185q0 -52 -12 -117l-110 -565h-190l106 545q11 62 11 97q0 70 -33.5 102t-108.5 32q-114 0 -322 -50l-141 -726h-190l232 1193h-294z" />
<glyph unicode="&#x40c;" d="M63 0l262 1349h191l-114 -589q184 0 365 210l324 379h202l-379 -430q-50 -57 -97.5 -101t-106.5 -83l366 -735h-222l-301 647q-103 -38 -181 -38l-118 -609h-191zM665 1446l4 20l274 239h197l-6 -29l-345 -230h-124z" />
<glyph unicode="&#x40d;" d="M57 0l262 1349h172l-168 -864q-27 -140 -71 -274l749 1138h222l-262 -1349h-170l170 876q23 111 66 254l-740 -1130h-230zM529 1663l6 29h207l173 -226l-4 -20h-114z" />
<glyph unicode="&#x40e;" d="M-66 50l109 144q80 -59 154 -59q52 0 89.5 19t80.5 63.5t172 222.5l-362 909h215l274 -739l492 739h205l-732 -1031q-107 -151 -173 -215t-135 -93.5t-160 -29.5q-62 0 -124.5 18.5t-104.5 51.5zM484 1653l4 52h164l-2 -31q0 -61 40 -89.5t136 -28.5q101 0 155 34t77 115 h164q-59 -260 -418 -260q-320 0 -320 208z" />
<glyph unicode="&#x40f;" d="M51 0l262 1349h191l-231 -1189h534l231 1189h191l-262 -1349h-368l-83 -425h-180l83 425h-368z" />
<glyph unicode="&#x410;" d="M-105 0l772 1349h217l239 -1349h-194l-64 382h-563l-211 -382h-196zM382 531h463l-76 500l-24 174q-46 -91 -82.5 -161t-280.5 -513z" />
<glyph unicode="&#x411;" d="M57 0l262 1349h918l-30 -156h-727l-80 -410h322q211 0 320.5 -78t109.5 -224q0 -132 -70 -246t-199.5 -174.5t-300.5 -60.5h-525zM277 151h307q164 0 253 56t113 180q6 30 6 55q0 181 -288 181h-299z" />
<glyph unicode="&#x412;" d="M57 0l262 1349h412q440 0 440 -258q0 -87 -41 -169t-117.5 -136.5t-177.5 -74.5q146 -17 219.5 -87.5t73.5 -177.5q0 -82 -38.5 -167t-118.5 -149.5t-194 -97t-248 -32.5h-472zM278 153h266q175 0 269 60.5t118 183.5l5 49q0 185 -313 185h-252zM400 780h225 q298 0 342 218l5 46q0 81 -67.5 116.5t-201.5 35.5h-223z" />
<glyph unicode="&#x413;" d="M119 0l262 1349h891l-30 -156h-700l-232 -1193h-191z" />
<glyph unicode="&#x414;" d="M-179 -408l108 558h119q112 112 196.5 274.5t166.5 414.5l166 510h604l-233 -1199h175l-108 -558h-160l79 408h-874l-79 -408h-160zM243 150h539l204 1049h-295l-122 -378q-77 -234 -154 -395t-172 -276z" />
<glyph unicode="&#x415;" d="M57 0l262 1349h919l-30 -156h-728l-82 -422h668l-30 -154h-668l-90 -461h769l-30 -156h-960z" />
<glyph unicode="&#x416;" d="M-105 0l454 719q-50 64 -74 158l-109 472h173l73 -386q19 -99 57 -150t105 -67l117 603h160l-117 -603q72 16 129.5 66t116.5 151l223 386h173l-293 -472q-52 -86 -135 -157l175 -720h-185l-124 633l-17 -5l-90 -21l-118 -607h-160l118 607q-57 13 -97 26l-370 -633h-185 z" />
<glyph unicode="&#x417;" d="M26 328l180 77q37 -143 118 -207.5t211 -64.5q112 0 199 38.5t135.5 110t48.5 157.5q0 96 -86.5 140.5t-266.5 44.5h-71l29 148h71q196 0 299 74.5t103 195.5q0 81 -63.5 126.5t-178.5 45.5q-259 0 -400 -247l-163 61q103 172 251.5 256.5t348.5 84.5q188 0 295 -78.5 t107 -209.5q0 -86 -40.5 -164t-119.5 -132.5t-187 -78.5q125 -20 196 -87t71 -168q0 -85 -44 -175t-124 -156t-190 -103t-243 -37q-204 0 -320.5 81t-165.5 267z" />
<glyph unicode="&#x418;" d="M57 0l262 1349h172l-168 -864q-27 -140 -71 -274l749 1138h222l-262 -1349h-170l170 876q23 111 66 254l-740 -1130h-230z" />
<glyph unicode="&#x419;" d="M57 0l262 1349h172l-168 -864q-27 -140 -71 -274l749 1138h222l-262 -1349h-170l170 876q23 111 66 254l-740 -1130h-230zM465 1653l4 52h164l-2 -31q0 -61 40 -89.5t136 -28.5q101 0 155 34t77 115h164q-59 -260 -418 -260q-320 0 -320 208z" />
<glyph unicode="&#x41a;" d="M63 0l262 1349h191l-114 -589q184 0 365 210l324 379h202l-379 -430q-50 -57 -97.5 -101t-106.5 -83l366 -735h-222l-301 647q-103 -38 -181 -38l-118 -609h-191z" />
<glyph unicode="&#x41b;" d="M-108 -6l29 152q19 -7 55 -7q61 0 105 36.5t88 114t99.5 222t124.5 357.5l154 480h727l-262 -1349h-186l231 1189h-378l-109 -338q-115 -359 -196.5 -538.5t-171 -254t-226.5 -74.5q-58 0 -84 10z" />
<glyph unicode="&#x41c;" d="M24 0l262 1349h237l90 -489q12 -57 23 -231l43 90l72 140l280 490h225l-262 -1349h-162l169 868q25 126 64 301l-55 -108l-96 -183l-249 -438h-137l-81 438q-15 73 -40 291l-54 -301l-169 -868h-160z" />
<glyph unicode="&#x41d;" d="M57 0l262 1349h191l-110 -566h522l110 566h191l-262 -1349h-191l121 623h-522l-121 -623h-191z" />
<glyph unicode="&#x41e;" d="M102 430q0 160 49.5 351t137 323.5t209.5 199t278 66.5q198 0 301 -110.5t103 -331.5q0 -155 -49 -346t-139 -327.5t-214 -205.5t-274 -69q-202 0 -302 116.5t-100 333.5zM304 446q0 -311 231 -311q100 0 176 52t134.5 164t95.5 277.5t37 284.5q0 301 -232 301 q-136 0 -231.5 -99.5t-153 -301.5t-57.5 -367z" />
<glyph unicode="&#x41f;" d="M57 0l262 1349h904l-262 -1349h-191l231 1189h-522l-231 -1189h-191z" />
<glyph unicode="&#x420;" d="M57 0l262 1349h460q208 0 318 -81.5t110 -232.5q0 -136 -74.5 -259t-207 -192.5t-296.5 -69.5h-281l-100 -514h-191zM377 665h254q114 0 201.5 44t133 124t45.5 169q0 194 -285 194h-246z" />
<glyph unicode="&#x421;" d="M116 447q0 165 52 355t140.5 315t214.5 189t287 64q335 0 401 -335l-180 -65q-18 119 -84 181.5t-166 62.5q-108 0 -189.5 -51t-140 -154t-97 -266.5t-38.5 -290.5q0 -317 266 -317q103 0 200 71.5t177 210.5l146 -65q-223 -372 -555 -372q-212 0 -323 118.5t-111 348.5z " />
<glyph unicode="&#x422;" d="M203 1193l30 156h1076l-30 -156h-443l-232 -1193h-190l232 1193h-443z" />
<glyph unicode="&#x423;" d="M-66 50l109 144q80 -59 154 -59q52 0 89.5 19t80.5 63.5t172 222.5l-362 909h215l274 -739l492 739h205l-732 -1031q-107 -151 -173 -215t-135 -93.5t-160 -29.5q-62 0 -124.5 18.5t-104.5 51.5z" />
<glyph unicode="&#x424;" d="M29 596q0 152 76 294t211 219.5t304 77.5h30l33 172h181l-33 -172h29q193 0 299 -97.5t106 -267.5q0 -154 -78 -301t-213 -231t-293 -84h-41l-42 -217h-181l42 217h-41q-179 0 -284 106.5t-105 283.5zM223 604q0 -119 64 -187.5t188 -68.5h12l135 696h-8q-118 0 -207 -57 t-136.5 -163.5t-47.5 -219.5zM668 348h12q86 0 157.5 34.5t123.5 99t80 152t28 167.5q0 122 -69 182.5t-192 60.5h-5z" />
<glyph unicode="&#x425;" d="M-69 0l613 705l-310 644h205l233 -513l432 513h205l-560 -644l339 -705h-205l-263 573l-484 -573h-205z" />
<glyph unicode="&#x426;" d="M23 0l262 1349h191l-231 -1189h522l231 1189h191l-231 -1189h175l-114 -585h-180l83 425h-899z" />
<glyph unicode="&#x427;" d="M133 686q0 47 10 99l109 564h190l-106 -544q-7 -35 -7 -68q0 -163 197 -163q57 0 133 9t240 40l141 726h190l-262 -1349h-190l93 478q-163 -35 -244.5 -46.5t-144.5 -11.5q-349 0 -349 266z" />
<glyph unicode="&#x428;" d="M-16 0l262 1349h162l-235 -1209h282l235 1209h162l-235 -1209h282l235 1209h162l-262 -1349h-1050z" />
<glyph unicode="&#x429;" d="M-19 0l262 1349h162l-235 -1209h257l235 1209h162l-235 -1209h257l235 1209h162l-235 -1209h142l-110 -565h-142l83 425h-1000z" />
<glyph unicode="&#x42a;" d="M127 1193l30 156h526l-110 -566h132q211 0 320.5 -78t109.5 -224q0 -132 -70 -246t-199.5 -174.5t-300.5 -60.5h-335l232 1193h-335zM450 151h117q164 0 253.5 58t113.5 182q6 29 6 54q0 92 -72.5 135t-216.5 43h-109z" />
<glyph unicode="&#x42b;" d="M0 0l262 1349h171l-112 -576h62q215 0 323.5 -77t108.5 -218q0 -93 -40 -184.5t-114.5 -157t-179.5 -101t-236 -35.5h-245zM198 141h77q165 0 255 62.5t114 187.5q6 30 6 56q0 186 -287 186h-69zM847 0l262 1349h171l-262 -1349h-171z" />
<glyph unicode="&#x42c;" d="M57 0l262 1349h191l-110 -566h322q211 0 320.5 -78t109.5 -224q0 -132 -70 -246t-199.5 -174.5t-300.5 -60.5h-525zM277 151h307q164 0 253 56t113 180q6 30 6 55q0 181 -288 181h-299z" />
<glyph unicode="&#x42d;" d="M50 352l172 65q57 -282 267 -282q170 0 276.5 123t160.5 351h-426l29 145h426q13 80 13 156q0 151 -62 227.5t-196 76.5q-101 0 -192 -64t-152 -180l-156 65q193 335 531 335q428 0 428 -443q0 -167 -51 -356t-143.5 -320.5t-221.5 -201t-292 -69.5q-331 0 -411 372z" />
<glyph unicode="&#x42e;" d="M-19 0l262 1349h161l-115 -595h153q70 308 199 462t307 154q287 0 287 -388q0 -155 -45.5 -361t-119.5 -350t-174 -217.5t-220 -73.5q-143 0 -213.5 102t-70.5 294q0 104 21 233h-153l-118 -609h-161zM562 373q0 -248 143 -248q100 0 176.5 117.5t130.5 352.5t54 391 q0 121 -36 179.5t-111 58.5q-100 0 -175 -112.5t-128.5 -348t-53.5 -390.5z" />
<glyph unicode="&#x42f;" d="M-53 0l516 597q-131 23 -204 102.5t-73 200.5q0 124 66 231t191 162.5t299 55.5h482l-262 -1349h-191l112 575h-238l-478 -575h-220zM378 914q0 -93 64.5 -140.5t189.5 -47.5h280l91 470h-272q-304 0 -347 -223q-6 -30 -6 -59z" />
<glyph unicode="&#x430;" d="M73 213q0 41 9 89q68 349 523 354l236 4q17 81 19.5 102.5t2.5 45.5q0 85 -46 121t-138 36q-116 0 -175.5 -39.5t-90.5 -132.5l-185 17q54 149 172.5 220.5t307.5 71.5q340 0 340 -267q0 -45 -10 -97l-90 -466q-9 -43 -9 -76q0 -42 18 -63.5t61 -21.5q27 0 60 7l-22 -112 q-70 -16 -142 -16q-87 0 -123.5 38t-36.5 114l5 65h-6q-89 -122 -188.5 -174.5t-227.5 -52.5q-133 0 -198.5 62t-65.5 171zM265 251q0 -62 36.5 -98t108.5 -36q95 0 178 45.5t139 122.5t72 160l18 89l-191 -4q-135 -2 -209.5 -35.5t-113 -100t-38.5 -143.5z" />
<glyph unicode="&#x431;" d="M130 378q0 152 54 372t138.5 358t211.5 218t320 116q148 27 389 60l-31 -161q-432 -54 -564.5 -103t-202.5 -156.5t-116 -319.5q67 124 182.5 194.5t258.5 70.5q179 0 264.5 -84t85.5 -253q0 -80 -20 -186q-103 -524 -590 -524q-191 0 -285.5 97t-94.5 301zM305 351 q0 -120 56 -179t173 -59q103 0 173.5 36.5t119 114t75.5 196t27 204.5q0 118 -53.5 174.5t-169.5 56.5q-100 0 -172.5 -37.5t-122 -113t-78 -190.5t-28.5 -203z" />
<glyph unicode="&#x432;" d="M80 0l210 1082h462q176 0 265 -54t89 -160q0 -110 -71.5 -190t-204.5 -105l-1 -7q105 -13 160 -63t55 -133q0 -71 -32 -141.5t-96 -122.5t-153.5 -79t-197.5 -27h-485zM286 133h276q80 0 133.5 13.5t87.5 43.5t51.5 78.5t17.5 94.5q0 71 -55 101.5t-177 30.5h-264z M381 625h256q103 0 162.5 23t85 73t25.5 108q0 60 -45.5 88t-150.5 28h-270z" />
<glyph unicode="&#x433;" d="M160 0l210 1082h785l-27 -142h-605l-183 -940h-180z" />
<glyph unicode="&#x434;" d="M-162 -408l107 550h119q105 133 202.5 358.5t210.5 581.5h624l-182 -940h146l-107 -550h-163l79 408h-794l-79 -408h-163zM247 142h507l155 798h-316q-86 -264 -169.5 -458t-176.5 -340z" />
<glyph unicode="&#x435;" d="M116 370q0 124 40 268.5t120 250t193 159.5t257 54q386 0 386 -379q0 -91 -21 -196l-4 -24h-772q-13 -69 -13 -121q0 -129 62.5 -198t175.5 -69q102 0 188.5 44t128.5 122l149 -45q-69 -124 -198.5 -190t-293.5 -66q-194 0 -296 100.5t-102 289.5zM344 641h584l4 72 q0 256 -230 256q-133 0 -227.5 -87t-130.5 -241z" />
<glyph unicode="&#x436;" d="M-104 0l453 608q-18 28 -46 80.5t-188 393.5h178l102 -239q47 -108 81.5 -153.5t77.5 -63.5l88 456h154l-88 -456q38 13 78 44t84.5 79.5t274.5 332.5h178l-279 -325q-91 -106 -140 -149l218 -608h-185l-153 517q-12 -9 -44.5 -21.5t-60.5 -15.5l-93 -480h-154l93 480 q-29 4 -56.5 17t-34.5 20l-353 -517h-185z" />
<glyph unicode="&#x437;" d="M78 234l168 44q11 -85 78.5 -124.5t198.5 -39.5q265 0 300 185l3 29q0 80 -95.5 125.5t-264.5 45.5l27 137q199 0 306.5 53t107.5 151q0 128 -219 128q-130 0 -201 -36t-96 -108l-158 20q50 137 169.5 197.5t312.5 60.5q180 0 279.5 -63.5t99.5 -173.5q0 -79 -44 -140.5 t-119.5 -102.5t-162.5 -51v-2q109 -11 180 -72t71 -149q0 -94 -62.5 -183.5t-181 -137t-282.5 -47.5q-198 0 -296 60.5t-119 193.5z" />
<glyph unicode="&#x438;" d="M80 0l210 1082h174l-115 -592q-5 -30 -64 -277l668 869h197l-210 -1082h-172l128 660q28 133 52 213l-676 -873h-192z" />
<glyph unicode="&#x439;" d="M80 0l210 1082h174l-115 -592q-5 -30 -64 -277l668 869h197l-210 -1082h-172l128 660q28 133 52 213l-676 -873h-192zM423 1408l4 52h164l-2 -31q0 -61 40 -89.5t136 -28.5q101 0 155 34t77 115h164q-59 -260 -418 -260q-320 0 -320 208z" />
<glyph unicode="&#x43a;" d="M113 0l210 1082h180l-92 -474q110 0 191.5 44.5t183.5 160.5l232 269h194l-289 -325q-97 -110 -182 -163l270 -594h-204l-218 509q-36 -15 -95.5 -25t-108.5 -10l-92 -474h-180z" />
<glyph unicode="&#x43b;" d="M-100 -7l25 129q25 -9 66 -9q54 0 103 66t111.5 222.5t237.5 680.5h710l-210 -1082h-181l183 940h-381q-148 -446 -207 -593t-110 -223t-111 -110t-145 -34q-49 0 -91 13z" />
<glyph unicode="&#x43c;" d="M-3 0l210 1082h250l76 -641q12 -106 12 -207q0 -53 -4 -99q50 150 128 306l324 641h239l-210 -1082h-153l141 724q8 42 24.5 114t27.5 115l-470 -953h-153l-109 951q-3 -25 -18 -116.5t-20 -110.5l-141 -724h-154z" />
<glyph unicode="&#x43d;" d="M76 0l210 1082h180l-89 -458h507l89 458h180l-210 -1082h-180l96 493h-507l-96 -493h-180z" />
<glyph unicode="&#x43e;" d="M112 367q0 79 18 175q55 279 208.5 419.5t385.5 140.5q199 0 296 -92t97 -278q0 -135 -42 -284.5t-123 -255.5t-196 -159t-256 -53q-188 0 -288 98.5t-100 288.5zM301 373q0 -260 223 -260q101 0 172 41.5t122.5 128.5t80.5 215.5t29 221.5q0 125 -54.5 187t-172.5 62 q-132 0 -218.5 -77t-134 -230t-47.5 -289z" />
<glyph unicode="&#x43f;" d="M76 0l210 1082h867l-210 -1082h-180l183 940h-507l-183 -940h-180z" />
<glyph unicode="&#x440;" d="M-3 -425l250 1283q27 136 37 224h175q0 -20 -9 -83.5t-15 -94.5h4q70 105 157.5 152.5t211.5 47.5q308 0 308 -336q0 -95 -25 -222q-110 -566 -502 -566q-247 0 -295 184h-5q0 -10 -8 -56t-103 -533h-181zM343 350q0 -121 54 -179t169 -58q117 0 193.5 78t122.5 253 t46 299q0 108 -44.5 165t-149.5 57q-97 0 -164.5 -42.5t-117 -131t-79.5 -220t-30 -221.5z" />
<glyph unicode="&#x441;" d="M112 369q0 127 41.5 270.5t124 249.5t199 159.5t264.5 53.5q181 0 282 -86.5t101 -236.5l-194 -14v6q0 86 -53 138t-171 52q-134 0 -221 -70.5t-135.5 -225.5t-48.5 -293q0 -131 60 -192t180 -61q108 0 189.5 53t119.5 162l188 -12q-32 -96 -106.5 -174.5t-181 -123 t-228.5 -44.5q-203 0 -306.5 99t-103.5 290z" />
<glyph unicode="&#x442;" d="M208 940l27 142h968l-27 -142h-394l-183 -940h-180l183 940h-394z" />
<glyph unicode="&#x443;" d="M-17 -414l26 135q36 -6 83 -6q79 0 160 59t154 188l27 49l-262 1071h192l140 -642q11 -49 29.5 -143.5t18.5 -110.5q10 22 63 110l462 786h190l-666 -1082q-140 -242 -252.5 -333.5t-243.5 -91.5q-72 0 -121 11z" />
<glyph unicode="&#x444;" d="M53 382q0 121 41 257.5t118 236t186.5 155.5t248.5 68l74 385h155l-74 -385q374 -30 374 -382q0 -123 -39.5 -261.5t-116 -240.5t-187 -160.5t-248.5 -70.5l-80 -409h-155l80 408q-180 14 -278.5 115t-98.5 284zM243 394q0 -245 213 -277l164 846q-125 -18 -206.5 -95.5 t-126 -214.5t-44.5 -259zM611 119q124 18 205.5 97.5t125 218.5t43.5 264q0 239 -210 265z" />
<glyph unicode="&#x445;" d="M-11 0l523 556l-295 526h199l218 -421l380 421h201l-499 -524l312 -558h-201l-235 444l-409 -444h-194z" />
<glyph unicode="&#x446;" d="M71 0l210 1082h180l-185 -951h507l185 951h180l-185 -951h147l-104 -539h-163l79 408h-851z" />
<glyph unicode="&#x447;" d="M171 590q0 35 8 81l80 411h180l-78 -402l-4 -38q0 -62 44.5 -93t126.5 -31q116 0 319 52l99 512h180l-210 -1082h-180l91 466q-249 -91 -411 -91q-124 0 -184.5 56.5t-60.5 158.5z" />
<glyph unicode="&#x448;" d="M-3 0l210 1082h160l-185 -951h272l185 951h160l-185 -951h273l185 951h160l-210 -1082h-1025z" />
<glyph unicode="&#x449;" d="M-13 0l210 1082h160l-185 -951h249l185 951h160l-185 -951h249l185 951h160l-185 -951h143l-104 -539h-143l79 408h-978z" />
<glyph unicode="&#x44a;" d="M77 940l27 142h508l-89 -458h228q364 0 364 -233q0 -77 -33 -154t-95 -129t-151.5 -80t-204.5 -28h-409l183 940h-328zM427 127h202q102 0 165.5 28t95 86t31.5 125q0 69 -52 101t-167 32h-203z" />
<glyph unicode="&#x44b;" d="M1 0l210 1082h164l-89 -458h155q364 0 364 -233q0 -77 -33 -154t-95 -129t-151.5 -80t-204.5 -28h-320zM190 127h155q97 0 158.5 28t92.5 86t31 125q0 69 -50 101t-159 32h-156zM853 0l210 1082h164l-210 -1082h-164z" />
<glyph unicode="&#x44c;" d="M99 0l210 1082h180l-89 -458h266q364 0 364 -233q0 -77 -33 -154t-95 -129t-151.5 -80t-204.5 -28h-447zM304 127h240q102 0 165.5 28t95 86t31.5 125q0 69 -52 101t-167 32h-241z" />
<glyph unicode="&#x44d;" d="M81 304q0 10 1 18l192 12v-12q0 -99 63.5 -151t171.5 -52q146 0 237 88t136 275h-382l25 131h382q8 58 8 104q0 125 -59.5 184.5t-183.5 59.5q-118 0 -197.5 -52.5t-112.5 -143.5l-190 14q59 149 197.5 236t321.5 87q202 0 306.5 -100.5t104.5 -287.5 q0 -136 -45.5 -283.5t-125 -246t-193.5 -151.5t-264 -53q-118 0 -207.5 41.5t-137.5 116t-48 166.5z" />
<glyph unicode="&#x44e;" d="M-35 0l210 1082h164l-89 -458h169q62 227 190 352.5t293 125.5q139 0 216.5 -97.5t77.5 -272.5q0 -126 -38.5 -274.5t-108 -257t-163 -164.5t-203.5 -56q-144 0 -224.5 93.5t-80.5 266.5q0 69 14 153h-167l-96 -493h-164zM552 344q0 -113 39.5 -172t114.5 -59 q91 0 162 86.5t113.5 246t42.5 282.5q0 116 -39.5 178.5t-106.5 62.5q-97 0 -170 -89.5t-114.5 -252t-41.5 -283.5z" />
<glyph unicode="&#x44f;" d="M-36 0l436 471q-197 44 -197 230q0 183 125.5 282t363.5 99h432l-210 -1082h-180l89 458h-252l-404 -458h-203zM394 717q0 -67 47 -100.5t153 -33.5h253l73 372h-234q-99 0 -163 -27t-96.5 -83.5t-32.5 -127.5z" />
<glyph unicode="&#x450;" d="M116 370q0 124 40 268.5t120 250t193 159.5t257 54q386 0 386 -379q0 -91 -21 -196l-4 -24h-772q-13 -69 -13 -121q0 -129 62.5 -198t175.5 -69q102 0 188.5 44t128.5 122l149 -45q-69 -124 -198.5 -190t-293.5 -66q-194 0 -296 100.5t-102 289.5zM344 641h584l4 72 q0 256 -230 256q-133 0 -227.5 -87t-130.5 -241zM496 1431l6 29h197l180 -239l-4 -20h-124z" />
<glyph unicode="&#x451;" d="M116 370q0 124 40 268.5t120 250t193 159.5t257 54q386 0 386 -379q0 -91 -21 -196l-4 -24h-772q-13 -69 -13 -121q0 -129 62.5 -198t175.5 -69q102 0 188.5 44t128.5 122l149 -45q-69 -124 -198.5 -190t-293.5 -66q-194 0 -296 100.5t-102 289.5zM344 641h584l4 72 q0 256 -230 256q-133 0 -227.5 -87t-130.5 -241zM475 1219l36 184h165l-36 -184h-165zM869 1219l36 184h163l-36 -184h-163z" />
<glyph unicode="&#x452;" d="M80 0l232 1196h-132l26 131h132l30 157h181l-30 -157h299l-26 -131h-299q-13 -67 -21 -110t-51 -219h3q142 205 378 205q289 0 289 -259q0 -57 -13 -122l-160 -825q-29 -152 -103 -221.5t-194 -69.5q-76 0 -125 9l27 139l61 -6q70 0 104 37t54 139l150 772q11 58 11 98 q0 88 -43.5 129t-135.5 41q-124 0 -220.5 -90.5t-127.5 -245.5l-116 -597h-180z" />
<glyph unicode="&#x453;" d="M160 0l210 1082h785l-27 -142h-605l-183 -940h-180zM677 1201l4 20l274 239h197l-6 -29l-345 -230h-124z" />
<glyph unicode="&#x454;" d="M127 369q0 127 41.5 270.5t124 249.5t199 159.5t264.5 53.5q183 0 288 -87.5t105 -235.5l-194 -14v6q0 87 -58 138.5t-176 51.5q-144 0 -234.5 -82t-136.5 -266h382l-25 -131h-382q-9 -60 -9 -112q0 -120 55.5 -185.5t184.5 -65.5q113 0 197.5 55.5t121.5 159.5l188 -12 q-31 -95 -108 -173.5t-186.5 -123.5t-231.5 -45q-203 0 -306.5 99t-103.5 290z" />
<glyph unicode="&#x455;" d="M110 248l165 31q3 -88 58.5 -126.5t204.5 -38.5q152 0 229 55t77 146q0 49 -41.5 82t-136.5 59l-116 31q-132 36 -185.5 65.5t-83 72t-29.5 103.5q0 72 33 144t95.5 123t152.5 77.5t199 26.5q176 0 268.5 -67t92.5 -193l-166 -20v5q0 70 -52 105.5t-169 35.5 q-138 0 -208 -48t-70 -133q0 -46 35.5 -75.5t121.5 -51.5q221 -58 279 -84t93 -59.5t49.5 -68.5t14.5 -79q0 -103 -63 -195.5t-179 -141.5t-267 -49q-205 0 -300 63.5t-102 204.5z" />
<glyph unicode="&#x456;" d="M38 0l28 142h422l155 798h-319l27 142h499l-182 -940h380l-28 -142h-982zM691 1292l37 192h200l-37 -192h-200z" />
<glyph unicode="&#x457;" d="M38 0l28 142h422l155 798h-319l27 142h499l-182 -940h380l-28 -142h-982zM508 1219l36 184h165l-36 -184h-165zM902 1219l36 184h163l-36 -184h-163z" />
<glyph unicode="&#x458;" d="M-62 -382l27 140q143 -34 266 -34q127 0 209 65.5t106 185.5l188 965h-407l27 142h587l-215 -1110q-36 -186 -169 -291.5t-340 -105.5q-79 0 -157.5 13t-121.5 30zM782 1292l37 192h200l-37 -192h-200z" />
<glyph unicode="&#x459;" d="M-82 -9l25 129q20 -7 57 -7q47 0 80 34t66.5 117.5t89.5 276.5l158 541h456l-89 -458h51q344 0 344 -232q0 -106 -55.5 -199.5t-160.5 -143t-248 -49.5h-207l187 961h-165l-126 -443q-61 -212 -114.5 -327t-113 -163t-153.5 -48q-45 0 -82 11zM663 117h51q230 0 269 201 l5 50q0 141 -197 141h-52z" />
<glyph unicode="&#x45a;" d="M-13 0l210 1082h154l-89 -458h331l89 458h154l-89 -458h54q364 0 364 -233q0 -77 -33 -154t-95 -129t-151.5 -80t-204.5 -28h-209l98 503h-331l-98 -503h-154zM649 117h54q250 0 289 201l5 49q0 70 -51.5 106t-165.5 36h-55z" />
<glyph unicode="&#x45b;" d="M80 0l232 1196h-132l26 131h132l30 157h181l-30 -157h299l-26 -131h-299q-13 -67 -21 -110t-51 -219h3q142 205 378 205q289 0 289 -259q0 -57 -13 -122l-134 -691h-181l129 665q11 58 11 98q0 88 -43.5 129t-135.5 41q-124 0 -220.5 -90.5t-127.5 -245.5l-116 -597h-180 z" />
<glyph unicode="&#x45c;" d="M113 0l210 1082h180l-92 -474q110 0 191.5 44.5t183.5 160.5l232 269h194l-289 -325q-97 -110 -182 -163l270 -594h-204l-218 509q-36 -15 -95.5 -25t-108.5 -10l-92 -474h-180zM636 1201l4 20l274 239h197l-6 -29l-345 -230h-124z" />
<glyph unicode="&#x45d;" d="M80 0l210 1082h174l-115 -592q-5 -30 -64 -277l668 869h197l-210 -1082h-172l128 660q28 133 52 213l-676 -873h-192zM490 1431l6 29h197l180 -239l-4 -20h-124z" />
<glyph unicode="&#x45e;" d="M-17 -414l26 135q36 -6 83 -6q79 0 160 59t154 188l27 49l-262 1071h192l140 -642q11 -49 29.5 -143.5t18.5 -110.5q10 22 63 110l462 786h190l-666 -1082q-140 -242 -252.5 -333.5t-243.5 -91.5q-72 0 -121 11zM421 1408l4 52h164l-2 -31q0 -61 40 -89.5t136 -28.5 q101 0 155 34t77 115h164q-59 -260 -418 -260q-320 0 -320 208z" />
<glyph unicode="&#x45f;" d="M76 0l210 1082h180l-185 -951h507l185 951h180l-210 -1082h-352l-83 -425h-163l83 425h-352z" />
<glyph unicode="&#x460;" d="M58 385q0 250 65 481t175 367.5t241 136.5q63 0 102 -27t67 -86l-105 -87q-23 50 -69 50q-54 0 -104.5 -63.5t-95 -193t-73 -293.5t-28.5 -272q0 -125 23.5 -196t66.5 -71q84 0 164 127l80 411h150l-78 -402q23 -136 107 -136q76 0 145 127.5t114 340t45 358.5 q0 127 -24.5 195t-66.5 68q-44 0 -87 -50l-75 86q93 114 217 114q98 0 151.5 -111.5t53.5 -312.5q0 -261 -66 -488t-175.5 -352.5t-238.5 -125.5q-147 0 -201 171q-117 -171 -267 -171q-103 0 -158 100.5t-55 304.5z" />
<glyph unicode="&#x461;" d="M85 1082h183l89 -914l230 430l-43 484h183l46 -914q316 430 316 769q0 94 -11 145h167q13 -56 13 -148q0 -127 -49.5 -266.5t-141.5 -292.5t-266 -375h-160l-35 392l-211 -392h-170z" />
<glyph unicode="&#x462;" d="M57 0l194 998h-141l29 147h141l39 204h191l-39 -204h459l-29 -147h-459l-42 -215h322q207 0 318.5 -82t111.5 -236q0 -138 -69.5 -244.5t-199.5 -163.5t-301 -57h-525zM277 151h307q193 0 282.5 69t89.5 212q0 191 -288 191h-299z" />
<glyph unicode="&#x463;" d="M99 943l27 139h301l78 401h180l-78 -401h298l-27 -139h-298l-55 -283h273q179 0 269 -68.5t90 -196.5q0 -180 -131 -287.5t-355 -107.5h-454l183 943h-301zM421 127h247q143 0 219.5 61.5t76.5 185.5q0 155 -216 155h-248z" />
<glyph unicode="&#x464;" d="M-42 0l262 1349h163l-114 -589h170q141 610 546 610q284 0 323 -338l-173 -62q-16 137 -58 190.5t-121 53.5q-123 0 -201 -106.5t-135 -353.5h326l-29 -145h-326q-21 -132 -21 -224q0 -129 46 -189.5t139 -60.5q51 0 94.5 25t85.5 75t114 173l142 -56 q-113 -203 -223.5 -287.5t-244.5 -84.5q-162 0 -246.5 105.5t-84.5 312.5q0 95 17 207h-170l-118 -605h-163z" />
<glyph unicode="&#x465;" d="M-6 0l210 1082h164l-91 -469h170q59 237 184.5 363t306.5 126q137 0 213 -79.5t76 -221.5v-15l-176 -14l1 26q0 170 -149 170q-105 0 -173 -82.5t-112 -272.5h334l-25 -131h-334q-13 -82 -13 -149q0 -218 159 -218q77 0 138 51.5t94 160.5l168 -12 q-48 -154 -160.5 -244.5t-259.5 -90.5q-152 0 -231.5 90t-79.5 269q0 68 11 143h-167l-94 -482h-164z" />
<glyph unicode="&#x466;" d="M-95 0l767 1349h198l243 -1349h-201l-85 532h-130l-103 -532h-175l103 532h-125l-291 -532h-201zM479 681h325l-35 221q-13 86 -21 182l-9 96l-14 -30q-78 -166 -124 -248z" />
<glyph unicode="&#x467;" d="M-36 0l643 1082h213l234 -1082h-201l-72 368h-123l-72 -368h-164l72 368h-116l-212 -368h-202zM456 504h298q-25 128 -38 193.5t-30 243.5l-56 -118l-59 -119z" />
<glyph unicode="&#x468;" d="M-42 0l262 1349h163l-128 -662h233l329 662h160l147 -1349h-162l-50 532h-95l-103 -532h-162l103 532h-91l-256 -532h-162l264 532h-186l-103 -532h-163zM636 681h264q-28 309 -31 403l-4 96q-3 -10 -40 -95.5t-51.5 -118t-137.5 -285.5z" />
<glyph unicode="&#x469;" d="M-6 0l210 1082h164l-113 -582h261l309 582h136l152 -1082h-158l-41 368h-84l-72 -368h-153l72 368h-81l-182 -368h-163l197 369h-218l-72 -369h-164zM660 504h243l-45 402z" />
<glyph unicode="&#x46a;" d="M-83 0l40 205q43 220 103 326.5t158.5 166.5t250.5 75l-199 576h1006l-415 -576q165 -17 239 -92t74 -225q0 -52 -9.5 -121.5t-61.5 -334.5h-180q56 286 63 341.5t7 85.5q0 104 -61.5 149t-199.5 50l-122 -626h-190l122 626q-128 -5 -203.5 -41t-119 -110.5t-81.5 -264.5 l-41 -210h-180zM544 1193l122 -427l276 427h-398z" />
<glyph unicode="&#x46b;" d="M-70 0l14 70q36 177 94.5 275.5t154.5 151.5t246 67l-210 518h984l-412 -518q170 -16 247 -88t77 -214q0 -83 -22 -192l-14 -70h-170q32 158 32 226q0 106 -61 153t-213 52l-84 -431h-169l84 431q-181 0 -267.5 -78.5t-126.5 -282.5l-14 -70h-170zM479 943l139 -386 l294 386h-433z" />
<glyph unicode="&#x46c;" d="M-42 0l262 1349h162l-112 -575h377l-99 575h714l-317 -576q116 -15 168.5 -74t53.5 -180q0 -43 -7 -98t-78 -421h-166q64 328 72 383.5t8 90.5q0 76 -33 111.5t-113 40.5l-122 -626h-164l122 626q-62 -4 -103.5 -24.5t-71.5 -62.5t-51.5 -110t-91.5 -429h-166l40 205 q31 167 61.5 261.5t70.5 152.5h-134l-120 -619h-162zM753 1193l44 -427l199 427h-243z" />
<glyph unicode="&#x46d;" d="M-59 0l210 1082h180l-100 -518h388l-110 518h714l-302 -518q117 -14 172 -67.5t55 -167.5q0 -42 -9.5 -111.5t-39.5 -217.5h-170q47 235 47 295q0 75 -35 103.5t-114 32.5l-84 -431h-169l84 431q-57 0 -95 -15.5t-65 -50.5t-46.5 -94.5t-61.5 -270.5h-170l14 70 q31 155 75 237.5t111 123.5h-215l-84 -431h-180zM719 943l49 -386l194 386h-243z" />
<glyph unicode="&#x46e;" d="M-60 -208q0 96 44 162.5t137.5 105.5t278.5 55q192 15 275.5 39t130.5 62t71.5 96.5t24.5 138.5q0 106 -86 154.5t-265 48.5h-71l29 148h71q406 0 406 284q0 91 -63 139.5t-177 48.5q-256 0 -397 -247l-167 61q82 137 195 220.5t269 109.5l-118 339h156l99 -325l133 216 q41 67 83 95t96 28q81 0 113 -77l-78 -62q-11 30 -39 30q-14 0 -26 -7.5t-31 -36.5l-127 -200q129 -24 202.5 -102t73.5 -196q0 -149 -91 -247t-260 -137q124 -20 194.5 -91t70.5 -183q0 -113 -35.5 -196t-101 -138.5t-176 -91.5t-321.5 -57q-176 -20 -232 -37.5 t-86.5 -46.5t-30.5 -75q0 -90 146 -90q58 0 114 13.5t109 30t102 30.5t94 14q76 0 119.5 -45t44.5 -126q0 -29 -6 -59h-152l2 24q0 20 -10.5 36.5t-50.5 16.5q-29 0 -75 -14t-103.5 -31t-123 -31t-132.5 -14q-116 0 -184 57.5t-68 159.5z" />
<glyph unicode="&#x46f;" d="M8 -205q0 92 42.5 151.5t119 94.5t237.5 57q156 22 215.5 47.5t91.5 69.5t32 116q0 82 -74 125t-222 43l26 137q184 0 267 50.5t83 150.5q0 60 -41.5 95.5t-122.5 35.5q-90 0 -153.5 -37.5t-88.5 -106.5l-158 20q74 202 295 246l-121 345h156l100 -325l133 216 q41 67 83 95t96 28q81 0 113 -77l-78 -62q-11 30 -39 30q-14 0 -26 -7.5t-31 -36.5l-131 -208q96 -23 148 -84t52 -146q0 -76 -40.5 -138.5t-110 -101.5t-149.5 -47l-1 -2q102 -10 165 -70.5t63 -152.5q0 -82 -27.5 -143t-77.5 -103.5t-135.5 -73t-262.5 -56.5 q-112 -17 -161.5 -35t-75 -47t-25.5 -72q0 -94 132 -94q58 0 107 15.5t94 33.5t87 33.5t87 15.5q74 0 115.5 -43t42.5 -125q0 -30 -6 -61h-152l3 25q0 52 -62 52q-29 0 -66 -14.5t-84 -32t-104 -32t-125 -14.5q-106 0 -170.5 61.5t-64.5 158.5z" />
<glyph unicode="&#x470;" d="M156 1349h161l15 -437q5 -139 14 -208.5t26.5 -105t50 -50.5t112.5 -15l159 816h155l-159 -816h51q132 0 223 99.5t127 279.5l85 437h161l-84 -433q-46 -241 -187.5 -380t-343.5 -139h-58l-77 -397h-155l77 397q-132 0 -187 20.5t-84 71.5t-44.5 149.5t-21.5 277.5z" />
<glyph unicode="&#x471;" d="M120 413l6 669h167l-6 -713q0 -108 11.5 -157.5t38 -70.5t78.5 -22l187 963h159l-187 -963q160 2 245.5 79.5t121.5 257.5l122 626h160l-121 -624q-49 -250 -184 -363t-371 -115l-79 -405h-159l79 405q-103 2 -159.5 39t-82.5 117.5t-26 276.5z" />
<glyph unicode="&#x472;" d="M102 430q0 161 50.5 352.5t137.5 323.5t209.5 198t276.5 66q198 0 301 -110.5t103 -331.5q0 -155 -49 -346t-139 -327.5t-214 -205.5t-274 -69q-203 0 -302.5 116.5t-99.5 333.5zM304 446q0 -311 231 -311q142 0 236.5 106.5t150.5 311.5q-48 -13 -83 -13 q-60 0 -107.5 21.5t-90 48t-85 48t-92.5 21.5q-74 0 -139 -24q-21 -119 -21 -209zM360 810q67 23 132 23q49 0 96 -17t101 -53q58 -38 99.5 -54t84.5 -16t83 10q22 120 22 210q0 301 -232 301q-274 0 -386 -404z" />
<glyph unicode="&#x473;" d="M112 367q0 79 18 175q55 279 208.5 419.5t385.5 140.5q199 0 296 -92t97 -278q0 -135 -42 -284.5t-123 -255.5t-196 -159t-256 -53q-188 0 -288 98.5t-100 288.5zM301 373q0 -260 223 -260q147 0 235 90t133 271q-78 -32 -133 -32q-52 0 -92 16.5t-75 37t-69 37t-73 16.5 q-69 0 -137 -35q-12 -69 -12 -141zM347 656q64 30 129 30q50 0 86.5 -16.5t70.5 -36.5t70 -36.5t86 -16.5q64 0 130 32q9 60 9 108q0 125 -54.5 187t-172.5 62q-259 0 -354 -313z" />
<glyph unicode="&#x474;" d="M167 1349h197l145 -902q11 -67 33 -279l45 102l91 198l335 689q53 109 121.5 155.5t139.5 46.5q60 0 106 -21.5t89 -74.5l-119 -113q-33 46 -78 46q-29 0 -56 -28t-63 -98l-541 -1070h-202z" />
<glyph unicode="&#x475;" d="M188 1082h188l101 -704q15 -108 27 -237l106 235l252 522q53 109 122.5 156.5t140.5 47.5q60 0 106 -21.5t89 -74.5l-119 -113q-33 46 -78 46q-29 0 -56 -28t-63 -98l-410 -813h-223z" />
<glyph unicode="&#x476;" d="M167 1349h201l145 -902q12 -75 29 -279l47 102l93 198l335 689q98 202 257 202q60 0 106 -21.5t89 -74.5l-119 -113q-33 46 -78 46q-29 0 -56 -28t-63 -98l-541 -1070h-202zM369 1664l6 29h207l173 -227l-4 -20h-94zM716 1664l6 29h207l173 -227l-4 -20h-94z" />
<glyph unicode="&#x477;" d="M188 1082h192l101 -704q9 -68 19 -184l4 -53l110 235l252 522q53 109 120.5 156.5t138.5 47.5q60 0 106 -21.5t89 -74.5l-119 -113q-33 46 -78 46q-29 0 -56 -28t-63 -98l-410 -813h-223zM348 1419l5 29h207l173 -227l-4 -20h-94zM695 1419l5 29h207l173 -227l-4 -20h-94 z" />
<glyph unicode="&#x478;" d="M7 342q0 321 53.5 549.5t161.5 352t256 123.5q103 0 154 -83t51 -264q0 -322 -54 -554.5t-164 -359t-259 -126.5q-105 0 -152 91.5t-47 270.5zM158 321q0 -117 18.5 -164.5t53.5 -47.5q91 0 162 115.5t105 324t34 483.5q0 114 -19 160.5t-57 46.5q-88 0 -158.5 -115 t-104.5 -320.5t-34 -482.5zM426 -414l26 135q28 -6 61 -6q34 0 65.5 21t66 70t111.5 199l-62 1077h160l23 -786l294 786h159l-451 -1082q-104 -244 -186 -334.5t-179 -90.5q-52 0 -88 11z" />
<glyph unicode="&#x479;" d="M1 323q0 231 54.5 413.5t149 274t222.5 91.5q209 0 209 -329q0 -234 -54.5 -420.5t-151 -279.5t-224.5 -93q-205 0 -205 343zM152 292q0 -101 19.5 -142t58.5 -41q124 0 190 177t66 510q0 98 -20 137.5t-62 39.5q-81 0 -139 -83.5t-85.5 -238t-27.5 -359.5zM426 -414 l26 135q28 -6 61 -6q34 0 65.5 21t66 70t111.5 199l-62 1077h160l23 -786l294 786h159l-451 -1082q-104 -244 -186 -334.5t-179 -90.5q-52 0 -88 11z" />
<glyph unicode="&#x47a;" d="M102 474q0 345 135.5 577.5t375.5 297.5q31 42 78 68t98 26t87.5 -26t51.5 -68q125 -38 188 -158t63 -309q0 -334 -135.5 -570t-373.5 -308q-30 -45 -78.5 -73t-101.5 -28q-54 0 -91.5 27.5t-51.5 71.5q-116 37 -180.5 157t-64.5 315zM304 488q0 -232 89 -307 q69 82 167 82q48 0 83 -23.5t52 -61.5q83 50 146.5 151.5t100 249.5t36.5 292q0 229 -89 298q-31 -39 -76.5 -62.5t-93.5 -23.5q-49 0 -85 23.5t-53 62.5q-87 -53 -149 -157t-95 -242.5t-33 -281.5z" />
<glyph unicode="&#x47b;" d="M41 396q0 300 141.5 486t396.5 215q64 100 164 100q51 0 81.5 -27.5t41.5 -71.5q165 -18 243.5 -123t78.5 -281q0 -304 -142 -490.5t-396 -217.5q-28 -44 -69.5 -71.5t-92.5 -27.5q-96 0 -123 96q-158 16 -241 121.5t-83 291.5zM229 392q0 -245 156 -277q28 48 71 78 t97 30q53 0 84 -29t41 -75q322 69 322 574q0 238 -156 272q-28 -46 -71 -75t-96 -29q-100 0 -125 102q-160 -35 -241.5 -179.5t-81.5 -391.5z" />
<glyph unicode="&#x47c;" d="M0 454q0 257 70 487.5t185.5 359.5t253.5 129q49 0 79.5 -17t56.5 -46l-84 -148q-9 23 -33 39t-43 16q-52 0 -100.5 -70.5t-89.5 -193.5t-70 -286.5t-29 -248.5q0 -163 39 -253t107 -90q57 0 117 42t105 113q17 -70 61 -112.5t102 -42.5q98 0 187 123.5t142.5 329 t53.5 427.5q0 121 -20.5 191.5t-59.5 70.5q-19 0 -47.5 -15.5t-49.5 -39.5l-26 148q38 29 74 46t85 17q111 0 171 -118t60 -328q0 -269 -76.5 -508t-202 -367.5t-275.5 -128.5t-217 109q-108 -109 -258 -109q-129 0 -198.5 124.5t-69.5 349.5zM419 1664q55 160 164 252.5 t243 92.5q61 0 119 -24t140 -82q79 -57 139.5 -81.5t125.5 -24.5l-25 -130q-74 0 -139.5 26t-139.5 83q-79 61 -130.5 85t-106.5 24q-93 0 -157 -54.5t-104 -166.5h-129zM705 1485q100 96 116 169h-78l27 141h171q-23 -121 -30 -145t-16 -44.5t-22 -40.5t-62 -80h-106z" />
<glyph unicode="&#x47d;" d="M12 340q0 235 67 405t203 263.5t326 93.5l-29 -150q-194 0 -286.5 -153.5t-92.5 -453.5q0 -223 126 -223q59 0 123.5 29.5t104.5 73.5q23 -45 76.5 -74t111.5 -29q84 0 148 69t99 199t35 310q0 127 -50 189.5t-163 62.5l29 150q183 0 277 -105.5t94 -303.5 q0 -217 -57 -378t-163 -248t-243 -87q-141 0 -226 83q-118 -83 -258 -83q-122 0 -187 91t-65 269zM355 1339q57 162 166 253.5t242 91.5q61 0 119 -24t140 -82q81 -59 140.5 -82.5t123.5 -23.5l-25 -130q-74 0 -139.5 26t-139.5 83q-79 61 -130.5 85t-106.5 24 q-93 0 -157 -54.5t-104 -166.5h-129zM642 1160q101 99 116 169h-78l27 141h171q-23 -121 -30 -145t-16 -44.5t-22 -40.5t-62 -80h-106z" />
<glyph unicode="&#x47e;" d="M58 385q0 250 65 481t175 367.5t241 136.5q63 0 102 -27t67 -86l-105 -87q-23 50 -69 50q-54 0 -104.5 -63.5t-95 -193t-73 -293.5t-28.5 -272q0 -125 23.5 -196t66.5 -71q84 0 164 127l80 411h150l-78 -402q23 -136 107 -136q76 0 145 127.5t114 340t45 358.5 q0 127 -24.5 195t-66.5 68q-44 0 -87 -50l-75 86q93 114 217 114q98 0 151.5 -111.5t53.5 -312.5q0 -261 -66 -488t-175.5 -352.5t-238.5 -125.5q-147 0 -201 171q-117 -171 -267 -171q-103 0 -158 100.5t-55 304.5zM395 1769h914l-128 -195h-40l-27 101h-213l-67 -101h-40 l-27 101h-213l-67 -101h-40z" />
<glyph unicode="&#x47f;" d="M85 1082h183l89 -914l230 430l-43 484h183l46 -914q316 430 316 769q0 94 -11 145h167q13 -56 13 -148q0 -127 -49.5 -266.5t-141.5 -292.5t-266 -375h-160l-35 392l-211 -392h-170zM297 1409h914l-128 -195h-40l-27 101h-213l-67 -101h-40l-27 101h-213l-67 -101h-40z " />
<glyph unicode="&#x480;" d="M116 489q0 274 82.5 475t239.5 303.5t373 102.5q335 0 401 -335l-181 -65q-15 113 -81.5 178.5t-168.5 65.5q-144 0 -248.5 -80.5t-160.5 -244.5t-56 -396q0 -358 267 -358q65 0 113 15l-113 -577h-191l80 412q-172 21 -264 150t-92 354z" />
<glyph unicode="&#x481;" d="M147 402q0 215 69.5 370t212.5 241.5t332 86.5q167 0 258.5 -85.5t91.5 -237.5l-188 -14v14q0 80 -45 131t-150 51q-390 0 -390 -534q0 -146 60 -221.5t175 -75.5q60 0 110 18l-111 -571h-180l81 415q-160 13 -243 120t-83 292z" />
<glyph unicode="&#x482;" d="M114 560l71 152l329 -94l131 277l-333 94l71 153l335 -95l213 451h159l-232 -491l334 -94l-71 -152l-335 94l-132 -277l338 -95l-71 -152l-338 96l-217 -459h-161l237 499z" />
<glyph unicode="&#x483;" horiz-adv-x="0" d="M-212 1242q0 56 43 93.5t107 37.5h347q11 54 30.5 81t47.5 41t61 14q44 0 70.5 -25t26.5 -65q0 -59 -45 -97.5t-106 -38.5h-346q-11 -54 -30.5 -80.5t-48 -41t-61.5 -14.5q-42 0 -69 25.5t-27 69.5z" />
<glyph unicode="&#x484;" horiz-adv-x="0" d="M-190 1232l28 143h105q52 0 99 16t93 36q107 46 176 46q163 0 163 -167q0 -36 -9 -79h-89q5 28 5 54q0 84 -86 84q-33 0 -69.5 -19t-79.5 -42q-79 -43 -132.5 -57.5t-101.5 -14.5h-102z" />
<glyph unicode="&#x485;" horiz-adv-x="0" d="M46 1231q0 23 2.5 48t37.5 205h196l-37 -186h-89q-4 -22 -4 -45q0 -77 43 -156h-119q-30 62 -30 134z" />
<glyph unicode="&#x486;" horiz-adv-x="0" d="M22 1097q97 104 117 201h-89l36 186h195l-28 -146q-15 -75 -39.5 -129t-72.5 -112h-119z" />
<glyph unicode="&#x487;" horiz-adv-x="0" d="M-402 1339q61 160 191 252.5t295 92.5q66 0 128.5 -21.5t173.5 -84.5q99 -57 182 -81.5t171 -24.5l-25 -130q-103 0 -192.5 27t-174.5 82q-98 61 -163.5 85t-136.5 24q-117 0 -195.5 -54.5t-124.5 -166.5h-129z" />
<glyph unicode="&#x488;" horiz-adv-x="0" d="M-987 458q0 255 217 255t217 -255h-103q0 149 -114 149t-114 -149h-103zM-867 -98q0 255 217 255t217 -255h-103q0 149 -114 149t-114 -149h-103zM-867 964q0 255 217 255t217 -255h-103q0 149 -114 149t-114 -149h-103zM-227 -342q0 255 217 255t217 -255h-103 q0 149 -114 149t-114 -149h-103zM-227 1208q0 255 217 255t217 -255h-103q0 149 -114 149t-114 -149h-103zM433 -98q0 255 217 255t217 -255h-103q0 149 -114 149t-114 -149h-103zM433 964q0 255 217 255t217 -255h-103q0 149 -114 149t-114 -149h-103zM553 458 q0 255 217 255t217 -255h-103q0 149 -114 149t-114 -149h-103z" />
<glyph unicode="&#x489;" horiz-adv-x="0" d="M-917 501v100q88 -66 169 -66v75h155v-163h-122q-68 0 -114.5 13t-87.5 41zM-762 -74q108 15 166 73l-53 53l110 110l115 -116l-86 -86q-49 -48 -90.5 -71.5t-90.5 -33.5zM-718 1160l70 71q15 -109 72 -166l53 53l111 -110l-116 -115l-86 86q-48 48 -71.5 90t-32.5 91z M-94 -59h163v-122q0 -68 -13 -114.5t-41 -87.5h-100q66 88 66 168h-75v156zM-94 1187v122q0 68 13 114.5t41 87.5h100q-66 -88 -66 -168h75v-156h-163zM427 118l115 116l86 -87q48 -48 71.5 -90t33.5 -91l-71 -70q-15 109 -72 165l-53 -53zM440 1066l86 86q48 49 90 72 t91 33l71 -71q-110 -15 -167 -72l53 -54l-109 -109zM603 499v163h122q68 0 114.5 -13t87.5 -41v-100q-88 66 -169 66v-75h-155z" />
<glyph unicode="&#x48a;" d="M57 0l262 1349h172l-168 -864q-27 -140 -71 -274l749 1138h222l-228 -1176h160l-302 -583h-172l218 410h-108l170 876q27 131 66 254l-740 -1130h-230zM464 1656l4 49h164l-2 -29q0 -64 42 -92t134 -28q105 0 158.5 36t73.5 113h164q-59 -260 -417 -260 q-107 0 -176.5 22.5t-107 67t-37.5 121.5z" />
<glyph unicode="&#x48b;" d="M80 0l210 1082h174l-115 -592q-20 -94 -64 -277l668 869h197l-179 -921h174l-285 -472h-172l201 311h-121l128 660q28 133 52 213l-676 -873h-192zM434 1447q0 36 6 73h164l-3 -46q0 -153 168 -153q191 0 241 199h164q-73 -320 -429 -320q-151 0 -231 60t-80 187z" />
<glyph unicode="&#x48c;" d="M57 0l194 997h-158l28 147h158l40 205h191l-40 -205h199l-28 -147h-199l-42 -214h322q207 0 318.5 -82t111.5 -236q0 -138 -69.5 -244.5t-199.5 -163.5t-301 -57h-525zM277 151h307q193 0 282.5 69t89.5 212q0 191 -288 191h-299z" />
<glyph unicode="&#x48d;" d="M97 0l227 1168h-122l26 131h122l35 185h180l-35 -185h119l-26 -131h-119l-106 -544h268q180 0 271.5 -59.5t91.5 -186.5q0 -178 -127.5 -278t-355.5 -100h-449zM302 127h242q151 0 221.5 55t70.5 175q0 73 -52 107.5t-167 34.5h-243z" />
<glyph unicode="&#x48e;" d="M57 0l262 1349h460q207 0 317.5 -86t110.5 -244q0 -188 -151 -341l94 -128l-126 -96l-95 130q-134 -70 -300 -70h-281l-100 -514h-191zM377 665h254q119 0 205 45l-86 118l127 97l78 -108q56 85 56 174q0 205 -285 205h-246z" />
<glyph unicode="&#x48f;" d="M-3 -425l250 1283q27 136 37 224h175q0 -20 -9 -83.5t-15 -94.5h4q70 105 157.5 152.5t211.5 47.5q308 0 308 -336q0 -153 -53.5 -341.5t-144.5 -297.5l78 -106l-117 -90l-75 101q-96 -54 -215 -54q-247 0 -295 184h-5q0 -10 -8 -56t-103 -533h-181zM343 350 q0 -121 54 -179t169 -58q87 0 150 42l-94 127l119 91l75 -104q46 85 79 229.5t33 244.5q0 108 -44.5 165t-149.5 57q-97 0 -164.5 -42.5t-117 -131t-79.5 -220t-30 -221.5z" />
<glyph unicode="&#x490;" d="M121 1l262 1348h736l69 356h180l-99 -512h-725l-232 -1192h-191z" />
<glyph unicode="&#x491;" d="M139 0l210 1082h623l78 402h163l-105 -544h-606l-183 -940h-180z" />
<glyph unicode="&#x492;" d="M66 598l29 147h169l117 604h891l-30 -156h-700l-87 -448h408l-29 -147h-408l-116 -598h-191l116 598h-169z" />
<glyph unicode="&#x493;" d="M138 514l26 132h122l84 436h785l-27 -142h-605l-57 -294h203l-26 -132h-203l-100 -514h-180l100 514h-122z" />
<glyph unicode="&#x494;" d="M58 -139l187 30q24 -95 76 -131t151 -36q132 0 228 89.5t152 271.5t56 411q0 310 -226 310q-63 0 -130.5 -17t-150.5 -62l-141 -727h-191l262 1349h891l-30 -156h-700l-61 -311q70 38 148 58t149 20q184 0 277.5 -111.5t93.5 -329.5q0 -276 -81 -493.5t-230 -334 t-346 -116.5q-166 0 -260 66.5t-124 219.5z" />
<glyph unicode="&#x495;" d="M57 -142l181 13q15 -87 68 -123t154 -36q175 0 276 119t101 330q0 131 -75 207.5t-204 76.5q-116 0 -224 -32l-80 -413h-180l210 1082h609l-27 -139h-429l-77 -396q122 35 238 35q191 0 302.5 -104.5t111.5 -286.5q0 -180 -75 -320.5t-209 -218t-295 -77.5 q-177 0 -267.5 70t-108.5 213z" />
<glyph unicode="&#x496;" d="M-105 0l454 719q-52 65 -73 158l-110 472h173l73 -386q19 -99 57.5 -150t104.5 -67l117 603h160l-117 -603q72 16 128.5 65t117.5 152l223 386h173l-293 -472q-52 -86 -135 -157l136 -560h71l-110 -568h-180l79 408h-6l-124 633q-6 -3 -47.5 -13t-59.5 -13l-118 -607 h-160l118 607q-10 1 -51.5 12t-45.5 14l-370 -633h-185z" />
<glyph unicode="&#x497;" d="M-104 0l453 608q-37 55 -81 149l-153 325h178l102 -239q46 -108 81 -154t78 -63l88 456h154l-88 -456q49 17 102.5 63.5t140.5 153.5l195 239h178l-280 -325q-91 -106 -140 -149l170 -477h75l-104 -539h-163l79 408h-24l-153 517q-12 -9 -47 -22t-58 -15l-93 -480h-154 l93 480q-23 2 -52.5 15.5t-38.5 21.5l-353 -517h-185z" />
<glyph unicode="&#x498;" d="M26 328l180 77q37 -143 118.5 -207.5t210.5 -64.5q172 0 278 80.5t106 215.5q0 100 -86.5 147.5t-266.5 47.5h-71l28 148h71q191 0 297 68.5t106 193.5q0 84 -63.5 132t-179.5 48q-259 0 -400 -247l-163 61q98 164 244 252.5t356 88.5q188 0 295 -82t107 -218 q0 -134 -89.5 -229t-257.5 -134q123 -19 195 -89t72 -177q0 -173 -136.5 -299.5t-361.5 -154.5l2 -67v-26q0 -153 -76.5 -235.5t-218.5 -82.5q-114 0 -192 34l26 135q83 -35 169 -35q82 0 122.5 48t40.5 160l-2 64q-195 5 -304 86t-156 261z" />
<glyph unicode="&#x499;" d="M78 234l168 44q17 -164 277 -164q153 0 228 56.5t75 152.5q0 83 -96 129.5t-264 46.5l26 137q199 0 307 52t108 147q0 133 -219 133q-126 0 -198.5 -35.5t-98.5 -108.5l-158 20q50 136 169 197t313 61q176 0 277 -65t101 -180q0 -76 -44.5 -137.5t-121.5 -101t-159 -47.5 l-1 -2q109 -11 180.5 -74.5t71.5 -154.5q0 -133 -98.5 -225.5t-272.5 -121.5l4 -103q0 -155 -73 -235t-218 -80q-103 0 -181 33l26 132q80 -34 158 -34q82 0 119.5 48.5t37.5 159.5l-2 67l-26 -1q-198 0 -296.5 60.5t-118.5 193.5z" />
<glyph unicode="&#x49a;" d="M63 0l262 1349h191l-114 -589q187 0 365 210l324 379h203l-380 -430q-50 -57 -97.5 -101t-106.5 -83l286 -575h111l-110 -568h-180l79 408h-42l-301 647q-30 -12 -87 -25t-94 -13l-118 -609h-191z" />
<glyph unicode="&#x49b;" d="M113 0l210 1082h180l-92 -474q110 0 191.5 44.5t183.5 160.5l232 269h194l-289 -325q-100 -112 -182 -163l210 -463h78l-104 -539h-163l79 408h-34l-218 509q-41 -16 -99.5 -25.5t-104.5 -9.5l-92 -474h-180z" />
<glyph unicode="&#x49c;" d="M63 0l262 1349h191l-114 -589q54 0 110 18l84 429h115l-70 -359q60 46 126 122l325 379h202l-380 -430q-50 -57 -97.5 -101t-106.5 -83l366 -735h-222l-267 573l-63 -326h-115l73 378q-60 -16 -110 -16l-118 -609h-191z" />
<glyph unicode="&#x49d;" d="M113 0l210 1082h180l-92 -474q57 0 94 8l64 330h105l-56 -285q73 43 168 152l232 269h194l-289 -325q-100 -112 -182 -163l270 -594h-204l-218 509l-68 -349h-105l63 322q-46 -8 -94 -8l-92 -474h-180z" />
<glyph unicode="&#x49e;" d="M63 0l198 1017h-164l28 147h164l36 185h191l-36 -185h183l-28 -147h-183l-50 -257q187 0 365 210l324 379h203l-380 -430q-50 -57 -97.5 -101t-106.5 -83l366 -735h-222l-301 647q-30 -12 -87 -25t-94 -13l-118 -609h-191z" />
<glyph unicode="&#x49f;" d="M113 0l234 1206h-208l26 131h208l28 146h180l-28 -146h224l-26 -131h-224l-116 -598q110 0 191.5 44.5t183.5 160.5l232 269h194l-289 -325q-100 -112 -182 -163l270 -594h-204l-218 509q-41 -16 -99.5 -25.5t-104.5 -9.5l-92 -474h-180z" />
<glyph unicode="&#x4a0;" d="M127 1193l30 156h435l-114 -589q170 15 335 210l324 379h203l-380 -430q-50 -57 -97.5 -101t-106.5 -83l366 -735h-212l-311 647q-26 -11 -76 -23.5t-75 -14.5l-118 -609h-191l232 1193h-244z" />
<glyph unicode="&#x4a1;" d="M138 943l27 139h475l-92 -474q46 0 79.5 18.5t79.5 66t129 150.5l195 239h188l-279 -325q-116 -134 -160 -165l238 -592h-200l-182 497q-16 -6 -50.5 -13t-63.5 -7l-92 -477h-180l183 943h-295z" />
<glyph unicode="&#x4a2;" d="M57 0l262 1349h191l-110 -566h522l110 566h191l-231 -1189h135l-110 -568h-180l79 408h-146l121 623h-522l-121 -623h-191z" />
<glyph unicode="&#x4a3;" d="M76 0l210 1082h180l-89 -458h507l89 458h180l-185 -951h121l-104 -539h-163l79 408h-138l96 493h-507l-96 -493h-180z" />
<glyph unicode="&#x4a4;" d="M27 0l262 1349h191l-110 -566h472l110 566h434l-30 -156h-243l-232 -1193h-191l121 623h-472l-121 -623h-191z" />
<glyph unicode="&#x4a5;" d="M37 0l210 1082h180l-89 -458h433l89 458h474l-27 -139h-294l-183 -943h-180l96 493h-433l-96 -493h-180z" />
<glyph unicode="&#x4a6;" d="M-21 0l262 1349h611l-91 -467q98 78 192 78q107 0 163.5 -96.5t56.5 -281.5q0 -296 -65.5 -529.5t-181.5 -355.5t-273 -122q-233 0 -253 286l166 30q6 -80 32 -123.5t85 -43.5q68 0 131 61t106.5 169.5t66.5 263t23 351.5q0 237 -97 237q-30 0 -55.5 -7.5t-48 -18.5 t-78.5 -53l-141 -727h-164l232 1193h-283l-232 -1193h-164z" />
<glyph unicode="&#x4a7;" d="M-21 0l211 1083h611l-109 -559q87 58 187 58q118 0 178.5 -77.5t60.5 -231.5q0 -335 -121 -516.5t-344 -181.5q-233 0 -253 286l166 30q6 -80 32 -123.5t85 -43.5q83 0 143.5 61t94 180t33.5 293q0 189 -111 189q-86 0 -178 -62l-75 -385h-164l180 927h-283l-180 -927 h-164z" />
<glyph unicode="&#x4a8;" d="M83 474q0 263 82.5 471t228.5 316.5t337 108.5q122 0 196 -54l-105 -132q-48 34 -121 34q-115 0 -208 -93.5t-151 -273.5t-58 -364q0 -176 67.5 -266t216.5 -90q37 0 119 17q-49 59 -75.5 162.5t-26.5 219.5q0 172 56.5 326t151 236.5t209.5 82.5q98 0 153.5 -95 t55.5 -251q0 -190 -81 -379.5t-224 -307.5q34 -16 83 -16q65 0 139 44l37 -130q-90 -60 -191 -60q-61 0 -104.5 13t-85.5 42q-118 -55 -280 -55q-421 0 -421 494zM758 540q0 -88 15.5 -170t47.5 -129q103 119 161.5 278t58.5 317q0 91 -19 140.5t-51 49.5q-54 0 -102 -64.5 t-79.5 -181.5t-31.5 -240z" />
<glyph unicode="&#x4a9;" d="M112 400q0 193 71 356.5t197.5 253.5t289.5 90q82 0 141 -27l-89 -127q-38 20 -81 20q-88 0 -164.5 -73t-127 -210.5t-50.5 -274.5q0 -148 65 -225.5t186 -77.5l70 3q-33 49 -52.5 130t-19.5 168q0 135 47.5 257t129.5 193.5t180 71.5q93 0 146 -78t53 -215 q0 -150 -59 -284.5t-172 -235.5l47 -3q66 0 124 39l36 -116q-80 -55 -187 -55q-91 0 -165 37q-88 -37 -212 -37q-193 0 -298.5 110t-105.5 310zM712 407q0 -70 12.5 -133t35.5 -97q78 71 129.5 201t51.5 253q0 70 -18 110t-48 40q-43 0 -79.5 -52t-60 -145t-23.5 -177z" />
<glyph unicode="&#x4aa;" d="M115 488q0 273 80.5 471t236 304.5t378.5 106.5q335 0 401 -335l-181 -65q-15 113 -81.5 178.5t-168.5 65.5q-144 0 -248.5 -80.5t-160.5 -244.5t-56 -396q0 -358 267 -358q210 0 377 282l146 -65q-191 -321 -465 -364l2 -92q0 -154 -76 -237.5t-219 -83.5 q-115 0 -191 34l26 135q83 -35 168 -35q82 0 122.5 48t40.5 160v34l-1 30q-195 11 -296 142t-101 365z" />
<glyph unicode="&#x4ab;" d="M112 400q0 217 71.5 373.5t217 242.5t340.5 86q179 0 281 -86t102 -237l-194 -14v3q0 88 -53 140.5t-171 52.5q-199 0 -302 -142t-103 -416q0 -284 240 -284q108 0 189.5 53t119.5 162l188 -12q-45 -132 -159.5 -222.5t-258.5 -111.5q4 -30 4 -105q0 -150 -72.5 -229 t-218.5 -79q-102 0 -180 33l25 132q80 -34 159 -34q82 0 119 48t37 156q0 53 -3 71q-184 7 -281 114.5t-97 304.5z" />
<glyph unicode="&#x4ac;" d="M203 1193l30 156h1076l-30 -156h-443l-201 -1033h140l-110 -568h-177l79 408h-153l232 1193h-443z" />
<glyph unicode="&#x4ad;" d="M208 940l28 142h968l-28 -142h-394l-157 -809h116l-105 -539h-163l79 408h-133l183 940h-394z" />
<glyph unicode="&#x4ae;" d="M193 1349h205l255 -611l491 611h205l-632 -765l-114 -584h-188l114 584z" />
<glyph unicode="&#x4af;" d="M174 1082h202l133 -692q3 -18 6.5 -42.5t18.5 -184.5q19 41 58 115t60 110l411 694h201l-669 -1082l-83 -425h-180l83 425z" />
<glyph unicode="&#x4b0;" d="M119 584l30 152h314l-269 613h205l255 -611l491 611h205l-507 -613h316l-30 -152h-412l-114 -584h-188l114 584h-410z" />
<glyph unicode="&#x4b1;" d="M70 -138l27 138h318l-241 1082h203l133 -692q3 -18 6.5 -42.5t18.5 -184.5q66 139 117 225l411 694h201l-669 -1082h318l-27 -138h-318l-56 -287h-180l56 287h-318z" />
<glyph unicode="&#x4b2;" d="M-69 0l613 705l-310 644h205l233 -513l432 513h205l-560 -644l262 -545h136l-110 -568h-180l79 408h-53l-263 573l-484 -573h-205z" />
<glyph unicode="&#x4b3;" d="M-11 0l523 556l-295 526h199l218 -421l380 421h201l-499 -524l238 -427h100l-104 -539h-163l79 408h-39l-235 444l-409 -444h-194z" />
<glyph unicode="&#x4b4;" d="M127 1193l30 156h707l-30 -156h-258l-201 -1033h392l231 1189h191l-231 -1189h175l-114 -585h-180l83 425h-769l232 1193h-258z" />
<glyph unicode="&#x4b5;" d="M86 942l27 140h694l-27 -140h-257l-158 -811h452l185 951h180l-185 -951h147l-104 -539h-163l79 408h-796l183 942h-257z" />
<glyph unicode="&#x4b6;" d="M132 687q0 45 10 98l110 564h190l-106 -544q-8 -39 -8 -71q0 -68 43 -114t154 -46q115 0 374 49l141 726h190l-231 -1189h140l-111 -568h-177l80 408h-153l93 478q-163 -35 -247 -46.5t-143 -11.5q-206 0 -277.5 79.5t-71.5 187.5z" />
<glyph unicode="&#x4b7;" d="M171 590q0 37 9 81l80 411h180l-78 -402q-4 -21 -4 -40q0 -60 43.5 -91t126.5 -31q72 0 164 17t155 35l100 512h180l-185 -951h146l-105 -539h-163l79 408h-163l91 466q-249 -91 -411 -91q-146 0 -195.5 66.5t-49.5 148.5z" />
<glyph unicode="&#x4b8;" d="M132 687q0 45 10 98l110 564h190l-106 -544q-8 -39 -8 -71q0 -68 43 -114t154 -46h3l97 498h123l-95 -490q102 12 246 41l141 726h190l-262 -1349h-190l93 478q-139 -31 -248 -47l-47 -244h-123l45 233h-17q-206 0 -277.5 79.5t-71.5 187.5z" />
<glyph unicode="&#x4b9;" d="M171 590q0 37 9 81l80 411h180l-78 -402q-4 -21 -4 -40q0 -122 169 -122l59 304h112l-57 -296q115 18 206 44l100 512h180l-211 -1082h-180l91 466q-106 -40 -211 -65l-42 -219h-112l38 198q-37 -5 -84 -5q-146 0 -195.5 66.5t-49.5 148.5z" />
<glyph unicode="&#x4ba;" d="M57 0l262 1349h190l-93 -478q163 35 244 46.5t146 11.5q206 0 277.5 -80t71.5 -189q0 -44 -10 -96l-110 -564h-190l106 544q8 39 8 71q0 68 -43 114t-154 46q-57 0 -134.5 -9t-239.5 -40l-141 -726h-190z" />
<glyph unicode="&#x4bb;" d="M80 0l288 1484h181l-75 -390q-11 -56 -48 -197h3q67 95 158.5 150t220.5 55q289 0 289 -259q0 -57 -13 -122l-140 -721h-181l135 695q11 58 11 98q0 88 -43.5 129t-135.5 41q-124 0 -220.5 -90.5t-127.5 -245.5l-122 -627h-180z" />
<glyph unicode="&#x4bc;" d="M30 790q0 80 48 178h157q-47 -85 -47 -135q0 -75 76 -84q74 308 229 464.5t383 156.5q190 0 286.5 -107t96.5 -315q0 -122 -30 -275l-16 -80h-780q-14 -95 -14 -170q0 -108 39.5 -197.5t191.5 -89.5q96 0 170 42t141 128l127 -90q-104 -125 -216.5 -180.5t-256.5 -55.5 q-200 0 -298.5 104t-99.5 320q0 86 16 189q-100 0 -151.5 50.5t-51.5 146.5zM463 747h583q14 97 14 174q0 106 -37 200t-178 94q-142 0 -233 -112t-149 -356z" />
<glyph unicode="&#x4bd;" d="M33 685q0 70 48 177h167q-47 -85 -47 -134q0 -87 104 -87h6q62 221 201 341t338 120q176 0 268 -92t92 -268q0 -102 -29 -239h-712q-15 -76 -15 -141q0 -122 54 -184.5t157 -62.5q105 0 177 47t109 119l149 -45q-145 -256 -470 -256q-180 0 -271.5 96.5t-91.5 276.5 q0 69 14 151h-32q-216 0 -216 181zM498 641h523q5 48 5 89q0 104 -41.5 171.5t-162.5 67.5q-117 0 -203 -87.5t-121 -240.5z" />
<glyph unicode="&#x4be;" d="M30 790q0 80 48 178h157q-47 -85 -47 -135q0 -75 76 -84q74 308 229 464.5t383 156.5q190 0 286.5 -107t96.5 -315q0 -122 -30 -275l-16 -80h-780q-14 -95 -14 -170q0 -108 39.5 -197.5t191.5 -89.5q96 0 170 42t141 128l127 -90q-92 -109 -186 -163.5t-208 -67.5 l-57 -294h-134l57 291q-214 16 -278.5 142.5t-64.5 279.5q0 86 16 189q-100 0 -151.5 50.5t-51.5 146.5zM463 747h583q14 97 14 174q0 106 -37 200t-178 94q-142 0 -233 -112t-149 -356z" />
<glyph unicode="&#x4bf;" d="M33 685q0 70 48 177h167q-47 -85 -47 -134q0 -87 104 -87h6q62 221 201 341t338 120q176 0 268 -92t92 -268q0 -102 -29 -239h-712q-15 -76 -15 -141q0 -122 54 -184.5t157 -62.5q105 0 177 47t109 119l149 -45q-127 -231 -400 -254l-57 -292h-133l57 294 q-180 20 -239.5 127.5t-59.5 239.5q0 70 13 153h-32q-216 0 -216 181zM498 641h523q5 48 5 89q0 104 -41.5 171.5t-162.5 67.5q-117 0 -203 -87.5t-121 -240.5z" />
<glyph unicode="&#x4c0;" d="M97 0l30 156h316l202 1037h-316l30 156h823l-30 -156h-316l-202 -1037h316l-30 -156h-823z" />
<glyph unicode="&#x4c1;" d="M-105 0l454 719q-50 64 -74 158l-109 472h173l73 -386q19 -99 57 -150t105 -67l117 603h160l-117 -603q72 16 129.5 66t116.5 151l223 386h173l-293 -472q-52 -86 -135 -157l175 -720h-185l-124 633l-17 -5l-90 -21l-118 -607h-160l118 607q-57 13 -97 26l-370 -633h-185 zM432 1692q0 36 6 73h164l-3 -48q0 -151 167 -151q192 0 242 199h164q-41 -169 -150 -244.5t-279 -75.5q-151 0 -231 60t-80 187z" />
<glyph unicode="&#x4c2;" d="M-104 0l453 608q-18 28 -46 80.5t-188 393.5h178l102 -239q47 -108 81.5 -153.5t77.5 -63.5l88 456h154l-88 -456q38 13 78 44t84.5 79.5t274.5 332.5h178l-279 -325q-91 -106 -140 -149l218 -608h-185l-153 517q-12 -9 -44.5 -21.5t-60.5 -15.5l-93 -480h-154l93 480 q-29 4 -56.5 17t-34.5 20l-353 -517h-185zM432 1447q0 36 6 73h164l-3 -48q0 -151 167 -151q192 0 242 199h164q-41 -169 -150 -244.5t-279 -75.5q-151 0 -231 60t-80 187z" />
<glyph unicode="&#x4c3;" d="M60 -134l185 30q23 -93 85 -132.5t173 -39.5q202 0 323 148.5t121 399.5q0 169 -120.5 253t-376.5 84h-78l-118 -609h-191l262 1349h191l-114 -589q187 0 365 210l324 379h203l-380 -430q-51 -58 -98.5 -99t-125.5 -84q209 -15 328.5 -131.5t119.5 -309.5 q0 -207 -86 -371t-240.5 -256.5t-336.5 -92.5q-175 0 -281 73.5t-134 217.5z" />
<glyph unicode="&#x4c4;" d="M78 -142l181 13q15 -87 68 -123t154 -36q176 0 276 119.5t100 327.5q0 102 -44.5 173t-126.5 109.5t-190 38.5h-128l-93 -480h-180l210 1082h180l-92 -474q46 0 79.5 18.5t79.5 66t129 150.5l195 239h188l-279 -325q-107 -123 -153 -160q187 -19 294 -126.5t107 -281.5 q0 -182 -75 -322t-208 -216t-296 -76q-177 0 -267.5 70t-108.5 213z" />
<glyph unicode="&#x4c5;" d="M-108 -6l30 152q19 -7 54 -7q61 0 105 36.5t88 114t99.5 222t124.5 357.5l154 480h667l-228 -1176h169l-302 -583h-172l218 410h-133l231 1189h-317l-109 -338q-119 -373 -202.5 -550.5t-171.5 -247t-221 -69.5q-58 0 -84 10z" />
<glyph unicode="&#x4c6;" d="M-95 -7l25 129q25 -9 66 -9q56 0 101.5 57t99.5 195t137 392l107 325h718l-179 -921h170l-286 -472h-172l201 311h-126l185 951h-375q-147 -444 -208.5 -595t-114 -229t-114 -112.5t-144.5 -34.5q-47 0 -91 13z" />
<glyph unicode="&#x4c7;" d="M8 -139l187 30q24 -95 76 -131t151 -36q152 0 250 139t156 435l63 325h-522l-121 -623h-191l262 1349h191l-110 -566h522l110 566h191l-202 -1040q-70 -360 -229 -547t-400 -187q-166 0 -260 66.5t-124 219.5z" />
<glyph unicode="&#x4c8;" d="M68 -141l181 13q2 -90 50 -125t152 -35q125 0 203.5 88t112.5 271l82 422h-487l-96 -493h-180l211 1082h180l-89 -458h487l89 458h180l-198 -1019q-44 -225 -181.5 -356.5t-333.5 -131.5q-178 0 -267.5 66.5t-95.5 217.5z" />
<glyph unicode="&#x4c9;" d="M57 0l262 1349h191l-110 -566h522l110 566h191l-228 -1176h160l-302 -583h-172l218 410h-129l121 623h-522l-121 -623h-191z" />
<glyph unicode="&#x4ca;" d="M86 0l210 1082h180l-89 -458h487l89 458h180l-179 -921h187l-285 -472h-172l201 311h-142l96 493h-487l-96 -493h-180z" />
<glyph unicode="&#x4cb;" d="M132 687q0 45 10 98l110 564h190l-106 -544q-8 -39 -8 -71q0 -68 43 -114t154 -46q115 0 374 49l141 726h190l-262 -1349h-148l-80 -408h-180l111 568h138l62 318q-163 -35 -247 -46.5t-143 -11.5q-206 0 -277.5 79.5t-71.5 187.5z" />
<glyph unicode="&#x4cc;" d="M171 590q0 37 9 81l80 411h180l-78 -402q-4 -21 -4 -40q0 -60 43.5 -91t126.5 -31q72 0 164 17t155 35l100 512h180l-211 -1082h-125l-79 -408h-163l105 539h108l65 335q-249 -91 -411 -91q-146 0 -195.5 66.5t-49.5 148.5z" />
<glyph unicode="&#x4cd;" d="M24 0l262 1349h237l90 -489q14 -79 23 -231l43 90l72 140l280 490h225l-228 -1176h127l-302 -583h-172l218 410h-67l169 868l64 300l-151 -290l-249 -438h-137l-81 438l-25 171l-15 119q0 -2 -19.5 -114.5t-203.5 -1053.5h-160z" />
<glyph unicode="&#x4ce;" d="M-3 0l210 1082h250l76 -641q12 -92 12 -230l-4 -76q50 150 128 306l325 641h238l-179 -921h102l-285 -472h-172l201 311h-30l141 724q18 98 52 229l-470 -953h-153l-109 951q-5 -39 -21.5 -136.5t-157.5 -814.5h-154z" />
<glyph unicode="&#x4cf;" d="M9 0l28 142h422l233 1200h-289l27 142h469l-260 -1342h380l-28 -142h-982z" />
<glyph unicode="&#x4d0;" d="M-105 0l772 1349h217l239 -1349h-194l-64 382h-563l-211 -382h-196zM382 531h463l-76 500l-24 174q-46 -91 -82.5 -161t-280.5 -513zM505 1683v11h117q7 -53 55.5 -83t139.5 -30t151 30.5t86 82.5h117q-45 -115 -146 -182t-236 -67q-130 0 -207 66t-77 172z" />
<glyph unicode="&#x4d1;" d="M73 213q0 41 9 89q68 349 523 354l236 4q17 81 19.5 102.5t2.5 45.5q0 85 -46 121t-138 36q-116 0 -175.5 -39.5t-90.5 -132.5l-185 17q54 149 172.5 220.5t307.5 71.5q340 0 340 -267q0 -45 -10 -97l-90 -466q-9 -43 -9 -76q0 -42 18 -63.5t61 -21.5q27 0 60 7l-22 -112 q-70 -16 -142 -16q-87 0 -123.5 38t-36.5 114l5 65h-6q-89 -122 -188.5 -174.5t-227.5 -52.5q-133 0 -198.5 62t-65.5 171zM265 251q0 -62 36.5 -98t108.5 -36q95 0 178 45.5t139 122.5t72 160l18 89l-191 -4q-135 -2 -209.5 -35.5t-113 -100t-38.5 -143.5zM461 1454v6h127 q8 -133 159 -133q85 0 134.5 35t78.5 98h127q-49 -122 -145 -190.5t-220 -68.5q-120 0 -190.5 69t-70.5 184z" />
<glyph unicode="&#x4d2;" d="M-105 0l772 1349h217l239 -1349h-194l-64 382h-563l-211 -382h-196zM382 531h463l-76 500l-24 174q-46 -91 -82.5 -161t-280.5 -513zM467 1445l36 184h165l-36 -184h-165zM861 1445l36 184h163l-36 -184h-163z" />
<glyph unicode="&#x4d3;" d="M73 213q0 41 9 89q68 349 523 354l236 4q17 81 19.5 102.5t2.5 45.5q0 85 -46 121t-138 36q-116 0 -175.5 -39.5t-90.5 -132.5l-185 17q54 149 172.5 220.5t307.5 71.5q340 0 340 -267q0 -45 -10 -97l-90 -466q-9 -43 -9 -76q0 -42 18 -63.5t61 -21.5q27 0 60 7l-22 -112 q-70 -16 -142 -16q-87 0 -123.5 38t-36.5 114l5 65h-6q-89 -122 -188.5 -174.5t-227.5 -52.5q-133 0 -198.5 62t-65.5 171zM265 251q0 -62 36.5 -98t108.5 -36q95 0 178 45.5t139 122.5t72 160l18 89l-191 -4q-135 -2 -209.5 -35.5t-113 -100t-38.5 -143.5zM451 1219l36 184 h165l-36 -184h-165zM845 1219l36 184h163l-36 -184h-163z" />
<glyph unicode="&#x4d4;" d="M-104 0l748 1349h667l-29 -152h-337l-84 -430h327l-29 -150h-327l-90 -465h378l-30 -152h-549l80 412h-335l-222 -412h-168zM366 561h284l125 641h-73l-119 -240z" />
<glyph unicode="&#x4d5;" d="M-38 190q0 51 12 112q68 349 399 354l167 4q27 133 27 184q0 65 -25 93t-78 28q-74 0 -115.5 -40.5t-66.5 -131.5l-165 17q47 149 139.5 220.5t232.5 71.5q178 0 220 -139q111 139 273 139q252 0 252 -321q0 -111 -29 -254l-4 -24h-529q-22 -93 -22 -190q0 -198 131 -198 q75 0 129 47t84 119l129 -45q-119 -256 -364 -256q-121 0 -178.5 54.5t-68.5 177.5q-142 -232 -343 -232q-207 0 -207 210zM135 230q0 -113 86 -113q93 0 171.5 95t105.5 233l18 89l-123 -4q-95 -3 -148 -40t-81.5 -112t-28.5 -148zM701 641h361q11 86 11 135 q0 100 -32.5 146.5t-98.5 46.5q-81 0 -144.5 -87.5t-96.5 -240.5z" />
<glyph unicode="&#x4d6;" d="M57 0l262 1349h919l-30 -156h-728l-82 -422h668l-30 -154h-668l-90 -461h769l-30 -156h-960zM525 1683v11h117q7 -53 55.5 -83t139.5 -30t151 30.5t86 82.5h117q-45 -115 -146 -182t-236 -67q-130 0 -207 66t-77 172z" />
<glyph unicode="&#x4d7;" d="M116 370q0 124 40 268.5t120 250t193 159.5t257 54q386 0 386 -379q0 -91 -21 -196l-4 -24h-772q-13 -69 -13 -121q0 -129 62.5 -198t175.5 -69q102 0 188.5 44t128.5 122l149 -45q-69 -124 -198.5 -190t-293.5 -66q-194 0 -296 100.5t-102 289.5zM344 641h584l4 72 q0 256 -230 256q-133 0 -227.5 -87t-130.5 -241zM490 1454v6h127q8 -133 159 -133q85 0 134.5 35t78.5 98h127q-49 -122 -145 -190.5t-220 -68.5q-120 0 -190.5 69t-70.5 184z" />
<glyph unicode="&#x4d8;" d="M101 424q0 113 28 253l16 80h821q13 86 13 155q0 119 -48.5 210.5t-201.5 91.5q-200 0 -331 -170l-128 90q99 117 219 176.5t275 59.5q208 0 311.5 -123t103.5 -361q0 -271 -82.5 -476.5t-237 -317.5t-356.5 -112q-198 0 -300 113t-102 331zM300 443q0 -117 46 -212.5 t188 -95.5q292 0 402 468h-623q-13 -88 -13 -160z" />
<glyph unicode="&#x4d9;" d="M116 359q0 91 21 196l4 24h772q13 69 13 121q0 129 -62.5 198t-175.5 69q-102 0 -188.5 -44t-128.5 -122l-149 45q69 124 198.5 190t293.5 66q194 0 296 -100.5t102 -289.5q0 -124 -40 -268.5t-120 -250t-193 -159.5t-257 -54q-386 0 -386 379zM296 369q0 -256 230 -256 q133 0 227.5 87t130.5 241h-584z" />
<glyph unicode="&#x4da;" d="M102 424q0 113 28 253l16 80h821q13 86 13 155q0 119 -48.5 210.5t-201.5 91.5q-200 0 -331 -170l-128 90q99 117 219 176.5t275 59.5q208 0 311.5 -123t103.5 -361q0 -271 -82.5 -476.5t-237 -317.5t-356.5 -112q-198 0 -300 113t-102 331zM301 443q0 -117 46 -212.5 t188 -95.5q292 0 402 468h-623q-13 -88 -13 -160zM520 1486l36 184h165l-36 -184h-165zM914 1486l36 184h163l-36 -184h-163z" />
<glyph unicode="&#x4db;" d="M116 359q0 91 21 196l4 24h772q13 69 13 121q0 129 -62.5 198t-175.5 69q-102 0 -188.5 -44t-128.5 -122l-149 45q69 124 198.5 190t293.5 66q194 0 296 -100.5t102 -289.5q0 -124 -40 -268.5t-120 -250t-193 -159.5t-257 -54q-386 0 -386 379zM296 369q0 -256 230 -256 q133 0 227.5 87t130.5 241h-584zM468 1219l36 184h165l-36 -184h-165zM862 1219l36 184h163l-36 -184h-163z" />
<glyph unicode="&#x4dc;" d="M-105 0l454 719q-50 64 -74 158l-109 472h173l73 -386q19 -99 57 -150t105 -67l117 603h160l-117 -603q72 16 129.5 66t116.5 151l223 386h173l-293 -472q-52 -86 -135 -157l175 -720h-185l-124 633l-17 -5l-90 -21l-118 -607h-160l118 607q-57 13 -97 26l-370 -633h-185 zM520 1486l36 184h165l-36 -184h-165zM914 1486l36 184h163l-36 -184h-163z" />
<glyph unicode="&#x4dd;" d="M-104 0l453 608q-18 28 -46 80.5t-188 393.5h178l102 -239q47 -108 81.5 -153.5t77.5 -63.5l88 456h154l-88 -456q38 13 78 44t84.5 79.5t274.5 332.5h178l-279 -325q-91 -106 -140 -149l218 -608h-185l-153 517q-12 -9 -44.5 -21.5t-60.5 -15.5l-93 -480h-154l93 480 q-29 4 -56.5 17t-34.5 20l-353 -517h-185zM468 1219l36 184h165l-36 -184h-165zM862 1219l36 184h163l-36 -184h-163z" />
<glyph unicode="&#x4de;" d="M26 328l180 77q37 -143 118 -207.5t211 -64.5q112 0 199 38.5t135.5 110t48.5 157.5q0 96 -86.5 140.5t-266.5 44.5h-71l29 148h71q196 0 299 74.5t103 195.5q0 81 -63.5 126.5t-178.5 45.5q-259 0 -400 -247l-163 61q103 172 251.5 256.5t348.5 84.5q188 0 295 -78.5 t107 -209.5q0 -86 -40.5 -164t-119.5 -132.5t-187 -78.5q125 -20 196 -87t71 -168q0 -85 -44 -175t-124 -156t-190 -103t-243 -37q-204 0 -320.5 81t-165.5 267zM526 1486l36 184h165l-36 -184h-165zM920 1486l36 184h163l-36 -184h-163z" />
<glyph unicode="&#x4df;" d="M78 234l168 44q11 -85 78.5 -124.5t198.5 -39.5q265 0 300 185l3 29q0 80 -95.5 125.5t-264.5 45.5l27 137q199 0 306.5 53t107.5 151q0 128 -219 128q-130 0 -201 -36t-96 -108l-158 20q50 137 169.5 197.5t312.5 60.5q180 0 279.5 -63.5t99.5 -173.5q0 -79 -44 -140.5 t-119.5 -102.5t-162.5 -51v-2q109 -11 180 -72t71 -149q0 -94 -62.5 -183.5t-181 -137t-282.5 -47.5q-198 0 -296 60.5t-119 193.5zM459 1219l36 184h165l-36 -184h-165zM853 1219l36 184h163l-36 -184h-163z" />
<glyph unicode="&#x4e0;" d="M36 328l180 77q37 -143 118.5 -207.5t210.5 -64.5q175 0 284 97t109 249q0 109 -84.5 169.5t-261.5 60.5h-63l28 146l518 398h-810l30 156h1032l-32 -165l-535 -399q180 -11 277 -101.5t97 -238.5q0 -143 -79.5 -264.5t-221 -191t-311.5 -69.5q-204 0 -320.5 81 t-165.5 267z" />
<glyph unicode="&#x4e1;" d="M7 -83l1 35l180 12l-1 -24q0 -120 65 -174t196 -54q105 0 192.5 56t136.5 156t49 220q0 123 -74 195t-215 72h-82l28 144l468 386h-693l27 141h873l-34 -176l-453 -362q157 -20 247.5 -119.5t90.5 -260.5q0 -158 -78 -297t-211 -215.5t-293 -76.5q-142 0 -233 39 t-139 110.5t-48 192.5z" />
<glyph unicode="&#x4e2;" d="M57 0l262 1349h172l-168 -864q-27 -140 -71 -274l749 1138h222l-262 -1349h-170l170 876q23 111 66 254l-740 -1130h-230zM474 1503l25 127h551l-25 -127h-551z" />
<glyph unicode="&#x4e3;" d="M80 0l210 1082h174l-115 -592q-5 -30 -64 -277l668 869h197l-210 -1082h-172l128 660q28 133 52 213l-676 -873h-192zM475 1235l25 127h549l-25 -127h-549z" />
<glyph unicode="&#x4e4;" d="M57 0l262 1349h172l-168 -864q-27 -140 -71 -274l749 1138h222l-262 -1349h-170l170 876q23 111 66 254l-740 -1130h-230zM520 1486l36 184h165l-36 -184h-165zM914 1486l36 184h163l-36 -184h-163z" />
<glyph unicode="&#x4e5;" d="M80 0l210 1082h174l-115 -592q-5 -30 -64 -277l668 869h197l-210 -1082h-172l128 660q28 133 52 213l-676 -873h-192zM468 1219l36 184h165l-36 -184h-165zM862 1219l36 184h163l-36 -184h-163z" />
<glyph unicode="&#x4e6;" d="M102 430q0 160 49.5 351t137 323.5t209.5 199t278 66.5q198 0 301 -110.5t103 -331.5q0 -155 -49 -346t-139 -327.5t-214 -205.5t-274 -69q-202 0 -302 116.5t-100 333.5zM304 446q0 -311 231 -311q100 0 176 52t134.5 164t95.5 277.5t37 284.5q0 301 -232 301 q-136 0 -231.5 -99.5t-153 -301.5t-57.5 -367zM520 1486l36 184h165l-36 -184h-165zM914 1486l36 184h163l-36 -184h-163z" />
<glyph unicode="&#x4e7;" d="M112 367q0 79 18 175q55 279 208.5 419.5t385.5 140.5q199 0 296 -92t97 -278q0 -135 -42 -284.5t-123 -255.5t-196 -159t-256 -53q-188 0 -288 98.5t-100 288.5zM301 373q0 -260 223 -260q101 0 172 41.5t122.5 128.5t80.5 215.5t29 221.5q0 125 -54.5 187t-172.5 62 q-132 0 -218.5 -77t-134 -230t-47.5 -289zM468 1219l36 184h165l-36 -184h-165zM862 1219l36 184h163l-36 -184h-163z" />
<glyph unicode="&#x4e8;" d="M102 430q0 161 50.5 352.5t137.5 323.5t209.5 198t276.5 66q198 0 301 -110.5t103 -331.5q0 -155 -49 -346t-139 -327.5t-214 -205.5t-274 -69q-203 0 -302.5 116.5t-99.5 333.5zM304 446q0 -311 231 -311q290 0 400 468h-618q-13 -82 -13 -157zM346 757h619 q13 93 13 156q0 301 -232 301q-146 0 -245 -112.5t-155 -344.5z" />
<glyph unicode="&#x4e9;" d="M112 367q0 79 18 175q55 279 208.5 419.5t385.5 140.5q199 0 296 -92t97 -278q0 -135 -42 -284.5t-123 -255.5t-196 -159t-256 -53q-188 0 -288 98.5t-100 288.5zM301 373q0 -260 223 -260q149 0 239 95t134 286h-586l-1 1q-9 -63 -9 -122zM338 625h583q7 46 7 95 q0 125 -54.5 187t-172.5 62q-137 0 -225.5 -84t-137.5 -260z" />
<glyph unicode="&#x4ea;" d="M102 430q0 161 50.5 352.5t137.5 323.5t209.5 198t276.5 66q198 0 301 -110.5t103 -331.5q0 -155 -49 -346t-139 -327.5t-214 -205.5t-274 -69q-203 0 -302.5 116.5t-99.5 333.5zM304 446q0 -311 231 -311q290 0 400 468h-618q-13 -82 -13 -157zM346 757h619 q13 93 13 156q0 301 -232 301q-146 0 -245 -112.5t-155 -344.5zM520 1486l36 184h165l-36 -184h-165zM914 1486l36 184h163l-36 -184h-163z" />
<glyph unicode="&#x4eb;" d="M112 367q0 79 18 175q55 279 208.5 419.5t385.5 140.5q199 0 296 -92t97 -278q0 -135 -42 -284.5t-123 -255.5t-196 -159t-256 -53q-188 0 -288 98.5t-100 288.5zM301 373q0 -260 223 -260q149 0 239 95t134 286h-586l-1 1q-9 -63 -9 -122zM338 625h583q7 46 7 95 q0 125 -54.5 187t-172.5 62q-137 0 -225.5 -84t-137.5 -260zM468 1219l36 184h165l-36 -184h-165zM862 1219l36 184h163l-36 -184h-163z" />
<glyph unicode="&#x4ec;" d="M50 352l172 65q57 -282 267 -282q170 0 276.5 123t160.5 351h-426l29 145h426q13 80 13 156q0 151 -62 227.5t-196 76.5q-101 0 -192 -64t-152 -180l-156 65q193 335 531 335q428 0 428 -443q0 -167 -51 -356t-143.5 -320.5t-221.5 -201t-292 -69.5q-331 0 -411 372z M506 1486l36 184h165l-36 -184h-165zM900 1486l36 184h163l-36 -184h-163z" />
<glyph unicode="&#x4ed;" d="M81 304q0 10 1 18l192 12v-12q0 -99 63.5 -151t171.5 -52q146 0 237 88t136 275h-382l25 131h382q8 58 8 104q0 125 -59.5 184.5t-183.5 59.5q-118 0 -197.5 -52.5t-112.5 -143.5l-190 14q59 149 197.5 236t321.5 87q202 0 306.5 -100.5t104.5 -287.5 q0 -136 -45.5 -283.5t-125 -246t-193.5 -151.5t-264 -53q-118 0 -207.5 41.5t-137.5 116t-48 166.5zM461 1219l36 184h165l-36 -184h-165zM855 1219l36 184h163l-36 -184h-163z" />
<glyph unicode="&#x4ee;" d="M-66 50l109 144q80 -59 154 -59q52 0 89.5 19t80.5 63.5t172 222.5l-362 909h215l274 -739l492 739h205l-732 -1031q-107 -151 -173 -215t-135 -93.5t-160 -29.5q-62 0 -124.5 18.5t-104.5 51.5zM474 1503l25 127h551l-25 -127h-551z" />
<glyph unicode="&#x4ef;" d="M-17 -414l26 135q36 -6 83 -6q79 0 160 59t154 188l27 49l-262 1071h192l140 -642q11 -49 29.5 -143.5t18.5 -110.5q10 22 63 110l462 786h190l-666 -1082q-140 -242 -252.5 -333.5t-243.5 -91.5q-72 0 -121 11zM475 1235l25 127h549l-25 -127h-549z" />
<glyph unicode="&#x4f0;" d="M-66 50l109 144q80 -59 154 -59q52 0 89.5 19t80.5 63.5t172 222.5l-362 909h215l274 -739l492 739h205l-732 -1031q-107 -151 -173 -215t-135 -93.5t-160 -29.5q-62 0 -124.5 18.5t-104.5 51.5zM536 1486l36 184h165l-36 -184h-165zM930 1486l36 184h163l-36 -184h-163z " />
<glyph unicode="&#x4f1;" d="M-17 -414l26 135q36 -6 83 -6q79 0 160 59t154 188l27 49l-262 1071h192l140 -642q11 -49 29.5 -143.5t18.5 -110.5q10 22 63 110l462 786h190l-666 -1082q-140 -242 -252.5 -333.5t-243.5 -91.5q-72 0 -121 11zM468 1219l36 184h165l-36 -184h-165zM862 1219l36 184h163 l-36 -184h-163z" />
<glyph unicode="&#x4f2;" d="M-66 50l109 144q80 -59 154 -59q52 0 89.5 19t80.5 63.5t172 222.5l-362 909h215l274 -739l492 739h205l-732 -1031q-107 -151 -173 -215t-135 -93.5t-160 -29.5q-62 0 -124.5 18.5t-104.5 51.5zM519 1445l4 20l241 227h207l-6 -29l-352 -218h-94zM866 1445l4 20l241 227 h207l-6 -29l-352 -218h-94z" />
<glyph unicode="&#x4f3;" d="M-17 -414l26 135q36 -6 83 -6q79 0 160 59t154 188l27 49l-262 1071h192l140 -642q11 -49 29.5 -143.5t18.5 -110.5q10 22 63 110l462 786h190l-666 -1082q-140 -242 -252.5 -333.5t-243.5 -91.5q-72 0 -121 11zM450 1201l4 20l254 239h187l-6 -29l-345 -230h-94z M814 1201l4 20l254 239h187l-6 -29l-345 -230h-94z" />
<glyph unicode="&#x4f4;" d="M133 686q0 47 10 99l109 564h190l-106 -544q-7 -35 -7 -68q0 -163 197 -163q57 0 133 9t240 40l141 726h190l-262 -1349h-190l93 478q-163 -35 -244.5 -46.5t-144.5 -11.5q-349 0 -349 266zM500 1486l36 184h165l-36 -184h-165zM894 1486l36 184h163l-36 -184h-163z" />
<glyph unicode="&#x4f5;" d="M171 590q0 35 8 81l80 411h180l-78 -402l-4 -38q0 -62 44.5 -93t126.5 -31q116 0 319 52l99 512h180l-210 -1082h-180l91 466q-249 -91 -411 -91q-124 0 -184.5 56.5t-60.5 158.5zM449 1219l36 184h165l-36 -184h-165zM843 1219l36 184h163l-36 -184h-163z" />
<glyph unicode="&#x4f6;" d="M119 0l262 1349h891l-30 -156h-700l-201 -1033h139l-110 -568h-177l79 408h-153z" />
<glyph unicode="&#x4f7;" d="M160 0l210 1082h785l-27 -142h-605l-158 -809h116l-104 -539h-163l79 408h-133z" />
<glyph unicode="&#x4f8;" d="M0 0l262 1349h171l-112 -576h62q215 0 323.5 -77t108.5 -218q0 -93 -40 -184.5t-114.5 -157t-179.5 -101t-236 -35.5h-245zM198 141h77q165 0 255 62.5t114 187.5q6 30 6 56q0 186 -287 186h-69zM520 1486l36 184h165l-36 -184h-165zM847 0l262 1349h171l-262 -1349h-171 zM914 1486l36 184h163l-36 -184h-163z" />
<glyph unicode="&#x4f9;" d="M1 0l210 1082h164l-89 -458h155q364 0 364 -233q0 -77 -33 -154t-95 -129t-151.5 -80t-204.5 -28h-320zM190 127h155q97 0 158.5 28t92.5 86t31 125q0 69 -50 101t-159 32h-156zM468 1219l36 184h165l-36 -184h-165zM853 0l210 1082h164l-210 -1082h-164zM862 1219 l36 184h163l-36 -184h-163z" />
<glyph unicode="&#x4fa;" d="M-94 -409l31 160q46 -18 116 -18q122 0 151 148l23 119h-108l118 609h-169l28 147h169l116 593h891l-31 -156h-700l-85 -437h420l-28 -147h-420l-88 -454h88l-55 -284q-58 -296 -338 -296q-60 0 -129 16z" />
<glyph unicode="&#x4fb;" d="M-62 -409l31 160q46 -18 108 -18q125 0 154 145l24 122h-95l99 514h-122l26 132h122l85 436h785l-28 -142h-605l-57 -294h203l-26 -132h-203l-69 -359h82l-55 -284q-58 -296 -338 -296q-52 0 -121 16z" />
<glyph unicode="&#x4fc;" d="M-69 0l613 705l-310 644h205l233 -513l432 513h205l-560 -644l311 -643q38 -80 38 -173q0 -134 -98 -224t-247 -90q-58 0 -129 16l32 160q54 -21 115 -21q66 0 106 40t40 103t-55 173l-242 527l-484 -573h-205z" />
<glyph unicode="&#x4fd;" d="M20 0l493 556l-265 526h199l188 -421l350 421h201l-469 -524l234 -463q45 -88 45 -193q0 -139 -92 -233t-233 -94q-58 0 -129 16l32 160q54 -21 110 -21q63 0 101.5 40t38.5 102q0 69 -53 187l-178 385l-379 -444h-194z" />
<glyph unicode="&#x4fe;" d="M-69 0l546 628h-350l30 152h351l-274 569h205l233 -513l432 513h205l-495 -569h350l-30 -152h-348l302 -628h-205l-263 573l-484 -573h-205z" />
<glyph unicode="&#x4ff;" d="M20 0l430 486h-308l29 146h304l-227 450h199l188 -421l350 421h201l-402 -450h310l-29 -146h-312l246 -486h-201l-205 444l-379 -444h-194z" />
<glyph unicode="&#x2000;" horiz-adv-x="1004" />
<glyph unicode="&#x2001;" horiz-adv-x="2009" />
<glyph unicode="&#x2002;" horiz-adv-x="1004" />
<glyph unicode="&#x2003;" horiz-adv-x="2009" />
<glyph unicode="&#x2004;" horiz-adv-x="669" />
<glyph unicode="&#x2005;" horiz-adv-x="502" />
<glyph unicode="&#x2006;" horiz-adv-x="334" />
<glyph unicode="&#x2007;" horiz-adv-x="334" />
<glyph unicode="&#x2008;" horiz-adv-x="251" />
<glyph unicode="&#x2009;" horiz-adv-x="401" />
<glyph unicode="&#x200a;" horiz-adv-x="111" />
<glyph unicode="&#x200c;" horiz-adv-x="0" d="M-42 -273v1560h84v-1560h-84z" />
<glyph unicode="&#x200d;" horiz-adv-x="0" d="M-224 1023l169 168l-169 167l55 56l169 -170l169 170l55 -56l-169 -167l169 -168l-55 -55l-127 128v-1369h-84v1369l-127 -128z" />
<glyph unicode="&#x200e;" horiz-adv-x="0" d="M-41 -273v1506h330l-132 125l55 56l223 -221l-223 -219l-55 55l132 125h-248v-1427h-82z" />
<glyph unicode="&#x200f;" horiz-adv-x="0" d="M-436 1193l223 221l55 -56l-132 -125h330v-1506h-82v1427h-248l132 -125l-55 -55z" />
<glyph unicode="&#x2010;" d="M319 464l31 160h560l-31 -160h-560z" />
<glyph unicode="&#x2011;" d="M319 464l31 160h560l-31 -160h-560z" />
<glyph unicode="&#x2012;" d="M150 451l26 137h888l-26 -137h-888z" />
<glyph unicode="&#x2013;" d="M153 451l26 137h888l-26 -137h-888z" />
<glyph unicode="&#x2014;" d="M-27 451l26 137h1248l-26 -137h-1248z" />
<glyph unicode="&#x2015;" d="M-27 451l26 137h1248l-26 -137h-1248z" />
<glyph unicode="&#x2017;" d="M-193 -425l19 96h1238l-19 -96h-1238zM-153 -220l19 96h1238l-19 -96h-1238z" />
<glyph unicode="&#x2018;" d="M460 862l431 622h123l-289 -622h-265z" />
<glyph unicode="&#x2019;" d="M462 862l289 622h265l-431 -622h-123z" />
<glyph unicode="&#x201a;" d="M173 -363l290 622h265l-432 -622h-123z" />
<glyph unicode="&#x201b;" d="M581 1484h265l49 -622h-123z" />
<glyph unicode="&#x201c;" d="M240 862l431 622h123l-289 -622h-265zM679 862l431 622h123l-289 -622h-265z" />
<glyph unicode="&#x201d;" d="M241 862l289 622h265l-431 -622h-123zM680 862l289 622h265l-431 -622h-123z" />
<glyph unicode="&#x201e;" d="M2 -364l290 622h265l-432 -622h-123zM441 -364l290 622h265l-432 -622h-123z" />
<glyph unicode="&#x201f;" d="M327 1484h265l49 -622h-123zM746 1484h265l49 -622h-123z" />
<glyph unicode="&#x2020;" d="M266 972l32 164l356 -19l45 366h195l-97 -366l365 19l-32 -164l-358 17l-247 -1202h-115l219 1202z" />
<glyph unicode="&#x2021;" d="M103 134l32 164l357 -17l102 354l35 354l-363 -17l32 164l356 -19l45 366h195l-97 -366l365 19l-32 -164l-358 17l-103 -354l-34 -354l364 17l-32 -164l-357 19l-45 -366h-195l97 366z" />
<glyph unicode="&#x2022;" d="M359 627q0 87 47.5 163t125.5 121t159 45q102 0 167.5 -63.5t65.5 -159.5q0 -86 -50.5 -163.5t-130 -123t-160.5 -45.5q-96 0 -160 63.5t-64 162.5z" />
<glyph unicode="&#x2026;" d="M12 0l43 219h175l-43 -219h-175zM424 0l43 219h172l-43 -219h-172zM833 0l43 219h174l-43 -219h-174z" />
<glyph unicode="&#x202a;" horiz-adv-x="0" d="M-41 -273v1506h476v-79h-393v-1427h-83z" />
<glyph unicode="&#x202b;" horiz-adv-x="0" d="M-435 1154v79h476v-1506h-83v1427h-393z" />
<glyph unicode="&#x202c;" horiz-adv-x="0" d="M-238 977v434h476v-434h-196v-1250h-84v1250h-196z" />
<glyph unicode="&#x202d;" horiz-adv-x="0" d="M-238 977v434h476v-79h-395v-277h395v-78h-196v-1250h-84v1250h-196z" />
<glyph unicode="&#x202e;" horiz-adv-x="0" d="M-238 977v78h395v277h-395v79h476v-434h-196v-1250h-84v1250h-196z" />
<glyph unicode="&#x202f;" horiz-adv-x="401" />
<glyph unicode="&#x2030;" d="M-26 395l707 639h147l-709 -639h-145zM100 1008q0 92 35 195t100.5 155.5t169.5 52.5q183 0 183 -188q0 -65 -20.5 -148t-60 -142.5t-96 -89t-126.5 -29.5q-185 0 -185 194zM201 194q0 92 35 195t100.5 155.5t169.5 52.5q184 0 184 -189q0 -64 -20.5 -146.5t-61 -143 t-96.5 -89.5t-125 -29q-186 0 -186 194zM231 1022q0 -53 20 -74t58 -21q47 0 79 39t50.5 113.5t18.5 131.5q0 53 -19.5 72.5t-54.5 19.5q-52 0 -82 -35.5t-50 -114.5t-20 -131zM332 209q0 -54 20 -75t58 -21q48 0 80 39t50.5 113.5t18.5 130.5q0 53 -20 73t-55 20 q-53 0 -84 -37t-49.5 -116t-18.5 -127zM706 194q0 92 35 195t100.5 155.5t169.5 52.5q183 0 183 -188q0 -65 -20.5 -148t-60 -142.5t-96 -89t-126.5 -29.5q-185 0 -185 194zM837 208q0 -53 20 -74t58 -21q46 0 78.5 38t51.5 113t19 132q0 53 -20 73t-55 20q-53 0 -84 -37 t-49.5 -116t-18.5 -128z" />
<glyph unicode="&#x2032;" d="M602 845l83 639h224l-166 -639h-141z" />
<glyph unicode="&#x2033;" d="M377 845l83 639h224l-166 -639h-141zM825 845l84 639h224l-166 -639h-142z" />
<glyph unicode="&#x2034;" d="M240 845l83 639h224l-166 -639h-141zM578 845l83 639h224l-166 -639h-141zM915 845l83 639h224l-166 -639h-141z" />
<glyph unicode="&#x2039;" d="M339 506l13 63l408 371h177l-6 -31l-408 -372l266 -367l-6 -29h-179z" />
<glyph unicode="&#x203a;" d="M288 141l6 29l409 367l-263 372l6 31h176l265 -371l-13 -63l-408 -365h-178z" />
<glyph unicode="&#x203c;" d="M132 0l39 201h194l-39 -201h-194zM235 397l161 951h196l-209 -951h-148zM689 0l39 201h194l-39 -201h-194zM792 397l161 951h196l-209 -951h-148z" />
<glyph unicode="&#x203e;" d="M172 1452l19 96h1238l-19 -96h-1238z" />
<glyph unicode="&#x2044;" d="M99 0l965 1349h115l-962 -1349h-118z" />
<glyph unicode="&#x205e;" d="M412 0l43 219h195l-43 -219h-195zM494 421l42 219h195l-42 -219h-195zM576 844l43 219h195l-43 -219h-195zM658 1265l42 219h195l-42 -219h-195z" />
<glyph unicode="&#x205f;" horiz-adv-x="502" />
<glyph unicode="&#x206a;" horiz-adv-x="0" d="M-238 977v78h196v277h-196v79h476v-79h-196v-277h196v-78h-196v-1250h-84v1250h-196z" />
<glyph unicode="&#x206b;" horiz-adv-x="0" d="M-238 977v434h476v-434h-196v-1250h-84v1250h-196zM-157 1055h314v277h-314v-277z" />
<glyph unicode="&#x206c;" horiz-adv-x="0" d="M-240 1411h480l-198 -366v-1318h-84v1318z" />
<glyph unicode="&#x206d;" horiz-adv-x="0" d="M-240 977l240 441l240 -441h-198v-1250h-84v1250h-198z" />
<glyph unicode="&#x206e;" horiz-adv-x="0" d="M-239 1193l239 221l239 -221l-197 -181v-1285h-84v1285zM-126 1193l126 -112l126 112l-126 113z" />
<glyph unicode="&#x206f;" horiz-adv-x="0" d="M-238 977v78h196v277h-196v79h280v-356h196v-78h-196v-1250h-84v1250h-196z" />
<glyph unicode="&#x20a0;" d="M122 846q0 199 68 342t207 223.5t329 80.5q155 0 245 -72.5t101 -203.5l-185 -20q-15 155 -193 155q-197 0 -289.5 -118.5t-92.5 -367.5q0 -132 57 -195.5t178 -64.5l85 437h607l-27 -139h-427l-58 -299h388l-27 -138h-388l-63 -327h452l-27 -139h-632l90 463 q-398 4 -398 383z" />
<glyph unicode="&#x20a1;" d="M17 -113l148 303q-49 110 -49 299q0 252 73 444t213 304t336 129l58 118h142l-58 -118q81 -9 144 -43l79 161h142l-119 -246q61 -82 85 -203l-180 -65l-11 52l-433 -887q207 3 372 282l146 -65q-223 -372 -555 -372l-39 1l-45 -94h-142l57 116q-72 23 -130 72l-92 -188 h-142zM318 503l336 690q-100 -35 -168.5 -129t-114.5 -256.5t-53 -304.5zM347 271q32 -78 110 -113l485 997q-55 51 -136 58z" />
<glyph unicode="&#x20a2;" d="M116 489q0 274 82.5 475t239.5 303.5t373 102.5q335 0 401 -335l-181 -65q-15 113 -81.5 178.5t-168.5 65.5q-144 0 -248.5 -80.5t-160.5 -244.5t-56 -397q0 -117 30 -203t92 -121l82 421l25 138l18 114h170l-35 -221h4q69 138 135.5 189.5t168.5 51.5q34 0 71 -10 l-32 -165q-34 10 -94 10q-111 0 -189 -95t-114 -278l-36 -187q193 20 347 281l147 -65q-223 -372 -555 -372q-212 0 -323.5 132t-111.5 377z" />
<glyph unicode="&#x20a3;" d="M-21 259l25 129h175l187 961h891l-30 -156h-700l-86 -444h676l-31 -158h-676l-40 -203h391l-25 -129h-391l-50 -259h-191l50 259h-175z" />
<glyph unicode="&#x20a4;" d="M-14 0l30 154q112 53 160.5 115t69.5 169l5 25h-186l28 142h186l29 152h-186l28 141h186l14 76q38 195 161 295.5t318 100.5q147 0 235.5 -60.5t101.5 -169.5l-185 -57q-8 63 -55.5 101t-120.5 38q-114 0 -181.5 -57.5t-91.5 -182.5l-16 -84h408l-28 -141h-408l-29 -152 h408l-28 -142h-408l-1 -7q-42 -215 -228 -303h483q85 0 145.5 44.5t91.5 131.5l159 -18q-44 -148 -147.5 -229.5t-249.5 -81.5h-698z" />
<glyph unicode="&#x20a5;" d="M0 0l165 851q7 34 13.5 71.5t12 71t9.5 57.5t4 31h149l-19 -127l-9 -48h2q57 106 117.5 150.5t136.5 44.5q87 0 121.5 -47.5t34.5 -145.5l266 435h153l-148 -242h5q87 0 127.5 -45.5t40.5 -144.5q0 -76 -22 -191l-140 -721h-168l133 686q21 112 21 170q0 60 -19.5 83.5 t-61.5 23.5h-1l-208 -343l-121 -620h-168l42 216l-254 -416h-157l483 788q29 149 34.5 194.5t5.5 73.5q0 60 -19.5 83.5t-61.5 23.5q-63 0 -121 -94t-91 -262l-118 -607h-169z" />
<glyph unicode="&#x20a6;" d="M0 409l30 155h137l45 231h-137l30 155h137l78 399h222l107 -399h325l78 399h172l-78 -399h133l-30 -155h-133l-45 -231h133l-30 -155h-133l-80 -409h-230l-108 409h-316l-80 -409h-170l80 409h-137zM337 564h244l-61 231h-138zM410 950h69l-48 180zM691 795l62 -231h146 l45 231h-253zM795 409l54 -198q9 122 22 198h-76z" />
<glyph unicode="&#x20a7;" d="M-60 0l262 1349h210q272 0 272 -236q0 -115 -51 -226t-141 -172t-203 -61h-61l-127 -654h-161zM256 795h64q62 0 105.5 38.5t69 112t25.5 136.5q0 69 -34.5 96.5t-94.5 27.5h-56zM447 553l19 97h90l87 142h71l-28 -142h149l-19 -97h-149l-74 -384l-3 -26q0 -52 56 -52 q45 0 73 7l-19 -97q-53 -11 -105 -11q-142 0 -142 117l5 44l78 402h-89zM760 137v16l111 17v-9q0 -79 60 -79t75 77l2 21q0 55 -70 110q-105 83 -105 172q0 55 27 103t74.5 73.5t115.5 25.5q65 0 100.5 -37.5t35.5 -100.5q0 -15 -1 -20l-111 -12l1 16q0 30 -12 46.5 t-33 16.5q-54 0 -69 -73l-2 -18q0 -26 18 -51t63 -60q96 -73 96 -164q0 -86 -62 -151.5t-163 -65.5q-70 0 -110.5 37.5t-40.5 109.5z" />
<glyph unicode="&#x20a8;" d="M-81 0l262 1349h210q162 0 241 -77.5t79 -212.5q0 -155 -73.5 -272t-198.5 -160l116 -627h-196l-99 575h-56l-112 -575h-173zM233 726h28q133 0 203 80.5t70 227.5q0 81 -44 121.5t-144 40.5h-22zM560 248l153 31q2 -88 35 -126.5t95 -38.5q92 0 138 56.5t46 151.5 q0 37 -14 65.5t-40.5 50t-104.5 57.5q-70 32 -103 63t-51.5 74t-18.5 105q0 175 90 268.5t254 93.5q113 0 170.5 -60t57.5 -172l-1 -28l-154 -20l1 19q0 127 -99 127q-76 0 -118.5 -52.5t-42.5 -141.5q0 -52 32 -85.5t109 -65.5q108 -46 151 -109t43 -153q0 -175 -98 -276.5 t-271 -101.5q-129 0 -191.5 62t-67.5 206z" />
<glyph unicode="&#x20a9;" d="M-25 409l30 155h122l9 231h-86l30 155h62l16 399h189l-26 -399h748l128 399h189l-141 -399h64l-30 -155h-88l-81 -231h124l-30 -155h-148l-143 -409h-208l-30 409h-169l-192 -409h-208l16 409h-147zM259 168l103 241h-77l-9 -92zM296 564h136l109 231h-230zM575 564h91 l-8 191zM790 795l18 -231h138l74 231h-230zM818 409l10 -241l70 241h-80z" />
<glyph unicode="&#x20aa;" d="M-53 0l237 1227h361q201 0 288 -75t87 -243q0 -53 -8 -117t-68 -370h-185l48 252q20 104 20 188q0 104 -47 149.5t-172 45.5h-172l-205 -1057h-184zM262 0l141 729h185l-109 -559h176q110 0 173 35t103.5 117t69.5 231l132 674h184l-133 -686q-40 -203 -107.5 -320 t-173.5 -169t-278 -52h-363z" />
<glyph unicode="&#x20ab;" d="M38 -298l26 137h888l-26 -137h-888zM110 306q0 86 23 211q108 555 500 555q121 0 194.5 -43t103.5 -141h2l5 26l52 282h-300l26 131h300l30 157h180l-30 -157h131l-26 -131h-131l-189 -973q-32 -179 -37 -223h-172v4q0 43 24 170h-5q-69 -105 -159.5 -152.5t-211.5 -47.5 q-158 0 -234 82t-76 250zM299 334q0 -115 47.5 -168t147.5 -53q94 0 163 40.5t118 124.5t78 212t29 214q0 119 -53.5 177t-171.5 58q-117 0 -192.5 -76.5t-120.5 -240t-45 -288.5z" />
<glyph unicode="&#x20ac;" d="M75 460l28 144h119q6 67 30 154h-119l28 142h129q75 234 223 352t377 118q109 0 194.5 -27t162.5 -89l-109 -140q-119 100 -263 100q-163 0 -251.5 -72.5t-141.5 -243.5h461l-28 -141h-475l-17 -78l-11 -74h474l-28 -142h-459l-4 -69q0 -133 64 -196t199 -63q74 0 146 21 t184 83l50 -135q-111 -66 -211 -95t-209 -29q-415 0 -415 413l3 67h-131z" />
<glyph unicode="&#x20ad;" d="M17 623l31 160h161l110 566h191l-110 -566h91l591 566h225l-609 -566h573l-31 -160h-463l345 -623h-224l-355 623h-26l-178 -154l-91 -469h-191l121 623h-161z" />
<glyph unicode="&#x20ae;" d="M116 151l30 154l360 171l32 166l-359 -169l30 154l360 171l77 395h-443l30 156h1076l-30 -156h-443l-58 -295l361 172l-31 -159l-360 -170l-32 -165l360 172l-31 -159l-360 -170l-81 -419h-190l62 320z" />
<glyph unicode="&#x20af;" d="M-84 98q0 71 42 115.5t104 44.5q52 0 93 -34l48 140q30 95 91.5 264t118.5 280.5t116 185.5q-80 -5 -162 -26t-130 -49l10 52q138 75 335 75q79 91 192 175l27 -22q-64 -62 -130 -153q111 -4 173.5 -99.5t62.5 -265.5q0 -187 -77 -377.5t-193.5 -297t-247.5 -106.5 q-64 0 -109 29t-88 89q-35 -54 -82 -86t-98 -32q-96 0 -96 98zM-32 111q0 -57 53 -57q72 0 112 114q-34 34 -82 34q-33 0 -58 -21.5t-25 -69.5zM230 166q70 -96 159 -96q97 0 190.5 107.5t156 290.5t62.5 343q0 134 -43 208.5t-119 74.5q-53 -79 -113 -207.5t-145 -357.5 q-99 -268 -148 -363zM544 -326q56 98 96 203l144 361q49 124 105.5 177t135.5 53q69 0 107.5 -46t38.5 -124q0 -129 -70.5 -215t-180.5 -86q-35 0 -58.5 15.5t-45.5 45.5l-76 -206q-50 -132 -79 -178h-117zM866 171q0 -50 16.5 -81.5t51.5 -31.5q60 0 99.5 68t39.5 163 q0 108 -67 108q-61 0 -100.5 -63t-39.5 -163z" />
<glyph unicode="&#x20b0;" d="M-45 0l399 542l105 -298l236 324q-49 365 -49 538t96 275.5t252 102.5q106 0 167.5 -59.5t61.5 -162.5q0 -182 -287 -570l-70 -94l59 -618l3 -73q0 -160 -94 -246t-259 -86q-72 0 -148 19l30 155q78 -34 146 -34q154 0 154 176v28l-1 28l-35 449l-307 -421l-115 275 l-176 -250h-168zM815 1072q0 -79 6 -172.5t12 -137.5q133 216 178 317.5t45 165.5q0 49 -27.5 73.5t-64.5 24.5q-71 0 -110 -70t-39 -201z" />
<glyph unicode="&#x20b1;" d="M57 0l146 750h-137l26 133h137l19 98h-137l26 133h137l45 235h460q185 0 289 -63t130 -172h129l-26 -133h-97q-11 -64 -22 -98h100l-26 -133h-141q-78 -113 -203.5 -174.5t-282.5 -61.5h-281l-100 -514h-191zM377 665h254q162 0 264 85h-501zM420 883h568q17 47 22 98 h-571zM465 1114h510q-67 82 -249 82h-246z" />
<glyph unicode="&#x20b2;" d="M116 492q0 390 162 621t465 254l23 117h124l-23 -118q140 -14 223 -93.5t110 -233.5l-182 -56q-31 195 -181 225l-98 -503h394l-111 -572q-122 -71 -226 -106t-198 -44l-37 -195h-124l37 195q-174 17 -266 151t-92 358zM316 495q0 -314 189 -353l208 1067 q-125 -18 -213 -105t-136 -241t-48 -368zM628 137q57 6 118 26t104 46l66 336h-208z" />
<glyph unicode="&#x20b3;" d="M-95 0l205 362h-145l29 149h201l128 225h-285l29 149h341l264 464h198l83 -464h343l-29 -149h-287l40 -225h203l-29 -149h-147l66 -362h-201l-58 362h-550l-198 -362h-201zM386 511h445l-36 225h-285zM592 885h180q-18 102 -26 194l-9 90q-9 -27 -145 -284z" />
<glyph unicode="&#x20b4;" d="M-6 434l29 149h142q42 45 95.5 76.5t117 55t226.5 64.5l118 29h-655l29 149h869q24 44 24 97q0 172 -247 172q-126 0 -207 -51t-127 -162l-182 33q79 176 205 250t338 74q196 0 302.5 -75.5t106.5 -218.5q0 -49 -22 -119h139l-29 -149h-198q-53 -54 -136.5 -94 t-257.5 -81q-154 -37 -194 -50h741l-29 -149h-919q-14 -24 -21 -53.5t-7 -45.5v-10q0 -95 73 -145.5t210 -50.5q301 0 399 246l178 -37q-143 -358 -601 -358q-217 0 -333.5 84.5t-116.5 239.5q0 77 17 114l7 16h-84z" />
<glyph unicode="&#x20b5;" d="M116 447q0 108 24 234q126 654 620 687l23 116h124l-23 -119q131 -16 213 -96t114 -234l-180 -65q-14 94 -60.5 154.5t-118.5 79.5l-206 -1063q88 19 169 92.5t144 183.5l146 -65q-107 -175 -229 -263.5t-261 -104.5l-42 -220h-124l42 219q-183 15 -279 132t-96 332z M316 452q0 -281 206 -313l208 1072q-95 -12 -167 -67t-125.5 -161t-87.5 -259t-34 -272z" />
<glyph unicode="&#x2122;" d="M4 1391v92h457v-92h-175v-549h-111v549h-171zM519 842v641h156l184 -465l13 -35l61 158l139 342h152v-641h-105v512l-6 -18l-200 -494h-89q-153 388 -200 512v-512h-105z" />
<glyph unicode="&#xe000;" horiz-adv-x="1080" d="M0 0v1080h1080v-1080h-1080z" />
<glyph unicode="&#xfb01;" d="M131 0l185 951h-152l25 131h152l24 122q31 151 109 214.5t209 63.5q73 0 125 -12l-27 -137q-45 8 -78 8q-67 0 -105.5 -34t-57.5 -128l-19 -97h211l-25 -131h-211l-185 -951h-180zM776 0l210 1082h180l-210 -1082h-180zM1031 1312l33 172h180l-33 -172h-180z" />
<glyph unicode="&#xfb02;" d="M131 0l185 951h-152l25 131h152l24 122q31 151 109 214.5t209 63.5q73 0 125 -12l-27 -137q-45 8 -78 8q-67 0 -105.5 -34t-57.5 -128l-19 -97h211l-25 -131h-211l-185 -951h-180zM776 0l288 1484h180l-288 -1484h-180z" />
</font>
</defs>
</svg>
