<?xml version="1.0" standalone="no"?>
<!DOCTYPE svg PUBLIC "-//W3C//DTD SVG 1.1//EN" "http://www.w3.org/Graphics/SVG/1.1/DTD/svg11.dtd" >
<svg xmlns="http://www.w3.org/2000/svg">
<metadata></metadata>
<defs>
<font id="liberation_sansbold_italic" horiz-adv-x="1139" >
<font-face units-per-em="2048" ascent="1638" descent="-410" />
<missing-glyph horiz-adv-x="569" />
<glyph horiz-adv-x="2048" />
<glyph horiz-adv-x="2048" />
<glyph unicode="&#xd;" horiz-adv-x="569" />
<glyph unicode=" "  horiz-adv-x="569" />
<glyph unicode="&#x09;" horiz-adv-x="569" />
<glyph unicode="&#xa0;" horiz-adv-x="569" />
<glyph unicode="!" horiz-adv-x="682" d="M79 0l52 270h288l-52 -270h-288zM193 426l160 983h294l-224 -983h-230z" />
<glyph unicode="&#x22;" horiz-adv-x="971" d="M219 898l72 511h273l-126 -511h-219zM645 898l72 511h275l-128 -511h-219z" />
<glyph unicode="#" d="M65 381v149h188l70 332h-207v148h238l84 385h153l-82 -385h307l84 385h156l-84 -385h164v-148h-197l-69 -332h215v-149h-246l-82 -381h-156l80 381h-307l-80 -381h-153l79 381h-155zM407 530h309l70 332h-307z" />
<glyph unicode="$" d="M-11 366l262 42q14 -177 194 -177l73 388q-180 45 -277 140t-97 229q0 123 62.5 213.5t186.5 141.5t279 51l24 126l110 -4l-27 -130q162 0 263.5 -79t114.5 -218l-261 -57q-14 77 -54.5 117.5t-100.5 40.5l-67 -353q209 -50 307.5 -138.5t98.5 -224.5q0 -213 -141 -327.5 t-423 -125.5l-33 -173h-112l32 175q-176 0 -289 93.5t-125 249.5zM412 1006q0 -49 32.5 -81.5t121.5 -61.5l67 331q-99 0 -160 -53t-61 -135zM554 231q115 0 185.5 49t70.5 133q0 77 -44 117.5t-139 62.5z" />
<glyph unicode="%" horiz-adv-x="1821" d="M112 841q0 89 24 174q84 406 410 406q150 0 229.5 -79.5t79.5 -228.5q0 -82 -26 -178q-29 -137 -90 -227t-144.5 -137t-187.5 -47q-142 0 -218.5 84t-76.5 233zM289 0l1086 1409h199l-1088 -1409h-197zM325 827q0 -142 86 -142q79 0 127.5 64.5t74.5 195.5q28 109 28 186 q0 139 -96 139q-78 0 -123 -60t-71 -184.5t-26 -198.5zM1021 302q0 89 24 174q84 406 410 406q150 0 229.5 -79.5t79.5 -228.5q0 -82 -26 -178q-29 -137 -90 -227t-144.5 -137t-187.5 -47q-142 0 -218.5 84t-76.5 233zM1234 288q0 -142 86 -142q79 0 127.5 64.5t74.5 195.5 q28 109 28 186q0 139 -96 139q-78 0 -123 -60t-71 -184.5t-26 -198.5z" />
<glyph unicode="&#x26;" horiz-adv-x="1479" d="M49 354q0 309 426 457q-15 48 -25 111t-10 115q0 172 114.5 276t313.5 104q159 0 247.5 -67.5t88.5 -189.5q0 -91 -45.5 -161.5t-131 -129t-291.5 -142.5q43 -119 81 -190t91 -142q133 142 234 365l187 -83q-45 -104 -120 -217.5t-158 -198.5q75 -64 184 -64q63 0 111 16 l-39 -203q-66 -22 -139 -22q-174 0 -305 117q-71 -55 -123 -77.5t-121 -35t-155 -12.5q-201 0 -308 96.5t-107 277.5zM304 360q0 -85 52 -137.5t137 -52.5q63 0 125 22.5t107 56.5q-124 164 -200 382q-124 -56 -172.5 -122t-48.5 -149zM667 1041q0 -81 20 -145 q142 54 192 85.5t75.5 70.5t25.5 90t-33.5 78t-91.5 27q-85 0 -136.5 -55t-51.5 -151z" />
<glyph unicode="'" horiz-adv-x="487" d="M198 898l73 511h272l-126 -511h-219z" />
<glyph unicode="(" horiz-adv-x="682" d="M74 296q0 363 132 666t387 522h281q-524 -500 -524 -1204q0 -399 147 -705h-275q-148 316 -148 721z" />
<glyph unicode=")" horiz-adv-x="682" d="M-180 -425q525 513 525 1234q0 170 -40 351t-109 324h265q161 -320 161 -691q0 -375 -134 -686t-387 -532h-281z" />
<glyph unicode="*" horiz-adv-x="797" d="M88 1042l68 197l239 -104l-18 274h215l-18 -274l235 104l68 -197l-250 -61l186 -213l-184 -121l-146 252l-149 -252l-186 123l190 211z" />
<glyph unicode="+" horiz-adv-x="1196" d="M125 569v224h399v408h226v-408h402v-224h-402v-408h-226v408h-399z" />
<glyph unicode="," horiz-adv-x="569" d="M-20 -317q78 78 129.5 161t65.5 156h-129l59 305h289l-47 -239q-23 -120 -66 -211.5t-116 -171.5h-185z" />
<glyph unicode="-" horiz-adv-x="682" d="M56 409l47 244h520l-47 -244h-520z" />
<glyph unicode="." horiz-adv-x="569" d="M46 0l59 305h289l-59 -305h-289z" />
<glyph unicode="/" horiz-adv-x="569" d="M-76 -41l587 1525h238l-583 -1525h-242z" />
<glyph unicode="0" d="M85 454q0 139 44.5 344t123.5 346t195 213.5t276 72.5q395 0 395 -466q0 -115 -38 -299q-144 -685 -603 -685q-200 0 -296.5 117.5t-96.5 356.5zM358 415q0 -214 139 -214q117 0 187.5 107.5t116 346.5t45.5 322q0 233 -152 233q-86 0 -139.5 -47t-91 -151.5t-71.5 -309 t-34 -287.5z" />
<glyph unicode="1" d="M33 0l43 231h349l179 921l-381 -214l47 242l396 229h270l-230 -1178h323l-44 -231h-952z" />
<glyph unicode="2" d="M-32 0l37 195q49 85 113 156t139.5 135.5t256.5 190.5q148 104 202 158t83.5 110t29.5 118q0 143 -162 143q-88 0 -142 -44t-81 -140l-266 59q53 179 181 264t328 85q210 0 320.5 -87.5t110.5 -259.5q0 -96 -42 -183t-126.5 -168.5t-273.5 -208.5q-132 -90 -210.5 -158 t-122.5 -134h654l-44 -231h-985z" />
<glyph unicode="3" d="M16 343l282 38q11 -90 63 -132.5t163 -42.5q104 0 162.5 56t58.5 154q0 186 -220 186h-107l44 227h73q149 0 222.5 58t73.5 164q0 72 -38.5 113.5t-118.5 41.5q-186 0 -237 -184l-267 52q102 356 515 356q203 0 317 -91t114 -253q0 -156 -97 -251t-264 -110l-1 -4 q135 -21 205.5 -99.5t70.5 -203.5q0 -124 -65 -225.5t-183 -157t-271 -55.5q-226 0 -352.5 93t-142.5 270z" />
<glyph unicode="4" d="M-34 286l41 207l717 916h370l-178 -913h188l-42 -210h-188l-54 -286h-268l54 286h-640zM259 496h389l102 524q18 90 50 186q-46 -78 -117 -170z" />
<glyph unicode="5" d="M20 329l283 45q18 -93 65.5 -130.5t141.5 -37.5q125 0 196.5 76.5t71.5 203.5q0 105 -49.5 163t-139.5 58q-123 0 -202 -91h-274l203 793h847l-43 -231h-594l-87 -334q18 16 42.5 32t55.5 29t70 21t87 8q167 0 268.5 -113t101.5 -303q0 -161 -70.5 -283.5t-202.5 -188.5 t-305 -66q-199 0 -318.5 88.5t-147.5 260.5z" />
<glyph unicode="6" d="M95 487q0 269 83.5 486.5t233 337t333.5 119.5q180 0 283.5 -83.5t121.5 -240.5l-266 -41q-14 73 -51 108t-103 35q-115 0 -200 -115t-124 -347q53 72 134.5 116.5t184.5 44.5q164 0 258.5 -100t94.5 -274q0 -151 -70 -279t-194.5 -201t-280.5 -73q-210 0 -324 133 t-114 374zM369 429q0 -105 49 -167t140 -62q107 0 170.5 81.5t63.5 217.5q0 97 -47.5 149t-130.5 52q-67 0 -124 -34t-89 -96t-32 -141z" />
<glyph unicode="7" d="M143 1178l45 231h1031l-44 -223l-162 -194q-259 -306 -374 -523t-167 -469h-298q35 182 103.5 335.5t162 293.5t209 273.5t244.5 275.5h-750z" />
<glyph unicode="8" d="M27 360q0 147 94.5 245t264.5 132v4q-92 41 -139.5 121.5t-47.5 189.5q0 177 137 277t371 100q199 0 314 -91.5t115 -246.5q0 -140 -85.5 -234t-230.5 -114l-1 -4q111 -33 170.5 -114t59.5 -193q0 -208 -148.5 -330t-407.5 -122q-222 0 -344 100.5t-122 279.5zM317 377 q0 -95 53.5 -147t149.5 -52q108 0 174 72t66 194q0 95 -53 145.5t-146 50.5q-116 0 -180 -71t-64 -192zM476 1020q0 -87 45 -133.5t127 -46.5q94 0 148.5 59.5t54.5 164.5q0 168 -172 168q-95 0 -149 -55.5t-54 -156.5z" />
<glyph unicode="9" d="M48 311l274 48q29 -157 176 -157q233 0 319 451q-65 -77 -139 -113.5t-178 -36.5q-161 0 -257 107t-96 283q0 149 71 273.5t196.5 194t277.5 69.5q200 0 319 -128.5t119 -344.5q0 -172 -48.5 -364.5t-135.5 -332t-205 -210t-262 -70.5q-182 0 -293 86t-138 245zM432 900 q0 -85 48 -137.5t131 -52.5q114 0 179 80t65 219q0 87 -50 144t-127 57q-114 0 -180 -84t-66 -226z" />
<glyph unicode=":" horiz-adv-x="682" d="M89 0l55 281h288l-55 -281h-288zM235 752l55 282h288l-55 -282h-288z" />
<glyph unicode=";" horiz-adv-x="682" d="M23 -317q78 78 129.5 161t65.5 156h-129l55 281h288l-42 -215q-23 -120 -65.5 -211t-117.5 -172h-184zM235 752l55 282h288l-55 -282h-288z" />
<glyph unicode="&#x3c;" horiz-adv-x="1196" d="M124 516v322l1027 391v-228l-833 -325l833 -324v-227z" />
<glyph unicode="=" horiz-adv-x="1196" d="M123 291v221h1027v-221h-1027zM123 842v223h1027v-223h-1027z" />
<glyph unicode="&#x3e;" horiz-adv-x="1196" d="M124 125v227l832 324l-832 325v228l1027 -391v-322z" />
<glyph unicode="?" horiz-adv-x="1251" d="M184 1048q117 382 561 382q214 0 339 -94t125 -261q0 -90 -37.5 -161t-105.5 -131.5t-225 -147.5q-78 -51 -106.5 -78t-45.5 -58t-23 -73h-267q14 77 45 134.5t79.5 104t166.5 119.5q69 43 114.5 76t72.5 63.5t38 61.5t11 70q0 63 -48 104.5t-149 41.5q-227 0 -279 -193z M309 0l52 270h289l-52 -270h-289z" />
<glyph unicode="@" horiz-adv-x="1997" d="M150 491q0 283 126.5 512t349.5 355t499 126q243 0 421 -90.5t271.5 -255.5t93.5 -383q0 -182 -63.5 -332t-175.5 -234.5t-242 -84.5q-92 0 -141.5 45.5t-49.5 126.5q0 37 6 67h-6q-50 -105 -148.5 -172t-201.5 -67q-157 0 -243.5 101.5t-86.5 283.5q0 163 64.5 306 t179 224.5t256.5 81.5q195 0 264 -174h6l39 152h156l-117 -506q-37 -172 -37 -240q0 -50 23.5 -71t54.5 -21q80 0 153 69.5t115.5 186t42.5 256.5q0 175 -76.5 309.5t-220.5 207.5t-335 73q-240 0 -423 -105t-287.5 -303t-104.5 -444q0 -195 79.5 -342.5t223.5 -223 t338 -75.5q294 0 589 155l62 -122q-168 -95 -328.5 -136t-329.5 -41q-236 0 -415.5 95.5t-280 276t-100.5 413.5zM725 491q0 -114 48.5 -180t148.5 -66q66 0 128.5 42t111.5 121.5t75.5 181t26.5 161.5q0 95 -59.5 155t-153.5 60t-168.5 -62.5t-116 -177t-41.5 -235.5z" />
<glyph unicode="A" horiz-adv-x="1479" d="M-42 0l787 1409h348l238 -1409h-292l-55 360h-537l-195 -360h-294zM566 582h395l-67 452q-18 135 -18 158q-21 -64 -98 -212z" />
<glyph unicode="B" horiz-adv-x="1479" d="M36 0l274 1409h584q251 0 380 -82.5t129 -243.5q0 -137 -82.5 -224.5t-241.5 -120.5q136 -23 212.5 -105.5t76.5 -201.5q0 -211 -156.5 -321t-470.5 -110h-705zM373 219h328q209 0 290 50.5t81 167.5q0 90 -68 138t-222 48h-330zM494 841h294q175 0 248.5 46t73.5 151 q0 80 -57 116t-191 36h-301z" />
<glyph unicode="C" horiz-adv-x="1479" d="M100 569q0 252 105 450.5t293.5 304.5t428.5 106q230 0 377.5 -98.5t198.5 -293.5l-274 -71q-29 107 -111 169t-200 62q-242 0 -379.5 -168t-137.5 -457q0 -173 85.5 -267.5t244.5 -94.5q266 0 418 258l227 -117q-210 -372 -665 -372q-191 0 -329.5 72t-210 205.5 t-71.5 311.5z" />
<glyph unicode="D" horiz-adv-x="1479" d="M36 0l274 1409h424q333 0 510 -155t177 -447q0 -236 -99 -417t-287 -285.5t-421 -104.5h-578zM375 228h230q160 0 283.5 68.5t190 197.5t66.5 300q0 189 -105.5 288t-303.5 99h-176z" />
<glyph unicode="E" horiz-adv-x="1366" d="M36 0l273 1409h1108l-44 -228h-813l-69 -354h752l-44 -228h-752l-72 -371h854l-45 -228h-1148z" />
<glyph unicode="F" horiz-adv-x="1251" d="M36 0l273 1409h986l-44 -228h-691l-85 -436h668l-44 -228h-668l-101 -517h-294z" />
<glyph unicode="G" horiz-adv-x="1593" d="M100 583q0 250 104.5 444t296 298.5t441.5 104.5q228 0 381.5 -103t206.5 -288l-282 -78q-29 113 -112 175t-210 62q-159 0 -279 -75t-184 -213t-64 -318q0 -178 95.5 -279.5t269.5 -101.5q108 0 210 26t174 70l46 228h-342l39 208h614l-105 -568q-156 -107 -312 -150.5 t-348 -43.5q-300 0 -470 158.5t-170 443.5z" />
<glyph unicode="H" horiz-adv-x="1479" d="M36 0l273 1409h295l-109 -561h626l109 561h284l-274 -1409h-284l118 604h-626l-118 -604h-294z" />
<glyph unicode="I" horiz-adv-x="569" d="M36 0l273 1409h295l-274 -1409h-294z" />
<glyph unicode="J" d="M25 379l267 58q46 -226 207 -226q54 0 91 24t61 68t42 137l143 738h-281l44 231h575l-193 -986q-45 -231 -165 -337t-336 -106q-190 0 -303.5 96t-151.5 303z" />
<glyph unicode="K" horiz-adv-x="1479" d="M36 0l273 1409h295l-130 -639l760 639h369l-747 -616l465 -793h-326l-355 640l-211 -123l-101 -517h-292z" />
<glyph unicode="L" horiz-adv-x="1251" d="M36 0l273 1409h295l-229 -1181h756l-45 -228h-1050z" />
<glyph unicode="M" horiz-adv-x="1706" d="M36 0l274 1409h395l88 -788l25 -276q36 80 67 145t464 919h393l-274 -1409h-262l172 884q26 130 74 322l-69 -151q-79 -174 -114 -239l-412 -816h-210l-94 819q-31 291 -40 387q-28 -244 -43 -319l-172 -887h-262z" />
<glyph unicode="N" horiz-adv-x="1479" d="M36 0l274 1409h350l377 -1141l12 82q11 83 29 174l174 885h262l-274 -1409h-356l-374 1131q-23 -162 -38 -239l-174 -892h-262z" />
<glyph unicode="O" horiz-adv-x="1593" d="M100 573q0 235 105.5 438.5t292.5 311t430 107.5q293 0 462 -155.5t169 -423.5q0 -247 -105.5 -450.5t-294.5 -312t-432 -108.5q-193 0 -335.5 72t-217 206.5t-74.5 314.5zM400 581q0 -184 90 -276.5t251 -92.5t275 75t176.5 223t62.5 317q0 176 -87.5 273t-253.5 97 q-162 0 -276 -75t-176 -226t-62 -315z" />
<glyph unicode="P" horiz-adv-x="1366" d="M36 0l273 1409h541q246 0 382.5 -112t136.5 -310q0 -225 -153.5 -358t-410.5 -133h-377l-98 -496h-294zM471 723h289q155 0 232.5 58t77.5 190q0 102 -64 155.5t-184 53.5h-262z" />
<glyph unicode="Q" horiz-adv-x="1593" d="M100 573q0 235 105.5 438.5t292.5 311t430 107.5q293 0 462 -155.5t169 -423.5q0 -106 -20 -202q-27 -135 -84.5 -246.5t-141.5 -196t-192.5 -139t-238.5 -75.5q19 -98 64.5 -142t134.5 -44q80 0 150 14l-45 -195q-72 -25 -169 -25q-197 0 -303.5 94t-129.5 297 q-118 19 -208.5 69.5t-152 126t-92.5 173.5t-31 213zM400 581q0 -184 90 -276.5t251 -92.5t275 75t176.5 223t62.5 317q0 176 -87.5 273t-253.5 97q-162 0 -276 -75t-176 -226t-62 -315z" />
<glyph unicode="R" horiz-adv-x="1479" d="M36 0l274 1409h651q159 0 272.5 -49t172.5 -140t59 -214q0 -165 -108.5 -280t-294.5 -143l274 -583h-326l-230 534h-346l-103 -534h-295zM479 764h393q145 0 219.5 58.5t74.5 166.5q0 93 -63.5 142t-178.5 49h-364z" />
<glyph unicode="S" horiz-adv-x="1366" d="M25 365l289 49q21 -111 93.5 -162t212.5 -51q345 0 345 199q0 80 -60 126.5t-238 91.5q-184 49 -272.5 102t-135 129.5t-46.5 187.5q0 177 157 285t416 108q238 0 382 -86.5t177 -252.5l-288 -67q-22 90 -95.5 143.5t-191.5 53.5q-124 0 -195 -46.5t-71 -127.5 q0 -47 26 -80t76 -57.5t198 -64.5q159 -44 235 -82.5t121.5 -86.5t69.5 -110t24 -143q0 -216 -166 -329.5t-488 -113.5q-267 0 -407 94.5t-168 290.5z" />
<glyph unicode="T" horiz-adv-x="1251" d="M145 1181l44 228h1206l-44 -228h-456l-230 -1181h-295l230 1181h-455z" />
<glyph unicode="U" horiz-adv-x="1479" d="M119 431q0 44 7.5 105.5t15.5 98.5l148 774h295l-153 -810q-18 -87 -18 -172q0 -103 73 -159.5t201 -56.5q165 0 250.5 76t119.5 254l168 868h295l-171 -879q-55 -281 -220 -415.5t-458 -134.5q-264 0 -408.5 117.5t-144.5 333.5z" />
<glyph unicode="V" horiz-adv-x="1366" d="M171 1409h305l114 -905q16 -147 22 -266q47 106 75.5 167t513.5 1004h308l-772 -1409h-339z" />
<glyph unicode="W" horiz-adv-x="1933" d="M150 1409h280l36 -815q7 -168 7 -346l57 144l76 185l355 832h316l42 -1161q27 73 78.5 204.5t390.5 956.5h291l-638 -1409h-350l-27 812l-4 220l-1 84q-60 -160 -91.5 -239t-373.5 -877h-355z" />
<glyph unicode="X" horiz-adv-x="1366" d="M-94 0l652 736l-338 673h309l224 -471l402 471h313l-600 -677l367 -732h-307l-253 532l-455 -532h-314z" />
<glyph unicode="Y" horiz-adv-x="1366" d="M172 1409h292l259 -605l474 605h323l-684 -831l-112 -578h-294l112 578z" />
<glyph unicode="Z" horiz-adv-x="1251" d="M-48 0l40 209l927 969h-663l45 231h1014l-40 -205l-930 -973h782l-45 -231h-1130z" />
<glyph unicode="[" horiz-adv-x="682" d="M-54 -425l370 1909h542l-37 -190h-276l-297 -1528h276l-37 -191h-541z" />
<glyph unicode="\" horiz-adv-x="569" d="M111 1485h238l183 -1526h-243z" />
<glyph unicode="]" horiz-adv-x="682" d="M-174 -425l37 191h277l297 1528h-278l37 190h542l-371 -1909h-541z" />
<glyph unicode="^" horiz-adv-x="1196" d="M85 514l391 895h322l393 -895h-229l-326 752l-324 -752h-227z" />
<glyph unicode="_" d="M-120 -172h1177v-78h-1177v78z" />
<glyph unicode="`" horiz-adv-x="682" d="M289 1459l8 43h258l195 -288l-6 -31h-148z" />
<glyph unicode="a" d="M10 278q0 185 127.5 279.5t413.5 99.5l191 3q21 95 21 131q0 128 -127 128q-94 0 -140 -36.5t-63 -105.5l-263 31q34 144 153.5 219t317.5 75q207 0 303.5 -73t96.5 -222q0 -37 -24 -157l-71 -353q-8 -45 -8 -72q0 -24 10 -37t23 -19t26 -7.5t20 -1.5q30 0 62 7l-14 -155 q-42 -16 -85 -19t-88 -3q-100 0 -154 42t-54 111q0 37 5 64h-6q-84 -130 -166 -178.5t-200 -48.5q-140 0 -223.5 83.5t-83.5 214.5zM297 325q0 -70 39.5 -109.5t106.5 -39.5q83 0 151 64.5t95 170.5l22 92h-162q-117 -2 -184.5 -48t-67.5 -130z" />
<glyph unicode="b" horiz-adv-x="1251" d="M35 0q5 15 19.5 82t29.5 141l246 1261h281l-84 -427q-28 -144 -32 -144h4q56 84 145.5 136.5t210.5 52.5q159 0 248 -94.5t89 -259.5v-14q0 -188 -62 -379.5t-174.5 -283t-286.5 -91.5q-125 0 -203 52t-110 146h-2l-28 -111l-20 -67h-271zM407 401q0 -107 53 -167.5 t148 -60.5q101 0 158 62.5t95 212t38 246.5q0 105 -35.5 159t-128.5 54q-126 0 -201.5 -88t-109.5 -265q-17 -93 -17 -153z" />
<glyph unicode="c" d="M63 405q0 195 79 366t210.5 251t327.5 80q189 0 302 -95.5t127 -265.5l-284 -23q-11 191 -167 191q-107 0 -167.5 -73.5t-109.5 -260.5q-23 -115 -23 -168q0 -234 178 -234q83 0 137 52.5t86 155.5l271 -50q-107 -351 -510 -351q-220 0 -338.5 112.5t-118.5 312.5z" />
<glyph unicode="d" horiz-adv-x="1251" d="M58 354q0 191 64 374t179.5 278.5t278.5 95.5q256 0 314 -198h5q2 20 8 60t18 102l84 418h277l-238 -1253q-20 -112 -29 -231h-281q0 63 15 160h-4q-71 -93 -153.5 -137t-203.5 -44q-154 0 -244 102t-90 273zM355 393q0 -221 160 -221q81 0 139 34.5t99 106t65 179.5 t24 189q0 120 -47 174.5t-141 54.5q-102 0 -166.5 -69t-98.5 -202t-34 -246z" />
<glyph unicode="e" d="M63 418q0 207 72 362.5t204.5 238.5t306.5 83q209 0 322.5 -107.5t113.5 -303.5q0 -99 -24 -215h-700q-7 -38 -7 -89q0 -106 46.5 -162.5t137.5 -56.5q147 0 213 169l245 -74q-75 -159 -186 -221t-291 -62q-213 0 -333 115.5t-120 322.5zM391 663h431l3 56 q0 107 -49.5 156t-129.5 49q-96 0 -161.5 -66.5t-93.5 -194.5z" />
<glyph unicode="f" horiz-adv-x="682" d="M74 0l174 892h-158l37 190h158l22 113q30 155 124.5 222t266.5 67q73 0 155 -17l-36 -181q-11 2 -43 6t-53 4q-67 0 -97 -32t-43 -97l-16 -85h213l-37 -190h-213l-174 -892h-280z" />
<glyph unicode="g" horiz-adv-x="1251" d="M-7 -142l283 30q27 -127 188 -127q110 0 171 59t95 207q20 96 31 174h-2q-63 -89 -110.5 -128t-107 -60t-136.5 -21q-155 0 -247.5 100t-92.5 264q0 201 63.5 385.5t175 272t282.5 87.5q118 0 203 -56t112 -152h2q6 29 24.5 105t23.5 84h265l-19 -83l-30 -146l-165 -843 q-47 -233 -182 -334t-389 -101q-199 0 -306 69t-132 214zM359 396q0 -199 173 -199q89 0 162 67t112.5 182.5t39.5 239.5q0 104 -52 163.5t-146 59.5q-76 0 -125.5 -32t-84 -103.5t-57 -188t-22.5 -189.5z" />
<glyph unicode="h" horiz-adv-x="1251" d="M35 0l286 1484h280l-79 -405l-39 -182h3q75 104 165.5 154t207.5 50q152 0 229 -73t77 -211q0 -25 -7 -79.5t-14 -84.5l-127 -653h-279l118 595q26 124 26 165q0 129 -152 129q-101 0 -187 -82t-108 -201l-118 -606h-282z" />
<glyph unicode="i" horiz-adv-x="569" d="M35 0l210 1082h281l-211 -1082h-280zM282 1277l41 207h281l-41 -207h-281z" />
<glyph unicode="j" horiz-adv-x="569" d="M-220 -406l36 188l58 -4q67 0 98.5 34.5t49.5 127.5l223 1142h281l-236 -1210q-29 -144 -116.5 -220.5t-227.5 -76.5q-95 0 -166 19zM283 1277l40 207h281l-40 -207h-281z" />
<glyph unicode="k" d="M35 0l288 1484h281l-167 -850l465 448h322l-473 -422l275 -660h-298l-188 497l-140 -75l-85 -422h-280z" />
<glyph unicode="l" horiz-adv-x="569" d="M35 0l288 1484h281l-289 -1484h-280z" />
<glyph unicode="m" horiz-adv-x="1821" d="M35 0l166 851q20 95 39 231h272q0 -11 -10.5 -77.5t-17.5 -107.5h3q77 116 151.5 160t176.5 44q124 0 196 -59.5t86 -172.5q80 125 162.5 178.5t191.5 53.5q138 0 211.5 -73t73.5 -211q0 -64 -21 -164l-128 -653h-279l122 627q18 90 18 139v5q-3 121 -126 121 q-91 0 -158 -77t-93 -208l-119 -607h-279l123 635q17 91 17 136q0 121 -126 121q-88 0 -156.5 -75.5t-95.5 -212.5l-118 -604h-282z" />
<glyph unicode="n" horiz-adv-x="1251" d="M35 0l166 851q16 79 38 231h268q0 -9 -9.5 -84t-14.5 -101h3q75 104 165.5 154t207.5 50q152 0 229 -73t77 -211q0 -25 -7 -79.5t-14 -84.5l-127 -653h-279l118 595q26 124 26 165q0 129 -152 129q-101 0 -187 -82t-108 -201l-118 -606h-282z" />
<glyph unicode="o" horiz-adv-x="1251" d="M63 419q0 201 79.5 356t226.5 240.5t335 85.5q235 0 358 -109.5t123 -308.5q0 -207 -81.5 -368t-231 -248t-337.5 -87q-218 0 -345 117.5t-127 321.5zM358 431q0 -259 208 -259q112 0 177.5 56.5t103 171.5t44.5 262q0 247 -208 247q-114 0 -181.5 -60t-105.5 -182.5 t-38 -235.5z" />
<glyph unicode="p" horiz-adv-x="1251" d="M-45 -425l243 1258l20 110l19 139h275q0 -14 -7.5 -77.5t-15.5 -91.5h4q72 100 154.5 144.5t200.5 44.5q159 0 248 -94.5t89 -259.5q0 -202 -62 -393.5t-174.5 -283t-286.5 -91.5q-125 0 -203 52t-110 146h-2q-7 -62 -32 -188l-80 -415h-280zM400 401q0 -107 53 -167.5 t148 -60.5q102 0 161 64t93 206t34 251q0 106 -38.5 159.5t-122.5 53.5q-126 0 -201.5 -88t-109.5 -265q-17 -93 -17 -153z" />
<glyph unicode="q" horiz-adv-x="1251" d="M59 348q0 196 64 379t180 279t277 96q130 0 201 -45.5t112 -153.5h5q25 123 47 179h270q-8 -27 -30 -133t-267 -1374h-281l85 432l36 156h-4q-75 -98 -159.5 -141t-200.5 -43q-152 0 -243.5 98t-91.5 271zM356 386q0 -104 40.5 -159t121.5 -55q127 0 202 88.5t107 266.5 q16 88 16 153q0 230 -174 230q-110 0 -176 -64.5t-101.5 -200.5t-35.5 -259z" />
<glyph unicode="r" horiz-adv-x="797" d="M35 0l161 830q24 120 42 252h268l-22 -172l-8 -49h4q73 134 144 187.5t163 53.5q47 0 103 -14l-46 -235q-69 15 -114 15q-123 0 -200.5 -87t-112.5 -267l-101 -514h-281z" />
<glyph unicode="s" d="M23 271l251 36q21 -75 77 -108t166 -33q109 0 165.5 35t56.5 101q0 52 -41.5 79.5t-182.5 57.5q-199 45 -280.5 124.5t-81.5 205.5q0 160 125.5 245t358.5 85q206 0 307 -70.5t125 -217.5l-251 -29q-17 69 -66 100t-134 31q-205 0 -205 -120q0 -33 20 -55t57 -38t178 -49 q182 -41 257 -117t75 -200q0 -174 -128.5 -264t-374.5 -90q-201 0 -317 71t-157 220z" />
<glyph unicode="t" horiz-adv-x="682" d="M86 892l37 190h162l137 254h176l-48 -254h202l-35 -190h-205l-104 -535q-11 -56 -11 -89q0 -46 23.5 -68.5t63.5 -22.5q32 0 108 13l-32 -182q-81 -24 -184 -24q-124 0 -192 58.5t-68 166.5q0 71 16 157l102 526h-148z" />
<glyph unicode="u" horiz-adv-x="1251" d="M85 265q0 25 7 80.5t14 83.5l127 653h279l-118 -595q-26 -123 -26 -165q0 -129 152 -129q101 0 186.5 81t108.5 202l118 606h282l-166 -851q-16 -79 -38 -231h-268q0 9 9.5 84t14.5 101h-3q-76 -107 -166.5 -155.5t-206.5 -48.5q-152 0 -229 73t-77 211z" />
<glyph unicode="v" d="M110 1082h289l71 -605q4 -30 13 -138t9 -131q61 143 122 266l316 608h302l-610 -1082h-336z" />
<glyph unicode="w" horiz-adv-x="1593" d="M99 1082h258l14 -696v-131l27 68l52 123l294 636h301l42 -636l5 -191l53 132l291 695h266l-495 -1082h-297l-43 660l-5 230q-53 -142 -95 -232l-302 -658h-297z" />
<glyph unicode="x" d="M-90 0l508 562l-279 520h292l173 -347l296 347h308l-483 -525l294 -557h-295l-186 383l-327 -383h-301z" />
<glyph unicode="y" d="M-85 -407l38 196q40 -9 87 -9q78 0 137.5 46t118.5 150l28 48l-212 1058h291l71 -497q6 -31 21.5 -178t13.5 -156l17 37l139 293l259 501h300l-654 -1139q-107 -167 -174.5 -235t-141 -100.5t-166.5 -32.5q-97 0 -173 18z" />
<glyph unicode="z" horiz-adv-x="1024" d="M-10 0l38 199l613 680h-440l40 203h769l-39 -201l-610 -676h527l-40 -205h-858z" />
<glyph unicode="{" horiz-adv-x="797" d="M19 433l38 192q231 4 274 227l67 338q29 146 112.5 220t237.5 74h194l-37 -190h-76q-82 0 -125 -46.5t-65 -158.5l-60 -310q-19 -94 -89 -160.5t-167 -86.5l-1 -4q74 -19 118.5 -69.5t44.5 -125.5q0 -29 -5 -52l-65 -334q-9 -42 -9 -76q0 -53 33 -79t89 -26h80l-37 -191 h-183q-119 0 -187.5 60.5t-68.5 162.5q0 44 11 101l61 308q7 35 7 68q0 154 -192 158z" />
<glyph unicode="|" horiz-adv-x="573" d="M191 -425v1909h262v-1909h-262z" />
<glyph unicode="}" horiz-adv-x="797" d="M-155 -425l37 190h76q82 0 125 46.5t65 158.5l60 310q19 95 89 161.5t167 86.5l1 3q-75 19 -119 70.5t-44 125.5q0 29 5 52l65 333q9 45 9 77q0 53 -33 79t-89 26h-80l37 191h183q119 0 187.5 -60.5t68.5 -162.5q0 -46 -11 -101l-61 -308q-7 -33 -7 -68 q0 -77 46.5 -116.5t145.5 -41.5l-38 -192q-118 -2 -185 -58.5t-89 -169.5l-67 -337q-31 -152 -115.5 -223.5t-234.5 -71.5h-194z" />
<glyph unicode="~" horiz-adv-x="1196" d="M118 543v213q113 84 271 84q80 0 156.5 -22t150.5 -48q134 -47 212 -47q134 0 248 92v-219q-64 -44 -122.5 -62t-144.5 -18q-75 0 -147.5 21t-147.5 47q-135 47 -221 47q-71 0 -130.5 -21.5t-124.5 -66.5z" />
<glyph unicode="&#xa1;" horiz-adv-x="682" d="M20 -327l222 981h230l-158 -981h-294zM247 812l53 270h288l-53 -270h-288z" />
<glyph unicode="&#xa2;" d="M76 560q0 105 18 179q56 244 190 374.5t354 141.5l31 154h162l-32 -161q142 -23 227 -116t96 -236l-284 -23q-11 191 -167 191q-107 0 -167.5 -73.5t-109.5 -260.5q-23 -115 -23 -168q0 -234 178 -234q83 0 137 52.5t86 155.5l271 -50q-52 -169 -167.5 -254t-291.5 -96 l-32 -167h-162l32 174q-165 26 -255.5 134t-90.5 283z" />
<glyph unicode="&#xa3;" d="M-51 0l39 205q94 38 151 104.5t78 171.5l25 123h-187l32 170h178l51 260q39 207 149 301.5t307 94.5q176 0 280.5 -79.5t121.5 -220.5l-245 -48q-15 84 -56.5 120.5t-112.5 36.5q-78 0 -120 -46t-62 -151l-53 -268h286l-33 -170h-286l-27 -126q-42 -195 -232 -268h408 q95 0 154.5 45t83.5 147l225 -39q-42 -179 -156 -271t-285 -92h-714z" />
<glyph unicode="&#xa4;" d="M72 328l135 137q-58 99 -58 219t60 221l-133 133l157 156l131 -133q101 59 220 59q121 0 219 -59l135 135l158 -158l-136 -135q60 -99 60 -219q0 -118 -58 -217l134 -133l-158 -160l-133 135q-100 -59 -221 -59q-122 0 -220 57l-135 -137zM375 686q0 -86 61 -147.5 t148 -61.5q85 0 146.5 62t61.5 147q0 86 -61 147.5t-147 61.5t-147.5 -61t-61.5 -148z" />
<glyph unicode="&#xa5;" d="M39 236l28 147h337l32 162h-337l28 146h276l-224 718h284l154 -596l390 596h294l-504 -718h276l-28 -146h-338l-32 -162h338l-28 -147h-338l-46 -236h-272l46 236h-336z" />
<glyph unicode="&#xa6;" horiz-adv-x="573" d="M192 324h262v-749h-262v749zM192 736v748h262v-748h-262z" />
<glyph unicode="&#xa7;" d="M-42 59l244 37q14 -83 72 -119t164 -36q136 0 207 40t71 114q0 48 -25.5 79t-72 52t-202.5 57q-321 71 -321 302q0 209 271 276q-71 39 -108 100t-37 139q0 165 123 246t374 81q204 0 313.5 -70t116.5 -204l-244 -25q-12 68 -68 98.5t-139 30.5q-228 0 -228 -133 q0 -38 26 -66t72 -48.5t155 -46.5q357 -82 357 -295q0 -112 -58 -185t-191 -115q63 -35 97.5 -93t34.5 -133q0 -182 -138.5 -276.5t-398.5 -94.5q-220 0 -334 69.5t-133 218.5zM346 626q0 -42 24.5 -71.5t68 -51t161.5 -49.5q111 9 170.5 45.5t59.5 98.5q0 69 -54.5 108.5 t-204.5 73.5q-103 -6 -164 -45t-61 -109z" />
<glyph unicode="&#xa8;" horiz-adv-x="682" d="M135 1199l42 219h214l-43 -219h-213zM568 1199l43 219h217l-43 -219h-217z" />
<glyph unicode="&#xa9;" horiz-adv-x="1509" d="M62 707q0 193 97 361t265 265t361 97q194 0 362.5 -97.5t264.5 -264.5t96 -361q0 -193 -96.5 -361.5t-265 -265t-361.5 -96.5q-197 0 -366.5 100.5t-263 267t-93.5 355.5zM177 707q0 -163 81.5 -305t222 -224t304.5 -82t306 82t223.5 224t81.5 305t-82 303.5t-224 222.5 t-305 82q-157 0 -297 -78t-225.5 -219.5t-85.5 -310.5zM394 709q0 203 102 309t293 106q130 0 217.5 -56t135.5 -173l-156 -41q-26 61 -74.5 95t-117.5 34q-109 0 -164.5 -70t-55.5 -204q0 -135 59 -209t165 -74q66 0 117 37t79 106l160 -47q-58 -125 -145 -181t-211 -56 q-193 0 -298.5 111t-105.5 313z" />
<glyph unicode="&#xaa;" horiz-adv-x="758" d="M104 884q0 117 83 179t270 65l123 2l5 26q9 36 9 61q0 82 -82 82q-60 0 -90 -23t-42 -68l-171 19q20 88 94 139.5t212 51.5q135 0 197.5 -46.5t62.5 -144.5q0 -13 -2 -28.5t-61 -303.5l-5 -47q0 -43 52 -43q17 0 41 6l-10 -102q-35 -12 -111 -12q-66 0 -101.5 26 t-35.5 72l3 41h-3q-56 -87 -109 -117t-129 -30q-89 0 -144.5 54t-55.5 141zM298 914q0 -51 25.5 -74.5t63.5 -23.5q52 0 96 41t62 112l16 60l-98 -2q-77 -2 -121 -30.5t-44 -82.5z" />
<glyph unicode="&#xab;" d="M72 500l14 71l323 367h239l-6 -41l-329 -366l188 -353l-5 -39h-232zM530 500l14 71l323 367h239l-6 -41l-329 -366l188 -353l-5 -39h-232z" />
<glyph unicode="&#xac;" horiz-adv-x="1196" d="M75 569v224h1027v-652h-224v428h-803z" />
<glyph unicode="&#xad;" horiz-adv-x="682" d="M56 409l47 244h520l-47 -244h-520z" />
<glyph unicode="&#xae;" horiz-adv-x="1509" d="M62 707q0 193 97 361t265 265t361 97q194 0 362.5 -97.5t264.5 -264.5t96 -361q0 -193 -96.5 -361.5t-265 -265t-361.5 -96.5q-197 0 -366.5 100.5t-263 267t-93.5 355.5zM177 707q0 -163 81.5 -305t222 -224t304.5 -82t306 82t223.5 224t81.5 305t-82 303.5t-224 222.5 t-305 82q-157 0 -297 -78t-225.5 -219.5t-85.5 -310.5zM480 297v815h330q153 0 229 -64.5t76 -177.5q0 -94 -48 -153t-126 -84l213 -336h-201l-178 313h-117v-313h-178zM658 739h144q66 0 99.5 35.5t33.5 93.5q0 57 -37.5 87t-106.5 30h-133v-246z" />
<glyph unicode="&#xaf;" horiz-adv-x="1131" d="M-17 1452v94h1165v-94h-1165z" />
<glyph unicode="&#xb0;" horiz-adv-x="819" d="M189 1110q0 86 42.5 159t116 114.5t161.5 41.5q135 0 228 -92.5t93 -222.5t-93.5 -222.5t-227.5 -92.5q-132 0 -226 91t-94 224zM343 1110q0 -69 49 -118.5t117 -49.5q67 0 115 49t48 119t-46.5 118t-116.5 48q-71 0 -118.5 -48.5t-47.5 -117.5z" />
<glyph unicode="&#xb1;" horiz-adv-x="1124" d="M87 0v223h1027v-223h-1027zM87 707v223h401v340h224v-340h402v-223h-402v-341h-224v341h-401z" />
<glyph unicode="&#xb2;" horiz-adv-x="682" d="M71 696l24 120q40 63 104 115t174 114q92 50 130.5 92.5t38.5 93.5q0 29 -22 48.5t-57 19.5q-88 0 -114 -97l-162 34q31 99 100 144.5t192 45.5q115 0 181 -50.5t66 -136.5q0 -60 -25 -104.5t-63.5 -79t-86.5 -61.5t-94 -51.5t-85 -49t-61 -54.5h349l-25 -143h-564z" />
<glyph unicode="&#xb3;" horiz-adv-x="682" d="M96 885l181 25q17 -99 108 -99q46 0 78.5 26.5t32.5 77.5q0 85 -111 85h-68l24 126h60q62 0 100 25t38 70q0 83 -83 83q-90 0 -115 -94l-163 24q26 98 96 145t202 47q118 0 184 -44.5t66 -134.5q0 -71 -50.5 -122t-132.5 -58l-1 -2q64 -12 103 -50.5t39 -101.5 q0 -101 -85 -163t-230 -62q-246 0 -273 197z" />
<glyph unicode="&#xb4;" horiz-adv-x="682" d="M255 1183l6 31l247 288h277l-8 -43l-376 -276h-146z" />
<glyph unicode="&#xb5;" horiz-adv-x="1180" d="M-47 -425l291 1507h281l-118 -605q-11 -59 -13 -119q0 -165 125 -165q81 0 141 80t86 231l112 578h281l-147 -757q-9 -45 -9 -65q0 -69 50 -69q23 0 46 7l-16 -193q-106 -25 -188 -25q-88 0 -126.5 32.5t-38.5 109.5v21l2 21h-4q-42 -87 -95 -135.5t-134 -48.5 q-59 0 -97.5 24.5t-53.5 65.5h-6l-16 -115l-73 -380h-280z" />
<glyph unicode="&#xb6;" d="M106 1049q0 169 98.5 264.5t272.5 95.5h629v-143h-131v-1530h-156v1530h-195v-1530h-155v958q-169 0 -266 92.5t-97 262.5z" />
<glyph unicode="&#xb7;" horiz-adv-x="682" d="M189 531l59 305h288l-59 -305h-288z" />
<glyph unicode="&#xb8;" horiz-adv-x="682" d="M88 -419l29 117q42 -7 82 -7q81 0 118 17.5t37 59.5q0 63 -110 63h-25l-28 -2l98 171h141l-48 -83q70 -1 113.5 -33.5t43.5 -98.5q0 -97 -84 -153.5t-261 -56.5q-50 0 -106 6z" />
<glyph unicode="&#xb9;" horiz-adv-x="682" d="M98 693l23 121h184l91 468l-194 -108l24 122l202 117h175l-116 -599h170l-23 -121h-536z" />
<glyph unicode="&#xba;" horiz-adv-x="748" d="M102 980q0 197 114 317.5t299 120.5q153 0 233 -73.5t80 -202.5q0 -203 -116.5 -328t-302.5 -125q-142 0 -224.5 78.5t-82.5 212.5zM306 987q0 -79 31.5 -120t91.5 -41q50 0 76 12t46.5 37t34 56.5t24 77.5t15.5 119q0 73 -31.5 112.5t-92.5 39.5q-52 0 -86 -19 t-58.5 -58t-37.5 -101.5t-13 -114.5z" />
<glyph unicode="&#xbb;" d="M38 139l6 41l329 366l-188 353l5 39h232l192 -361l-14 -71l-323 -367h-239zM496 139l6 41l329 366l-188 353l5 39h232l192 -361l-14 -71l-323 -367h-239z" />
<glyph unicode="&#xbc;" horiz-adv-x="1708" d="M98 693l23 121h184l91 468l-194 -108l24 122l202 117h175l-116 -599h170l-23 -121h-536zM232 0l1086 1409h199l-1088 -1409h-197zM890 141l28 148l395 432h219l-84 -437h103l-28 -143h-103l-27 -140h-183l27 140h-347zM1063 284h202l62 299l-17 -22q-37 -52 -69 -86z" />
<glyph unicode="&#xbd;" horiz-adv-x="1708" d="M98 693l23 121h184l91 468l-194 -108l24 122l202 117h175l-116 -599h170l-23 -121h-536zM232 0l1086 1409h199l-1088 -1409h-197zM949 1l24 120q40 63 104 115t174 114q92 50 130.5 92.5t38.5 93.5q0 29 -22 48.5t-57 19.5q-88 0 -114 -97l-162 34q31 99 100 144.5 t192 45.5q115 0 181 -50.5t66 -136.5q0 -60 -25 -104.5t-63.5 -79t-86.5 -61.5t-94 -51.5t-85 -49t-61 -54.5h349l-25 -143h-564z" />
<glyph unicode="&#xbe;" horiz-adv-x="1708" d="M110 885l181 25q17 -99 108 -99q46 0 78.5 26.5t32.5 77.5q0 85 -111 85h-68l24 126h60q62 0 100 25t38 70q0 83 -83 83q-90 0 -115 -94l-163 24q26 98 96 145t202 47q118 0 184 -44.5t66 -134.5q0 -71 -50.5 -122t-132.5 -58l-1 -2q64 -12 103 -50.5t39 -101.5 q0 -101 -85 -163t-230 -62q-246 0 -273 197zM232 0l1086 1409h199l-1088 -1409h-197zM890 141l28 148l395 432h219l-84 -437h103l-28 -143h-103l-27 -140h-183l27 140h-347zM1063 284h202l62 299l-17 -22q-37 -52 -69 -86z" />
<glyph unicode="&#xbf;" horiz-adv-x="1251" d="M26 7q0 90 37.5 161t105.5 131.5t225 147.5q83 55 110 81.5t43.5 57t21.5 70.5h267q-14 -77 -45 -134.5t-79.5 -104t-166.5 -119.5q-69 -43 -114.5 -76t-72.5 -63.5t-38 -61.5t-11 -70q0 -63 48 -104.5t149 -41.5q227 0 279 193l266 -40q-117 -382 -561 -382 q-214 0 -339 94t-125 261zM585 812l52 270h289l-52 -270h-289z" />
<glyph unicode="&#xc0;" horiz-adv-x="1479" d="M-42 0l787 1409h348l238 -1409h-292l-55 360h-537l-195 -360h-294zM566 582h395l-67 452q-18 135 -18 158q-21 -64 -98 -212zM650 1765l9 43h238l203 -247l-7 -31h-139z" />
<glyph unicode="&#xc1;" horiz-adv-x="1479" d="M-42 0l787 1409h348l238 -1409h-292l-55 360h-537l-195 -360h-294zM566 582h395l-67 452q-18 135 -18 158q-21 -64 -98 -212zM764 1530l7 31l270 247h267l-9 -43l-386 -235h-149z" />
<glyph unicode="&#xc2;" horiz-adv-x="1479" d="M-42 0l787 1409h348l238 -1409h-292l-55 360h-537l-195 -360h-294zM547 1530l5 29l311 276h229l196 -276l-5 -29h-149l-174 151h-4l-240 -151h-169zM566 582h395l-67 452q-18 135 -18 158q-21 -64 -98 -212z" />
<glyph unicode="&#xc3;" horiz-adv-x="1479" d="M-42 0l787 1409h348l238 -1409h-292l-55 360h-537l-195 -360h-294zM511 1530q39 158 108.5 225.5t172.5 67.5q45 0 86.5 -19t78.5 -42.5t70 -42.5t62 -19q43 0 71 28t52 95h135q-39 -158 -108.5 -225.5t-171.5 -67.5q-44 0 -84.5 19t-78 42.5t-71.5 42.5t-64 19 q-42 0 -69.5 -25.5t-52.5 -97.5h-136zM566 582h395l-67 452q-18 135 -18 158q-21 -64 -98 -212z" />
<glyph unicode="&#xc4;" horiz-adv-x="1479" d="M-42 0l787 1409h348l238 -1409h-292l-55 360h-537l-195 -360h-294zM566 582h395l-67 452q-18 135 -18 158q-21 -64 -98 -212zM607 1530l42 219h214l-43 -219h-213zM1040 1530l43 219h217l-43 -219h-217z" />
<glyph unicode="&#xc5;" horiz-adv-x="1479" d="M-42 0l787 1409h348l238 -1409h-292l-55 360h-537l-195 -360h-294zM566 582h395l-67 452q-18 135 -18 158q-21 -64 -98 -212zM672 1538q0 105 74.5 179.5t179.5 74.5t179.5 -74.5t74.5 -179.5t-73.5 -179.5t-180.5 -74.5t-180.5 74.5t-73.5 179.5zM801 1538q0 -56 37 -92 t88 -36q53 0 90 37t37 91q0 51 -36.5 88t-90.5 37q-51 0 -88 -36t-37 -89z" />
<glyph unicode="&#xc6;" horiz-adv-x="2048" d="M-97 0l965 1409h1231l-45 -227h-701l-69 -355h639l-43 -221h-639l-73 -379h742l-44 -227h-1029l70 360h-450l-242 -360h-312zM602 582h348l118 610h-61l-136 -209z" />
<glyph unicode="&#xc7;" horiz-adv-x="1479" d="M81 569q0 252 105 450.5t293.5 304.5t428.5 106q230 0 377.5 -98.5t198.5 -293.5l-274 -71q-29 107 -111 169t-200 62q-242 0 -379.5 -168t-137.5 -457q0 -173 85.5 -267.5t244.5 -94.5q266 0 418 258l227 -117q-210 -372 -665 -372q-191 0 -329.5 72t-210 205.5 t-71.5 311.5zM437 -419l29 117q42 -7 82 -7q81 0 118 17.5t37 59.5q0 63 -110 63h-25l-28 -2l98 171h141l-48 -83q70 -1 113.5 -33.5t43.5 -98.5q0 -97 -84 -153.5t-261 -56.5q-50 0 -106 6z" />
<glyph unicode="&#xc8;" horiz-adv-x="1366" d="M36 0l273 1409h1108l-44 -228h-813l-69 -354h752l-44 -228h-752l-72 -371h854l-45 -228h-1148zM556 1765l9 43h238l203 -247l-7 -31h-139z" />
<glyph unicode="&#xc9;" horiz-adv-x="1366" d="M36 0l273 1409h1108l-44 -228h-813l-69 -354h752l-44 -228h-752l-72 -371h854l-45 -228h-1148zM714 1530l7 31l270 247h267l-9 -43l-386 -235h-149z" />
<glyph unicode="&#xca;" horiz-adv-x="1366" d="M36 0l273 1409h1108l-44 -228h-813l-69 -354h752l-44 -228h-752l-72 -371h854l-45 -228h-1148zM513 1530l5 29l311 276h229l196 -276l-5 -29h-149l-174 151h-4l-240 -151h-169z" />
<glyph unicode="&#xcb;" horiz-adv-x="1366" d="M36 0l273 1409h1108l-44 -228h-813l-69 -354h752l-44 -228h-752l-72 -371h854l-45 -228h-1148zM562 1530l42 219h214l-43 -219h-213zM995 1530l43 219h217l-43 -219h-217z" />
<glyph unicode="&#xcc;" horiz-adv-x="569" d="M36 0l273 1409h295l-274 -1409h-294zM178 1765l9 43h238l203 -247l-7 -31h-139z" />
<glyph unicode="&#xcd;" horiz-adv-x="569" d="M36 0l273 1409h295l-274 -1409h-294zM326 1530l7 31l270 247h267l-9 -43l-386 -235h-149z" />
<glyph unicode="&#xce;" horiz-adv-x="569" d="M36 0l273 1409h295l-274 -1409h-294zM105 1530l5 29l311 276h229l196 -276l-5 -29h-149l-174 151h-4l-240 -151h-169z" />
<glyph unicode="&#xcf;" horiz-adv-x="569" d="M36 0l273 1409h295l-274 -1409h-294zM151 1530l42 219h214l-43 -219h-213zM584 1530l43 219h217l-43 -219h-217z" />
<glyph unicode="&#xd0;" horiz-adv-x="1479" d="M23 594l42 219h129l116 596h424q333 0 510 -155t177 -447q0 -236 -99 -417t-287 -285.5t-421 -104.5h-578l115 594h-128zM375 228h230q160 0 283.5 68.5t190 197.5t66.5 300q0 189 -105.5 288t-303.5 99h-176l-72 -368h357l-44 -219h-355z" />
<glyph unicode="&#xd1;" horiz-adv-x="1479" d="M36 0l274 1409h350l377 -1141l12 82q11 83 29 174l174 885h262l-274 -1409h-356l-374 1131q-23 -162 -38 -239l-174 -892h-262zM544 1530q39 158 108.5 225.5t172.5 67.5q45 0 86.5 -19t78.5 -42.5t70 -42.5t62 -19q43 0 71 28t52 95h135q-39 -158 -108.5 -225.5 t-171.5 -67.5q-44 0 -84.5 19t-78 42.5t-71.5 42.5t-64 19q-42 0 -69.5 -25.5t-52.5 -97.5h-136z" />
<glyph unicode="&#xd2;" horiz-adv-x="1593" d="M100 573q0 235 105.5 438.5t292.5 311t430 107.5q293 0 462 -155.5t169 -423.5q0 -247 -105.5 -450.5t-294.5 -312t-432 -108.5q-193 0 -335.5 72t-217 206.5t-74.5 314.5zM400 581q0 -184 90 -276.5t251 -92.5t275 75t176.5 223t62.5 317q0 176 -87.5 273t-253.5 97 q-162 0 -276 -75t-176 -226t-62 -315zM684 1765l9 43h238l203 -247l-7 -31h-139z" />
<glyph unicode="&#xd3;" horiz-adv-x="1593" d="M100 573q0 235 105.5 438.5t292.5 311t430 107.5q293 0 462 -155.5t169 -423.5q0 -247 -105.5 -450.5t-294.5 -312t-432 -108.5q-193 0 -335.5 72t-217 206.5t-74.5 314.5zM400 581q0 -184 90 -276.5t251 -92.5t275 75t176.5 223t62.5 317q0 176 -87.5 273t-253.5 97 q-162 0 -276 -75t-176 -226t-62 -315zM857 1530l7 31l270 247h267l-9 -43l-386 -235h-149z" />
<glyph unicode="&#xd4;" horiz-adv-x="1593" d="M100 573q0 235 105.5 438.5t292.5 311t430 107.5q293 0 462 -155.5t169 -423.5q0 -247 -105.5 -450.5t-294.5 -312t-432 -108.5q-193 0 -335.5 72t-217 206.5t-74.5 314.5zM400 581q0 -184 90 -276.5t251 -92.5t275 75t176.5 223t62.5 317q0 176 -87.5 273t-253.5 97 q-162 0 -276 -75t-176 -226t-62 -315zM576 1530l5 29l311 276h229l196 -276l-5 -29h-149l-174 151h-4l-240 -151h-169z" />
<glyph unicode="&#xd5;" horiz-adv-x="1593" d="M100 573q0 235 105.5 438.5t292.5 311t430 107.5q293 0 462 -155.5t169 -423.5q0 -247 -105.5 -450.5t-294.5 -312t-432 -108.5q-193 0 -335.5 72t-217 206.5t-74.5 314.5zM400 581q0 -184 90 -276.5t251 -92.5t275 75t176.5 223t62.5 317q0 176 -87.5 273t-253.5 97 q-162 0 -276 -75t-176 -226t-62 -315zM580 1530q39 158 108.5 225.5t172.5 67.5q45 0 86.5 -19t78.5 -42.5t70 -42.5t62 -19q43 0 71 28t52 95h135q-39 -158 -108.5 -225.5t-171.5 -67.5q-44 0 -84.5 19t-78 42.5t-71.5 42.5t-64 19q-42 0 -69.5 -25.5t-52.5 -97.5h-136z " />
<glyph unicode="&#xd6;" horiz-adv-x="1593" d="M100 573q0 235 105.5 438.5t292.5 311t430 107.5q293 0 462 -155.5t169 -423.5q0 -247 -105.5 -450.5t-294.5 -312t-432 -108.5q-193 0 -335.5 72t-217 206.5t-74.5 314.5zM400 581q0 -184 90 -276.5t251 -92.5t275 75t176.5 223t62.5 317q0 176 -87.5 273t-253.5 97 q-162 0 -276 -75t-176 -226t-62 -315zM649 1530l42 219h214l-43 -219h-213zM1082 1530l43 219h217l-43 -219h-217z" />
<glyph unicode="&#xd7;" horiz-adv-x="1196" d="M126 326l356 358l-352 352l158 156l352 -350l352 352l158 -158l-352 -354l352 -350l-158 -160l-352 354l-356 -358z" />
<glyph unicode="&#xd8;" horiz-adv-x="1593" d="M35 -53l205 220q-140 158 -140 406q0 235 105.5 438.5t292.5 311t430 107.5q237 0 396 -104l131 140h203l-223 -239q124 -148 124 -376q0 -247 -105.5 -450.5t-294.5 -312t-432 -108.5q-222 0 -370 91l-115 -124h-207zM400 581q0 -121 39 -202l699 748q-87 70 -224 70 q-162 0 -276 -75t-176 -226t-62 -315zM538 264q79 -52 203 -52q161 0 275 75t176.5 223t62.5 317q0 100 -29 175z" />
<glyph unicode="&#xd9;" horiz-adv-x="1479" d="M119 431q0 44 7.5 105.5t15.5 98.5l148 774h295l-153 -810q-18 -87 -18 -172q0 -103 73 -159.5t201 -56.5q165 0 250.5 76t119.5 254l168 868h295l-171 -879q-55 -281 -220 -415.5t-458 -134.5q-264 0 -408.5 117.5t-144.5 333.5zM623 1765l9 43h238l203 -247l-7 -31 h-139z" />
<glyph unicode="&#xda;" horiz-adv-x="1479" d="M119 431q0 44 7.5 105.5t15.5 98.5l148 774h295l-153 -810q-18 -87 -18 -172q0 -103 73 -159.5t201 -56.5q165 0 250.5 76t119.5 254l168 868h295l-171 -879q-55 -281 -220 -415.5t-458 -134.5q-264 0 -408.5 117.5t-144.5 333.5zM789 1530l7 31l270 247h267l-9 -43 l-386 -235h-149z" />
<glyph unicode="&#xdb;" horiz-adv-x="1479" d="M119 431q0 44 7.5 105.5t15.5 98.5l148 774h295l-153 -810q-18 -87 -18 -172q0 -103 73 -159.5t201 -56.5q165 0 250.5 76t119.5 254l168 868h295l-171 -879q-55 -281 -220 -415.5t-458 -134.5q-264 0 -408.5 117.5t-144.5 333.5zM549 1530l5 29l311 276h229l196 -276 l-5 -29h-149l-174 151h-4l-240 -151h-169z" />
<glyph unicode="&#xdc;" horiz-adv-x="1479" d="M119 431q0 44 7.5 105.5t15.5 98.5l148 774h295l-153 -810q-18 -87 -18 -172q0 -103 73 -159.5t201 -56.5q165 0 250.5 76t119.5 254l168 868h295l-171 -879q-55 -281 -220 -415.5t-458 -134.5q-264 0 -408.5 117.5t-144.5 333.5zM600 1530l42 219h214l-43 -219h-213z M1033 1530l43 219h217l-43 -219h-217z" />
<glyph unicode="&#xdd;" horiz-adv-x="1366" d="M172 1409h292l259 -605l474 605h323l-684 -831l-112 -578h-294l112 578zM716 1530l7 31l270 247h267l-9 -43l-386 -235h-149z" />
<glyph unicode="&#xde;" horiz-adv-x="1366" d="M36 0l274 1409h295l-44 -225h246q246 0 382.5 -112t136.5 -310q0 -225 -153.5 -358t-410.5 -133h-378l-53 -271h-295zM428 498h289q155 0 232.5 58t77.5 190q0 102 -64 155.5t-184 53.5h-262z" />
<glyph unicode="&#xdf;" horiz-adv-x="1251" d="M35 0l200 1027q50 237 188.5 347t373.5 110q181 0 285.5 -77t104.5 -211q0 -165 -143 -272q-86 -64 -115 -96t-29 -69q0 -40 27 -72.5t99 -85.5q126 -94 126 -256q0 -167 -110.5 -266t-292.5 -99q-203 0 -321 57l68 186q78 -36 126 -46.5t98 -10.5q80 0 121.5 42 t41.5 114q0 51 -28 90.5t-94 88.5q-64 46 -93.5 97.5t-29.5 119.5t34.5 122.5t112.5 112.5q78 59 112 108t34 107q0 53 -36.5 83t-106.5 30q-116 0 -182.5 -64t-92.5 -196l-197 -1021h-281z" />
<glyph unicode="&#xe0;" d="M10 278q0 185 127.5 279.5t413.5 99.5l191 3q21 95 21 131q0 128 -127 128q-94 0 -140 -36.5t-63 -105.5l-263 31q34 144 153.5 219t317.5 75q207 0 303.5 -73t96.5 -222q0 -37 -24 -157l-71 -353q-8 -45 -8 -72q0 -24 10 -37t23 -19t26 -7.5t20 -1.5q30 0 62 7l-14 -155 q-42 -16 -85 -19t-88 -3q-100 0 -154 42t-54 111q0 37 5 64h-6q-84 -130 -166 -178.5t-200 -48.5q-140 0 -223.5 83.5t-83.5 214.5zM297 325q0 -70 39.5 -109.5t106.5 -39.5q83 0 151 64.5t95 170.5l22 92h-162q-117 -2 -184.5 -48t-67.5 -130zM393 1459l8 43h258l195 -288 l-6 -31h-148z" />
<glyph unicode="&#xe1;" d="M10 278q0 185 127.5 279.5t413.5 99.5l191 3q21 95 21 131q0 128 -127 128q-94 0 -140 -36.5t-63 -105.5l-263 31q34 144 153.5 219t317.5 75q207 0 303.5 -73t96.5 -222q0 -37 -24 -157l-71 -353q-8 -45 -8 -72q0 -24 10 -37t23 -19t26 -7.5t20 -1.5q30 0 62 7l-14 -155 q-42 -16 -85 -19t-88 -3q-100 0 -154 42t-54 111q0 37 5 64h-6q-84 -130 -166 -178.5t-200 -48.5q-140 0 -223.5 83.5t-83.5 214.5zM297 325q0 -70 39.5 -109.5t106.5 -39.5q83 0 151 64.5t95 170.5l22 92h-162q-117 -2 -184.5 -48t-67.5 -130zM542 1183l6 31l247 288h277 l-8 -43l-376 -276h-146z" />
<glyph unicode="&#xe2;" d="M10 278q0 185 127.5 279.5t413.5 99.5l191 3q21 95 21 131q0 128 -127 128q-94 0 -140 -36.5t-63 -105.5l-263 31q34 144 153.5 219t317.5 75q207 0 303.5 -73t96.5 -222q0 -37 -24 -157l-71 -353q-8 -45 -8 -72q0 -24 10 -37t23 -19t26 -7.5t20 -1.5q30 0 62 7l-14 -155 q-42 -16 -85 -19t-88 -3q-100 0 -154 42t-54 111q0 37 5 64h-6q-84 -130 -166 -178.5t-200 -48.5q-140 0 -223.5 83.5t-83.5 214.5zM297 325q0 -70 39.5 -109.5t106.5 -39.5q83 0 151 64.5t95 170.5l22 92h-162q-117 -2 -184.5 -48t-67.5 -130zM307 1183l5 28l320 318h229 l188 -318l-5 -28h-150l-166 192h-4l-248 -192h-169z" />
<glyph unicode="&#xe3;" d="M10 278q0 185 127.5 279.5t413.5 99.5l191 3q21 95 21 131q0 128 -127 128q-94 0 -140 -36.5t-63 -105.5l-263 31q34 144 153.5 219t317.5 75q207 0 303.5 -73t96.5 -222q0 -37 -24 -157l-71 -353q-8 -45 -8 -72q0 -24 10 -37t23 -19t26 -7.5t20 -1.5q30 0 62 7l-14 -155 q-42 -16 -85 -19t-88 -3q-100 0 -154 42t-54 111q0 37 5 64h-6q-84 -130 -166 -178.5t-200 -48.5q-140 0 -223.5 83.5t-83.5 214.5zM272 1183q39 158 108.5 225.5t172.5 67.5q45 0 86.5 -19t78.5 -42.5t70 -42.5t62 -19q43 0 71 28t52 95h135q-39 -158 -108.5 -225.5 t-171.5 -67.5q-44 0 -84.5 19t-78 42.5t-71.5 42.5t-64 19q-42 0 -69.5 -25.5t-52.5 -97.5h-136zM297 325q0 -70 39.5 -109.5t106.5 -39.5q83 0 151 64.5t95 170.5l22 92h-162q-117 -2 -184.5 -48t-67.5 -130z" />
<glyph unicode="&#xe4;" d="M10 278q0 185 127.5 279.5t413.5 99.5l191 3q21 95 21 131q0 128 -127 128q-94 0 -140 -36.5t-63 -105.5l-263 31q34 144 153.5 219t317.5 75q207 0 303.5 -73t96.5 -222q0 -37 -24 -157l-71 -353q-8 -45 -8 -72q0 -24 10 -37t23 -19t26 -7.5t20 -1.5q30 0 62 7l-14 -155 q-42 -16 -85 -19t-88 -3q-100 0 -154 42t-54 111q0 37 5 64h-6q-84 -130 -166 -178.5t-200 -48.5q-140 0 -223.5 83.5t-83.5 214.5zM297 325q0 -70 39.5 -109.5t106.5 -39.5q83 0 151 64.5t95 170.5l22 92h-162q-117 -2 -184.5 -48t-67.5 -130zM351 1199l42 219h214 l-43 -219h-213zM784 1199l43 219h217l-43 -219h-217z" />
<glyph unicode="&#xe5;" d="M10 278q0 185 127.5 279.5t413.5 99.5l191 3q21 95 21 131q0 128 -127 128q-94 0 -140 -36.5t-63 -105.5l-263 31q34 144 153.5 219t317.5 75q207 0 303.5 -73t96.5 -222q0 -37 -24 -157l-71 -353q-8 -45 -8 -72q0 -24 10 -37t23 -19t26 -7.5t20 -1.5q30 0 62 7l-14 -155 q-42 -16 -85 -19t-88 -3q-100 0 -154 42t-54 111q0 37 5 64h-6q-84 -130 -166 -178.5t-200 -48.5q-140 0 -223.5 83.5t-83.5 214.5zM297 325q0 -70 39.5 -109.5t106.5 -39.5q83 0 151 64.5t95 170.5l22 92h-162q-117 -2 -184.5 -48t-67.5 -130zM453 1431q0 105 74.5 179.5 t179.5 74.5t179.5 -74.5t74.5 -179.5t-73.5 -179.5t-180.5 -74.5t-180.5 74.5t-73.5 179.5zM582 1431q0 -56 37 -92t88 -36q53 0 90 37t37 91q0 51 -36.5 88t-90.5 37q-51 0 -88 -36t-37 -89z" />
<glyph unicode="&#xe6;" horiz-adv-x="1821" d="M42 278q0 382 541 382h191q21 95 21 131q0 128 -127 128q-94 0 -140 -36.5t-63 -105.5l-263 31q34 144 153.5 219t317.5 75q207 0 300 -113q140 113 342 113q209 0 322.5 -107.5t113.5 -303.5q0 -99 -24 -215h-700q-7 -38 -7 -89q0 -106 46.5 -162.5t137.5 -56.5 q147 0 213 169l245 -74q-75 -159 -186 -221t-291 -62q-297 0 -394 219q-51 -80 -113.5 -127.5t-136 -69.5t-192.5 -22q-140 0 -223.5 83.5t-83.5 214.5zM341 325q0 -72 34.5 -110.5t99.5 -38.5q83 0 151 64.5t95 170.5l22 89h-161q-113 0 -177 -46t-64 -129zM1060 663h431 l3 56q0 107 -49.5 156t-129.5 49q-96 0 -161.5 -66.5t-93.5 -194.5z" />
<glyph unicode="&#xe7;" d="M63 405q0 195 79 366t210.5 251t327.5 80q189 0 302 -95.5t127 -265.5l-284 -23q-11 191 -167 191q-107 0 -167.5 -73.5t-109.5 -260.5q-23 -115 -23 -168q0 -234 178 -234q83 0 137 52.5t86 155.5l271 -50q-107 -351 -510 -351q-220 0 -338.5 112.5t-118.5 312.5z M280 -419l29 117q42 -7 82 -7q81 0 118 17.5t37 59.5q0 63 -110 63h-25l-28 -2l98 171h141l-48 -83q70 -1 113.5 -33.5t43.5 -98.5q0 -97 -84 -153.5t-261 -56.5q-50 0 -106 6z" />
<glyph unicode="&#xe8;" d="M63 418q0 207 72 362.5t204.5 238.5t306.5 83q209 0 322.5 -107.5t113.5 -303.5q0 -99 -24 -215h-700q-7 -38 -7 -89q0 -106 46.5 -162.5t137.5 -56.5q147 0 213 169l245 -74q-75 -159 -186 -221t-291 -62q-213 0 -333 115.5t-120 322.5zM391 663h431l3 56 q0 107 -49.5 156t-129.5 49q-96 0 -161.5 -66.5t-93.5 -194.5zM408 1459l8 43h258l195 -288l-6 -31h-148z" />
<glyph unicode="&#xe9;" d="M63 418q0 207 72 362.5t204.5 238.5t306.5 83q209 0 322.5 -107.5t113.5 -303.5q0 -99 -24 -215h-700q-7 -38 -7 -89q0 -106 46.5 -162.5t137.5 -56.5q147 0 213 169l245 -74q-75 -159 -186 -221t-291 -62q-213 0 -333 115.5t-120 322.5zM391 663h431l3 56 q0 107 -49.5 156t-129.5 49q-96 0 -161.5 -66.5t-93.5 -194.5zM524 1183l6 31l247 288h277l-8 -43l-376 -276h-146z" />
<glyph unicode="&#xea;" d="M63 418q0 207 72 362.5t204.5 238.5t306.5 83q209 0 322.5 -107.5t113.5 -303.5q0 -99 -24 -215h-700q-7 -38 -7 -89q0 -106 46.5 -162.5t137.5 -56.5q147 0 213 169l245 -74q-75 -159 -186 -221t-291 -62q-213 0 -333 115.5t-120 322.5zM307 1183l5 28l320 318h229 l188 -318l-5 -28h-150l-166 192h-4l-248 -192h-169zM391 663h431l3 56q0 107 -49.5 156t-129.5 49q-96 0 -161.5 -66.5t-93.5 -194.5z" />
<glyph unicode="&#xeb;" d="M63 418q0 207 72 362.5t204.5 238.5t306.5 83q209 0 322.5 -107.5t113.5 -303.5q0 -99 -24 -215h-700q-7 -38 -7 -89q0 -106 46.5 -162.5t137.5 -56.5q147 0 213 169l245 -74q-75 -159 -186 -221t-291 -62q-213 0 -333 115.5t-120 322.5zM362 1199l42 219h214l-43 -219 h-213zM391 663h431l3 56q0 107 -49.5 156t-129.5 49q-96 0 -161.5 -66.5t-93.5 -194.5zM795 1199l43 219h217l-43 -219h-217z" />
<glyph unicode="&#xec;" horiz-adv-x="569" d="M35 0l210 1082h281l-211 -1082h-280zM98 1459l8 43h258l195 -288l-6 -31h-148z" />
<glyph unicode="&#xed;" horiz-adv-x="569" d="M35 0l210 1082h281l-211 -1082h-280zM258 1183l6 31l247 288h277l-8 -43l-376 -276h-146z" />
<glyph unicode="&#xee;" horiz-adv-x="569" d="M27 1183l5 28l320 318h229l188 -318l-5 -28h-150l-166 192h-4l-248 -192h-169zM35 0l210 1082h281l-211 -1082h-280z" />
<glyph unicode="&#xef;" horiz-adv-x="569" d="M35 0l210 1082h281l-211 -1082h-280zM81 1199l42 219h214l-43 -219h-213zM514 1199l43 219h217l-43 -219h-217z" />
<glyph unicode="&#xf0;" horiz-adv-x="1251" d="M58 410q0 258 159 413.5t432 155.5q61 0 128 -18.5t104 -44.5q-32 140 -125 264l-277 -111l33 179l149 57q-124 121 -222 179h293q72 -38 141 -94l295 109l-32 -176l-145 -54q95 -123 138 -251.5t43 -289.5q0 -354 -171 -551t-474 -197q-219 0 -344 115.5t-125 314.5z M352 395q0 -102 55 -162.5t148 -60.5q87 0 159.5 57.5t113 158t40.5 218.5q0 85 -53 133t-157 48q-138 0 -222 -108t-84 -284z" />
<glyph unicode="&#xf1;" horiz-adv-x="1251" d="M35 0l166 851q16 79 38 231h268q0 -9 -9.5 -84t-14.5 -101h3q75 104 165.5 154t207.5 50q152 0 229 -73t77 -211q0 -25 -7 -79.5t-14 -84.5l-127 -653h-279l118 595q26 124 26 165q0 129 -152 129q-101 0 -187 -82t-108 -201l-118 -606h-282zM363 1183 q39 158 108.5 225.5t172.5 67.5q45 0 86.5 -19t78.5 -42.5t70 -42.5t62 -19q43 0 71 28t52 95h135q-39 -158 -108.5 -225.5t-171.5 -67.5q-44 0 -84.5 19t-78 42.5t-71.5 42.5t-64 19q-42 0 -69.5 -25.5t-52.5 -97.5h-136z" />
<glyph unicode="&#xf2;" horiz-adv-x="1251" d="M63 419q0 201 79.5 356t226.5 240.5t335 85.5q235 0 358 -109.5t123 -308.5q0 -207 -81.5 -368t-231 -248t-337.5 -87q-218 0 -345 117.5t-127 321.5zM358 431q0 -259 208 -259q112 0 177.5 56.5t103 171.5t44.5 262q0 247 -208 247q-114 0 -181.5 -60t-105.5 -182.5 t-38 -235.5zM432 1459l8 43h258l195 -288l-6 -31h-148z" />
<glyph unicode="&#xf3;" horiz-adv-x="1251" d="M63 419q0 201 79.5 356t226.5 240.5t335 85.5q235 0 358 -109.5t123 -308.5q0 -207 -81.5 -368t-231 -248t-337.5 -87q-218 0 -345 117.5t-127 321.5zM358 431q0 -259 208 -259q112 0 177.5 56.5t103 171.5t44.5 262q0 247 -208 247q-114 0 -181.5 -60t-105.5 -182.5 t-38 -235.5zM619 1183l6 31l247 288h277l-8 -43l-376 -276h-146z" />
<glyph unicode="&#xf4;" horiz-adv-x="1251" d="M63 419q0 201 79.5 356t226.5 240.5t335 85.5q235 0 358 -109.5t123 -308.5q0 -207 -81.5 -368t-231 -248t-337.5 -87q-218 0 -345 117.5t-127 321.5zM358 431q0 -259 208 -259q112 0 177.5 56.5t103 171.5t44.5 262q0 247 -208 247q-114 0 -181.5 -60t-105.5 -182.5 t-38 -235.5zM360 1183l5 28l320 318h229l188 -318l-5 -28h-150l-166 192h-4l-248 -192h-169z" />
<glyph unicode="&#xf5;" horiz-adv-x="1251" d="M63 419q0 201 79.5 356t226.5 240.5t335 85.5q235 0 358 -109.5t123 -308.5q0 -207 -81.5 -368t-231 -248t-337.5 -87q-218 0 -345 117.5t-127 321.5zM336 1183q39 158 108.5 225.5t172.5 67.5q45 0 86.5 -19t78.5 -42.5t70 -42.5t62 -19q43 0 71 28t52 95h135 q-39 -158 -108.5 -225.5t-171.5 -67.5q-44 0 -84.5 19t-78 42.5t-71.5 42.5t-64 19q-42 0 -69.5 -25.5t-52.5 -97.5h-136zM358 431q0 -259 208 -259q112 0 177.5 56.5t103 171.5t44.5 262q0 247 -208 247q-114 0 -181.5 -60t-105.5 -182.5t-38 -235.5z" />
<glyph unicode="&#xf6;" horiz-adv-x="1251" d="M63 419q0 201 79.5 356t226.5 240.5t335 85.5q235 0 358 -109.5t123 -308.5q0 -207 -81.5 -368t-231 -248t-337.5 -87q-218 0 -345 117.5t-127 321.5zM358 431q0 -259 208 -259q112 0 177.5 56.5t103 171.5t44.5 262q0 247 -208 247q-114 0 -181.5 -60t-105.5 -182.5 t-38 -235.5zM425 1199l42 219h214l-43 -219h-213zM858 1199l43 219h217l-43 -219h-217z" />
<glyph unicode="&#xf7;" horiz-adv-x="1124" d="M69 569v224h1027v-224h-1027zM462 170v233h238v-233h-238zM462 961v233h238v-233h-238z" />
<glyph unicode="&#xf8;" horiz-adv-x="1251" d="M42 -38l131 152q-110 114 -110 305q0 201 79.5 356t226.5 240.5t335 85.5q159 0 273 -54l60 69h189l-134 -156q93 -105 93 -277q0 -207 -81.5 -368t-231 -248t-337.5 -87q-138 0 -244 49l-58 -67h-191zM358 431q0 -50 8 -93l455 527q-50 44 -138 44q-114 0 -181.5 -60 t-105.5 -182.5t-38 -235.5zM443 206q49 -34 123 -34q112 0 177.5 56.5t103 171.5t44.5 262q0 32 -4 60z" />
<glyph unicode="&#xf9;" horiz-adv-x="1251" d="M85 265q0 25 7 80.5t14 83.5l127 653h279l-118 -595q-26 -123 -26 -165q0 -129 152 -129q101 0 186.5 81t108.5 202l118 606h282l-166 -851q-16 -79 -38 -231h-268q0 9 9.5 84t14.5 101h-3q-76 -107 -166.5 -155.5t-206.5 -48.5q-152 0 -229 73t-77 211zM426 1459l8 43 h258l195 -288l-6 -31h-148z" />
<glyph unicode="&#xfa;" horiz-adv-x="1251" d="M85 265q0 25 7 80.5t14 83.5l127 653h279l-118 -595q-26 -123 -26 -165q0 -129 152 -129q101 0 186.5 81t108.5 202l118 606h282l-166 -851q-16 -79 -38 -231h-268q0 9 9.5 84t14.5 101h-3q-76 -107 -166.5 -155.5t-206.5 -48.5q-152 0 -229 73t-77 211zM604 1183l6 31 l247 288h277l-8 -43l-376 -276h-146z" />
<glyph unicode="&#xfb;" horiz-adv-x="1251" d="M85 265q0 25 7 80.5t14 83.5l127 653h279l-118 -595q-26 -123 -26 -165q0 -129 152 -129q101 0 186.5 81t108.5 202l118 606h282l-166 -851q-16 -79 -38 -231h-268q0 9 9.5 84t14.5 101h-3q-76 -107 -166.5 -155.5t-206.5 -48.5q-152 0 -229 73t-77 211zM369 1183l5 28 l320 318h229l188 -318l-5 -28h-150l-166 192h-4l-248 -192h-169z" />
<glyph unicode="&#xfc;" horiz-adv-x="1251" d="M85 265q0 25 7 80.5t14 83.5l127 653h279l-118 -595q-26 -123 -26 -165q0 -129 152 -129q101 0 186.5 81t108.5 202l118 606h282l-166 -851q-16 -79 -38 -231h-268q0 9 9.5 84t14.5 101h-3q-76 -107 -166.5 -155.5t-206.5 -48.5q-152 0 -229 73t-77 211zM420 1199l42 219 h214l-43 -219h-213zM853 1199l43 219h217l-43 -219h-217z" />
<glyph unicode="&#xfd;" d="M-85 -407l38 196q40 -9 87 -9q78 0 137.5 46t118.5 150l28 48l-212 1058h291l71 -497q6 -31 21.5 -178t13.5 -156l17 37l139 293l259 501h300l-654 -1139q-107 -167 -174.5 -235t-141 -100.5t-166.5 -32.5q-97 0 -173 18zM527 1183l6 31l247 288h277l-8 -43l-376 -276 h-146z" />
<glyph unicode="&#xfe;" horiz-adv-x="1251" d="M-46 -425l369 1909h281l-83 -427q-18 -92 -34 -144h6q72 100 154.5 144.5t200.5 44.5q159 0 248 -94.5t89 -259.5q0 -202 -62 -393.5t-174.5 -283t-286.5 -91.5q-125 0 -203 52t-110 146h-2l-14 -90l-18 -98l-81 -415h-280zM400 401q0 -107 53 -167.5t148 -60.5 q102 0 161 64t93 206t34 251q0 106 -38.5 159.5t-122.5 53.5q-126 0 -201.5 -88t-109.5 -265q-17 -93 -17 -153z" />
<glyph unicode="&#xff;" d="M-67 -407l38 196q40 -9 87 -9q78 0 137.5 46t118.5 150l28 48l-212 1058h291l71 -497q6 -31 21.5 -178t13.5 -156l17 37l139 293l259 501h300l-654 -1139q-107 -167 -174.5 -235t-141 -100.5t-166.5 -32.5q-97 0 -173 18zM374 1196l42 219h214l-43 -219h-213zM807 1196 l43 219h217l-43 -219h-217z" />
<glyph unicode="&#x152;" horiz-adv-x="2048" d="M103 573q0 170 58.5 327.5t173 276t272.5 181t342 62.5q79 0 138 -5l63 -6h949l-44 -227h-667l-69 -355h606l-43 -221h-606l-73 -375h708l-45 -231h-949q-63 -10 -211 -10q-286 0 -444.5 152.5t-158.5 430.5zM403 563q0 -164 86 -252.5t247 -88.5q102 0 173 20l180 927 q-31 10 -80 14.5t-70 4.5q-127 0 -224.5 -41.5t-167.5 -126.5t-107 -207.5t-37 -249.5z" />
<glyph unicode="&#x153;" horiz-adv-x="1933" d="M58 419q0 201 79.5 356t226.5 240.5t335 85.5q125 0 212 -33.5t157 -107.5q152 142 383 142q209 0 322.5 -107.5t113.5 -303.5q0 -99 -24 -215h-700q-7 -38 -7 -89q0 -106 46.5 -162.5t137.5 -56.5q147 0 213 169l245 -74q-75 -159 -186 -221t-291 -62q-247 0 -366 152 q-68 -75 -177.5 -113.5t-247.5 -38.5q-218 0 -345 117.5t-127 321.5zM353 431q0 -124 52 -191.5t157 -67.5q114 0 179 58.5t102 175.5t43 256q0 247 -208 247q-114 0 -181.5 -60t-105.5 -182.5t-38 -235.5zM1196 663h431l3 56q0 107 -49.5 156t-129.5 49q-96 0 -161.5 -66.5 t-93.5 -194.5z" />
<glyph unicode="&#x178;" horiz-adv-x="1366" d="M143 1409h292l259 -605l474 605h323l-684 -831l-112 -578h-294l112 578zM494 1530l42 219h214l-43 -219h-213zM927 1530l43 219h217l-43 -219h-217z" />
<glyph unicode="&#x2c6;" horiz-adv-x="682" d="M76 1183l5 28l320 318h229l188 -318l-5 -28h-150l-166 192h-4l-248 -192h-169z" />
<glyph unicode="&#x2da;" horiz-adv-x="682" d="M227 1390q0 105 74.5 179.5t179.5 74.5t179.5 -74.5t74.5 -179.5t-73.5 -179.5t-180.5 -74.5t-180.5 74.5t-73.5 179.5zM356 1390q0 -56 37 -92t88 -36q53 0 90 37t37 91q0 51 -36.5 88t-90.5 37q-51 0 -88 -36t-37 -89z" />
<glyph unicode="&#x2dc;" horiz-adv-x="682" d="M68 1183q39 158 108.5 225.5t172.5 67.5q45 0 86.5 -19t78.5 -42.5t70 -42.5t62 -19q43 0 71 28t52 95h135q-39 -158 -108.5 -225.5t-171.5 -67.5q-44 0 -84.5 19t-78 42.5t-71.5 42.5t-64 19q-42 0 -69.5 -25.5t-52.5 -97.5h-136z" />
<glyph unicode="&#x400;" horiz-adv-x="1366" d="M36 0l273 1409h1108l-44 -228h-813l-69 -354h752l-44 -228h-752l-72 -371h854l-45 -228h-1148zM596 1765l9 43h238l203 -247l-7 -31h-139z" />
<glyph unicode="&#x401;" horiz-adv-x="1366" d="M36 0l273 1409h1108l-44 -228h-813l-69 -354h752l-44 -228h-752l-72 -371h854l-45 -228h-1148zM562 1530l42 219h214l-43 -219h-213zM995 1530l43 219h217l-43 -219h-217z" />
<glyph unicode="&#x402;" horiz-adv-x="1814" d="M145 1181l44 228h1206l-44 -228h-456l-65 -336q146 56 261 79.5t219 23.5q403 0 403 -305q0 -52 -20.5 -169.5t-59.5 -219.5t-99 -161t-147 -86t-213 -27q-133 0 -225.5 41.5t-153.5 136.5l225 163q40 -60 86.5 -84.5t102.5 -24.5q74 0 118 47t70.5 161t26.5 163 q0 144 -239 144q-181 0 -391 -66l-129 -661h-295l230 1181h-455z" />
<glyph unicode="&#x403;" horiz-adv-x="1257" d="M36 1l273 1408h1024l-44 -228h-729l-229 -1180h-295zM646 1530l7 31l270 247h267l-9 -43l-386 -235h-149z" />
<glyph unicode="&#x404;" horiz-adv-x="1472" d="M100 569q0 252 105 450.5t293.5 304.5t428.5 106q230 0 377.5 -98.5t198.5 -293.5l-274 -71q-29 107 -111 169t-200 62q-181 0 -306.5 -97t-176.5 -272h542l-45 -228h-531v-28q0 -173 85.5 -267.5t244.5 -94.5q266 0 418 258l227 -117q-210 -372 -665 -372 q-191 0 -329.5 72t-210 205.5t-71.5 311.5z" />
<glyph unicode="&#x405;" horiz-adv-x="1366" d="M25 365l289 49q21 -111 93.5 -162t212.5 -51q345 0 345 199q0 80 -60 126.5t-238 91.5q-184 49 -272.5 102t-135 129.5t-46.5 187.5q0 177 157 285t416 108q238 0 382 -86.5t177 -252.5l-288 -67q-22 90 -95.5 143.5t-191.5 53.5q-124 0 -195 -46.5t-71 -127.5 q0 -47 26 -80t76 -57.5t198 -64.5q159 -44 235 -82.5t121.5 -86.5t69.5 -110t24 -143q0 -216 -166 -329.5t-488 -113.5q-267 0 -407 94.5t-168 290.5z" />
<glyph unicode="&#x406;" horiz-adv-x="569" d="M36 0l273 1409h295l-274 -1409h-294z" />
<glyph unicode="&#x407;" horiz-adv-x="569" d="M36 0l273 1409h295l-274 -1409h-294zM151 1530l42 219h214l-43 -219h-213zM584 1530l43 219h217l-43 -219h-217z" />
<glyph unicode="&#x408;" d="M25 379l267 58q46 -226 207 -226q54 0 91 24t61 68t42 137l143 738h-281l44 231h575l-193 -986q-45 -231 -165 -337t-336 -106q-190 0 -303.5 96t-151.5 303z" />
<glyph unicode="&#x409;" horiz-adv-x="2241" d="M-123 1l48 247q28 -7 55 -7q50 0 91 53.5t98.5 194t161.5 447.5l159 473h906l-109 -561h374q232 0 366.5 -103.5t134.5 -282.5q0 -221 -162 -341.5t-452 -120.5h-720l225 1165h-350l-116 -348q-113 -335 -175 -474.5t-119.5 -215t-128 -109.5t-172.5 -34q-57 0 -115 17z M1167 230h391q145 0 222.5 55t77.5 156q0 89 -62 134.5t-199 45.5h-354z" />
<glyph unicode="&#x40a;" horiz-adv-x="2134" d="M37 0l273 1409h295l-109 -561h467l109 561h295l-109 -561h295q232 0 366.5 -103.5t134.5 -282.5q0 -221 -162 -341.5t-452 -120.5h-641l117 604h-467l-118 -604h-294zM1138 230h312q145 0 222.5 55t77.5 156q0 89 -62 134.5t-199 45.5h-275z" />
<glyph unicode="&#x40b;" horiz-adv-x="1748" d="M145 1181l44 228h1206l-44 -228h-456l-62 -319q148 52 230 67.5t164 15.5q195 0 297 -93.5t102 -280.5q0 -72 -16 -154l-81 -417h-284l80 414q14 81 14 130q0 182 -218 182q-151 0 -325 -53l-131 -673h-295l230 1181h-455z" />
<glyph unicode="&#x40c;" horiz-adv-x="1259" d="M36 0l273 1409h295l-116 -599q56 0 127 64t186 206l267 329h308l-335 -425q-34 -42 -66.5 -78t-61 -63.5t-51.5 -46.5t-37 -28l318 -768h-313l-240 640q-23 -13 -68.5 -24t-74.5 -11l-118 -605h-293zM705 1530l7 31l270 247h267l-9 -43l-386 -235h-149z" />
<glyph unicode="&#x40d;" horiz-adv-x="1473" d="M36 0l273 1409h262l-159 -819q-23 -117 -61 -275l825 1094h332l-274 -1409h-262l162 831l36 166l21 88l-820 -1085h-335zM586 1765l9 43h238l203 -247l-7 -31h-139z" />
<glyph unicode="&#x40e;" horiz-adv-x="1387" d="M55 56l118 230q79 -42 142 -42q50 0 92 20t82.5 62.5t110.5 150.5l-375 932h297l256 -680l430 680h309l-737 -1091q-133 -198 -238 -268t-249 -70q-131 0 -238 76zM507 1773l193 74q44 -103 97.5 -145.5t124.5 -42.5q183 0 274 204l112 -49q-60 -149 -166.5 -224.5 t-253.5 -75.5q-142 0 -234.5 64t-146.5 195z" />
<glyph unicode="&#x40f;" horiz-adv-x="1473" d="M35 0l274 1409h295l-226 -1165h617l226 1165h285l-274 -1409h-473l-79 -408h-250l79 408h-474z" />
<glyph unicode="&#x410;" horiz-adv-x="1479" d="M-42 0l787 1409h348l238 -1409h-292l-55 360h-537l-195 -360h-294zM566 582h395l-67 452q-18 135 -18 158q-21 -64 -98 -212z" />
<glyph unicode="&#x411;" horiz-adv-x="1450" d="M36 0l273 1409h1059l-44 -227h-764l-65 -334h374q232 0 366.5 -103.5t134.5 -282.5q0 -221 -162 -341.5t-452 -120.5h-720zM375 230h391q145 0 222.5 55t77.5 156q0 89 -62 134.5t-199 45.5h-354z" />
<glyph unicode="&#x412;" horiz-adv-x="1479" d="M36 0l274 1409h584q251 0 380 -82.5t129 -243.5q0 -137 -82.5 -224.5t-241.5 -120.5q136 -23 212.5 -105.5t76.5 -201.5q0 -211 -156.5 -321t-470.5 -110h-705zM373 219h328q209 0 290 50.5t81 167.5q0 90 -68 138t-222 48h-330zM494 841h294q175 0 248.5 46t73.5 151 q0 80 -57 116t-191 36h-301z" />
<glyph unicode="&#x413;" horiz-adv-x="1257" d="M36 1l273 1408h1024l-44 -228h-729l-229 -1180h-295z" />
<glyph unicode="&#x414;" horiz-adv-x="1479" d="M-145 -408l127 652h155q89 121 183.5 310.5t168.5 409.5l148 445h789l-226 -1165h185l-127 -652h-250l79 408h-904l-79 -408h-249zM446 244h469l179 921h-262l-77 -234q-155 -470 -309 -687z" />
<glyph unicode="&#x415;" horiz-adv-x="1366" d="M36 0l273 1409h1108l-44 -228h-813l-69 -354h752l-44 -228h-752l-72 -371h854l-45 -228h-1148z" />
<glyph unicode="&#x416;" horiz-adv-x="1899" d="M-86 0l600 773q-29 32 -111 229l-172 407h290l125 -324q60 -157 103 -216t103 -59l116 599h274l-116 -599q48 0 105.5 51t193.5 224l255 324h310l-324 -407q-47 -60 -112.5 -131t-96.5 -91l303 -780h-306l-224 640q-22 -12 -67.5 -23.5t-76.5 -11.5l-118 -605h-273 l118 605q-73 0 -114 29l-470 -634h-315z" />
<glyph unicode="&#x417;" horiz-adv-x="1316" d="M27 368l269 91q41 -131 119.5 -191t198.5 -60q138 0 209 55.5t71 160.5q0 82 -72.5 130t-223.5 48h-59l45 227h59q337 0 337 221q0 73 -52 117.5t-147 44.5q-229 0 -328 -230l-256 75q77 193 224 282.5t384 89.5q215 0 341 -91.5t126 -246.5q0 -152 -89 -246t-260 -126 q116 -17 188 -99t72 -201q0 -211 -155.5 -325t-438.5 -114q-223 0 -361 93t-201 295z" />
<glyph unicode="&#x418;" horiz-adv-x="1473" d="M36 0l273 1409h262l-159 -819q-23 -117 -61 -275l825 1094h332l-274 -1409h-262l162 831l36 166l21 88l-820 -1085h-335z" />
<glyph unicode="&#x419;" horiz-adv-x="1473" d="M36 0l273 1409h262l-159 -819q-23 -117 -61 -275l825 1094h332l-274 -1409h-262l162 831l36 166l21 88l-820 -1085h-335zM550 1773l193 74q44 -103 97.5 -145.5t124.5 -42.5q183 0 274 204l112 -49q-60 -149 -166.5 -224.5t-253.5 -75.5q-142 0 -234.5 64t-146.5 195z " />
<glyph unicode="&#x41a;" horiz-adv-x="1259" d="M36 0l273 1409h295l-116 -599q56 0 127 64t186 206l267 329h308l-335 -425q-34 -42 -66.5 -78t-61 -63.5t-51.5 -46.5t-37 -28l318 -768h-313l-240 640q-23 -13 -68.5 -24t-74.5 -11l-118 -605h-293z" />
<glyph unicode="&#x41b;" horiz-adv-x="1407" d="M-123 1l48 247q28 -7 55 -7q50 0 91 53.5t98.5 194t161.5 447.5l159 473h952l-274 -1409h-284l226 1165h-407l-116 -348q-113 -335 -175 -474.5t-119.5 -215t-128 -109.5t-172.5 -34q-57 0 -115 17z" />
<glyph unicode="&#x41c;" horiz-adv-x="1706" d="M36 0l274 1409h395l88 -788l25 -276q36 80 67 145t464 919h393l-274 -1409h-262l172 884q26 130 74 322l-69 -151q-79 -174 -114 -239l-412 -816h-210l-94 819q-31 291 -40 387q-28 -244 -43 -319l-172 -887h-262z" />
<glyph unicode="&#x41d;" horiz-adv-x="1479" d="M36 0l273 1409h295l-109 -561h626l109 561h284l-274 -1409h-284l118 604h-626l-118 -604h-294z" />
<glyph unicode="&#x41e;" horiz-adv-x="1593" d="M100 573q0 235 105.5 438.5t292.5 311t430 107.5q293 0 462 -155.5t169 -423.5q0 -247 -105.5 -450.5t-294.5 -312t-432 -108.5q-193 0 -335.5 72t-217 206.5t-74.5 314.5zM400 581q0 -184 90 -276.5t251 -92.5t275 75t176.5 223t62.5 317q0 176 -87.5 273t-253.5 97 q-162 0 -276 -75t-176 -226t-62 -315z" />
<glyph unicode="&#x41f;" horiz-adv-x="1473" d="M36 0l273 1409h1199l-274 -1409h-285l227 1165h-620l-227 -1165h-293z" />
<glyph unicode="&#x420;" horiz-adv-x="1366" d="M36 0l273 1409h541q246 0 382.5 -112t136.5 -310q0 -225 -153.5 -358t-410.5 -133h-377l-98 -496h-294zM471 723h289q155 0 232.5 58t77.5 190q0 102 -64 155.5t-184 53.5h-262z" />
<glyph unicode="&#x421;" horiz-adv-x="1479" d="M100 569q0 252 105 450.5t293.5 304.5t428.5 106q230 0 377.5 -98.5t198.5 -293.5l-274 -71q-29 107 -111 169t-200 62q-242 0 -379.5 -168t-137.5 -457q0 -173 85.5 -267.5t244.5 -94.5q266 0 418 258l227 -117q-210 -372 -665 -372q-191 0 -329.5 72t-210 205.5 t-71.5 311.5z" />
<glyph unicode="&#x422;" horiz-adv-x="1251" d="M145 1181l44 228h1206l-44 -228h-456l-230 -1181h-295l230 1181h-455z" />
<glyph unicode="&#x423;" horiz-adv-x="1387" d="M55 56l118 230q79 -42 142 -42q50 0 92 20t82.5 62.5t110.5 150.5l-375 932h297l256 -680l430 680h309l-737 -1091q-133 -198 -238 -268t-249 -70q-131 0 -238 76z" />
<glyph unicode="&#x424;" horiz-adv-x="1599" d="M78 651q0 292 176 451t501 159h47l30 158h270l-30 -158h45q145 0 252.5 -58t165 -164t57.5 -246q0 -286 -178 -445.5t-492 -159.5h-59l-38 -199h-270l38 199h-54q-207 0 -334 128t-127 335zM369 662q0 -122 59 -193.5t162 -71.5h44l127 655h-24q-175 0 -271.5 -101 t-96.5 -289zM904 397h32q170 0 267.5 106t97.5 286q0 122 -61.5 192.5t-168.5 70.5h-40z" />
<glyph unicode="&#x425;" horiz-adv-x="1366" d="M-94 0l652 736l-338 673h309l224 -471l402 471h313l-600 -677l367 -732h-307l-253 532l-455 -532h-314z" />
<glyph unicode="&#x426;" horiz-adv-x="1493" d="M36 0l274 1409h295l-226 -1165h569l226 1165h285l-226 -1165h195l-127 -652h-250l79 408h-1094z" />
<glyph unicode="&#x427;" horiz-adv-x="1450" d="M177 846q0 64 16 146l81 417h284l-80 -414q-13 -75 -13 -117q0 -98 59 -146.5t184 -48.5q163 0 352 53l130 673h295l-274 -1409h-295l107 547q-148 -49 -241.5 -66t-182.5 -17q-207 0 -314.5 97.5t-107.5 284.5z" />
<glyph unicode="&#x428;" horiz-adv-x="2005" d="M36 0l273 1409h285l-226 -1165h448l226 1165h275l-226 -1165h448l226 1165h275l-274 -1409h-1730z" />
<glyph unicode="&#x429;" horiz-adv-x="2025" d="M36 0l273 1409h285l-226 -1165h424l226 1165h275l-226 -1165h424l226 1165h275l-227 -1165h196l-127 -652h-250l79 408h-1627z" />
<glyph unicode="&#x42a;" horiz-adv-x="1749" d="M149 1181l44 228h750l-109 -561h334q232 0 366.5 -103.5t134.5 -282.5q0 -221 -162 -341.5t-452 -120.5h-680l229 1181h-455zM714 230h351q145 0 222.5 55t77.5 156q0 89 -62 134.5t-199 45.5h-314z" />
<glyph unicode="&#x42b;" horiz-adv-x="2048" d="M36 0l273 1409h295l-109 -561h374q232 0 366.5 -103.5t134.5 -282.5q0 -221 -162 -341.5t-452 -120.5h-720zM375 230h391q145 0 222.5 55t77.5 156q0 89 -62 134.5t-199 45.5h-354zM1514 0l274 1409h295l-274 -1409h-295z" />
<glyph unicode="&#x42c;" horiz-adv-x="1450" d="M36 0l273 1409h295l-109 -561h374q232 0 366.5 -103.5t134.5 -282.5q0 -221 -162 -341.5t-452 -120.5h-720zM375 230h391q145 0 222.5 55t77.5 156q0 89 -62 134.5t-199 45.5h-354z" />
<glyph unicode="&#x42d;" horiz-adv-x="1472" d="M42 384l260 95q52 -142 134.5 -204.5t205.5 -62.5q370 0 465 389h-559l45 228h546q5 30 5 62q0 147 -86.5 227t-248.5 80q-137 0 -239.5 -62.5t-147.5 -168.5l-241 71q174 392 665 392q283 0 438 -149t155 -414q0 -259 -100.5 -462t-286.5 -314t-429 -111 q-224 0 -369 98.5t-212 305.5z" />
<glyph unicode="&#x42e;" horiz-adv-x="2134" d="M35 0l273 1409h295l-109 -561h214q36 132 102.5 239.5t160.5 183.5t213 117.5t260 41.5q274 0 431.5 -154.5t157.5 -424.5q0 -176 -54.5 -340.5t-157.5 -284t-247 -183t-318 -63.5q-143 0 -252 43.5t-183 122t-112 187.5t-38 240v31h-224l-118 -604h-294zM970 581 q0 -184 80 -276.5t223 -92.5t244.5 75.5t156.5 223.5t55 316q0 178 -79 274t-224 96q-144 0 -245 -75.5t-156 -228t-55 -312.5z" />
<glyph unicode="&#x42f;" horiz-adv-x="1493" d="M-44 0l476 592q-68 26 -124.5 80.5t-87.5 127t-31 158.5q0 221 153 336t455 115h732l-274 -1409h-295l104 535h-356l-411 -535h-341zM487 954q0 -85 59.5 -137.5t158.5 -52.5h404l81 416h-393q-165 0 -237.5 -56t-72.5 -170z" />
<glyph unicode="&#x430;" d="M10 278q0 185 127.5 279.5t413.5 99.5l191 3q21 95 21 131q0 128 -127 128q-94 0 -140 -36.5t-63 -105.5l-263 31q34 144 153.5 219t317.5 75q207 0 303.5 -73t96.5 -222q0 -37 -24 -157l-71 -353q-8 -45 -8 -72q0 -24 10 -37t23 -19t26 -7.5t20 -1.5q30 0 62 7l-14 -155 q-42 -16 -85 -19t-88 -3q-100 0 -154 42t-54 111q0 37 5 64h-6q-84 -130 -166 -178.5t-200 -48.5q-140 0 -223.5 83.5t-83.5 214.5zM297 325q0 -70 39.5 -109.5t106.5 -39.5q83 0 151 64.5t95 170.5l22 92h-162q-117 -2 -184.5 -48t-67.5 -130z" />
<glyph unicode="&#x431;" horiz-adv-x="1268" d="M93 508q0 120 30.5 266.5t76 250.5t111.5 178t160.5 123.5t257 87t584.5 88.5l-45 -235q-206 -21 -391 -49q-205 -29 -287.5 -57t-134.5 -75.5t-87.5 -123.5t-66.5 -210q77 147 185 211t270 64q208 0 322 -109.5t114 -306.5q0 -120 -38.5 -244t-116.5 -212t-193.5 -131.5 t-269.5 -43.5q-227 0 -354 137.5t-127 390.5zM371 437q0 -121 55 -193t154 -72q84 0 141.5 28.5t96.5 87.5t58 146t19 160q0 116 -51 178t-151 62q-114 0 -184 -48t-104 -145t-34 -204z" />
<glyph unicode="&#x432;" horiz-adv-x="1237" d="M39 21l116 619q44 235 181.5 343.5t393.5 108.5q214 0 334.5 -68t120.5 -191q0 -106 -73.5 -177t-206.5 -94l-1 -7q107 -16 170 -77t63 -152q0 -167 -151.5 -256.5t-432.5 -89.5q-268 0 -514 41zM356 185q125 -16 212 -16q143 0 212 38t69 123q0 134 -249 134h-190z M442 632h177q129 0 197.5 40t68.5 113q0 126 -168 126q-117 0 -180.5 -59.5t-85.5 -173.5z" />
<glyph unicode="&#x433;" horiz-adv-x="1093" d="M30 304q0 95 43 161t132.5 112.5t268.5 89.5q98 24 156 41t88.5 33t40 34t9.5 44q0 19 -9 35.5t-30.5 29t-57.5 20t-91 7.5q-103 0 -152.5 -29t-78.5 -110l-233 48q52 155 165.5 219t315.5 64q205 0 318.5 -76.5t113.5 -216.5q0 -88 -37 -148t-114.5 -103t-251.5 -90 q-185 -48 -237.5 -70t-75 -47.5t-22.5 -63.5q0 -121 211 -121q119 0 179.5 34.5t88.5 113.5l235 -56q-93 -279 -508 -279q-227 0 -347 80t-120 244z" />
<glyph unicode="&#x434;" horiz-adv-x="1266" d="M60 432q3 81 11 125q45 231 179.5 357.5t333.5 126.5q116 0 205.5 -41.5t128.5 -106.5l5 77q0 158 -85.5 243t-235.5 85q-87 0 -178 -32l-58 171q32 18 99 32.5t130 14.5q289 0 443 -159.5t154 -466.5q0 -153 -39.5 -335.5t-120 -303.5t-201 -180t-291.5 -59 q-225 0 -352.5 120t-127.5 332zM354 410q0 -110 53 -174t160 -64q105 0 172.5 59t100.5 189t33 206q0 112 -55.5 169t-162.5 57q-60 0 -106.5 -18t-81.5 -57t-59.5 -99.5t-40.5 -145.5q-13 -64 -13 -122z" />
<glyph unicode="&#x435;" d="M63 418q0 207 72 362.5t204.5 238.5t306.5 83q209 0 322.5 -107.5t113.5 -303.5q0 -99 -24 -215h-700q-7 -38 -7 -89q0 -106 46.5 -162.5t137.5 -56.5q147 0 213 169l245 -74q-75 -159 -186 -221t-291 -62q-213 0 -333 115.5t-120 322.5zM391 663h431l3 56 q0 107 -49.5 156t-129.5 49q-96 0 -161.5 -66.5t-93.5 -194.5z" />
<glyph unicode="&#x436;" horiz-adv-x="1508" d="M-92 0l438 571q-33 33 -72 134l-146 377h264l86 -257q26 -79 50.5 -124.5t49.5 -67.5t65 -25l92 474h252l-92 -474q43 2 68 19.5t59.5 58.5t101.5 135l185 261h285l-285 -388q-64 -85 -128 -130l212 -564h-277l-154 458q-33 -11 -99 -11l-87 -447h-252l87 447 q-64 0 -95 11l-312 -458h-296z" />
<glyph unicode="&#x437;" horiz-adv-x="1045" d="M11 289l252 44q35 -164 200 -164q89 0 136 39.5t47 113.5q0 81 -68 115t-193 34l28 177q173 0 245 39.5t72 120.5q0 57 -42.5 86t-113.5 29q-156 0 -196 -144l-232 20q83 303 459 303q180 0 289 -71t109 -188q0 -78 -41 -140.5t-109 -99.5t-152 -46v-4q109 -17 170.5 -80 t61.5 -160q0 -155 -129 -244t-356 -89q-186 0 -297 80t-140 229z" />
<glyph unicode="&#x438;" horiz-adv-x="1251" d="M85 265q0 25 7 80.5t14 83.5l127 653h279l-118 -595q-26 -123 -26 -165q0 -129 152 -129q101 0 186.5 81t108.5 202l118 606h282l-166 -851q-16 -79 -38 -231h-268q0 9 9.5 84t14.5 101h-3q-76 -107 -166.5 -155.5t-206.5 -48.5q-152 0 -229 73t-77 211z" />
<glyph unicode="&#x439;" horiz-adv-x="1251" d="M85 265q0 25 7 80.5t14 83.5l127 653h279l-118 -595q-26 -123 -26 -165q0 -129 152 -129q101 0 186.5 81t108.5 202l118 606h282l-166 -851q-16 -79 -38 -231h-268q0 9 9.5 84t14.5 101h-3q-76 -107 -166.5 -155.5t-206.5 -48.5q-152 0 -229 73t-77 211zM368 1443l193 74 q44 -103 97.5 -145.5t124.5 -42.5q183 0 274 204l112 -49q-60 -149 -166.5 -224.5t-253.5 -75.5q-142 0 -234.5 64t-146.5 195z" />
<glyph unicode="&#x43a;" horiz-adv-x="1038" d="M36 0l211 1082h282l-91 -464q51 3 75.5 16t57.5 49t105 142l171 257h274l-270 -381q-70 -95 -136 -133l210 -568h-280l-142 458q-26 -11 -98 -11l-87 -447h-282z" />
<glyph unicode="&#x43b;" horiz-adv-x="1274" d="M-82 -2l36 186q33 -9 65 -9q29 0 53 12.5t48.5 47.5t52.5 98t65 163.5t85.5 244.5t114.5 341h800l-211 -1082h-282l174 892h-283q-61 -184 -109 -323t-89.5 -240.5t-80.5 -168.5t-81.5 -107t-93 -56.5t-115.5 -16.5q-38 0 -86 7t-63 11z" />
<glyph unicode="&#x43c;" horiz-adv-x="1515" d="M35 0l211 1082h364l61 -561q19 -203 19 -308q25 66 68.5 160t342.5 709h374l-211 -1082h-246l136 698q30 133 69 259l-461 -957h-213l-98 955q-2 -34 -8.5 -87.5t-12.5 -93.5t-149 -774h-246z" />
<glyph unicode="&#x43d;" horiz-adv-x="1237" d="M35 0l211 1082h282l-84 -428h387l84 428h282l-211 -1082h-282l90 463h-387l-90 -463h-282z" />
<glyph unicode="&#x43e;" horiz-adv-x="1251" d="M63 419q0 201 79.5 356t226.5 240.5t335 85.5q235 0 358 -109.5t123 -308.5q0 -207 -81.5 -368t-231 -248t-337.5 -87q-218 0 -345 117.5t-127 321.5zM358 431q0 -259 208 -259q112 0 177.5 56.5t103 171.5t44.5 262q0 247 -208 247q-114 0 -181.5 -60t-105.5 -182.5 t-38 -235.5z" />
<glyph unicode="&#x43f;" horiz-adv-x="1251" d="M35 0l211 1082h969l-211 -1082h-282l174 892h-405l-174 -892h-282z" />
<glyph unicode="&#x440;" horiz-adv-x="1251" d="M-45 -425l243 1258l20 110l19 139h275q0 -14 -7.5 -77.5t-15.5 -91.5h4q72 100 154.5 144.5t200.5 44.5q159 0 248 -94.5t89 -259.5q0 -202 -62 -393.5t-174.5 -283t-286.5 -91.5q-125 0 -203 52t-110 146h-2q-7 -62 -32 -188l-80 -415h-280zM400 401q0 -107 53 -167.5 t148 -60.5q102 0 161 64t93 206t34 251q0 106 -38.5 159.5t-122.5 53.5q-126 0 -201.5 -88t-109.5 -265q-17 -93 -17 -153z" />
<glyph unicode="&#x441;" d="M63 405q0 195 79 366t210.5 251t327.5 80q189 0 302 -95.5t127 -265.5l-284 -23q-11 191 -167 191q-107 0 -167.5 -73.5t-109.5 -260.5q-23 -115 -23 -168q0 -234 178 -234q83 0 137 52.5t86 155.5l271 -50q-107 -351 -510 -351q-220 0 -338.5 112.5t-118.5 312.5z" />
<glyph unicode="&#x442;" horiz-adv-x="1821" d="M35 0l166 851q20 95 39 231h272q0 -11 -10.5 -77.5t-17.5 -107.5h3q77 116 151.5 160t176.5 44q124 0 196 -59.5t86 -172.5q80 125 162.5 178.5t191.5 53.5q138 0 211.5 -73t73.5 -211q0 -64 -21 -164l-128 -653h-279l122 627q18 90 18 139v5q-3 121 -126 121 q-91 0 -158 -77t-93 -208l-119 -607h-279l123 635q17 91 17 136q0 121 -126 121q-88 0 -156.5 -75.5t-95.5 -212.5l-118 -604h-282z" />
<glyph unicode="&#x443;" d="M-85 -407l38 196q40 -9 87 -9q78 0 137.5 46t118.5 150l28 48l-212 1058h291l71 -497q6 -31 21.5 -178t13.5 -156l17 37l139 293l259 501h300l-654 -1139q-107 -167 -174.5 -235t-141 -100.5t-166.5 -32.5q-97 0 -173 18z" />
<glyph unicode="&#x444;" horiz-adv-x="1812" d="M63 348q0 194 59.5 377.5t168.5 280t262 96.5q122 0 188.5 -45t105.5 -154h4q2 12 8 43l68 361l37 177h251l-86 -447l-27 -124h4q65 99 142 144t187 45q147 0 230 -94t83 -260q0 -202 -58.5 -393t-162.5 -283t-269 -92q-117 0 -190.5 52t-103.5 146l-115 -603h-261 l84 432l36 156h-4q-71 -98 -149 -141t-184 -43q-142 0 -225 100t-83 269zM362 386q0 -214 143 -214q73 0 124.5 35.5t88 108.5t57 183t20.5 181q0 230 -156 230q-97 0 -155 -63.5t-90 -199t-32 -261.5zM1017 401q0 -112 49.5 -170t129.5 -58q91 0 143 64t82.5 206.5 t30.5 250.5q0 106 -34 159.5t-109 53.5q-110 0 -175 -85t-97 -268q-20 -110 -20 -153z" />
<glyph unicode="&#x445;" d="M-90 0l508 562l-279 520h292l173 -347l296 347h308l-483 -525l294 -557h-295l-186 383l-327 -383h-301z" />
<glyph unicode="&#x446;" horiz-adv-x="1323" d="M85 265q0 25 7 80.5t14 83.5l127 653h279l-118 -595q-26 -123 -26 -165q0 -129 152 -129q101 0 186.5 81t108.5 202l118 606h282l-174 -892h150l-116 -598h-245l79 408h-166q0 9 9.5 84t14.5 101h-3q-76 -107 -166.5 -155.5t-206.5 -48.5q-152 0 -229 73t-77 211z" />
<glyph unicode="&#x447;" horiz-adv-x="1194" d="M106 600q0 55 9 98l73 384h280l-71 -353q-7 -45 -7 -76q0 -50 32.5 -81.5t97.5 -31.5q49 0 95.5 7t158.5 38l97 497h281l-211 -1082h-281l81 415q-189 -86 -353 -86q-124 0 -203 73.5t-79 197.5z" />
<glyph unicode="&#x448;" horiz-adv-x="1821" d="M85 265q0 64 21 164l128 653h279l-122 -627q-18 -90 -18 -139v-5q3 -121 126 -121q91 0 158 77t93 208l119 607h279l-123 -635q-17 -91 -17 -136q0 -121 126 -121q88 0 156.5 75.5t95.5 212.5l118 604h282l-166 -851q-20 -95 -39 -231h-272q0 11 10.5 77.5t17.5 107.5h-3 q-77 -116 -151.5 -160t-176.5 -44q-124 0 -196 59.5t-86 172.5q-85 -130 -166.5 -181t-187.5 -51q-138 0 -211.5 73t-73.5 211z" />
<glyph unicode="&#x449;" horiz-adv-x="1915" d="M85 265q0 64 21 164l128 653h279l-122 -627q-18 -90 -18 -139v-5q3 -121 126 -121q91 0 158 77t93 208l119 607h279l-123 -635q-17 -91 -17 -136q0 -121 126 -121q88 0 156.5 75.5t95.5 212.5l118 604h282l-174 -892h186l-117 -598h-245l80 408h-207q0 11 10.5 77.5 t17.5 107.5h-3q-77 -116 -151.5 -160t-176.5 -44q-124 0 -196 59.5t-86 172.5q-85 -130 -166.5 -181t-187.5 -51q-138 0 -211.5 73t-73.5 211z" />
<glyph unicode="&#x44a;" horiz-adv-x="1448" d="M77 892l39 190h642l-85 -435h191q237 0 350.5 -76t113.5 -232q0 -176 -143.5 -267.5t-418.5 -91.5q-260 0 -496 41l169 871h-362zM580 169q64 -16 197 -16q260 0 260 176q0 72 -52 109t-169 37h-176z" />
<glyph unicode="&#x44b;" horiz-adv-x="1749" d="M38 21l206 1061h282l-85 -435h191q237 0 350.5 -76t113.5 -232q0 -176 -143.5 -267.5t-418.5 -91.5q-260 0 -496 41zM348 169q64 -16 197 -16q260 0 260 176q0 72 -52 109t-169 37h-176zM1221 0l211 1082h281l-211 -1082h-281z" />
<glyph unicode="&#x44c;" horiz-adv-x="1216" d="M38 21l206 1061h282l-85 -435h191q237 0 350.5 -76t113.5 -232q0 -176 -143.5 -267.5t-418.5 -91.5q-260 0 -496 41zM348 169q64 -16 197 -16q260 0 260 176q0 72 -52 109t-169 37h-176z" />
<glyph unicode="&#x44d;" horiz-adv-x="1130" d="M16 337l284 26q15 -93 65 -142t126 -49q105 0 165.5 68t84.5 213h-316l37 190h310l5 66q0 204 -173 204q-81 0 -136.5 -41.5t-76.5 -126.5l-284 26q43 152 177 241t333 89q217 0 333 -108.5t116 -307.5q0 -202 -75.5 -368.5t-206.5 -251.5t-307 -85q-193 0 -314 94 t-147 263z" />
<glyph unicode="&#x44e;" horiz-adv-x="1771" d="M35 0l211 1082h282l-84 -428h207q58 211 213.5 330.5t375.5 119.5q227 0 346 -109.5t119 -308.5q0 -208 -79 -369.5t-222.5 -249t-326.5 -87.5q-210 0 -333 117.5t-123 321.5v22l1 22h-215l-90 -463h-282zM917 431q0 -125 47.5 -192t144.5 -67q107 0 167 58t93.5 171 t40.5 260q0 247 -192 247q-106 0 -169 -61t-97.5 -181t-34.5 -235z" />
<glyph unicode="&#x44f;" horiz-adv-x="1206" d="M-93 0l413 471q-77 26 -129.5 102t-52.5 169q0 175 126.5 257.5t418.5 82.5h487l-211 -1082h-282l85 435h-185l-350 -435h-320zM426 747q0 -68 44.5 -104t118.5 -36h208l59 300h-192q-126 0 -182 -39t-56 -121z" />
<glyph unicode="&#x450;" d="M63 418q0 207 72 362.5t204.5 238.5t306.5 83q209 0 322.5 -107.5t113.5 -303.5q0 -99 -24 -215h-700q-7 -38 -7 -89q0 -106 46.5 -162.5t137.5 -56.5q147 0 213 169l245 -74q-75 -159 -186 -221t-291 -62q-213 0 -333 115.5t-120 322.5zM391 663h431l3 56 q0 107 -49.5 156t-129.5 49q-96 0 -161.5 -66.5t-93.5 -194.5zM416 1459l8 43h258l195 -288l-6 -31h-148z" />
<glyph unicode="&#x451;" d="M63 418q0 207 72 362.5t204.5 238.5t306.5 83q209 0 322.5 -107.5t113.5 -303.5q0 -99 -24 -215h-700q-7 -38 -7 -89q0 -106 46.5 -162.5t137.5 -56.5q147 0 213 169l245 -74q-75 -159 -186 -221t-291 -62q-213 0 -333 115.5t-120 322.5zM379 1199l42 219h214l-43 -219 h-213zM391 663h431l3 56q0 107 -49.5 156t-129.5 49q-96 0 -161.5 -66.5t-93.5 -194.5zM812 1199l43 219h217l-43 -219h-217z" />
<glyph unicode="&#x452;" horiz-adv-x="1251" d="M35 0l226 1175h-132l33 170h132l27 139h280l-27 -139h312l-33 -170h-313q-35 -183 -65 -318h3q75 104 165.5 154t207.5 50q152 0 229 -73t77 -211q0 -25 -7 -79.5t-14 -84.5l-142 -741q-29 -144 -116.5 -220.5t-227.5 -76.5q-95 0 -166 19l36 188l58 -4q67 0 98.5 34.5 t49.5 127.5l122 615q26 124 26 165q0 129 -152 129q-101 0 -187 -82t-108 -201l-110 -566h-282z" />
<glyph unicode="&#x453;" horiz-adv-x="961" d="M35 0l211 1082h715l-37 -190h-433l-174 -892h-282zM471 1183l6 31l247 288h277l-8 -43l-376 -276h-146z" />
<glyph unicode="&#x454;" horiz-adv-x="1153" d="M63 405q0 195 79 366t210.5 251t327.5 80q192 0 308.5 -97.5t130.5 -263.5l-284 -23q-5 90 -50.5 140.5t-126.5 50.5q-97 0 -158 -59.5t-103 -206.5h310l-37 -190h-309l-3 -52q0 -120 45.5 -174t132.5 -54q168 0 233 208l271 -50q-52 -173 -183 -262t-337 -89 q-220 0 -338.5 112.5t-118.5 312.5z" />
<glyph unicode="&#x455;" d="M23 271l251 36q21 -75 77 -108t166 -33q109 0 165.5 35t56.5 101q0 52 -41.5 79.5t-182.5 57.5q-199 45 -280.5 124.5t-81.5 205.5q0 160 125.5 245t358.5 85q206 0 307 -70.5t125 -217.5l-251 -29q-17 69 -66 100t-134 31q-205 0 -205 -120q0 -33 20 -55t57 -38t178 -49 q182 -41 257 -117t75 -200q0 -174 -128.5 -264t-374.5 -90q-201 0 -317 71t-157 220z" />
<glyph unicode="&#x456;" horiz-adv-x="569" d="M35 0l210 1082h281l-211 -1082h-280zM282 1277l41 207h281l-41 -207h-281z" />
<glyph unicode="&#x457;" horiz-adv-x="569" d="M35 0l210 1082h281l-211 -1082h-280zM81 1199l42 219h214l-43 -219h-213zM514 1199l43 219h217l-43 -219h-217z" />
<glyph unicode="&#x458;" horiz-adv-x="569" d="M-220 -406l36 188l58 -4q67 0 98.5 34.5t49.5 127.5l223 1142h281l-236 -1210q-29 -144 -116.5 -220.5t-227.5 -76.5q-95 0 -166 19zM283 1277l40 207h281l-40 -207h-281z" />
<glyph unicode="&#x459;" horiz-adv-x="1985" d="M-82 -2l36 186q33 -9 65 -9q29 0 53 12.5t48.5 47.5t52.5 98t65 163.5t85.5 244.5t114.5 341h857l-85 -435h191q237 0 350.5 -76t113.5 -232q0 -176 -143.5 -267.5t-418.5 -91.5q-260 0 -496 41l169 871h-340q-61 -184 -109 -323t-89.5 -240.5t-80.5 -168.5t-81.5 -107 t-93 -56.5t-115.5 -16.5q-38 0 -86 7t-63 11zM1117 169q64 -16 197 -16q260 0 260 176q0 72 -52 109t-169 37h-176z" />
<glyph unicode="&#x45a;" horiz-adv-x="1855" d="M37 0l211 1082h282l-84 -428h354l83 428h282l-85 -435h191q237 0 350.5 -76t113.5 -232q0 -176 -143.5 -267.5t-418.5 -91.5q-260 0 -496 41l86 442h-354l-90 -463h-282zM987 169q16 -4 41 -7t52.5 -5t55 -3t48.5 -1q260 0 260 176q0 72 -52 109t-169 37h-176z" />
<glyph unicode="&#x45b;" horiz-adv-x="1251" d="M35 0l226 1175h-137l33 170h137l27 139h280l-27 -139h313l-33 -170h-314q-35 -183 -65 -318h3q75 104 165.5 154t207.5 50q152 0 229 -73t77 -211q0 -25 -7 -79.5t-14 -84.5l-119 -613h-279l110 555q26 124 26 165q0 129 -152 129q-101 0 -187 -82t-108 -201l-110 -566 h-282z" />
<glyph unicode="&#x45c;" horiz-adv-x="1038" d="M36 0l211 1082h282l-91 -464q51 3 75.5 16t57.5 49t105 142l171 257h274l-270 -381q-70 -95 -136 -133l210 -568h-280l-142 458q-26 -11 -98 -11l-87 -447h-282zM574 1183l6 31l247 288h277l-8 -43l-376 -276h-146z" />
<glyph unicode="&#x45d;" horiz-adv-x="1251" d="M85 265q0 25 7 80.5t14 83.5l127 653h279l-118 -595q-26 -123 -26 -165q0 -129 152 -129q101 0 186.5 81t108.5 202l118 606h282l-166 -851q-16 -79 -38 -231h-268q0 9 9.5 84t14.5 101h-3q-76 -107 -166.5 -155.5t-206.5 -48.5q-152 0 -229 73t-77 211zM409 1459l8 43 h258l195 -288l-6 -31h-148z" />
<glyph unicode="&#x45e;" d="M-85 -407l38 196q40 -9 87 -9q78 0 137.5 46t118.5 150l28 48l-212 1058h291l71 -497q6 -31 21.5 -178t13.5 -156l17 37l139 293l259 501h300l-654 -1139q-107 -167 -174.5 -235t-141 -100.5t-166.5 -32.5q-97 0 -173 18zM314 1443l193 74q44 -103 97.5 -145.5 t124.5 -42.5q183 0 274 204l112 -49q-60 -149 -166.5 -224.5t-253.5 -75.5q-142 0 -234.5 64t-146.5 195z" />
<glyph unicode="&#x45f;" horiz-adv-x="1251" d="M85 265q0 25 7 80.5t14 83.5l127 653h279l-118 -595q-26 -123 -26 -165q0 -129 152 -129q101 0 186.5 81t108.5 202l118 606h282l-166 -851q-16 -79 -38 -231h-268q0 9 9.5 84t14.5 101h-3q-76 -107 -166.5 -155.5t-206.5 -48.5q-152 0 -229 73t-77 211zM341 -408l82 352 h234l-71 -352h-245z" />
<glyph unicode="&#x460;" horiz-adv-x="2653" d="M127 588q0 241 107 436t297.5 300.5t434.5 105.5q86 0 160 -16.5t163 -62.5l-151 -213q-91 60 -197 60q-151 0 -268.5 -80t-181 -219.5t-63.5 -308.5q0 -181 87 -280t255 -99q109 0 210.5 31t178.5 88l62 321h270l-62 -321q114 -119 318 -119q150 0 273 83t195.5 234 t72.5 321q0 177 -80 263t-248 86q-68 0 -119.5 -17.5t-99.5 -42.5l-113 213q184 79 377 79q182 0 313.5 -72t200 -203t68.5 -306q0 -236 -107.5 -440t-300.5 -316.5t-446 -112.5q-290 0 -481 136q-240 -136 -512 -136q-183 0 -320.5 75t-215 216.5t-77.5 316.5z" />
<glyph unicode="&#x461;" horiz-adv-x="1594" d="M91 1082h297l67 -843q82 92 157 220t120 259l-47 364h293l67 -843q290 304 290 724q0 51 -7 119h267q11 -53 11 -123q0 -174 -57.5 -334t-164.5 -309t-292 -316h-267l-45 360q-131 -217 -278 -360h-267z" />
<glyph unicode="&#x462;" horiz-adv-x="1683" d="M95 1037l37 190h349l35 182h295l-36 -182h458l-37 -190h-458l-36 -189h374q232 0 366.5 -103.5t134.5 -282.5q0 -221 -162 -341.5t-452 -120.5h-720l201 1037h-349zM582 230h391q145 0 222.5 55t77.5 156q0 89 -62 134.5t-199 45.5h-354z" />
<glyph unicode="&#x463;" horiz-adv-x="1735" d="M35 0l161 830q25 121 42 252h268q-21 -161 -30 -221h4q63 113 178 167t318 54h240q-21 -94 -105 -342l-31 -93h122q239 0 351.5 -75.5t112.5 -223.5q0 -180 -125.5 -274t-355.5 -94q-162 0 -253.5 39t-136 119t-44.5 200q0 90 28 203.5t107 305.5q-403 -10 -474 -367 l-96 -480h-281zM1025 328q0 -97 43.5 -136t134.5 -39q77 0 124.5 49.5t47.5 126.5q0 72 -49 109t-164 37h-118q-19 -91 -19 -147z" />
<glyph unicode="&#x464;" horiz-adv-x="1987" d="M36 0l273 1409h295l-113 -580h228q68 285 270 443t497 158q230 0 377.5 -98.5t198.5 -293.5l-274 -71q-29 107 -111.5 169t-199.5 62q-343 0 -452 -369h511l-45 -228h-500v-28q0 -184 74 -273t225 -89q266 0 418 258l227 -117q-104 -186 -272 -279t-393 -93 q-279 0 -429.5 152t-150.5 437v33h-243l-117 -602h-294z" />
<glyph unicode="&#x465;" horiz-adv-x="1637" d="M35 0l210 1082h281l-86 -439h180q66 231 208.5 345t375.5 114q192 0 308.5 -97.5t130.5 -263.5l-284 -23q-5 90 -50.5 140.5t-126.5 50.5q-99 0 -160.5 -62t-100.5 -204h310l-37 -190h-309l-3 -52q0 -120 45.5 -174t132.5 -54q168 0 233 208l271 -50q-51 -171 -182 -261 t-338 -90q-220 0 -338.5 112.5t-118.5 312.5q0 34 1 47h-185l-88 -452h-280z" />
<glyph unicode="&#x466;" horiz-adv-x="1366" d="M-93 0l787 1409h348l238 -1409h-292l-73 479h-103l-100 -479h-231l99 479h-121l-258 -479h-294zM580 703h313l-50 331q-18 135 -18 158q-21 -64 -98 -212z" />
<glyph unicode="&#x467;" d="M-92 0l609 1082h336l176 -1082h-273l-39 347h-77l-68 -347h-205l68 347h-73l-176 -347h-278zM464 534h219l-41 341z" />
<glyph unicode="&#x468;" horiz-adv-x="1896" d="M36 0l273 1409h295l-138 -706h375l395 706h348l238 -1409h-292l-73 479h-104l-99 -479h-231l98 479h-120l-258 -479h-294l267 479h-293l-93 -479h-294zM1125 703h309l-49 331q-18 135 -18 158q-21 -64 -98 -212z" />
<glyph unicode="&#x469;" horiz-adv-x="1639" d="M15 0l211 1082h281l-107 -548h334l309 548h336l176 -1082h-273l-39 347h-77l-68 -347h-205l68 347h-73l-176 -347h-278l195 347h-265l-68 -347h-281zM990 534h219l-41 341z" />
<glyph unicode="&#x46a;" horiz-adv-x="1657" d="M-18 0l71 357q24 126 68 204t109 126.5t158 78t215 33.5l-254 610h1298l-490 -610q185 -14 281 -115.5t96 -278.5q0 -65 -11 -122l-53 -283h-286l61 317q6 33 6 62q0 94 -67 145.5t-186 51.5h-18l-112 -576h-285l112 576h-20q-156 0 -238.5 -60t-105.5 -177l-64 -339 h-285zM735 1186l146 -373l292 373h-438z" />
<glyph unicode="&#x46b;" horiz-adv-x="1543" d="M19 0l53 261q68 333 468 333l-211 488h1097l-401 -488q108 -9 182 -52t112.5 -114t38.5 -162q0 -22 -2.5 -43.5t-43.5 -222.5h-274l34 175q7 35 7 67q0 166 -195 166l-80 -408h-275l80 408q-236 0 -281 -233l-34 -175h-275zM672 879l107 -294l224 294h-331z" />
<glyph unicode="&#x46c;" horiz-adv-x="2218" d="M0 0l273 1409h295l-118 -610h721l-254 610h1298l-490 -610q185 -14 281 -115.5t96 -278.5q0 -65 -11 -122l-53 -283h-286l61 317q6 33 6 62q0 94 -67 145.5t-186 51.5h-18l-112 -576h-285l112 576h-20q-156 0 -238.5 -60t-105.5 -177l-64 -339h-285l71 357 q26 148 102 214h-317l-111 -571h-295zM1303 1186l146 -373l292 373h-438z" />
<glyph unicode="&#x46d;" horiz-adv-x="2003" d="M39 0l211 1082h281l-95 -488h625l-211 488h1097l-401 -488q108 -9 182 -52t112.5 -114t38.5 -162q0 -22 -2.5 -43.5t-43.5 -222.5h-274l34 175q7 35 7 67q0 166 -195 166l-80 -408h-275l80 408q-236 0 -281 -233l-34 -175h-275l49 242q10 50 31.5 90t48.5 59h-273 l-76 -391h-281zM1193 879l107 -294l224 294h-331z" />
<glyph unicode="&#x46e;" horiz-adv-x="1316" d="M-57 -130q0 107 56 178t162.5 115t319.5 74l150 21q124 16 185.5 58t61.5 118t-73.5 122t-223.5 46h-57l44 227h57q340 0 340 223q0 71 -52.5 115.5t-149.5 44.5q-111 0 -190.5 -54.5t-134.5 -174.5l-256 74q65 160 172 246.5t293 116.5l-113 349h198l79 -335l150 223 q51 74 93.5 99t98.5 25q49 0 91.5 -20t65.5 -58l-98 -89q-12 26 -39 26q-33 0 -66 -46l-133 -181q129 -27 205.5 -116t76.5 -203q0 -153 -83 -245.5t-268 -129.5q118 -19 190 -98t72 -189q0 -137 -74 -227.5t-212.5 -132.5t-377.5 -62q-88 -8 -156 -21.5t-110 -38t-42 -71.5 q0 -34 26 -57.5t77 -23.5q49 0 109.5 16.5t125.5 37t131 37t127 16.5q122 0 184.5 -61t62.5 -174q0 -39 -8 -85h-282l4 34q0 62 -60 62q-35 0 -83 -16.5t-104.5 -36.5t-120 -36.5t-130.5 -16.5q-140 0 -225.5 79t-85.5 216z" />
<glyph unicode="&#x46f;" horiz-adv-x="1045" d="M-51 -168q0 74 22 128.5t65.5 94.5t114.5 68.5t219 55.5q129 24 174.5 43t71 48t25.5 74q0 64 -62.5 95.5t-200.5 31.5l35 177q166 0 240 44t74 134q0 43 -40.5 70t-106.5 27q-164 0 -202 -144l-233 22q34 117 114 191t214 99l-114 318h198l85 -307l144 195 q53 72 95.5 98t99.5 26q49 0 90 -20t64 -58l-98 -89q-12 26 -38 26q-31 0 -67 -46l-123 -163q91 -30 142 -91t51 -133q0 -118 -81 -195t-220 -95v-4q110 -19 170.5 -78.5t60.5 -149.5q0 -129 -88.5 -205t-297.5 -109l-113 -19q-143 -22 -196.5 -55t-53.5 -86q0 -70 95 -70 q37 0 81.5 14t93 31t100.5 31t106 14q190 0 190 -203q0 -37 -6 -77h-234q1 13 1 17q0 57 -62 57q-39 0 -72.5 -14t-71 -31t-81.5 -31t-104 -14q-73 0 -135.5 31.5t-98.5 89.5t-36 136z" />
<glyph unicode="&#x470;" horiz-adv-x="1697" d="M230 1409h279l56 -629q13 -132 154 -132l147 761h279l-147 -761h9q161 0 245 66.5t117 227.5l90 467h279l-90 -463q-50 -263 -212 -391t-441 -128h-40l-83 -427h-279l83 427q-142 0 -223.5 43t-122.5 137.5t-58 310.5z" />
<glyph unicode="&#x471;" horiz-adv-x="1583" d="M188 1082h275l-10 -772q0 -56 36 -94.5t90 -38.5l176 905h257l-176 -906q142 2 211.5 70.5t100.5 227.5l118 608h275l-121 -624q-49 -249 -198 -362.5t-422 -115.5l-79 -405h-259l79 405q-101 1 -168.5 25.5t-106.5 71.5t-56 126.5t-17 254.5z" />
<glyph unicode="&#x472;" horiz-adv-x="1593" d="M100 573q0 235 105.5 438.5t292.5 311t430 107.5q293 0 462 -155.5t169 -423.5q0 -246 -105 -449t-294.5 -312.5t-432.5 -109.5q-193 0 -335.5 72t-217 206.5t-74.5 314.5zM400 576q1 -183 90.5 -273.5t250.5 -90.5q370 0 482 387q-94 43 -208 43q-46 0 -98.5 -15 t-110 -33.5t-119 -33.5t-124.5 -15q-32 0 -81 8t-82 23zM435 819q32 -16 83 -26.5t89 -10.5q71 0 125.5 15t105.5 33.5t103.5 33.5t119.5 15q93 0 194 -38q-4 173 -93 264.5t-248 91.5q-370 0 -479 -378z" />
<glyph unicode="&#x473;" horiz-adv-x="1251" d="M63 419q0 201 79.5 356t227 240.5t334.5 85.5q233 0 357 -109.5t124 -308.5q0 -207 -81.5 -368t-231 -248t-337.5 -87q-218 0 -345 117t-127 322zM358 422q4 -250 208 -250q88 0 141.5 30.5t93 94.5t64.5 170q-54 16 -120 16q-34 0 -66 -12t-67 -26.5t-75.5 -26.5 t-91.5 -12q-47 0 -87 16zM381 615q52 -16 103 -16q52 0 89 12t70 27t68 27t83 12q46 0 97 -18v3q0 247 -208 247q-124 0 -195.5 -74.5t-106.5 -219.5z" />
<glyph unicode="&#x474;" horiz-adv-x="1606" d="M167 1409h308l114 -905q18 -163 23 -266q61 146 123 266l315 624q82 158 179 230t233 72q177 0 315 -145l-161 -168q-72 82 -146 82q-52 0 -89.5 -29.5t-79.5 -104.5l-587 -1065h-299z" />
<glyph unicode="&#x475;" horiz-adv-x="1257" d="M111 1082h288l71 -605q4 -31 23 -267l26 58q58 135 96 206l167 322q88 171 173 238.5t217 67.5q109 0 217 -69l-139 -211q-45 29 -81 29q-45 0 -75.5 -29t-68.5 -96l-402 -726h-336z" />
<glyph unicode="&#x476;" horiz-adv-x="1606" d="M167 1409h308l114 -905q18 -163 23 -266q61 146 123 266l315 624q82 158 179 230t233 72q177 0 315 -145l-161 -168q-72 82 -146 82q-52 0 -89.5 -29.5t-79.5 -104.5l-587 -1065h-299zM364 1792l9 43h256l197 -288l-8 -31h-147zM769 1792l9 43h256l197 -288l-8 -31h-147z " />
<glyph unicode="&#x477;" horiz-adv-x="1257" d="M111 1082h288l71 -605q4 -31 23 -267l26 58q58 135 96 206l167 322q88 171 173 238.5t217 67.5q109 0 217 -69l-139 -211q-45 29 -81 29q-45 0 -75.5 -29t-68.5 -96l-402 -726h-336zM188 1459l9 43h256l197 -288l-8 -31h-147zM593 1459l9 43h256l197 -288l-8 -31h-147z " />
<glyph unicode="&#x478;" horiz-adv-x="2327" d="M97 510q0 252 91 472.5t247.5 334t359.5 113.5q206 0 322 -137.5t116 -385.5q0 -256 -90.5 -470.5t-250 -335.5t-360.5 -121q-206 0 -320.5 141t-114.5 389zM386 534q0 -147 51.5 -234.5t138.5 -87.5q99 0 181.5 89t133 249.5t50.5 333.5q0 149 -51.5 231.5t-140.5 82.5 q-98 0 -180.5 -87.5t-132.5 -246.5t-50 -330zM1095 -407l38 196q41 -9 87 -9q53 0 94.5 19.5t81.5 64t108 160.5l-182 1058h291l84 -818l387 818h300l-634 -1139q-115 -208 -224 -288t-258 -80q-97 0 -173 18z" />
<glyph unicode="&#x479;" horiz-adv-x="2010" d="M68 395q0 192 71.5 357t195 257.5t276.5 92.5q158 0 247 -106t89 -294q0 -198 -72.5 -367t-196 -262t-278.5 -93q-152 0 -242 115t-90 300zM335 388q0 -102 26.5 -159t75.5 -57q63 0 117.5 69.5t90 197.5t35.5 259q0 102 -28.5 156.5t-77.5 54.5q-62 0 -114.5 -67.5 t-88.5 -195.5t-36 -258zM842 -407l38 196q41 -9 87 -9q53 0 94.5 19.5t81.5 64t108 160.5l-182 1058h291l84 -818l387 818h300l-634 -1139q-115 -208 -224 -288t-258 -80q-97 0 -173 18z" />
<glyph unicode="&#x47a;" horiz-adv-x="1698" d="M66 581q0 234 94 425t265 301t394 119q28 47 82.5 75t116.5 28q58 0 108.5 -30.5t69.5 -77.5q152 -22 262 -101t168 -203t58 -276q0 -223 -99 -417.5t-276.5 -312.5t-391.5 -126q-84 -104 -195 -104q-55 0 -104.5 30t-68.5 79q-222 29 -352.5 193t-130.5 398zM366 583 q0 -152 61 -249t171 -119q83 96 188 96q55 0 102.5 -26.5t67.5 -68.5q126 19 221 103t147.5 218t52.5 286t-61.5 251t-168.5 120q-84 -95 -188 -95q-56 0 -103.5 26.5t-67.5 69.5q-128 -16 -223 -97t-147 -218t-52 -297z" />
<glyph unicode="&#x47b;" horiz-adv-x="1328" d="M31 435q0 179 73.5 328.5t207.5 237t309 96.5q51 76 156 76q47 0 87 -20.5t59 -55.5q190 -32 281.5 -139t91.5 -276q0 -290 -153.5 -472.5t-424.5 -216.5q-32 -42 -77 -67.5t-97 -25.5q-53 0 -93.5 25.5t-57.5 67.5q-174 31 -268 147t-94 295zM320 431q0 -94 31.5 -156.5 t86.5 -82.5q73 84 167 84q49 0 88 -24.5t58 -62.5q71 11 128.5 73.5t93 175t35.5 230.5q0 86 -28.5 144.5t-82.5 80.5q-33 -44 -79.5 -70t-99.5 -26q-54 0 -94.5 26.5t-55.5 69.5q-72 -16 -128 -85t-88 -172t-32 -205z" />
<glyph unicode="&#x47c;" horiz-adv-x="2653" d="M114 580q0 247 104 441t297.5 301.5t445.5 107.5q89 0 164.5 -17.5t160.5 -61.5l-162 -213q-91 60 -201 60q-155 0 -270 -78.5t-176.5 -221.5t-61.5 -326q0 -168 95.5 -264.5t261.5 -96.5q130 0 249.5 47t290.5 169q131 -127 225 -171.5t220 -44.5q161 0 283.5 76.5 t189.5 214.5t67 312q0 176 -87 280t-240 104q-68 0 -120 -17.5t-100 -42.5l-101 213q181 79 347 79q183 0 318.5 -72.5t209 -206t73.5 -302.5q0 -258 -110.5 -459.5t-303.5 -305.5t-448 -104q-265 0 -477 155q-150 -92 -266.5 -123.5t-258.5 -31.5q-187 0 -327 76.5 t-216 214.5t-76 309zM1032 1595q33 181 164.5 282.5t322.5 101.5q157 0 343 -100q58 -32 111.5 -55t102 -36.5t131.5 -17.5l-34 -175h-22q-88 0 -164 25t-170 84q-92 59 -165.5 84t-153.5 25q-125 0 -196.5 -57.5t-91.5 -160.5h-178zM1366 1527l34 172h230l-28 -140 q-26 -121 -81 -201h-130q29 35 51 81.5t30 87.5h-106z" />
<glyph unicode="&#x47d;" horiz-adv-x="1858" d="M75 426q0 201 80.5 354.5t232.5 237.5t358 84h6l-45 -218q-171 0 -254 -114t-83 -348q0 -245 214 -245q63 0 129.5 24t165.5 82q65 -50 128.5 -78.5t144.5 -28.5q164 0 251 124.5t87 361.5q0 116 -54 170t-146 54l39 216q212 0 334 -109.5t122 -311.5 q0 -207 -81.5 -367.5t-232 -247t-349.5 -86.5q-153 0 -276 70q-152 -70 -300 -70q-222 0 -346.5 121t-124.5 325zM602 1346q31 167 172 275.5t328 108.5q156 0 337 -100q68 -39 122 -61.5t97 -33.5t119 -14l-34 -175h-22q-88 0 -165.5 25.5t-169.5 83.5q-92 59 -165.5 84 t-153.5 25q-125 0 -196 -57.5t-91 -160.5h-178zM936 1278l33 172h230l-27 -140q-23 -117 -81 -201h-130q29 35 51 81.5t30 87.5h-106z" />
<glyph unicode="&#x47e;" horiz-adv-x="2653" d="M127 588q0 241 107 436t297.5 300.5t434.5 105.5q86 0 160 -16.5t163 -62.5l-151 -213q-91 60 -197 60q-151 0 -268.5 -80t-181 -219.5t-63.5 -308.5q0 -181 87 -280t255 -99q109 0 210.5 31t178.5 88l62 321h270l-62 -321q114 -119 318 -119q150 0 273 83t195.5 234 t72.5 321q0 177 -80 263t-248 86q-68 0 -119.5 -17.5t-99.5 -42.5l-113 213q184 79 377 79q182 0 313.5 -72t200 -203t68.5 -306q0 -236 -107.5 -440t-300.5 -316.5t-446 -112.5q-290 0 -481 136q-240 -136 -512 -136q-183 0 -320.5 75t-215 216.5t-77.5 316.5zM1013 1717 h914l-90 -215h-39l-47 111h-214l-47 -111h-40l-47 111h-214l-47 -111h-39z" />
<glyph unicode="&#x47f;" horiz-adv-x="1594" d="M91 1082h297l67 -843q82 92 157 220t120 259l-47 364h293l67 -843q290 304 290 724q0 51 -7 119h267q11 -53 11 -123q0 -174 -57.5 -334t-164.5 -309t-292 -316h-267l-45 360q-131 -217 -278 -360h-267zM393 1375h914l-90 -215h-39l-47 111h-214l-47 -111h-40l-47 111 h-214l-47 -111h-39z" />
<glyph unicode="&#x480;" horiz-adv-x="1479" d="M100 569q0 252 105 450.5t293.5 304.5t428.5 106q230 0 377.5 -98.5t198.5 -293.5l-274 -71q-29 107 -111.5 169t-199.5 62q-242 0 -379.5 -168t-137.5 -457q0 -173 85.5 -267.5t244.5 -94.5q80 0 156 26q-40 -213 -128 -662h-295l81 421q-212 41 -328.5 191.5 t-116.5 381.5z" />
<glyph unicode="&#x481;" horiz-adv-x="1026" d="M34 405q0 191 77 363.5t207 253t323 80.5q186 0 295.5 -93.5t123.5 -267.5l-284 -23q-5 89 -41 140t-116 51q-97 0 -154 -59.5t-96.5 -207t-39.5 -235.5q0 -121 47 -177.5t147 -56.5q119 0 185 56l-139 -654h-281l80 416q-160 29 -247 136.5t-87 277.5z" />
<glyph unicode="&#x482;" horiz-adv-x="1196" d="M-4 514l91 216l372 -97l98 215l-371 97l92 215l371 -97l189 421h250l-216 -482l369 -97l-92 -215l-370 97l-98 -215l370 -97l-93 -216l-370 97l-160 -356h-249l187 417z" />
<glyph unicode="&#x483;" horiz-adv-x="0" d="M-184 1235q0 55 33.5 88.5t87.5 33.5h339v12q0 54 35 84.5t86 30.5q50 0 85.5 -34.5t35.5 -86.5q0 -53 -35.5 -87.5t-85.5 -34.5h-339v-12q0 -55 -35 -85t-86 -30q-53 0 -87 33.5t-34 87.5z" />
<glyph unicode="&#x484;" horiz-adv-x="0" d="M-213 1224l36 185h102q53 0 101 15.5t93.5 33.5t91 33.5t92.5 15.5q197 0 197 -188q0 -44 -8 -95h-105l1 23q0 109 -110 109q-39 0 -82 -20.5t-92 -45.5t-104.5 -45.5t-117.5 -20.5h-95z" />
<glyph unicode="&#x485;" horiz-adv-x="0" d="M31 1279q0 35 8 79l24 126h244l-40 -207h-108l-3 -25q0 -58 64 -145h-136q-31 50 -42 87t-11 85z" />
<glyph unicode="&#x486;" horiz-adv-x="0" d="M7 1107q112 100 127 170h-108l40 207h244l-24 -126q-14 -71 -45.5 -128.5t-96.5 -122.5h-137z" />
<glyph unicode="&#x487;" horiz-adv-x="0" d="M-447 1390q0 170 117 277t302 107q76 0 158.5 -23t198.5 -77t196 -79.5t169 -29.5v-175h-22q-89 0 -174.5 25.5t-192.5 83.5q-112 60 -184 84.5t-145 24.5q-125 0 -185 -57.5t-60 -160.5h-178z" />
<glyph unicode="&#x488;" horiz-adv-x="0" d="M-977 458q0 255 217 255t217 -255h-103q0 149 -114 149t-114 -149h-103zM-857 -98q0 255 217 255t217 -255h-103q0 149 -114 149t-114 -149h-103zM-857 964q0 255 217 255t217 -255h-103q0 149 -114 149t-114 -149h-103zM-217 -342q0 255 217 255t217 -255h-103 q0 149 -114 149t-114 -149h-103zM-217 1208q0 255 217 255t217 -255h-103q0 149 -114 149t-114 -149h-103zM443 -98q0 255 217 255t217 -255h-103q0 149 -114 149t-114 -149h-103zM443 964q0 255 217 255t217 -255h-103q0 149 -114 149t-114 -149h-103zM563 458 q0 255 217 255t217 -255h-103q0 149 -114 149t-114 -149h-103z" />
<glyph unicode="&#x489;" horiz-adv-x="0" d="M-917 501v100q88 -66 169 -66v75h155v-163h-122q-68 0 -114.5 13t-87.5 41zM-762 -74q108 15 166 73l-53 53l110 110l115 -116l-86 -86q-49 -48 -90.5 -71.5t-90.5 -33.5zM-718 1160l70 71q15 -109 72 -166l53 53l111 -110l-116 -115l-86 86q-48 48 -71.5 90t-32.5 91z M-94 -59h163v-122q0 -68 -13 -114.5t-41 -87.5h-100q66 88 66 168h-75v156zM-94 1187v122q0 68 13 114.5t41 87.5h100q-66 -88 -66 -168h75v-156h-163zM427 118l115 116l86 -87q48 -48 71.5 -90t33.5 -91l-71 -70q-15 109 -72 165l-53 -53zM440 1066l86 86q48 49 90 72 t91 33l71 -71q-110 -15 -167 -72l53 -54l-109 -109zM603 499v163h122q68 0 114.5 -13t87.5 -41v-100q-88 66 -169 66v-75h-155z" />
<glyph unicode="&#x48a;" horiz-adv-x="1473" d="M36 0l273 1409h262l-159 -819q-21 -107 -61 -275l825 1094h332l-227 -1165h152l-357 -652h-250l242 408h-96l162 831l36 166l21 88l-820 -1085h-335zM512 1762l193 74q44 -103 97.5 -145.5t124.5 -42.5q183 0 274 204l112 -49q-60 -149 -166.5 -224.5t-253.5 -75.5 q-142 0 -234.5 64t-146.5 195z" />
<glyph unicode="&#x48b;" horiz-adv-x="1251" d="M85 265q0 25 7 79.5t14 84.5l127 653h279l-118 -595q-26 -123 -26 -165q0 -129 152 -129q101 0 187 82t108 201l118 606h282l-176 -891h133l-327 -599h-250l242 408h-94q0 9 9.5 84t14.5 101h-3q-75 -104 -165.5 -154t-207.5 -50q-152 0 -229 73t-77 211zM339 1443 l193 74q44 -103 97.5 -145.5t124.5 -42.5q183 0 274 204l112 -49q-60 -149 -166.5 -224.5t-253.5 -75.5q-142 0 -234.5 64t-146.5 195z" />
<glyph unicode="&#x48c;" horiz-adv-x="1450" d="M36 0l207 1070h-129l34 176h129l32 163h295l-32 -163h159l-35 -176h-158l-43 -222h374q232 0 366.5 -103.5t134.5 -282.5q0 -221 -162 -341.5t-452 -120.5h-720zM375 230h391q145 0 222.5 55t77.5 156q0 89 -62 134.5t-199 45.5h-354z" />
<glyph unicode="&#x48d;" horiz-adv-x="1216" d="M38 21l224 1154h-126l33 170h126l27 139h282l-27 -139h149l-33 -170h-149l-103 -528h191q237 0 350.5 -76t113.5 -232q0 -176 -143.5 -267.5t-418.5 -91.5q-260 0 -496 41zM348 169q64 -16 197 -16q260 0 260 176q0 72 -52 109t-169 37h-176z" />
<glyph unicode="&#x48e;" horiz-adv-x="1366" d="M36 0l273 1409h541q246 0 382.5 -112t136.5 -310q0 -224 -153 -358l84 -103l-185 -151l-116 144q-90 -23 -194 -23h-377l-98 -496h-294zM471 723h289l72 3l-84 105l184 151l112 -139q26 54 26 128q0 102 -64 155.5t-184 53.5h-262z" />
<glyph unicode="&#x48f;" horiz-adv-x="1251" d="M-45 -425l243 1258l20 110l19 139h275q0 -11 -6.5 -65.5t-16.5 -103.5h4q73 103 157 146t198 43q159 0 248 -94.5t89 -259.5q0 -184 -53 -364t-144 -275l94 -116l-142 -117l-106 131q-77 -27 -172 -27q-125 0 -203 52t-110 146h-2q-3 -29 -8.5 -61.5t-103.5 -541.5h-280z M400 401q0 -107 53 -167.5t148 -60.5q50 0 88 14l-116 145l141 117l101 -126q31 69 52.5 180t21.5 191q0 106 -38.5 159.5t-122.5 53.5q-81 0 -139.5 -35t-99.5 -106.5t-65 -178.5t-24 -186z" />
<glyph unicode="&#x490;" horiz-adv-x="1178" d="M36 1l272 1408h686l80 411h250l-124 -639h-641l-229 -1180h-294z" />
<glyph unicode="&#x491;" horiz-adv-x="956" d="M35 0l209 1082h481l79 408h245l-116 -598h-444l-173 -892h-281z" />
<glyph unicode="&#x492;" horiz-adv-x="1257" d="M22 617l40 214h135l112 578h1024l-44 -228h-729l-68 -350h369l-40 -214h-371l-119 -616h-295l119 616h-133z" />
<glyph unicode="&#x493;" horiz-adv-x="961" d="M7 437l35 185h113l89 460h778l-39 -190h-494l-52 -270h217l-35 -185h-218l-85 -437h-281l84 437h-112z" />
<glyph unicode="&#x494;" horiz-adv-x="1365" d="M35 0l274 1409h1061l-44 -227h-766l-62 -320q101 41 160 52.5t130 11.5q235 0 361 -135.5t126 -379.5q0 -253 -87 -443t-246 -291.5t-361 -101.5q-150 0 -258.5 30.5t-185.5 101.5l177 178q96 -91 264 -91q118 0 214.5 77.5t145 209t48.5 310.5q0 151 -66 228t-217 77 q-62 0 -114.5 -10.5t-133.5 -44.5l-124 -641h-296z" />
<glyph unicode="&#x495;" horiz-adv-x="1183" d="M34 0l210 1082h790l-46 -234h-508l-51 -263q60 15 108 22t121 7q210 0 319 -109.5t109 -311.5q0 -288 -168.5 -453t-458.5 -165q-126 0 -232 39t-165 109l192 130q31 -32 87 -56.5t131 -24.5q165 0 253 106t88 302q0 116 -58.5 180t-168.5 64q-89 0 -193 -26l-77 -398 h-282z" />
<glyph unicode="&#x496;" horiz-adv-x="1899" d="M-86 0l600 773q-29 32 -111 229l-172 407h290l125 -324q60 -157 103 -216t103 -59l116 599h274l-116 -599q48 0 105.5 51t193.5 224l255 324h310l-324 -407q-66 -82 -124.5 -144t-84.5 -78l208 -536h185l-127 -652h-250l79 408h-98l-224 640q-22 -12 -67.5 -23.5 t-76.5 -11.5l-118 -605h-273l118 605q-73 0 -114 29l-470 -634h-315z" />
<glyph unicode="&#x497;" horiz-adv-x="1508" d="M-92 0l438 571q-33 33 -72 134l-146 377h264l86 -257q26 -79 50.5 -124.5t49.5 -67.5t65 -25l92 474h252l-92 -474q35 2 53.5 11t41.5 31t53.5 61t265.5 371h285l-285 -388q-64 -85 -128 -130l140 -374h151l-116 -598h-245l79 408h-74l-154 458q-33 -11 -99 -11l-87 -447 h-252l87 447q-64 0 -95 11l-312 -458h-296z" />
<glyph unicode="&#x498;" horiz-adv-x="1316" d="M27 368l269 91q41 -131 119.5 -191t198.5 -60q138 0 209 55.5t71 160.5q0 82 -72.5 130t-223.5 48h-59l45 227h59q337 0 337 221q0 73 -52 117.5t-147 44.5q-229 0 -328 -230l-256 75q77 193 224 282.5t384 89.5q213 0 340 -91t127 -247q0 -152 -89 -246t-260 -126 q116 -17 188 -99t72 -201q0 -188 -125.5 -300.5t-356.5 -133.5q1 -38 1 -66q0 -344 -327 -344q-47 0 -98.5 10t-77.5 25l28 142q22 -11 61 -20t79 -9q83 0 126 61t43 197q-203 11 -327.5 105t-181.5 282z" />
<glyph unicode="&#x499;" horiz-adv-x="1045" d="M11 289l252 44q35 -164 200 -164q91 0 137 40.5t46 112.5q0 81 -68 115t-193 34l28 177q173 0 245 39.5t72 120.5q0 57 -42.5 86t-113.5 29q-156 0 -196 -144l-232 20q83 303 459 303q180 0 289 -71t109 -188q0 -78 -41 -140.5t-109 -99.5t-152 -46v-4q110 -18 171 -81.5 t61 -158.5q0 -135 -99.5 -221t-276.5 -106q1 -38 1 -67q0 -344 -327 -344q-47 0 -98.5 10t-77.5 25l28 142q22 -11 61 -20t79 -9q83 0 126 62t43 197q-161 12 -257.5 90.5t-123.5 216.5z" />
<glyph unicode="&#x49a;" horiz-adv-x="1259" d="M36 0l273 1409h295l-116 -599q56 0 127 64t186 206l267 329h308l-335 -425q-130 -161 -216 -216l217 -524h186l-127 -652h-250l79 408h-100l-240 640q-23 -13 -68.5 -24t-74.5 -11l-118 -605h-293z" />
<glyph unicode="&#x49b;" horiz-adv-x="1038" d="M36 0l211 1082h282l-91 -464q45 2 67.5 12t47 33.5t56.5 66.5t238 352h274l-270 -381q-70 -95 -136 -133l120 -324h185l-127 -652h-250l79 408h-77l-142 458q-29 -11 -98 -11l-87 -447h-282z" />
<glyph unicode="&#x49c;" horiz-adv-x="1259" d="M36 0l273 1409h295l-116 -599q54 0 124 61l79 404h110l-50 -256l317 390h308l-335 -425q-130 -161 -216 -216l318 -768h-313l-183 487l-61 -314h-110l89 456q-61 -24 -118 -24l-118 -605h-293z" />
<glyph unicode="&#x49d;" horiz-adv-x="1038" d="M36 0l211 1082h282l-91 -464h16l38 -1l20 1l68 348h110l-44 -223l201 339h274l-262 -381q-70 -95 -136 -133l202 -568h-280l-83 310l-26 -137h-110l54 279l-75 -5l-87 -447h-282z" />
<glyph unicode="&#x49e;" horiz-adv-x="1259" d="M36 0l207 1070h-134l34 176h134l32 163h295l-32 -163h154l-35 -176h-153l-50 -260q56 0 127 64t186 206l267 329h308l-335 -425q-130 -161 -216 -216l318 -768h-313l-240 640q-23 -13 -68.5 -24t-74.5 -11l-118 -605h-293z" />
<glyph unicode="&#x49f;" horiz-adv-x="1038" d="M36 0l229 1175h-141l31 170h143l27 138h282l-27 -138h158l-32 -170h-159l-109 -557q45 2 67.5 12t47 33.5t56.5 66.5t238 352h274l-270 -381q-70 -95 -136 -133l210 -568h-280l-142 458q-29 -11 -98 -11l-87 -447h-282z" />
<glyph unicode="&#x4a0;" horiz-adv-x="1567" d="M146 1181l45 228h723l-116 -599q56 0 127 64t186 206l267 329h308l-335 -425q-130 -161 -216 -216l318 -768h-313l-240 640q-23 -13 -68.5 -24t-74.5 -11l-118 -605h-293l229 1181h-429z" />
<glyph unicode="&#x4a1;" horiz-adv-x="1254" d="M96 848l45 234h611l-91 -464q45 2 67.5 12t47 33.5t56.5 66.5t238 352h274l-270 -381q-65 -92 -136 -133l210 -568h-280l-142 458q-29 -11 -98 -11l-87 -447h-282l165 848h-328z" />
<glyph unicode="&#x4a2;" horiz-adv-x="1479" d="M36 0l273 1409h295l-109 -561h626l109 561h284l-227 -1165h162l-127 -652h-250l79 408h-195l118 604h-626l-118 -604h-294z" />
<glyph unicode="&#x4a3;" horiz-adv-x="1237" d="M35 0l211 1082h282l-84 -428h387l84 428h282l-164 -838h162l-127 -652h-250l79 408h-193l90 463h-387l-90 -463h-282z" />
<glyph unicode="&#x4a4;" horiz-adv-x="1787" d="M39 0l273 1409h295l-109 -561h614l109 561h710l-44 -228h-415l-229 -1181h-295l117 604h-615l-116 -604h-295z" />
<glyph unicode="&#x4a5;" horiz-adv-x="1423" d="M37 0l211 1082h282l-84 -428h387l84 428h630l-46 -234h-348l-165 -848h-282l90 463h-387l-90 -463h-282z" />
<glyph unicode="&#x4a6;" horiz-adv-x="2287" d="M38 0l274 1409h1178l-107 -547q101 41 160 52.5t130 11.5q229 0 359 -138t130 -387q0 -252 -87.5 -440.5t-247 -287t-361.5 -98.5q-150 0 -258.5 30.5t-185.5 101.5l177 178q96 -91 264 -91q63 0 134.5 27.5t133 94.5t102 180.5t40.5 284.5q0 315 -285 315 q-62 0 -114.5 -10.5t-133.5 -44.5l-124 -641h-285l226 1165h-599l-226 -1165h-294z" />
<glyph unicode="&#x4a7;" horiz-adv-x="1867" d="M37 0l210 1082h951l-97 -497q114 29 240 29q210 0 319 -109.5t109 -311.5q0 -288 -168.5 -453t-458.5 -165q-126 0 -232 39t-165 109l192 130q31 -32 87 -56.5t131 -24.5q165 0 253 106t88 302q0 116 -58.5 180t-168.5 64q-106 0 -204 -26l-77 -398h-282l173 892h-387 l-173 -892h-282z" />
<glyph unicode="&#x4a8;" horiz-adv-x="1485" d="M102 599q0 217 102.5 416.5t267.5 307t367 107.5q57 0 90.5 -5.5t76.5 -22.5l-105 -218q-37 11 -114 11q-107 0 -193 -79t-139 -231t-53 -319q0 -170 83 -269.5t226 -99.5q-32 71 -51 167.5t-19 171.5q0 166 61 313.5t162 223t229 75.5q123 0 194.5 -86.5t71.5 -236.5 q0 -143 -66 -314t-171 -298q163 0 253 47l-46 -244q-83 -36 -199 -36q-146 0 -244 52q-77 -32 -128 -42t-127 -10q-160 0 -280.5 77t-184.5 218t-64 324zM882 537q0 -82 14 -161t32 -115q81 91 136 253t55 297q0 103 -64 103q-45 0 -85 -51.5t-64 -141t-24 -184.5z" />
<glyph unicode="&#x4a9;" horiz-adv-x="1157" d="M63 431q0 181 74.5 338t201.5 244.5t288 87.5q85 0 163 -35l-112 -195q-22 19 -70 19q-74 0 -134.5 -58.5t-95 -159.5t-34.5 -215q0 -294 221 -294q-23 46 -39.5 119t-16.5 125q0 121 43.5 229.5t117.5 161.5t171 53q103 0 161 -61.5t58 -175.5q0 -113 -44 -231 t-118 -211q43 0 101 9.5t95 25.5l-38 -190q-84 -37 -190 -37q-95 0 -167 35q-93 -35 -196 -35q-200 0 -320 124t-120 327zM703 390q0 -123 31 -177q55 54 95 167.5t40 222.5q0 42 -15.5 62.5t-40.5 20.5q-46 0 -78 -84t-32 -212z" />
<glyph unicode="&#x4aa;" horiz-adv-x="1479" d="M100 569q0 252 105 450.5t293.5 304.5t428.5 106q230 0 377.5 -98.5t198.5 -293.5l-274 -71q-29 107 -111.5 169t-199.5 62q-242 0 -379.5 -168t-137.5 -457q0 -173 85.5 -267.5t244.5 -94.5q266 0 418 258l227 -117q-181 -324 -553 -366v-67q0 -344 -327 -344 q-47 0 -98.5 10t-77.5 25l28 142q22 -11 61 -20t79 -9q169 0 169 244v15q-263 15 -410 170t-147 417z" />
<glyph unicode="&#x4ab;" d="M63 405q0 195 79 366t210.5 251t327.5 80q189 0 302 -95.5t127 -265.5l-284 -23q-11 191 -167 191q-107 0 -167.5 -73.5t-109.5 -260.5q-23 -115 -23 -168q0 -234 178 -234q83 0 137 52.5t86 155.5l271 -50q-92 -304 -403 -344v-68q0 -344 -327 -344q-47 0 -98.5 10 t-77.5 25l28 142q22 -11 61 -20t79 -9q169 0 169 244v16q-190 13 -294 124.5t-104 297.5z" />
<glyph unicode="&#x4ac;" horiz-adv-x="1251" d="M145 1181l44 228h1206l-44 -228h-456l-183 -937h175l-127 -652h-250l79 408h-219l230 1181h-455z" />
<glyph unicode="&#x4ad;" horiz-adv-x="1821" d="M35 0l166 851q20 95 39 231h272q0 -11 -10.5 -77.5t-17.5 -107.5h3q77 116 151.5 160t176.5 44q124 0 196 -59.5t86 -172.5q85 130 166.5 181t187.5 51q138 0 211.5 -73t73.5 -211q0 -64 -21 -164l-91 -463h143l-116 -598h-245l79 408h-177l122 627q18 90 18 144 q-3 121 -126 121q-91 0 -158 -77t-93 -208l-119 -607h-279l123 635q17 91 17 136q0 121 -126 121q-88 0 -156.5 -75.5t-95.5 -212.5l-118 -604h-282z" />
<glyph unicode="&#x4ae;" d="M169 1409h314l147 -569l371 569h314l-595 -858l-106 -551h-294l111 575z" />
<glyph unicode="&#x4af;" d="M110 1082h289l72 -591q5 -35 22 -269q60 143 122 266l315 594h302l-626 -1082l-83 -425h-301l83 425z" />
<glyph unicode="&#x4b0;" d="M86 548l38 214h255l-210 647h314l147 -569l371 569h314l-456 -647h270l-40 -214h-370l-105 -548h-294l105 548h-339z" />
<glyph unicode="&#x4b1;" d="M2 -214l38 214h265l-195 1082h289l72 -591q5 -35 22 -269q76 180 122 266l315 594h302l-626 -1082h308l-40 -214h-310l-41 -211h-301l41 211h-261z" />
<glyph unicode="&#x4b2;" horiz-adv-x="1366" d="M-94 0l652 736l-338 673h309l224 -471l402 471h313l-600 -677l244 -488h189l-127 -652h-250l79 408h-75l-253 532l-455 -532h-314z" />
<glyph unicode="&#x4b3;" d="M-90 0l508 562l-279 520h292l173 -347l296 347h308l-483 -525l165 -313h186l-127 -652h-250l79 408h-54l-186 383l-327 -383h-301z" />
<glyph unicode="&#x4b4;" horiz-adv-x="1786" d="M134 1181l44 228h988l-44 -228h-340l-182 -937h569l226 1165h285l-226 -1165h195l-127 -652h-250l79 408h-1094l230 1181h-353z" />
<glyph unicode="&#x4b5;" horiz-adv-x="1455" d="M101 892l37 190h711l-37 -190h-210l-80 -405q-26 -123 -26 -165q0 -129 152 -129q66 0 133.5 38t115 103t61.5 142l118 606h282l-174 -892h148l-116 -598h-245l79 408h-164l24 185h-3q-146 -204 -388 -204q-152 0 -229 73t-77 211q0 25 7 79.5t14 84.5l90 463h-223z" />
<glyph unicode="&#x4b6;" horiz-adv-x="1450" d="M172 846q0 64 16 146l81 417h284l-80 -414q-13 -75 -13 -117q0 -98 59 -146.5t184 -48.5q163 0 352 53l130 673h295l-227 -1165h157l-127 -652h-250l79 408h-201l107 547q-148 -49 -241.5 -66t-182.5 -17q-207 0 -314.5 97.5t-107.5 284.5z" />
<glyph unicode="&#x4b7;" horiz-adv-x="1194" d="M106 600q0 55 9 98l73 384h280l-71 -353q-7 -45 -7 -76q0 -50 32.5 -81.5t97.5 -31.5q49 0 95.5 7t158.5 38l97 497h281l-174 -892h149l-116 -598h-245l79 408h-185l81 415q-189 -86 -353 -86q-124 0 -203 73.5t-79 197.5z" />
<glyph unicode="&#x4b8;" horiz-adv-x="1450" d="M177 846q0 64 16 146l81 417h284l-80 -414q-13 -75 -13 -117q0 -84 42.5 -131t132.5 -60l77 403h196l-77 -399q111 13 224 45l130 673h295l-274 -1409h-295l107 547q-129 -45 -226 -63l-53 -277h-196l49 257q-206 0 -313 97.5t-107 284.5z" />
<glyph unicode="&#x4b9;" horiz-adv-x="1194" d="M106 600q0 55 9 98l73 384h280l-71 -353q-7 -45 -7 -76q0 -45 26.5 -75.5t79.5 -36.5l53 267h125l-51 -260q48 8 151 37l97 497h281l-211 -1082h-281l81 415q-91 -40 -156 -59l-40 -203h-125l35 179l-67 -3q-124 0 -203 73.5t-79 197.5z" />
<glyph unicode="&#x4ba;" horiz-adv-x="1450" d="M41 0l273 1409h295l-106 -547q152 51 249.5 67t186.5 16q383 0 383 -329q0 -68 -16 -152l-89 -464h-284l85 437q12 60 12 111q0 95 -58 136.5t-175 41.5q-142 0 -331 -53l-130 -673h-295z" />
<glyph unicode="&#x4bb;" horiz-adv-x="1251" d="M35 0l286 1484h280l-79 -405l-39 -182h3q75 104 165.5 154t207.5 50q152 0 229 -73t77 -211q0 -25 -7 -79.5t-14 -84.5l-127 -653h-279l118 595q26 124 26 165q0 129 -152 129q-101 0 -187 -82t-108 -201l-118 -606h-282z" />
<glyph unicode="&#x4bc;" horiz-adv-x="1760" d="M27 847q0 105 66 261l202 -31q-46 -93 -46 -169q1 -74 116 -77q77 284 280 441.5t492 157.5q172 0 297.5 -70.5t193 -201t67.5 -298.5q0 -51 -9.5 -125.5t-24.5 -135.5h-1024q0 -191 86 -289.5t251 -98.5q225 0 374 200l218 -131q-102 -146 -256 -223t-377 -77 q-185 0 -318.5 69.5t-206.5 211.5t-73 338h-14q-141 0 -217.5 63t-76.5 185zM675 831h716l4 58q-2 152 -76 233.5t-206 81.5q-176 0 -287 -95t-151 -278z" />
<glyph unicode="&#x4bd;" horiz-adv-x="1328" d="M-6 679q0 96 78 238l170 -48q-46 -78 -46 -127q0 -72 92 -79q55 209 201.5 324t351.5 115q209 0 322.5 -107.5t113.5 -303.5q0 -99 -24 -215h-700q-7 -38 -7 -89q0 -106 46.5 -162.5t137.5 -56.5q147 0 213 169l245 -74q-72 -157 -183.5 -220t-293.5 -63 q-213 0 -333 115.5t-120 322.5l2 69q-266 11 -266 192zM586 663h431l3 56q0 99 -46 152t-133 53q-96 0 -163 -68.5t-92 -192.5z" />
<glyph unicode="&#x4be;" horiz-adv-x="1760" d="M27 847q0 105 66 261l202 -31q-46 -93 -46 -169q1 -74 116 -77q77 284 280 441.5t492 157.5q172 0 297.5 -70.5t193 -201t67.5 -298.5q0 -51 -9.5 -125.5t-24.5 -135.5h-1024q0 -191 86 -289.5t251 -98.5q225 0 374 200l218 -131q-183 -260 -517 -294l-51 -257h-212 l50 256q-241 27 -371 186.5t-130 427.5h-14q-141 0 -217.5 63t-76.5 185zM675 831h716l4 58q-2 152 -76 233.5t-206 81.5q-176 0 -287 -95t-151 -278z" />
<glyph unicode="&#x4bf;" horiz-adv-x="1328" d="M-8 679q0 96 78 238l170 -48q-46 -78 -46 -127q0 -72 92 -79q55 209 201.5 324t351.5 115q209 0 322.5 -107.5t113.5 -303.5q0 -99 -24 -215h-700q-7 -38 -7 -89q0 -106 46.5 -162.5t137.5 -56.5q147 0 213 169l245 -74q-63 -135 -150.5 -198t-221.5 -79l-51 -257h-212 l51 260q-168 28 -257 141t-89 288l2 69q-266 11 -266 192zM584 663h431l3 56q0 99 -46 152t-133 53q-96 0 -163 -68.5t-92 -192.5z" />
<glyph unicode="&#x4c0;" horiz-adv-x="569" d="M36 0l273 1409h295l-274 -1409h-294z" />
<glyph unicode="&#x4c1;" horiz-adv-x="1899" d="M-86 0l600 773q-29 32 -111 229l-172 407h290l125 -324q60 -157 103 -216t103 -59l116 599h274l-116 -599q48 0 105.5 51t193.5 224l255 324h310l-324 -407q-47 -60 -112.5 -131t-96.5 -91l303 -780h-306l-224 640q-22 -12 -67.5 -23.5t-76.5 -11.5l-118 -605h-273 l118 605q-73 0 -114 29l-470 -634h-315zM732 1756l193 74q44 -103 97.5 -145.5t124.5 -42.5q183 0 274 204l112 -49q-60 -149 -166.5 -224.5t-253.5 -75.5q-142 0 -234.5 64t-146.5 195z" />
<glyph unicode="&#x4c2;" horiz-adv-x="1508" d="M-92 0l438 571q-33 33 -72 134l-146 377h264l86 -257q26 -79 50.5 -124.5t49.5 -67.5t65 -25l92 474h252l-92 -474q43 2 68 19.5t59.5 58.5t101.5 135l185 261h285l-285 -388q-64 -85 -128 -130l212 -564h-277l-154 458q-33 -11 -99 -11l-87 -447h-252l87 447 q-64 0 -95 11l-312 -458h-296zM474 1443l193 74q44 -103 97.5 -145.5t124.5 -42.5q183 0 274 204l112 -49q-60 -149 -166.5 -224.5t-253.5 -75.5q-142 0 -234.5 64t-146.5 195z" />
<glyph unicode="&#x4c3;" horiz-adv-x="1350" d="M36 0l274 1409h295l-119 -598q30 0 55.5 10.5t59.5 38.5t81.5 81t385.5 468h308l-329 -415q-39 -50 -91 -100.5t-90 -77.5q200 -42 297 -167.5t97 -334.5q0 -218 -88.5 -386.5t-248.5 -260.5t-357 -92q-140 0 -248 28.5t-188 103.5l176 179q97 -92 265 -92q109 0 201 60 t145.5 169.5t53.5 263.5q0 158 -83 246.5t-236 88.5h-201l-121 -622h-294z" />
<glyph unicode="&#x4c4;" horiz-adv-x="1193" d="M36 0l210 1082h282l-90 -464q54 2 82.5 20.5t63.5 60.5t92 126l170 257h274l-270 -381q-23 -32 -39.5 -50.5t-53.5 -52.5q346 -79 346 -416q0 -278 -172 -442.5t-465 -164.5q-130 0 -232 39t-155 109l192 130q31 -32 87 -56.5t131 -24.5q165 0 253 106t88 302 q0 125 -72.5 196t-190.5 71h-162l-87 -447h-282z" />
<glyph unicode="&#x4c5;" horiz-adv-x="1407" d="M-123 1l48 247q28 -7 55 -7q42 0 75.5 35.5t72 116t91 222.5t271.5 794h952l-227 -1165h152l-357 -652h-250l242 408h-118l226 1165h-407q-197 -590 -252 -729t-106 -228.5t-106 -138.5t-121 -68.5t-126 -16.5q-57 0 -115 17z" />
<glyph unicode="&#x4c6;" horiz-adv-x="1274" d="M-82 -2l36 186q33 -9 65 -9q43 0 72.5 26.5t61.5 89.5t79 189.5t206 601.5h800l-174 -891h133l-327 -599h-250l242 408h-117l174 892h-283q-131 -395 -190 -543t-111.5 -225t-113 -110.5t-154.5 -33.5q-38 0 -86 7t-63 11z" />
<glyph unicode="&#x4c7;" horiz-adv-x="1479" d="M41 0l274 1409h295l-109 -561h614l109 561h295l-235 -1205q-60 -307 -237 -468t-451 -161q-150 0 -258.5 30.5t-185.5 101.5l177 178q96 -91 264 -91q94 0 174.5 50t139.5 146.5t87 237.5l73 376h-614l-117 -604h-295z" />
<glyph unicode="&#x4c8;" horiz-adv-x="1237" d="M3 -277l195 129q31 -32 82.5 -57.5t115.5 -25.5q148 0 224.5 83t112.5 266l67 345h-387l-90 -463h-282l210 1082h282l-83 -428h387l83 428h282l-198 -1025q-47 -248 -194.5 -365t-419.5 -117q-279 0 -387 148z" />
<glyph unicode="&#x4c9;" horiz-adv-x="1479" d="M36 0l273 1409h295l-109 -561h626l109 561h284l-227 -1165h150l-357 -652h-250l242 408h-116l118 604h-626l-118 -604h-294z" />
<glyph unicode="&#x4ca;" horiz-adv-x="1237" d="M35 0l211 1082h282l-84 -428h387l84 428h282l-175 -891h133l-328 -599h-250l242 408h-115l90 463h-387l-90 -463h-282z" />
<glyph unicode="&#x4cb;" horiz-adv-x="1450" d="M177 846q0 64 16 146l81 417h284l-80 -414q-13 -75 -13 -117q0 -98 59 -146.5t184 -48.5q163 0 352 53l130 673h295l-274 -1409h-169l-79 -408h-250l127 652h123l60 303q-148 -49 -241.5 -66t-182.5 -17q-207 0 -314.5 97.5t-107.5 284.5z" />
<glyph unicode="&#x4cc;" horiz-adv-x="1194" d="M106 600q0 55 9 98l73 384h280l-71 -353q-7 -45 -7 -76q0 -50 32.5 -81.5t97.5 -31.5q49 0 95.5 7t158.5 38l97 497h281l-211 -1082h-162l-79 -408h-241l116 598h122l44 225q-189 -86 -353 -86q-124 0 -203 73.5t-79 197.5z" />
<glyph unicode="&#x4cd;" horiz-adv-x="1706" d="M36 0l274 1409h395l88 -788l25 -276l26 57l103 214l402 793h393l-227 -1165h150l-357 -652h-250l242 408h-94l172 884q20 102 45 205.5t28 114.5q-7 -17 -44 -98.5t-71 -153t-479 -952.5h-210l-94 819l-24 221l-16 164l-5 -43q-19 -173 -38 -274l-172 -887h-262z" />
<glyph unicode="&#x4ce;" horiz-adv-x="1515" d="M35 0l211 1082h364l61 -561q19 -203 19 -308q25 66 68.5 160t342.5 709h374l-174 -891h132l-327 -599h-250l242 408h-80l136 698q15 85 69 259l-461 -957h-213l-98 955q-7 -102 -34 -257l-136 -698h-246z" />
<glyph unicode="&#x4cf;" horiz-adv-x="569" d="M35 0l288 1484h281l-289 -1484h-280z" />
<glyph unicode="&#x4d0;" horiz-adv-x="1479" d="M-42 0l787 1409h348l238 -1409h-292l-55 360h-537l-195 -360h-294zM566 582h395l-67 452q-18 135 -18 158q-21 -64 -98 -212zM601 1823h165q0 -75 45.5 -119.5t124.5 -44.5q78 0 131 38t80 126h164q-42 -153 -139 -228t-258 -75q-142 0 -227.5 81t-85.5 222z" />
<glyph unicode="&#x4d1;" d="M10 278q0 185 127.5 279.5t413.5 99.5l191 3q21 95 21 131q0 128 -127 128q-94 0 -140 -36.5t-63 -105.5l-263 31q34 144 153.5 219t317.5 75q207 0 303.5 -73t96.5 -222q0 -37 -24 -157l-71 -353q-8 -45 -8 -72q0 -24 10 -37t23 -19t26 -7.5t20 -1.5q30 0 62 7l-14 -155 q-42 -16 -85 -19t-88 -3q-100 0 -154 42t-54 111q0 37 5 64h-6q-84 -130 -166 -178.5t-200 -48.5q-140 0 -223.5 83.5t-83.5 214.5zM297 325q0 -70 39.5 -109.5t106.5 -39.5q83 0 151 64.5t95 170.5l22 92h-162q-117 -2 -184.5 -48t-67.5 -130zM371 1468l2 38h163 q0 -74 45.5 -120t118.5 -46q78 0 135.5 43.5t81.5 122.5h164q-43 -164 -140 -243.5t-257 -79.5q-140 0 -226.5 78.5t-86.5 206.5z" />
<glyph unicode="&#x4d2;" horiz-adv-x="1479" d="M-42 0l787 1409h348l238 -1409h-292l-55 360h-537l-195 -360h-294zM566 582h395l-67 452q-18 135 -18 158q-21 -64 -98 -212zM600 1530l42 219h214l-43 -219h-213zM1033 1530l43 219h217l-43 -219h-217z" />
<glyph unicode="&#x4d3;" d="M10 278q0 185 127.5 279.5t413.5 99.5l191 3q21 95 21 131q0 128 -127 128q-94 0 -140 -36.5t-63 -105.5l-263 31q34 144 153.5 219t317.5 75q207 0 303.5 -73t96.5 -222q0 -37 -24 -157l-71 -353q-8 -45 -8 -72q0 -24 10 -37t23 -19t26 -7.5t20 -1.5q30 0 62 7l-14 -155 q-42 -16 -85 -19t-88 -3q-100 0 -154 42t-54 111q0 37 5 64h-6q-84 -130 -166 -178.5t-200 -48.5q-140 0 -223.5 83.5t-83.5 214.5zM297 325q0 -70 39.5 -109.5t106.5 -39.5q83 0 151 64.5t95 170.5l22 92h-162q-117 -2 -184.5 -48t-67.5 -130zM344 1199l42 219h214 l-43 -219h-213zM777 1199l43 219h217l-43 -219h-217z" />
<glyph unicode="&#x4d4;" horiz-adv-x="2048" d="M-97 0l965 1409h1231l-45 -227h-701l-69 -355h639l-43 -221h-639l-73 -379h742l-44 -227h-1029l70 360h-450l-242 -360h-312zM602 582h348l118 610h-61l-136 -209z" />
<glyph unicode="&#x4d5;" horiz-adv-x="1821" d="M42 278q0 382 541 382h191q21 95 21 131q0 128 -127 128q-94 0 -140 -36.5t-63 -105.5l-263 31q34 144 153.5 219t317.5 75q207 0 300 -113q140 113 342 113q209 0 322.5 -107.5t113.5 -303.5q0 -99 -24 -215h-700q-7 -38 -7 -89q0 -106 46.5 -162.5t137.5 -56.5 q147 0 213 169l245 -74q-75 -159 -186 -221t-291 -62q-297 0 -394 219q-51 -80 -113.5 -127.5t-136 -69.5t-192.5 -22q-140 0 -223.5 83.5t-83.5 214.5zM341 325q0 -72 34.5 -110.5t99.5 -38.5q83 0 151 64.5t95 170.5l22 89h-161q-113 0 -177 -46t-64 -129zM1060 663h431 l3 56q0 107 -49.5 156t-129.5 49q-96 0 -161.5 -66.5t-93.5 -194.5z" />
<glyph unicode="&#x4d6;" horiz-adv-x="1366" d="M36 0l273 1409h1108l-44 -228h-813l-69 -354h752l-44 -228h-752l-72 -371h854l-45 -228h-1148zM562 1823h165q0 -75 45.5 -119.5t124.5 -44.5q78 0 131 38t80 126h164q-42 -153 -139 -228t-258 -75q-142 0 -227.5 81t-85.5 222z" />
<glyph unicode="&#x4d7;" d="M63 418q0 207 72 362.5t204.5 238.5t306.5 83q209 0 322.5 -107.5t113.5 -303.5q0 -99 -24 -215h-700q-7 -38 -7 -89q0 -106 46.5 -162.5t137.5 -56.5q147 0 213 169l245 -74q-75 -159 -186 -221t-291 -62q-213 0 -333 115.5t-120 322.5zM359 1468l2 38h163 q0 -74 45.5 -120t118.5 -46q78 0 135.5 43.5t81.5 122.5h164q-43 -164 -140 -243.5t-257 -79.5q-140 0 -226.5 78.5t-86.5 206.5zM391 663h431l3 56q0 107 -49.5 156t-129.5 49q-96 0 -161.5 -66.5t-93.5 -194.5z" />
<glyph unicode="&#x4d8;" horiz-adv-x="1531" d="M107 545q0 152 48 303h1006l2 55q0 129 -83 213t-211 84q-84 0 -142 -18.5t-102.5 -57t-100.5 -127.5l-259 73q87 188 233.5 274t374.5 86q270 0 432 -159.5t162 -433.5q0 -244 -107.5 -441t-295.5 -306.5t-421 -109.5q-162 0 -283 72.5t-187 203t-66 289.5zM402 520 q0 -145 78.5 -229.5t219.5 -84.5q152 0 261.5 107t157.5 300h-710q-7 -44 -7 -93z" />
<glyph unicode="&#x4d9;" d="M63 391q0 99 24 215h700q7 39 7 89q0 106 -46.5 162.5t-137.5 56.5q-147 0 -213 -169l-245 74q75 159 186 221t291 62q213 0 333 -115.5t120 -322.5t-72 -362.5t-204.5 -238.5t-306.5 -83q-209 0 -322.5 107.5t-113.5 303.5zM320 363q0 -107 49.5 -156t129.5 -49 q96 0 161.5 66.5t93.5 194.5h-431z" />
<glyph unicode="&#x4da;" horiz-adv-x="1531" d="M107 545q0 152 48 303h1006l2 55q0 129 -83 213t-211 84q-84 0 -142 -18.5t-102.5 -57t-100.5 -127.5l-259 73q87 188 233.5 274t374.5 86q270 0 432 -159.5t162 -433.5q0 -244 -107.5 -441t-295.5 -306.5t-421 -109.5q-162 0 -283 72.5t-187 203t-66 289.5zM402 520 q0 -145 78.5 -229.5t219.5 -84.5q152 0 261.5 107t157.5 300h-710q-7 -44 -7 -93zM560 1530l42 219h214l-43 -219h-213zM993 1530l43 219h217l-43 -219h-217z" />
<glyph unicode="&#x4db;" d="M63 391q0 99 24 215h700q7 39 7 89q0 106 -46.5 162.5t-137.5 56.5q-147 0 -213 -169l-245 74q75 159 186 221t291 62q213 0 333 -115.5t120 -322.5t-72 -362.5t-204.5 -238.5t-306.5 -83q-209 0 -322.5 107.5t-113.5 303.5zM320 363q0 -107 49.5 -156t129.5 -49 q96 0 161.5 66.5t93.5 194.5h-431zM328 1199l42 219h214l-43 -219h-213zM761 1199l43 219h217l-43 -219h-217z" />
<glyph unicode="&#x4dc;" horiz-adv-x="1899" d="M-86 0l600 773q-29 32 -111 229l-172 407h290l125 -324q60 -157 103 -216t103 -59l116 599h274l-116 -599q48 0 105.5 51t193.5 224l255 324h310l-324 -407q-47 -60 -112.5 -131t-96.5 -91l303 -780h-306l-224 640q-22 -12 -67.5 -23.5t-76.5 -11.5l-118 -605h-273 l118 605q-73 0 -114 29l-470 -634h-315zM781 1530l42 219h214l-43 -219h-213zM1214 1530l43 219h217l-43 -219h-217z" />
<glyph unicode="&#x4dd;" horiz-adv-x="1508" d="M-92 0l438 571q-33 33 -72 134l-146 377h264l86 -257q26 -79 50.5 -124.5t49.5 -67.5t65 -25l92 474h252l-92 -474q43 2 68 19.5t59.5 58.5t101.5 135l185 261h285l-285 -388q-64 -85 -128 -130l212 -564h-277l-154 458q-33 -11 -99 -11l-87 -447h-252l87 447 q-64 0 -95 11l-312 -458h-296zM556 1199l42 219h214l-43 -219h-213zM989 1199l43 219h217l-43 -219h-217z" />
<glyph unicode="&#x4de;" horiz-adv-x="1316" d="M27 368l269 91q41 -131 119.5 -191t198.5 -60q138 0 209 55.5t71 160.5q0 82 -72.5 130t-223.5 48h-59l45 227h59q337 0 337 221q0 73 -52 117.5t-147 44.5q-229 0 -328 -230l-256 75q77 193 224 282.5t384 89.5q215 0 341 -91.5t126 -246.5q0 -152 -89 -246t-260 -126 q116 -17 188 -99t72 -201q0 -211 -155.5 -325t-438.5 -114q-223 0 -361 93t-201 295zM500 1530l42 219h214l-43 -219h-213zM933 1530l43 219h217l-43 -219h-217z" />
<glyph unicode="&#x4df;" horiz-adv-x="1045" d="M11 289l252 44q35 -164 200 -164q89 0 136 39.5t47 113.5q0 81 -68 115t-193 34l28 177q173 0 245 39.5t72 120.5q0 57 -42.5 86t-113.5 29q-156 0 -196 -144l-232 20q83 303 459 303q180 0 289 -71t109 -188q0 -78 -41 -140.5t-109 -99.5t-152 -46v-4q109 -17 170.5 -80 t61.5 -160q0 -155 -129 -244t-356 -89q-186 0 -297 80t-140 229zM301 1199l42 219h214l-43 -219h-213zM734 1199l43 219h217l-43 -219h-217z" />
<glyph unicode="&#x4e0;" horiz-adv-x="1251" d="M-22 368l268 91q44 -133 121 -192t199 -59q136 0 217 68.5t81 182.5q0 106 -77 169.5t-206 63.5h-59l34 177l341 309h-658l45 231h1014l-38 -197l-371 -326q124 -29 197.5 -127t73.5 -237q0 -251 -168.5 -396.5t-457.5 -145.5q-151 0 -259.5 43t-179.5 123t-117 222z" />
<glyph unicode="&#x4e1;" horiz-adv-x="1078" d="M-101 -72l272 41q27 -201 222 -201q120 0 192.5 83t72.5 224q0 98 -32.5 157t-99 85t-188.5 26h-81l37 189l407 347h-568l39 203h902l-38 -195l-434 -365q165 -26 256 -140t91 -296q0 -145 -69.5 -263t-196 -183t-287.5 -65q-433 0 -497 353z" />
<glyph unicode="&#x4e2;" horiz-adv-x="1473" d="M36 0l273 1409h262l-159 -819q-23 -117 -61 -275l825 1094h332l-274 -1409h-262l162 831l36 166l21 88l-820 -1085h-335zM623 1525l33 168h590l-37 -168h-586z" />
<glyph unicode="&#x4e3;" horiz-adv-x="1251" d="M85 265q0 25 7 80.5t14 83.5l127 653h279l-118 -595q-26 -123 -26 -165q0 -129 152 -129q101 0 186.5 81t108.5 202l118 606h282l-166 -851q-16 -79 -38 -231h-268q0 9 9.5 84t14.5 101h-3q-76 -107 -166.5 -155.5t-206.5 -48.5q-152 0 -229 73t-77 211zM430 1203l33 168 h590l-37 -168h-586z" />
<glyph unicode="&#x4e4;" horiz-adv-x="1473" d="M36 0l273 1409h262l-159 -819q-23 -117 -61 -275l825 1094h332l-274 -1409h-262l162 831l36 166l21 88l-820 -1085h-335zM615 1530l42 219h214l-43 -219h-213zM1048 1530l43 219h217l-43 -219h-217z" />
<glyph unicode="&#x4e5;" horiz-adv-x="1251" d="M85 265q0 25 7 80.5t14 83.5l127 653h279l-118 -595q-26 -123 -26 -165q0 -129 152 -129q101 0 186.5 81t108.5 202l118 606h282l-166 -851q-16 -79 -38 -231h-268q0 9 9.5 84t14.5 101h-3q-76 -107 -166.5 -155.5t-206.5 -48.5q-152 0 -229 73t-77 211zM405 1199l42 219 h214l-43 -219h-213zM838 1199l43 219h217l-43 -219h-217z" />
<glyph unicode="&#x4e6;" horiz-adv-x="1593" d="M100 573q0 235 105.5 438.5t292.5 311t430 107.5q293 0 462 -155.5t169 -423.5q0 -247 -105.5 -450.5t-294.5 -312t-432 -108.5q-193 0 -335.5 72t-217 206.5t-74.5 314.5zM400 581q0 -184 90 -276.5t251 -92.5t275 75t176.5 223t62.5 317q0 176 -87.5 273t-253.5 97 q-162 0 -276 -75t-176 -226t-62 -315zM623 1530l42 219h214l-43 -219h-213zM1056 1530l43 219h217l-43 -219h-217z" />
<glyph unicode="&#x4e7;" horiz-adv-x="1251" d="M63 419q0 201 79.5 356t226.5 240.5t335 85.5q235 0 358 -109.5t123 -308.5q0 -207 -81.5 -368t-231 -248t-337.5 -87q-218 0 -345 117.5t-127 321.5zM358 431q0 -259 208 -259q112 0 177.5 56.5t103 171.5t44.5 262q0 247 -208 247q-114 0 -181.5 -60t-105.5 -182.5 t-38 -235.5zM413 1199l42 219h214l-43 -219h-213zM846 1199l43 219h217l-43 -219h-217z" />
<glyph unicode="&#x4e8;" horiz-adv-x="1593" d="M100 573q0 235 105.5 438.5t292.5 311t430 107.5q293 0 462 -155.5t169 -423.5q0 -246 -105 -449t-294.5 -312.5t-432.5 -109.5q-193 0 -335.5 72t-217 206.5t-74.5 314.5zM400 581q0 -185 90 -277t251 -92q372 0 483 390h-824v-21zM440 835h815q-2 173 -90.5 267.5 t-250.5 94.5q-360 0 -474 -362z" />
<glyph unicode="&#x4e9;" horiz-adv-x="1251" d="M63 419q0 201 79.5 356t227 240.5t334.5 85.5q233 0 357 -109.5t124 -308.5q0 -207 -81.5 -368t-231 -248t-337.5 -87q-218 0 -345 117t-127 322zM358 431q0 -259 208 -259q85 0 137 28.5t91.5 89t65.5 159.5h-502v-18zM386 635h504l2 49q0 109 -54 167t-155 58 q-121 0 -190 -68.5t-107 -205.5z" />
<glyph unicode="&#x4ea;" horiz-adv-x="1593" d="M100 573q0 235 105.5 438.5t292.5 311t430 107.5q293 0 462 -155.5t169 -423.5q0 -246 -105 -449t-294.5 -312.5t-432.5 -109.5q-193 0 -335.5 72t-217 206.5t-74.5 314.5zM400 581q0 -185 90 -277t251 -92q372 0 483 390h-824v-21zM440 835h815q-2 173 -90.5 267.5 t-250.5 94.5q-360 0 -474 -362zM618 1530l42 219h214l-43 -219h-213zM1051 1530l43 219h217l-43 -219h-217z" />
<glyph unicode="&#x4eb;" horiz-adv-x="1251" d="M63 419q0 201 79.5 356t227 240.5t334.5 85.5q233 0 357 -109.5t124 -308.5q0 -207 -81.5 -368t-231 -248t-337.5 -87q-218 0 -345 117t-127 322zM358 431q0 -259 208 -259q85 0 137 28.5t91.5 89t65.5 159.5h-502v-18zM386 635h504l2 49q0 109 -54 167t-155 58 q-121 0 -190 -68.5t-107 -205.5zM395 1199l42 219h214l-43 -219h-213zM828 1199l43 219h217l-43 -219h-217z" />
<glyph unicode="&#x4ec;" horiz-adv-x="1472" d="M42 384l260 95q52 -142 134.5 -204.5t205.5 -62.5q370 0 465 389h-559l45 228h546q5 30 5 62q0 147 -86.5 227t-248.5 80q-137 0 -239.5 -62.5t-147.5 -168.5l-241 71q174 392 665 392q283 0 438 -149t155 -414q0 -259 -100.5 -462t-286.5 -314t-429 -111 q-224 0 -369 98.5t-212 305.5zM531 1530l42 219h214l-43 -219h-213zM964 1530l43 219h217l-43 -219h-217z" />
<glyph unicode="&#x4ed;" horiz-adv-x="1130" d="M16 337l284 26q15 -93 65 -142t126 -49q105 0 165.5 68t84.5 213h-316l37 190h310l5 66q0 204 -173 204q-81 0 -136.5 -41.5t-76.5 -126.5l-284 26q43 152 177 241t333 89q217 0 333 -108.5t116 -307.5q0 -202 -75.5 -368.5t-206.5 -251.5t-307 -85q-193 0 -314 94 t-147 263zM320 1199l42 219h214l-43 -219h-213zM753 1199l43 219h217l-43 -219h-217z" />
<glyph unicode="&#x4ee;" horiz-adv-x="1387" d="M55 56l118 230q79 -42 142 -42q50 0 92 20t82.5 62.5t110.5 150.5l-375 932h297l256 -680l430 680h309l-737 -1091q-133 -198 -238 -268t-249 -70q-131 0 -238 76zM590 1527l33 168h590l-37 -168h-586z" />
<glyph unicode="&#x4ef;" d="M-85 -407l38 196q40 -9 87 -9q78 0 137.5 46t118.5 150l28 48l-212 1058h291l71 -497q6 -31 21.5 -178t13.5 -156l17 37l139 293l259 501h300l-654 -1139q-107 -167 -174.5 -235t-141 -100.5t-166.5 -32.5q-97 0 -173 18zM370 1203l33 168h590l-37 -168h-586z" />
<glyph unicode="&#x4f0;" horiz-adv-x="1387" d="M55 56l118 230q79 -42 142 -42q50 0 92 20t82.5 62.5t110.5 150.5l-375 932h297l256 -680l430 680h309l-737 -1091q-133 -198 -238 -268t-249 -70q-131 0 -238 76zM550 1530l42 219h214l-43 -219h-213zM983 1530l43 219h217l-43 -219h-217z" />
<glyph unicode="&#x4f1;" d="M-85 -407l38 196q40 -9 87 -9q78 0 137.5 46t118.5 150l28 48l-212 1058h291l71 -497q6 -31 21.5 -178t13.5 -156l17 37l139 293l259 501h300l-654 -1139q-107 -167 -174.5 -235t-141 -100.5t-166.5 -32.5q-97 0 -173 18zM355 1199l42 219h214l-43 -219h-213zM788 1199 l43 219h217l-43 -219h-217z" />
<glyph unicode="&#x4f2;" horiz-adv-x="1387" d="M55 56l118 230q79 -42 142 -42q50 0 92 20t82.5 62.5t110.5 150.5l-375 932h297l256 -680l430 680h309l-737 -1091q-133 -198 -238 -268t-249 -70q-131 0 -238 76zM548 1515l10 31l257 288h261l-10 -43l-372 -276h-146zM953 1515l10 31l257 288h261l-10 -43l-372 -276 h-146z" />
<glyph unicode="&#x4f3;" d="M-85 -407l38 196q40 -9 87 -9q78 0 137.5 46t118.5 150l28 48l-212 1058h291l71 -497q6 -31 21.5 -178t13.5 -156l17 37l139 293l259 501h300l-654 -1139q-107 -167 -174.5 -235t-141 -100.5t-166.5 -32.5q-97 0 -173 18zM334 1183l10 31l257 288h261l-10 -43l-372 -276 h-146zM739 1183l10 31l257 288h261l-10 -43l-372 -276h-146z" />
<glyph unicode="&#x4f4;" horiz-adv-x="1450" d="M177 846q0 64 16 146l81 417h284l-80 -414q-13 -75 -13 -117q0 -98 59 -146.5t184 -48.5q163 0 352 53l130 673h295l-274 -1409h-295l107 547q-148 -49 -241.5 -66t-182.5 -17q-207 0 -314.5 97.5t-107.5 284.5zM575 1530l42 219h214l-43 -219h-213zM1008 1530l43 219 h217l-43 -219h-217z" />
<glyph unicode="&#x4f5;" horiz-adv-x="1194" d="M106 600q0 55 9 98l73 384h280l-71 -353q-7 -45 -7 -76q0 -50 32.5 -81.5t97.5 -31.5q49 0 95.5 7t158.5 38l97 497h281l-211 -1082h-281l81 415q-189 -86 -353 -86q-124 0 -203 73.5t-79 197.5zM356 1199l42 219h214l-43 -219h-213zM789 1199l43 219h217l-43 -219h-217z " />
<glyph unicode="&#x4f6;" horiz-adv-x="1257" d="M36 1l273 1408h1024l-44 -228h-729l-182 -937h153l-127 -652h-250l80 409h-198z" />
<glyph unicode="&#x4f7;" horiz-adv-x="961" d="M34 0l210 1082h731l-37 -190h-449l-136 -702h127l-116 -598h-241l79 408h-168z" />
<glyph unicode="&#x4f8;" horiz-adv-x="2048" d="M36 0l273 1409h295l-109 -561h374q232 0 366.5 -103.5t134.5 -282.5q0 -221 -162 -341.5t-452 -120.5h-720zM375 230h391q145 0 222.5 55t77.5 156q0 89 -62 134.5t-199 45.5h-354zM865 1530l42 219h214l-43 -219h-213zM1298 1530l43 219h217l-43 -219h-217zM1514 0 l274 1409h295l-274 -1409h-295z" />
<glyph unicode="&#x4f9;" horiz-adv-x="1749" d="M38 21l206 1061h282l-85 -435h191q237 0 350.5 -76t113.5 -232q0 -176 -143.5 -267.5t-418.5 -91.5q-260 0 -496 41zM348 169q64 -16 197 -16q260 0 260 176q0 72 -52 109t-169 37h-176zM631 1199l42 219h214l-43 -219h-213zM1064 1199l43 219h217l-43 -219h-217zM1221 0 l211 1082h281l-211 -1082h-281z" />
<glyph unicode="&#x4fa;" horiz-adv-x="1257" d="M-100 -408l40 206q55 -12 102 -12q137 0 163 125l17 90h-136l121 623h-137l39 200h137l114 585h984l-45 -228h-689l-69 -357h315l-39 -200h-315l-102 -524h111l-34 -177q-34 -177 -130 -262.5t-260 -85.5q-46 0 -101.5 5.5t-85.5 11.5z" />
<glyph unicode="&#x4fb;" horiz-adv-x="961" d="M-107 -408l36 186q55 -12 102 -12q130 0 153 125l22 109h-120l82 423h-127l37 191h127l91 468h655l-37 -190h-373l-54 -278h189l-37 -191h-189l-63 -323h85l-34 -177q-36 -185 -118 -266.5t-239 -81.5q-49 0 -108 6t-80 11z" />
<glyph unicode="&#x4fc;" horiz-adv-x="1366" d="M-94 0l652 736l-338 673h309l224 -471l402 471h313l-600 -677l317 -617q58 -112 58 -195q0 -158 -102.5 -251.5t-274.5 -93.5q-55 0 -115.5 5.5t-86.5 11.5l41 211q55 -12 102 -12q81 0 115 29t34 93q0 40 -22 87l-259 532l-455 -532h-314z" />
<glyph unicode="&#x4fd;" d="M-90 0l508 562l-279 520h292l173 -347l296 347h308l-483 -525l205 -388q60 -116 80 -175t20 -99q0 -151 -98.5 -235.5t-278.5 -84.5q-55 0 -115.5 5.5t-86.5 11.5l41 211q55 -12 102 -12q83 0 117.5 30t34.5 92q0 40 -22 87l-186 383l-327 -383h-301z" />
<glyph unicode="&#x4fe;" horiz-adv-x="1366" d="M-94 0l557 629h-342l39 203h350l-290 577h309l224 -471l402 471h313l-512 -577h337l-39 -203h-335l316 -629h-307l-253 532l-455 -532h-314z" />
<glyph unicode="&#x4ff;" d="M-90 0l413 457h-267l39 203h270l-226 422h292l173 -347l296 347h308l-388 -422h264l-39 -203h-267l241 -457h-295l-186 383l-327 -383h-301z" />
<glyph unicode="&#x2000;" horiz-adv-x="1024" />
<glyph unicode="&#x2001;" horiz-adv-x="2048" />
<glyph unicode="&#x2002;" horiz-adv-x="1024" />
<glyph unicode="&#x2003;" horiz-adv-x="2048" />
<glyph unicode="&#x2004;" horiz-adv-x="683" />
<glyph unicode="&#x2005;" horiz-adv-x="512" />
<glyph unicode="&#x2006;" horiz-adv-x="341" />
<glyph unicode="&#x2007;" />
<glyph unicode="&#x2008;" horiz-adv-x="569" />
<glyph unicode="&#x2009;" horiz-adv-x="410" />
<glyph unicode="&#x200a;" horiz-adv-x="171" />
<glyph unicode="&#x200b;" horiz-adv-x="0" />
<glyph unicode="&#x200c;" horiz-adv-x="0" d="M-42 -273v1560h84v-1560h-84z" />
<glyph unicode="&#x200d;" horiz-adv-x="0" d="M-224 1023l169 168l-169 167l55 56l169 -170l169 170l55 -56l-169 -167l169 -168l-55 -55l-127 128v-1369h-84v1369l-127 -128z" />
<glyph unicode="&#x200e;" horiz-adv-x="0" d="M-41 -273v1506h330l-132 125l55 56l223 -221l-223 -219l-55 55l132 125h-248v-1427h-82z" />
<glyph unicode="&#x200f;" horiz-adv-x="0" d="M-436 1193l223 221l55 -56l-132 -125h330v-1506h-82v1427h-248l132 -125l-55 -55z" />
<glyph unicode="&#x2010;" horiz-adv-x="682" d="M56 409l47 244h520l-47 -244h-520z" />
<glyph unicode="&#x2011;" horiz-adv-x="682" d="M56 409l47 244h520l-47 -244h-520z" />
<glyph unicode="&#x2012;" d="M83 448l39 203h1139l-39 -203h-1139z" />
<glyph unicode="&#x2013;" d="M44 448l32 203h1014l-32 -203h-1014z" />
<glyph unicode="&#x2014;" horiz-adv-x="2048" d="M-19 448l38 203h2048l-39 -203h-2047z" />
<glyph unicode="&#x2015;" horiz-adv-x="2048" d="M-19 448l38 203h2048l-39 -203h-2047z" />
<glyph unicode="&#x2016;" horiz-adv-x="1019" d="M174 0v1484h240v-1484h-240zM605 0v1484h240v-1484h-240z" />
<glyph unicode="&#x2017;" horiz-adv-x="1131" d="M-120 -172h1177v-78h-1177v78zM-120 -434h1177v-78h-1177v78z" />
<glyph unicode="&#x2018;" horiz-adv-x="569" d="M189 831l38 195q24 123 68 214.5t115 168.5h183q-76 -76 -127 -159.5t-66 -157.5h127l-51 -261h-287z" />
<glyph unicode="&#x2019;" horiz-adv-x="569" d="M189 831q163 168 193 318h-127l51 260h287l-38 -195q-23 -117 -65.5 -208t-118.5 -175h-182z" />
<glyph unicode="&#x201a;" horiz-adv-x="569" d="M-18 -317q79 79 130.5 163t64.5 154h-129l51 260h288l-38 -194q-23 -120 -66 -211.5t-116 -171.5h-185z" />
<glyph unicode="&#x201b;" horiz-adv-x="569" d="M254 1048q0 72 18 166l38 195h287l-51 -260h-127q-6 -31 -6 -65q0 -123 75 -253h-182q-52 98 -52 217z" />
<glyph unicode="&#x201c;" horiz-adv-x="1024" d="M189 831l38 195q24 123 68 214.5t115 168.5h183q-76 -76 -127 -159.5t-66 -157.5h127l-51 -261h-287zM617 831l38 195q23 117 66.5 209.5t119.5 173.5h182q-76 -76 -127 -159.5t-66 -157.5h127l-51 -261h-289z" />
<glyph unicode="&#x201d;" horiz-adv-x="1024" d="M189 831q163 168 193 318h-127l51 260h287l-38 -192q-23 -121 -65 -211.5t-119 -174.5h-182zM617 831q164 164 195 318h-127l51 260h287l-38 -192q-24 -126 -68.5 -217t-115.5 -169h-184z" />
<glyph unicode="&#x201e;" horiz-adv-x="1024" d="M-10 -317q78 78 129 163t63 154h-127l51 260h287l-38 -194q-23 -119 -66 -212t-117 -171h-182zM418 -317q81 81 132 166t62 151h-127l51 260h287l-38 -194q-23 -120 -65.5 -211t-117.5 -172h-184z" />
<glyph unicode="&#x201f;" horiz-adv-x="1024" d="M252 1048q0 72 18 166l38 195h287l-51 -260h-127q-6 -31 -6 -65q0 -123 75 -253h-182q-52 98 -52 217zM733 1048q0 72 18 166l38 195h287l-51 -260h-127q-6 -31 -6 -65q0 -123 75 -253h-182q-52 98 -52 217z" />
<glyph unicode="&#x2020;" d="M213 933l40 204l326 -29l45 376h255l-101 -376l339 29l-40 -204l-328 27l-235 -1098h-155l191 1098z" />
<glyph unicode="&#x2021;" d="M50 186l40 204l335 -27l86 307l34 310l-345 -27l40 204l334 -29l53 356h215l-85 -356l367 29l-40 -204l-356 27l-86 -310l-34 -307l366 27l-40 -204l-354 29l-54 -356h-215l86 356z" />
<glyph unicode="&#x2022;" horiz-adv-x="717" d="M90 676q0 122 85.5 207.5t205.5 85.5q122 0 208.5 -85.5t86.5 -207.5q0 -121 -87 -208t-208 -87q-119 0 -205 86.5t-86 208.5z" />
<glyph unicode="&#x2026;" horiz-adv-x="2048" d="M133 0l59 305h289l-59 -305h-289zM787 0l59 305h289l-59 -305h-289zM1437 0l59 305h289l-59 -305h-289z" />
<glyph unicode="&#x202a;" horiz-adv-x="0" d="M-41 -273v1506h476v-79h-393v-1427h-83z" />
<glyph unicode="&#x202b;" horiz-adv-x="0" d="M-435 1154v79h476v-1506h-83v1427h-393z" />
<glyph unicode="&#x202c;" horiz-adv-x="0" d="M-238 977v434h476v-434h-196v-1250h-84v1250h-196z" />
<glyph unicode="&#x202d;" horiz-adv-x="0" d="M-238 977v434h476v-79h-395v-277h395v-78h-196v-1250h-84v1250h-196z" />
<glyph unicode="&#x202e;" horiz-adv-x="0" d="M-238 977v78h395v277h-395v79h476v-434h-196v-1250h-84v1250h-196z" />
<glyph unicode="&#x202f;" horiz-adv-x="410" />
<glyph unicode="&#x2030;" horiz-adv-x="2048" d="M72 0l1086 1409h199l-1088 -1409h-197zM123 953q0 71 19 141q68 325 329 325q119 0 183 -63t64 -184q0 -69 -21 -142q-32 -154 -120.5 -242t-217.5 -88q-113 0 -174.5 66.5t-61.5 186.5zM294 942q0 -113 69 -113q64 0 102.5 53t58.5 156q22 87 22 149q0 111 -76 111 q-61 0 -97.5 -47.5t-57.5 -143.5t-21 -165zM718 246q0 71 19 141q68 325 329 325q119 0 183 -63t64 -184q0 -69 -21 -142q-32 -154 -120.5 -242t-217.5 -88q-113 0 -174.5 66.5t-61.5 186.5zM889 235q0 -113 69 -113q64 0 102.5 53t58.5 156q22 87 22 149q0 111 -76 111 q-61 0 -97.5 -47.5t-57.5 -143.5t-21 -165zM1382 246q0 71 19 141q68 325 329 325q119 0 183 -63t64 -184q0 -69 -21 -142q-32 -154 -120.5 -242t-217.5 -88q-113 0 -174.5 66.5t-61.5 186.5zM1553 235q0 -113 69 -113q64 0 102.5 53t58.5 156q22 87 22 149q0 111 -76 111 q-61 0 -97.5 -47.5t-57.5 -143.5t-21 -165z" />
<glyph unicode="&#x2032;" horiz-adv-x="491" d="M195 890l64 519h306l-158 -519h-212z" />
<glyph unicode="&#x2033;" horiz-adv-x="981" d="M195 890l64 519h306l-158 -519h-212zM684 890l64 519h306l-158 -519h-212z" />
<glyph unicode="&#x2034;" horiz-adv-x="981" d="M29 898l73 511h272l-126 -511h-219zM411 898l73 511h272l-126 -511h-219zM795 898l73 511h272l-126 -511h-219z" />
<glyph unicode="&#x2039;" horiz-adv-x="682" d="M73 500l14 71l323 367h239l-6 -41l-329 -366l188 -353l-5 -39h-232z" />
<glyph unicode="&#x203a;" horiz-adv-x="682" d="M33 139l6 41l329 366l-188 353l5 39h232l192 -361l-14 -71l-323 -367h-239z" />
<glyph unicode="&#x203c;" horiz-adv-x="1237" d="M79 0l52 270h288l-52 -270h-288zM193 426l160 983h294l-224 -983h-230zM636 0l52 270h288l-52 -270h-288zM750 426l160 983h294l-224 -983h-230z" />
<glyph unicode="&#x203e;" horiz-adv-x="682" d="M-17 1454v166h716v-166h-716z" />
<glyph unicode="&#x2044;" horiz-adv-x="342" d="M-428 0l1086 1409h199l-1088 -1409h-197z" />
<glyph unicode="&#x205e;" horiz-adv-x="682" d="M84 0l55 281h288l-55 -281h-288zM162 401l55 281h288l-55 -281h-288zM240 801l55 282h288l-55 -282h-288zM318 1202l55 282h288l-55 -282h-288z" />
<glyph unicode="&#x205f;" horiz-adv-x="494" />
<glyph unicode="&#x206a;" horiz-adv-x="0" d="M-238 977v78h196v277h-196v79h476v-79h-196v-277h196v-78h-196v-1250h-84v1250h-196z" />
<glyph unicode="&#x206b;" horiz-adv-x="0" d="M-238 977v434h476v-434h-196v-1250h-84v1250h-196zM-157 1055h314v277h-314v-277z" />
<glyph unicode="&#x206c;" horiz-adv-x="0" d="M-240 1411h480l-198 -366v-1318h-84v1318z" />
<glyph unicode="&#x206d;" horiz-adv-x="0" d="M-240 977l240 441l240 -441h-198v-1250h-84v1250h-198z" />
<glyph unicode="&#x206e;" horiz-adv-x="0" d="M-239 1193l239 221l239 -221l-197 -181v-1285h-84v1285zM-126 1193l126 -112l126 112l-126 113z" />
<glyph unicode="&#x206f;" horiz-adv-x="0" d="M-238 977v78h196v277h-196v79h280v-356h196v-78h-196v-1250h-84v1250h-196z" />
<glyph unicode="&#x20a0;" d="M64 826q0 176 78.5 334.5t212.5 245.5t303 87q173 0 270 -87t97 -242l-261 -13v15q0 69 -35 110t-111 41q-82 0 -150.5 -66t-112.5 -187t-44 -240q0 -122 38 -175.5t128 -53.5l76 391h629l-36 -186h-402l-40 -206h361l-36 -186h-361l-43 -222h429l-37 -186h-656l80 408 q-185 0 -281 105.5t-96 312.5z" />
<glyph unicode="&#x20a1;" horiz-adv-x="1479" d="M100 569q0 238 94.5 429t268 303.5t399.5 126.5l45 103h172l-46 -107q74 -9 134 -27l58 134h172l-88 -203q145 -101 194 -290l-274 -71q-12 44 -38 87l-358 -833q199 43 316 248l227 -117q-204 -364 -647 -371l-47 -110h-172l52 122q-68 10 -130 35l-68 -157h-172 l102 237q-194 157 -194 461zM401 573q0 -91 24 -161l328 762q-168 -53 -260 -210.5t-92 -390.5zM533 264q52 -36 126 -48l409 950q-59 28 -133 31z" />
<glyph unicode="&#x20a2;" horiz-adv-x="1479" d="M100 569q0 252 105 450.5t293.5 304.5t428.5 106q230 0 377.5 -98.5t198.5 -293.5l-274 -71q-29 107 -111.5 169t-199.5 62q-242 0 -379.5 -168t-137.5 -457q0 -246 166 -328l65 346q25 121 42 252h268q-21 -161 -30 -221h4q73 134 144 187.5t163 53.5q28 0 76 -8 l-38 -237q-52 11 -95 11q-244 0 -311 -351l-10 -54q187 45 304 245l227 -117q-104 -186 -272 -279t-393 -93q-192 0 -330 72t-209.5 206t-71.5 311z" />
<glyph unicode="&#x20a3;" d="M-42 258l29 149h129l194 1002h955l-40 -208h-670l-77 -396h637l-40 -208h-637l-37 -190h314l-29 -149h-314l-51 -258h-284l50 258h-129z" />
<glyph unicode="&#x20a4;" d="M-51 0l39 205q193 79 229 276l5 27h-187l28 149h185l20 112h-183l29 149h181l21 116q37 207 147.5 301.5t308.5 94.5q176 0 280.5 -79.5t121.5 -220.5l-245 -48q-15 84 -56.5 120.5t-112.5 36.5q-78 0 -120 -46t-62 -151l-25 -124h285l-29 -149h-286l-22 -112h286 l-29 -149h-287l-6 -30q-40 -195 -232 -268h408q95 0 154.5 45t83.5 147l225 -39q-42 -179 -156 -271t-285 -92h-714z" />
<glyph unicode="&#x20a5;" horiz-adv-x="1821" d="M35 0l166 851q20 95 39 231h272q0 -11 -10.5 -77.5t-17.5 -107.5h3q77 116 151.5 160t176.5 44q155 0 229 -94l176 314h165l-175 -312q103 92 241 92t211.5 -73t73.5 -211q0 -64 -21 -164l-128 -653h-279l122 627q18 90 18 139v5q-3 121 -126 121q-91 0 -158 -77 t-93 -208l-119 -607h-279l14 74l-151 -270h-165l404 721l21 110q17 91 17 136q0 121 -126 121q-88 0 -156.5 -75.5t-95.5 -212.5l-118 -604h-282z" />
<glyph unicode="&#x20a6;" horiz-adv-x="1479" d="M10 436l43 218h110l27 137h-112l43 218h111l78 400h350l131 -400h382l79 400h262l-78 -400h114l-43 -218h-113l-27 -137h117l-43 -218h-116l-85 -436h-356l-140 436h-361l-85 -436h-262l85 436h-111zM425 654h250l-44 137h-179zM486 1009h76l-54 169zM862 791l45 -137 h196l27 137h-268zM978 436l71 -215l20 215h-91z" />
<glyph unicode="&#x20a7;" horiz-adv-x="2261" d="M59 0l274 1409h314q214 0 332 -98.5t118 -284.5q0 -127 -58 -213h69l135 242h125l-47 -242h147l-33 -167h-147l-70 -363q-7 -40 -7 -62q0 -69 68 -69q37 0 82 14l-31 -158q-70 -24 -144 -24q-106 0 -158 52t-52 139q0 40 9 85l73 386h-94l19 87q-74 -96 -182.5 -140 t-257.5 -44h-136l-107 -549h-241zM444 740h89q156 0 236.5 70t80.5 201q0 205 -242 205h-70zM1358 226l204 35q9 -60 49 -87t119 -27q38 0 70.5 3t56.5 12.5t38 26.5t14 45q0 22 -14 37t-42.5 27t-155.5 44q-228 54 -228 236q0 122 96 184t277 62q149 0 235 -60.5t94 -185.5 l-207 -22q-10 100 -133 100q-83 0 -113 -16t-30 -50q0 -50 119 -76l76 -17q120 -26 181.5 -84t61.5 -144q0 -141 -104.5 -215t-306.5 -74q-170 0 -256 59.5t-101 186.5z" />
<glyph unicode="&#x20a8;" horiz-adv-x="2489" d="M36 0l274 1409h651q159 0 272.5 -49t172.5 -140t59 -214q0 -165 -108.5 -280t-294.5 -143l274 -583h-326l-230 534h-346l-103 -534h-295zM479 764h393q145 0 219.5 58.5t74.5 166.5q0 93 -63.5 142t-178.5 49h-364zM1423 271l251 36q21 -75 77 -108t166 -33 q109 0 165.5 35t56.5 101q0 52 -41.5 79.5t-182.5 57.5q-199 45 -280.5 124.5t-81.5 205.5q0 160 125.5 245t358.5 85q206 0 307 -70.5t125 -217.5l-251 -29q-17 69 -66 100t-134 31q-205 0 -205 -120q0 -33 20 -55t57 -38t178 -49q182 -41 257 -117t75 -200 q0 -174 -128.5 -264t-374.5 -90q-201 0 -317 71t-157 220z" />
<glyph unicode="&#x20a9;" horiz-adv-x="1933" d="M-39 437l43 218h193l-8 136h-171l43 218h114l-25 400h280l17 -400h343l171 400h316l14 -400h333l164 400h291l-181 -400h136l-43 -218h-192l-62 -136h240l-43 -218h-295l-198 -437h-350l-15 437h-296l-186 -437h-355l-28 437h-250zM457 791l6 -136h175l58 136h-239z M470 222l78 215h-77zM873 655h196l-5 136h-133zM1013 1009h56l4 186zM1299 791l5 -136h174l56 136h-235zM1311 437l5 -215l75 215h-80z" />
<glyph unicode="&#x20aa;" horiz-adv-x="1810" d="M78 0l241 1241h572q208 0 298 -78t90 -248q0 -92 -24 -215l-55 -282h-229q60 318 65 362.5t5 73.5q0 94 -47.5 134t-176.5 40h-309l-201 -1028h-229zM483 0l156 801h231l-114 -588h317q117 0 175.5 30.5t95 104t65.5 225.5l129 668h231l-133 -686q-59 -298 -194 -426.5 t-385 -128.5h-574z" />
<glyph unicode="&#x20ab;" horiz-adv-x="1051" d="M81 189l25 130h771l-25 -130h-771zM161 679q0 130 44.5 253t125 189t192.5 66q179 0 222 -134h4q10 77 37 214h-202l22 119h205l19 98h196l-20 -98h93l-23 -119h-92l-126 -664q-14 -76 -21 -163h-197q0 51 10 113h-2q-54 -69 -112 -98.5t-140 -29.5q-108 0 -171.5 69.5 t-63.5 184.5zM370 709q0 -148 113 -148q55 0 95.5 24t69 72.5t45 120.5t16.5 123q0 81 -33 117.5t-99 36.5q-67 0 -112 -44t-70 -135.5t-25 -166.5z" />
<glyph unicode="&#x20ac;" d="M28 510l31 149h127q9 68 19 107h-126l32 149h134q74 261 221.5 388t381.5 127q345 0 365 -300l-257 -47q-11 65 -44.5 96t-108.5 31q-107 0 -170 -74t-99 -221h296l-29 -149h-301q-14 -53 -19 -107h310l-29 -149h-304l-3 -69q0 -125 44 -183.5t120 -58.5q135 0 192 128 l243 -40q-51 -152 -161 -228.5t-274 -76.5q-226 0 -338 134t-112 394h-141z" />
<glyph unicode="&#x20ad;" horiz-adv-x="1479" d="M2 610l45 235h152l110 564h295l-115 -564h74l671 564h369l-684 -564h527l-45 -235h-438l358 -610h-326l-339 610h-68l-159 -93l-101 -517h-292l118 610h-152z" />
<glyph unicode="&#x20ae;" horiz-adv-x="1251" d="M71 80l46 235l326 118l32 165l-326 -118l46 235l325 118l68 348h-455l44 228h1206l-44 -228h-456l-45 -233l350 127l-46 -235l-350 -127l-32 -165l350 127l-46 -235l-350 -127l-60 -313h-295l38 198z" />
<glyph unicode="&#x20af;" horiz-adv-x="2224" d="M-65 154q0 83 59.5 137t157.5 54q39 0 82 -9.5t62 -22.5q178 421 258 585t150 264.5t144 166.5q-300 -34 -450 -90l11 53q98 39 252.5 66.5t272.5 35.5q117 82 156 104.5t84 41.5t115 40h103q-102 -81 -212 -186q200 -11 298.5 -121t98.5 -331q0 -202 -125 -432.5 t-312 -370t-376 -139.5q-184 0 -355 130q-152 -130 -308 -130q-77 0 -121.5 42.5t-44.5 111.5zM18 152q0 -36 26 -55.5t61 -19.5q115 0 166 156q-25 18 -62.5 28.5t-69.5 10.5q-55 0 -88 -32.5t-33 -87.5zM465 188q121 -93 244 -93q150 0 285 139t219.5 366t84.5 431 q0 142 -46 220t-132 78q-69 -65 -150.5 -200t-199.5 -394q-106 -234 -174 -352.5t-131 -194.5zM1117 -406q61 77 116 208l210 493q72 168 179 242.5t268 74.5q124 0 196 -59t72 -166q0 -180 -103.5 -283.5t-276.5 -103.5q-108 0 -159 73q-84 -206 -126.5 -310.5 t-91.5 -168.5h-284zM1667 194q0 -60 20 -90.5t58 -30.5q51 0 95.5 49t76 143.5t31.5 161.5q0 96 -75 96q-57 0 -103 -44t-74.5 -125.5t-28.5 -159.5z" />
<glyph unicode="&#x20b0;" d="M-97 0l354 491l131 -189l168 207q-30 288 -34 362t-4 112q0 447 401 447q132 0 207.5 -71t75.5 -193q0 -116 -82.5 -258.5t-294.5 -378.5l31 -345q13 -153 13 -212q0 -397 -385 -397q-132 0 -220 18l43 221q79 -38 154 -38q73 0 109 47.5t36 164.5q0 33 -11 257 l-206 -272l-113 193l-100 -166h-273zM768 1015q0 -98 15 -248q83 128 132 219.5t49 156.5q0 40 -20.5 62.5t-58.5 22.5q-117 0 -117 -213z" />
<glyph unicode="&#x20b1;" horiz-adv-x="1366" d="M36 0l152 784h-131l23 121h131l16 83h-131l23 121h132l58 300h541q208 0 336.5 -79t166.5 -221h144l-23 -121h-105v-1q0 -43 -6 -82h95l-23 -121h-105q-61 -145 -201.5 -226.5t-328.5 -81.5h-377l-93 -476h-294zM466 703h289q169 0 249 81h-522zM506 905h558q6 30 6 66 q0 12 -1 17h-547zM546 1109h478q-63 71 -202 71h-262z" />
<glyph unicode="&#x20b2;" horiz-adv-x="1593" d="M100 583q0 239 95 426.5t272 296.5t412 122l24 123h167l-25 -127q183 -21 310 -120t175 -265l-282 -78q-27 98 -91.5 157t-156.5 74l-190 -980q201 11 338 95l46 228h-189l39 208h461l-105 -568q-145 -100 -296 -146t-339 -48l-36 -187h-167l38 197q-240 36 -370 191.5 t-130 400.5zM399 592q0 -145 64.5 -240.5t181.5 -126.5l188 966q-203 -33 -318.5 -193t-115.5 -406z" />
<glyph unicode="&#x20b3;" horiz-adv-x="1479" d="M-42 0l177 317h-172l41 211h249l93 167h-312l41 211h389l281 503h348l85 -503h377l-41 -211h-301l28 -167h242l-41 -211h-165l54 -317h-292l-54 317h-562l-171 -317h-294zM540 528h427l-24 167h-315zM739 906h173q-36 256 -36 286q-24 -71 -137 -286z" />
<glyph unicode="&#x20b4;" horiz-adv-x="1366" d="M-3 405l40 211h132q40 49 103.5 84t143 61.5t255.5 64.5h-593l41 211h924v16q0 168 -231 168q-100 0 -167.5 -25t-111.5 -83l-279 53q80 145 205.5 204.5t356.5 59.5q262 0 388.5 -90t126.5 -269v-34h88l-41 -211h-176q-135 -113 -448 -179l-146 -31h729l-41 -211h-951 q2 -106 68.5 -155t210.5 -49q234 0 337 129l283 -49q-179 -301 -655 -301q-508 0 -508 399v26h-84z" />
<glyph unicode="&#x20b5;" horiz-adv-x="1479" d="M100 569q0 238 94.5 429t268 303.5t399.5 126.5l24 123h167l-25 -127q190 -21 311 -119.5t164 -266.5l-274 -71q-28 96 -92 153.5t-154 72.5l-190 -978q223 27 356 254l227 -117q-98 -177 -258 -271t-370 -100l-36 -187h-167l38 195q-229 33 -356 185.5t-127 394.5z M401 573q0 -140 57 -230.5t170 -119.5l188 966q-197 -35 -306 -198.5t-109 -417.5z" />
<glyph unicode="&#x2122;" horiz-adv-x="2048" d="M185 1270v139h674v-139h-251v-502h-180v502h-243zM953 768v641h248l139 -301q22 -49 65 -160l23 61l41 99l144 301h243v-641h-165v340q0 16 8 172l-30 -75l-46 -109l-154 -328h-131l-149 328l-77 184q7 -143 7 -172v-340h-166z" />
<glyph unicode="&#xe000;" horiz-adv-x="1080" d="M0 0v1080h1080v-1080h-1080z" />
<glyph unicode="&#xfb01;" horiz-adv-x="1251" d="M74 0l174 892h-158l37 190h158l22 113q30 155 124.5 222t266.5 67q73 0 155 -17l-36 -181q-11 2 -43 6t-53 4q-67 0 -97 -32t-43 -97l-16 -85h213l-37 -190h-213l-174 -892h-280zM717 0l210 1082h281l-211 -1082h-280zM964 1277l41 207h281l-41 -207h-281z" />
<glyph unicode="&#xfb02;" horiz-adv-x="1251" d="M74 0l174 892h-158l37 190h158l22 113q30 155 124.5 222t266.5 67q73 0 155 -17l-36 -181q-11 2 -43 6t-53 4q-67 0 -97 -32t-43 -97l-16 -85h213l-37 -190h-213l-174 -892h-280zM717 0l288 1484h281l-289 -1484h-280z" />
</font>
</defs>
</svg>
