<?xml version="1.0" standalone="no"?>
<!DOCTYPE svg PUBLIC "-//W3C//DTD SVG 1.1//EN" "http://www.w3.org/Graphics/SVG/1.1/DTD/svg11.dtd" >
<svg xmlns="http://www.w3.org/2000/svg">
<metadata></metadata>
<defs>
<font id="liberation_serifbold" horiz-adv-x="1024" >
<font-face units-per-em="2048" ascent="1638" descent="-410" />
<missing-glyph horiz-adv-x="512" />
<glyph horiz-adv-x="2048" />
<glyph horiz-adv-x="2048" />
<glyph unicode="&#xd;" horiz-adv-x="512" />
<glyph unicode=" "  horiz-adv-x="512" />
<glyph unicode="&#x09;" horiz-adv-x="512" />
<glyph unicode="&#xa0;" horiz-adv-x="512" />
<glyph unicode="!" horiz-adv-x="682" d="M174 137q0 69 48 117.5t118 48.5q69 0 117.5 -48t48.5 -118q0 -69 -48 -117.5t-118 -48.5q-69 0 -117.5 48t-48.5 118zM190 1341h299l-92 -921h-115z" />
<glyph unicode="&#x22;" horiz-adv-x="1137" d="M227 1341h258l-78 -481h-104zM653 1341h258l-78 -481h-104z" />
<glyph unicode="#" d="M27 411v123h182l53 287h-235v123h258l73 397h144l-74 -397h270l74 397h143l-74 -397h156v-123h-178l-51 -287h229v-123h-256l-76 -411h-143l76 411h-270l-74 -411h-146l76 411h-157zM352 534h270l54 287h-271z" />
<glyph unicode="$" d="M73 51v320h93l36 -186q30 -41 114.5 -73t149.5 -34v488q-168 66 -235 119.5t-104.5 131.5t-37.5 197q0 144 103 235t274 105v129h102v-127q151 -6 306 -43v-279h-91l-32 143q-29 29 -79 51.5t-104 27.5v-415q125 -50 176 -77.5t91 -61t69 -77.5t45.5 -103t16.5 -135 q0 -175 -107.5 -282.5t-290.5 -120.5v-140h-102v136q-107 2 -222.5 24t-170.5 47zM303 1067q0 -46 15 -78.5t45 -56t103 -53.5v375q-79 -12 -121 -61.5t-42 -125.5zM568 77q89 16 136.5 79.5t47.5 173.5q0 49 -18 84t-52.5 60t-113.5 54v-451z" />
<glyph unicode="%" horiz-adv-x="2048" d="M210 995q0 367 327 367q159 0 241.5 -92t82.5 -275q0 -372 -330 -372q-161 0 -241 95t-80 277zM425 995q0 -155 25.5 -217t80.5 -62q58 0 86 65t28 214q0 146 -27.5 209.5t-86.5 63.5q-56 0 -81 -61t-25 -212zM490 -20l948 1382h151l-949 -1382h-150zM1205 346 q0 178 81 272.5t247 94.5q159 0 241 -92t82 -275q0 -373 -329 -373q-161 0 -241.5 95t-80.5 278zM1421 346q0 -155 25.5 -217t80.5 -62q58 0 86 65t28 214q0 146 -27.5 209.5t-86.5 63.5q-56 0 -81 -61t-25 -212z" />
<glyph unicode="&#x26;" horiz-adv-x="1706" d="M118 356q0 96 35 167.5t96.5 123t180.5 98.5q-126 145 -126 322q0 139 98 217t279 78q175 0 268.5 -74t93.5 -215q0 -76 -30 -132t-86.5 -98.5t-174.5 -89.5l380 -343q51 131 59 307l-111 26v64h477v-64l-110 -26l-27 -91q-61 -206 -150 -340l220 -198l116 -25v-63h-384 l-119 110q-176 -130 -443 -130q-275 0 -408.5 94t-133.5 282zM394 367q0 -143 71 -212t195 -69q208 0 339 120l-477 444q-68 -46 -98 -115t-30 -168zM554 1089q0 -64 21.5 -119.5t85.5 -125.5q76 41 104 96t28 149q0 173 -112 173q-68 0 -97.5 -43.5t-29.5 -129.5z" />
<glyph unicode="'" horiz-adv-x="569" d="M156 1341h258l-78 -481h-104z" />
<glyph unicode="(" horiz-adv-x="682" d="M90 495q0 238 52.5 406t164 292t309.5 228v-114q-91 -69 -146 -178t-81 -254t-26 -381q0 -237 25.5 -382t81 -255t146.5 -179v-114q-198 105 -309.5 229.5t-164 293t-52.5 408.5z" />
<glyph unicode=")" horiz-adv-x="682" d="M66 -322q91 70 146.5 180t81 256.5t25.5 379.5q0 237 -26 382t-81 253t-146 178v114q200 -107 311 -230.5t163 -291t52 -404.5q0 -239 -52 -407.5t-163.5 -293t-310.5 -230.5v114z" />
<glyph unicode="*" d="M85 876l307 88l-307 90l94 213l287 -233l-70 317h233l-73 -317l288 227l95 -209l-312 -88l312 -86l-95 -211l-288 228l73 -316h-233l70 320l-287 -236z" />
<glyph unicode="+" horiz-adv-x="1167" d="M108 608v143h404v406h143v-406h405v-143h-405v-405h-143v405h-404z" />
<glyph unicode="," horiz-adv-x="512" d="M27 -225q63 19 108 50t69.5 68.5t24.5 71.5q0 22 -15 38t-60 41q-76 40 -76 124q0 65 45 99t114 34q85 0 141 -54.5t56 -140.5q0 -156 -104 -263.5t-303 -159.5v92z" />
<glyph unicode="-" horiz-adv-x="682" d="M75 395v174h532v-174h-532z" />
<glyph unicode="." horiz-adv-x="512" d="M90 137q0 69 48 117.5t118 48.5q69 0 117.5 -48t48.5 -118q0 -69 -48 -117.5t-118 -48.5q-69 0 -117.5 48t-48.5 118z" />
<glyph unicode="/" horiz-adv-x="569" d="M-20 -20l470 1369h140l-469 -1369h-141z" />
<glyph unicode="0" d="M78 676q0 333 108 509.5t328 176.5q212 0 322 -174.5t110 -511.5q0 -696 -440 -696q-212 0 -320 178t-108 518zM371 676q0 -326 32 -461t105 -135q74 0 109.5 138.5t35.5 457.5q0 312 -35 448.5t-110 136.5q-74 0 -105.5 -132t-31.5 -453z" />
<glyph unicode="1" d="M164 0v86l232 24v1011l-231 -76v85l378 222h142v-1242l233 -24v-86h-754z" />
<glyph unicode="2" d="M86 0v189q86 92 159 165q160 158 234 248.5t108.5 187.5t34.5 221q0 109 -53 176t-141 67q-62 0 -99 -13t-68 -39l-43 -194h-87v305q80 18 156.5 30.5t166.5 12.5q221 0 338.5 -91t117.5 -259q0 -105 -35 -190.5t-110.5 -166.5t-300.5 -264q-86 -70 -186 -159h658v-226 h-850z" />
<glyph unicode="3" d="M77 345h92l52 -215q87 -49 182 -49q121 0 189 77.5t68 216.5q0 121 -54.5 185.5t-176.5 72.5l-116 7v121l112 8q89 6 131.5 65.5t42.5 179.5q0 112 -50.5 176t-143.5 64q-54 0 -88.5 -16.5t-65.5 -35.5l-43 -194h-87v305q102 26 176 34.5t146 8.5q451 0 451 -330 q0 -136 -72 -220t-206 -104q338 -41 338 -337q0 -183 -131 -284t-364 -101q-186 0 -370 40z" />
<glyph unicode="4" d="M28 265v163l604 920h220v-878h134v-205h-134v-265h-269v265h-555zM194 470h389v397q0 112 10 212z" />
<glyph unicode="5" d="M82 345h92l52 -215q39 -22 96 -35.5t103 -13.5q230 0 230 308q0 160 -58.5 231.5t-186.5 71.5q-71 0 -130 -26l-31 -13h-100v688h700v-223h-589v-352q122 27 220 27q238 0 353.5 -98t115.5 -296q0 -202 -125.5 -310.5t-359.5 -108.5q-186 0 -370 40z" />
<glyph unicode="6" d="M70 662q0 216 64.5 373t180.5 239t267 82q156 0 301 -43v-305h-87l-43 194q-69 52 -151 52q-100 0 -162.5 -128t-73.5 -358q109 47 216 47q183 0 282.5 -103t99.5 -296q0 -211 -109 -323.5t-310 -112.5q-230 0 -352.5 175t-122.5 507zM364 662q0 -581 177 -581 q73 0 101 79t28 237q0 141 -39 217t-116 76q-74 0 -151 -23v-5z" />
<glyph unicode="7" d="M117 958v383h857v-79l-521 -1262h-239l565 1118h-529l-46 -160h-87z" />
<glyph unicode="8" d="M68 362q0 128 62 218t172 131q-97 37 -150 114t-53 189q0 164 108.5 256t306.5 92q194 0 302.5 -93.5t108.5 -257.5q0 -110 -54 -187.5t-152 -112.5q115 -43 176 -133t61 -216q0 -190 -109.5 -286t-340.5 -96q-438 0 -438 382zM352 362q0 -155 36.5 -218t117.5 -63 q86 0 126 66t40 215q0 154 -40 224t-126 70q-82 0 -118 -68t-36 -226zM383 1011q0 -136 30 -192t95 -56q69 0 101 57.5t32 190.5q0 131 -33 190.5t-100 59.5q-64 0 -94.5 -59t-30.5 -191z" />
<glyph unicode="9" d="M56 932q0 204 117 314t325 110q235 0 343.5 -165t108.5 -517q0 -226 -63.5 -381t-182.5 -234t-286 -79q-166 0 -311 43v305h87l43 -194q35 -25 83.5 -39t93.5 -14q108 0 168.5 122.5t70.5 354.5q-104 -37 -207 -37q-181 0 -285.5 108t-104.5 303zM350 928 q0 -286 156 -286q76 0 150 18v14q0 289 -34.5 435t-121.5 146q-150 0 -150 -327z" />
<glyph unicode=":" horiz-adv-x="682" d="M168 137q0 70 47.5 118t117.5 48q69 0 117.5 -48t48.5 -118q0 -69 -48 -117.5t-118 -48.5t-117.5 48t-47.5 118zM168 794q0 70 46.5 118t118.5 48q71 0 118.5 -48.5t47.5 -117.5t-48 -117.5t-118 -48.5t-117.5 48t-47.5 118z" />
<glyph unicode=";" horiz-adv-x="682" d="M106 -225q63 19 108.5 50t70 69t24.5 71q0 22 -16 38.5t-61 40.5q-77 40 -77 124q0 60 43.5 96.5t118.5 36.5q83 0 140 -54.5t57 -140.5q0 -156 -104 -263t-304 -160v92zM170 794q0 70 46.5 118t118.5 48q71 0 118.5 -48.5t47.5 -117.5t-48 -117.5t-118 -48.5t-117.5 48 t-47.5 118z" />
<glyph unicode="&#x3c;" horiz-adv-x="1167" d="M102 635v90l952 468v-143l-767 -370l767 -371v-143z" />
<glyph unicode="=" horiz-adv-x="1167" d="M102 403v144h952v-144h-952zM102 813v143h952v-143h-952z" />
<glyph unicode="&#x3e;" horiz-adv-x="1167" d="M104 166v143l768 371l-768 370v143l952 -468v-90z" />
<glyph unicode="?" d="M124 1018v295q166 43 324 43q454 0 454 -355q0 -145 -77.5 -245t-219.5 -140l-87 -24l-27 -202h-103l-57 313l95 25q104 27 145.5 91.5t41.5 174.5q0 137 -48 198.5t-160 61.5q-84 0 -149 -42l-43 -194h-89zM280 137q0 70 47.5 118t117.5 48q69 0 117.5 -48t48.5 -118 q0 -69 -48 -117.5t-118 -48.5t-117.5 48t-47.5 118z" />
<glyph unicode="@" horiz-adv-x="1905" d="M107 362q0 286 129 517t352 358t495 127q341 0 528 -160.5t187 -451.5q0 -188 -97 -355.5t-264 -269.5t-352 -102q-124 0 -128 125l-52 -43q-100 -82 -219 -82q-86 0 -136 70t-50 188q0 129 51 251.5t141.5 211t202.5 133.5t289 45q87 0 183 -11l-121 -541 q-9 -37 -16 -87t-7 -70q0 -23 8.5 -39.5t41.5 -16.5q94 0 172 80t123.5 220t45.5 292q0 243 -142.5 377.5t-392.5 134.5q-226 0 -404.5 -112.5t-281 -321t-102.5 -466.5q0 -189 73 -336.5t209.5 -229t321.5 -81.5q147 0 276 40t265 135l44 -64q-142 -114 -291 -165t-325 -51 q-228 0 -400 94t-264.5 265.5t-92.5 391.5zM740 316q0 -72 21.5 -109.5t49.5 -37.5q34 0 78.5 20t75.5 48l120 561q-17 5 -61 5q-102 0 -156 -52.5t-91 -179.5t-37 -255z" />
<glyph unicode="A" horiz-adv-x="1479" d="M20 0v73l100 27l477 1252h290l475 -1252l102 -27v-73h-597v73l155 27l-128 347h-515l-123 -347l172 -27v-73h-408zM420 557h436l-215 593z" />
<glyph unicode="B" horiz-adv-x="1366" d="M34 0v73l173 27v1142l-173 26v73h651q267 0 394 -71.5t127 -231.5q0 -120 -75 -207t-201 -114q187 -19 283 -101.5t96 -224.5q0 -195 -144 -296t-413 -101l-456 6h-262zM522 110q144 -6 227 -6q117 0 173.5 71t56.5 216q0 133 -66.5 198t-217.5 65h-173v-544zM522 764 h147q107 0 158 56t51 190q0 117 -50.5 169t-166.5 52h-139v-467z" />
<glyph unicode="C" horiz-adv-x="1479" d="M100 655q0 344 180.5 522.5t533.5 178.5q233 0 483 -67l6 -322h-90l-28 194q-132 90 -307 90q-232 0 -339 -144.5t-107 -448.5q0 -281 112 -428t326 -147q113 0 197.5 30t132.5 71l32 220h91l-6 -340q-90 -35 -234 -59.5t-268 -24.5q-337 0 -526 179t-189 496z" />
<glyph unicode="D" horiz-adv-x="1479" d="M36 0v73l172 27v1142l-172 26v73h637q361 0 533.5 -163.5t172.5 -499.5q0 -345 -165 -513.5t-499 -168.5l-449 4h-230zM522 114q96 -8 174 -8q130 0 205.5 56t110.5 175.5t35 332.5q0 290 -106 425.5t-345 135.5h-74v-1117z" />
<glyph unicode="E" horiz-adv-x="1366" d="M35 0v73l172 27v1142l-172 26v73h1142v-341h-91l-32 217q-112 14 -324 14h-208v-492h351l31 148h89v-412h-89l-31 152h-351v-517h253q258 0 338 16l57 248h91l-19 -374h-1207z" />
<glyph unicode="F" horiz-adv-x="1251" d="M35 1268v73h1118v-361h-94l-32 237q-49 7 -162 10.5t-178 3.5h-165v-549h327l31 170h89v-452h-89l-31 172h-327v-472l223 -27v-73h-697v73l159 27v1142z" />
<glyph unicode="G" horiz-adv-x="1593" d="M100 655q0 337 192.5 519t549.5 182q87 0 158.5 -7t133.5 -19t228 -59v-308h-90l-24 174q-79 54 -174 84t-196 30q-233 0 -339.5 -145t-106.5 -449q0 -283 112.5 -428.5t325.5 -145.5q116 0 221 35v388l-172 26v74h618v-74l-131 -26v-436q-124 -41 -288 -65.5t-295 -24.5 q-219 0 -382.5 80t-252 233t-88.5 362z" />
<glyph unicode="H" horiz-adv-x="1593" d="M35 0v74l172 26v1141l-172 27v73h659v-73l-172 -27v-496h548v496l-172 27v73h661v-73l-173 -27v-1141l173 -26v-74h-661v74l172 26v535h-548v-535l172 -26v-74h-659z" />
<glyph unicode="I" horiz-adv-x="797" d="M69 0v74l172 26v1141l-172 27v73h659v-73l-172 -27v-1141l172 -26v-74h-659z" />
<glyph unicode="J" d="M91 10v304h89l30 -179q19 -23 54 -36t77 -13q69 0 114.5 48t45.5 142v966l-172 26v73h639v-73l-152 -26v-810q0 -217 -120 -334.5t-342 -117.5q-75 0 -147.5 8.5t-115.5 21.5z" />
<glyph unicode="K" horiz-adv-x="1593" d="M35 0v73l172 27v1142l-172 26v73h660v-73l-173 -26v-546l611 546l-123 26v73h459v-73l-164 -26l-443 -391l590 -751l125 -27v-73h-438l-501 646l-116 -100v-446l193 -27v-73h-680z" />
<glyph unicode="L" horiz-adv-x="1366" d="M35 0v73l172 27v1142l-171 26v73h693v-73l-207 -26v-1136h273q213 0 313 20l82 279h90l-38 -405h-1207z" />
<glyph unicode="M" horiz-adv-x="1933" d="M35 0v73l172 27v1142l-172 26v73h527l383 -882l391 882h538v-73l-172 -26v-1142l172 -27v-73h-667v73l180 27v1033l-505 -1133h-55l-495 1133v-1033l180 -27v-73h-477z" />
<glyph unicode="N" horiz-adv-x="1479" d="M39 0v73l172 27v1142l-172 26v73h459l657 -857v758l-180 26v73h477v-73l-172 -26v-1242h-117l-827 1078v-978l180 -27v-73h-477z" />
<glyph unicode="O" horiz-adv-x="1593" d="M100 672q0 684 697 684q344 0 520 -173.5t176 -510.5q0 -341 -178 -516.5t-518 -175.5q-339 0 -518 175t-179 517zM432 672q0 -319 87.5 -455.5t277.5 -136.5q189 0 276.5 137t87.5 455q0 317 -87.5 450t-276.5 133q-190 0 -277.5 -133t-87.5 -450z" />
<glyph unicode="P" horiz-adv-x="1251" d="M35 1268v73h591q285 0 426 -95.5t141 -299.5q0 -420 -490 -420h-180v-426l223 -27v-73h-698v73l159 27v1142zM523 636h83q139 0 202 70t63 238q0 160 -59.5 223.5t-209.5 63.5h-79v-595z" />
<glyph unicode="Q" horiz-adv-x="1593" d="M100 672q0 684 697 684q344 0 520 -173.5t176 -510.5q0 -497 -374 -640l50 -61q147 -184 252 -184q52 0 82 8v-86q-21 -10 -97.5 -25.5t-138.5 -15.5q-73 0 -129.5 13.5t-105 42t-95 75t-152.5 181.5q-333 2 -509 178.5t-176 513.5zM432 672q0 -319 87.5 -455.5 t277.5 -136.5q189 0 276.5 137t87.5 455q0 317 -87.5 450t-276.5 133q-190 0 -277.5 -133t-87.5 -450z" />
<glyph unicode="R" horiz-adv-x="1479" d="M35 1268v73h641q296 0 442 -91t146 -284q0 -288 -270 -370l358 -496l145 -27v-73h-434l-374 568h-166v-468l172 -27v-73h-647v73l159 27v1142zM523 678h145q154 0 219 64t65 222q0 150 -62 208.5t-227 58.5h-140v-553z" />
<glyph unicode="S" horiz-adv-x="1139" d="M109 51v360h88l45 -215q42 -49 127 -82t176 -33q287 0 287 236q0 74 -54.5 125t-171.5 91q-172 57 -247.5 92.5t-127.5 83.5t-83 116.5t-31 168.5q0 177 120.5 269.5t352.5 92.5q168 0 372 -43v-319h-89l-45 184q-102 74 -238 74q-123 0 -189 -45.5t-66 -139.5 q0 -67 55 -114.5t172 -84.5q229 -75 314.5 -130.5t130.5 -137.5t45 -193q0 -427 -503 -427q-115 0 -234.5 19.5t-205.5 51.5z" />
<glyph unicode="T" horiz-adv-x="1366" d="M32 966v375h1303v-375h-92l-27 249q-83 18 -328 18h-49v-1133l213 -27v-73h-742v73l213 27v1135h-51q-229 0 -322 -20l-27 -249h-91z" />
<glyph unicode="U" horiz-adv-x="1479" d="M51 1268v73h639v-73l-172 -26v-787q0 -161 81.5 -247t238.5 -86q150 0 232 84t82 247v789l-180 26v73h456v-73l-152 -26v-781q0 -232 -134 -356t-383 -124q-269 0 -412.5 125.5t-143.5 362.5v773z" />
<glyph unicode="V" horiz-adv-x="1479" d="M23 1268v73h583v-73l-139 -27l377 -879l352 879l-135 27v73h395v-73l-127 -27l-518 -1272h-133l-545 1272z" />
<glyph unicode="W" horiz-adv-x="2048" d="M29 1268v73h602v-73l-157 -26l286 -799l314 784h125l315 -782l237 797l-169 26v73h434v-73l-117 -26l-398 -1273h-123l-334 827l-331 -827h-123l-444 1273z" />
<glyph unicode="X" horiz-adv-x="1479" d="M38 0v73l148 27l431 548l-384 594l-151 26v73h653v-73l-170 -26l234 -362l285 362l-166 26v73h459v-73l-148 -26l-365 -463l439 -679l152 -27v-73h-653v73l170 27l-290 447l-352 -447l166 -27v-73h-458z" />
<glyph unicode="Y" horiz-adv-x="1479" d="M36 1268v73h690v-73l-180 -26l306 -562l296 562l-164 26v73h456v-73l-142 -26l-387 -714v-428l213 -27v-73h-742v73l213 27v422l-408 720z" />
<glyph unicode="Z" horiz-adv-x="1366" d="M98 0v114l742 1121h-240q-227 0 -320 -20l-31 -211h-89v337h1036v-106l-747 -1131h280q114 0 224.5 11t159.5 22l59 256h90l-27 -393h-1137z" />
<glyph unicode="[" horiz-adv-x="682" d="M152 -274v1695h456v-67l-203 -41v-1479l203 -41v-67h-456z" />
<glyph unicode="\" horiz-adv-x="569" d="M-20 1349h140l470 -1369h-141z" />
<glyph unicode="]" horiz-adv-x="682" d="M74 -207l203 41v1479l-203 41v67h456v-1695h-456v67z" />
<glyph unicode="^" horiz-adv-x="1190" d="M122 389l428 952h90l428 -952h-143l-330 761l-330 -761h-143z" />
<glyph unicode="_" d="M-16 -141h1056v-144h-1056v144z" />
<glyph unicode="`" horiz-adv-x="682" d="M88 1386v37h285l165 -273v-32h-86z" />
<glyph unicode="a" d="M66 260q0 106 43 169.5t124 94t255 34.5l122 3v137q0 170 -139 170q-84 0 -188 -52l-38 -117h-66v227q151 23 222 29t145 6q353 0 353 -260v-611l94 -24v-66h-346l-22 72q-78 -53 -141 -72.5t-127 -19.5q-291 0 -291 280zM354 266q0 -85 30 -125t78 -40q68 0 148 35v336 l-84 -3q-97 -4 -134.5 -51t-37.5 -152z" />
<glyph unicode="b" horiz-adv-x="1139" d="M26 1356v65h385v-345q0 -93 -10 -189q40 33 115.5 55.5t147.5 22.5q204 0 298 -112t94 -357q0 -242 -120.5 -379t-339.5 -137q-162 0 -474 68v1285zM411 101q64 -16 157 -16q99 0 147 96.5t48 315.5q0 185 -45.5 271t-149.5 86q-38 0 -83 -8.5t-74 -25.5v-719z" />
<glyph unicode="c" horiz-adv-x="909" d="M70 472q0 155 56.5 265.5t161.5 169t244 58.5q140 0 305 -35v-278h-72l-42 165q-34 25 -67 35t-87 10q-59 0 -107 -47t-74.5 -132.5t-26.5 -204.5q0 -201 62.5 -287t198.5 -86q138 0 236 29v-77q-45 -36 -124.5 -56t-163.5 -20q-251 0 -375.5 121t-124.5 370z" />
<glyph unicode="d" horiz-adv-x="1139" d="M83 467q0 244 109.5 371t317.5 127q109 0 220 -27q-6 33 -6 155v238l-96 24v66h385v-1331l103 -24v-66h-362l-21 53q-56 -36 -86 -47.5t-68 -18.5t-84 -7q-208 0 -310 119.5t-102 367.5zM376 475q0 -187 47 -285.5t135 -98.5q80 0 166 43v708q-78 21 -158 21 q-90 0 -140 -98.5t-50 -289.5z" />
<glyph unicode="e" horiz-adv-x="909" d="M70 475q0 246 105.5 367t318.5 121q191 0 276.5 -102t85.5 -317v-82h-493v-16q0 -149 24 -212t78 -96t148 -33q88 0 222 29v-77q-55 -33 -142.5 -54.5t-170.5 -21.5q-231 0 -341.5 120.5t-110.5 373.5zM364 567h218q0 134 -9 188.5t-30.5 80.5t-59.5 26q-60 0 -89.5 -65 t-29.5 -230z" />
<glyph unicode="f" horiz-adv-x="682" d="M15 836v69l142 39v101q0 192 98 294.5t281 102.5q99 0 166 -19v-224h-64l-29 109q-24 24 -63 24q-100 0 -100 -255v-137h191v-104h-191v-746l153 -24v-66h-544v66l102 24v746h-142z" />
<glyph unicode="g" d="M54 -233q0 45 36.5 87t141.5 103q-59 23 -100.5 80t-41.5 120l167 190q-178 75 -178 293q0 156 109 240.5t312 84.5q43 0 110.5 -7.5t98.5 -17.5l225 111l35 -43l-114 -162q62 -76 62 -206q0 -159 -107.5 -244.5t-313.5 -85.5q-79 0 -153 12l-24 -76q2 -29 37 -54.5 t86 -25.5h219q343 0 343 -264q0 -109 -59.5 -187.5t-175 -122.5t-287.5 -44q-204 0 -316 58.5t-112 160.5zM253 -216q0 -64 61.5 -96t168.5 -32q145 0 223.5 47t78.5 131q0 95 -127 95h-317q-88 -64 -88 -145zM362 640q0 -115 31 -172.5t101 -57.5q74 0 107 57.5t33 172.5 t-32.5 169.5t-107.5 54.5q-69 0 -100.5 -54.5t-31.5 -169.5z" />
<glyph unicode="h" horiz-adv-x="1139" d="M51 1355v66h385v-407q0 -66 -6 -156l69 35q142 72 255 72q260 0 260 -277v-598l94 -24v-66h-467v66l84 24v559q0 84 -35.5 131t-101.5 47q-76 0 -152 -34v-703l86 -24v-66h-467v66l92 24v1241z" />
<glyph unicode="i" horiz-adv-x="569" d="M45 0v66l102 24v760l-96 24v66h385v-850l103 -24v-66h-494zM137 1268q0 65 45.5 109t108.5 44q64 0 108.5 -44.5t44.5 -108.5q0 -63 -44 -108.5t-109 -45.5q-64 0 -109 44.5t-45 109.5z" />
<glyph unicode="j" horiz-adv-x="682" d="M-17 -193h64l43 -114q24 -19 49 -19q54 0 85.5 66.5t31.5 188.5v911l-166 34v66h455v-979q0 -188 -101.5 -292.5t-288.5 -104.5q-89 0 -172 18v225zM246 1268q0 63 44.5 108t109.5 45q63 0 108 -44.5t45 -108.5t-44.5 -109t-108.5 -45t-109 44.5t-45 109.5z" />
<glyph unicode="k" horiz-adv-x="1139" d="M51 1355v66h385v-970l367 400l-100 23v66h358v-66l-108 -22l-224 -236l323 -526l84 -24v-66h-452v66l55 24l-188 329l-115 -80v-249l93 -24v-66h-471v66l89 24v1241z" />
<glyph unicode="l" horiz-adv-x="569" d="M40 0v66l102 24v1241l-96 24v66h385v-1331l103 -24v-66h-494z" />
<glyph unicode="m" horiz-adv-x="1706" d="M55 0v66l92 24v760l-92 24v66h365l14 -82l68 35q140 72 251 72q168 0 224 -122q205 122 346 122q254 0 254 -277v-598l94 -24v-66h-467v66l84 24v559q0 84 -32.5 131t-98.5 47q-74 0 -160 -42q10 -42 10 -97v-598l94 -24v-66h-467v66l84 24v559q0 84 -32.5 131t-98.5 47 t-151 -39v-698l86 -24v-66h-467z" />
<glyph unicode="n" horiz-adv-x="1139" d="M55 0v66l92 24v760l-92 24v66h365l14 -82l68 35q140 72 252 72q260 0 260 -277v-598l94 -24v-66h-467v66l84 24v559q0 84 -35.5 131t-101.5 47q-76 0 -152 -34v-703l86 -24v-66h-467z" />
<glyph unicode="o" d="M78 475q0 249 107.5 369.5t328.5 120.5q223 0 327.5 -124.5t104.5 -365.5q0 -253 -108.5 -374t-331.5 -121q-216 0 -322 122.5t-106 372.5zM371 475q0 -231 30.5 -313t106.5 -82q79 0 112 86.5t33 308.5q0 220 -32.5 304.5t-112.5 84.5q-77 0 -107 -81t-30 -308z" />
<glyph unicode="p" horiz-adv-x="1139" d="M26 874v66h381l2 -48q107 73 260 73q196 0 291.5 -115t95.5 -363q0 -246 -111 -376.5t-319 -130.5q-106 0 -214 27q6 -66 6 -148v-205l138 -24v-66h-529v66l102 24v1196zM418 107q81 -21 169 -21q176 0 176 394q0 374 -174 374q-93 0 -171 -38v-709z" />
<glyph unicode="q" horiz-adv-x="1139" d="M84 474q0 241 112.5 366t332.5 125q72 0 279 -23l119 43h91v-1331l102 -24v-66h-529v66l138 24v215q0 93 10 189q-98 -78 -245 -78q-209 0 -309.5 123.5t-100.5 370.5zM377 448q0 -180 46.5 -268.5t153.5 -88.5q38 0 80.5 10.5t71.5 27.5v716q-68 17 -152 17 q-102 0 -151 -101t-49 -313z" />
<glyph unicode="r" horiz-adv-x="909" d="M55 0v66l122 24v760l-122 24v66h395l11 -195q108 120 193.5 172.5t156.5 52.5h54v-343h-56l-59 126q-63 0 -143 -27.5t-141 -64.5v-571l151 -24v-66h-562z" />
<glyph unicode="s" horiz-adv-x="797" d="M62 685q0 128 95 204t245 76q103 0 277 -29v-241h-66l-32 110q-29 29 -81.5 47.5t-99.5 18.5q-72 0 -106.5 -29.5t-34.5 -80.5q0 -53 43 -87t177 -74q146 -45 207 -118.5t61 -183.5q0 -157 -96.5 -237.5t-280.5 -80.5q-76 0 -167.5 16.5t-138.5 34.5v256h66l38 -132 q35 -35 92 -58.5t116 -23.5q87 0 129.5 37.5t42.5 95.5q0 55 -41 88t-179 76q-145 45 -205.5 123t-60.5 192z" />
<glyph unicode="t" horiz-adv-x="682" d="M33 836v65l145 39l117 213h150v-213h198v-104h-198v-601q0 -65 27 -98t71 -33q53 0 130 16v-85q-30 -21 -102.5 -38t-132.5 -17q-135 0 -208.5 61t-73.5 176v619h-123z" />
<glyph unicode="u" horiz-adv-x="1139" d="M31 874v66h383v-649q0 -84 35.5 -131t101.5 -47q76 0 152 34v703l-86 24v66h375v-850l92 -24v-66h-365l-14 82l-68 -35q-140 -72 -252 -72q-260 0 -260 277v598z" />
<glyph unicode="v" d="M0 874v66h481v-66l-112 -26l241 -536l217 538l-110 24v66h307v-66l-68 -20l-376 -874h-121l-393 870z" />
<glyph unicode="w" horiz-adv-x="1479" d="M6 874v66h465v-66l-112 -26l202 -537l218 535h95l217 -535l182 539l-110 24v66h305v-66l-72 -20l-316 -874h-121l-215 527l-214 -527h-121l-333 870z" />
<glyph unicode="x" d="M8 0v65l84 16l300 352l-270 417l-91 25v65h502v-65l-105 -27l137 -211l181 213l-94 25v65h320v-65l-83 -21l-264 -310l298 -458l90 -21v-65h-502v65l105 23l-164 253l-218 -255l94 -21v-65h-320z" />
<glyph unicode="y" d="M20 874v66h481v-66l-112 -26l221 -520l197 522l-110 24v66h307v-66l-68 -20l-371 -913q-64 -163 -112 -236.5t-106.5 -110t-133.5 -36.5q-81 0 -165 19v242h60l43 -126q29 -23 74 -23q38 0 67 18t54.5 52t48.5 83.5t67 147.5l-376 879z" />
<glyph unicode="z" horiz-adv-x="909" d="M40 0v45l432 805h-107q-56 0 -108 -9.5t-72 -25.5l-31 -155h-72v280h730v-49l-432 -801h150q57 0 120 13.5t89 33.5l53 217h72l-27 -354h-797z" />
<glyph unicode="{" horiz-adv-x="807" d="M66 533v85q102 3 158.5 52.5t56.5 163.5v294q0 141 78 217t233 76h135v-87h-62q-69 0 -98.5 -44t-29.5 -131v-330q0 -94 -55 -163t-147 -88v-3q94 -21 148 -88t54 -165v-334q0 -86 29.5 -130.5t98.5 -44.5h62v-87h-135q-150 0 -230.5 77t-80.5 217v295q0 106 -51.5 160 t-163.5 58z" />
<glyph unicode="|" horiz-adv-x="451" d="M154 -442v1863h143v-1863h-143z" />
<glyph unicode="}" horiz-adv-x="807" d="M80 -187h62q69 0 98.5 44.5t29.5 130.5v334q0 98 54 165t148 88v3q-92 19 -147 86.5t-55 164.5v330q0 87 -29.5 131t-98.5 44h-62v87h135q155 0 233 -76t78 -217v-294q0 -114 56.5 -163.5t158.5 -52.5v-85q-113 -4 -164 -58.5t-51 -159.5v-295q0 -140 -81 -217t-230 -77 h-135v87z" />
<glyph unicode="~" horiz-adv-x="1065" d="M16 481q15 149 48 225t91.5 118t150.5 42q56 0 115.5 -27t144.5 -96q78 -69 121 -94t74 -25q66 0 99 57.5t48 184.5h144q-20 -151 -54 -226.5t-91.5 -117t-145.5 -41.5q-57 0 -118 29.5t-135 91.5q-86 72 -127.5 96.5t-74.5 24.5q-71 0 -103.5 -55.5t-45.5 -186.5h-141z " />
<glyph unicode="&#xa1;" horiz-adv-x="682" d="M174 795q0 69 48 117.5t118 48.5q69 0 117.5 -48t48.5 -118q0 -69 -48 -117.5t-118 -48.5q-69 0 -117.5 48t-48.5 118zM191 -409l92 921h115l92 -921h-299z" />
<glyph unicode="&#xa2;" d="M89 677q0 154 59 265t168.5 169.5t258.5 58.5h2v171h92v-175q130 -10 237 -31v-278h-72l-54 165q-51 33 -111 42v-754q147 0 258 29v-77q-44 -32 -114 -51t-144 -24v-187h-92v187q-488 19 -488 490zM380 683q0 -165 48 -252.5t149 -110.5v743q-92 -19 -144.5 -120 t-52.5 -260z" />
<glyph unicode="&#xa3;" d="M82 620v101h88q-67 151 -67 285q0 168 118.5 259t354.5 91q60 0 122 -7t189 -36v-305h-87l-43 194q-87 53 -181 53q-179 0 -179 -249q0 -134 26 -285h251v-101h-238q14 -89 14 -153q0 -84 -27 -142t-63 -103l600 1v-223h-873v123l71 62q143 120 143 245q0 45 -16.5 91.5 t-39.5 98.5h-163z" />
<glyph unicode="&#xa4;" d="M84 350l102 103q-67 101 -67 223q0 123 67 223l-102 105l104 104l101 -107q105 70 223 70t223 -70l105 105l102 -100l-104 -107q69 -103 69 -223q0 -119 -69 -223l104 -103l-100 -102l-107 104q-97 -69 -223 -69q-120 0 -223 69l-105 -104zM258 676q0 -105 74.5 -179.5 t179.5 -74.5t180.5 74t75.5 180t-75 181t-181 75t-180 -75.5t-74 -180.5z" />
<glyph unicode="&#xa5;" d="M2 1275v66h499v-66l-112 -26l206 -540l212 542l-110 24v66h325v-66l-86 -20l-257 -616h226v-102h-244v-138h244v-102h-244v-207l143 -24v-66h-574v66l142 24v207h-257v102h257v138h-257v102h233l-262 612z" />
<glyph unicode="&#xa6;" horiz-adv-x="451" d="M154 180h142v-622h-142v622zM154 801v620h142v-620h-142z" />
<glyph unicode="&#xa7;" d="M130 560q0 100 58 172t160 102q-94 51 -136.5 118t-42.5 158q0 128 95 204t245 76q103 0 277 -29v-241h-66l-32 110q-29 29 -81.5 47.5t-99.5 18.5q-72 0 -106.5 -29.5t-34.5 -80.5q0 -57 40 -100t127 -80q158 -69 207.5 -99.5t83.5 -69t52 -85.5t18 -110 q0 -110 -59.5 -188t-168.5 -110q97 -60 143 -134t46 -168q0 -142 -97.5 -219.5t-279.5 -77.5q-76 0 -167.5 16.5t-138.5 34.5v261h66l38 -132q39 -39 96 -63t112 -24q81 0 125 37.5t44 95.5q0 59 -41.5 107.5t-123.5 91.5l-96 50q-107 56 -157 102t-77.5 104.5t-27.5 133.5z M327 636q0 -42 20 -76t58 -64t136 -82q66 12 108.5 58.5t42.5 98.5q0 43 -19.5 75t-57 59t-134.5 69q-64 -8 -109 -49.5t-45 -88.5z" />
<glyph unicode="&#xa8;" horiz-adv-x="682" d="M53 1251q0 48 36 83.5t85 35.5t84 -35.5t35 -83.5q0 -50 -35 -85.5t-84 -35.5q-48 0 -84.5 37t-36.5 84zM389 1251q0 50 36.5 84.5t84.5 34.5q49 0 84 -34t35 -85q0 -50 -35 -85.5t-84 -35.5q-48 0 -84.5 35.5t-36.5 85.5z" />
<glyph unicode="&#xa9;" horiz-adv-x="1530" d="M88 670q0 189 93.5 349.5t252 251.5t344.5 91q187 0 347 -92t252.5 -251.5t92.5 -348.5q0 -185 -90.5 -343.5t-251 -252.5t-350.5 -94q-186 0 -346 92t-252 252t-92 346zM178 670q0 -163 80.5 -304.5t219 -222t300.5 -80.5q160 0 299.5 80.5t221 222.5t81.5 304 t-80 302.5t-218.5 223t-303.5 82.5q-161 0 -300 -81t-219.5 -222t-80.5 -305zM387 664q0 208 110.5 316.5t317.5 108.5q118 0 268 -30l4 -207h-69l-19 105q-41 25 -82 38t-98 13q-130 0 -186 -76t-56 -266q0 -165 53.5 -248.5t182.5 -83.5q122 0 195 59l22 119h70l-4 -219 q-127 -39 -283 -39q-199 0 -312.5 111t-113.5 299z" />
<glyph unicode="&#xaa;" horiz-adv-x="614" d="M28 942q0 89 63 134.5t212 48.5l62 2v69q0 50 -27.5 75t-69.5 25q-33 0 -54.5 -9t-47.5 -22l-23 -77h-49v153q106 16 147.5 18.5t81.5 2.5q100 0 158 -47t58 -129v-336l56 -15v-49h-214l-7 43q-26 -26 -69 -40.5t-88 -14.5q-189 0 -189 168zM201 945q0 -89 63 -89 q47 0 101 27v181l-56 -2q-62 -2 -85 -29.5t-23 -87.5z" />
<glyph unicode="&#xab;" d="M106 430v66l330 356h101l-183 -389l183 -389h-101zM516 430v66l330 356h100l-182 -389l182 -389h-100z" />
<glyph unicode="&#xac;" horiz-adv-x="1167" d="M102 608v144h953v-549h-142v405h-811z" />
<glyph unicode="&#xad;" horiz-adv-x="682" d="M75 395v174h532v-174h-532z" />
<glyph unicode="&#xae;" horiz-adv-x="1530" d="M88 670q0 189 93.5 349.5t252 251.5t344.5 91q187 0 347 -92t252.5 -251.5t92.5 -348.5q0 -185 -90.5 -343.5t-251 -252.5t-350.5 -94q-186 0 -346 92t-252 252t-92 346zM178 670q0 -163 80.5 -304.5t219 -222t300.5 -80.5q160 0 299.5 80.5t221 222.5t81.5 304 t-80 302.5t-218.5 223t-303.5 82.5q-161 0 -300 -81t-219.5 -222t-80.5 -305zM428 1026v55h350q156 0 236 -57.5t80 -163.5q0 -77 -45.5 -135t-133.5 -86l207 -289l70 -16v-58h-225l-230 343h-49v-269l94 -16v-58h-346v58l76 16v660zM688 694h23q104 0 152 36t48 128 q0 82 -42 115t-162 33h-19v-312z" />
<glyph unicode="&#xaf;" d="M-17 1392v149h1059v-149h-1059z" />
<glyph unicode="&#xb0;" horiz-adv-x="819" d="M98 1051q0 83 41 155t113.5 114t155.5 42t155 -41.5t114 -113.5t42 -156t-42.5 -156.5t-114.5 -113t-154 -40.5q-130 0 -220 90t-90 220zM217 1049q0 -83 55.5 -141t134.5 -58q81 0 136.5 58t55.5 141q0 86 -55 143.5t-137 57.5q-80 0 -135 -57.5t-55 -143.5z" />
<glyph unicode="&#xb1;" horiz-adv-x="1124" d="M86 0v141h953v-141h-953zM86 608v144h404v405h143v-405h406v-144h-406v-405h-143v405h-404z" />
<glyph unicode="&#xb2;" horiz-adv-x="614" d="M56 536v113q77 83 136 141t99 110t60.5 108t20.5 135q0 66 -29 100.5t-82 34.5t-90 -31l-26 -116h-62v193q113 26 193 26q133 0 203.5 -55t70.5 -155q0 -68 -22 -122t-71.5 -106.5t-155.5 -139.5l-110 -95h375v-141h-510z" />
<glyph unicode="&#xb3;" horiz-adv-x="614" d="M45 752h65l32 -132q45 -26 99 -26q149 0 149 166q0 70 -31.5 107.5t-107.5 42.5l-64 4v83l62 4q54 4 79 37t25 105q0 134 -111 134q-38 0 -82 -28l-26 -119h-62v193q102 26 193 26q270 0 270 -198q0 -76 -39.5 -128.5t-126.5 -66.5q104 -13 153 -62.5t49 -139.5 q0 -109 -77 -170t-220 -61q-119 0 -222 24z" />
<glyph unicode="&#xb4;" horiz-adv-x="682" d="M145 1118v33l166 272h285v-37l-365 -268h-86z" />
<glyph unicode="&#xb5;" horiz-adv-x="1180" d="M35 874v66h383v-652q0 -91 38 -132.5t117 -41.5q95 0 190 79v656l-86 25v66h375v-850l92 -25v-65h-357l-19 92q-63 -63 -115.5 -87.5t-108.5 -24.5q-90 0 -144 52q0 -110 -13 -468h-282v45q24 260 24 494v746z" />
<glyph unicode="&#xb6;" horiz-adv-x="1106" d="M97 952q0 186 113 287.5t321 101.5h488v-73l-83 -23v-1503h-140v1503h-135v-1503h-140v803q-194 7 -309 114.5t-115 292.5z" />
<glyph unicode="&#xb7;" horiz-adv-x="683" d="M175 677q0 69 48 117.5t118 48.5q69 0 117.5 -48t48.5 -118q0 -69 -48 -117.5t-118 -48.5q-69 0 -117.5 48t-48.5 118z" />
<glyph unicode="&#xb8;" horiz-adv-x="682" d="M123 -301q72 -19 135 -19q92 0 92 86q0 44 -31 67.5t-100 28.5l51 195h111l-23 -110q185 -27 185 -168q0 -94 -72 -147.5t-188 -53.5q-90 0 -160 31v90z" />
<glyph unicode="&#xb9;" horiz-adv-x="614" d="M76 535v67l139 14v577l-139 -46v66l227 134h90v-731l140 -14v-67h-457z" />
<glyph unicode="&#xba;" horiz-adv-x="676" d="M57 1067q0 144 71 219t210 75q135 0 207.5 -74t72.5 -220q0 -144 -70.5 -220.5t-213.5 -76.5q-135 0 -206 75.5t-71 221.5zM233 1067q0 -118 24.5 -172.5t77.5 -54.5q54 0 80.5 54.5t26.5 172.5q0 223 -107 223q-53 0 -77.5 -53t-24.5 -170z" />
<glyph unicode="&#xbb;" d="M78 74l182 389l-182 389h100l330 -356v-66l-330 -356h-100zM487 74l183 389l-183 389h101l330 -356v-66l-330 -356h-101z" />
<glyph unicode="&#xbc;" horiz-adv-x="1536" d="M86 535v67l139 14v577l-139 -46v66l227 134h90v-731l140 -14v-67h-457zM263 0l965 1341h120l-962 -1341h-123zM823 157v98l361 552h134v-527h80v-123h-80v-159h-168v159h-327zM932 280h218v333h-3z" />
<glyph unicode="&#xbd;" horiz-adv-x="1536" d="M79 535v67l139 14v577l-139 -46v66l227 134h90v-731l140 -14v-67h-457zM266 0l965 1341h120l-962 -1341h-123zM947 2v113q77 83 136 141t99 110t60.5 108t20.5 135q0 66 -29 100.5t-82 34.5t-90 -31l-26 -116h-62v193q113 26 193 26q133 0 203.5 -55t70.5 -155 q0 -68 -22 -122t-71.5 -106.5t-155.5 -139.5l-110 -95h375v-141h-510z" />
<glyph unicode="&#xbe;" horiz-adv-x="1536" d="M96 752h65l32 -132q45 -26 99 -26q149 0 149 166q0 70 -31.5 107.5t-107.5 42.5l-64 4v83l62 4q54 4 79 37t25 105q0 134 -111 134q-38 0 -82 -28l-26 -119h-62v193q102 26 193 26q270 0 270 -198q0 -76 -39.5 -128.5t-126.5 -66.5q104 -13 153 -62.5t49 -139.5 q0 -109 -77 -170t-220 -61q-119 0 -222 24zM263 0l965 1341h120l-962 -1341h-123zM844 157v98l361 552h134v-527h80v-123h-80v-159h-168v159h-327zM953 280h218v333h-3z" />
<glyph unicode="&#xbf;" d="M124 -69q0 145 77.5 245t219.5 140l87 24l27 202h103l57 -313l-95 -25q-104 -27 -145.5 -91.5t-41.5 -174.5q0 -137 48 -198.5t160 -61.5q84 0 149 42l43 194h89v-295q-166 -43 -324 -43q-454 0 -454 355zM415 795q0 69 48 117.5t118 48.5t117.5 -48t47.5 -118 t-47.5 -118t-117.5 -48q-69 0 -117.5 48t-48.5 118z" />
<glyph unicode="&#xc0;" horiz-adv-x="1479" d="M20 0v73l100 27l477 1252h290l475 -1252l102 -27v-73h-597v73l155 27l-128 347h-515l-123 -347l172 -27v-73h-408zM420 557h436l-215 593zM451 1720v37h285l165 -273v-32h-86z" />
<glyph unicode="&#xc1;" horiz-adv-x="1479" d="M20 0v73l100 27l477 1252h290l475 -1252l102 -27v-73h-597v73l155 27l-128 347h-515l-123 -347l172 -27v-73h-408zM420 557h436l-215 593zM602 1452v33l166 272h285v-37l-365 -268h-86z" />
<glyph unicode="&#xc2;" horiz-adv-x="1479" d="M20 0v73l100 27l477 1252h290l475 -1252l102 -27v-73h-597v73l155 27l-128 347h-515l-123 -347l172 -27v-73h-408zM416 1452v33l218 293h213l217 -293v-33h-76l-248 162l-248 -162h-76zM420 557h436l-215 593z" />
<glyph unicode="&#xc3;" horiz-adv-x="1479" d="M20 0v73l100 27l477 1252h290l475 -1252l102 -27v-73h-597v73l155 27l-128 347h-515l-123 -347l172 -27v-73h-408zM393 1472q11 154 64.5 220.5t150.5 66.5q49 0 88.5 -18t109.5 -68q61 -45 89 -45q19 0 30.5 6.5t19 21.5t19.5 84h105q-11 -152 -63.5 -219t-151.5 -67 q-85 0 -197 88q-57 45 -90 45q-34 0 -47 -22.5t-22 -92.5h-105zM420 557h436l-215 593z" />
<glyph unicode="&#xc4;" horiz-adv-x="1479" d="M20 0v73l100 27l477 1252h290l475 -1252l102 -27v-73h-597v73l155 27l-128 347h-515l-123 -347l172 -27v-73h-408zM420 557h436l-215 593zM448 1585q0 48 36 83.5t85 35.5t84 -35.5t35 -83.5q0 -50 -35 -85.5t-84 -35.5q-48 0 -84.5 37t-36.5 84zM784 1585 q0 50 36.5 84.5t84.5 34.5q49 0 84 -34t35 -85q0 -50 -35 -85.5t-84 -35.5q-48 0 -84.5 35.5t-36.5 85.5z" />
<glyph unicode="&#xc5;" horiz-adv-x="1479" d="M20 0v73l100 27l477 1252h290l475 -1252l102 -27v-73h-597v73l155 27l-128 347h-515l-123 -347l172 -27v-73h-408zM420 557h436l-215 593zM521 1485q0 90 61.5 150.5t149.5 60.5t149.5 -60.5t61.5 -150.5q0 -89 -61.5 -151t-149.5 -62q-87 0 -149 61.5t-62 151.5z M634 1485q0 -39 29.5 -68.5t68.5 -29.5t68.5 29.5t29.5 68.5q0 40 -30 69.5t-68 29.5q-39 0 -68.5 -29.5t-29.5 -69.5z" />
<glyph unicode="&#xc6;" horiz-adv-x="2048" d="M14 0v73l122 27l691 1152l-143 18v71h1174v-341h-91l-32 217q-112 14 -264 14h-200v-492h283l31 148h89v-412h-89l-31 152h-283v-517h245q198 0 278 16l57 248h91l-19 -374h-1139v73l172 27v347h-461l-205 -347l152 -27v-73h-428zM560 557h396v679z" />
<glyph unicode="&#xc7;" horiz-adv-x="1479" d="M100 655q0 344 180.5 522.5t533.5 178.5q233 0 483 -67l6 -322h-90l-28 194q-132 90 -307 90q-232 0 -339 -144.5t-107 -448.5q0 -281 112 -428t326 -147q113 0 197.5 30t132.5 71l32 220h91l-6 -340q-90 -35 -234 -59.5t-268 -24.5q-337 0 -526 179t-189 496zM580 -301 q72 -19 135 -19q92 0 92 86q0 44 -31 67.5t-100 28.5l51 195h111l-23 -110q185 -27 185 -168q0 -94 -72 -147.5t-188 -53.5q-90 0 -160 31v90z" />
<glyph unicode="&#xc8;" horiz-adv-x="1366" d="M35 0v73l172 27v1142l-172 26v73h1142v-341h-91l-32 217q-112 14 -324 14h-208v-492h351l31 148h89v-412h-89l-31 152h-351v-517h253q258 0 338 16l57 248h91l-19 -374h-1207zM430 1720v37h285l165 -273v-32h-86z" />
<glyph unicode="&#xc9;" horiz-adv-x="1366" d="M35 0v73l172 27v1142l-172 26v73h1142v-341h-91l-32 217q-112 14 -324 14h-208v-492h351l31 148h89v-412h-89l-31 152h-351v-517h253q258 0 338 16l57 248h91l-19 -374h-1207zM538 1452v33l166 272h285v-37l-365 -268h-86z" />
<glyph unicode="&#xca;" horiz-adv-x="1366" d="M35 0v73l172 27v1142l-172 26v73h1142v-341h-91l-32 217q-112 14 -324 14h-208v-492h351l31 148h89v-412h-89l-31 152h-351v-517h253q258 0 338 16l57 248h91l-19 -374h-1207zM358 1452v33l218 293h213l217 -293v-33h-76l-248 162l-248 -162h-76z" />
<glyph unicode="&#xcb;" horiz-adv-x="1366" d="M35 0v73l172 27v1142l-172 26v73h1142v-341h-91l-32 217q-112 14 -324 14h-208v-492h351l31 148h89v-412h-89l-31 152h-351v-517h253q258 0 338 16l57 248h91l-19 -374h-1207zM395 1585q0 48 36 83.5t85 35.5t84 -35.5t35 -83.5q0 -50 -35 -85.5t-84 -35.5 q-48 0 -84.5 37t-36.5 84zM731 1585q0 50 36.5 84.5t84.5 34.5q49 0 84 -34t35 -85q0 -50 -35 -85.5t-84 -35.5q-48 0 -84.5 35.5t-36.5 85.5z" />
<glyph unicode="&#xcc;" horiz-adv-x="797" d="M69 0v74l172 26v1141l-172 27v73h659v-73l-172 -27v-1141l172 -26v-74h-659zM139 1720v37h285l165 -273v-32h-86z" />
<glyph unicode="&#xcd;" horiz-adv-x="797" d="M69 0v74l172 26v1141l-172 27v73h659v-73l-172 -27v-1141l172 -26v-74h-659zM238 1452v33l166 272h285v-37l-365 -268h-86z" />
<glyph unicode="&#xce;" horiz-adv-x="797" d="M69 0v74l172 26v1141l-172 27v73h659v-73l-172 -27v-1141l172 -26v-74h-659zM71 1452v33l218 293h213l217 -293v-33h-76l-248 162l-248 -162h-76z" />
<glyph unicode="&#xcf;" horiz-adv-x="797" d="M69 0v74l172 26v1141l-172 27v73h659v-73l-172 -27v-1141l172 -26v-74h-659zM108 1585q0 48 36 83.5t85 35.5t84 -35.5t35 -83.5q0 -50 -35 -85.5t-84 -35.5q-48 0 -84.5 37t-36.5 84zM444 1585q0 50 36.5 84.5t84.5 34.5q49 0 84 -34t35 -85q0 -50 -35 -85.5t-84 -35.5 q-48 0 -84.5 35.5t-36.5 85.5z" />
<glyph unicode="&#xd0;" horiz-adv-x="1479" d="M51 609v122h179v511l-172 26v73h637q361 0 533.5 -163.5t172.5 -499.5q0 -345 -165 -513.5t-499 -168.5l-449 4h-208v73l150 27v509h-179zM544 114q96 -8 174 -8q130 0 205.5 56t110.5 175.5t35 332.5q0 290 -106 425.5t-345 135.5h-74v-500h256v-122h-256v-495z" />
<glyph unicode="&#xd1;" horiz-adv-x="1479" d="M39 0v73l172 27v1142l-172 26v73h459l657 -857v758l-180 26v73h477v-73l-172 -26v-1242h-117l-827 1078v-978l180 -27v-73h-477zM413 1472q11 154 64.5 220.5t150.5 66.5q49 0 88.5 -18t109.5 -68q61 -45 89 -45q19 0 30.5 6.5t19 21.5t19.5 84h105q-11 -152 -63.5 -219 t-151.5 -67q-85 0 -197 88q-57 45 -90 45q-34 0 -47 -22.5t-22 -92.5h-105z" />
<glyph unicode="&#xd2;" horiz-adv-x="1593" d="M100 672q0 684 697 684q344 0 520 -173.5t176 -510.5q0 -341 -178 -516.5t-518 -175.5q-339 0 -518 175t-179 517zM432 672q0 -319 87.5 -455.5t277.5 -136.5q189 0 276.5 137t87.5 455q0 317 -87.5 450t-276.5 133q-190 0 -277.5 -133t-87.5 -450zM491 1720v37h285 l165 -273v-32h-86z" />
<glyph unicode="&#xd3;" horiz-adv-x="1593" d="M100 672q0 684 697 684q344 0 520 -173.5t176 -510.5q0 -341 -178 -516.5t-518 -175.5q-339 0 -518 175t-179 517zM432 672q0 -319 87.5 -455.5t277.5 -136.5q189 0 276.5 137t87.5 455q0 317 -87.5 450t-276.5 133q-190 0 -277.5 -133t-87.5 -450zM695 1452v33l166 272 h285v-37l-365 -268h-86z" />
<glyph unicode="&#xd4;" horiz-adv-x="1593" d="M100 672q0 684 697 684q344 0 520 -173.5t176 -510.5q0 -341 -178 -516.5t-518 -175.5q-339 0 -518 175t-179 517zM432 672q0 -319 87.5 -455.5t277.5 -136.5q189 0 276.5 137t87.5 455q0 317 -87.5 450t-276.5 133q-190 0 -277.5 -133t-87.5 -450zM473 1452v33l218 293 h213l217 -293v-33h-76l-248 162l-248 -162h-76z" />
<glyph unicode="&#xd5;" horiz-adv-x="1593" d="M100 672q0 684 697 684q344 0 520 -173.5t176 -510.5q0 -341 -178 -516.5t-518 -175.5q-339 0 -518 175t-179 517zM432 672q0 -319 87.5 -455.5t277.5 -136.5q189 0 276.5 137t87.5 455q0 317 -87.5 450t-276.5 133q-190 0 -277.5 -133t-87.5 -450zM457 1472 q11 154 64.5 220.5t150.5 66.5q49 0 88.5 -18t109.5 -68q61 -45 89 -45q19 0 30.5 6.5t19 21.5t19.5 84h105q-11 -152 -63.5 -219t-151.5 -67q-85 0 -197 88q-57 45 -90 45q-34 0 -47 -22.5t-22 -92.5h-105z" />
<glyph unicode="&#xd6;" horiz-adv-x="1593" d="M100 672q0 684 697 684q344 0 520 -173.5t176 -510.5q0 -341 -178 -516.5t-518 -175.5q-339 0 -518 175t-179 517zM432 672q0 -319 87.5 -455.5t277.5 -136.5q189 0 276.5 137t87.5 455q0 317 -87.5 450t-276.5 133q-190 0 -277.5 -133t-87.5 -450zM514 1585 q0 48 36 83.5t85 35.5t84 -35.5t35 -83.5q0 -50 -35 -85.5t-84 -35.5q-48 0 -84.5 37t-36.5 84zM850 1585q0 50 36.5 84.5t84.5 34.5q49 0 84 -34t35 -85q0 -50 -35 -85.5t-84 -35.5q-48 0 -84.5 35.5t-36.5 85.5z" />
<glyph unicode="&#xd7;" horiz-adv-x="1167" d="M152 356l324 326l-324 322l104 104l322 -324l326 324l101 -102l-324 -324l324 -326l-101 -102l-326 324l-325 -324z" />
<glyph unicode="&#xd8;" horiz-adv-x="1593" d="M100 672q0 684 697 684q252 0 416 -95l108 130h145l-162 -197q189 -173 189 -522q0 -341 -178 -516.5t-518 -175.5q-248 0 -414 95l-107 -130h-149l164 199q-191 175 -191 528zM432 672q0 -199 31 -319l621 751q-86 151 -287 151q-190 0 -277.5 -133t-87.5 -450zM511 231 q86 -151 286 -151q189 0 276.5 137t87.5 455q0 194 -31 311z" />
<glyph unicode="&#xd9;" horiz-adv-x="1479" d="M51 1268v73h639v-73l-172 -26v-787q0 -161 81.5 -247t238.5 -86q150 0 232 84t82 247v789l-180 26v73h456v-73l-152 -26v-781q0 -232 -134 -356t-383 -124q-269 0 -412.5 125.5t-143.5 362.5v773zM485 1720v37h285l165 -273v-32h-86z" />
<glyph unicode="&#xda;" horiz-adv-x="1479" d="M51 1268v73h639v-73l-172 -26v-787q0 -161 81.5 -247t238.5 -86q150 0 232 84t82 247v789l-180 26v73h456v-73l-152 -26v-781q0 -232 -134 -356t-383 -124q-269 0 -412.5 125.5t-143.5 362.5v773zM706 1452v33l166 272h285v-37l-365 -268h-86z" />
<glyph unicode="&#xdb;" horiz-adv-x="1479" d="M51 1268v73h639v-73l-172 -26v-787q0 -161 81.5 -247t238.5 -86q150 0 232 84t82 247v789l-180 26v73h456v-73l-152 -26v-781q0 -232 -134 -356t-383 -124q-269 0 -412.5 125.5t-143.5 362.5v773zM478 1452v33l218 293h213l217 -293v-33h-76l-248 162l-248 -162h-76z" />
<glyph unicode="&#xdc;" horiz-adv-x="1479" d="M51 1268v73h639v-73l-172 -26v-787q0 -161 81.5 -247t238.5 -86q150 0 232 84t82 247v789l-180 26v73h456v-73l-152 -26v-781q0 -232 -134 -356t-383 -124q-269 0 -412.5 125.5t-143.5 362.5v773zM508 1585q0 48 36 83.5t85 35.5t84 -35.5t35 -83.5q0 -50 -35 -85.5 t-84 -35.5q-48 0 -84.5 37t-36.5 84zM844 1585q0 50 36.5 84.5t84.5 34.5q49 0 84 -34t35 -85q0 -50 -35 -85.5t-84 -35.5q-48 0 -84.5 35.5t-36.5 85.5z" />
<glyph unicode="&#xdd;" horiz-adv-x="1479" d="M36 1268v73h690v-73l-180 -26l306 -562l296 562l-164 26v73h456v-73l-142 -26l-387 -714v-428l213 -27v-73h-742v73l213 27v422l-408 720zM643 1452v33l166 272h285v-37l-365 -268h-86z" />
<glyph unicode="&#xde;" horiz-adv-x="1251" d="M43 0v74l172 26v1141l-172 27v73h659v-73l-172 -27v-158h56q285 0 426 -95.5t141 -299.5q0 -420 -490 -420h-133v-168l172 -26v-74h-659zM530 378h36q139 0 202 70t63 238q0 160 -59.5 223.5t-209.5 63.5h-32v-595z" />
<glyph unicode="&#xdf;" horiz-adv-x="1139" d="M43 0v66l82 24v862q0 251 107 370.5t326 119.5q425 0 437 -457q-103 0 -156 -37t-53 -107q0 -56 27.5 -108.5t99.5 -125.5q88 -89 117 -130.5t43.5 -91.5t14.5 -108q0 -138 -93 -217.5t-255 -79.5q-68 0 -141.5 13t-102.5 28v248h66l38 -142q43 -54 111 -54h10 q49 2 81 43.5t32 99.5t-31 109.5t-105 122.5q-42 41 -84 100t-59.5 116t-17.5 121q0 90 45 159.5t124 101.5q-6 149 -41 222t-113 73q-77 0 -107.5 -80.5t-30.5 -308.5v-952h-371z" />
<glyph unicode="&#xe0;" d="M66 260q0 106 43 169.5t124 94t255 34.5l122 3v137q0 170 -139 170q-84 0 -188 -52l-38 -117h-66v227q151 23 222 29t145 6q353 0 353 -260v-611l94 -24v-66h-346l-22 72q-78 -53 -141 -72.5t-127 -19.5q-291 0 -291 280zM258 1386v37h285l165 -273v-32h-86zM354 266 q0 -85 30 -125t78 -40q68 0 148 35v336l-84 -3q-97 -4 -134.5 -51t-37.5 -152z" />
<glyph unicode="&#xe1;" d="M66 260q0 106 43 169.5t124 94t255 34.5l122 3v137q0 170 -139 170q-84 0 -188 -52l-38 -117h-66v227q151 23 222 29t145 6q353 0 353 -260v-611l94 -24v-66h-346l-22 72q-78 -53 -141 -72.5t-127 -19.5q-291 0 -291 280zM354 266q0 -85 30 -125t78 -40q68 0 148 35v336 l-84 -3q-97 -4 -134.5 -51t-37.5 -152zM363 1118v33l166 272h285v-37l-365 -268h-86z" />
<glyph unicode="&#xe2;" d="M66 260q0 106 43 169.5t124 94t255 34.5l122 3v137q0 170 -139 170q-84 0 -188 -52l-38 -117h-66v227q151 23 222 29t145 6q353 0 353 -260v-611l94 -24v-66h-346l-22 72q-78 -53 -141 -72.5t-127 -19.5q-291 0 -291 280zM186 1118v33l218 293h213l217 -293v-33h-76 l-248 162l-248 -162h-76zM354 266q0 -85 30 -125t78 -40q68 0 148 35v336l-84 -3q-97 -4 -134.5 -51t-37.5 -152z" />
<glyph unicode="&#xe3;" d="M66 260q0 106 43 169.5t124 94t255 34.5l122 3v137q0 170 -139 170q-84 0 -188 -52l-38 -117h-66v227q151 23 222 29t145 6q353 0 353 -260v-611l94 -24v-66h-346l-22 72q-78 -53 -141 -72.5t-127 -19.5q-291 0 -291 280zM170 1140q11 154 64.5 220.5t150.5 66.5 q49 0 88.5 -18t109.5 -68q61 -45 89 -45q19 0 30.5 6.5t19 21.5t19.5 84h105q-11 -152 -63.5 -219t-151.5 -67q-85 0 -197 88q-57 45 -90 45q-34 0 -47 -22.5t-22 -92.5h-105zM354 266q0 -85 30 -125t78 -40q68 0 148 35v336l-84 -3q-97 -4 -134.5 -51t-37.5 -152z" />
<glyph unicode="&#xe4;" d="M66 260q0 106 43 169.5t124 94t255 34.5l122 3v137q0 170 -139 170q-84 0 -188 -52l-38 -117h-66v227q151 23 222 29t145 6q353 0 353 -260v-611l94 -24v-66h-346l-22 72q-78 -53 -141 -72.5t-127 -19.5q-291 0 -291 280zM225 1251q0 48 36 83.5t85 35.5t84 -35.5 t35 -83.5q0 -50 -35 -85.5t-84 -35.5q-48 0 -84.5 37t-36.5 84zM354 266q0 -85 30 -125t78 -40q68 0 148 35v336l-84 -3q-97 -4 -134.5 -51t-37.5 -152zM561 1251q0 50 36.5 84.5t84.5 34.5q49 0 84 -34t35 -85q0 -50 -35 -85.5t-84 -35.5q-48 0 -84.5 35.5t-36.5 85.5z" />
<glyph unicode="&#xe5;" d="M66 260q0 106 43 169.5t124 94t255 34.5l122 3v137q0 170 -139 170q-84 0 -188 -52l-38 -117h-66v227q151 23 222 29t145 6q353 0 353 -260v-611l94 -24v-66h-346l-22 72q-78 -53 -141 -72.5t-127 -19.5q-291 0 -291 280zM307 1272q0 90 61.5 150.5t149.5 60.5 t149.5 -60.5t61.5 -150.5q0 -89 -61.5 -151t-149.5 -62q-87 0 -149 61.5t-62 151.5zM354 266q0 -85 30 -125t78 -40q68 0 148 35v336l-84 -3q-97 -4 -134.5 -51t-37.5 -152zM420 1272q0 -39 29.5 -68.5t68.5 -29.5t68.5 29.5t29.5 68.5q0 40 -30 69.5t-68 29.5 q-39 0 -68.5 -29.5t-29.5 -69.5z" />
<glyph unicode="&#xe6;" horiz-adv-x="1479" d="M66 260q0 75 24 129t70.5 89.5t123.5 55t219 24.5l99 3v135q0 89 -34 130.5t-105 41.5q-92 0 -180 -51l-39 -118h-65v226q175 36 335 36q158 0 232 -70q93 74 242 74q205 0 309 -106.5t104 -314.5v-82h-523v-53q2 -116 30 -177t86 -94t155 -33q46 0 108.5 9t102.5 20v-77 q-52 -34 -132 -55t-158 -21q-136 0 -221.5 31.5t-138.5 92.5q-158 -125 -355 -125q-144 0 -216.5 68.5t-72.5 211.5zM354 266q0 -85 32 -125t80 -40q56 0 103 18.5t92 44.5q-26 32 -42.5 102.5t-16.5 153.5v52l-74 -3q-71 -4 -105.5 -24t-51.5 -63t-17 -116zM879 567h228 q0 167 -23.5 231t-79.5 64q-64 0 -94.5 -65.5t-30.5 -229.5z" />
<glyph unicode="&#xe7;" horiz-adv-x="909" d="M70 472q0 155 56.5 265.5t161.5 169t244 58.5q140 0 305 -35v-278h-72l-42 165q-34 25 -67 35t-87 10q-59 0 -107 -47t-74.5 -132.5t-26.5 -204.5q0 -201 62.5 -287t198.5 -86q138 0 236 29v-77q-45 -36 -124.5 -56t-163.5 -20q-251 0 -375.5 121t-124.5 370zM280 -301 q72 -19 135 -19q92 0 92 86q0 44 -31 67.5t-100 28.5l51 195h111l-23 -110q185 -27 185 -168q0 -94 -72 -147.5t-188 -53.5q-90 0 -160 31v90z" />
<glyph unicode="&#xe8;" horiz-adv-x="909" d="M70 475q0 246 105.5 367t318.5 121q191 0 276.5 -102t85.5 -317v-82h-493v-16q0 -149 24 -212t78 -96t148 -33q88 0 222 29v-77q-55 -33 -142.5 -54.5t-170.5 -21.5q-231 0 -341.5 120.5t-110.5 373.5zM207 1386v37h285l165 -273v-32h-86zM364 567h218q0 134 -9 188.5 t-30.5 80.5t-59.5 26q-60 0 -89.5 -65t-29.5 -230z" />
<glyph unicode="&#xe9;" horiz-adv-x="909" d="M70 475q0 246 105.5 367t318.5 121q191 0 276.5 -102t85.5 -317v-82h-493v-16q0 -149 24 -212t78 -96t148 -33q88 0 222 29v-77q-55 -33 -142.5 -54.5t-170.5 -21.5q-231 0 -341.5 120.5t-110.5 373.5zM358 1118v33l166 272h285v-37l-365 -268h-86zM364 567h218 q0 134 -9 188.5t-30.5 80.5t-59.5 26q-60 0 -89.5 -65t-29.5 -230z" />
<glyph unicode="&#xea;" horiz-adv-x="909" d="M70 475q0 246 105.5 367t318.5 121q191 0 276.5 -102t85.5 -317v-82h-493v-16q0 -149 24 -212t78 -96t148 -33q88 0 222 29v-77q-55 -33 -142.5 -54.5t-170.5 -21.5q-231 0 -341.5 120.5t-110.5 373.5zM154 1118v33l218 293h213l217 -293v-33h-76l-248 162l-248 -162h-76 zM364 567h218q0 134 -9 188.5t-30.5 80.5t-59.5 26q-60 0 -89.5 -65t-29.5 -230z" />
<glyph unicode="&#xeb;" horiz-adv-x="909" d="M70 475q0 246 105.5 367t318.5 121q191 0 276.5 -102t85.5 -317v-82h-493v-16q0 -149 24 -212t78 -96t148 -33q88 0 222 29v-77q-55 -33 -142.5 -54.5t-170.5 -21.5q-231 0 -341.5 120.5t-110.5 373.5zM185 1251q0 48 36 83.5t85 35.5t84 -35.5t35 -83.5q0 -50 -35 -85.5 t-84 -35.5q-48 0 -84.5 37t-36.5 84zM364 567h218q0 134 -9 188.5t-30.5 80.5t-59.5 26q-60 0 -89.5 -65t-29.5 -230zM521 1251q0 50 36.5 84.5t84.5 34.5q49 0 84 -34t35 -85q0 -50 -35 -85.5t-84 -35.5q-48 0 -84.5 35.5t-36.5 85.5z" />
<glyph unicode="&#xec;" horiz-adv-x="569" d="M-12 1386v37h285l165 -273v-32h-86zM45 0v66l102 24v760l-96 24v66h385v-850l103 -24v-66h-494z" />
<glyph unicode="&#xed;" horiz-adv-x="569" d="M45 0v66l102 24v760l-96 24v66h385v-850l103 -24v-66h-494zM143 1118v33l166 272h285v-37l-365 -268h-86z" />
<glyph unicode="&#xee;" horiz-adv-x="569" d="M-36 1118v33l218 293h213l217 -293v-33h-76l-248 162l-248 -162h-76zM45 0v66l102 24v760l-96 24v66h385v-850l103 -24v-66h-494z" />
<glyph unicode="&#xef;" horiz-adv-x="569" d="M3 1251q0 48 36 83.5t85 35.5t84 -35.5t35 -83.5q0 -50 -35 -85.5t-84 -35.5q-48 0 -84.5 37t-36.5 84zM45 0v66l102 24v760l-96 24v66h385v-850l103 -24v-66h-494zM339 1251q0 50 36.5 84.5t84.5 34.5q49 0 84 -34t35 -85q0 -50 -35 -85.5t-84 -35.5q-48 0 -84.5 35.5 t-36.5 85.5z" />
<glyph unicode="&#xf0;" d="M78 444q0 223 108 341t328 118q66 0 103 -8q-33 138 -133 244l-255 -148v126l173 100q-89 66 -184 96v108q172 -39 316 -127l285 165v-124l-191 -111q311 -258 318 -745v-35q0 -464 -440 -464q-212 0 -320 119t-108 345zM371 445q0 -200 32.5 -282.5t104.5 -82.5 q75 0 110 89.5t35 275.5q0 187 -35 273t-110 86q-73 0 -105 -82t-32 -277z" />
<glyph unicode="&#xf1;" horiz-adv-x="1139" d="M55 0v66l92 24v760l-92 24v66h365l14 -82l68 35q140 72 252 72q260 0 260 -277v-598l94 -24v-66h-467v66l84 24v559q0 84 -35.5 131t-101.5 47q-76 0 -152 -34v-703l86 -24v-66h-467zM246 1140q11 154 64.5 220.5t150.5 66.5q49 0 88.5 -18t109.5 -68q61 -45 89 -45 q19 0 30.5 6.5t19 21.5t19.5 84h105q-11 -152 -63.5 -219t-151.5 -67q-85 0 -197 88q-57 45 -90 45q-34 0 -47 -22.5t-22 -92.5h-105z" />
<glyph unicode="&#xf2;" d="M78 475q0 249 107.5 369.5t328.5 120.5q223 0 327.5 -124.5t104.5 -365.5q0 -253 -108.5 -374t-331.5 -121q-216 0 -322 122.5t-106 372.5zM227 1386v37h285l165 -273v-32h-86zM371 475q0 -231 30.5 -313t106.5 -82q79 0 112 86.5t33 308.5q0 220 -32.5 304.5 t-112.5 84.5q-77 0 -107 -81t-30 -308z" />
<glyph unicode="&#xf3;" d="M78 475q0 249 107.5 369.5t328.5 120.5q223 0 327.5 -124.5t104.5 -365.5q0 -253 -108.5 -374t-331.5 -121q-216 0 -322 122.5t-106 372.5zM371 475q0 -231 30.5 -313t106.5 -82q79 0 112 86.5t33 308.5q0 220 -32.5 304.5t-112.5 84.5q-77 0 -107 -81t-30 -308z M375 1118v33l166 272h285v-37l-365 -268h-86z" />
<glyph unicode="&#xf4;" d="M78 475q0 249 107.5 369.5t328.5 120.5q223 0 327.5 -124.5t104.5 -365.5q0 -253 -108.5 -374t-331.5 -121q-216 0 -322 122.5t-106 372.5zM186 1118v33l218 293h213l217 -293v-33h-76l-248 162l-248 -162h-76zM371 475q0 -231 30.5 -313t106.5 -82q79 0 112 86.5 t33 308.5q0 220 -32.5 304.5t-112.5 84.5q-77 0 -107 -81t-30 -308z" />
<glyph unicode="&#xf5;" d="M78 475q0 249 107.5 369.5t328.5 120.5q223 0 327.5 -124.5t104.5 -365.5q0 -253 -108.5 -374t-331.5 -121q-216 0 -322 122.5t-106 372.5zM168 1140q11 154 64.5 220.5t150.5 66.5q49 0 88.5 -18t109.5 -68q61 -45 89 -45q19 0 30.5 6.5t19 21.5t19.5 84h105 q-11 -152 -63.5 -219t-151.5 -67q-85 0 -197 88q-57 45 -90 45q-34 0 -47 -22.5t-22 -92.5h-105zM371 475q0 -231 30.5 -313t106.5 -82q79 0 112 86.5t33 308.5q0 220 -32.5 304.5t-112.5 84.5q-77 0 -107 -81t-30 -308z" />
<glyph unicode="&#xf6;" d="M78 475q0 249 107.5 369.5t328.5 120.5q223 0 327.5 -124.5t104.5 -365.5q0 -253 -108.5 -374t-331.5 -121q-216 0 -322 122.5t-106 372.5zM223 1251q0 48 36 83.5t85 35.5t84 -35.5t35 -83.5q0 -50 -35 -85.5t-84 -35.5q-48 0 -84.5 37t-36.5 84zM371 475 q0 -231 30.5 -313t106.5 -82q79 0 112 86.5t33 308.5q0 220 -32.5 304.5t-112.5 84.5q-77 0 -107 -81t-30 -308zM559 1251q0 50 36.5 84.5t84.5 34.5q49 0 84 -34t35 -85q0 -50 -35 -85.5t-84 -35.5q-48 0 -84.5 35.5t-36.5 85.5z" />
<glyph unicode="&#xf7;" horiz-adv-x="1124" d="M86 608v143h952v-143h-952zM427 317q0 56 39 95t95 39t95 -39t39 -95t-39 -95t-95 -39t-95 39t-39 95zM427 1043q0 56 39 95t95 39t95 -39t39 -95t-39 -95t-95 -39t-95 39t-39 95z" />
<glyph unicode="&#xf8;" d="M70 -84l122 178q-114 122 -114 381q0 249 107.5 369.5t328.5 120.5q144 0 239 -53l75 110h124l-118 -173q112 -122 112 -374q0 -253 -108.5 -374t-331.5 -121q-137 0 -231 50l-77 -114h-128zM371 414l2 -56l260 380q-15 63 -44.5 94.5t-80.5 31.5q-77 0 -107 -81 t-30 -308v-61zM390 199q14 -60 42 -89.5t76 -29.5q79 0 112 86.5t33 308.5l-2 106z" />
<glyph unicode="&#xf9;" horiz-adv-x="1139" d="M31 874v66h383v-649q0 -84 35.5 -131t101.5 -47q76 0 152 34v703l-86 24v66h375v-850l92 -24v-66h-365l-14 82l-68 -35q-140 -72 -252 -72q-260 0 -260 277v598zM267 1386v37h285l165 -273v-32h-86z" />
<glyph unicode="&#xfa;" horiz-adv-x="1139" d="M31 874v66h383v-649q0 -84 35.5 -131t101.5 -47q76 0 152 34v703l-86 24v66h375v-850l92 -24v-66h-365l-14 82l-68 -35q-140 -72 -252 -72q-260 0 -260 277v598zM416 1118v33l166 272h285v-37l-365 -268h-86z" />
<glyph unicode="&#xfb;" horiz-adv-x="1139" d="M31 874v66h383v-649q0 -84 35.5 -131t101.5 -47q76 0 152 34v703l-86 24v66h375v-850l92 -24v-66h-365l-14 82l-68 -35q-140 -72 -252 -72q-260 0 -260 277v598zM239 1118v33l218 293h213l217 -293v-33h-76l-248 162l-248 -162h-76z" />
<glyph unicode="&#xfc;" horiz-adv-x="1139" d="M31 874v66h383v-649q0 -84 35.5 -131t101.5 -47q76 0 152 34v703l-86 24v66h375v-850l92 -24v-66h-365l-14 82l-68 -35q-140 -72 -252 -72q-260 0 -260 277v598zM278 1251q0 48 36 83.5t85 35.5t84 -35.5t35 -83.5q0 -50 -35 -85.5t-84 -35.5q-48 0 -84.5 37t-36.5 84z M614 1251q0 50 36.5 84.5t84.5 34.5q49 0 84 -34t35 -85q0 -50 -35 -85.5t-84 -35.5q-48 0 -84.5 35.5t-36.5 85.5z" />
<glyph unicode="&#xfd;" d="M20 874v66h481v-66l-112 -26l221 -520l197 522l-110 24v66h307v-66l-68 -20l-371 -913q-64 -163 -112 -236.5t-106.5 -110t-133.5 -36.5q-81 0 -165 19v242h60l43 -126q29 -23 74 -23q38 0 67 18t54.5 52t48.5 83.5t67 147.5l-376 879zM412 1118v33l166 272h285v-37 l-365 -268h-86z" />
<glyph unicode="&#xfe;" horiz-adv-x="1139" d="M14 1356v65h404v-345q0 -99 -9 -184q60 41 121 57t128 16q208 0 312.5 -119.5t104.5 -367.5q0 -240 -110 -369t-322 -129q-123 0 -231 27q6 -66 6 -148v-205l138 -24v-66h-529v66l102 24v1679zM418 103q81 -21 169 -21q90 0 142.5 98.5t52.5 289.5q0 185 -49 284.5 t-138 99.5q-91 0 -177 -43v-708z" />
<glyph unicode="&#xff;" d="M20 874v66h481v-66l-112 -26l221 -520l197 522l-110 24v66h307v-66l-68 -20l-371 -913q-64 -163 -112 -236.5t-106.5 -110t-133.5 -36.5q-81 0 -165 19v242h60l43 -126q29 -23 74 -23q38 0 67 18t54.5 52t48.5 83.5t67 147.5l-376 879zM250 1251q0 48 36 83.5t85 35.5 t84 -35.5t35 -83.5q0 -50 -35 -85.5t-84 -35.5q-48 0 -84.5 37t-36.5 84zM586 1251q0 50 36.5 84.5t84.5 34.5q49 0 84 -34t35 -85q0 -50 -35 -85.5t-84 -35.5q-48 0 -84.5 35.5t-36.5 85.5z" />
<glyph unicode="&#x152;" horiz-adv-x="2048" d="M113 675q0 340 172.5 507t524.5 167q84 0 196 -8h853v-341h-91l-32 217q-112 14 -336 14h-108v-492h263l31 148h89v-412h-89l-31 152h-263v-517h153q97 0 205 4.5t145 11.5l57 248h91l-19 -374h-935q-119 -7 -179 -7q-342 0 -519.5 171.5t-177.5 510.5zM445 675 q0 -316 87 -449t278 -133q110 0 167 19v1117q-61 19 -167 19q-193 0 -279 -131t-86 -442z" />
<glyph unicode="&#x153;" horiz-adv-x="1479" d="M48 475q0 252 106 371t325 119q188 0 284 -122q96 120 283 120q201 0 293.5 -104.5t92.5 -314.5v-82h-523v-16q0 -145 26 -209t83 -98t157 -34q61 0 112.5 9t105.5 20v-77q-123 -76 -269 -76q-234 0 -351 134q-96 -135 -302 -135q-215 0 -319 122.5t-104 372.5zM341 475 q0 -178 12.5 -252t40.5 -108.5t79 -34.5q77 0 108.5 80t31.5 315q0 231 -31.5 310t-108.5 79q-52 0 -80 -34.5t-40 -108.5t-12 -246zM910 567h228q0 143 -9 194t-31 76t-63 25q-65 0 -95 -64.5t-30 -230.5z" />
<glyph unicode="&#x178;" horiz-adv-x="1479" d="M36 1268v73h690v-73l-180 -26l306 -562l296 562l-164 26v73h456v-73l-142 -26l-387 -714v-428l213 -27v-73h-742v73l213 27v422l-408 720zM493 1585q0 48 36 83.5t85 35.5t84 -35.5t35 -83.5q0 -50 -35 -85.5t-84 -35.5q-48 0 -84.5 37t-36.5 84zM829 1585 q0 50 36.5 84.5t84.5 34.5q49 0 84 -34t35 -85q0 -50 -35 -85.5t-84 -35.5q-48 0 -84.5 35.5t-36.5 85.5z" />
<glyph unicode="&#x2c6;" horiz-adv-x="682" d="M18 1118v33l218 293h213l217 -293v-33h-76l-248 162l-248 -162h-76z" />
<glyph unicode="&#x2da;" horiz-adv-x="682" d="M131 1272q0 90 61.5 150.5t149.5 60.5t149.5 -60.5t61.5 -150.5q0 -89 -61.5 -151t-149.5 -62q-87 0 -149 61.5t-62 151.5zM244 1272q0 -39 29.5 -68.5t68.5 -29.5t68.5 29.5t29.5 68.5q0 40 -30 69.5t-68 29.5q-39 0 -68.5 -29.5t-29.5 -69.5z" />
<glyph unicode="&#x2dc;" horiz-adv-x="682" d="M4 1138q11 154 64.5 220.5t150.5 66.5q49 0 88.5 -18t109.5 -68q61 -45 89 -45q19 0 30.5 6.5t19 21.5t19.5 84h105q-11 -152 -63.5 -219t-151.5 -67q-85 0 -197 88q-57 45 -90 45q-34 0 -47 -22.5t-22 -92.5h-105z" />
<glyph unicode="&#x400;" horiz-adv-x="1366" d="M35 0v73l172 27v1142l-172 26v73h1142v-341h-91l-32 217q-112 14 -324 14h-208v-492h351l31 148h89v-412h-89l-31 152h-351v-517h253q258 0 338 16l57 248h91l-19 -374h-1207zM430 1720v37h285l165 -273v-32h-86z" />
<glyph unicode="&#x401;" horiz-adv-x="1366" d="M35 0v73l172 27v1142l-172 26v73h1142v-341h-91l-32 217q-112 14 -324 14h-208v-492h351l31 148h89v-412h-89l-31 152h-351v-517h253q258 0 338 16l57 248h91l-19 -374h-1207zM395 1585q0 48 36 83.5t85 35.5t84 -35.5t35 -83.5q0 -50 -35 -85.5t-84 -35.5 q-48 0 -84.5 37t-36.5 84zM731 1585q0 50 36.5 84.5t84.5 34.5q49 0 84 -34t35 -85q0 -50 -35 -85.5t-84 -35.5q-48 0 -84.5 35.5t-36.5 85.5z" />
<glyph unicode="&#x402;" horiz-adv-x="1638" d="M32 966v375h1263v-355h-92l-27 229q-83 18 -328 18h-49v-381q143 40 266 40q208 0 308.5 -101t100.5 -304v-485q0 -217 -120 -334.5t-342 -117.5q-70 0 -148 10.5t-115 21.5v284h89l30 -159q19 -23 54 -37t77 -14q69 0 114.5 48t45.5 142v690q0 104 -54 157t-154 53 q-71 0 -152 -21v-625l163 -27v-73h-652v73l173 27v1135h-51q-192 0 -282 -20l-27 -249h-91z" />
<glyph unicode="&#x403;" horiz-adv-x="1303" d="M37 1268v73h1137l18 -405h-90l-62 279q-100 20 -313 20h-203v-1136l207 -26v-73h-693v73l171 26v1142zM519 1452v33l166 272h285v-37l-365 -268h-86z" />
<glyph unicode="&#x404;" horiz-adv-x="1389" d="M100 655q0 345 171.5 523t506.5 178q224 0 459 -67l6 -322h-90l-26 194q-121 90 -283 90q-198 0 -297.5 -123.5t-112.5 -381.5h498v-112h-500q4 -271 108 -411t297 -140q105 0 182.5 30t122.5 71l30 220h91l-6 -340q-85 -35 -221.5 -59.5t-255.5 -24.5q-320 0 -500 178.5 t-180 496.5z" />
<glyph unicode="&#x405;" horiz-adv-x="1139" d="M109 51v360h88l45 -215q42 -49 127 -82t176 -33q287 0 287 236q0 74 -54.5 125t-171.5 91q-172 57 -247.5 92.5t-127.5 83.5t-83 116.5t-31 168.5q0 177 120.5 269.5t352.5 92.5q168 0 372 -43v-319h-89l-45 184q-102 74 -238 74q-123 0 -189 -45.5t-66 -139.5 q0 -67 55 -114.5t172 -84.5q229 -75 314.5 -130.5t130.5 -137.5t45 -193q0 -427 -503 -427q-115 0 -234.5 19.5t-205.5 51.5z" />
<glyph unicode="&#x406;" horiz-adv-x="797" d="M69 0v74l172 26v1141l-172 27v73h659v-73l-172 -27v-1141l172 -26v-74h-659z" />
<glyph unicode="&#x407;" horiz-adv-x="797" d="M69 0v74l172 26v1141l-172 27v73h659v-73l-172 -27v-1141l172 -26v-74h-659zM108 1585q0 48 36 83.5t85 35.5t84 -35.5t35 -83.5q0 -50 -35 -85.5t-84 -35.5q-48 0 -84.5 37t-36.5 84zM444 1585q0 50 36.5 84.5t84.5 34.5q49 0 84 -34t35 -85q0 -50 -35 -85.5t-84 -35.5 q-48 0 -84.5 35.5t-36.5 85.5z" />
<glyph unicode="&#x408;" d="M91 10v304h89l30 -179q19 -23 54 -36t77 -13q69 0 114.5 48t45.5 142v966l-172 26v73h639v-73l-152 -26v-810q0 -217 -120 -334.5t-342 -117.5q-75 0 -147.5 8.5t-115.5 21.5z" />
<glyph unicode="&#x409;" horiz-adv-x="2054" d="M5 288h71l44 -109q18 -41 60 -41q90 0 155.5 208.5t99.5 606.5l25 287l-188 28v73h1252v-73l-233 -27v-465h111q272 0 414.5 -99t142.5 -292q0 -192 -141.5 -288.5t-415.5 -96.5h-598v74l172 26v1131h-394l-25 -291q-33 -375 -80 -576t-121 -292.5t-187 -91.5 q-94 0 -153 47zM1291 104h68q126 0 198 74t72 207t-72 207t-198 74h-68v-562z" />
<glyph unicode="&#x40a;" horiz-adv-x="2052" d="M35 0v74l172 26v1141l-172 27v73h639v-73l-152 -27v-488h472v488l-152 27v73h639v-73l-172 -27v-488h92q557 0 557 -379q0 -374 -557 -374h-559v74l152 26v543h-472v-543l152 -26v-74h-639zM1309 104h59q127 0 193.5 68t66.5 202t-71.5 201.5t-198.5 67.5h-49v-539z" />
<glyph unicode="&#x40b;" horiz-adv-x="1638" d="M-26 966v375h1263v-355h-92l-27 229q-83 18 -328 18h-49v-381q143 40 228 40q167 0 262 -47t140 -137.5t45 -227.5v-380l143 -27v-73h-591v73l133 27v436q0 100 -55.5 155t-152.5 55q-71 0 -152 -21v-625l163 -27v-73h-652v73l173 27v1135h-51q-192 0 -282 -20l-27 -249 h-91z" />
<glyph unicode="&#x40c;" horiz-adv-x="1485" d="M35 0v73l172 27v1142l-172 26v73h660v-73l-173 -26v-561l581 561l-123 26v73h459v-73l-164 -26l-413 -391l500 -751l105 -27v-73h-411l-410 651l-124 -95v-456l193 -27v-73h-680zM635 1452v33l166 272h285v-37l-365 -268h-86z" />
<glyph unicode="&#x40d;" horiz-adv-x="1593" d="M35 0v74l172 26v1141l-172 27v73h659v-73l-172 -27v-867l548 810v57l-172 27v73h661v-73l-173 -27v-1141l173 -26v-74h-661v74l172 26v893l-548 -810v-83l172 -26v-74h-659zM530 1720v37h285l165 -273v-32h-86z" />
<glyph unicode="&#x40e;" horiz-adv-x="1503" d="M58 1268v73h690v-73l-180 -26l306 -562l296 562l-164 26v73h456v-73l-142 -26l-436 -808q-120 -223 -181.5 -301t-127.5 -115.5t-150 -37.5q-49 0 -99 13t-78 30l-12 281h65l52 -117q36 -49 90 -49q72 0 131 56t129 192l-494 856zM443 1743h209q6 -102 54.5 -150.5 t123.5 -48.5t123.5 48.5t54.5 150.5h209q-5 -146 -104.5 -218t-282.5 -72t-282.5 72t-104.5 218z" />
<glyph unicode="&#x40f;" horiz-adv-x="1593" d="M34 0v73l173 27v1141l-173 26v74h661v-74l-172 -26v-1131h548v1131l-172 26v74h659v-74l-172 -26v-1141l172 -27v-73h-611l-93 -417h-115l-93 417h-612z" />
<glyph unicode="&#x410;" horiz-adv-x="1479" d="M20 0v73l100 27l477 1252h290l475 -1252l102 -27v-73h-597v73l155 27l-128 347h-515l-123 -347l172 -27v-73h-408zM420 557h436l-215 593z" />
<glyph unicode="&#x411;" horiz-adv-x="1354" d="M35 1268v73h1117l11 -330h-90l-55 204q-100 20 -313 20h-183v-472h170q276 0 416.5 -96.5t140.5 -287.5q0 -379 -557 -379h-656v73l171 26v1142zM522 104h137q127 0 193.5 70.5t66.5 204.5t-71.5 204t-198.5 70h-127v-549z" />
<glyph unicode="&#x412;" horiz-adv-x="1366" d="M34 0v73l173 27v1142l-173 26v73h651q267 0 394 -71.5t127 -231.5q0 -120 -75 -207t-201 -114q187 -19 283 -101.5t96 -224.5q0 -195 -144 -296t-413 -101l-456 6h-262zM522 110q144 -6 227 -6q117 0 173.5 71t56.5 216q0 133 -66.5 198t-217.5 65h-173v-544zM522 764 h147q107 0 158 56t51 190q0 117 -50.5 169t-166.5 52h-139v-467z" />
<glyph unicode="&#x413;" horiz-adv-x="1303" d="M37 1268v73h1137l18 -405h-90l-62 279q-100 20 -313 20h-203v-1136l207 -26v-73h-693v73l171 26v1142z" />
<glyph unicode="&#x414;" horiz-adv-x="1409" d="M12 73l200 25q116 228 181 521t69 621l-187 28v73h1080v-73l-173 -27v-1141l200 -27l-35 -510h-125l-129 437h-788l-133 -437h-125zM356 110h511v1121h-283q-2 -304 -62 -601.5t-166 -519.5z" />
<glyph unicode="&#x415;" horiz-adv-x="1366" d="M35 0v73l172 27v1142l-172 26v73h1142v-341h-91l-32 217q-112 14 -324 14h-208v-492h351l31 148h89v-412h-89l-31 152h-351v-517h253q258 0 338 16l57 248h91l-19 -374h-1207z" />
<glyph unicode="&#x416;" horiz-adv-x="2025" d="M4 0v73l115 27l453 744l-340 398l-144 26v73h412v-73l-113 -26l478 -558v558l-153 26v73h601v-73l-153 -26v-558l478 558l-113 26v73h412v-73l-144 -26l-341 -398l454 -744l115 -27v-73h-400l-353 638l-108 -87v-451l159 -27v-73h-613v73l159 27v451l-109 87l-352 -638 h-400z" />
<glyph unicode="&#x417;" horiz-adv-x="1081" d="M94 345h92l52 -215q39 -22 100 -35.5t106 -13.5q267 0 267 294q0 243 -241 258l-120 7v121l116 8q94 6 145.5 69t51.5 176q0 240 -207 240q-53 0 -108.5 -14.5t-89.5 -37.5l-43 -194h-87v305q172 43 356 43q491 0 491 -330q0 -132 -80 -217.5t-218 -106.5 q348 -42 348 -337q0 -180 -144 -282.5t-405 -102.5q-204 0 -370 40z" />
<glyph unicode="&#x418;" horiz-adv-x="1593" d="M35 0v74l172 26v1141l-172 27v73h659v-73l-172 -27v-867l548 810v57l-172 27v73h661v-73l-173 -27v-1141l173 -26v-74h-661v74l172 26v893l-548 -810v-83l172 -26v-74h-659z" />
<glyph unicode="&#x419;" horiz-adv-x="1593" d="M35 0v74l172 26v1141l-172 27v73h659v-73l-172 -27v-867l548 810v57l-172 27v73h661v-73l-173 -27v-1141l173 -26v-74h-661v74l172 26v893l-548 -810v-83l172 -26v-74h-659zM412 1744h209q6 -102 54.5 -150.5t123.5 -48.5t123.5 48.5t54.5 150.5h209q-5 -146 -104.5 -218 t-282.5 -72t-282.5 72t-104.5 218z" />
<glyph unicode="&#x41a;" horiz-adv-x="1485" d="M35 0v73l172 27v1142l-172 26v73h660v-73l-173 -26v-561l581 561l-123 26v73h459v-73l-164 -26l-413 -391l500 -751l105 -27v-73h-411l-410 651l-124 -95v-456l193 -27v-73h-680z" />
<glyph unicode="&#x41b;" horiz-adv-x="1526" d="M5 288h71l44 -109q18 -41 60 -41q90 0 155.5 208.5t99.5 606.5l25 287l-188 28v73h1220v-73l-173 -27v-1141l173 -26v-74h-661v74l172 26v1131h-421l-25 -291q-33 -375 -80 -576t-121 -292.5t-187 -91.5q-94 0 -153 47z" />
<glyph unicode="&#x41c;" horiz-adv-x="1933" d="M35 0v73l172 27v1142l-172 26v73h527l383 -882l391 882h538v-73l-172 -26v-1142l172 -27v-73h-667v73l180 27v1033l-505 -1133h-55l-495 1133v-1033l180 -27v-73h-477z" />
<glyph unicode="&#x41d;" horiz-adv-x="1593" d="M35 0v74l172 26v1141l-172 27v73h659v-73l-172 -27v-496h548v496l-172 27v73h661v-73l-173 -27v-1141l173 -26v-74h-661v74l172 26v535h-548v-535l172 -26v-74h-659z" />
<glyph unicode="&#x41e;" horiz-adv-x="1593" d="M100 672q0 684 697 684q344 0 520 -173.5t176 -510.5q0 -341 -178 -516.5t-518 -175.5q-339 0 -518 175t-179 517zM432 672q0 -319 87.5 -455.5t277.5 -136.5q189 0 276.5 137t87.5 455q0 317 -87.5 450t-276.5 133q-190 0 -277.5 -133t-87.5 -450z" />
<glyph unicode="&#x41f;" horiz-adv-x="1593" d="M40 0v74l172 26v1141l-172 27v73h1513v-73l-173 -27v-1141l173 -26v-74h-661v74l172 26v1131h-537v-1131l172 -26v-74h-659z" />
<glyph unicode="&#x420;" horiz-adv-x="1251" d="M35 1268v73h591q285 0 426 -95.5t141 -299.5q0 -420 -490 -420h-180v-426l223 -27v-73h-698v73l159 27v1142zM523 636h83q139 0 202 70t63 238q0 160 -59.5 223.5t-209.5 63.5h-79v-595z" />
<glyph unicode="&#x421;" horiz-adv-x="1479" d="M100 655q0 344 180.5 522.5t533.5 178.5q233 0 483 -67l6 -322h-90l-28 194q-132 90 -307 90q-232 0 -339 -144.5t-107 -448.5q0 -281 112 -428t326 -147q113 0 197.5 30t132.5 71l32 220h91l-6 -340q-90 -35 -234 -59.5t-268 -24.5q-337 0 -526 179t-189 496z" />
<glyph unicode="&#x422;" horiz-adv-x="1366" d="M32 966v375h1303v-375h-92l-27 249q-83 18 -328 18h-49v-1133l213 -27v-73h-742v73l213 27v1135h-51q-229 0 -322 -20l-27 -249h-91z" />
<glyph unicode="&#x423;" horiz-adv-x="1503" d="M58 1268v73h690v-73l-180 -26l306 -562l296 562l-164 26v73h456v-73l-142 -26l-436 -808q-120 -223 -181.5 -301t-127.5 -115.5t-150 -37.5q-49 0 -99 13t-78 30l-12 281h65l52 -117q36 -49 90 -49q72 0 131 56t129 192l-494 856z" />
<glyph unicode="&#x424;" horiz-adv-x="1759" d="M79 692q0 136 60.5 235.5t178.5 154.5t289 55h135v104l-172 27v73h619v-73l-172 -27v-104h135q170 0 288.5 -55t179 -155t60.5 -235q0 -141 -65 -250.5t-181.5 -165t-276.5 -55.5h-140v-121l172 -26v-74h-619v74l172 26v121h-140q-161 0 -277.5 56t-181 165.5 t-64.5 249.5zM383 690q0 -162 71.5 -264t182.5 -102h105v710h-96q-120 0 -191.5 -92t-71.5 -252zM1017 324h105q111 0 182.5 102t71.5 264q0 161 -71.5 252.5t-191.5 91.5h-96v-710z" />
<glyph unicode="&#x425;" horiz-adv-x="1479" d="M38 0v73l148 27l431 548l-384 594l-151 26v73h653v-73l-170 -26l234 -362l285 362l-166 26v73h459v-73l-148 -26l-365 -463l439 -679l152 -27v-73h-653v73l170 27l-290 447l-352 -447l166 -27v-73h-458z" />
<glyph unicode="&#x426;" horiz-adv-x="1593" d="M40 0v73l173 27v1141l-173 26v74h661v-74l-172 -26v-1131h517v1131l-172 26v74h659v-74l-172 -26v-1141l200 -27l-35 -510h-125l-129 437h-1232z" />
<glyph unicode="&#x427;" horiz-adv-x="1503" d="M25 1268v73h591v-73l-133 -27v-424q0 -106 56.5 -164t154.5 -58q111 0 285 58v588l-163 27v73h652v-73l-173 -27v-1141l159 -27v-73h-658v73l183 27v428q-224 -79 -364 -79q-167 0 -262 47t-140 137.5t-45 227.5v380z" />
<glyph unicode="&#x428;" horiz-adv-x="2249" d="M35 0v73l173 27v1141l-173 26v74h641v-74l-152 -26v-1131h443v1131l-152 26v74h620v-74l-152 -26v-1131h443v1131l-152 26v74h640v-74l-172 -26v-1141l172 -27v-73h-2179z" />
<glyph unicode="&#x429;" horiz-adv-x="2249" d="M35 0v73l173 27v1141l-173 26v74h641v-74l-152 -26v-1131h433v1131l-152 26v74h620v-74l-152 -26v-1131h433v1131l-152 26v74h640v-74l-172 -26v-1141l200 -27l-35 -510h-125l-129 437h-1898z" />
<glyph unicode="&#x42a;" horiz-adv-x="1567" d="M39 1011v330h995v-73l-232 -27v-478h112q276 0 416.5 -96.5t140.5 -287.5q0 -379 -557 -379h-598v73l171 26v1136h-51q-66 0 -145.5 -6t-117.5 -14l-44 -204h-90zM802 104h79q127 0 193.5 70.5t66.5 204.5t-71.5 204t-198.5 70h-69v-549z" />
<glyph unicode="&#x42b;" horiz-adv-x="2011" d="M35 1268v73h719v-73l-232 -27v-478h160q276 0 416.5 -96.5t140.5 -287.5q0 -379 -557 -379h-646v73l171 26v1142zM522 104h127q127 0 193.5 70.5t66.5 204.5t-71.5 204t-198.5 70h-117v-549zM1317 0v74l172 26v1141l-172 27v73h659v-73l-172 -27v-1141l172 -26v-74h-659z " />
<glyph unicode="&#x42c;" horiz-adv-x="1354" d="M35 1268v73h719v-73l-232 -27v-478h180q276 0 416.5 -96.5t140.5 -287.5q0 -379 -557 -379h-666v73l171 26v1142zM522 104h147q127 0 193.5 70.5t66.5 204.5t-71.5 204t-198.5 70h-137v-549z" />
<glyph unicode="&#x42d;" horiz-adv-x="1389" d="M142 404h91l32 -220q44 -41 122 -71t182 -30q186 0 287 136t106 415h-499v112h498q-11 266 -101 385.5t-279 119.5q-160 0 -281 -90l-28 -194h-90l6 322q247 67 462 67q318 0 481.5 -170.5t163.5 -530.5q0 -319 -175 -497t-491 -178q-117 0 -254.5 24.5t-226.5 59.5z" />
<glyph unicode="&#x42e;" horiz-adv-x="2306" d="M35 0v74l172 26v1141l-172 27v73h659v-73l-172 -27v-495h373q18 310 181.5 460t473.5 150q325 0 490.5 -173t165.5 -511q0 -341 -167 -516.5t-489 -175.5q-314 0 -480.5 165t-176.5 489h-371v-534l172 -26v-74h-659zM1225 672q0 -319 76.5 -455.5t248.5 -136.5 q171 0 247.5 136.5t76.5 455.5q0 317 -76.5 450t-247.5 133t-248 -132.5t-77 -450.5z" />
<glyph unicode="&#x42f;" horiz-adv-x="1479" d="M3 0v73l145 27l285 503q-119 40 -183 137t-64 226q0 193 145.5 284t442.5 91h671v-73l-172 -26v-1142l159 -27v-73h-647v73l172 27v468h-216l-304 -568h-434zM498 964q0 -150 75 -218t239 -68h145v553h-140q-176 0 -247.5 -63t-71.5 -204z" />
<glyph unicode="&#x430;" d="M66 260q0 106 43 169.5t124 94t255 34.5l122 3v137q0 170 -139 170q-84 0 -188 -52l-38 -117h-66v227q151 23 222 29t145 6q353 0 353 -260v-611l94 -24v-66h-346l-22 72q-78 -53 -141 -72.5t-127 -19.5q-291 0 -291 280zM354 266q0 -85 30 -125t78 -40q68 0 148 35v336 l-84 -3q-97 -4 -134.5 -51t-37.5 -152z" />
<glyph unicode="&#x431;" d="M80 578q0 274 45.5 433t144 247t259.5 108q156 18 206 29.5t81 28t39 42.5h70q-3 -116 -36.5 -181.5t-103 -101t-262.5 -60.5q-125 -17 -182.5 -45.5t-83 -83.5t-35.5 -194h7q81 165 300 165q419 0 419 -490q0 -495 -440 -495q-428 0 -428 598zM374 475q0 -231 30.5 -313 t106.5 -82q79 0 112 86.5t33 308.5q0 220 -32.5 304.5t-112.5 84.5q-77 0 -107 -81t-30 -308z" />
<glyph unicode="&#x432;" horiz-adv-x="1106" d="M53 0v66l95 24v760l-95 24v66h481q240 0 344 -57.5t104 -174.5q0 -173 -226 -213v-8q286 -22 286 -223q0 -143 -113 -203.5t-372 -60.5h-504zM437 90h111q98 0 150.5 43t52.5 141q0 80 -47 122.5t-155 42.5h-112v-349zM437 529h93q161 0 161 167q0 154 -171 154h-83v-321 z" />
<glyph unicode="&#x433;" horiz-adv-x="930" d="M54 0v66l95 24v760l-95 24v66h823v-308h-75l-43 186q-111 19 -199 19h-122v-747l153 -24v-66h-537z" />
<glyph unicode="&#x434;" horiz-adv-x="1036" d="M25 74l113 19q139 264 175 757l-106 25v65h776v-66l-95 -24v-760l125 -24l-16 -422h-105l-137 356h-471l-137 -356h-105zM263 103h336v747h-180q-31 -493 -156 -747z" />
<glyph unicode="&#x435;" horiz-adv-x="909" d="M70 475q0 246 105.5 367t318.5 121q191 0 276.5 -102t85.5 -317v-82h-493v-16q0 -149 24 -212t78 -96t148 -33q88 0 222 29v-77q-55 -33 -142.5 -54.5t-170.5 -21.5q-231 0 -341.5 120.5t-110.5 373.5zM364 567h218q0 134 -9 188.5t-30.5 80.5t-59.5 26q-60 0 -89.5 -65 t-29.5 -230z" />
<glyph unicode="&#x436;" horiz-adv-x="1485" d="M4 0v64l82 20l277 528l-218 239l-95 23v66h304v-66l-65 -23l329 -379v378l-75 24v66h398v-66l-75 -24v-378l329 379l-65 23v66h304v-66l-95 -23l-219 -239l278 -528l82 -20v-64h-303l-219 444l-92 -55v-299l75 -24v-66h-398v66l75 24v299l-94 57l-217 -446h-303z" />
<glyph unicode="&#x437;" horiz-adv-x="823" d="M25 59v80q112 -35 241 -35q110 0 163.5 41.5t53.5 128.5q0 161 -181 161h-74v101h87q153 0 153 177q0 152 -156 152q-35 0 -73.5 -13t-63.5 -35l-34 -125h-72v242q155 31 278 31q205 0 304.5 -57.5t99.5 -181.5q0 -75 -49 -134t-143 -94v-6q94 -14 154 -73t60 -145 q0 -147 -112 -220.5t-344 -73.5q-88 0 -175.5 25.5t-116.5 53.5z" />
<glyph unicode="&#x438;" horiz-adv-x="1180" d="M54 0v66l95 24v760l-95 24v66h469v-66l-85 -24v-504l304 396v108l-85 24v66h469v-66l-95 -24v-760l95 -24v-66h-469v66l85 24v499l-304 -396v-103l85 -24v-66h-469z" />
<glyph unicode="&#x439;" horiz-adv-x="1180" d="M54 0v66l95 24v760l-95 24v66h469v-66l-85 -24v-504l304 396v108l-85 24v66h469v-66l-95 -24v-760l95 -24v-66h-469v66l85 24v499l-304 -396v-103l85 -24v-66h-469zM206 1410h209q6 -102 54.5 -150.5t123.5 -48.5t123.5 48.5t54.5 150.5h209q-5 -146 -104.5 -218 t-282.5 -72t-282.5 72t-104.5 218z" />
<glyph unicode="&#x43a;" horiz-adv-x="1180" d="M44 0v66l95 24v760l-95 24v66h469v-66l-85 -24v-386l410 383l-96 29v63h360v-63l-100 -25l-273 -246l356 -517l92 -25v-63h-497v63l86 27l-231 346l-107 -72v-274l85 -24v-66h-469z" />
<glyph unicode="&#x43b;" horiz-adv-x="1149" d="M25 226h64l33 -88q15 -32 40 -32q103 0 179 483l41 260l-117 25v66h830v-66l-95 -24v-760l95 -24v-66h-479v66l95 24v747h-215l-40 -259q-40 -259 -78.5 -374t-94 -169.5t-138.5 -54.5q-33 0 -64 8t-48 19z" />
<glyph unicode="&#x43c;" horiz-adv-x="1395" d="M54 0v66l95 24v761l-95 23v66h372l249 -582l260 582h396v-66l-85 -24v-760l85 -24v-66h-457v66l92 24v670l-331 -760h-48l-322 752v-662l92 -24v-66h-303z" />
<glyph unicode="&#x43d;" horiz-adv-x="1180" d="M54 0v66l95 24v760l-95 24v66h479v-66l-95 -24v-318h304v318l-95 24v66h479v-66l-95 -24v-760l95 -24v-66h-479v66l95 24v339h-304v-339l95 -24v-66h-479z" />
<glyph unicode="&#x43e;" d="M78 475q0 249 107.5 369.5t328.5 120.5q223 0 327.5 -124.5t104.5 -365.5q0 -253 -108.5 -374t-331.5 -121q-216 0 -322 122.5t-106 372.5zM371 475q0 -231 30.5 -313t106.5 -82q79 0 112 86.5t33 308.5q0 220 -32.5 304.5t-112.5 84.5q-77 0 -107 -81t-30 -308z" />
<glyph unicode="&#x43f;" horiz-adv-x="1180" d="M54 0v66l95 24v760l-95 24v66h1072v-66l-95 -24v-760l95 -24v-66h-479v66l95 24v747h-304v-747l95 -24v-66h-479z" />
<glyph unicode="&#x440;" horiz-adv-x="1139" d="M26 874v66h381l2 -48q107 73 260 73q196 0 291.5 -115t95.5 -363q0 -246 -111 -376.5t-319 -130.5q-106 0 -214 27q6 -66 6 -148v-205l138 -24v-66h-529v66l102 24v1196zM418 107q81 -21 169 -21q176 0 176 394q0 374 -174 374q-93 0 -171 -38v-709z" />
<glyph unicode="&#x441;" horiz-adv-x="909" d="M70 472q0 155 56.5 265.5t161.5 169t244 58.5q140 0 305 -35v-278h-72l-42 165q-34 25 -67 35t-87 10q-59 0 -107 -47t-74.5 -132.5t-26.5 -204.5q0 -201 62.5 -287t198.5 -86q138 0 236 29v-77q-45 -36 -124.5 -56t-163.5 -20q-251 0 -375.5 121t-124.5 370z" />
<glyph unicode="&#x442;" horiz-adv-x="1006" d="M25 652v288h956v-288h-75l-43 166q-111 19 -189 19h-27v-747l153 -25v-65h-606v65l164 25v747h-26q-78 0 -189 -19l-43 -166h-75z" />
<glyph unicode="&#x443;" d="M20 874v66h481v-66l-112 -26l221 -520l197 522l-110 24v66h307v-66l-68 -20l-371 -913q-64 -163 -112 -236.5t-106.5 -110t-133.5 -36.5q-81 0 -165 19v242h60l43 -126q29 -23 74 -23q38 0 67 18t54.5 52t48.5 83.5t67 147.5l-376 879z" />
<glyph unicode="&#x444;" horiz-adv-x="1417" d="M71 461q0 246 87 375t256 129q67 0 167 -38l-5 181v223l-97 25v65h366v-343l-3 -177q35 25 89.5 44.5t117.5 19.5q145 0 221 -123t76 -361q0 -242 -89 -371.5t-253 -129.5q-36 0 -83 11t-82 28q6 -72 6 -138v-227l102 -24v-66h-476v66l105 24v395q-94 -69 -196 -69 q-159 0 -234 119t-75 362zM339 461q0 -187 32 -276t103 -89q42 0 102 37v704q-54 20 -96 20q-68 0 -104.5 -102.5t-36.5 -293.5zM845 113q51 -28 101 -28q71 0 101.5 96.5t30.5 299.5q0 367 -132 367q-47 0 -101 -31v-704z" />
<glyph unicode="&#x445;" d="M8 0v65l84 16l300 352l-270 417l-91 25v65h502v-65l-105 -27l137 -211l181 213l-94 25v65h320v-65l-83 -21l-264 -310l298 -458l90 -21v-65h-502v65l105 23l-164 253l-218 -255l94 -21v-65h-320z" />
<glyph unicode="&#x446;" horiz-adv-x="1180" d="M54 0v66l95 24v760l-95 24v66h479v-66l-95 -24v-747h304v747l-95 24v66h479v-66l-95 -24v-760l115 -24l-16 -422h-115l-127 356h-834z" />
<glyph unicode="&#x447;" horiz-adv-x="1155" d="M30 874v66h479v-66l-95 -24v-282q0 -79 27.5 -111.5t82.5 -32.5t99.5 11.5t93.5 27.5v387l-95 24v66h479v-66l-95 -24v-760l95 -24v-66h-479v66l95 24v289q-178 -90 -320 -90q-133 0 -202.5 67t-69.5 199v295z" />
<glyph unicode="&#x448;" horiz-adv-x="1729" d="M54 0v66l95 24v760l-95 24v66h479v-66l-95 -24v-747h282v747l-95 24v66h479v-66l-95 -24v-747h282v747l-95 24v66h479v-66l-95 -24v-760l95 -24v-66h-1621z" />
<glyph unicode="&#x449;" horiz-adv-x="1729" d="M54 0v66l95 24v760l-95 24v66h479v-66l-95 -24v-747h282v747l-95 24v66h479v-66l-95 -24v-747h282v747l-95 24v66h479v-66l-95 -24v-760l136 -24l-16 -422h-115l-127 356h-1404z" />
<glyph unicode="&#x44a;" horiz-adv-x="1194" d="M15 652v288h729v-66l-115 -24v-306h56q169 0 267.5 -26.5t145 -83.5t46.5 -162q0 -104 -48 -161.5t-149.5 -84t-267.5 -26.5h-434v66l95 24v747h-18q-78 0 -189 -19l-43 -166h-75zM629 90h41q92 0 137.5 42t45.5 141q0 181 -182 181h-42v-364z" />
<glyph unicode="&#x44b;" horiz-adv-x="1599" d="M54 0v66l95 24v760l-95 24v66h499v-66l-115 -24v-306h116q169 0 268.5 -26.5t146 -83.5t46.5 -162q0 -103 -48 -160.5t-149.5 -84.5t-270.5 -27h-493zM438 90h91q99 0 147 42t48 141q0 181 -187 181h-99v-364zM1066 0v66l95 24v760l-95 24v66h479v-66l-95 -24v-760 l95 -24v-66h-479z" />
<glyph unicode="&#x44c;" horiz-adv-x="1083" d="M54 0v66l95 24v760l-95 24v66h499v-66l-115 -24v-306h134q169 0 268.5 -26.5t146 -83.5t46.5 -162q0 -103 -48 -160.5t-149.5 -84.5t-270.5 -27h-511zM438 90h109q99 0 147 42t48 141q0 181 -187 181h-117v-364z" />
<glyph unicode="&#x44d;" horiz-adv-x="885" d="M51 57v77q106 -29 222 -29q126 0 185.5 82.5t64.5 245.5h-303v103h302q-4 154 -51.5 240t-129.5 86q-87 0 -150 -45l-42 -165h-72v278q165 35 301 35q212 0 324.5 -126t112.5 -358q0 -246 -125 -373t-365 -127q-79 0 -153.5 20t-120.5 56z" />
<glyph unicode="&#x44e;" horiz-adv-x="1565" d="M54 0v66l95 24v760l-95 24v66h479v-66l-95 -24v-318h182q13 220 119.5 326.5t315.5 106.5q223 0 327.5 -124.5t104.5 -365.5q0 -253 -108.5 -374t-331.5 -121q-212 0 -315 115t-112 334h-182v-339l95 -24v-66h-479zM912 475q0 -231 30.5 -313t106.5 -82q79 0 112 86.5 t33 308.5q0 220 -32.5 304.5t-112.5 84.5q-77 0 -107 -81t-30 -308z" />
<glyph unicode="&#x44f;" horiz-adv-x="1108" d="M21 0v64l82 20l180 365q-87 29 -132.5 91t-45.5 140q0 137 99.5 198.5t305.5 61.5h544v-66l-95 -24v-760l95 -24v-66h-479v66l95 24v304h-139l-165 -394h-345zM396 671q0 -92 43 -139.5t122 -47.5h109v366h-103q-84 0 -127.5 -47.5t-43.5 -131.5z" />
<glyph unicode="&#x450;" horiz-adv-x="909" d="M70 475q0 246 105.5 367t318.5 121q191 0 276.5 -102t85.5 -317v-82h-493v-16q0 -149 24 -212t78 -96t148 -33q88 0 222 29v-77q-55 -33 -142.5 -54.5t-170.5 -21.5q-231 0 -341.5 120.5t-110.5 373.5zM207 1386v37h285l165 -273v-32h-86zM364 567h218q0 134 -9 188.5 t-30.5 80.5t-59.5 26q-60 0 -89.5 -65t-29.5 -230z" />
<glyph unicode="&#x451;" horiz-adv-x="909" d="M70 475q0 246 105.5 367t318.5 121q191 0 276.5 -102t85.5 -317v-82h-493v-16q0 -149 24 -212t78 -96t148 -33q88 0 222 29v-77q-55 -33 -142.5 -54.5t-170.5 -21.5q-231 0 -341.5 120.5t-110.5 373.5zM185 1251q0 48 36 83.5t85 35.5t84 -35.5t35 -83.5q0 -50 -35 -85.5 t-84 -35.5q-48 0 -84.5 37t-36.5 84zM364 567h218q0 134 -9 188.5t-30.5 80.5t-59.5 26q-60 0 -89.5 -65t-29.5 -230zM521 1251q0 50 36.5 84.5t84.5 34.5q49 0 84 -34t35 -85q0 -50 -35 -85.5t-84 -35.5q-48 0 -84.5 35.5t-36.5 85.5z" />
<glyph unicode="&#x452;" horiz-adv-x="1100" d="M2 1099v103h145v129l-96 24v66h385v-219h251v-103h-251v-105q0 -61 -6 -151q74 44 157 73t148 29q116 0 176 -71.5t60 -205.5v-711q0 -188 -101.5 -292.5t-288.5 -104.5q-89 0 -172 18v225h64l43 -114q24 -19 49 -19q54 0 85.5 66.5t31.5 188.5v704q0 95 -27.5 136.5 t-86.5 41.5t-132 -34v-683l86 -24v-66h-467v66l92 24v1009h-145z" />
<glyph unicode="&#x453;" horiz-adv-x="930" d="M54 0v66l95 24v760l-95 24v66h823v-308h-75l-43 186q-111 19 -199 19h-122v-747l153 -24v-66h-537zM319 1118v33l166 272h285v-37l-365 -268h-86z" />
<glyph unicode="&#x454;" horiz-adv-x="885" d="M70 472q0 155 56.5 265.5t161.5 169t244 58.5q140 0 305 -35v-278h-72l-42 165q-34 25 -67 35t-87 10q-83 0 -139 -86t-67 -234h313v-100h-315q5 -178 68 -257.5t193 -79.5q138 0 236 29v-77q-45 -36 -124.5 -56t-163.5 -20q-251 0 -375.5 121t-124.5 370z" />
<glyph unicode="&#x455;" horiz-adv-x="797" d="M62 685q0 128 95 204t245 76q103 0 277 -29v-241h-66l-32 110q-29 29 -81.5 47.5t-99.5 18.5q-72 0 -106.5 -29.5t-34.5 -80.5q0 -53 43 -87t177 -74q146 -45 207 -118.5t61 -183.5q0 -157 -96.5 -237.5t-280.5 -80.5q-76 0 -167.5 16.5t-138.5 34.5v256h66l38 -132 q35 -35 92 -58.5t116 -23.5q87 0 129.5 37.5t42.5 95.5q0 55 -41 88t-179 76q-145 45 -205.5 123t-60.5 192z" />
<glyph unicode="&#x456;" horiz-adv-x="569" d="M45 0v66l102 24v760l-96 24v66h385v-850l103 -24v-66h-494zM137 1268q0 65 45.5 109t108.5 44q64 0 108.5 -44.5t44.5 -108.5q0 -63 -44 -108.5t-109 -45.5q-64 0 -109 44.5t-45 109.5z" />
<glyph unicode="&#x457;" horiz-adv-x="569" d="M3 1251q0 48 36 83.5t85 35.5t84 -35.5t35 -83.5q0 -50 -35 -85.5t-84 -35.5q-48 0 -84.5 37t-36.5 84zM45 0v66l102 24v760l-96 24v66h385v-850l103 -24v-66h-494zM339 1251q0 50 36.5 84.5t84.5 34.5q49 0 84 -34t35 -85q0 -50 -35 -85.5t-84 -35.5q-48 0 -84.5 35.5 t-36.5 85.5z" />
<glyph unicode="&#x458;" horiz-adv-x="682" d="M-17 -193h64l43 -114q24 -19 49 -19q54 0 85.5 66.5t31.5 188.5v911l-166 34v66h455v-979q0 -188 -101.5 -292.5t-288.5 -104.5q-89 0 -172 18v225zM246 1268q0 63 44.5 108t109.5 45q63 0 108 -44.5t45 -108.5t-44.5 -109t-108.5 -45t-109 44.5t-45 109.5z" />
<glyph unicode="&#x459;" horiz-adv-x="1597" d="M25 226h64l33 -88q15 -32 40 -32q103 0 179 483l41 260l-117 25v66h802v-66l-115 -24v-306h134q169 0 268.5 -26.5t146 -83.5t46.5 -162q0 -103 -48 -160.5t-149.5 -84.5t-270.5 -27h-511v66l95 24v747h-167l-40 -259q-40 -259 -78.5 -374t-94 -169.5t-138.5 -54.5 q-33 0 -64 8t-48 19zM952 90h109q99 0 147 42t48 141q0 181 -187 181h-117v-364z" />
<glyph unicode="&#x45a;" horiz-adv-x="1632" d="M54 0v66l95 24v760l-95 24v66h479v-66l-95 -24v-306h289v306l-95 24v66h499v-66l-115 -24v-306h114q169 0 268.5 -26.5t146 -83.5t46.5 -162q0 -103 -48 -160.5t-149.5 -84.5t-270.5 -27h-491v66l95 24v354h-289v-354l95 -24v-66h-479zM1016 90h89q99 0 147 42t48 141 q0 181 -187 181h-97v-364z" />
<glyph unicode="&#x45b;" horiz-adv-x="1139" d="M2 1099v103h145v129l-96 24v66h385v-219h251v-103h-251v-105q0 -66 -6 -156l69 35q142 72 255 72q260 0 260 -277v-578l94 -24v-66h-467v66l84 24v539q0 84 -35.5 131t-101.5 47q-76 0 -152 -34v-683l86 -24v-66h-467v66l92 24v1009h-145z" />
<glyph unicode="&#x45c;" horiz-adv-x="1180" d="M44 0v66l95 24v760l-95 24v66h469v-66l-85 -24v-386l410 383l-96 29v63h360v-63l-100 -25l-273 -246l356 -517l92 -25v-63h-497v63l86 27l-231 346l-107 -72v-274l85 -24v-66h-469zM468 1118v33l166 272h285v-37l-365 -268h-86z" />
<glyph unicode="&#x45d;" horiz-adv-x="1180" d="M54 0v66l95 24v760l-95 24v66h469v-66l-85 -24v-504l304 396v108l-85 24v66h469v-66l-95 -24v-760l95 -24v-66h-469v66l85 24v499l-304 -396v-103l85 -24v-66h-469zM273 1386v37h285l165 -273v-32h-86z" />
<glyph unicode="&#x45e;" d="M20 874v66h481v-66l-112 -26l221 -520l197 522l-110 24v66h307v-66l-68 -20l-371 -913q-64 -163 -112 -236.5t-106.5 -110t-133.5 -36.5q-81 0 -165 19v242h60l43 -126q29 -23 74 -23q38 0 67 18t54.5 52t48.5 83.5t67 147.5l-376 879zM127 1410h209q6 -102 54.5 -150.5 t123.5 -48.5t123.5 48.5t54.5 150.5h209q-5 -146 -104.5 -218t-282.5 -72t-282.5 72t-104.5 218z" />
<glyph unicode="&#x45f;" horiz-adv-x="1180" d="M54 0v66l95 24v760l-95 24v66h479v-66l-95 -24v-747h304v747l-95 24v66h479v-66l-95 -24v-760l95 -24v-66h-409l-70 -363h-115l-70 363h-408z" />
<glyph unicode="&#x460;" horiz-adv-x="2561" d="M100 655q0 338 163.5 519.5t464.5 181.5q95 0 179 -13t171.5 -42t89.5 -30v-308h-90l-24 174q-56 52 -130 83t-152 31q-178 0 -259 -144.5t-81 -449.5q0 -281 117.5 -427.5t341.5 -146.5q123 0 232 35v492l-172 26v74h659v-74l-172 -26v-492q109 -35 232 -35 q225 0 342.5 146t117.5 428q0 304 -80.5 449t-259.5 145q-78 0 -152.5 -31.5t-129.5 -82.5l-24 -174h-90v308q127 43 182.5 56.5t117 21t140.5 7.5q301 0 464.5 -181.5t163.5 -519.5q0 -208 -92 -361.5t-262.5 -233.5t-397.5 -80q-219 0 -430 61q-211 -61 -429 -61 q-227 0 -397 80t-262 233t-92 362z" />
<glyph unicode="&#x461;" horiz-adv-x="1267" d="M5 940h273q11 -132 48 -228l134 -347l127 276q-51 131 -63.5 187t-12.5 112h273q11 -132 48 -228l126 -323l55 148q61 161 61 255q0 77 -79 103v45h238q19 -33 19 -87q0 -89 -51 -206l-297 -667h-57l-209 530l-241 -530h-56l-281 715q-31 80 -43 134.5t-12 110.5z" />
<glyph unicode="&#x462;" horiz-adv-x="1564" d="M42 873v305h405v63l-172 27v73h719v-73l-232 -27v-63h405v-305h-92l-27 179q-31 7 -107.5 13.5t-163.5 6.5h-15v-309h180q276 0 416.5 -96.5t140.5 -287.5q0 -379 -557 -379h-666v73l171 26v973h-15q-87 0 -164 -6.5t-108 -13.5l-27 -179h-91zM762 104h147 q127 0 193.5 70.5t66.5 204.5t-71.5 204t-198.5 70h-137v-549z" />
<glyph unicode="&#x463;" horiz-adv-x="1229" d="M25 652v288h291v391l-95 24v66h499v-66l-115 -24v-391h297v-288h-75l-43 166q-42 8 -94 13.5t-70 5.5h-15v-293h134q169 0 268.5 -26.5t146 -83.5t46.5 -162q0 -103 -48 -160.5t-149.5 -84.5t-270.5 -27h-511v66l95 24v747h-9q-20 0 -73 -5.5t-91 -13.5l-43 -166h-75z M605 90h109q99 0 147 42t48 141q0 181 -187 181h-117v-364z" />
<glyph unicode="&#x464;" horiz-adv-x="2063" d="M69 0v74l172 26v1141l-172 27v73h659v-73l-172 -27v-495h221q23 303 193.5 456.5t481.5 153.5q225 0 459 -67l6 -322h-90l-26 194q-121 90 -283 90q-198 0 -297.5 -123.5t-112.5 -381.5h498v-112h-500q4 -271 108 -411t297 -140q105 0 182.5 30t122.5 71l30 220h91 l-6 -340q-85 -35 -221.5 -59.5t-255.5 -24.5q-315 0 -494.5 172.5t-185.5 481.5h-218v-534l172 -26v-74h-659z" />
<glyph unicode="&#x465;" horiz-adv-x="1359" d="M55 0v66l95 24v760l-95 24v66h479v-66l-95 -24v-308h112q18 197 139.5 310t319.5 113q140 0 305 -35v-278h-72l-42 165q-34 25 -67 35t-87 10q-83 0 -139 -86t-67 -234h313v-100h-315q5 -178 68 -257.5t193 -79.5q138 0 236 29v-77q-45 -36 -124.5 -56t-163.5 -20 q-487 0 -500 461h-109v-352l95 -24v-66h-479z" />
<glyph unicode="&#x466;" horiz-adv-x="1479" d="M12 0v73l98 27l477 1252h292l475 -1252l102 -27v-73h-539v73l97 17l-174 484q-80 -67 -80 -209v-275l80 -24v-66h-408v66l80 24v275q0 145 -83 208l-173 -473l91 -27v-73h-335zM470 684q128 -65 166 -161q36 97 164 162l-163 454z" />
<glyph unicode="&#x467;" d="M8 0v63l71 27l372 870h123l367 -870l74 -27v-63h-397v63l34 27l-98 251q-14 -12 -27 -41.5t-13 -74.5v-135l41 -27v-63h-242v63l41 27v135q0 31 -10 57.5t-42 58.5l-105 -251l40 -27v-63h-229zM333 416q73 -60 94 -116q12 35 42 63t58 51l-95 246z" />
<glyph unicode="&#x468;" horiz-adv-x="2249" d="M69 0v74l172 26v1141l-172 27v73h659v-73l-172 -27v-530h566l245 641h292l475 -1252l102 -27v-73h-539v73l97 17l-174 484q-80 -67 -80 -209v-275l80 -24v-66h-408v66l80 24v275q0 145 -83 208l-173 -473l91 -27v-73h-335v73l98 27l190 499h-524v-499l172 -26v-74h-659z M1250 684q128 -65 166 -161q36 97 164 162l-163 454z" />
<glyph unicode="&#x469;" horiz-adv-x="1584" d="M55 0v66l95 24v760l-95 24v66h479v-66l-95 -24v-378h361l209 488h123l367 -870l74 -27v-63h-397v63l34 27l-98 251q-14 -12 -27 -41.5t-13 -74.5v-135l41 -27v-63h-242v63l41 27v135q0 31 -10 57.5t-42 58.5l-105 -251l40 -27v-63h-229v63l71 27l125 292h-323v-292 l95 -24v-66h-479zM891 416q73 -60 94 -116q12 35 42 63t58 51l-95 246z" />
<glyph unicode="&#x46a;" horiz-adv-x="2025" d="M46 0v73l116 27l118 240q108 223 222 309t313 95l-429 517v80h1234v-80l-415 -517q139 -5 232 -43t163.5 -117.5t149.5 -243.5l115 -240l116 -27v-73h-396l-121 325q-60 162 -131.5 237.5t-172.5 83.5v-546l160 -27v-73h-615v73l160 27v546q-103 -11 -176 -88t-129 -233 l-119 -325h-395zM766 1232l333 -421l329 421h-662z" />
<glyph unicode="&#x46b;" horiz-adv-x="1485" d="M14 0v66l88 25l80 164q60 124 105 171t109 68t175 23l-293 357v66h927v-66l-286 -357q109 -2 171.5 -22.5t106 -65t107.5 -174.5l80 -164l87 -25v-66h-326l-86 229q-35 92 -58.5 128t-55 55.5t-78.5 26.5v-348l104 -24v-67h-458v67l105 24v349q-49 -7 -80 -26 t-54.5 -55.5t-57.5 -129.5l-85 -229h-327zM598 857l229 -293l227 293h-456z" />
<glyph unicode="&#x46c;" horiz-adv-x="2785" d="M69 0v74l172 26v1141l-172 27v73h659v-73l-172 -27v-497h1031l-429 517v80h1234v-80l-415 -517q139 -5 232 -43t163.5 -117.5t149.5 -243.5l115 -240l116 -27v-73h-396l-121 325q-60 162 -131.5 237.5t-172.5 83.5v-546l160 -27v-73h-615v73l160 27v546 q-103 -11 -176 -88t-129 -233l-119 -325h-395v73l116 27l118 240q101 206 201 292h-697v-532l172 -26v-74h-659zM1538 1232l333 -421l329 421h-662z" />
<glyph unicode="&#x46d;" horiz-adv-x="2045" d="M55 0v66l95 24v760l-95 24v66h479v-66l-95 -24v-333h694l-293 357v66h927v-66l-286 -357q109 -2 171.5 -22.5t106 -65t107.5 -174.5l80 -164l87 -25v-66h-326l-86 229q-35 92 -58.5 128t-55 55.5t-78.5 26.5v-348l104 -24v-67h-458v67l105 24v349q-49 -7 -80 -26 t-54.5 -55.5t-57.5 -129.5l-85 -229h-327v66l88 25q105 216 128.5 257.5t48.5 68.5h-402v-327l95 -24v-66h-479zM1150 857l229 -293l227 293h-456z" />
<glyph unicode="&#x46e;" horiz-adv-x="1081" d="M-20 -181q0 84 37.5 149.5t105.5 102t147 36.5q63 0 131 -11q67 -12 100 -12q96 0 153 78t57 213q0 243 -241 258l-120 7v121l116 8q94 6 145.5 69t51.5 176q0 240 -207 240q-53 0 -108.5 -14.5t-89.5 -37.5l-43 -194h-87v305q172 43 356 43q491 0 491 -330 q0 -132 -80 -217.5t-218 -106.5q348 -42 348 -337q0 -111 -56 -199t-153.5 -137t-210.5 -49q-98 0 -165 10t-96 10q-66 0 -108 -47.5t-42 -125.5q0 -74 38.5 -119t100.5 -45q45 0 89.5 18t113.5 63q123 81 255 81q53 0 114 -18.5t100 -46.5v-203h-92q-21 60 -73 97.5 t-114 37.5q-41 0 -82.5 -14.5t-109.5 -52.5q-122 -68 -248 -68q-140 0 -223 70.5t-83 191.5zM151 1745v33h76l248 -162l248 162h76v-33l-218 -293h-213z" />
<glyph unicode="&#x46f;" horiz-adv-x="823" d="M-30 -173q0 125 78.5 206.5t193.5 81.5l107 -7q60 0 97 46.5t37 119.5q0 161 -181 161h-74v101h87q153 0 153 177q0 152 -156 152q-35 0 -73.5 -13t-63.5 -35l-34 -125h-72v242q155 31 278 31q205 0 304.5 -57.5t99.5 -181.5q0 -75 -49 -134t-143 -94v-6q94 -14 154 -73 t60 -145q0 -134 -88.5 -214t-221.5 -80q-31 0 -108 10l-36 2q-64 0 -106.5 -45.5t-42.5 -122.5q0 -79 36.5 -119.5t90.5 -40.5q39 0 72 20t68.5 44t78.5 44t104 20q79 0 161 -42v-192h-72q-20 55 -60 84.5t-90 29.5q-38 0 -71.5 -18t-71 -39t-84.5 -39t-112 -18 q-116 0 -183 70.5t-67 198.5zM33 1411v33h76l248 -162l248 162h76v-33l-218 -293h-213z" />
<glyph unicode="&#x470;" horiz-adv-x="1597" d="M0 1268v73h382l117 -448q35 -133 55 -187t40.5 -76.5t56.5 -24.5v636l-142 27v73h579v-73l-142 -27v-636q100 0 152.5 25.5t75.5 83.5t23 212v415h400v-73l-105 -27v-310q0 -227 -131 -326t-415 -99v-405l182 -28v-73h-659v73l182 28v405q-115 0 -183 29.5t-117.5 100 t-110.5 235.5l-135 370z" />
<glyph unicode="&#x471;" horiz-adv-x="1409" d="M0 874v66h366l98 -523q30 -162 51 -231.5t46 -97.5t65 -28v880h196v-880q209 2 209 397v483h378v-66l-122 -24v-374q0 -267 -107.5 -381t-357.5 -114v-417h-196v417q-104 0 -171.5 18t-111.5 57.5t-73.5 110.5t-68.5 262l-83 421z" />
<glyph unicode="&#x472;" horiz-adv-x="1593" d="M100 672q0 684 697 684q344 0 520 -173.5t176 -510.5q0 -341 -178 -516.5t-518 -175.5q-339 0 -518 175t-179 517zM432 660q2 -314 90 -447t275 -133q176 0 263.5 118t98.5 387q-89 -57 -168 -57q-118 0 -245 75q-67 38 -112 56t-83 18q-62 0 -119 -17zM435 796 q89 54 163 54q115 0 245 -74q73 -42 115 -58.5t79 -16.5q60 0 123 18q-7 288 -93 412t-270 124q-173 0 -260 -109.5t-102 -349.5z" />
<glyph unicode="&#x473;" d="M78 475q0 249 107.5 369.5t328.5 120.5q223 0 327.5 -124.5t104.5 -365.5q0 -253 -108.5 -374t-331.5 -121q-216 0 -322 122.5t-106 372.5zM371 456q0 -214 31 -295t106 -81q72 0 105.5 70.5t38.5 262.5q-38 -43 -62 -43q-30 0 -52.5 16t-41.5 34.5t-36.5 34.5t-38.5 16 q-24 0 -50 -15zM372 563q37 44 64 44q30 0 52 -15.5t41 -34t36.5 -34t38.5 -15.5q23 0 49 13q-2 188 -35.5 265.5t-109.5 77.5q-68 0 -99.5 -64.5t-36.5 -236.5z" />
<glyph unicode="&#x474;" horiz-adv-x="1670" d="M23 1268v73h583v-73l-139 -27l377 -879l289 705q63 152 140.5 220.5t198.5 68.5q97 0 176 -31v-268h-80l-34 155q-30 22 -80 22q-68 0 -116 -47t-88 -143l-439 -1075h-133l-545 1272z" />
<glyph unicode="&#x475;" horiz-adv-x="1239" d="M0 874v66h481v-66l-112 -26l241 -536l172 425q47 117 110.5 172.5t164.5 55.5q83 0 162 -31v-223h-74l-47 125q-22 16 -62 16q-38 0 -69.5 -23.5t-59.5 -87.5l-327 -761h-121l-393 870z" />
<glyph unicode="&#x476;" horiz-adv-x="1670" d="M23 1268v73h583v-73l-139 -27l377 -879l289 705q63 152 140.5 220.5t198.5 68.5q97 0 176 -31v-268h-80l-34 155q-30 22 -80 22q-68 0 -116 -47t-88 -143l-439 -1075h-133l-545 1272zM354 1720v37h285l165 -273v-32h-86zM752 1720v37h285l165 -273v-32h-86z" />
<glyph unicode="&#x477;" horiz-adv-x="1239" d="M0 874v66h481v-66l-112 -26l241 -536l172 425q47 117 110.5 172.5t164.5 55.5q83 0 162 -31v-223h-74l-47 125q-22 16 -62 16q-38 0 -69.5 -23.5t-59.5 -87.5l-327 -761h-121l-393 870zM77 1386v37h285l165 -273v-32h-86zM475 1386v37h285l165 -273v-32h-86z" />
<glyph unicode="&#x478;" horiz-adv-x="2334" d="M90 672q0 684 614 684q304 0 458.5 -174.5t154.5 -509.5q0 -339 -156.5 -515.5t-456.5 -176.5t-457 176t-157 516zM422 672q0 -316 67 -454t215 -138q147 0 214 138t67 454q0 313 -67 448t-214 135q-148 0 -215 -134t-67 -449zM1350 874v66h481v-66l-112 -26l221 -520 l197 522l-110 24v66h307v-66l-68 -20l-371 -913q-64 -163 -112 -236.5t-106.5 -110t-133.5 -36.5q-81 0 -165 19v242h60l43 -126q29 -23 74 -23q38 0 67 18t54.5 52t48.5 83.5t67 147.5l-376 879z" />
<glyph unicode="&#x479;" horiz-adv-x="1884" d="M68 475q0 249 107.5 369.5t328.5 120.5q223 0 327.5 -124.5t104.5 -365.5q0 -253 -108.5 -374t-331.5 -121q-216 0 -322 122.5t-106 372.5zM361 475q0 -231 30.5 -313t106.5 -82q79 0 112 86.5t33 308.5q0 220 -32.5 304.5t-112.5 84.5q-77 0 -107 -81t-30 -308zM902 874 v66h481v-66l-112 -26l221 -520l197 522l-110 24v66h307v-66l-68 -20l-371 -913q-64 -163 -112 -236.5t-106.5 -110t-133.5 -36.5q-81 0 -165 19v242h60l43 -126q29 -23 74 -23q38 0 67 18t54.5 52t48.5 83.5t67 147.5l-376 879z" />
<glyph unicode="&#x47a;" horiz-adv-x="1687" d="M37 672q0 315 171 485t519 195q14 35 46 56.5t71 21.5t70 -21.5t45 -56.5q344 -25 517.5 -196.5t173.5 -483.5q0 -314 -175 -488.5t-516 -199.5q-13 -35 -43.5 -57.5t-71.5 -22.5q-39 0 -71 22.5t-46 57.5q-340 25 -515 199.5t-175 488.5zM369 672q0 -202 17.5 -297 t59.5 -154t112 -92.5t173 -43.5q16 31 46 50t67 19t66.5 -19t44.5 -50q129 13 202 59t108.5 120.5t44 177t8.5 230.5q0 272 -89.5 408.5t-275.5 166.5q-15 -30 -43.5 -48.5t-65.5 -18.5q-35 0 -64.5 18.5t-46.5 47.5q-183 -27 -273.5 -164.5t-90.5 -409.5z" />
<glyph unicode="&#x47b;" horiz-adv-x="1199" d="M33 475q0 209 109 332t330 150q14 36 46 58.5t72 22.5q39 0 70 -21.5t45 -56.5q226 -23 342 -144.5t116 -340.5q0 -442 -457 -489q-13 -35 -43.5 -58.5t-72.5 -23.5q-40 0 -72 23.5t-46 59.5q-218 26 -328.5 149.5t-110.5 338.5zM326 475q0 -156 34 -251.5t123 -127.5 q17 26 45.5 42t61.5 16q67 0 106 -59q96 31 135 126.5t39 253.5q0 157 -39 250.5t-135 123.5q-36 -61 -106 -61q-33 0 -61.5 16.5t-45.5 43.5q-82 -27 -119.5 -116t-37.5 -257z" />
<glyph unicode="&#x47c;" horiz-adv-x="2532" d="M124 655q0 214 88 372.5t248.5 243.5t370.5 85q162 0 315 -67v-322h-90l-27 176q-46 52 -110 80t-135 28q-170 0 -249 -144.5t-79 -448.5q0 -280 109.5 -427.5t326.5 -147.5q86 0 184.5 61t159.5 157h58q60 -95 158.5 -156.5t185.5 -61.5q216 0 326 147t110 428 q0 303 -78.5 448t-249.5 145q-71 0 -135 -28t-110 -80l-27 -176h-90v322q153 67 315 67q209 0 370 -84.5t249 -243t88 -373.5q0 -322 -187.5 -498.5t-524.5 -176.5q-132 0 -238 33t-191 110q-85 -77 -191 -110t-238 -33q-338 0 -525 176.5t-187 498.5zM961 1624 q4 285 221 285q57 0 112 -22t112 -49t119 -50t132 -24h20v-140h-33q-75 0 -137.5 19.5t-117 42.5t-103.5 42.5t-97 19.5q-58 0 -90 -30.5t-44 -93.5h-94zM1129 1342v51q57 14 83 34.5t26 50.5q0 18 -13 29.5t-28.5 23t-28.5 25.5t-13 38q0 34 27.5 55.5t72.5 21.5t77 -29.5 t32 -91.5q0 -81 -60 -133.5t-175 -74.5z" />
<glyph unicode="&#x47d;" horiz-adv-x="1654" d="M82 477q0 229 105.5 358.5t290.5 129.5q107 0 236 -36v-277h-73l-47 159q-38 51 -90 51q-131 0 -131 -385q0 -182 57.5 -277t163.5 -95q67 0 123.5 47.5t74.5 110.5h66q19 -65 74.5 -111.5t123.5 -46.5q106 0 163.5 95t57.5 277q0 385 -131 385q-52 0 -90 -51l-47 -159 h-73v277q129 36 236 36q184 0 290 -129.5t106 -358.5q0 -236 -109 -366.5t-312 -130.5q-210 0 -322 144q-112 -144 -322 -144q-203 0 -312 130.5t-109 366.5zM520 1249q4 285 221 285q57 0 112 -22t112 -49t119 -50t132 -24h20v-140h-33q-75 0 -137.5 19.5t-117 42.5 t-103.5 42.5t-97 19.5q-58 0 -90 -30.5t-44 -93.5h-94zM688 967v51q57 14 83 34.5t26 50.5q0 18 -13 29.5t-28.5 23t-28.5 25.5t-13 38q0 34 27.5 55.5t72.5 21.5t77 -29.5t32 -91.5q0 -81 -60 -133.5t-175 -74.5z" />
<glyph unicode="&#x47e;" horiz-adv-x="2561" d="M100 655q0 338 163.5 519.5t464.5 181.5q95 0 179 -13t171.5 -42t89.5 -30v-308h-90l-24 174q-56 52 -130 83t-152 31q-178 0 -259 -144.5t-81 -449.5q0 -281 117.5 -427.5t341.5 -146.5q123 0 232 35v492l-172 26v74h659v-74l-172 -26v-492q109 -35 232 -35 q225 0 342.5 146t117.5 428q0 304 -80.5 449t-259.5 145q-78 0 -152.5 -31.5t-129.5 -82.5l-24 -174h-90v308q127 43 182.5 56.5t117 21t140.5 7.5q301 0 464.5 -181.5t163.5 -519.5q0 -208 -92 -361.5t-262.5 -233.5t-397.5 -80q-219 0 -430 61q-211 -61 -429 -61 q-227 0 -397 80t-262 233t-92 362zM816 1669v37h930v-37l-84 -217h-64l-49 100h-187l-49 -100h-64l-49 100h-187l-49 -100h-64z" />
<glyph unicode="&#x47f;" horiz-adv-x="1267" d="M5 940h273q11 -132 48 -228l134 -347l127 276q-51 131 -63.5 187t-12.5 112h273q11 -132 48 -228l126 -323l55 148q61 161 61 255q0 77 -79 103v45h238q19 -33 19 -87q0 -89 -51 -206l-297 -667h-57l-209 530l-241 -530h-56l-281 715q-31 80 -43 134.5t-12 110.5z M163 1304v37h930v-37l-84 -217h-64l-49 100h-187l-49 -100h-64l-49 100h-187l-49 -100h-64z" />
<glyph unicode="&#x480;" horiz-adv-x="1479" d="M100 655q0 344 180.5 522.5t533.5 178.5q233 0 483 -67l6 -322h-90l-28 194q-132 90 -307 90q-232 0 -339 -144.5t-107 -448.5q0 -278 107 -420.5t329 -157.5l124 -8v-408l172 -26v-74h-659v74l172 26v325q-276 36 -426.5 209.5t-150.5 456.5z" />
<glyph unicode="&#x481;" horiz-adv-x="909" d="M70 472q0 155 56.5 265.5t161.5 169t244 58.5q140 0 305 -35v-278h-72l-42 165q-34 25 -67 35t-87 10q-59 0 -107 -47t-74.5 -132.5t-26.5 -204.5q0 -189 54 -269.5t175 -93.5l65 -7v-454l103 -24v-66h-494v66l102 24v352q-296 82 -296 466z" />
<glyph unicode="&#x482;" horiz-adv-x="692" d="M19 566l39 115l198 -68l64 186l-197 68l39 115l197 -68l175 507h128l-187 -546l198 -68l-39 -115l-199 68l-64 -187l198 -67l-39 -115l-198 68l-164 -479h-130l178 518z" />
<glyph unicode="&#x483;" horiz-adv-x="0" d="M-354 1174q0 53 37 86t92 33h343l-2 21q0 49 35.5 84t83.5 35t82.5 -34.5t34.5 -84.5q0 -52 -35.5 -86.5t-91.5 -34.5h-345l2 -19q0 -51 -34.5 -86t-82.5 -35q-50 0 -84.5 36.5t-34.5 84.5z" />
<glyph unicode="&#x484;" horiz-adv-x="0" d="M-358 1119v140l104 1q94 0 206 73q60 39 101.5 55t83.5 16q109 0 163 -70t58 -215h-94q-14 67 -46 95.5t-88 28.5q-27 0 -51 -9.5t-101 -52.5q-109 -62 -243 -62h-93z" />
<glyph unicode="&#x485;" horiz-adv-x="0" d="M-161 1363q0 77 40.5 121.5t109.5 44.5q63 0 99.5 -29t36.5 -76q0 -33 -17.5 -52.5t-39 -34.5t-39 -31t-17.5 -41q0 -43 36.5 -70.5t112.5 -47.5v-69q-157 29 -239.5 100.5t-82.5 184.5z" />
<glyph unicode="&#x486;" horiz-adv-x="0" d="M-161 1078v69q76 20 112.5 47t36.5 71q0 25 -17.5 41t-39 31t-39 34.5t-17.5 52.5q0 47 36.5 76t99.5 29q69 0 109.5 -44t40.5 -122q0 -113 -82.5 -184.5t-239.5 -100.5z" />
<glyph unicode="&#x487;" horiz-adv-x="0" d="M-614 1122q6 108 46.5 167.5t121 91t209.5 31.5q95 0 193 -25t198.5 -55t203 -55t206.5 -25v-123q-206 0 -466 94q-150 54 -220 73.5t-115 19.5q-172 0 -184 -194h-193z" />
<glyph unicode="&#x488;" horiz-adv-x="0" d="M-981 485q0 84 59.5 143.5t143.5 59.5t143.5 -59.5t59.5 -143.5h-80q0 51 -36 87t-87 36q-53 0 -88 -38t-35 -85h-80zM-852 -74q0 84 59.5 143.5t143.5 59.5t143.5 -59.5t59.5 -143.5h-80q0 51 -36 87t-87 36q-53 0 -88 -38t-35 -85h-80zM-852 989q0 84 59.5 143.5 t143.5 59.5t143.5 -59.5t59.5 -143.5h-80q0 51 -36 87t-87 36q-53 0 -88 -38t-35 -85h-80zM-203 -336q0 84 59.5 143.5t143.5 59.5t143.5 -59.5t59.5 -143.5h-80q0 48 -35 85.5t-88 37.5q-51 0 -87 -36t-36 -87h-80zM-203 1254q0 84 59.5 143.5t143.5 59.5t143.5 -59.5 t59.5 -143.5h-80q0 48 -35 85.5t-88 37.5q-51 0 -87 -36t-36 -87h-80zM446 -74q0 84 59.5 143.5t143.5 59.5t143.5 -59.5t59.5 -143.5h-80q0 48 -35 85.5t-88 37.5q-51 0 -87 -36t-36 -87h-80zM446 989q0 84 59.5 143.5t143.5 59.5t143.5 -59.5t59.5 -143.5h-80 q0 48 -35 85.5t-88 37.5q-51 0 -87 -36t-36 -87h-80zM575 485q0 84 59.5 143.5t143.5 59.5t143.5 -59.5t59.5 -143.5h-80q0 48 -35 85.5t-88 37.5q-51 0 -87 -36t-36 -87h-80z" />
<glyph unicode="&#x489;" horiz-adv-x="0" d="M-976 676h63q36 -120 89 -120q23 0 34 17t21.5 38t27 38t50.5 17q38 0 60 -27.5t22 -70.5q0 -51 -38.5 -83.5t-96.5 -32.5q-88 0 -141.5 50t-90.5 174zM-769 -47l44 45q70 -36 109 -36q20 0 35.5 11t15.5 33q0 20 -9.5 42.5t-9.5 46.5q0 31 23.5 53.5t53.5 22.5 q40 0 73 -33.5t33 -78.5q0 -62 -58.5 -113.5t-126.5 -51.5q-73 0 -183 59zM-670 1150q0 73 59 183l45 -44q-36 -70 -36 -109q0 -20 11 -35.5t33 -15.5q20 0 42.5 9.5t46.5 9.5q30 0 53 -22.5t23 -54.5q0 -40 -33.5 -73t-78.5 -33q-62 0 -113.5 58.5t-51.5 126.5zM-112 -349 q120 36 120 89q0 23 -17 34t-38 21.5t-38 27t-17 50.5q0 38 27.5 60t70.5 22q51 0 83.5 -38.5t32.5 -96.5q0 -88 -50 -141.5t-174 -90.5v63zM-112 1308q0 88 50 141.5t174 90.5v-63q-120 -36 -120 -89q0 -23 17 -34t38 -21.5t38 -27t17 -50.5q0 -38 -27.5 -60t-70.5 -22 q-51 0 -83.5 38.5t-32.5 96.5zM393 57q0 40 33.5 73t78.5 33q62 0 113.5 -58.5t51.5 -126.5q0 -73 -59 -183l-45 44q36 70 36 109q0 20 -11 35.5t-33 15.5q-20 0 -42.5 -9.5t-46.5 -9.5q-30 0 -53 22.5t-23 54.5zM401 1069q0 62 58.5 113.5t126.5 51.5q73 0 183 -59l-44 -45 q-70 36 -109 36q-20 0 -35.5 -11t-15.5 -33q0 -20 9.5 -42.5t9.5 -46.5q0 -30 -22.5 -53t-54.5 -23q-40 0 -73 33.5t-33 78.5zM609 560q0 51 38.5 83.5t96.5 32.5q88 0 141.5 -50t90.5 -174h-63q-36 120 -89 120q-23 0 -34 -17t-21.5 -38t-27 -38t-50.5 -17q-38 0 -60 27.5 t-22 70.5z" />
<glyph unicode="&#x48a;" horiz-adv-x="1593" d="M35 0v74l172 26v1141l-172 27v73h659v-73l-172 -27v-867l548 810v57l-172 27v73h661v-73l-173 -27v-1141l200 -27l-210 -509h-125l46 436h-399v74l172 26v893l-548 -810v-83l172 -26v-74h-659zM410 1744h209q6 -102 54.5 -150.5t123.5 -48.5t123.5 48.5t54.5 150.5h209 q-5 -146 -104.5 -218t-282.5 -72t-282.5 72t-104.5 218z" />
<glyph unicode="&#x48b;" horiz-adv-x="1180" d="M54 0v66l95 24v760l-95 24v66h469v-66l-85 -24v-504l304 396v108l-85 24v66h469v-66l-95 -24v-760l136 -24l-194 -462h-115l51 396h-252v66l85 24v499l-304 -396v-103l85 -24v-66h-469zM202 1410h209q6 -102 54.5 -150.5t123.5 -48.5t123.5 48.5t54.5 150.5h209 q-5 -146 -104.5 -218t-282.5 -72t-282.5 72t-104.5 218z" />
<glyph unicode="&#x48c;" horiz-adv-x="1354" d="M36 0v73l171 26v986h-171v122h171v134h315v-134h223v-122h-223v-322h180q276 0 416.5 -96.5t140.5 -287.5q0 -379 -557 -379h-666zM522 104h147q127 0 193.5 70.5t66.5 204.5t-71.5 204t-198.5 70h-137v-549z" />
<glyph unicode="&#x48d;" horiz-adv-x="1083" d="M35 1102v104h114v215h289v-215h141v-104h-141v-558h134q169 0 268.5 -26.5t146 -83.5t46.5 -162q0 -103 -48 -160.5t-149.5 -84.5t-270.5 -27h-511v66l95 24v1012h-114zM438 90h109q99 0 147 42t48 141q0 181 -187 181h-117v-364z" />
<glyph unicode="&#x48e;" horiz-adv-x="1251" d="M35 1268v73h591q285 0 426 -95.5t141 -299.5q0 -267 -198 -364l107 -106l-67 -70l-141 140q-82 -20 -191 -20h-180v-426l223 -27v-73h-698v73l159 27v1142zM523 636h83q103 0 162 36l-125 126l67 69l124 -124q37 70 37 201q0 160 -59.5 223.5t-209.5 63.5h-79v-595z" />
<glyph unicode="&#x48f;" horiz-adv-x="1139" d="M26 874v66h381l2 -48q107 73 260 73q196 0 291.5 -115t95.5 -363q0 -147 -43 -259.5t-132 -175.5l102 -101l-66 -68l-124 123q-75 -26 -167 -26q-106 0 -214 27q6 -66 6 -148v-205l138 -24v-66h-529v66l102 24v1196zM418 107q81 -21 169 -21q54 0 90 36l-132 133l66 67 l116 -117q36 99 36 275q0 374 -174 374q-93 0 -171 -38v-709z" />
<glyph unicode="&#x490;" horiz-adv-x="1065" d="M37 1268v73h723l127 336h115l16 -442h-494v-1136l207 -26v-73h-693v73l171 26v1142z" />
<glyph unicode="&#x491;" horiz-adv-x="797" d="M44 0v66l105 24v760l-105 24v66h505l63 291h125l20 -394h-319v-747l143 -24v-66h-537z" />
<glyph unicode="&#x492;" horiz-adv-x="1303" d="M37 654v122h172v465l-172 27v73h1137l18 -405h-90l-62 279q-100 20 -313 20h-203v-459h348v-122h-348v-555l207 -26v-73h-693v73l171 26v555h-172z" />
<glyph unicode="&#x493;" horiz-adv-x="930" d="M54 0v66l95 24v350h-95v104h95v306l-95 24v66h823v-308h-75l-43 186q-111 19 -199 19h-122v-293h191v-104h-191v-350l153 -24v-66h-537z" />
<glyph unicode="&#x494;" horiz-adv-x="1478" d="M37 1268v73h1137l18 -345h-90l-62 219q-100 20 -313 20h-203v-402q192 59 325 59q200 0 322.5 -69t179.5 -210t57 -396q0 -321 -173 -490.5t-494 -169.5q-107 0 -192.5 21t-159.5 47l-4 272h94l21 -143q94 -90 229 -90q174 0 260 135t86 416q0 299 -75 430t-235 131 q-103 0 -241 -35v-642l207 -26v-73h-693v73l171 26v1142z" />
<glyph unicode="&#x495;" horiz-adv-x="1181" d="M54 0v66l95 24v760l-95 24v66h823v-308h-75l-43 186q-111 19 -199 19h-122v-359q89 24 170 24q247 0 371.5 -120t124.5 -341q0 -232 -135.5 -357.5t-390.5 -125.5q-121 0 -268 31v282h71l45 -169q66 -41 152 -41q235 0 235 364q0 373 -292 373q-32 0 -83 -7v-301l153 -24 v-66h-537z" />
<glyph unicode="&#x496;" horiz-adv-x="2025" d="M4 0v73l115 27l453 744l-340 398l-144 26v73h412v-73l-113 -26l478 -558v558l-153 26v73h601v-73l-153 -26v-558l478 558l-113 26v73h412v-73l-144 -26l-341 -398l454 -744l115 -27l-35 -510h-125l-129 437h-111l-353 638l-108 -87v-451l159 -27v-73h-613v73l159 27v451 l-109 87l-352 -638h-400z" />
<glyph unicode="&#x497;" horiz-adv-x="1485" d="M4 0v64l82 20l277 528l-218 239l-95 23v66h304v-66l-65 -23l329 -379v378l-75 24v66h398v-66l-75 -24v-378l329 379l-65 23v66h304v-66l-95 -23l-219 -239l280 -532l80 -14l-16 -422h-115l-127 356h-45l-219 444l-92 -55v-299l75 -24v-66h-398v66l75 24v299l-94 57 l-217 -446h-303z" />
<glyph unicode="&#x498;" horiz-adv-x="1081" d="M94 345h92l52 -215q39 -22 100 -35.5t106 -13.5q267 0 267 294q0 243 -241 258l-120 7v121l116 8q94 6 145.5 69t51.5 176q0 240 -207 240q-53 0 -108.5 -14.5t-89.5 -37.5l-43 -194h-87v305q172 43 356 43q491 0 491 -330q0 -132 -80 -217.5t-218 -106.5 q348 -42 348 -337q0 -169 -128 -270t-356 -113q56 -27 90.5 -77.5t34.5 -119.5q0 -102 -61 -158.5t-174 -56.5q-110 0 -201 54v85q78 -29 138 -29q54 0 83 31.5t29 89.5q0 70 -42.5 122.5t-107.5 60.5q-155 18 -224 36z" />
<glyph unicode="&#x499;" horiz-adv-x="823" d="M25 59v80q112 -35 241 -35q110 0 163.5 41.5t53.5 128.5q0 161 -181 161h-74v101h87q153 0 153 177q0 152 -156 152q-35 0 -73.5 -13t-63.5 -35l-34 -125h-72v242q155 31 278 31q205 0 304.5 -57.5t99.5 -181.5q0 -75 -49 -134t-143 -94v-6q94 -14 154 -73t60 -145 q0 -129 -84 -200.5t-259 -88.5q58 -27 94.5 -78t36.5 -122q0 -102 -61 -158.5t-174 -56.5q-110 0 -201 54v85q78 -29 138 -29q54 0 83 31.5t29 89.5q0 68 -41 121t-104 64q-161 29 -205 73z" />
<glyph unicode="&#x49a;" horiz-adv-x="1485" d="M35 0v73l172 27v1142l-172 26v73h660v-73l-173 -26v-561l581 561l-123 26v73h459v-73l-164 -26l-413 -391l500 -751l105 -27l-35 -510h-125l-129 437h-122l-410 651l-124 -95v-456l193 -27v-73h-680z" />
<glyph unicode="&#x49b;" horiz-adv-x="1180" d="M44 0v66l95 24v760l-95 24v66h469v-66l-85 -24v-386l411 384l-96 29v63h360v-63l-100 -25l-274 -247l356 -517l92 -25l-16 -419h-115l-127 356h-239v63l86 27l-231 346l-107 -72v-274l85 -24v-66h-469z" />
<glyph unicode="&#x49c;" horiz-adv-x="1485" d="M35 0v73l172 27v1142l-172 26v73h660v-73l-173 -26v-561l108 104v324h110v-218l363 351l-123 26v73h459v-73l-164 -26l-413 -391l500 -751l105 -27v-73h-411l-316 501v-272h-110v409l-108 -82v-456l193 -27v-73h-680z" />
<glyph unicode="&#x49d;" horiz-adv-x="1180" d="M44 0v66l95 24v760l-95 24v66h469v-66l-85 -24v-386l80 74v256h90v-172l241 226l-96 29v63h360v-63l-100 -25l-274 -247l356 -517l92 -25v-63h-497v63l86 27l-168 251v-199h-90v276l-80 -54v-274l85 -24v-66h-469z" />
<glyph unicode="&#x49e;" horiz-adv-x="1485" d="M35 0v73l172 27v857h-172v122h172v163l-172 26v73h660v-73l-173 -26v-163h157v-122h-157v-276l581 561l-123 26v73h459v-73l-164 -26l-413 -391l500 -751l105 -27v-73h-411l-410 651l-124 -95v-456l193 -27v-73h-680z" />
<glyph unicode="&#x49f;" horiz-adv-x="1180" d="M44 0v66l95 24v968h-95v104h95v169l-95 24v66h384v-259h230v-104h-230v-594l411 384l-96 29v63h360v-63l-100 -25l-274 -247l356 -517l92 -25v-63h-497v63l86 27l-231 346l-107 -72v-274l85 -24v-66h-469z" />
<glyph unicode="&#x4a0;" horiz-adv-x="1697" d="M32 966v375h863v-73l-173 -26v-561l581 561l-123 26v73h459v-73l-164 -26l-413 -391l500 -751l105 -27v-73h-411l-410 651l-124 -95v-456l193 -27v-73h-680v73l172 27v1135h-35q-157 0 -222 -20l-27 -249h-91z" />
<glyph unicode="&#x4a1;" horiz-adv-x="1291" d="M25 652v288h608v-66l-85 -24v-386l410 383l-96 29v63h360v-63l-100 -25l-273 -246l356 -517l92 -25v-63h-497v63l86 27l-231 346l-107 -72v-274l85 -24v-66h-469v66l95 24v747h-9q-18 0 -51.5 -5.5t-55.5 -13.5l-43 -166h-75z" />
<glyph unicode="&#x4a2;" horiz-adv-x="1593" d="M35 0v74l172 26v1141l-172 27v73h659v-73l-172 -27v-496h548v496l-172 27v73h661v-73l-173 -27v-1141l173 -27l-35 -510h-125l-129 437h-372v74l172 26v535h-548v-535l172 -26v-74h-659z" />
<glyph unicode="&#x4a3;" horiz-adv-x="1180" d="M54 0v66l95 24v760l-95 24v66h479v-66l-95 -24v-318h304v318l-95 24v66h479v-66l-95 -24v-760l95 -24l-16 -422h-115l-127 356h-221v66l95 24v339h-304v-339l95 -24v-66h-479z" />
<glyph unicode="&#x4a4;" horiz-adv-x="1887" d="M35 0v74l172 26v1141l-172 27v73h659v-73l-172 -27v-496h548v496l-172 27v73h926v-375h-92l-27 249q-82 18 -285 18h-34v-1133l173 -26v-74h-661v74l172 26v535h-548v-535l172 -26v-74h-659z" />
<glyph unicode="&#x4a5;" horiz-adv-x="1366" d="M54 0v66l95 24v760l-95 24v66h479v-66l-95 -24v-318h304v318l-95 24v66h682v-288h-75l-43 166q-39 8 -88.5 13.5t-73.5 5.5h-18v-747l95 -24v-66h-479v66l95 24v339h-304v-339l95 -24v-66h-479z" />
<glyph unicode="&#x4a6;" horiz-adv-x="2283" d="M40 0v74l172 26v1141l-172 27v73h1513v-73l-173 -27v-393q160 44 271 44q200 0 322.5 -69t179.5 -210t57 -396q0 -321 -173 -490.5t-494 -169.5q-107 0 -192.5 21t-159.5 47l-4 272h94l21 -143q94 -90 229 -90q174 0 260 135t86 416q0 299 -75 430t-235 131 q-83 0 -187 -23v-653l173 -26v-74h-661v74l172 26v1131h-537v-1131l172 -26v-74h-659z" />
<glyph unicode="&#x4a7;" horiz-adv-x="1728" d="M54 0v66l95 24v760l-95 24v66h1072v-66l-95 -24v-362q65 14 129 14q247 0 371.5 -120t124.5 -341q0 -232 -135.5 -357.5t-390.5 -125.5q-121 0 -268 31v282h71l45 -169q66 -41 152 -41q235 0 235 364q0 373 -292 373l-42 -2v-306l95 -24v-66h-479v66l95 24v747h-304v-747 l95 -24v-66h-479z" />
<glyph unicode="&#x4a8;" horiz-adv-x="1494" d="M61 672q0 214 96 368.5t272 235t410 80.5q170 0 309 -45v-256h-85l-30 137q-85 59 -194 59q-230 0 -338 -135.5t-108 -444.5q0 -316 86 -452t268 -136q46 0 82 4q-114 65 -175 184t-61 276q0 194 119.5 306t314.5 112q199 0 322 -114.5t123 -304.5q0 -161 -71 -278.5 t-196 -182.5l21 -2h20q123 0 228 44v-66q-104 -81 -265 -81q-60 0 -115.5 9t-87.5 23q-87 -32 -258 -32q-339 0 -513 174t-174 518zM915 533q0 -132 34 -223.5t84 -143.5q117 113 117 367q0 172 -29 249.5t-89 77.5q-117 0 -117 -327z" />
<glyph unicode="&#x4a9;" horiz-adv-x="1093" d="M48 477q0 234 135.5 361t388.5 127q163 0 343 -40v-246h-66l-51 136q-83 47 -195 47q-263 0 -263 -385q0 -181 64.5 -285t177.5 -109q-133 101 -133 268q0 123 84.5 198.5t210.5 75.5t210.5 -75.5t84.5 -198.5q0 -80 -40 -153.5t-105 -112.5l21 -2h23q75 0 137 17v-72 q-29 -21 -80 -34.5t-111 -13.5q-51 0 -93.5 8t-61.5 19q-20 -11 -66 -19t-100 -8q-252 0 -383.5 128.5t-131.5 368.5zM683 364q0 -130 60 -208q62 80 62 195q0 171 -61 171t-61 -158z" />
<glyph unicode="&#x4aa;" horiz-adv-x="1479" d="M100 655q0 344 180.5 522.5t533.5 178.5q233 0 483 -67l6 -322h-90l-28 194q-132 90 -307 90q-232 0 -339 -144.5t-107 -448.5q0 -281 112 -428t326 -147q113 0 197.5 30t132.5 71l32 220h91l-6 -340q-92 -35 -223 -58.5t-240 -24.5q51 -28 84 -80t33 -116 q0 -102 -61 -158.5t-174 -56.5q-110 0 -201 54v85q78 -29 138 -29q54 0 83 31.5t29 89.5q0 75 -39.5 128t-104.5 65q-258 44 -399.5 217t-141.5 444z" />
<glyph unicode="&#x4ab;" horiz-adv-x="909" d="M70 472q0 155 56.5 265.5t161.5 169t244 58.5q140 0 305 -35v-278h-72l-42 165q-34 25 -67 35t-87 10q-59 0 -107 -47t-74.5 -132.5t-26.5 -204.5q0 -201 62.5 -287t198.5 -86q138 0 236 29v-77q-43 -33 -115 -53t-162 -23q51 -26 84.5 -77.5t33.5 -118.5 q0 -102 -61 -158.5t-174 -56.5q-110 0 -201 54v85q78 -29 138 -29q54 0 83 31.5t29 89.5q0 75 -36 129.5t-98 71.5q-158 44 -233.5 160t-75.5 310z" />
<glyph unicode="&#x4ac;" horiz-adv-x="1366" d="M32 966v375h1303v-375h-92l-27 249q-83 18 -328 18h-49v-1133l213 -27l-35 -510h-125l-129 437h-453v73l213 27v1135h-51q-229 0 -322 -20l-27 -249h-91z" />
<glyph unicode="&#x4ad;" horiz-adv-x="1006" d="M25 652v288h956v-288h-75l-43 166q-111 19 -189 19h-27v-747l153 -25l-16 -421h-115l-127 356h-348v65l164 25v747h-26q-78 0 -189 -19l-43 -166h-75z" />
<glyph unicode="&#x4ae;" horiz-adv-x="1479" d="M36 1268v73h690v-73l-180 -26l306 -562l296 562l-164 26v73h456v-73l-142 -26l-387 -714v-428l213 -27v-73h-742v73l213 27v422l-408 720z" />
<glyph unicode="&#x4af;" d="M0 874v66h481v-66l-112 -26l241 -536l217 538l-110 24v66h307v-66l-68 -20l-292 -679v-521l103 -24v-66h-494v66l102 24v512l-309 684z" />
<glyph unicode="&#x4b0;" horiz-adv-x="1479" d="M36 1268v73h690v-73l-180 -26l306 -562l296 562l-164 26v73h456v-73l-142 -26l-387 -714h304v-122h-304v-306l213 -27v-73h-742v73l213 27v306h-304v122h300l-404 714z" />
<glyph unicode="&#x4b1;" d="M0 0v104h375v62l-309 684l-66 24v66h481v-66l-112 -26l241 -536l217 538l-110 24v66h307v-66l-68 -20l-292 -679v-71h360v-104h-360v-346l103 -24v-66h-494v66l102 24v346h-375z" />
<glyph unicode="&#x4b2;" horiz-adv-x="1479" d="M38 0v73l148 27l431 548l-384 594l-151 26v73h653v-73l-170 -26l234 -362l285 362l-166 26v73h459v-73l-148 -26l-365 -463l439 -679l152 -27l-35 -510h-125l-129 437h-364v73l170 27l-290 447l-352 -447l166 -27v-73h-458z" />
<glyph unicode="&#x4b3;" d="M8 0v65l84 16l300 352l-270 417l-91 25v65h502v-65l-105 -27l137 -211l181 213l-94 25v65h320v-65l-83 -21l-264 -310l298 -458l90 -23l-16 -419h-115l-127 356h-244v65l105 23l-164 253l-218 -255l94 -21v-65h-320z" />
<glyph unicode="&#x4b4;" horiz-adv-x="1776" d="M87 966v375h956v-375h-92l-27 249q-66 12 -205 16v-1121h517v1131l-107 26v74h594v-74l-172 -26v-1141l200 -27l-35 -510h-125l-129 437h-1232v73l173 27v1131q-130 -3 -198 -16l-27 -249h-91z" />
<glyph unicode="&#x4b5;" horiz-adv-x="1247" d="M35 652v288h693v-288h-75l-43 166l-84 12v-727h304v837h384v-66l-95 -24v-760l115 -24l-16 -422h-115l-127 356h-834v66l95 24v740l-84 -12l-43 -166h-75z" />
<glyph unicode="&#x4b6;" horiz-adv-x="1503" d="M25 1268v73h591v-73l-133 -27v-424q0 -106 56.5 -164t154.5 -58q111 0 285 58v588l-163 27v73h652v-73l-173 -27v-1141l159 -27l-35 -510h-125l-129 437h-369v73l183 27v428q-224 -79 -364 -79q-167 0 -262 47t-140 137.5t-45 227.5v380z" />
<glyph unicode="&#x4b7;" horiz-adv-x="1155" d="M30 874v66h479v-66l-95 -24v-282q0 -79 27.5 -111.5t82.5 -32.5t99.5 11.5t93.5 27.5v387l-95 24v66h479v-66l-95 -24v-760l95 -25l-16 -421h-115l-127 356h-221v66l95 24v289q-178 -90 -320 -90q-133 0 -202.5 67t-69.5 199v295z" />
<glyph unicode="&#x4b8;" horiz-adv-x="1503" d="M25 1268v73h591v-73l-133 -27v-424q0 -98 50 -156t143 -66v534h110v-525q102 18 193 49v588l-163 27v73h652v-73l-173 -27v-1141l159 -27v-73h-658v73l183 27v428q-85 -31 -193 -57v-222h-110v204l-61 -4q-167 0 -262 47t-140 137.5t-45 227.5v380z" />
<glyph unicode="&#x4b9;" horiz-adv-x="1155" d="M30 874v66h479v-66l-95 -24v-282q0 -79 27 -111.5t80 -32.5v330h90v-321q32 6 106 30v387l-95 24v66h479v-66l-95 -24v-760l95 -24v-66h-479v66l95 24v289q-52 -26 -106 -47v-160h-90v133q-64 -16 -124 -16q-133 0 -202.5 67t-69.5 199v295z" />
<glyph unicode="&#x4ba;" horiz-adv-x="1503" d="M45 0v73l173 27v1141l-159 27v73h658v-73l-183 -27v-428q224 79 364 79q167 0 262 -47t140 -137.5t45 -227.5v-380l143 -27v-73h-591v73l133 27v424q0 106 -56.5 164t-154.5 58q-111 0 -285 -58v-588l163 -27v-73h-652z" />
<glyph unicode="&#x4bb;" horiz-adv-x="1139" d="M51 1355v66h385v-407q0 -66 -6 -156l69 35q142 72 255 72q260 0 260 -277v-598l94 -24v-66h-467v66l84 24v559q0 84 -35.5 131t-101.5 47q-76 0 -152 -34v-703l86 -24v-66h-467v66l92 24v1241z" />
<glyph unicode="&#x4bc;" horiz-adv-x="1803" d="M33 608v295h64l50 -153q17 -20 54 -35t80 -15l74 1q9 319 185.5 487t510.5 168q339 0 518 -175t179 -517l-2 -73h-1058q6 -191 51 -298.5t136 -159.5t237 -52q226 0 370 94l28 194h90l-6 -322q-250 -67 -498 -67q-350 0 -534.5 150t-204.5 461h-152q-93 0 -172 17z M687 701h729q-5 298 -93 426.5t-272 128.5q-185 0 -272.5 -130.5t-91.5 -424.5z" />
<glyph unicode="&#x4bd;" horiz-adv-x="1155" d="M33 479v275h64l50 -143q16 -19 53.5 -31.5t76.5 -12.5h52q19 201 123 298.5t297 97.5q191 0 276.5 -102t85.5 -317v-82h-493v-16q0 -149 24 -212t78 -96t148 -33q88 0 222 29v-77q-55 -33 -142.5 -54.5t-170.5 -21.5q-227 0 -338.5 116.5t-113.5 364.5h-120 q-93 0 -172 17zM619 567h218q0 134 -9 188.5t-30.5 80.5t-59.5 26q-60 0 -89.5 -65t-29.5 -230z" />
<glyph unicode="&#x4be;" horiz-adv-x="1803" d="M33 608v295h64l50 -153q17 -20 54 -35t80 -15l74 1q9 319 185.5 487t510.5 168q339 0 518 -175t179 -517l-2 -73h-1058q6 -191 51 -298.5t136 -159.5t237 -52q226 0 370 94l28 194h90l-6 -322q-237 -64 -473 -67v-288h-129v292q-305 21 -461.5 173.5t-173.5 433.5h-152 q-93 0 -172 17zM687 701h729q-5 298 -93 426.5t-272 128.5q-185 0 -272.5 -130.5t-91.5 -424.5z" />
<glyph unicode="&#x4bf;" horiz-adv-x="1155" d="M33 479v275h64l50 -143q16 -19 53.5 -31.5t76.5 -12.5h52q19 201 123 298.5t297 97.5q191 0 276.5 -102t85.5 -317v-82h-493v-16q0 -149 24 -212t78 -96t148 -33q88 0 222 29v-77q-36 -23 -103 -43.5t-150 -29.5v-292h-129v292q-193 17 -287 133.5t-96 344.5h-120 q-93 0 -172 17zM619 567h218q0 134 -9 188.5t-30.5 80.5t-59.5 26q-60 0 -89.5 -65t-29.5 -230z" />
<glyph unicode="&#x4c0;" horiz-adv-x="797" d="M69 0v74l172 26v1141l-172 27v73h659v-73l-172 -27v-1141l172 -26v-74h-659z" />
<glyph unicode="&#x4c1;" horiz-adv-x="2025" d="M4 0v73l115 27l453 744l-340 398l-144 26v73h412v-73l-113 -26l478 -558v558l-153 26v73h601v-73l-153 -26v-558l478 558l-113 26v73h412v-73l-144 -26l-341 -398l454 -744l115 -27v-73h-400l-353 638l-108 -87v-451l159 -27v-73h-613v73l159 27v451l-109 87l-352 -638 h-400zM625 1744h209q6 -102 54.5 -150.5t123.5 -48.5t123.5 48.5t54.5 150.5h209q-5 -146 -104.5 -218t-282.5 -72t-282.5 72t-104.5 218z" />
<glyph unicode="&#x4c2;" horiz-adv-x="1485" d="M4 0v64l82 20l277 528l-218 239l-95 23v66h304v-66l-65 -23l329 -379v378l-75 24v66h398v-66l-75 -24v-378l329 379l-65 23v66h304v-66l-95 -23l-219 -239l278 -528l82 -20v-64h-303l-219 444l-92 -55v-299l75 -24v-66h-398v66l75 24v299l-94 57l-217 -446h-303z M355 1380h209q6 -102 54.5 -150.5t123.5 -48.5t123.5 48.5t54.5 150.5h209q-5 -146 -104.5 -218t-282.5 -72t-282.5 72t-104.5 218z" />
<glyph unicode="&#x4c3;" horiz-adv-x="1510" d="M35 0v73l172 27v1142l-172 26v73h660v-73l-173 -26v-561l541 561l-123 26v73h459v-73l-164 -26l-458 -464q50 13 99 13q207 0 328 -60t176 -189t55 -376q0 -620 -667 -620q-107 0 -192.5 21t-159.5 47l-4 272h94l21 -143q94 -90 229 -90q185 0 265.5 121.5t80.5 389.5 q0 282 -71 396.5t-239 114.5q-54 0 -131 -12l-139 -107v-456l193 -27v-73h-680z" />
<glyph unicode="&#x4c4;" horiz-adv-x="1215" d="M54 0v66l95 24v760l-95 24v66h469v-66l-85 -24v-386l410 383l-96 29v63h360v-63l-100 -25l-273 -246l-119 -104l27 1q247 0 371.5 -120t124.5 -341q0 -232 -135.5 -357.5t-390.5 -125.5q-121 0 -268 31v282h71l45 -169q66 -41 152 -41q235 0 235 364q0 373 -292 373 q-31 0 -82 -7l-40 -27v-274l85 -24v-66h-469z" />
<glyph unicode="&#x4c5;" horiz-adv-x="1526" d="M5 288h71l44 -109q18 -41 60 -41q90 0 155.5 208.5t99.5 606.5l25 287l-188 28v73h1220v-73l-173 -27v-1141l173 -27l-210 -509h-125l46 436h-372v74l172 26v1131h-421l-25 -291q-33 -375 -80 -576t-121 -292.5t-187 -91.5q-94 0 -153 47z" />
<glyph unicode="&#x4c6;" horiz-adv-x="1149" d="M25 226h64l33 -88q15 -32 40 -32q103 0 179 483l41 260l-117 25v66h830v-66l-95 -24v-760l95 -24l-194 -462h-115l51 396h-221v66l95 24v747h-215l-40 -259q-40 -259 -78.5 -374t-94 -169.5t-138.5 -54.5q-33 0 -64 8t-48 19z" />
<glyph unicode="&#x4c7;" horiz-adv-x="1593" d="M35 0v74l172 26v1141l-172 27v73h659v-73l-172 -27v-496h548v496l-172 27v73h661v-73l-173 -27v-1034q0 -317 -168.5 -483.5t-498.5 -166.5q-107 0 -192.5 21t-159.5 47l-4 272h94l21 -143q94 -90 234 -90q190 0 274 131.5t84 419.5v420h-548v-535l172 -26v-74h-659z" />
<glyph unicode="&#x4c8;" horiz-adv-x="1180" d="M54 0v66l95 24v760l-95 24v66h479v-66l-95 -24v-318h304v318l-95 24v66h479v-66l-95 -24v-795q0 -244 -123.5 -370.5t-370.5 -126.5q-121 0 -268 31v282h71l45 -169q66 -41 152 -41q205 0 205 364v404h-304v-339l95 -24v-66h-479z" />
<glyph unicode="&#x4c9;" horiz-adv-x="1593" d="M35 0v74l172 26v1141l-172 27v73h659v-73l-172 -27v-496h548v496l-172 27v73h661v-73l-173 -27v-1141l173 -26l-210 -510h-125l46 436h-372v74l172 26v535h-548v-535l172 -26v-74h-659z" />
<glyph unicode="&#x4ca;" horiz-adv-x="1180" d="M54 0v66l95 24v760l-95 24v66h479v-66l-95 -24v-318h304v318l-95 24v66h479v-66l-95 -24v-760l95 -24l-194 -462h-115l51 396h-221v66l95 24v339h-304v-339l95 -24v-66h-479z" />
<glyph unicode="&#x4cb;" horiz-adv-x="1503" d="M25 1268v73h591v-73l-133 -27v-424q0 -106 56.5 -164t154.5 -58q111 0 285 58v588l-163 27v73h652v-73l-173 -27v-1141l159 -27v-73h-369l-129 -437h-125l-35 510l183 27v428q-224 -79 -364 -79q-167 0 -262 47t-140 137.5t-45 227.5v380z" />
<glyph unicode="&#x4cc;" horiz-adv-x="1155" d="M30 874v66h479v-66l-95 -24v-282q0 -79 27.5 -111.5t82.5 -32.5t99.5 11.5t93.5 27.5v387l-95 24v66h479v-66l-95 -24v-760l95 -25v-65h-221l-127 -356h-115l-16 422l95 24v289q-178 -90 -320 -90q-133 0 -202.5 67t-69.5 199v295z" />
<glyph unicode="&#x4cd;" horiz-adv-x="1933" d="M35 0v73l172 27v1142l-172 26v73h527l383 -882l391 882h538v-73l-172 -26v-1142l172 -27l-210 -510h-125l46 436l-378 1v73l180 27v1033l-505 -1133h-55l-495 1133v-1033l180 -27v-73h-477z" />
<glyph unicode="&#x4ce;" horiz-adv-x="1395" d="M54 0v66l95 24v761l-95 23v66h372l249 -582l260 582h396v-66l-85 -24v-760l85 -24l-194 -462h-115l51 396h-199v66l92 24v670l-331 -760h-48l-322 752v-662l92 -24v-66h-303z" />
<glyph unicode="&#x4cf;" horiz-adv-x="569" d="M40 0v66l102 24v1241l-96 24v66h385v-1331l103 -24v-66h-494z" />
<glyph unicode="&#x4d0;" horiz-adv-x="1479" d="M20 0v73l100 27l477 1252h290l475 -1252l102 -27v-73h-597v73l155 27l-128 347h-515l-123 -347l172 -27v-73h-408zM353 1818h209q6 -102 54.5 -150.5t123.5 -48.5t123.5 48.5t54.5 150.5h209q-5 -146 -104.5 -218t-282.5 -72t-282.5 72t-104.5 218zM420 557h436l-215 593 z" />
<glyph unicode="&#x4d1;" d="M66 260q0 106 43 169.5t124 94t255 34.5l122 3v137q0 170 -139 170q-84 0 -188 -52l-38 -117h-66v227q151 23 222 29t145 6q353 0 353 -260v-611l94 -24v-66h-346l-22 72q-78 -53 -141 -72.5t-127 -19.5q-291 0 -291 280zM103 1410h209q6 -102 54.5 -150.5t123.5 -48.5 t123.5 48.5t54.5 150.5h209q-5 -146 -104.5 -218t-282.5 -72t-282.5 72t-104.5 218zM354 266q0 -85 30 -125t78 -40q68 0 148 35v336l-84 -3q-97 -4 -134.5 -51t-37.5 -152z" />
<glyph unicode="&#x4d2;" horiz-adv-x="1479" d="M20 0v73l100 27l477 1252h290l475 -1252l102 -27v-73h-597v73l155 27l-128 347h-515l-123 -347l172 -27v-73h-408zM420 557h436l-215 593zM448 1585q0 48 36 83.5t85 35.5t84 -35.5t35 -83.5q0 -50 -35 -85.5t-84 -35.5q-48 0 -84.5 37t-36.5 84zM784 1585 q0 50 36.5 84.5t84.5 34.5q49 0 84 -34t35 -85q0 -50 -35 -85.5t-84 -35.5q-48 0 -84.5 35.5t-36.5 85.5z" />
<glyph unicode="&#x4d3;" d="M66 260q0 106 43 169.5t124 94t255 34.5l122 3v137q0 170 -139 170q-84 0 -188 -52l-38 -117h-66v227q151 23 222 29t145 6q353 0 353 -260v-611l94 -24v-66h-346l-22 72q-78 -53 -141 -72.5t-127 -19.5q-291 0 -291 280zM225 1251q0 48 36 83.5t85 35.5t84 -35.5 t35 -83.5q0 -50 -35 -85.5t-84 -35.5q-48 0 -84.5 37t-36.5 84zM354 266q0 -85 30 -125t78 -40q68 0 148 35v336l-84 -3q-97 -4 -134.5 -51t-37.5 -152zM561 1251q0 50 36.5 84.5t84.5 34.5q49 0 84 -34t35 -85q0 -50 -35 -85.5t-84 -35.5q-48 0 -84.5 35.5t-36.5 85.5z" />
<glyph unicode="&#x4d4;" horiz-adv-x="2048" d="M14 0v73l122 27l691 1152l-143 18v71h1174v-341h-91l-32 217q-112 14 -264 14h-200v-492h283l31 148h89v-412h-89l-31 152h-283v-517h245q198 0 278 16l57 248h91l-19 -374h-1139v73l172 27v347h-461l-205 -347l152 -27v-73h-428zM560 557h396v679z" />
<glyph unicode="&#x4d5;" horiz-adv-x="1479" d="M66 260q0 75 24 129t70.5 89.5t123.5 55t219 24.5l99 3v135q0 89 -34 130.5t-105 41.5q-92 0 -180 -51l-39 -118h-65v226q175 36 335 36q158 0 232 -70q93 74 242 74q205 0 309 -106.5t104 -314.5v-82h-523v-53q2 -116 30 -177t86 -94t155 -33q46 0 108.5 9t102.5 20v-77 q-52 -34 -132 -55t-158 -21q-136 0 -221.5 31.5t-138.5 92.5q-158 -125 -355 -125q-144 0 -216.5 68.5t-72.5 211.5zM354 266q0 -85 32 -125t80 -40q56 0 103 18.5t92 44.5q-26 32 -42.5 102.5t-16.5 153.5v52l-74 -3q-71 -4 -105.5 -24t-51.5 -63t-17 -116zM879 567h228 q0 167 -23.5 231t-79.5 64q-64 0 -94.5 -65.5t-30.5 -229.5z" />
<glyph unicode="&#x4d6;" horiz-adv-x="1366" d="M35 0v73l172 27v1142l-172 26v73h1142v-341h-91l-32 217q-112 14 -324 14h-208v-492h351l31 148h89v-412h-89l-31 152h-351v-517h253q258 0 338 16l57 248h91l-19 -374h-1207zM303 1744h209q6 -102 54.5 -150.5t123.5 -48.5t123.5 48.5t54.5 150.5h209 q-5 -146 -104.5 -218t-282.5 -72t-282.5 72t-104.5 218z" />
<glyph unicode="&#x4d7;" horiz-adv-x="909" d="M70 475q0 246 105.5 367t318.5 121q191 0 276.5 -102t85.5 -317v-82h-493v-16q0 -149 24 -212t78 -96t148 -33q88 0 222 29v-77q-55 -33 -142.5 -54.5t-170.5 -21.5q-231 0 -341.5 120.5t-110.5 373.5zM83 1410h209q6 -102 54.5 -150.5t123.5 -48.5t123.5 48.5 t54.5 150.5h209q-5 -146 -104.5 -218t-282.5 -72t-282.5 72t-104.5 218zM364 567h218q0 134 -9 188.5t-30.5 80.5t-59.5 26q-60 0 -89.5 -65t-29.5 -230z" />
<glyph unicode="&#x4d8;" horiz-adv-x="1513" d="M60 672l2 73h1058q-9 275 -103.5 392.5t-290.5 117.5q-211 0 -355 -94l-28 -194h-90l6 322q250 67 483 67q354 0 532.5 -172.5t178.5 -511.5q0 -341 -178 -516.5t-518 -175.5q-339 0 -518 175t-179 517zM392 635q5 -298 93 -426.5t272 -128.5q185 0 272.5 130.5 t91.5 424.5h-729z" />
<glyph unicode="&#x4d9;" horiz-adv-x="909" d="M53 400v82h493v16q0 149 -24 211.5t-78.5 96t-147.5 33.5q-88 0 -222 -29v77q55 33 142.5 54.5t170.5 21.5q231 0 341.5 -120.5t110.5 -373.5q0 -246 -105.5 -367t-318.5 -121q-191 0 -276.5 102t-85.5 317zM327 377q0 -134 9 -188t30.5 -80.5t59.5 -26.5q60 0 89.5 65 t29.5 230h-218z" />
<glyph unicode="&#x4da;" horiz-adv-x="1513" d="M60 672l2 73h1058q-9 275 -103.5 392.5t-290.5 117.5q-211 0 -355 -94l-28 -194h-90l6 322q250 67 483 67q354 0 532.5 -172.5t178.5 -511.5q0 -341 -178 -516.5t-518 -175.5q-339 0 -518 175t-179 517zM392 635q5 -298 93 -426.5t272 -128.5q185 0 272.5 130.5 t91.5 424.5h-729zM451 1585q0 48 36 83.5t85 35.5t84 -35.5t35 -83.5q0 -50 -35 -85.5t-84 -35.5q-48 0 -84.5 37t-36.5 84zM787 1585q0 50 36.5 84.5t84.5 34.5q49 0 84 -34t35 -85q0 -50 -35 -85.5t-84 -35.5q-48 0 -84.5 35.5t-36.5 85.5z" />
<glyph unicode="&#x4db;" horiz-adv-x="909" d="M53 400v82h493v16q0 149 -24 211.5t-78.5 96t-147.5 33.5q-88 0 -222 -29v77q55 33 142.5 54.5t170.5 21.5q231 0 341.5 -120.5t110.5 -373.5q0 -246 -105.5 -367t-318.5 -121q-191 0 -276.5 102t-85.5 317zM143 1251q0 48 36 83.5t85 35.5t84 -35.5t35 -83.5 q0 -50 -35 -85.5t-84 -35.5q-48 0 -84.5 37t-36.5 84zM327 377q0 -134 9 -188t30.5 -80.5t59.5 -26.5q60 0 89.5 65t29.5 230h-218zM479 1251q0 50 36.5 84.5t84.5 34.5q49 0 84 -34t35 -85q0 -50 -35 -85.5t-84 -35.5q-48 0 -84.5 35.5t-36.5 85.5z" />
<glyph unicode="&#x4dc;" horiz-adv-x="2025" d="M4 0v73l115 27l453 744l-340 398l-144 26v73h412v-73l-113 -26l478 -558v558l-153 26v73h601v-73l-153 -26v-558l478 558l-113 26v73h412v-73l-144 -26l-341 -398l454 -744l115 -27v-73h-400l-353 638l-108 -87v-451l159 -27v-73h-613v73l159 27v451l-109 87l-352 -638 h-400zM724 1585q0 48 36 83.5t85 35.5t84 -35.5t35 -83.5q0 -50 -35 -85.5t-84 -35.5q-48 0 -84.5 37t-36.5 84zM1060 1585q0 50 36.5 84.5t84.5 34.5q49 0 84 -34t35 -85q0 -50 -35 -85.5t-84 -35.5q-48 0 -84.5 35.5t-36.5 85.5z" />
<glyph unicode="&#x4dd;" horiz-adv-x="1485" d="M4 0v64l82 20l277 528l-218 239l-95 23v66h304v-66l-65 -23l329 -379v378l-75 24v66h398v-66l-75 -24v-378l329 379l-65 23v66h304v-66l-95 -23l-219 -239l278 -528l82 -20v-64h-303l-219 444l-92 -55v-299l75 -24v-66h-398v66l75 24v299l-94 57l-217 -446h-303z M453 1251q0 48 36 83.5t85 35.5t84 -35.5t35 -83.5q0 -50 -35 -85.5t-84 -35.5q-48 0 -84.5 37t-36.5 84zM789 1251q0 50 36.5 84.5t84.5 34.5q49 0 84 -34t35 -85q0 -50 -35 -85.5t-84 -35.5q-48 0 -84.5 35.5t-36.5 85.5z" />
<glyph unicode="&#x4de;" horiz-adv-x="1081" d="M94 345h92l52 -215q39 -22 100 -35.5t106 -13.5q267 0 267 294q0 243 -241 258l-120 7v121l116 8q94 6 145.5 69t51.5 176q0 240 -207 240q-53 0 -108.5 -14.5t-89.5 -37.5l-43 -194h-87v305q172 43 356 43q491 0 491 -330q0 -132 -80 -217.5t-218 -106.5 q348 -42 348 -337q0 -180 -144 -282.5t-405 -102.5q-204 0 -370 40zM213 1585q0 48 36 83.5t85 35.5t84 -35.5t35 -83.5q0 -50 -35 -85.5t-84 -35.5q-48 0 -84.5 37t-36.5 84zM549 1585q0 50 36.5 84.5t84.5 34.5q49 0 84 -34t35 -85q0 -50 -35 -85.5t-84 -35.5 q-48 0 -84.5 35.5t-36.5 85.5z" />
<glyph unicode="&#x4df;" horiz-adv-x="823" d="M25 59v80q112 -35 241 -35q110 0 163.5 41.5t53.5 128.5q0 161 -181 161h-74v101h87q153 0 153 177q0 152 -156 152q-35 0 -73.5 -13t-63.5 -35l-34 -125h-72v242q155 31 278 31q205 0 304.5 -57.5t99.5 -181.5q0 -75 -49 -134t-143 -94v-6q94 -14 154 -73t60 -145 q0 -147 -112 -220.5t-344 -73.5q-88 0 -175.5 25.5t-116.5 53.5zM93 1251q0 48 36 83.5t85 35.5t84 -35.5t35 -83.5q0 -50 -35 -85.5t-84 -35.5q-48 0 -84.5 37t-36.5 84zM429 1251q0 50 36.5 84.5t84.5 34.5q49 0 84 -34t35 -85q0 -50 -35 -85.5t-84 -35.5 q-48 0 -84.5 35.5t-36.5 85.5z" />
<glyph unicode="&#x4e0;" horiz-adv-x="1081" d="M82 375h92l44 -245q39 -22 100 -35.5t106 -13.5q136 0 201.5 76.5t65.5 237.5q0 154 -73.5 234.5t-209.5 80.5h-83v106l303 419h-68q-228 0 -320 -20l-31 -211h-89v337h844v-106l-350 -437q188 -25 289.5 -133t101.5 -280q0 -193 -144 -299t-405 -106q-204 0 -370 40z " />
<glyph unicode="&#x4e1;" horiz-adv-x="939" d="M33 -286q126 -32 266 -32q138 0 209.5 75t71.5 243q0 172 -67 255.5t-209 83.5h-94v60l292 451h-157q-56 0 -108 -9.5t-72 -25.5l-31 -155h-72v280h774v-49l-319 -469q354 -59 354 -405q0 -221 -134 -340t-386 -119q-89 0 -175 20.5t-143 58.5v77z" />
<glyph unicode="&#x4e2;" horiz-adv-x="1593" d="M35 0v74l172 26v1141l-172 27v73h659v-73l-172 -27v-867l548 810v57l-172 27v73h661v-73l-173 -27v-1141l173 -26v-74h-661v74l172 26v893l-548 -810v-83l172 -26v-74h-659zM483 1455v150h628v-150h-628z" />
<glyph unicode="&#x4e3;" horiz-adv-x="1180" d="M54 0v66l95 24v760l-95 24v66h469v-66l-85 -24v-504l304 396v108l-85 24v66h469v-66l-95 -24v-760l95 -24v-66h-469v66l85 24v499l-304 -396v-103l85 -24v-66h-469zM276 1121v150h628v-150h-628z" />
<glyph unicode="&#x4e4;" horiz-adv-x="1593" d="M35 0v74l172 26v1141l-172 27v73h659v-73l-172 -27v-867l548 810v57l-172 27v73h661v-73l-173 -27v-1141l173 -26v-74h-661v74l172 26v893l-548 -810v-83l172 -26v-74h-659zM509 1585q0 48 36 83.5t85 35.5t84 -35.5t35 -83.5q0 -50 -35 -85.5t-84 -35.5q-48 0 -84.5 37 t-36.5 84zM845 1585q0 50 36.5 84.5t84.5 34.5q49 0 84 -34t35 -85q0 -50 -35 -85.5t-84 -35.5q-48 0 -84.5 35.5t-36.5 85.5z" />
<glyph unicode="&#x4e5;" horiz-adv-x="1180" d="M54 0v66l95 24v760l-95 24v66h469v-66l-85 -24v-504l304 396v108l-85 24v66h469v-66l-95 -24v-760l95 -24v-66h-469v66l85 24v499l-304 -396v-103l85 -24v-66h-469zM302 1251q0 48 36 83.5t85 35.5t84 -35.5t35 -83.5q0 -50 -35 -85.5t-84 -35.5q-48 0 -84.5 37t-36.5 84 zM638 1251q0 50 36.5 84.5t84.5 34.5q49 0 84 -34t35 -85q0 -50 -35 -85.5t-84 -35.5q-48 0 -84.5 35.5t-36.5 85.5z" />
<glyph unicode="&#x4e6;" horiz-adv-x="1593" d="M100 672q0 684 697 684q344 0 520 -173.5t176 -510.5q0 -341 -178 -516.5t-518 -175.5q-339 0 -518 175t-179 517zM432 672q0 -319 87.5 -455.5t277.5 -136.5q189 0 276.5 137t87.5 455q0 317 -87.5 450t-276.5 133q-190 0 -277.5 -133t-87.5 -450zM511 1585 q0 48 36 83.5t85 35.5t84 -35.5t35 -83.5q0 -50 -35 -85.5t-84 -35.5q-48 0 -84.5 37t-36.5 84zM847 1585q0 50 36.5 84.5t84.5 34.5q49 0 84 -34t35 -85q0 -50 -35 -85.5t-84 -35.5q-48 0 -84.5 35.5t-36.5 85.5z" />
<glyph unicode="&#x4e7;" d="M78 475q0 249 107.5 369.5t328.5 120.5q223 0 327.5 -124.5t104.5 -365.5q0 -253 -108.5 -374t-331.5 -121q-216 0 -322 122.5t-106 372.5zM223 1251q0 48 36 83.5t85 35.5t84 -35.5t35 -83.5q0 -50 -35 -85.5t-84 -35.5q-48 0 -84.5 37t-36.5 84zM371 475 q0 -231 30.5 -313t106.5 -82q79 0 112 86.5t33 308.5q0 220 -32.5 304.5t-112.5 84.5q-77 0 -107 -81t-30 -308zM559 1251q0 50 36.5 84.5t84.5 34.5q49 0 84 -34t35 -85q0 -50 -35 -85.5t-84 -35.5q-48 0 -84.5 35.5t-36.5 85.5z" />
<glyph unicode="&#x4e8;" horiz-adv-x="1593" d="M100 672q0 684 697 684q344 0 520 -173.5t176 -510.5q0 -341 -178 -516.5t-518 -175.5q-339 0 -518 175t-179 517zM432 635q5 -298 93 -426.5t272 -128.5q185 0 272.5 130.5t91.5 424.5h-729zM433 745h727q-9 269 -95.5 389.5t-267.5 120.5q-180 0 -267.5 -120.5 t-96.5 -389.5z" />
<glyph unicode="&#x4e9;" d="M78 475q0 249 107.5 369.5t328.5 120.5q223 0 327.5 -124.5t104.5 -365.5q0 -253 -108.5 -374t-331.5 -121q-216 0 -322 122.5t-106 372.5zM371 444q0 -202 31 -283t106 -81q76 0 109.5 79.5t35.5 284.5h-282zM371 547h281q-4 177 -37.5 247t-106.5 70 q-72 0 -103.5 -71.5t-33.5 -245.5z" />
<glyph unicode="&#x4ea;" horiz-adv-x="1593" d="M100 672q0 684 697 684q344 0 520 -173.5t176 -510.5q0 -341 -178 -516.5t-518 -175.5q-339 0 -518 175t-179 517zM432 635q5 -298 93 -426.5t272 -128.5q185 0 272.5 130.5t91.5 424.5h-729zM433 745h727q-9 269 -95.5 389.5t-267.5 120.5q-180 0 -267.5 -120.5 t-96.5 -389.5zM514 1585q0 48 36 83.5t85 35.5t84 -35.5t35 -83.5q0 -50 -35 -85.5t-84 -35.5q-48 0 -84.5 37t-36.5 84zM850 1585q0 50 36.5 84.5t84.5 34.5q49 0 84 -34t35 -85q0 -50 -35 -85.5t-84 -35.5q-48 0 -84.5 35.5t-36.5 85.5z" />
<glyph unicode="&#x4eb;" d="M78 475q0 249 107.5 369.5t328.5 120.5q223 0 327.5 -124.5t104.5 -365.5q0 -253 -108.5 -374t-331.5 -121q-216 0 -322 122.5t-106 372.5zM223 1251q0 48 36 83.5t85 35.5t84 -35.5t35 -83.5q0 -50 -35 -85.5t-84 -35.5q-48 0 -84.5 37t-36.5 84zM371 444 q0 -202 31 -283t106 -81q76 0 109.5 79.5t35.5 284.5h-282zM371 547h281q-4 177 -37.5 247t-106.5 70q-72 0 -103.5 -71.5t-33.5 -245.5zM559 1251q0 50 36.5 84.5t84.5 34.5q49 0 84 -34t35 -85q0 -50 -35 -85.5t-84 -35.5q-48 0 -84.5 35.5t-36.5 85.5z" />
<glyph unicode="&#x4ec;" horiz-adv-x="1389" d="M142 404h91l32 -220q44 -41 122 -71t182 -30q186 0 287 136t106 415h-499v112h498q-11 266 -101 385.5t-279 119.5q-160 0 -281 -90l-28 -194h-90l6 322q247 67 462 67q318 0 481.5 -170.5t163.5 -530.5q0 -319 -175 -497t-491 -178q-117 0 -254.5 24.5t-226.5 59.5z M365 1585q0 48 36 83.5t85 35.5t84 -35.5t35 -83.5q0 -50 -35 -85.5t-84 -35.5q-48 0 -84.5 37t-36.5 84zM701 1585q0 50 36.5 84.5t84.5 34.5q49 0 84 -34t35 -85q0 -50 -35 -85.5t-84 -35.5q-48 0 -84.5 35.5t-36.5 85.5z" />
<glyph unicode="&#x4ed;" horiz-adv-x="885" d="M51 57v77q106 -29 222 -29q126 0 185.5 82.5t64.5 245.5h-303v103h302q-4 154 -51.5 240t-129.5 86q-87 0 -150 -45l-42 -165h-72v278q165 35 301 35q212 0 324.5 -126t112.5 -358q0 -246 -125 -373t-365 -127q-79 0 -153.5 20t-120.5 56zM88 1251q0 48 36 83.5t85 35.5 t84 -35.5t35 -83.5q0 -50 -35 -85.5t-84 -35.5q-48 0 -84.5 37t-36.5 84zM424 1251q0 50 36.5 84.5t84.5 34.5q49 0 84 -34t35 -85q0 -50 -35 -85.5t-84 -35.5q-48 0 -84.5 35.5t-36.5 85.5z" />
<glyph unicode="&#x4ee;" horiz-adv-x="1503" d="M58 1268v73h690v-73l-180 -26l306 -562l296 562l-164 26v73h456v-73l-142 -26l-436 -808q-120 -223 -181.5 -301t-127.5 -115.5t-150 -37.5q-49 0 -99 13t-78 30l-12 281h65l52 -117q36 -49 90 -49q72 0 131 56t129 192l-494 856zM470 1455v150h628v-150h-628z" />
<glyph unicode="&#x4ef;" d="M20 874v66h481v-66l-112 -26l221 -520l197 522l-110 24v66h307v-66l-68 -20l-371 -913q-64 -163 -112 -236.5t-106.5 -110t-133.5 -36.5q-81 0 -165 19v242h60l43 -126q29 -23 74 -23q38 0 67 18t54.5 52t48.5 83.5t67 147.5l-376 879zM222 1121v150h628v-150h-628z" />
<glyph unicode="&#x4f0;" horiz-adv-x="1503" d="M58 1268v73h690v-73l-180 -26l306 -562l296 562l-164 26v73h456v-73l-142 -26l-436 -808q-120 -223 -181.5 -301t-127.5 -115.5t-150 -37.5q-49 0 -99 13t-78 30l-12 281h65l52 -117q36 -49 90 -49q72 0 131 56t129 192l-494 856zM496 1585q0 48 36 83.5t85 35.5 t84 -35.5t35 -83.5q0 -50 -35 -85.5t-84 -35.5q-48 0 -84.5 37t-36.5 84zM832 1585q0 50 36.5 84.5t84.5 34.5q49 0 84 -34t35 -85q0 -50 -35 -85.5t-84 -35.5q-48 0 -84.5 35.5t-36.5 85.5z" />
<glyph unicode="&#x4f1;" d="M20 874v66h481v-66l-112 -26l221 -520l197 522l-110 24v66h307v-66l-68 -20l-371 -913q-64 -163 -112 -236.5t-106.5 -110t-133.5 -36.5q-81 0 -165 19v242h60l43 -126q29 -23 74 -23q38 0 67 18t54.5 52t48.5 83.5t67 147.5l-376 879zM248 1251q0 48 36 83.5t85 35.5 t84 -35.5t35 -83.5q0 -50 -35 -85.5t-84 -35.5q-48 0 -84.5 37t-36.5 84zM584 1251q0 50 36.5 84.5t84.5 34.5q49 0 84 -34t35 -85q0 -50 -35 -85.5t-84 -35.5q-48 0 -84.5 35.5t-36.5 85.5z" />
<glyph unicode="&#x4f2;" horiz-adv-x="1503" d="M58 1268v73h690v-73l-180 -26l306 -562l296 562l-164 26v73h456v-73l-142 -26l-436 -808q-120 -223 -181.5 -301t-127.5 -115.5t-150 -37.5q-49 0 -99 13t-78 30l-12 281h65l52 -117q36 -49 90 -49q72 0 131 56t129 192l-494 856zM504 1452v33l138 293h251v-37l-292 -289 h-97zM855 1452v33l137 293h252v-37l-293 -289h-96z" />
<glyph unicode="&#x4f3;" d="M20 874v66h481v-66l-112 -26l221 -520l197 522l-110 24v66h307v-66l-68 -20l-371 -913q-64 -163 -112 -236.5t-106.5 -110t-133.5 -36.5q-81 0 -165 19v242h60l43 -126q29 -23 74 -23q38 0 67 18t54.5 52t48.5 83.5t67 147.5l-376 879zM217 1118v33l138 293h251v-37 l-292 -289h-97zM568 1118v33l137 293h252v-37l-293 -289h-96z" />
<glyph unicode="&#x4f4;" horiz-adv-x="1503" d="M25 1268v73h591v-73l-133 -27v-424q0 -106 56.5 -164t154.5 -58q111 0 285 58v588l-163 27v73h652v-73l-173 -27v-1141l159 -27v-73h-658v73l183 27v428q-224 -79 -364 -79q-167 0 -262 47t-140 137.5t-45 227.5v380zM426 1585q0 48 36 83.5t85 35.5t84 -35.5t35 -83.5 q0 -50 -35 -85.5t-84 -35.5q-48 0 -84.5 37t-36.5 84zM762 1585q0 50 36.5 84.5t84.5 34.5q49 0 84 -34t35 -85q0 -50 -35 -85.5t-84 -35.5q-48 0 -84.5 35.5t-36.5 85.5z" />
<glyph unicode="&#x4f5;" horiz-adv-x="1155" d="M30 874v66h479v-66l-95 -24v-282q0 -79 27.5 -111.5t82.5 -32.5t99.5 11.5t93.5 27.5v387l-95 24v66h479v-66l-95 -24v-760l95 -24v-66h-479v66l95 24v289q-178 -90 -320 -90q-133 0 -202.5 67t-69.5 199v295zM278 1251q0 48 36 83.5t85 35.5t84 -35.5t35 -83.5 q0 -50 -35 -85.5t-84 -35.5q-48 0 -84.5 37t-36.5 84zM614 1251q0 50 36.5 84.5t84.5 34.5q49 0 84 -34t35 -85q0 -50 -35 -85.5t-84 -35.5q-48 0 -84.5 35.5t-36.5 85.5z" />
<glyph unicode="&#x4f6;" horiz-adv-x="1303" d="M37 1268v73h1137l18 -405h-90l-62 279q-100 20 -313 20h-203v-1135l207 -27l-35 -510h-125l-129 437h-404v73l171 26v1142z" />
<glyph unicode="&#x4f7;" horiz-adv-x="930" d="M54 0v66l95 24v760l-95 24v66h823v-308h-75l-43 186q-111 19 -199 19h-122v-747l153 -24l-16 -422h-105l-137 356h-279z" />
<glyph unicode="&#x4f8;" horiz-adv-x="2011" d="M35 1268v73h719v-73l-232 -27v-478h160q276 0 416.5 -96.5t140.5 -287.5q0 -379 -557 -379h-646v73l171 26v1142zM522 104h127q127 0 193.5 70.5t66.5 204.5t-71.5 204t-198.5 70h-117v-549zM719 1585q0 48 36 83.5t85 35.5t84 -35.5t35 -83.5q0 -50 -35 -85.5t-84 -35.5 q-48 0 -84.5 37t-36.5 84zM1055 1585q0 50 36.5 84.5t84.5 34.5q49 0 84 -34t35 -85q0 -50 -35 -85.5t-84 -35.5q-48 0 -84.5 35.5t-36.5 85.5zM1317 0v74l172 26v1141l-172 27v73h659v-73l-172 -27v-1141l172 -26v-74h-659z" />
<glyph unicode="&#x4f9;" horiz-adv-x="1599" d="M54 0v66l95 24v760l-95 24v66h499v-66l-115 -24v-306h116q169 0 268.5 -26.5t146 -83.5t46.5 -162q0 -103 -48 -160.5t-149.5 -84.5t-270.5 -27h-493zM438 90h91q99 0 147 42t48 141q0 181 -187 181h-99v-364zM511 1251q0 48 36 83.5t85 35.5t84 -35.5t35 -83.5 q0 -50 -35 -85.5t-84 -35.5q-48 0 -84.5 37t-36.5 84zM847 1251q0 50 36.5 84.5t84.5 34.5q49 0 84 -34t35 -85q0 -50 -35 -85.5t-84 -35.5q-48 0 -84.5 35.5t-36.5 85.5zM1066 0v66l95 24v760l-95 24v66h479v-66l-95 -24v-760l95 -24v-66h-479z" />
<glyph unicode="&#x4fa;" horiz-adv-x="1303" d="M37 654v122h172v465l-172 27v73h1137l18 -405h-90l-62 279q-100 20 -313 20h-203v-459h302v-122h-302v-555l207 -26v-228q0 -137 -70 -212t-192 -75q-92 0 -162 35l-7 233h71l46 -122q31 -36 78 -36q114 0 114 195v137h-571v73l171 26v555h-172z" />
<glyph unicode="&#x4fb;" horiz-adv-x="930" d="M54 0v66l95 24v348h-95v104h95v308l-95 24v66h823v-308h-75l-43 186q-111 19 -199 19h-122v-295h190v-104h-190v-348l153 -24v-221q0 -137 -70 -212t-192 -75q-92 0 -162 35l-7 233h71l46 -122q31 -36 78 -36q114 0 114 195v137h-415z" />
<glyph unicode="&#x4fc;" horiz-adv-x="1479" d="M38 0v73l148 27l431 548l-384 594l-151 26v73h653v-73l-170 -26l234 -362l285 362l-166 26v73h459v-73l-148 -26l-365 -463l339 -526q60 -92 94 -170.5t34 -158.5q0 -112 -52 -195t-145.5 -127.5t-213.5 -44.5q-133 0 -249 36v276h86l23 -160q19 -23 54 -36t77 -13 q78 0 124 50.5t46 130.5q0 88 -97 241l-302 465l-352 -447l166 -27v-73h-458z" />
<glyph unicode="&#x4fd;" d="M8 0v65l84 16l300 352l-270 417l-91 25v65h502v-65l-105 -27l137 -211l181 213l-94 25v65h320v-65l-83 -21l-264 -310l139 -213q109 -165 145.5 -259.5t36.5 -187.5q0 -98 -49 -173.5t-136 -114.5t-193 -39q-134 0 -224 35v278h72l42 -164q38 -47 107 -47q76 0 120.5 43 t44.5 106q0 55 -33 131.5t-141 240.5l-104 161l-218 -255l94 -21v-65h-320z" />
<glyph unicode="&#x4fe;" horiz-adv-x="1479" d="M38 0v73l148 27l431 548l-69 107h-358v122h279l-236 365l-151 26v73h653v-73l-170 -26l234 -362l285 362l-166 26v73h459v-73l-148 -26l-288 -365h336v-122h-398l424 -655l152 -27v-73h-653v73l170 27l-290 447l-352 -447l166 -27v-73h-458z" />
<glyph unicode="&#x4ff;" d="M8 0v65l84 16l300 352l-66 102h-226v104h158l-136 211l-91 25v65h502v-65l-105 -27l137 -209l181 211l-94 25v65h320v-65l-83 -21l-183 -215h175v-104h-250l292 -449l90 -21v-65h-502v65l105 23l-164 253l-218 -255l94 -21v-65h-320z" />
<glyph unicode="&#x2000;" />
<glyph unicode="&#x2001;" horiz-adv-x="2048" />
<glyph unicode="&#x2002;" />
<glyph unicode="&#x2003;" horiz-adv-x="2048" />
<glyph unicode="&#x2004;" horiz-adv-x="683" />
<glyph unicode="&#x2005;" horiz-adv-x="512" />
<glyph unicode="&#x2006;" horiz-adv-x="341" />
<glyph unicode="&#x2007;" />
<glyph unicode="&#x2008;" horiz-adv-x="512" />
<glyph unicode="&#x2009;" horiz-adv-x="410" />
<glyph unicode="&#x200a;" horiz-adv-x="171" />
<glyph unicode="&#x200b;" horiz-adv-x="0" />
<glyph unicode="&#x200c;" horiz-adv-x="0" d="M-42 -273v1560h84v-1560h-84z" />
<glyph unicode="&#x200d;" horiz-adv-x="0" d="M-224 1023l169 168l-169 167l55 56l169 -170l169 170l55 -56l-169 -167l169 -168l-55 -55l-127 128v-1369h-84v1369l-127 -128z" />
<glyph unicode="&#x200e;" horiz-adv-x="0" d="M-41 -273v1506h330l-132 125l55 56l223 -221l-223 -219l-55 55l132 125h-248v-1427h-82z" />
<glyph unicode="&#x200f;" horiz-adv-x="0" d="M-436 1193l223 221l55 -56l-132 -125h330v-1506h-82v1427h-248l132 -125l-55 -55z" />
<glyph unicode="&#x2010;" horiz-adv-x="682" d="M75 395v174h532v-174h-532z" />
<glyph unicode="&#x2011;" horiz-adv-x="682" d="M75 395v174h532v-174h-532z" />
<glyph unicode="&#x2012;" d="M-14 406v143h1052v-143h-1052z" />
<glyph unicode="&#x2013;" d="M-14 406v143h1052v-143h-1052z" />
<glyph unicode="&#x2014;" horiz-adv-x="2048" d="M-14 406v143h2076v-143h-2076z" />
<glyph unicode="&#x2015;" horiz-adv-x="2048" d="M-14 406v143h2076v-143h-2076z" />
<glyph unicode="&#x2016;" horiz-adv-x="664" d="M109 0v1421h160v-1421h-160zM395 0v1421h160v-1421h-160z" />
<glyph unicode="&#x2017;" d="M-16 -141h1056v-144h-1056v144zM-16 -390h1056v-144h-1056v144z" />
<glyph unicode="&#x2018;" horiz-adv-x="682" d="M161 936q0 155 103 263.5t305 162.5v-92q-63 -19 -107.5 -49t-70 -68.5t-25.5 -73.5q0 -23 15.5 -38.5t61.5 -39.5q77 -41 77 -124q0 -61 -44.5 -97.5t-117.5 -36.5q-85 0 -141 54.5t-56 138.5z" />
<glyph unicode="&#x2019;" horiz-adv-x="682" d="M127 743v93q63 19 108.5 50t70 69t24.5 71q0 24 -19 42t-57 37q-76 38 -76 124q0 61 43.5 97t116.5 36q84 0 140.5 -54t56.5 -141q0 -157 -104 -264t-304 -160z" />
<glyph unicode="&#x201a;" horiz-adv-x="682" d="M117 -225q63 19 108 50t69.5 68.5t24.5 71.5q0 22 -15 38t-60 41q-76 40 -76 124q0 61 43.5 97t116.5 36q85 0 140.5 -55t55.5 -140q0 -316 -407 -423v92z" />
<glyph unicode="&#x201b;" horiz-adv-x="682" d="M147 1167q0 87 56.5 141t140.5 54q74 0 117 -36t43 -97q0 -86 -76 -124q-37 -19 -56.5 -37t-19.5 -42q0 -34 24.5 -71.5t69 -68t109.5 -50.5v-93q-200 53 -304 160t-104 264z" />
<glyph unicode="&#x201c;" d="M99 936q0 155 103 263.5t305 162.5v-92q-63 -19 -107.5 -49t-70 -68.5t-25.5 -73.5q0 -23 15.5 -38.5t61.5 -39.5q77 -41 77 -124q0 -61 -44.5 -97.5t-117.5 -36.5q-85 0 -141 54.5t-56 138.5zM549 936q0 155 103 263.5t305 162.5v-92q-63 -19 -107.5 -49t-70 -68.5 t-25.5 -73.5q0 -23 15.5 -38.5t61.5 -39.5q77 -41 77 -124q0 -61 -44.5 -97.5t-117.5 -36.5q-85 0 -141 54.5t-56 138.5z" />
<glyph unicode="&#x201d;" d="M77 743v93q63 19 108 50t69.5 68.5t24.5 71.5q0 24 -18.5 41.5t-57.5 37.5q-77 39 -77 124q0 62 44.5 97.5t117.5 35.5q84 0 140 -55.5t56 -139.5q0 -155 -104.5 -263.5t-302.5 -160.5zM527 743v93q63 19 108 50t69.5 68.5t24.5 71.5q0 24 -18.5 41.5t-57.5 37.5 q-77 39 -77 124q0 62 44.5 97.5t117.5 35.5q84 0 139 -54.5t55 -140.5q0 -156 -102 -263t-303 -161z" />
<glyph unicode="&#x201e;" d="M59 -225q63 19 108 50t69.5 68.5t24.5 71.5q0 22 -15 38t-60 41q-76 40 -76 124q0 65 45 99t115 34q85 0 140.5 -55t55.5 -140q0 -315 -407 -423v92zM509 -225q63 19 108 50t69.5 68.5t24.5 71.5q0 22 -15 38t-60 41q-76 40 -76 124q0 65 45 99t115 34q85 0 140.5 -55 t55.5 -140q0 -316 -407 -423v92z" />
<glyph unicode="&#x201f;" d="M77 1167q0 87 56.5 141t140.5 54q74 0 117 -36t43 -97q0 -86 -76 -124q-37 -19 -56.5 -37t-19.5 -42q0 -34 24.5 -71.5t69 -68t109.5 -50.5v-93q-200 53 -304 160t-104 264zM524 1167q0 87 56.5 141t140.5 54q74 0 117 -36t43 -97q0 -86 -76 -124q-37 -19 -56.5 -37 t-19.5 -42q0 -34 24.5 -71.5t69 -68t109.5 -50.5v-93q-200 53 -304 160t-104 264z" />
<glyph unicode="&#x2020;" d="M53 854v236l406 -64l-66 395h238l-66 -395l406 64v-236l-406 66l80 -160l-100 -1000h-66l-100 1000l80 160z" />
<glyph unicode="&#x2021;" d="M53 92v238l406 -68l-82 150l92 178l-92 180l82 150l-406 -66v236l406 -64l-64 395h238l-68 -395l406 64v-236l-406 66l86 -150l-96 -180l96 -178l-86 -150l406 68v-238l-406 64l68 -396h-238l64 396z" />
<glyph unicode="&#x2022;" horiz-adv-x="717" d="M81 678q0 116 81.5 196.5t195.5 80.5t195.5 -80.5t81.5 -196.5t-81.5 -196.5t-195.5 -80.5t-195.5 80.5t-81.5 196.5z" />
<glyph unicode="&#x2026;" horiz-adv-x="2048" d="M170 137q0 69 48 117.5t118 48.5q69 0 117.5 -48t48.5 -118q0 -69 -48 -117.5t-118 -48.5q-69 0 -117.5 48t-48.5 118zM860 137q0 69 48 117.5t118 48.5q69 0 117.5 -48t48.5 -118q0 -69 -48 -117.5t-118 -48.5q-69 0 -117.5 48t-48.5 118zM1550 137q0 69 48 117.5 t118 48.5q69 0 117.5 -48t48.5 -118q0 -69 -48 -117.5t-118 -48.5q-69 0 -117.5 48t-48.5 118z" />
<glyph unicode="&#x202a;" horiz-adv-x="0" d="M-41 -273v1506h476v-79h-393v-1427h-83z" />
<glyph unicode="&#x202b;" horiz-adv-x="0" d="M-435 1154v79h476v-1506h-83v1427h-393z" />
<glyph unicode="&#x202c;" horiz-adv-x="0" d="M-238 977v434h476v-434h-196v-1250h-84v1250h-196z" />
<glyph unicode="&#x202d;" horiz-adv-x="0" d="M-238 977v434h476v-79h-395v-277h395v-78h-196v-1250h-84v1250h-196z" />
<glyph unicode="&#x202e;" horiz-adv-x="0" d="M-238 977v78h395v277h-395v79h476v-434h-196v-1250h-84v1250h-196z" />
<glyph unicode="&#x202f;" horiz-adv-x="410" />
<glyph unicode="&#x2030;" horiz-adv-x="2048" d="M42 1015q0 349 307 349q305 0 305 -349q0 -353 -310 -353q-302 0 -302 353zM142 -20l948 1382h151l-949 -1382h-150zM246 1015q0 -149 23.5 -207t74.5 -58q54 0 79.5 60.5t25.5 204.5q0 140 -25 200t-80 60q-51 0 -74.5 -56t-23.5 -204zM723 324q0 349 307 349 q305 0 305 -349q0 -353 -310 -353q-302 0 -302 353zM927 324q0 -149 23.5 -207t74.5 -58q54 0 79.5 60.5t25.5 204.5q0 140 -25 200t-80 60q-51 0 -74.5 -56t-23.5 -204zM1393 324q0 349 307 349q305 0 305 -349q0 -353 -310 -353q-302 0 -302 353zM1597 324 q0 -149 23.5 -207t74.5 -58q54 0 79.5 60.5t25.5 204.5q0 140 -25 200t-80 60q-51 0 -74.5 -56t-23.5 -204z" />
<glyph unicode="&#x2032;" horiz-adv-x="576" d="M135 860l49 481h258l-203 -481h-104z" />
<glyph unicode="&#x2033;" horiz-adv-x="1131" d="M204 860l49 481h258l-203 -481h-104zM621 860l49 481h258l-203 -481h-104z" />
<glyph unicode="&#x2034;" horiz-adv-x="1131" d="M99 1341h258l-78 -481h-104zM437 1341h258l-78 -481h-104zM775 1341h258l-78 -481h-104z" />
<glyph unicode="&#x2039;" horiz-adv-x="682" d="M126 429v66l330 356h100l-182 -389l182 -388h-100z" />
<glyph unicode="&#x203a;" horiz-adv-x="682" d="M126 74l182 389l-182 389h100l330 -356v-66l-330 -356h-100z" />
<glyph unicode="&#x203c;" horiz-adv-x="1237" d="M174 137q0 69 48 117.5t118 48.5q69 0 117.5 -48t48.5 -118q0 -69 -48 -117.5t-118 -48.5q-69 0 -117.5 48t-48.5 118zM190 1341h299l-92 -921h-115zM731 137q0 69 48 117.5t118 48.5q69 0 117.5 -48t48.5 -118q0 -69 -48 -117.5t-118 -48.5q-69 0 -117.5 48t-48.5 118z M747 1341h299l-92 -921h-115z" />
<glyph unicode="&#x203e;" horiz-adv-x="682" d="M-60 1540v80h802v-80h-802z" />
<glyph unicode="&#x2044;" horiz-adv-x="342" d="M-373 0l965 1341h120l-962 -1341h-123z" />
<glyph unicode="&#x205e;" horiz-adv-x="682" d="M174 92q0 69 48 117.5t118 48.5q69 0 117.5 -48t48.5 -118q0 -69 -48 -117.5t-118 -48.5q-69 0 -117.5 48t-48.5 118zM174 483q0 69 48 117.5t118 48.5q69 0 117.5 -48t48.5 -118q0 -69 -48 -117.5t-118 -48.5q-69 0 -117.5 48t-48.5 118zM174 875q0 69 48 117.5 t118 48.5q69 0 117.5 -48t48.5 -118q0 -69 -48 -117.5t-118 -48.5q-69 0 -117.5 48t-48.5 118zM174 1266q0 69 48 117.5t118 48.5q69 0 117.5 -48t48.5 -118q0 -69 -48 -117.5t-118 -48.5q-69 0 -117.5 48t-48.5 118z" />
<glyph unicode="&#x205f;" horiz-adv-x="477" />
<glyph unicode="&#x206a;" horiz-adv-x="0" d="M-238 977v78h196v277h-196v79h476v-79h-196v-277h196v-78h-196v-1250h-84v1250h-196z" />
<glyph unicode="&#x206b;" horiz-adv-x="0" d="M-238 977v434h476v-434h-196v-1250h-84v1250h-196zM-157 1055h314v277h-314v-277z" />
<glyph unicode="&#x206c;" horiz-adv-x="0" d="M-240 1411h480l-198 -366v-1318h-84v1318z" />
<glyph unicode="&#x206d;" horiz-adv-x="0" d="M-240 977l240 441l240 -441h-198v-1250h-84v1250h-198z" />
<glyph unicode="&#x206e;" horiz-adv-x="0" d="M-239 1193l239 221l239 -221l-197 -181v-1285h-84v1285zM-126 1193l126 -112l126 112l-126 113z" />
<glyph unicode="&#x206f;" horiz-adv-x="0" d="M-238 977v78h196v277h-196v79h280v-356h196v-78h-196v-1250h-84v1250h-196z" />
<glyph unicode="&#x20a0;" horiz-adv-x="1304" d="M25 907q0 247 129 374.5t382 127.5q162 0 346 -48l4 -251h-74l-21 139q-96 65 -209 65q-148 0 -219 -98.5t-71 -306.5q0 -173 65.5 -273.5t179.5 -115.5v341l-130 18v61h810v-249h-76l-20 142q-73 10 -227 10h-106v-315h206l22 104h72v-309h-72l-22 107h-206v-333h137 q177 0 237 11l38 164h76l-13 -272h-856v61l130 19v344q-240 0 -376 127.5t-136 355.5z" />
<glyph unicode="&#x20a1;" horiz-adv-x="1479" d="M100 655q0 344 180.5 522.5t533.5 178.5h11l43 125h108l-44 -129l101 -10l47 139h108l-53 -156q88 -17 162 -36l6 -322h-90l-28 194q-40 26 -89 47l-374 -1104q67 -21 148 -21q113 0 197.5 30t132.5 71l32 220h91l-6 -340q-90 -35 -234 -59.5t-268 -24.5q-68 0 -132 8 l-41 -121h-108l47 139q-34 8 -94 29l-57 -168h-108l72 213q-143 84 -218.5 229t-75.5 346zM432 658q0 -188 50 -317l306 904q-184 -26 -270 -170t-86 -417zM550 222q31 -40 79 -73l369 1090q-50 11 -100 12z" />
<glyph unicode="&#x20a2;" horiz-adv-x="1479" d="M100 655q0 344 180.5 522.5t533.5 178.5q233 0 483 -67l6 -322h-90l-28 194q-132 90 -307 90q-232 0 -339 -144.5t-107 -448.5q0 -407 230 -529v561l-122 24v66h375l11 -195q77 102 167 163.5t163 61.5h54v-313h-56l-45 96q-62 0 -148.5 -30.5t-129.5 -61.5v-416 q168 15 269 99l32 190h91l-6 -310q-90 -35 -234 -59.5t-268 -24.5q-337 0 -526 179t-189 496z" />
<glyph unicode="&#x20a3;" d="M35 1268v73h963v-361h-94l-32 237q-98 14 -229 14h-121v-549h275l31 140h89v-392h-89l-31 142h-275v-188h230v-102h-230v-182l183 -27v-73h-657v73l159 27v182h-159v102h159v858z" />
<glyph unicode="&#x20a4;" d="M82 519v101h155l-54 102h-101v101h58q-37 104 -37 183q0 168 118.5 259t354.5 91q60 0 122 -7t189 -36v-305h-87l-43 194q-87 53 -181 53q-179 0 -179 -249q0 -88 11 -183h266v-101h-253l16 -102h237v-101h-226q5 -25 5 -56q0 -62 -20.5 -119.5t-72.5 -121.5l600 1v-223 h-873v123l71 62q143 120 143 245q0 40 -17 89h-202z" />
<glyph unicode="&#x20a5;" horiz-adv-x="1706" d="M55 0v66l92 24v760l-92 24v66h365l14 -82l68 35q140 72 251 72q152 0 212 -101l130 318h112l-114 -278q134 61 230 61q254 0 254 -277v-598l94 -24v-66h-467v66l84 24v559q0 84 -32.5 131t-98.5 47q-46 0 -103 -19l-47 -117v-601l94 -24v-66h-376l-109 -268h-112l214 525 v392q0 84 -32.5 131t-98.5 47t-151 -39v-698l86 -24v-66h-467z" />
<glyph unicode="&#x20a6;" horiz-adv-x="1479" d="M28 486v101h183v184h-183v101h183v370l-172 26v73h459l360 -469h297v370l-180 26v73h477v-73l-172 -26v-370h182v-101h-182v-184h182v-101h-182v-486h-117l-373 486h-454v-386l180 -27v-73h-477v73l172 27v386h-183zM336 587h376l-141 184h-235v-184zM336 872h158 l-158 206v-206zM935 771l141 -184h79v184h-220z" />
<glyph unicode="&#x20a7;" horiz-adv-x="1984" d="M20 1268v73h415q269 0 401 -93.5t132 -301.5q0 -193 -74 -283l85 11l121 219h106v-213h138v-94h-138v-371q0 -67 15.5 -99t52.5 -32q42 0 96 15v138h66l33 -77q54 -87 156 -87q110 0 110 82q0 25 -13 42t-36 29.5t-113 38.5q-84 23 -122.5 51t-60.5 70.5t-22 106.5 q0 100 73.5 158.5t209.5 58.5q102 0 230 -29v-205h-66l-32 80q-18 27 -53 43.5t-70 16.5q-42 0 -68.5 -18t-26.5 -55q0 -25 16 -42.5t43 -31.5t121 -40q110 -31 151 -82t41 -142q0 -108 -80.5 -166.5t-227.5 -58.5q-56 0 -125.5 14t-122.5 36q-72 -50 -186 -50 q-119 0 -178.5 54.5t-59.5 182.5v369h-101v39q-116 -99 -336 -99h-112v-426l123 -27v-73h-498v73l89 27v1142zM408 636h40q120 0 174 70.5t54 237.5q0 160 -51 223.5t-181 63.5h-36v-595z" />
<glyph unicode="&#x20a8;" horiz-adv-x="2485" d="M35 1268v73h641q296 0 442 -91t146 -284q0 -288 -270 -370l358 -496l145 -27v-73h-434l-374 568h-166v-468l172 -27v-73h-647v73l159 27v1142zM523 678h145q154 0 219 64t65 222q0 150 -62 208.5t-227 58.5h-140v-553zM1750 685q0 128 95 204t245 76q103 0 277 -29v-241 h-66l-32 110q-29 29 -81.5 47.5t-99.5 18.5q-72 0 -106.5 -29.5t-34.5 -80.5q0 -53 43 -87t177 -74q146 -45 207 -118.5t61 -183.5q0 -157 -96.5 -237.5t-280.5 -80.5q-76 0 -167.5 16.5t-138.5 34.5v256h66l38 -132q35 -35 92 -58.5t116 -23.5q87 0 129.5 37.5t42.5 95.5 q0 55 -41 88t-179 76q-145 45 -205.5 123t-60.5 192z" />
<glyph unicode="&#x20a9;" horiz-adv-x="2048" d="M29 1268v73h602v-73l-157 -26l132 -370h325l143 355h125l143 -355h299l110 370l-169 26v73h434v-73l-117 -26l-116 -370h189v-101h-221l-57 -184h278v-101h-310l-161 -517h-123l-209 517h-249l-207 -517h-123l-181 517h-336v101h301l-64 184h-237v101h202l-129 370z M642 771l66 -184h109l74 184h-249zM744 486l16 -43l17 43h-33zM960 587h168l-74 184h-20zM1382 771l74 -184h100l55 184h-229zM1497 486l17 -41l12 41h-29z" />
<glyph unicode="&#x20aa;" horiz-adv-x="1245" d="M131 446q0 380 166 687h379q75 0 99 -7.5t33 -27.5t9 -84v-514q0 -20 -7.5 -32.5t-43.5 -44t-47 -28.5q-13 0 -16 6.5t-3 28.5v358q0 55 -10.5 65.5t-54.5 10.5h-248q-77 0 -108 -129t-31 -319q0 -175 15 -317l3 -48q0 -14 -8.5 -25t-40 -36t-41.5 -23q-15 0 -20 27 q-25 190 -25 452zM422 121v514q0 17 8 28.5t33 32.5q46 41 61 41q11 0 13 -6t2 -29v-356q0 -51 9.5 -63.5t57.5 -12.5h246q80 0 110.5 124t30.5 325q0 162 -13 316l-3 48q0 21 37 51.5t53 30.5q19 0 23 -26q22 -156 22 -451q0 -381 -166 -688h-379q-84 0 -106.5 8.5 t-30.5 29.5t-8 83z" />
<glyph unicode="&#x20ab;" horiz-adv-x="1050" d="M8 -142h1024v-143h-1024v143zM8 457q0 240 110 364t317 124q109 0 220 -27q-6 33 -6 171v10h-218v103h218v129l-96 24v66h385v-219h103v-103h-103v-1009l103 -24v-66h-362l-21 53q-56 -36 -86 -47.5t-68 -18.5t-84 -7q-209 0 -310.5 116.5t-101.5 360.5zM301 465 q0 -183 47.5 -278.5t134.5 -95.5q77 0 166 42v690q-82 20 -158 20q-90 0 -140 -96t-50 -282z" />
<glyph unicode="&#x20ac;" d="M26 493v101h110l-2 67v38l2 39h-110v101h118q60 517 509 517q101 0 171 -8t155 -25l4 -285h-89l-28 150q-84 65 -188 65q-219 0 -248 -414h284v-101h-287l-3 -71q0 -55 3 -73h287v-101h-284q17 -208 85.5 -309t170.5 -101q126 0 198 80l28 165h89l-4 -298 q-162 -50 -336 -50q-220 0 -353 132.5t-164 380.5h-118z" />
<glyph unicode="&#x20ad;" horiz-adv-x="1593" d="M10 615v101h197v526l-172 26v73h660v-73l-173 -26v-526h22l589 526l-123 26v73h459v-73l-164 -26l-443 -391l106 -135h467v-101h-388l405 -515l125 -27v-73h-438l-477 615h-60l-80 -69v-446l193 -27v-73h-680v73l172 27v515h-197z" />
<glyph unicode="&#x20ae;" horiz-adv-x="1366" d="M32 966v375h1303v-375h-92l-27 249q-83 18 -328 18h-49v-316l220 96v-112l-220 -96v-114l220 96v-112l-220 -96v-479l213 -27v-73h-742v73l213 27v342l-224 -97v112l224 97v114l-224 -97v112l224 97v455h-51q-229 0 -322 -20l-27 -249h-91z" />
<glyph unicode="&#x20af;" horiz-adv-x="2288" d="M71 150q0 73 62.5 116.5t161.5 43.5q50 0 99 -11l48 251q38 188 70 291t73.5 194t95.5 160q-111 -12 -217.5 -43.5t-187.5 -71.5v109q208 93 498 99q62 62 121.5 105.5t146.5 98.5l104 -52q-53 -45 -139 -156q150 -15 259.5 -92t168 -201.5t58.5 -279.5q0 -189 -86 -359 t-230 -261t-320 -91q-86 0 -156.5 26t-144.5 82q-62 -59 -131 -83.5t-164 -24.5q-86 0 -138 41.5t-52 108.5zM173 156q0 -35 24.5 -51.5t60.5 -16.5q86 0 112 113q-46 19 -100 19q-40 0 -68.5 -18t-28.5 -46zM623 184q102 -79 215 -79q99 0 181 79t132 227.5t50 321.5 q0 197 -66 320.5t-183 143.5q-54 -86 -102 -218.5t-105 -382.5q-63 -287 -122 -412zM1268 -407q51 98 97 276l109 438q39 154 127.5 221.5t236.5 67.5q153 0 250.5 -78t97.5 -203q0 -143 -100 -231t-266 -88q-83 0 -145 25l-39 -189q-32 -145 -83 -239h-285zM1727 292 q0 -88 26 -140t69 -52q45 0 73.5 54t28.5 138q0 89 -25.5 139t-67.5 50q-46 0 -75 -52t-29 -137z" />
<glyph unicode="&#x20b0;" d="M6 0l304 557l187 -304l79 157q-121 243 -164 376.5t-43 228.5q0 160 88.5 250.5t249.5 90.5q120 0 186.5 -66.5t66.5 -182.5q0 -181 -176 -527q106 -230 144 -331t57.5 -186.5t19.5 -167.5q0 -153 -100 -244t-263 -91q-96 0 -172 23v220h64l43 -114q24 -19 49 -19 q53 0 85.5 50.5t32.5 136.5q0 104 -24.5 206.5t-80.5 229.5l-194 -387l-194 315l-120 -221h-125zM626 1082q0 -85 23 -174.5t72 -209.5q56 112 87.5 218t31.5 178q0 154 -107 154q-46 0 -76.5 -39t-30.5 -127z" />
<glyph unicode="&#x20b1;" horiz-adv-x="1251" d="M10 772v101h197v122h-197v101h197v146l-172 26v73h591q223 0 359.5 -59t183.5 -186h82v-101h-60l2 -49q0 -37 -4 -73h62v-101h-85q-88 -246 -463 -246h-180v-426l223 -27v-73h-698v73l159 27v672h-197zM523 636h83q101 0 157.5 33.5t82.5 102.5h-323v-136zM523 873h345 l3 71l-2 51h-346v-122zM523 1096h329q-24 74 -83.5 104.5t-166.5 30.5h-79v-135z" />
<glyph unicode="&#x20b2;" horiz-adv-x="1593" d="M100 655q0 322 177.5 503.5t509.5 196.5v128h102v-128q100 -3 190.5 -16t181.5 -39t101 -29v-308h-90l-24 174q-68 48 -164 80t-195 34v-1168q104 4 202 35v388l-132 26v74h578v-74l-131 -26v-436q-105 -35 -245 -58.5t-272 -29.5v-138h-102v137q-323 11 -505 190.5 t-182 483.5zM432 657q0 -249 88.5 -394t266.5 -174v1156q-185 -27 -270 -170.5t-85 -417.5z" />
<glyph unicode="&#x20b3;" horiz-adv-x="1479" d="M20 0v73l100 27l134 352h-164v101h202l47 122h-249v101h287l220 576h290l218 -576h286v-101h-247l46 -122h201v-101h-163l134 -352l102 -27v-73h-597v73l155 27l-130 352h-512l-124 -352l172 -27v-73h-408zM419 553h438l-44 122h-349zM502 776h274l-135 374z" />
<glyph unicode="&#x20b4;" horiz-adv-x="1139" d="M44 498v101h109q45 86 143 145h-252v101h489q136 45 187.5 73t78.5 64t27 85q0 91 -64.5 138t-190.5 47q-136 0 -238 -74l-45 -184h-89v319q199 43 372 43q232 0 352.5 -92.5t120.5 -269.5q0 -79 -24 -149h116v-101h-174q-69 -85 -220 -145h394v-101h-666 q-78 -38 -109.5 -81.5t-31.5 -99.5q0 -236 287 -236q92 0 176 33t127 82l45 215h88v-360q-90 -33 -209.5 -52t-230.5 -19q-503 0 -503 427q0 49 8 91h-73z" />
<glyph unicode="&#x20b5;" horiz-adv-x="1479" d="M100 655q0 338 173.5 516t513.5 184v128h102v-129q190 -8 408 -65l6 -322h-90l-28 194q-127 86 -296 90v-1168q106 3 185.5 32.5t125.5 68.5l32 220h91l-6 -340q-89 -33 -207.5 -55t-220.5 -27v-138h-102v137q-327 8 -507 186.5t-180 487.5zM432 658q0 -260 93 -401.5 t262 -167.5v1156q-183 -26 -269 -169t-86 -418z" />
<glyph unicode="&#x2122;" horiz-adv-x="2048" d="M83 1112v231h742v-231h-71l-16 149q-71 13 -161 13h-30v-660l128 -16v-60h-445v60l128 16v661h-31q-42 0 -73.5 -2t-83.5 -12l-16 -149h-71zM882 538v60l103 16v653l-103 16v60h335l214 -495l218 495h322v-60l-103 -16v-653l103 -16v-60h-400v60l108 16v586l-293 -662 h-33l-278 645v-569l103 -16v-60h-296z" />
<glyph unicode="&#xe000;" horiz-adv-x="940" d="M0 0v940h940v-940h-940z" />
<glyph unicode="&#xfb01;" horiz-adv-x="1139" d="M15 836v69l142 39v81q0 196 127.5 306.5t351.5 110.5q62 0 139.5 -12t109.5 -24v-234h-64l-39 114q-17 16 -52 31t-79 15q-205 0 -205 -275v-117h580v-850l103 -24v-66h-494v66l102 24v746h-291v-746l103 -24v-66h-494v66l102 24v746h-142z" />
<glyph unicode="&#xfb02;" horiz-adv-x="1139" d="M15 836v69l142 39v101q0 190 101.5 293.5t287.5 103.5q67 0 256 -21h215v-1331l103 -24v-66h-494v66l102 24v1197q-86 45 -158 45q-61 0 -92.5 -64.5t-31.5 -180.5v-147h191v-104h-191v-746l113 -24v-66h-504v66l102 24v746h-142z" />
</font>
</defs>
</svg>
